<svg xmlns="http://www.w3.org/2000/svg" viewBox="0 0 250 250"><path d="M54 129.7c.3.8-.1 35.4-1.2 47.7-1.4 15.1 9.4 69.4 9.4 69.4l.4 1.3-7.8 1.7s-20.2-55.5-16.3-81.6c2.2-15-4.5-45.9-5.4-58.1C31 83 61.7 75.7 61.7 75.7" fill="#00264a"/><path d="M159.6 81.8s-6.3-.4-7 25.7l-13.4 1.8s-.8 78.9-2.7 91.3c0 0-46.6 12-70-1.1h-3.3l-7.8-58.7-.7 9.8s-17.1-2.9-22.8-8.8c0 0 1-8.9.1-24.7-.9-16.4 4.8-36.1 29.8-42.2 0 0 23-.2 32.1-3 9.1-2.8 20.1-9.4 37.1-2.2s28.6 12.1 28.6 12.1z" fill="#00264a"/><path d="M57.4 60.5s5.2 10.4 1.3 17c0 0-4.2 14.1 18.4 12.9 0 0 24-4.9 18.6-19.1 0 0-4.4 3.6-7.6-10.7" fill="#ddd8cb"/><path d="M155.3 88.1c-1.9 3-3.3 21.9-3.3 21.9l-12.5.1s-1.2 57.6-2.5 79c-1.3 21.3-1.3 43.3-1.3 43.3l-74.5-49.1-5.9-40.3-.6 6.7-13.3-2.5s-4.2-28.2-2-40.5c2.5-13.8 9.7-27.3 18.6-19.4 4.9 4.4 29.3 4.1 31.9-2l.9 1.7c3.5-2.6 9.6-14.2 5.8-15.1 0 0 15.7-3.2 22.3-1.2 6.7 2 36.4 17.3 36.4 17.3" opacity=".6" fill="#012"/><path d="M54.4 148.6c-2.4-.3-10.8-.9-17.4-3.8-.5-.2-2.6-1.5-2.5-1 1.1 4.4 4.8 20.5 2 31-3.2 12.3 15.9 67.5 16.3 68.5.2.6 1-1.3 1.1-2 .9-6.6 7.5-42.1 5.1-55.9l-.3-1.7c-.4-2.1-1-4.2-1.6-6.2-.8-2.7-2.1-9.8-2.1-28.3-.1-.3-.3-.5-.6-.6z" fill="#ddd8cb"/><path d="M41.3 145.8s1.8 24.3.3 36.3C40 194 53 244.8 53 244.8l.7-1.7s10.2-39.4 3.8-62.9c-4.7-17.5-1.5-36.5-1.5-36.5l-14.7 2.1z" fill="#628a8e"/><path d="M113 66.4s-10.2 55.7 24.6 127.5c0 0 2.6 8.5-2 41.1v13.9l-20.8-1.5c-9.1-.9-27.2-1.7-36.9-.2l-16.6 1.2s-5.1-50.6-2.6-59-1.3-32.2-3.5-45.2-9.2-54.3-5.3-64.8l5.8-2.5s-5 34.3 11.1 47.3 33.1 8.7 35.2-12.6c2.2-21.3.4-44.4 3.9-45.2.2 0 5-1.8 7.1 0z" fill="#004e85"/><path d="M54.9 85.8s-5.9 19.7 2.5 36.8c7.9 16 18.1 19.6 22.6 34.6s3.7 52.9 6.4 63.8c2.7 10.9 5.3 25.5 5.3 25.5l43.9 2.5 2.4-50c-.1-10.5-3.8-8-6.6-18.1l-17.9-63.6s-6.3-39.4-8.9-33.9c-2.5 5.5.2 48.5-16.3 50.3-11.1.9-24.9 1.7-33.4-47.9z" opacity=".2" fill="#012"/><path d="M94.7 17s5.2 4.3 4.3 8.6-3.4 7-4 11.9 0 9.8-1.8 15.9c-.7 2.2-1.3 4.8-1.9 7.5-2.4 10.4-7.4 13.4-16.1 19.6-1 .7-3.8.3-11.8-8.1C53 61.6 55 42.7 53.7 30.8s-5.8-17.5-1.5-19.6c0 0 4.5-11.9 17.3-11.1 7.3.5 20 9.6 26.1 9.6l6.1.4c0-.1-2.4 6.6-7 6.9z" fill="#012"/><path d="M159.6 81.8s20 7.8 25.7 10c5.7 2.2 32.2 7.8 32.2 30 0 0-.6 2.8-2.8 3.3-4.5 1-62-21.5-62-21.5s2.1-22.2 6.9-21.8zM93.8 27.2c-.4 2.4-.6 4.8-.5 7.1.2 4.6.1 11.7-1.6 16.2-2.6 7-3.5 6.5-3.5 6.5s-2.2-5.2-9.6-5.7-7.4.4-11.7 2.6l-4.4 2.2s-3.9-1.7-5.7-5.7c-1.7-3.9-3-15.7-3-15.7s7.2-16.8 12-18.3l1.1-.4s11.3 4.4 19.1 3.9c.1.2 9-.9 7.8 7.3z" fill="#ddd8cb"/><path d="M89.8 38.3s-1.8 7.2-4.1 7.8c0 0 2.4 4.4 8.5-.7 6-4.9.4-8.4-4.4-7.1z" fill="#7eb2bb"/><path d="M89.8 37.9s-1.8 7.2-4.1 7.8c0 0 2.4 4.4 8.5-.7 6-4.9.4-8.4-4.4-7.1z" fill="#7eb2bb"/><path d="M89.8 37.5s-1.8 7.2-4.1 7.8c0 0 2.4 4.4 8.5-.7 6-5 .4-8.4-4.4-7.1z" fill="#7eb2bb"/><path d="M89.8 37.9s-1.8 7.2-4.1 7.8c0 0 2.4 4.4 8.5-.7 6-4.9.4-8.4-4.4-7.1z" fill="#7eb2bb"/><path d="M83.8 20.2s1.6 12-.7 13.8c-2.3 1.7-1.4.1-2 3.3-.6 3.2 3.8 11.2 1.5 12.6-2.3 1.5-3.6 1.5-2.9 1.6 7 1.3 8.8 5.5 8.8 5.5s6.6-7.5 6.6-24.9c0 0 3.5-16.3-11.3-11.9zM76.1 80.2s3 6.7-5.1 10.2c0 0 26.4 2.3 25.2-17.4 0 0-6.8.5-7.8-4.6L86.1 72l-3 2.9-7 5.3zM155.3 87.9l42.4 17s-15.7 0-23.5.7c-7.8.7-15.7 0-15.7 0l-5.9-2s.8-13.2 2.7-15.7z" fill="#7eb2bb"/><path d="M58 24.4s-2 23.9 5.9 34.7c0 0-11.7-5.8-11.7-32.9" fill="#012"/><path d="M53.6 10.8s-3.6-.7-5.8 7.1 6.5 21.3 6.5 21.3" fill="#012"/><path d="M54.5 34l.1 10.9s-4.6-7-3.7-10.9c.8-3.3 3.5 0 3.5 0" fill="#ddd8cb"/><path d="M58.7 214.1s-3.7 24.8-6.7 27l3 8.9 7.6-1.5-3.9-34.4z" fill="#001a30"/><path d="M93.9 38.2h2.3l-13.9-1.7s-.6 8.2 2 10.2c3.4 2.5 13.3 3.6 13.8-5.9l.1-1.6-4.1-2M78.2 36.7s1.8 7.9-8.1 8.7c-1.4.1-3.2.1-4.4-.8-2.1-1.7-5.6-5.4-2.8-10.8l15.4 2.1-.1.8z" fill="#00264a"/><path fill="#00264a" d="M64.6 34l-12.7-2.2 2.6 2.2 9.5 2.2"/><path d="M95.2 41.1c-.3 2.2-1.5 6.3-7.1 5.8-1.3-.1-2.5-.7-3.2-1.8-.9-1.3-1.7-3.3-1-6.2.2-.6.8-1 1.4-.9l8.7 1.4c.8.2 1.3.9 1.2 1.7zM76.9 38.5c-.3 2.2-1.5 6.3-7.1 5.8-1.3-.1-2.5-.7-3.2-1.8-.9-1.3-1.7-3.3-1-6.2.2-.6.8-1 1.4-.9l8.7 1.4c.8.2 1.3.9 1.2 1.7z" fill="#ddd8cb"/><path d="M84.5 36.7l-8.9-1.2s2.6 1.5 2.1 5c0 0 2.9-2.7 4.6-.4l2.2-3.4z" fill="#00264a"/><path d="M82.3 60.6c-1.3-1.8-4.3-4.5-10.2-2.1-1 .4-1.7 1.5-1.7 2.6.1 1.5.4 3.5 1.5 3.9 1.9.8 3.4-2.3 3.4-2.3l3.4.8s-.8 3.8 1.1 3.1c1.2-.5 2.1-2.1 2.6-3.3.5-1 .4-2-.1-2.7z" fill="#ddd8cb"/><path d="M82.2 61.6s-3.5 2.8-10.7-2c0 0 2.2 4.8 5 5.2 2.8.5 5.7-3.2 5.7-3.2zM89.7 38.9s-1.5 6.6-3.8 7.1c0 0 .8.9 2.8.9 1.3 0 3.1.1 5.2-2.2 1.4-1.6 2.2-4.1 1.1-4.9-.5-.2-3.1-.7-5.3-.9z" fill="#7eb2bb"/><path d="M216.7 123.7c-32 13.3-66.1-5.2-66.1-5.2-1.7 4.4-6.6 10-6.6 10l-16-8.7c1.3-7 10-14.4 22.2-14.8 12.2-.4 14.4-.4 28.3-1.7s27 4.8 27 4.8" fill="#ddd8cb"/><path d="M157 150.9s-3-13.6-18.4-15.8c0 0-9.9-1.5-16.4 4.9-6.5 6.4-8.1 15.1-9.6 18.6 0 0-14.1-4.1-30.9-.1 0 0-2.2 2.6-1.2 3.5 0 0 19.9-6.2 40.2 12.2 0 0 11.5 13.1 28.6.4 0 0 14.9-11.6 7.7-23.7z" fill="#ffb800"/><path d="M154.6 152.5s4.6-5.2-3.8-16.7c-8.4-11.5-16.7-13.2-29.9-8.4s-6.1 23.9-4.4 26.3l-4.2 6.2s-15.2-32.3 10.7-38.1c26-5.8 33.5 12.4 36.3 18.7 4.4 10-2.6 27.8-6.7 30.6" fill="#ffb800"/><path d="M127.5 137.6c8.3-2.9 23 .4 27.9 10.8-1.6-14.3-12.3-19.5-12.3-19.5l1.7-2.6c23.6 17.7 12.5 39.7 12.5 39.7-.6-.6-.3-.2-.6.6-3.7 10.8-12.8 12.4-19.4 13.1-2.3.2-3.7 1.3-2.5-.7 12.1-20-5.7-39.6-5.7-39.6l-1.6-1.8zM127.5 121.1s-13.3.9-15.4 10.2c-2 9.3 3.2 19.7 3.2 19.7s-6.7-22.3 10.7-24.9" fill="#db7400"/><path d="M128 119.8s-2.2 4.8-2.2 7.4c0 2.6 3.5 0 6.1 1.3 2.6 1.3 3.9 2.2 6.5 3 2.6.9 10.7-4.1 12-12.8" fill="#ddd8cb"/><path d="M208.7 115.6c-12.6 1.1-36.5 2.1-52.8-3.1-5.1-1.6-10.7-.4-14.5 3.4-1.9 1.9-5.9 5.8-5.9 9.2l9.6 3.3c2.1-2.1 3.8-4.4 4.8-7.3l.7-2.6s28.9 17.7 65.8 5.7l1.5-2.3c-1-4.7-4.3-6.7-9.2-6.3z" fill="#7eb2bb"/><path d="M163.5 104.7s-26.1-1.9-33.9 11.7c-.1 0 5.5-14.3 33.9-11.7z" fill="#ddd8cb"/><path d="M132.2 176.8s4.4 2.9 16-1.7c0 0-12.2 9.9-23.8 1.2" fill="#ffb800"/><path d="M138.8 119.5l-3.2 3.2c-1.2 1.2-2.5 2.3-4 3.2l-4.1 2.6s3.9-.9 6.1.9.4 2.2 4.8 2.2c4.4 0 4.4-.4 7.4-3.9" fill="#8db2b8"/><path d="M149.1 125.6s-1.4 2.4-4.1 3.7h-.9s2.6-1.8 4-4.4l1 .7z" opacity=".9" fill="#984a00"/></svg>