<svg xmlns="http://www.w3.org/2000/svg" viewBox="0 0 250 250"><path d="M91 185.7l13.8 58.5s12.8 7.4 31 5.4 22.6-6.9 22.6-6.9l11.8-58s-31.4 9.4-79.2 1z" fill="#00264a"/><path d="M104.2 185.1s-18-8.5-15.7-42.6c0 0 17.1 26.9 21.6 43.3l-5.9-.7zM120.9 185.4s-15.1-21.6-17.4-35.4 4.6-22 4.6-22l15.4 57.7-2.6-.3z" fill="#012"/><path d="M123.5 175.6s-11.1-14.4-9.2-37.1c0 0 13.1 18 14.4 34.4l-5.2 2.7z" fill="#012"/><path d="M125.1 184.1s-13.8-23.6 12.1-63.3c0 0 3.9 39.7-6.2 64.6l-5.9-1.3z" fill="#012"/><path d="M137.4 119.6s3 18.4.3 27.5l-1.6 4.3" fill="#00bcf5"/><path d="M143.8 184.7s-3-15.4 2-21c4.9-5.6 26.2-25.2 27.2-36.4 0 0-1.3 31.8-19.7 55.7 0 .1-4.2 3.1-9.5 1.7z" fill="#00264a"/><path d="M153.3 183.1s2.3-15.4 9.8-19.3c7.5-3.9 15.7-10.8 15.7-10.8s-5.9 26.2-21.3 30.8l-4.2-.7z" fill="#00264a"/><path d="M113.2 177.9l-11.3-21.3s-2.3 6.4 0 9c4.9 5.4 3.9 7.8 11.3 12.3z" fill="#012"/><path d="M108.3 129.7s-9.6 16.7 21.2 57.1l-6.4 1.5s-31.8-34.3-14.9-60.2" fill="#004e85"/><path d="M124.5 151.5s1.6-15.6-11.7-23.4c0 0 14.2-6.3 16.1 11.9M131.1 185.5s1.6-34.5 12.1-46 15.4-23 15.4-23 .6 49.8-18.4 69.2l-9.1-.2z" fill="#012"/><path d="M152.5 141.9s0 27.3-14.6 45l-6.8.7" fill="#003d6e"/><path d="M130.9 133.1l-4.4-12.8s13.3-5.2 10.8-19.2c0 0-4.4 15.7-12.3 16.2 0 0-4.9-12.8-1.5-20.7 0 0 6.4-6.4 9.8-7.4l.5-3-10.8 7.1s5.9-28-4.9-34.9l-3 1.5s11.3 3.4 3.9 32c0 0-3.9-13.8-11.8-16.2l-2 1.5s8.4.5 13.3 24.1c0 0 2.5 25.1 10.3 36.4" fill="#012"/><circle cx="82.7" cy="37.2" r="5.8" fill="#00bcf5"/><g fill="#012"><path d="M83.316 33.552l3.004 1.983-.44.668-3.005-1.984zM83.6 39.7l-3-2 .7-1 2.1.1.9 1.8z"/><path d="M81.67 37.64l2.148-3.254 1.67 1.101-2.15 3.255z"/><path d="M80.8 41.2l-.5.3v-.6l2.2-3.4.6.4z"/></g><path d="M81.2 32.1s-2.3 8.7 4.3 10.2c0 0-4.8 2.9-7.5-1.2-3.6-5.5 3.2-9 3.2-9z" opacity=".4" fill="#012"/><path d="M84.2 17s-1.3 18.2 27.7 27.5l-1.8 1.7s-23.8-5-27.9-27.3" fill="#012"/><path d="M89.7 34.2s8.7-2.1 8.7-11.5l1.3.2s-.7 10.3-8 11.8" fill="#012"/><circle cx="114.4" cy="51.2" r="9.1" fill="#ffb800"/><path d="M111.8 42.3s7.5-1.5 10.8 4.8-2.6 11.5-4.1 12.2c0 0 3.8-8.8-3.8-13.4 0 0-4.2-2-8 .3 0-.1 1.8-3.1 5.1-3.9z" opacity=".9" fill="#fff5e3"/><path d="M119.1 46.8h-9.5c-.3 0-.5.2-.5.5v1.4c0 .3.2.5.5.5s.5-.2.5-.5v-1h3.8v8.4h-.7c-.3 0-.5.2-.5.5s.2.5.5.5h2.4c.3 0 .5-.2.5-.5s-.2-.5-.5-.5h-.7v-8.4h3.8v1c0 .3.2.5.5.5s.5-.2.5-.5v-1.4c-.1-.3-.4-.5-.6-.5z" fill="#00264a" stroke="#00264a" stroke-width=".492" stroke-miterlimit="10"/><path d="M118.1 58.3s6.4 3 7.1 13c.7 10-2.1 22-2.1 22l-.7-.2s3.1-13.6 1.6-24.4c0 0-.3-5.6-5.9-10.4z" fill="#e8e6e2"/><path d="M125.1 71.3s7.7-3.6 9.3-10l-.3-.3s-1.6 5.4-9.2 9.5" fill="#0095c7"/><path d="M124 68.7s9-4.1 10.2-7.7c0 0-1.8 7.4-10.3 11" fill="#012"/><path d="M93.3 34.4s4.6 4.8 10.7 7.1c0 0-6.9-2.8-11.1-6.6l.4-.5zM99.5 22.9s-.1 6.8-4.4 9.7c0 0 2.8-2.9 4.4-9.7z" fill="#e8e6e2"/><path d="M134.2 163.3s2.6-18 10.2-25.2c7.5-7.2 13.8-20.3 13.8-20.3s-2 13.4-15.4 26.9c-.1-.1-5.4 5.4-8.6 18.6z" fill="#0093c5"/><path d="M173 127.4s1.8 14.6-8.4 33.3c0 0 5.6-19.7 5.2-24.6l3.2-8.7z" fill="#00bcf5"/><path d="M153.2 141.6s1 12.1-8.5 34.4c0 0 6.2-23.9 4.6-25.9l3.9-8.5z" fill="#0093c5"/><path d="M123.5 96.7s-2.5 13.8 1.5 20.7l-1 .7c0-.1-4.6-12.2-.5-21.4z" fill="#e8e6e2"/><path d="M178.9 152.9s-3.3 18-13.6 24.9l13.6-24.9z" fill="#0093c5"/><ellipse cx="130.9" cy="185.1" rx="39" ry="5.6" fill="#012"/><path d="M138.5 102.4s0 12.5-9.6 15.7c0 0 8.6-3.7 8.4-17" fill="#0095c7"/><path d="M109.7 76.5s8.4 3.6 8.9 12.1c0 0-3.9-9.8-9.1-11.6" fill="#e8e6e2"/><circle cx="137.3" cy="65.4" r="1.7" opacity=".5" fill="#008acd"/><circle cx="135.1" cy="59.2" r="2.3" opacity=".7" fill="#00bcf5"/><path d="M97.1 211.5s-.3 3.5 17.5 5.7c17.2 2.2 46.2 1.6 49.8-3.1l-1.3 5.7s-.9.3-5.8 1.6c-10 2.8-48.3 4.2-58.9-4.5l-1.3-5.4z" fill="#003d6e"/><path d="M95.5 182.3s-6.9 0-4.9 3 26.1 7.1 55.1 5.9c23.8-1 31.5-5.4 21.2-9.3 0 0 6.4 5.9-33.9 6.4-22.8.2-44.4-2.1-37.5-6z" fill="#0078c1"/><path d="M162.9 155.7s-2 18.2-10.3 29h-5.2l15.5-29z" fill="#00bcf5"/><g><circle cx="103.6" cy="73.2" r="10.6" fill="#ffb800"/><path fill="#012" d="M100.2 67.9v11.3l9.2-6z"/><path d="M101.2 63.7s7.8-1.6 11.3 5.1c3.5 6.7-2.7 12.1-4.3 12.8 0 0 4-9.2-4-14.1 0 0-4.4-2.1-8.4.3.1-.1 2-3.2 5.4-4.1z" opacity=".9" fill="#fff5e3"/></g><path d="M91.4 10.1c0 5.6-4.5 10.1-10.1 10.1s-10.1-4.5-10.1-10.1S75.6 0 81.2 0c6.2 0 10.2 4.5 10.2 10.1z" fill="#ffb800"/><path d="M84.8 5.3h-9.2c-.8 0-1.5.7-1.5 1.5V13c0 .8.7 1.5 1.5 1.5h5.6l1.2 1.8 1.1-1.8h1.4c.8 0 1.5-.7 1.5-1.5V6.8c-.1-.9-.8-1.5-1.6-1.5zm-1 7.1h-7.7v-.5c0-.3.2-.5.5-.5h7.2c.3 0 .5.2.5.5s-.3.5-.5.5zm0-2h-7.2c-.3 0-.5-.2-.5-.5s.2-.5.5-.5h7.2c.3 0 .5.2.5.5s-.3.5-.5.5zm0-2.1h-7.2c-.3 0-.5-.2-.5-.5s.2-.5.5-.5h7.2c.3 0 .5.2.5.5s-.3.5-.5.5zM104.3 184.7S89.5 169 78.7 168.5c0 0 12 19.3 25.4 16.6" fill="#012"/><g fill="#02669d"><path d="M111.3 185.6s-14.3-10.9-11.1-28.3c0 0 15.5 13.9 21.4 29l-10.3-.7z"/><path d="M121.7 186.7s-9.8-21.2 1.1-40.3c0 0 11.8 23.4 9.6 40.3"/><path d="M119.2 168l2.5 17.7 10.3-.5s1.5-9.8-2-19.2"/></g><g><path d="M122.8 146.2s5.9 11.9 7.5 21.7l-8-19.6.5-2.1z" fill="#00bcf5"/><path d="M122.7 147.4s-1.2 36 7.9 40.7H121c0-.1-8.6-30.4 1.7-40.7z" fill="#003d6e"/></g><circle cx="100" cy="20.7" r="3.4" fill="#0093c5"/></svg>