<svg xmlns="http://www.w3.org/2000/svg" xmlns:xlink="http://www.w3.org/1999/xlink" viewBox="0 0 1000 1000"><defs><path id="a" d="M999.9 0l.1 978.5c-107-85.9-249-137.2-385.5-124.1-66.8 6.4-131.6 27.7-198.4 33.9-96.3 8.9-200.5-18-264.5-90.5-50.5-57.2-92.4-168.9-85.2-291.2 7.4-124.3 65.3-250.3 33.7-374.2C86 76.9 50.8 25.5 0 .6L999.9 0z"/></defs><clipPath id="b"><use xlink:href="#a" overflow="visible"/></clipPath><path d="M1001.5.9l.1 982.4c-107.4-86.2-250-137.7-387-124.6-67.1 6.4-132.1 27.8-199.2 34-96.7 8.9-201.3-18-265.5-90.9C99.1 744.4 57 632.3 64.3 509.5c7.4-124.8 65.5-251.3 33.8-375.7C83.9 78.1 48.6 26.4-2.4 1.5L1001.5.9z" clip-path="url(#b)" fill="#5093c3"/><path opacity=".3" clip-path="url(#b)" fill="#223f6c" d="M468.7 213l-16 56 38.8 3zM567.4 226.3l-16.7 43.4 44.1 2.3z"/><path d="M-13.9-52.3c-2.3 3.3 126.3-141.6 130.2-140.5 57 15.9 320 158 262 438-44.2 213.3-104.5 234.3-112 366-12 210 190 300 190 300l-374 36.5-94.2-997.4-2-2.6z" clip-path="url(#b)" fill="#ffb800"/><g clip-path="url(#b)"><path d="M795 314.1H401.8c-3.3 0-5.4-3.4-3.9-6.3l13.8-26.8 404.2 1.9-17.2 29.1c-.8 1.3-2.2 2.1-3.7 2.1zM838.9 506.5H541.4c-4.6 0-7.1-5.4-4.1-8.9l19-22.5 304.2.1-16.9 28.6c-1 1.7-2.8 2.7-4.7 2.7z" opacity=".5" fill="#223f6c"/><path fill="#032a4a" d="M456.3 281.4l8.5 65.4h11.4l9.9-68.2M740.3 281.4l8.5 65.4h11.4l9.9-68.2"/><path d="M491 212.2s-10.1-29.1-5.1-25.9 10.7 25.3 10.7 25.3l-5.6.6zM504.8 214.1s-20.2-48-13.9-63.8 22.1 59.4 22.1 59.4l-8.2 4.4z" opacity=".5" fill="#2a4f83"/><path d="M815.2 283.8H414.3c-3.5 0-6.4-2.9-6.4-6.4 0-3.5 2.9-6.4 6.4-6.4h400.9c3.5 0 6.4 2.9 6.4 6.4 0 3.5-2.8 6.4-6.4 6.4z" fill="#032a4a"/><path fill="#3d72a3" d="M634.9 109.9h126.2V271H634.9z"/><path d="M709.4 181H687c-1.5 0-2.7 1.2-2.7 2.7v50.8c0 1.5 1.2 2.7 2.7 2.7h22.5c1.5 0 2.7-1.2 2.7-2.7v-50.8c-.1-1.5-1.3-2.7-2.8-2.7z" fill="#3bbcf4"/><path d="M709.4 129.9H687c-1.5 0-2.7 1.2-2.7 2.7v39.6c0 1.5 1.2 2.7 2.7 2.7h22.5c1.5 0 2.7-1.2 2.7-2.7v-39.6c-.1-1.5-1.3-2.7-2.8-2.7z" fill="#5093c3"/><path d="M676.7 129.9h-22.5c-1.5 0-2.7 1.2-2.7 2.7v82.2c0 1.5 1.2 2.7 2.7 2.7h22.5c1.5 0 2.7-1.2 2.7-2.7v-82.2c0-1.5-1.2-2.7-2.7-2.7z" opacity=".6" fill="#223f6c"/><path d="M742.2 129.9h-22.5c-1.5 0-2.7 1.2-2.7 2.7v20.3c0 1.5 1.2 2.7 2.7 2.7h22.5c1.5 0 2.7-1.2 2.7-2.7v-20.3c0-1.5-1.2-2.7-2.7-2.7z" fill="#2a4f83"/><path d="M742.2 162h-22.5c-1.5 0-2.7 1.2-2.7 2.7V185c0 1.5 1.2 2.7 2.7 2.7h22.5c1.5 0 2.7-1.2 2.7-2.7v-20.3c0-1.5-1.2-2.7-2.7-2.7z" fill="#eead59"/><path d="M742.2 193.2h-22.5c-1.5 0-2.7 1.2-2.7 2.7v20.3c0 1.5 1.2 2.7 2.7 2.7h22.5c1.5 0 2.7-1.2 2.7-2.7v-20.3c0-1.5-1.2-2.7-2.7-2.7z" fill="#5093c3"/><path d="M522.4 212.2s-31.6-52.4-17.7-109.3c0 0 2.5-4.4 3.8 3.8s8.8 91.6 19 104.9l2.5 2.5s-26.5-94.1-10.1-146c0 0 3.2-3.8 4.4 0 1.3 3.8 8.8 146.6 8.8 146.6" opacity=".5" fill="#2a4f83"/><path d="M537 214.1s13.9-84.7 9.5-88.5c-4.4-3.8-15.8 94.1-15.8 94.1" opacity=".5" fill="#2a4f83"/><path d="M542.7 223.6s22.1-59.4 17.7-64.4c-4.4-5.1-26.5 60-26.5 60" opacity=".5" fill="#2a4f83"/><path d="M594.2 227.7s1.9-32.2-8.2-30.3c-10.1 1.9 2.5 31.2 8.2 32.4" fill="#2a4f83"/><path d="M593.4 228.2s12.7-22 19-21c6.3 1-4.8 16.9-15.9 24.5M598.7 202.3s-18.4-23.3-11-25.1c7.4-1.8 11.6 4.6 11 25.1z" fill="#2a4f83"/><path d="M598.6 198.7c-2 14.4-.6-30.3 12-29.1 17.5 1.7-13.3 32.9-13.3 32.9M598.6 177.6s-13.6-22.8-2.4-23.5c11.2-.6 8 14.4 2.4 23.5z" fill="#2a4f83"/><path d="M591.6 230.9s3.4-33.1 7.1-28.6-.8 34.2-.8 34.2" fill="#2a4f83"/><path d="M565.7 226.5h58.8s-4.7 24.6-10.4 44.5h-37s-10.4-33.2-11.4-44.5z" fill="#eead59"/><path d="M867.1 476.2H556.2c-3.5 0-6.4-2.9-6.4-6.4 0-3.5 2.9-6.4 6.4-6.4h310.9c3.5 0 6.4 2.9 6.4 6.4 0 3.5-2.9 6.4-6.4 6.4z" fill="#032a4a"/><circle cx="657.1" cy="-61.8" r="23.1" fill="#6c4170"/><path d="M835.9 367.1c-1.3-8.2-5.1-1.3-5.1-1.3-2.9 15.1-9.2 20.2-13.1 21.9-.1-6.6-.1-12.5-.1-15.6 0-10.1-3.8-16.4-8.8-7.6-5.1 8.8-1.3 55-1.3 55l10.7 1.9s-.2-9.9-.3-21c13.2-4.7 19.2-25.6 18-33.3z" opacity=".6" fill="#3a769b"/><path fill="#f8eacc" d="M624.5 227.4L614.1 272l-4.3-.5 10-43.1z"/><path d="M467.5 210.7s11.4 49.9 24 61.3h58.8s15.2-33.5 18.3-60.7l-101.1-.6z" fill="#3bbcf4"/><path fill="#5093c3" d="M558.1 251l-79.4-1.3-2.9-10h87.1z"/><path d="M806.5 270.8H751c-3.1 0-5.7-2.5-5.7-5.7v-90.3c0-3.1 2.5-5.7 5.7-5.7h55.5c3.1 0 5.7 2.5 5.7 5.7v90.3c0 3.2-2.5 5.7-5.7 5.7z" fill="#032a4a"/><path opacity=".49" fill="#ff7bac" d="M748.9 172.9h59.8v90.9h-59.8z"/><path fill="#eead59" d="M748.9 176h59.8v25.6h-59.8z"/><path fill="#5093c3" d="M748.9 201.5h59.8v62.2h-59.8z"/><path fill="#2c5082" d="M748.9 201.5h29.9v16.8h-29.9z"/><path fill="#2a4f83" d="M778.8 201.5h29.9v16.8h-29.9z"/><path fill="#1b0042" d="M748.9 172.9h59.8v3.1h-59.8z"/><g fill="#2a4f83"><circle cx="761.9" cy="188.8" r="6.9"/><path d="M794.9 187H774c-.4 0-.6-.3-.6-.6 0-.4.3-.6.6-.6h20.9c.4 0 .6.3.6.6s-.3.6-.6.6z"/></g><path d="M774.7 224.7h-20.9c-.4 0-.6-.3-.6-.6s.3-.6.6-.6h20.9c.4 0 .6.3.6.6s-.3.6-.6.6zM793.6 233.3h-31.3c-.4 0-.6-.3-.6-.6s.3-.6.6-.6h31.3c.4 0 .6.3.6.6s-.3.6-.6.6zM783.1 244.3h-20.9c-.4 0-.6-.3-.6-.6 0-.4.3-.6.6-.6h20.9c.4 0 .6.3.6.6.1.3-.2.6-.6.6zM791.3 255.1h-29.1c-.4 0-.6-.3-.6-.6 0-.4.3-.6.6-.6h29.1c.4 0 .6.3.6.6.1.3-.2.6-.6.6z" fill="#2a4f83"/><ellipse transform="rotate(-5.55721 756.1591046 232.677173)" cx="756.2" cy="232.7" rx="2.4" ry="2.4" fill="#2a4f83"/><ellipse transform="rotate(-5.55721 756.15915479 243.6958069)" cx="756.2" cy="243.7" rx="2.4" ry="2.4" fill="#2a4f83"/><ellipse transform="rotate(-5.55721 756.15930835 254.71552902)" cx="756.2" cy="254.7" rx="2.4" ry="2.4" fill="#2a4f83"/><path d="M562.9 211.8L546.3 272h3.9s14.7-35.1 18.1-58.9c.1-.6.2-1.2.2-1.8l-5.6.5z" fill="#f8eacc"/><path fill="#032a4a" d="M478.1 270.5h337.4v8.7H478.1z"/><path d="M783.5 418.6h58.8s-4.7 25.6-10.4 45.5h-37c-.1 0-10.5-34.1-11.4-45.5z" fill="#2a4f83"/><path d="M688.9 464.7h-87.2c-3 0-5.4-2.4-5.4-5.4v-92.7c0-3 2.4-5.4 5.4-5.4h87.2c3 0 5.4 2.4 5.4 5.4v92.7c0 3-2.4 5.4-5.4 5.4z" fill="#3d72a3"/><path d="M689.6 361.2H601c-2.6 0-4.7 2.1-4.7 4.7v15.8h98.1v-15.8c-.1-2.6-2.2-4.7-4.8-4.7z" opacity=".6" fill="#223f6c"/><g fill="none" stroke-linecap="round" stroke-miterlimit="10"><path opacity=".6" stroke="#223f6c" stroke-width="2" d="M602.6 389.3h2.4M616.3 389.3h2.4M630 389.3h2.4M643.7 389.3h2.4"/><path stroke="#5093c3" stroke-width="2.8169" stroke-linejoin="round" d="M657.4 389.3h2.4M671.2 389.3h2.3M684.9 389.3h2.3"/></g><g fill="none" stroke="#5093c3" stroke-width="2.8169" stroke-linecap="round" stroke-linejoin="round" stroke-miterlimit="10"><path d="M602.6 404.8h2.4M616.3 404.8h2.4M630 404.8h2.4M643.7 404.8h2.4M657.4 404.8h2.4M671.2 404.8h2.3M684.9 404.8h2.3"/></g><g fill="none" stroke="#5093c3" stroke-width="2.8169" stroke-linecap="round" stroke-linejoin="round" stroke-miterlimit="10"><path d="M602.6 420.3h2.4M616.3 420.3h2.4M630 420.3h2.4M643.7 420.3h2.4M657.4 420.3h2.4M671.2 420.3h2.3M684.9 420.3h2.3"/></g><g fill="none" stroke="#5093c3" stroke-width="2.8169" stroke-linecap="round" stroke-linejoin="round" stroke-miterlimit="10"><path d="M602.6 435.9h2.4M616.3 435.9h2.4M630 435.9h2.4M643.7 435.9h2.4M657.4 435.9h2.4M671.2 435.9h2.3M684.9 435.9h2.3"/></g><g fill="none" stroke="#5093c3" stroke-width="2.8169" stroke-linecap="round" stroke-linejoin="round" stroke-miterlimit="10"><path d="M602.6 451.4h2.4M616.3 451.4h2.4M630 451.4h2.4M643.7 451.4h2.4M657.4 451.4h2.4M671.2 451.4h2.3M684.9 451.4h2.3"/></g></g><path d="M835.5 364.5s4.3 21.3-13.3 34c0 0 14-14.7 13.3-34zM817.8 418.1s-2.9-14.4.1-17.7l-.1 17.7" opacity=".8" clip-path="url(#b)" fill="#dcd8cb"/><path d="M532.5 194.1s-2.7-117.3-8-122.7l8 122.7zM539.8 198.1s10-60.7 7.3-66M553.8 193.5s9.3-26 7.3-30.7" opacity=".5" clip-path="url(#b)" fill="#dcd8cb"/><path clip-path="url(#b)" fill="#5093c3" d="M466.2 463.2h402v1.5h-402z"/><path d="M905.7 634.8L266.1 629l2-40c3.9-58.5 23-87.3 44.7-140l27.3-70c36.4-85.8 51.9-179 39.5-271.4-.3-2-.5-4-.8-6C374 69.2 363 30.4 343.2 4.2l-.5-5.2 654 .7-91 635.1z" opacity=".4" clip-path="url(#b)" fill="#3a769b"/><path opacity=".5" clip-path="url(#b)" fill="#223f6c" d="M1069.2 999.1l-216-8L995.7-1.8l73.5 8z"/><path d="M333.7 563.7l28.7 23.3 8 6 .7.7 26 21.3h-15.3l-20.5-9c-4.2-1.8-6.9-5.9-7.2-10.4l-.3-6.6-23.3-14c-.1 0-.1-11.3 3.2-11.3z" clip-path="url(#b)" fill="#032a4a"/><path d="M275.3.2l-.8 891-177.8-138s-43.5-202.5-1.6-381-9.3-351-83.9-373.5" clip-path="url(#b)" fill="#ffb800"/><path d="M238.3 425.7s47 34.7 63 30c16-4.7 41.8-5 41.8-5s22-5.3 30.7-.7c8.7 4.7 17.3 18 17.3 18s-5.3 4.7-16.7.7-15.3-4-15.3-4 4 8.7 7.3 9.3-2.7 5.3-8.7 1.3S351 460 351 460s-34 19.8-57.3 21.2c-23.3 1.3-51-16.5-51-16.5M916.7 930.7s-20-40 8-63 31-57 20-88-2-58 9-60 0 37 20 74 25 71 8 98-27 61-27 61l-38-22z" clip-path="url(#b)" fill="#2a4f83"/><path d="M809.2 873.1s12.2 3.6 18.2-4.9c6.1-8.5 19.4-12.2 23.1-6.1 3.6 6.1 20.7 14.6 29.2 14.6s13.4 8.5 13.4 8.5-4.9-3.6 8.5-6.1 15.8 2.4 13.4 7.3-10.9 9.7 3.6 8.5c14.6-1.2 26.7-7.3 32.8 0 6.1 7.3 15.3 60.4 15.3 60.4s-23.8-15.4-114.9-25.1" clip-path="url(#b)" fill="#032033"/><path d="M935.7 938.6s.2-5 3-40.5c6-76.5-34.5-82.5-21-87s42 19.5 43.5 79.5c.6 24 9-16.5 21-25.5s19.5-28.5 19.5-28.5l-.2 149.2c0 .1-29.8-32.2-65.8-47.2z" clip-path="url(#b)" fill="#032a4a"/><path d="M387.7 366.7s-10 85 8 119 3 63 3 63h-10s14-27 2-60-11-100-3-122zM251.5 339.7s19.2-9.3 37.9 4.7 16.9 24.1 13 29.6c-3.9 5.5.5 6.2-7.3 14.5-2.9 3.1-2.9 13.4-2.8 16 .1 3.8.3 5.2-3.4 5.8-2.7.5-7.7 2.4-11.4 9.3-7.3 13.5-14-.3-23.4.5s-11.1 13-11.1 13 21 68.6 43 81.2c10 5.7 27.7 46.4 44.7 43.3 7.3-1.3 16.5 14.1 14.7 14-5.8-.2-12.1-6.2-12.1-6.2s1.6 14 7 14.8c1.1.2 2.2.3 3 .4 1.9.2 2.4 2.7.7 3.6-2.7 1.5-6.7 2.6-11.6.6-9.3-3.9-15.3-2.4-16.1-8.6s-1.3-11.4-4.6-13.7c-3-2-22.9-8.3-36.7-24.3-25.3-29.3-41.4-50-44.6-57.4 0 0 7.8 23.4-14 54.5-14.4 20.6-13.3 54.2-14 75.6-.8 21.8 22.3 245.2 22.3 245.2s-58.2 8.2-67.5-111c0 0-52.9-158.3-17.1-202.7 11.9-14.8 11.7-22.6 17.1-49.8 5.5-27.3 13.2-85.7 54.5-87.2 0 0 7-1.6 9.3-14 2.3-12.5 1.3-27.8 1.3-27.8" clip-path="url(#b)" fill="#2a4f83"/><path d="M146.3 537.2s-21.8 10.5-25.3 60.7-6 94.6-6 94.6l47.4 20.1s-11.1-135.7 1.7-147.4" clip-path="url(#b)" fill="#e8e6e2"/><path d="M238.7 494.2s-1.2 11.7-15.3 35.8c-14 24.1 3.3 100.4.2 127.7-3.1 27.3 4.4 70.2 4.4 70.2s-64.6.7-79.4-25c0 0 2.3-120.7 10.9-141s55.7-47.8 66.6-87.5l12.6 19.8z" clip-path="url(#b)" fill="#032a4a"/><g clip-path="url(#b)" fill="#032a4a"><path d="M523.6 870S421 798.4 423.4 757.6c0 0 .1 38.1 104.5 109.4"/><path d="M425.3 766.1s-15.5-21-4.2-21.1c11.3-.2 4.2 21.1 4.2 21.1zM435.9 782.9s-7.9-21.8 1.8-23.7c9.6-1.9 2.3 20.1-1.8 23.7zM444.9 798s-7.9-21.8 1.8-23.7c9.6-1.9 2.3 20.2-1.8 23.7zM433.6 784.8s-20.2-7.7-18.6 1.5c1.7 9.1 18.6-1.5 18.6-1.5zM444.3 797s-20.2-7.7-18.6 1.5c1.7 9.1 18.6-1.5 18.6-1.5zM459.5 816.2s-7.8-21.3 1.8-23.7c14.1-3.5 2.2 20.1-1.8 23.7zM458.9 815.1s-20.2-7.7-18.6 1.5 18.6-1.5 18.6-1.5zM474.7 830.6s-7.2-19.7 1.8-23.7c14.1-6.2 2.3 20.1-1.8 23.7zM474.1 829.5s-20.2-7.7-18.6 1.5 18.6-1.5 18.6-1.5zM490.9 843.1s-9.2-25 2.1-28.2c15.2-4.3 2.7 24-2.1 28.2zM490.3 842.1s-24-9.1-22.1 1.7c2 10.8 22.1-1.7 22.1-1.7z"/></g><path d="M456.7 856.7s0-1 8-6 2 0 12 1 8-10 19-16 14 2 19 4-1-7 12-3 26 15 26 15l13 9s-103 31-126 28" clip-path="url(#b)" fill="#032a4a"/><path d="M400.5 493.9l5.8 117.7h-13.5l1.9-118.4s-9.3-17.6-31.9-21c0 0 17.3 29.3 34 29.3" clip-path="url(#b)" fill="#2a4f83"/><circle cx="210.6" cy="797.6" r="9" clip-path="url(#b)" fill="#579fdc"/><path d="M389.1 474.8s-8.2-47.8-41.9-67.6-32.9-47.4-32.9-47.4l-2 3.2s3.6 26.4 26 41.6c22.3 15.2 35.7 25.7 48.8 72.7M397.7 494.3s0-43.4 31.4-66.3l2.1 1.8s-27.5 19.8-30.7 64.2" clip-path="url(#b)" fill="#2a4f83"/><path d="M180.3 841.1l233.9 170-15.1-376-206.2-4c-7.8 0-14.2 8.4-14.2 18.7l1.6 191.3z" clip-path="url(#b)" fill="#5093c3"/><path d="M184.3 635.6l333.8-3.3 58.7-3.3-368.5-.8c0-.1-18-1.6-24 7.4z" opacity=".5" clip-path="url(#b)" fill="#f8eacc"/><path d="M375.5 634.9s-102.7 9.7-110.2 108.7c-4.7 62.2-83.2 117.7-83.2 117.7l-1.5-205.5s-1.5-18 12-19.5c13.4-1.4 182.9-1.4 182.9-1.4z" opacity=".5" clip-path="url(#b)" fill="#2a4f83"/><g clip-path="url(#b)"><path d="M134.2 759.8s25.8-27.2-21.7-53.5l-8.8-10.2-3.4 9.2-2.1-9.8s-8.1-.2-16.9-5c-8.8-4.8-7.8-2.9-7.8-2.9l-.8 8.9-6.2-10.6-13.9 2 2.7 9.7s-9-6.8-18.5 12c0 0 20.8-10.3 37.8.7l-12.4 2.4s12.5 2.9 20.4 16 11.7 11.1 11.7 11.1l7.7-2.4-4.4 6.7s19.9 16.7 34.8 17.3c0 0 61.4 138.8 78.3 211.1l5.2-1.4s-22.6-88.4-81.7-211.3z" fill="#2a4f83"/><path d="M149.2 856.6s10.1-18.9-11.5-28.7l-21.6-9.7-5.2 6.1-1.7-7.2-19.1-2 1.4 5.2s-12.1-4.4-26.5 3.1c0 0 19-3.4 30.2 13.2 11.1 16.6 39.7 28.7 51.4 21" fill="#2a4f83"/><path d="M195.9 703.2s32.3-95 93-117.7l-10.4 2.6 1.3-3-12 2.8-1.5 5.3-1.8-4.8-36.4 18.7 2.9 8.6-4-.6s-46 38.7-46.3 76.1l5.9 2-9 4.1s.5 11.2 14.9 9.2c0 0-16.3 180.3-.2 258.3l4.4-1.2c-.1.1-12.6-136.6-.8-260.4z" fill="#032a4a"/><path d="M218.9 771.9s20.7-6.3 28.7-35c8.1-28.7 7.2-39.4 11.5-47.4l-8.9 3.9 10.2-8.8s6.4-11.7 11.6-13.1 22-11.2 53-10.9l-9.7-2 13-3.2s-22.1-3.6-44 2.9l2.7-9.8-26.6 7.1-1.1 10.9-2.5-8.4s-24.8 10.2-24.3 13.5l3 11.7-6.6-8.5s-12.3 13.2-15.4 29.1l10 13.4-13.4-8.9s-12.2 28-9.5 42.4c2.6 14.5 17 21.3 18.3 21.1z" fill="#032a4a"/><path d="M223.6 757.7s-25.6 114-20.2 209.6l-6.6.9s1.6-107.9 22.6-201.8" fill="#032a4a"/><path d="M205 966.3s8.5-112.9 21.1-170.2c0 0 23.2-42.9 81.7-43.9l11.3 11.2s1-19.1-31.3-14.5l2-3.3s-8.1 3-14.2 3.2-4.3 4.3-10.3 5.1c-6 .8-6.1.2-12.1 4.8-6.1 4.5-1.5-1.6-12.6 6-11.1 7.7-22.9 19.1-20.9 29.2l1.5 6.5-20.7 168.3 4.5-2.4z" fill="#032a4a"/><path d="M185.5 965.5s6.2-164.7-29.7-251.3c0 0-33.1-29.4-44.7-55.4l11.6-6.7-13.3.1S89.1 636 88.9 622.7l9.9-1.9-13.6-3.9-9.2-21.6 5.3-1-6.2-3s-20.3-4.1-23.2-20l16.9 3 6.4 7 45 14.7-1.6 6.1 5.8-3.7s20.4 6.8 26.6 31.8l-2.1 8.8 10.6-.6s16.2 36.4 5.2 75.8c0 0 31.3 121.7 28.6 245.4M202 704.9s7.2 7.7 13.9-2 14.4-64.7 22.1-81.9c7.7-17.2 28.7-58.6 35.6-62.3 6.9-3.7-25 4.2-33.8 13.5l1.4 5.2-5.7-2.6-28.5 50.6 8.9 6.1-10.1.1S186 672.8 188 691.3c2 18.7 14 13.6 14 13.6z" fill="#2a4f83"/><path d="M208.4 692.6s-12.3 27.3-7.9 272.5l-8.6-3.5s3.3-219.3 12.4-265" fill="#2a4f83"/><path d="M159.7 719.7s-9-75-77-131c0 0 55 29 81.8 125.6l24.2 125.4-7-6-22-114zM134.2 759.8s-16.4-48.2-59.4-60.2c0 0 39 17 56 59" fill="#032a4a"/></g><path d="M229.2 857.5s10.2 2.4 14.7-4.9c4.6-7.3 15.4-11 18.7-6.1 3.3 4.8 17.7 10.9 24.7 10.5 7-.4 11.4 6.3 11.4 6.3s-4.2-2.8 6.7-5.4c10.9-2.7 13.1 1.2 11.3 5.3-1.8 4.1-8.5 8.5 3.4 6.8 11.9-1.7 21.6-7.3 27-1.6 5.4 5.7 9.1 18.5 9.1 18.5s-13.9 18.9-89.2 15.4" clip-path="url(#b)" fill="#032a4a"/><path d="M278.8 857.7s-8.7-17.9-2.2-23.3c0 0 9.7 5.4 9.2 13.5 0 0 4.4-15.1 14.7-11l-1.1 13.8s7-8.1 14.6-4.3c0 0 1.6 14.6-15.1 16.8M240.7 859.8s-19.2-4.9-19.2-13.4c0 0 10.4-3.9 16.3 1.7 0 0-8.6-13.1 1-18.3l9.8 9.8s-1.6-10.6 6.1-13.9c0 0 12.2 8.2 3 22.4" clip-path="url(#b)" fill="#032a4a"/><path d="M254.7 849.8s9-19.1 13.8-15.3c4.9 3.8-1.1 28.1-1.1 28.1M473.9 858.1s-19.2-4.9-19.2-13.4c0 0 10.4-3.9 16.3 1.7 0 0-8.6-13.1 1-18.3l9.8 9.8s-1.6-10.6 6.1-13.9c0 0 12.2 8.2 3 22.4" clip-path="url(#b)" fill="#032a4a"/><path d="M487.9 848.2s9-19.1 13.8-15.3c4.9 3.8-1.1 28.1-1.1 28.1" clip-path="url(#b)" fill="#032a4a"/><circle cx="285.5" cy="855.7" r="4.8" clip-path="url(#b)" fill="#032a4a"/><circle cx="256.9" cy="844" r="6.9" clip-path="url(#b)" fill="#032a4a"/><path d="M410.8 415.8s-24.3 6.5-25.1 30.9c0 0 24.8-2.8 25.1-30.9zM404.4 387.6s-18.1 4.8-18.7 23.1c-.1 0 18.4-2.1 18.7-23.1zM506.6 420.4s-9.6 16.1 2.8 29.6c0 0 11.8-14.5-2.8-29.6zM537.1 404.6s-16.3 9.4-12.1 27.1c-.1 0 17.3-6.8 12.1-27.1zM354.1 396.8s3.9 26.9 30.1 30.7c0 0 .1-26.9-30.1-30.7z" clip-path="url(#b)" fill="#2a4f83"/><path d="M146.4 531.5s16.4 19.5 46-5.5c0 0-28.8 23.4-28.8 35.8 0 0-21.8-11.7-21-24.9" clip-path="url(#b)" fill="#032a4a"/><path d="M357.1 447.8s3.9 26.9 30.1 30.7c0 0 .1-26.9-30.1-30.7zM438.8 464.4s-26.5-5.8-39.3 17.3c-.1 0 25.2 9.6 39.3-17.3zM432.1 441.5s-18.8-.2-24.2 17.2c0 0 18.4 3 24.2-17.2z" clip-path="url(#b)" fill="#2a4f83"/><path d="M394.3 446.9s-17.9 25.8 1.1 49.7c-.1 0 21.3-22.7-1.1-49.7zM362.8 423.3s-14.2-15.7-32.7-6.9c-.1 0 11.6 17.5 32.7 6.9zM376.8 442.3s-14.2-15.7-32.7-6.9c-.1 0 11.6 17.5 32.7 6.9zM401.3 513.3s8.2-47.8 41.9-67.6 32.9-47.4 32.9-47.4l2 3.2s-3.6 26.4-26 41.6c-22.3 15.2-35.7 25.7-48.8 72.7" clip-path="url(#b)" fill="#2a4f83"/><path d="M427.3 458.4s17-12.5 33.4-.1c0 0-14.9 14.8-33.4.1zM447.8 443.9s17-12.5 33.4-.1c0 0-14.9 14.8-33.4.1zM468.4 428s9-12.9 23.6-8.1c0 0-7 14-23.6 8.1zM457.9 405s11.9 15 1.3 30.3c.1 0-13.8-13-1.3-30.3zM438.4 420.5s11.9 15 1.3 30.3c.1 0-13.8-13-1.3-30.3zM412.1 486.8s14.2-15.7 32.7-6.9c.1 0-11.6 17.5-32.7 6.9z" clip-path="url(#b)" fill="#2a4f83"/><path d="M385.7 366.2s-2.5-11.7 19-13.5c0 0 .2 15.2-17.9 20.3" clip-path="url(#b)" fill="#3bbcf4"/><path d="M385.7 369.4s-8.4-3.5-.2-17.8c0 0 9.6 6.5 4.9 20M426.7 432.3s-4.7-24.7 6-31.3c0 0 7.4 17.1-2.3 29.9" clip-path="url(#b)" fill="#3bbcf4"/><path d="M343.4 405.7s-10-16 1.3-19.3c0-.1 7.4 10.6-1.3 19.3z" clip-path="url(#b)" fill="#2a4f83"/><path d="M190.2 448.7s-12.1 50 25.8 48.9c0 0-28.9 61.1-70.5 36.2 0 0 9.3-30.1 15.6-63.3s21.8-64.9 50.6-65.2c0 0 9.8-.6 17.6 10.8.1.1-27.1-4.8-39.1 32.6z" clip-path="url(#b)" fill="#e8e6e2"/><path d="M210.7 457.7s-9 21-24 47-31 43-38 55c-4 6.9-7 16-11 34s-8 105-8 105l23 11s10.5-159.9 32-171c29-15 41.5-64.2 41.5-64.2l-15.5-16.8z" opacity=".2" clip-path="url(#b)" fill="#142c3f"/><path d="M291 345.4s-32.2-33.8-58.9-3.1c0 0-9.3 8.6-9.3 27.3" clip-path="url(#b)" fill="#032a4a"/><path d="M238.3 359.4s-4.8-16.7-14.4-17.9c-7.1-.9-4.7-21.8-29.6-21-19.6.6-27.7 29.6-26.4 53.5 1 18.8 10.8 52.1-.5 66.5 0 0 31.2-24.4 27-59.7s16.9-23.2 18.2-28.3c0 0 4.2 6.5 13 4.9" clip-path="url(#b)" fill="#032a4a"/><path d="M220.9 339.1s-.5 14-8.3 14l10.4 6.2s9.9-5.5 6.8-15.6l-8.9-4.6z" clip-path="url(#b)" fill="#032a4a"/><path d="M407.7 854.7s10 .5 10.5 4-6.5 6.5-6.5 6.5l-4-10.5zM431.2 856.2s7-.5 6.5 2.5-3 5-3 5l-3.5-7.5zM450.2 869.2s4.5-2 4 3l-.5 5-3.5-8z" clip-path="url(#b)" fill="#2a4f83"/><path d="M475.4 881.3s-.7 9-5.3 7c-4.7-2-6-5.3-6-5.3l11.3-1.7z" clip-path="url(#b)" fill="#c87e1b"/><path d="M464.2 883.2s17 2.5 32.1-11.9c0 0-14.5-10.7-30.8-5 0 0 14.5-3.8 6.3-22 0 0-15.7 4.4-17 16.4l-2.5-10.7-8.2 10.7s8.8-22 0-36.5l-9.4 8.8s7.5-12.6 1.9-20.8c0 0-14.5 9.4-14.5 20.8 0 0 0-14.5-10.1-21.4 0 0-8.2 18.9-4.4 28.3 0 0-5.7-16.4-14.5-17l-3.1 17s-.6-6.3-10.1-6.9c0 0-4.4 17.9 4.4 22.3l-17-2.2-6.3 8.2s13.8-20.1 5.7-33.3l-15.1 22.6s8.2-23.3 1.9-30.8l-9.4 10.1s3.1-15.7-13.8-32.1c0 0-13.8 17.6-4.4 37.7 0 0-21.4-8.2-30.8 5 0 0 4.4 10.7 18.2 11.3 0 0-12.6 8.2-14.5 20.8l12.6-1.9-1.9 9.4s-13.2 1.9-15.7 7.5l19.5 6.3s-13.2 3.8-17 20.8c0 0 15.1 3.1 18.2-5l-1.3 22.6s23.9-13.2 27-27.7l3.1 10.7 6.3-15.1s-3.8 14.5 5.7 17.6l5.7-11.3 3.1 8.8s-10.7 10.1-10.7 17.6c0 0 13.8 3.8 15.7-7.5l6.3 11.3 3.1-15.7 23.9-3.8s17 17 25.2 15.7c0 0-3.8-17-10.1-17 0 0 10.7 1.9 13.8-1.3 0 0 13.2 11.3 19.5 5 0 0 4.4-13.2-18.2-14.5l5-5.7s12.6 15.7 23.3 10.1l-7.5-10.7 18.9-1.3s3.1-5.7-5.7-6.9l5.7-5.7-8.1-1.7zM790.8 879.6s-14.1-2.1-26.6 9.9c0 0 12 8.9 25.6 4.2 0 0-12 3.1-5.2 18.3 0 0 13-3.7 14.1-13.6l2.1 8.9 6.8-8.9s-7.3 18.3 0 30.3l7.8-7.3s-6.3 10.4-1.6 17.2c0 0 12-7.8 12-17.2 0 0 0 12 8.3 17.7 0 0 6.8-15.7 3.7-23.5 0 0 4.7 13.6 12 14.1l2.6-14.1s.5 5.2 8.3 5.7c0 0 3.7-14.9-3.7-18.5l14.1 1.8 5.2-6.8s-11.5 16.7-4.7 27.6l12.5-18.8s-6.8 19.3-1.6 25.6l7.8-8.3s-2.6 13 11.5 26.6c0 0 11.5-14.6 3.7-31.3 0 0 17.7 6.8 25.6-4.2 0 0-3.7-8.9-15.1-9.4 0 0 10.4-6.8 12-17.2l-10.4 1.6 1.6-7.8s11-1.6 13-6.3l-16.2-5.2s11-3.1 14.1-17.2c0 0-12.5-2.6-15.1 4.2l1-18.8s-19.8 11-22.4 23L891 853l-5.2 12.5s3.1-12-4.7-14.6l-4.7 9.4-1.9-5s8.2-10.6 8.2-16.9c0 0-11.6 1.8-13.2 11.2l-8-9.3.3 13.3-5.7-5.3s-28.2-10.9-35-9.9c0 0 3.1 14.1 8.3 14.1 0 0-8.9-1.6-11.5 1 0 0-11-9.4-16.2-4.2 0 0-3.7 11 15.1 12l-4.2 4.7s-10.4-13-19.3-8.3l6.3 8.9-15.7 1s-2.6 4.7 4.7 5.7l-4.7 4.7 6.9 1.6z" clip-path="url(#b)" fill="#032a4a"/><path d="M493.7 881.7s209-74 360 17" clip-path="url(#b)" fill="#fffffc"/><path d="M223 359.4s-4.5 12.5-1.4 31.9c0 0 22.6.8 26.9-10.1 4.6-11.8 8.5-10.8 11.7-6.9s4.3 18 9 10.7c2.4-3.7-.4-10.8 14.8-12.4 15.2-1.6 18.7 1.6 22.2-2.7 3.5-4.3-6.2-26.9-32.3-33.5" clip-path="url(#b)" fill="#032a4a"/><path d="M295.9 371.9s-15.6 0-22.6 22.6c-4.9 15.6 3.1 25.7-12.5 41.3 0 0 7.8-14.8 6.2-28-1.6-13.2-2.3-32.7 16.4-39.7" clip-path="url(#b)" fill="#032a4a"/><g clip-path="url(#b)" fill="#032a4a"><path d="M865.6 882.1s13.7-108.8 47.8-127.7c0 0-30.5 16.1-43.5 129.9"/><path d="M907 759.1s10.3-21.2 15.2-12.3c4.9 9-15.2 12.3-15.2 12.3zM898.1 774s14.1-15.5 19.7-8.6c5.7 7-15.1 10.4-19.7 8.6zM890.2 789.7s14.1-15.5 19.7-8.6c5.7 6.9-15.1 10.3-19.7 8.6zM896.8 774.1s-2.4-19.4-9-14.3 9 14.3 9 14.3zM889.2 788.3s-2.4-19.4-9-14.3c-6.6 5.2 9 14.3 9 14.3zM881.6 807.9s13.8-15.2 19.7-8.6c8.9 10-15.1 10.4-19.7 8.6zM882.2 806.8s-2.8-22.9-10.6-16.8c-7.8 6.1 10.6 16.8 10.6 16.8zM876.5 826.2s12.8-14.1 19.7-8.6c10.9 8.7-15.1 10.4-19.7 8.6zM877.1 825.3s-2.4-19.4-9-14.3c-6.6 5.2 9 14.3 9 14.3zM873.2 841.8s16.2-17.9 23.5-10.2c9.8 10.4-18 12.3-23.5 10.2z"/><path d="M873.9 843.6s-2.8-23.1-10.7-16.9c-7.9 6.1 10.7 16.9 10.7 16.9z"/></g><path d="M367.1 591.7s2-2 13.3.7 10.7.7 16.7 5.3c6 4.7 24.7 16.7 24.7 16.7l-24.7.7" clip-path="url(#b)" fill="#2a4f83"/><path d="M252.7 631.7l260-3.5s-15-3-40.5-12-22.5-10.5-46.5-13.5-21-4.5-40.5-1.5-13.5 3-39 7.5-25.5 3-46.5 7.5-47 15.5-47 15.5zM401.2 512.7s2-19 20.5-19c0 0-1 21-20.5 19zM322.4 383.5s-7.2-13.6 5.1-21.9c0 0 8.8 14.4-5.1 21.9zM68.7 587.7l-16.9-16.2s6.9-6.8 19.9 6.2" clip-path="url(#b)" fill="#2a4f83"/><path d="M413.7 601.7s17 1 28 4 64 21 64 21l-36 1-56-26z" clip-path="url(#b)" fill="#0d77be"/><path d="M450.7 459.7s49 10 74-29c0 0-7.9 47.5-84.9 29.7" clip-path="url(#b)" fill="#2a4f83"/><path d="M509.7 450.7s17 8 27-9c0 0 3 17-37 15" clip-path="url(#b)" fill="#2a4f83"/><circle cx="324.7" cy="862.7" r="3" opacity=".4" clip-path="url(#b)" fill="#dcd8cb"/><circle cx="358.1" cy="880.3" r="1.4" clip-path="url(#b)" fill="#dcd8cb"/><circle cx="404.7" cy="854.7" r="3" clip-path="url(#b)" fill="#dcd8cb"/><circle cx="385.7" cy="868.7" r="3" opacity=".5" clip-path="url(#b)" fill="#dcd8cb"/><circle cx="894.7" cy="873.7" r="3" clip-path="url(#b)" fill="#dcd8cb"/><circle cx="908.7" cy="898.7" r="3.5" opacity=".7" clip-path="url(#b)" fill="#dcd8cb"/><circle cx="877.7" cy="875.7" r="3" opacity=".4" clip-path="url(#b)" fill="#dcd8cb"/><circle cx="407.4" cy="876.7" r="1.4" opacity=".4" clip-path="url(#b)" fill="#dcd8cb"/><circle cx="312.7" cy="868.7" r="1.4" opacity=".4" clip-path="url(#b)" fill="#dcd8cb"/><g opacity=".4" clip-path="url(#b)" fill="#032a4a"><path d="M528.7 852.7S454 749.4 479 713.9c0 0-25.1 21.6 51 134.1"/><path d="M475.5 722.4s-7.2-27.1 4.2-22.7c11.3 4.3-4.2 22.7-4.2 22.7zM476.8 746.7s.7-24.9 11.1-23c10.5 2-5.6 21.1-11.1 23zM482.1 765.1s.7-24.9 11.1-23-5.6 21-11.1 23zM476.4 744.4s-17.2-15.7-19.1-5.9 19.1 5.9 19.1 5.9z"/><path d="M482.3 764.2s-17.2-15.7-19.1-5.9c-2 9.7 19.1 5.9 19.1 5.9zM492.8 787.6s.7-24.4 11.1-23c15.6 2.2-5.6 21.1-11.1 23zM491.7 785.4s-17.2-15.7-19.1-5.9c-2 9.7 19.1 5.9 19.1 5.9zM501.3 807s.6-22.6 11.1-23c16.6-.5-5.6 21.1-11.1 23zM501.2 805.8s-17.2-15.7-19.1-5.9c-2 9.8 19.1 5.9 19.1 5.9zM512.6 826s.7-28.6 13.3-27.3c16.8 1.7-6.8 24.9-13.3 27.3zM512.4 824.7s-20.4-18.6-22.7-7c-2.3 11.6 22.7 7 22.7 7z"/></g><path d="M302.1 372.3s.7 11.3-2.3 13.3-5 3-6 7 1.5 15-1 16l-2.5 1s-1.5-15-.5-17.5 8-4.5 8.5-10.5.8-9.3.8-9.3h3z" clip-path="url(#b)" fill="#5093c3"/><path d="M245.5 430.4s29.2 22.8 53.8 25c0 0 14-6.2 46.5-6.8 0 0 23.8-2.3 27.3.3l5 3c2.4 1.8 3.2 2.1.7 3.7l.2-.5c-1.1.6-5.1-3.1-6.2-3.5-3.3-1.1-15.4-.7-31.5 0-22 1-46.3 7.5-51.5 6-3-.8-15.7-3.4-24.7-9.7-5.8-4.1-15.7-10.5-19.3-16.7l-.3-.8z" opacity=".7" clip-path="url(#b)" fill="#dcd8cb"/><path d="M212 405.4s5.4-6.8 18.8 2.2c7 4.7 10 13 10 17l1.2 6.8s-12.5-24.5-30-26z" clip-path="url(#b)" fill="#032a4a"/><path d="M413.4 469s16.1-11.9 25.4-4.6c0 0-6.7 11.3-13.4 14.6l11-14s-6-3.3-23 4zM395.4 450.3s16 12.8 5.3 42.8c0 .1 4.7-24.1-5.3-42.8zM458.8 450.4s16.6 1.9 21.9-6.1l-24.6 4.7" clip-path="url(#b)" fill="#dcd8cb"/><path d="M306.1 364.3s-1.3-19.3-36-31.3c0 0 27.3 16.7 36 31.3zM191.7 324s21-3.7 26.3 15l-1.7 3c.1 0-1.9-17.7-24.6-18zM219.4 336.7l12.6 5.6-4.6 7.4-12-4.7z" clip-path="url(#b)" fill="#5093c3"/><path d="M312.4 362.5s-6.8-12.7 4.7-20.5c.1 0 8.3 13.5-4.7 20.5z" clip-path="url(#b)" fill="#2a4f83"/><path d="M265.1 448s1.7 25 11.7 29.7c0 0-10 0-21.3-6 0 0-19.2-27.8-9.9-41.2-.1-.1 11.8 13.8 19.5 17.5z" opacity=".5" clip-path="url(#b)" fill="#142c3f"/><path d="M232.7 421.7s2.8-4.1 7.5 10.5 33 70 36 73c2.9 2.9 6.5 2.5 28.5 32 1.7 2.3 3.1 4.7 5.1 6.7 4.4 4.4 11.4 12.7 14.2 13.2 4 .7 1.6 5.6-27.8-21.8-44-41.1-63.5-113.6-63.5-113.6zM332.7 557.7s4 2 7.3 4.7 5.3 9.3 5.3 9.3-11.9-12-12.6-14z" opacity=".7" clip-path="url(#b)" fill="#dcd8cb"/><path clip-path="url(#b)" fill="#e8e6e2" d="M345.4 571.7l33.3 29.3-34.6-28.7z"/><path d="M232.7 417s16-20.7 16-40.7l-24.7 5.3s-.2 17.5-13.4 23.1c0 0 19.5 1 22.1 12.3z" opacity=".5" clip-path="url(#b)" fill="#142c3f"/><path clip-path="url(#b)" fill="#3bbcf4" d="M413.2 269.7h402v1.5h-402z"/><path clip-path="url(#b)" fill="#3d72a3" d="M838.7 418.3l-9.3 44h-5.3l7.3-43.3z"/><path opacity=".5" clip-path="url(#b)" fill="#223f6c" d="M745.4 193l-8.7 74.7 9.4.6z"/><path opacity=".7" clip-path="url(#b)" fill="#2a4f83" d="M635.4 136.3l-10 132h9.3z"/><path opacity=".3" clip-path="url(#b)" fill="#223f6c" d="M784.4 418.3l-16.7 43.4h51z"/><path d="M101.4 620.7l-12.4 2s-1.2 9.9 9.5 18.5l-8-17 10.9-3.5zM216.7 608.7l18.8-33.8 8.7 4.3-8-1.5zM215.9 631.6l-10.1.1s-14.6 32-15.6 44.5l16-43 9.7-1.6z" clip-path="url(#b)" fill="#5093c3"/><path d="M218.7 770.3s6-51.3 20.7-74c0 0-14.3 35.8-18.5 75.6" clip-path="url(#b)" fill="#2a4f83"/><path d="M260.1 689.4s-7 23.5-8.4 34.9c-1.3 11.3-6 29.3-17.3 37.3 0 0 13.3-18.7 15.3-38.7s10.7-34 10.7-34l-.3.5z" clip-path="url(#b)" fill="#5093c3"/><g clip-path="url(#b)"><path d="M564.2 271H414.3c-3.5 0-6.4 2.9-6.4 6.4 0 3.5 2.9 6.4 6.4 6.4h149.9V271z" fill="#ffb800"/></g><path d="M367 419.7c-8 0-14.5-6.5-14.5-14.5 0-2.1.4-4 1.2-5.8-5.3 2.2-9 7.4-9 13.4 0 8 6.5 14.5 14.5 14.5 6 0 11.1-3.6 13.3-8.7-1.7.7-3.5 1.1-5.5 1.1z" opacity=".5" clip-path="url(#b)" fill="#223f6c"/><g><path d="M134.6 761.3s27.4-25.6-18.4-54.7l-8.2-10.7-4 9-1.5-9.9s-8.1-.7-16.5-6c-8.5-5.3-7.6-3.4-7.6-3.4l-1.3 8.8-5.6-10.9-14 1.1 2.1 9.9s-8.6-7.3-19.2 10.9c0 0 21.3-9.1 37.7 3L65.7 710s12.3 3.7 19.4 17.2c7.1 13.5 11 11.8 11 11.8l7.9-2-4.8 6.4s18.8 17.9 33.7 19.4" fill="#2a4f83"/><path d="M136.6 771.3c-14.4-43-52.3-62.3-52.3-62.3 38.9 14.7 56.6 64.5 56.6 64.5l12 26.5-8-8.8-8.3-19.9z" fill="#032a4a"/></g><g><path d="M762.5 585.5c-.8 1.9.2 81.4 2.8 109.6 3.2 34.6-21.5 159.5-21.5 159.5l-1 3 18 4s46.5-127.5 37.5-187.5c-5.2-34.4 10.4-105.5 12.5-133.5 4.7-62.3-66-79-66-79" fill="#032a4a"/><path d="M519.7 475.7s14.5-1 16 59l30.8 4.2s1.7 181.3 6.2 209.8c0 0 107 27.5 161-2.5h7.5l18-135 1.5 22.5S800 627 813 613.4c0 0-2.3-20.4-.3-56.7 2-37.7-11-83-68.5-97 0 0-52.9-.5-73.8-7s-46.2-21.5-85.2-5-65.5 28-65.5 28z" fill="#032a4a"/><path d="M754.7 426.7s-12 24-3 39c0 0 9.7 32.3-42.3 29.7 0 0-55.1-11.2-42.7-44 0 0 10 8.3 17.5-24.7" fill="#dcd8cb"/><path d="M529.7 490.1c4.3 7 7.7 50.3 7.7 50.3l28.7.2s2.7 132.5 5.7 181.5 3 99.5 3 99.5l171.3-112.8 13.3-92.7 1.3 15.3 30.7-5.7s9.7-64.7 4.7-93.2c-5.7-31.8-22.2-62.7-42.7-44.7-11.3 10-67.3 9.3-73.3-4.7l-2 4c-8.2-6-22-32.7-13.3-34.7 0 0-36-7.3-51.3-2.7-15.3 4.7-83.7 39.7-83.7 39.7" opacity=".6" fill="#031826"/><path d="M761.6 629.2c5.4-.8 24.7-2.2 40.1-8.8 1.1-.5 5.9-3.5 5.7-2.3-2.5 10.2-11 47-4.7 71.2 7.4 28.2-36.6 155.1-37.5 157.5v.1c-.4 1.4-2.3-3-2.5-4.5-2.1-15.2-17.2-96.9-11.7-128.5l.8-3.8c1-4.8 2.3-9.6 3.7-14.3 1.9-6.1 4.8-22.6 4.9-64.9 0-1 .5-1.6 1.2-1.7z" fill="#dcd8cb"/><path d="M791.7 622.7s-4.2 55.9-.7 83.3c3.5 27.5-26.3 144.2-26.3 144.2l-1.5-4s-23.5-90.5-8.8-144.5c10.9-40.1 3.3-84 3.3-84l34 5z" fill="#6f8a8e"/><path d="M626.8 440.1s23.5 128-56.5 293c0 0-6 19.5 4.5 94.5v32l47.8-3.4c21-2.1 62.4-3.8 84.8-.4l38.2 2.8s11.7-116.2 6-135.5c-5.7-19.3 3-74 8-104s21-125 12-149l-13.4-5.8s11.4 78.8-25.6 108.8-76 20-81-29-1-102-9-104c.2 0-10.8-4-15.8 0z" fill="#2a4f83"/><path d="M760.4 484.7s13.7 45.3-5.7 84.5c-18.1 36.7-41.5 45-52 79.5s-8.6 121.5-14.7 146.6-12.2 58.5-12.2 58.5l-101 5.8-5.4-115c.3-24.1 8.6-18.4 15.2-41.6l41.1-146.3s14.5-90.6 20.3-77.9c5.8 12.7-.5 111.5 37.5 115.5 25.6 2.7 57.4 4.3 76.9-109.6z" opacity=".2" fill="#031826"/><path d="M668.9 326.6s-11.9 9.8-9.8 19.7 7.7 16.2 9.1 27.4c1.4 11.2 0 22.5 4.2 36.5 1.5 5 2.9 11.1 4.4 17.3 5.5 24 17 30.7 37 45.1 2.3 1.7 8.6.7 27.1-18.5 24-25 19.4-68.4 22.2-95.8s13.3-40.2 3.5-45.1c0 0-10.2-27.4-39.8-25.6-16.7 1-45.9 22.1-60 22.1l-14 .9c-.1.1 5.5 15.3 16.1 16z" fill="#031826"/><path d="M519.7 475.7s-46 18-59 23-74 18-74 69c0 0 1.3 6.3 6.5 7.5 10.2 2.3 142.5-49.5 142.5-49.5s-5-51-16-50zM671 350.1c.8 5.4 1.3 10.9 1.1 16.4-.4 10.5-.2 26.9 3.6 37.1 6 16 8 15 8 15s5-12 22-13 17 1 27 6l10 5s9-4 13-13 7-36 7-36-16.5-38.5-27.5-42l-2.5-1s-26 10-44 9c0 .1-20.5-2.4-17.7 16.5z" fill="#dcd8cb"/><path d="M680.2 375.7s4.2 16.6 9.5 18c0 0-5.5 10-19.5-1.5s-1-19.5 10-16.5z" fill="#8eb1ba"/><path d="M680.2 374.7s4.2 16.6 9.5 18c0 0-5.5 10-19.5-1.5s-1-19.5 10-16.5z" fill="#8eb1ba"/><path d="M680.2 373.7s4.2 16.6 9.5 18c0 0-5.5 10-19.5-1.5s-1-19.5 10-16.5z" fill="#8eb1ba"/><path d="M680.2 374.7s4.2 16.6 9.5 18c0 0-5.5 10-19.5-1.5s-1-19.5 10-16.5z" fill="#8eb1ba"/><g fill="#8eb1ba"><path d="M694.1 334s-3.7 27.7 1.7 31.7c5.3 4 3.2.2 4.5 7.5 1.3 7.3-8.8 25.7-3.5 29 5.3 3.3 8.2 3.4 6.7 3.7-16.2 3.1-20.2 12.8-20.2 12.8s-15.2-17.2-15.2-57.2c0-.2-8-37.5 26-27.5zM711.7 471.8s-6.9 15.5 11.7 23.5c0 0-60.7 5.3-58-40 0 0 15.6 1.2 18-10.7l5.3 8.3 7 6.7 16 12.2z"/></g><path d="M529.7 489.7l-97.5 39s36 0 54 1.5 36 0 36 0l13.5-4.5s-1.6-30.4-6-36z" fill="#8eb1ba"/><path d="M753.2 343.7s4.5 55-13.5 79.7c0 0 27-13.3 27-75.7" fill="#031826"/><path d="M763.4 312.3s8.3-1.7 13.3 16.3-15 49-15 49" fill="#031826"/><path d="M761.4 365.7l-.2 25s10.6-16.2 8.6-25c-1.7-7.5-8 0-8 0" fill="#dcd8cb"/><path d="M751.7 779.7s8.5 57 15.5 62l-7 20.5-17.5-3.5 9-79z" fill="#032033"/><path d="M670.7 375.3h-5.3l32-4s1.4 18.8-4.7 23.3c-7.8 5.8-30.7 8.3-31.7-13.7l-.3-3.7 9.3-4.7M706.7 372s-4.1 18.3 18.6 19.9c3.3.2 7.5.2 10-1.9 4.8-3.8 12.8-12.3 6.3-24.8l-35.5 4.8.6 2z" fill="#032a4a"/><path fill="#032a4a" d="M738 365.6l29.4-4.9-6 5-22 5"/><path d="M667.7 382c.6 5.1 3.5 14.4 16.4 13.4 2.9-.2 5.6-1.7 7.4-4.1 2.1-2.9 4-7.6 2.3-14.2-.4-1.4-1.7-2.3-3.2-2.1l-20.1 3.3c-1.8.3-3 2-2.8 3.7zM709.9 376c.6 5.1 3.5 14.4 16.4 13.4 2.9-.2 5.6-1.7 7.4-4.1 2.1-2.9 4-7.6 2.3-14.2-.4-1.4-1.7-2.3-3.2-2.1l-20.1 3.3c-1.8.3-3 2-2.8 3.7z" fill="#dcd8cb"/><path d="M692.4 372l20.5-2.8s-6 3.5-4.8 11.5c0 0-6.7-6.2-10.7-.8l-5-7.9z" fill="#032a4a"/><path d="M697.5 426.8c2.9-4.1 10-10.3 23.4-4.9 2.4 1 4 3.3 3.8 5.9-.2 3.4-.9 7.9-3.5 9-4.4 1.8-7.9-5.3-7.9-5.3l-7.9 1.8s1.8 8.8-2.6 7c-2.7-1.1-4.7-4.8-5.9-7.6-.9-1.9-.7-4.2.6-5.9z" fill="#dcd8cb"/><g fill="#8eb1ba"><path d="M697.7 429.2s8 6.5 24.5-4.5c0 0-5 11-11.5 12s-13-7.5-13-7.5zM680.4 377s3.5 15.1 8.8 16.4c0 0-1.8 2.1-6.3 2.2-3 0-7.1.3-11.9-5.1-3.2-3.6-5.1-9.4-2.4-11.3.9-.7 6.8-1.7 11.8-2.2z"/></g><g><path d="M388.5 571.8c73.5 30.5 152-12 152-12 4 10 15.2 22.9 15.2 22.9l36.8-19.9c-3-16-23-33-51-34s-33-1-65-4-62 11-62 11" fill="#dcd8cb"/><path d="M525.8 634.5s7-31.3 42.3-36.3c0 0 22.7-3.3 37.7 11.3s18.7 34.7 22 42.7c0 0 32.3-9.3 71-.3 0 0 5 6 2.7 8 0 0-45.7-14.3-92.3 28 0 0-26.3 30-65.7 1 0-.1-34.3-26.8-17.7-54.4z" fill="#ffb800"/><path d="M531.2 638.1s-10.7-12 8.7-38.3c19.3-26.3 38.3-30.3 68.7-19.3s14 55 10 60.3l9.7 14.3s35-74.3-24.7-87.7-77.1 28.6-83.3 43c-10 23 6 64 15.3 70.3" fill="#ffb800"/><path d="M593.5 603.8c-19.2-6.7-52.9 1-64.2 24.8 3.7-32.9 28.2-44.8 28.2-44.8l-4-6c-54.3 40.7-28.7 91.3-28.7 91.3 1.4-1.3.7-.4 1.3 1.3 8.5 24.8 29.5 28.6 44.7 30 5.3.5 8.4 2.9 5.7-1.7-27.9-45.9 13-91 13-91l4-3.9zM593.5 565.8s30.7 2 35.3 23.3c4.7 21.3-7.3 45.3-7.3 45.3s15.5-51.2-24.5-57.2" fill="#c47312"/><path d="M592.5 562.8s5 11 5 17-8 0-14 3-9 5-15 7-24.7-9.3-27.7-29.3" fill="#dcd8cb"/><path d="M406.9 553.3c28.9 2.4 83.8 4.9 121.4-7 11.7-3.7 24.7-.9 33.2 7.9 4.3 4.4 13.4 13.3 13.4 21.1l-22.2 7.5c-4.8-4.8-8.8-10.2-11-16.7l-1.7-6s-66.3 40.7-151.3 13l-3.3-5.3c2.6-11 10.3-15.4 21.5-14.5z" fill="#8eb1ba"/><path d="M510.8 528.1s60-4.3 78 27c0 0-12.6-33-78-27z" fill="#dcd8cb"/><path d="M582.8 693.8s-10 6.7-36.7-4c0 0 28 22.7 54.7 2.7" fill="#ffb800"/><path d="M567.5 562.3l7.3 7.3c2.8 2.8 5.8 5.2 9.2 7.3l9.5 5.9s-9-2-14 2-1 5-11 5-10-1-17-9" fill="#98b1b7"/><path d="M544 576.3s3.2 5.4 9.5 8.5l2 .1s-6-4.2-9.1-10l-2.4 1.4z" opacity=".9" fill="#874b0a"/></g></g><g><defs><path id="c" d="M863 25.8h136.5v645H863z"/></defs><clipPath id="d"><use xlink:href="#c" overflow="visible"/></clipPath><g clip-path="url(#d)"><path d="M993.4 261.4h-86.2c-6.8 0-12.3-5.5-12.3-12.3 0-6.8 5.5-12.3 12.3-12.3h86.2c6.8 0 12.3 5.5 12.3 12.3 0 6.8-5.5 12.3-12.3 12.3zM936.1 153.9s-15.4-32.7 5.8-42.4c0 0 6.7 9.6 4.8 22.1 0 0 0-23.1 15.4-25 0 0 5.8 22.1-1 30.8 0 0 9.6-11.6 19.3-11.6 0 0 1 12.5-8.7 22.1M943.8 101.9s-7.7-22.1 4.8-27c.1.1 6.8 23.2-4.8 27z" fill="#032a4a"/><path d="M935.2 124.1S934 102.5 916 97.7c0 0-4.8 25.2 19.2 26.4zM961.2 118.3s-1-11.6 11.6-16.4c-.1 0 3.8 12.5-11.6 16.4z" fill="#032a4a"/><path d="M895.1 160.7c2.1 19.6 10.3 60.4 43.1 76.8l65.7-1.4-1.4-89-97.8 2.5c-5.8.3-10.2 5.3-9.6 11.1z" fill="#2a4f83"/><circle cx="915.3" cy="172.9" r="4.2" opacity=".6" fill="#031826"/><circle cx="985.2" cy="178.9" r="5.8" opacity=".4" fill="#1b75be"/><circle cx="970.4" cy="220.9" r="5.8" opacity=".4" fill="#1b75be"/><path d="M950 142.9s-1.5-15.2 6.1-18.8c0 0 0 10.6-6.1 18.8z" fill="#5093c3"/><path d="M932.2 132.4s1-18.3 10.6-21.2c-2.3.1-4.8 12.7-10.6 21.2z" fill="#3bbcf4"/><path d="M929.5 91.9s.9-28.3-33.8-33.8c.1.1-1.8 29.3 33.8 33.8z" fill="#032a4a"/><path d="M916.8 75.5s31.9 29.2 35.6 52.9c0 0-10.9-28.3-37.4-49.3" fill="#032a4a"/><path d="M912.1 149s35.4-.3 91.9-.7l-29.3 11.3-76.8-.4c.1.1-3-8.3 14.2-10.2z" fill="#3bbcf4"/><path fill="#032a4a" d="M969.2 257.7l37.5 73.5v-72.7"/><circle cx="937.5" cy="63.9" r="7.2" fill="#dcd8cb"/><circle cx="958" cy="97" r="3.7" opacity=".83" fill="#dcd8cb"/><path d="M944.2 98.2l2-19.5s-6.5-.5-2 19.5z" fill="#3bbcf4"/><path d="M974.7 159.7s-27 50-58 53c0 0 8.8 25.1 24.2 30.9l62.9-4.4 9.5-94.2-38.6 14.7z" opacity=".8" fill="#032a4a"/><circle cx="950.5" cy="206.7" r="5.8" fill="#2a4f83"/><circle cx="978.1" cy="170.5" r="5.8" fill="#2a4f83"/><path d="M907.2 236.7l103.5-1.4-2.7 3.8-104 .7c-1.8 0-2.5.7-1-.3l4.2-2.8z" opacity=".8" fill="#5093c3"/><path d="M1002.3 243.5h-39.2v11.8h39.2c4.8 0 8.6-2.7 8.6-5.9s-3.9-5.9-8.6-5.9z" fill="#5093c3"/><path d="M920.4 255.3h39.2v-11.8h-39.2c-4.8 0-8.6 2.7-8.6 5.9-.1 3.3 3.8 5.9 8.6 5.9z" fill="#2a4f83"/><circle cx="958.8" cy="249.4" r="9.4" fill="#dcd8cb"/><circle cx="957.4" cy="249.3" r="9.4" fill="#032a4a"/><circle cx="976.5" cy="117.8" r="3.7" opacity=".7" fill="#dcd8cb"/><circle cx="973.5" cy="90.5" r="3.7" opacity=".54" fill="#dcd8cb"/><path d="M1002.2 573.4l-84.9.1c-6.1 0-11-4.9-11-11s4.9-11 11-11h76.9c6.1 0 11 4.9 11 11 0 6 3.1 10.9-3 10.9z" fill="#032a4a"/><path d="M907.3 492c2.8 18.7 10.3 48 36.7 61.2l59.6.6-1.2-79.4-82.2 2.1c-8 .3-14.1 7.6-12.9 15.5z" fill="#2a4f83"/><path d="M909.4 503.9s7.3 12.2 22 3.7 28.1-20.8 40.3-15.9c12.2 4.9 28.5 10.3 28.5 10.3v14.7s-22.4-16.4-33.4-15.2-37.8 26.9-52.5 15.9l-4.9-13.5zM966.3 388.1s23.6-34.2 27.9-31.4-13.4 33.2-28.6 34.9" fill="#032a4a"/><path d="M968.1 365.9s-8.5 73.7 6.4 109l-6.4-1.8s-10.2-61.4-1.8-104.4" fill="#032a4a"/><path d="M970.2 470.7s-6.7-48-39.9-68.8c-33.2-20.8-31.4-48.3-31.4-48.3l-2.1 3.2s2.8 26.5 24.7 42.3c21.9 15.9 34.9 26.8 46.6 74.1" fill="#032a4a"/><path d="M930.3 401.9s-4.2-24.3 1.1-28.9c5.3-4.6 4.2 21.2 1.4 30.7l-2.5-1.8zM943.7 414.6s-4.6-28.6 3.9-25.4c8.5 3.2.4 30.3.4 30.3l-4.3-4.9zM961 450.6s-15.9-26.8-24.7-22.6 28.2 28.9 28.2 28.9l-3.5-6.3zM964.5 387.4s-5.3-26.8-11.6-30.7 6.7 31.1 11.3 34.9l.3-4.2zM917.9 392.7s-6-20.5-1.4-20.5 6 25.4 6 25.4l-4.6-4.9zM932.8 406.5s-26.1-11.6-25.4-5.3c.7 6.4 27.5 7.1 27.5 7.1l-2.1-1.8zM981.5 477.1s0-43.4 31.4-66.3l2.1 1.8s-27.5 19.8-30.7 64.2" fill="#032a4a"/><path d="M990.6 444.6s26.5-13.1 30-8.5-21.5 14.8-30.7 11.6l.7-3.1zM999.1 429.4s22.6-9.9 24-4.6c1.4 5.3-26.5 8.1-26.5 8.1l2.5-3.5zM999.5 425.9s5.6-36.3-.7-31.8c-6.4 4.6-1.4 33.9-1.4 33.9l2.1-2.1zM962.4 410.7s-24.7-24.3-16.9-26.1 18.3 24.3 18.3 24.3l-1.4 1.8zM911.6 389.2s-21.9-28.2-25.8-21.9c-3.8 6.4 25.8 21.9 25.8 21.9zM945.5 477.1s-7.8-28.2-20.1-30.3l-1.8 2.5s8.5.4 18.7 27.5l3.2.3z" fill="#032a4a"/><path d="M939.8 465.8s-3.2-24 2.5-21.9c5.6 2.1 0 27.5 0 27.5l-2.5-5.6zM964.9 429.4s16.9-47.3 21.9-38.8c4.9 8.5-21.2 41.6-21.2 41.6l-.7-2.8zM968.4 457s6.7-44.5 17.3-37.4c10.6 7.1-16.6 45.2-16.6 45.2l-.7-7.8zM956.1 433s-3.9-23.3-.4-21.9 3.9 28.2 3.9 28.2l-3.5-6.3z" fill="#032a4a"/><path d="M983.3 332.2c-3.6-5.4-6.7 2.1-8.2 6.8.5-7.3-1.8-12.6-6.7-12.6-8.3 0 1.7 30 1.7 30s18.2-16.7 13.2-24.2z" fill="#dcd8cb"/><path d="M983.7 475.2s-36.3 57.3-58.3 52.5c0 0 10.9 20.6 24.5 25.4l56-2.8 1.5-74.3-23.7-.8z" opacity=".8" fill="#032a4a"/><path d="M920.9 475.3s35.4-.2 85.8.3l-5.3 7.3-93.3 1.2c0 .1-2.6-7.4 12.8-8.8z" fill="#3bbcf4"/><path fill="#032a4a" d="M969.2 572.6l37.5 73.5v-72.6"/><path d="M921 551.4l90-.3v2.5l-97-.6c2.2-1 4.6-1.5 7-1.6z" opacity=".8" fill="#5093c3"/><path d="M971.4 381s13.4-26.2 22-24l-22 24zM971.4 414.3s8.2-24.7 11.3-23.2c1 .6-11.3 23.2-11.3 23.2z" fill="#3bbcf4"/><path d="M953.2 442.7s-10-18.5-16-14.5c-1.5 1 16 14.5 16 14.5zM974.1 437s7.3-24.9 11.6-17.4" fill="#5093c3"/><g><path d="M1003.6 558.8l-56.2.1v9.1l56.2-.1c4.4 0 8-2.1 7.9-4.6s-3.5-4.5-7.9-4.5z" fill="#2a4f83"/><path d="M926.4 568.1l24.2-.1v-9.1l-24.2.1c-4.4 0-6.1 2.1-6.1 4.6s1.7 4.5 6.1 4.5z" fill="#5093c3"/></g><g><circle cx="953.1" cy="563.8" r="8.1" fill="#dcd8cb"/><circle cx="951.9" cy="563.7" r="8.1" fill="#031826"/></g></g></g></svg>