<svg xmlns="http://www.w3.org/2000/svg" xmlns:xlink="http://www.w3.org/1999/xlink" viewBox="0 0 1000 1000"><defs><path id="a" d="M999.9.4l.1 982.4c-107.4-86.2-246-137.7-383-124.6-67.1 6.4-132.1 27.8-199.2 34-96.7 8.9-201.3-18-265.5-90.9-50.8-57.4-92.8-169.5-85.6-292.3 7.4-124.8 65.5-251.3 33.8-375.7C86.3 77.6 51 24.9 0 0l999.9.4z"/></defs><clipPath id="b"><use xlink:href="#a" overflow="visible"/></clipPath><path clip-path="url(#b)" fill="#79afff" d="M-33.7.4H1000v1084.8H-33.7z"/><g clip-path="url(#b)"><g fill="#a2c7ff"><path d="M274.9 135.4l16.2-3.7c.9-.2.9-1.4 0-1.6-2.4-.5-4.9-.5-7.2.2l-9.6 2.6c-.7.2-1.1.9-.9 1.5.2.7.8 1.1 1.5 1zM741.5 757.2c-.2-1.1.3-2.2 1.2-2.7l257.2-135V516.4l-52.4 4.4c-1.2.1-2.4-.3-3.3-1L864 454.1l-62.5-42c-1-.7-1.6-1.7-1.7-2.9l-3.4-39.6c-.2-2.4-1.2-4.6-2.9-6.3L772 341.5c-.6-.6-.3-1.6.5-1.7l43.1-9.8c1.1-.3 2.3.2 2.9 1.1l47.7 61.5c1.5 1.9 3.3 3.7 5.3 5.1l62.8 45.6c.9.7 1.4 1.8 1.1 2.9l-6.8 34.2c-.4 2.1.8 4.1 2.8 4.8l23.5 7.4c2.3.7 4.8.9 7.2.5l37.7-6.7V92.1l-57.2 7.3c-1.2.2-2.5.2-3.7.1l-46.4-2.4c-1.2-.1-2.4-.4-3.5-.9l-22-10.7c-.5-.2-.3-.9.2-1l9.9-.8c1.2-.1 2.4.1 3.6.5l12.6 4.3c2.3.8 4.8 1.2 7.2 1.3l55.5 1.6c2.5.1 4.9-.3 7.3-1l22.7-6.9c.8-.2.7-1.4-.1-1.4l-85.1-8.4h-52.4c-1.2 0-2.4-.3-3.5-.8l-8.4-4c-2.2-1-4.6-1.6-7.1-1.6h-89.7c-2.5 0-4.9.2-7.4.7L691 75.3l-69.5 9.6c-2.4.3-4.9.9-7.2 1.7l-41.9 13.6c-1.2.4-2.4.6-3.6.8l-70 8.2c-2.4.3-4.8.9-7.1 1.8l-17.6 7.2c-2.1.9-3.7 2.8-4.3 5l-1.3 5.6c-.4 1.9 1 3.6 2.9 3.6h18.8l46.5-7.2c1.2-.2 2.4-.1 3.6.3l10.9 3.3c1.1.3 1.8 1.3 1.8 2.4l.1 8.6c0 1.1-.7 2-1.8 2.2l-27.6 5.5c-.8.2-1.4-.6-1.1-1.4l2.9-7.1c.6-1.5-.6-3.2-2.3-3l-24.9 3.2c-2.4.3-4.7 1.3-6.5 2.9l-3.6 3.1c-1.8 1.6-2.8 3.8-2.7 6.2v1.9c0 1-.8 1.9-1.8 2-8.5.6-42.2 2.7-53.5 3.4-2.5.2-4.9.6-7.3 1.3l-47.7 13.6-68.6 9.5-68.6 3.2c-2.4.1-4.8.9-6.8 2.2l-5.7 3.8c-1 .7-.6 2.2.6 2.2l33.4 1.5c1.1 0 2 .9 2.1 1.9l1.1 7.9c.2 1.1-.4 2.1-1.4 2.6l-26 11.4c-1.1.5-2.3.7-3.6.7l-88.3-2.6c-2.5-.1-4.9.1-7.4.5l-27 4.3c-2.4.4-4.8 1.2-6.9 2.4L44 259c-1 .6-.7 2.1.5 2.2l96.7 9.1c2.4.2 4.9 0 7.3-.5l17.7-4.4c2.4-.6 4.6-1.6 6.6-3 1.8-1.3 3.5-2.4 4.6-3.3 1-.7 2.1-1.3 3.3-1.7l31.2-11.6c1.2-.4 2.4-.7 3.6-.9l38.8-5.5 11.6-.7c2.5-.1 4.9-.5 7.3-1.2l23.6-6.4 22-9.4c1.1-.5 2.3-.7 3.6-.6l37.9 3.1c2.5.2 4.9.1 7.3-.4l50.6-9.4c1.2-.2 2.4-.1 3.6.3l73.3 26.5c.8.3.9 1.3.3 1.8l-13.9 10.6c-1 .7-2.1 1.1-3.3 1.1h-36.4c-2.4 0-4.7.9-6.4 2.6l-.7.7c-1.2 1.2-.8 3.2.9 3.8 7.5 2.5 24.5 8.1 25.9 7.3 1.9-1 60.7-19.7 60.7-19.7l21.4-4.6c1-.2 1-1.6.1-1.8l-52.9-15.7c-1.2-.3-2.2-1-3-1.9l-12.5-14.6c-.5-.6-.2-1.5.6-1.6l22.9-2.7c1.2-.1 2.4.1 3.4.7l20.2 11.9c2.1 1.2 4.4 2.1 6.8 2.6l46.5 8.7c.9.2 1.5 1.2 1.1 2l-6 13.6c-.8 1.8.1 4 2 4.7l16.1 6.2c1.1.4 2.2 1.1 3.1 1.9l7.5 6.9c1.7 1.5 4.1 2 6.2 1.3l32.2-11.1c1.1-.4 1.1-2 0-2.4l-14.9-5c-1-.4-1.8-1.3-1.7-2.4v-3.7c0-1 .8-1.9 1.9-2l59-3.6c.9-.1 1.6.8 1.4 1.7l-3.5 13.3c-.5 2 .6 4.2 2.5 4.9l33.7 12.7c2.3.9 4.7 1.1 7.2.8l36.6-5c1.2-.2 2.4-.1 3.6.3l13.7 4.1c2.4.7 4.8 1 7.3.9l55.6-2.3c.6 0 1 .8.5 1.2l-37.1 34.8c-.9.8-2 1.4-3.2 1.5l-44.7 6c-1.2.2-2.5.2-3.7.1l-165.4-13.7h-50c-2.4 0-4.7.9-6.6 2.4l-15.6 13.1c-.9.8-2.1 1.2-3.3 1.2h-36c-1.2 0-2.4-.2-3.6-.7l-34.1-14.2c-2.3-.9-4.7-1.5-7.1-1.7l-76-5.1c-.6 0-.8-.8-.3-1.1l35.2-21.5c1-.6.7-2.2-.5-2.3l-33.5-3.7-123.7 4.1-86.6 11.1c-1.2.2-2.5.2-3.7.1L84.1 275c-2.4-.2-4.9 0-7.3.7l-66.6 19.7-53.6 12.3c-2.3.5-4.4 1.9-5.9 3.8l-3.3 4.3c-.7 1-1.8 1.7-2.9 2l-40.6 12.8-62.8 9.4-145.1 42.3c-2.4.7-4.7 1.6-6.8 2.8l-165.3 91.3c-2.1 1.2-3.9 2.9-5.2 4.9l-44.6 70c-1 1.5-.1 3.5 1.7 3.8l45.8 8.7c1.1.2 2 1.1 2.2 2.2l7 36.7c.4 2 2.3 3.3 4.3 2.9l101.7-20c1.2-.2 2.4-.3 3.7-.3l79 4c2.5.1 4.9 0 7.4-.3l149.3-21.7c1.2-.2 2.5-.1 3.7.1l40.2 8c1 .2 1.6 1.2 1.4 2.2l-3.5 16.6c-.4 1.9 1 3.7 2.9 3.7l37.2.8c1.2 0 2.4.3 3.6.7l29.9 11.5c.7.3.8 1.2.2 1.7l-95.3 59.8c-1.9 1.2-3.1 3.4-3.1 5.7l.8 113.3c0 1.2-.5 2.3-1.5 3L-232 886.9c-1.9 1.4-3.4 3.4-4.3 5.7l-28 75.4c-.4 1.1-1.2 2.1-2.2 2.8l-173.4 114.4H607.5l117.9-69.3c2-1.2 3.5-3.2 4.2-5.5l35.8-135.2c.6-2.4.7-4.8.2-7.2l-24.1-110.8zm118.4-557.3l.8-.3c2.3-.8 4.7-1.3 7.2-1.5l35.9-2.2h13.1c.7 0 .9 1 .2 1.3l-18.5 6.9c-2.3.9-4.7 1.3-7.2 1.3h-22.1c-2.4 0-4.9-.5-7.1-1.6l-2.5-1.1c-1.1-.6-1-2.4.2-2.8zm-160.6-64.3h-14.5c-1.2 0-2.4.4-3.4 1l-3.2 2.1c-1 .7-1.9 1.5-2.7 2.5l-2.2 2.8c-1.5 1.9-3.6 3.3-5.9 3.9L660 150c-2.4.7-4.8 1-7.3 1h-22.5l-41.7 3.2s-29 2.1-30.9 2.1c-1.3 0-4.1-1.7-5.9-2.9-1-.7-2.2-1-3.4-1h-6.9c-.8 0-1-1.1-.3-1.4 2.1-.9 4.8-2 6.9-2.8 2.3-.9 4.7-1.4 7.1-1.3l22.6.7c1.2 0 2.3-.4 3.1-1.3l.6-.6c1.7-1.7 3.9-2.8 6.3-3l21.9-2c1.2-.1 2.3-.7 3.1-1.5l5.3-5.8c1.6-1.8 3.8-2.9 6.2-3.3l32.9-4.9c1.2-.2 2.3-.8 3-1.7l2.3-2.7c.5-.6.2-1.6-.6-1.7l-15.9-2.2c-1.3-.2-1.7-1.9-.6-2.6l7.7-5.4c2-1.4 4.3-2.3 6.7-2.6l47.3-5.9c1.2-.2 2.4-.5 3.5-1.1l3.3-1.9c2.1-1.2 4.5-2.1 6.9-2.5l17.9-3.2c2.4-.4 4.9-.6 7.4-.6l18.4.5c1 0 1.6 1.2 1 2.1-.9 1.3-2.2 2.2-3.7 2.5l-31.9 7.1-20 1.6c-1.2.1-2.4.5-3.4 1.2l-6.5 4.7c-.9.6-1.2 1.8-.8 2.8l1.8 4.5c.4 1.1 1.4 1.8 2.5 1.8l24.5 1.6s41.3-2.8 43.2-2.9c1.5-.1 20.4-.1 27.4-.2 1.7 0 3.3.6 4.5 1.8.7.7.3 2-.7 2.1l-17.2 2.2-38.2-.6-26.4 2-18 2.3c-.6.1-.8.9-.3 1.3l.9.6c1 .7 2.2 1 3.4.9l17.1-.8c1.7-.1 3.4.6 4.6 1.9.9 1 .6 2.5-.7 3.1l-2.6 1.1c-2.2.9-4.7 1.3-7.1 1l-18.5-1.7zm122.6 93.3c-1.2-.1-2.5 0-3.7.2l-51.5 8h-34.3c-2.4 0-4.8-.7-6.8-2.1l-6-4.1c-1.3-.9-1.1-2.9.4-3.5l39.1-16.2c2.3-.9 4.6-1.7 7.1-2.2l32.4-7c2.4-.5 4.9-.7 7.3-.5L824 203c.9.1 1 1.3.2 1.6l-13.8 4.9c-.7.3-.9 1.2-.2 1.7l6.1 4.3c1 .7 2.2 1 3.4.8l46-5.8c2.4-.3 4.9-.3 7.4 0l36.5 4.9 36.1 9.5c2 .5 3.2 2.5 2.7 4.5l-.2.9c-.5 2.2-2.4 3.8-4.6 4.1l-32.1 4.3c-2.4.3-4.9.3-7.3-.1l-52-7.8-30.3-1.9zM221.3 153.9c-1.2.3-2.4.4-3.7.3l-11.4-1c-2.4-.2-4.9.2-7.1 1.2l-8.5 3.8c-.8.4-.6 1.6.3 1.6l14.1.4c.2 0 .3.4 0 .4l-27.3 5.1c-1 .2-1.1 1.5-.1 1.8l6.6 2.2c2.3.8 4.8 1 7.2.7l48.2-5.8c2.4-.3 4.8-1.1 6.9-2.3l8.8-5.2c1.1-.6 2.2-1.1 3.4-1.3l11.8-2.3c1.3-.2 1.8-1.8.9-2.7-1.2-1.4-3-2.2-4.8-2.3l-16.2-.6c-2.5-.1-4.9.1-7.3.7l-21.8 5.3zM654.7 27.3l29.8 6c.7.1 1.2.8 1.2 1.5 0 1.4 1 2.5 2.4 2.5l18.2.8c2.5.1 4.9-.2 7.2-1l13.7-4.4 13.6-5.7c1.1-.5 2.3-.7 3.6-.7H762c1.2 0 2.4.2 3.6.7l13.3 5.6c2.2.9 4.7 1.3 7.1 1l14.7-1.8c.9-.1 1-1.3.2-1.6-6.1-2.1-18-6.1-17.1-6 .5.1 20.6-3.2 20.6-3.2l42-.8c.8 0 1-1.1.3-1.4-1.8-.9-3.8-1.3-5.8-1.3h-31.6l-27.1-1.8-34.2 2.7-17 2.6c-1.2.2-2.5.2-3.7.2-4.4-.3-15.1-1-16.1-1.2-.9-.1-6.4.9-9.4 1.5-1.2.2-2.5.3-3.7.1l-8.6-1.4H665c-2 0-4 .4-5.9 1.1-1.9.7-3.6 1.8-5.1 3.2l-.1.1c-.9.8-.5 2.4.8 2.7zM378.3 123l11.8-2.7c1-.2 1.7-1.1 1.8-2.1.1-.9-.7-1.6-1.6-1.5l-16.2 2.7c-1.1.2-1.5 1.6-.7 2.3 1.3 1.2 3.2 1.7 4.9 1.3z"/><path d="M275.8 138.3c-.7.2-.6 1.1.1 1.2 6.4.6 19 1.8 19.5 1.9.6.1-12 4.8-14.4 5.8-1.8.7.8 3.3 2.7 3.3l22-.8c.9 0 1.6.8 1.3 1.7-.8 2.2-2 5.8-2.5 5.9-.4.2-14.4 1.4-21.3 2-2.5.2-4.9.7-7.2 1.6l-20 7.2c-.7.3-.6 1.4.2 1.4l21.3.9c.2 0 .2.3 0 .4l-40.6 6.5c-.4.1-.6.4-.4.8.2.4.6.6 1 .6l64.1-4.9 36.4-.8c2.5-.1 4.9-.5 7.2-1.2h.2c.9-.3.8-1.5-.1-1.7l-3.5-.5c-.3-.1-.3-.5 0-.6l15.6-2.7c2.4-.4 4.7-1.4 6.6-2.9l.7-.5c1-.7.5-2.3-.8-2.3l-14-.3c-1.2 0-2.4-.4-3.3-1.2l-7.9-5.9c-.9-.7-1.6-1.8-1.7-3l-.3-2.2c-.3-2.1-2.1-3.7-4.2-3.8l-18.5-.7c-.2 0-.2-.3 0-.3l13.9-1.8 22.5-5.4c.6-.1 1-.6 1.1-1.2.1-.5-.3-.9-.8-.9l-31.7.7c-.4 0-.7-.2-1-.4-.2-.2 0-.5.2-.5l21.8-3.4c.4-.1.7-.4.8-.8 0-.4-.2-.7-.6-.7l-22 .7c-2.5.1-4.9.5-7.2 1.3l-7.2 2.5c-1.2.4-2.4.7-3.6.7l-8.5.6-15.9 3.7zM658.5 282.1c2.3.1 4.5-1 5.7-3l.6-1c.9-1.3-.1-3.1-1.7-3.1h-45.8c-1.5 0-2.7 1.2-2.7 2.7 0 1.5 1.2 2.7 2.7 2.8l41.2 1.6zM274.8 249.8c2.4.3 4.8-.1 7-1.3l4.8-2.5c.8-.4.5-1.7-.4-1.7h-13.8c-2.2 0-4.3.7-6 2-.9.7-.5 2.3.7 2.5l7.7 1zM774.9 284.3c2.4.6 4.8.7 7.3.3l16-2.8c2.4-.4 4.8-1.3 6.9-2.5l4.3-2.4c.8-.4.4-1.6-.5-1.5l-25.4 2.2-17.4 3c-.8.1-.9 1.3-.1 1.6l8.9 2.1zM123.6 92.6l7 1.4c.7.1.9 1 .3 1.4l-2.5 1.7c-1.1.8-.7 2.5.6 2.7l17 2.6 22.6 2.3c2.4.2 4.9.1 7.3-.3l12.9-2.5 21.2-1 12.9-2.5 18.7-2.1c2.3-.3 4.5-1.2 6.2-2.7 1.1-.9.6-2.7-.8-2.9l-12.3-2.2c-2.4-.4-4.9-.5-7.3-.3l-25 2.4h-27.6c-2.5 0-4.9.2-7.4.7l-9.2 1.7c-1.2.2-2.4.2-3.6-.1l-14.3-3.2c-2.4-.5-4.9-.6-7.3-.2-2.9.5-6.7 1.2-9.6 1.7-.5.2-.5 1.3.2 1.4z"/></g><path d="M90.4 38.8c2.2-1.1 4-3 6-4.5 3.4-2.6 7.9.1 11.7-1 2.9-.9 4.7-3.8 5.6-6.7.5-1.4.8-2.9 1.5-4.2.7-1.3 1.9-2.5 3.4-2.7 1.5-.3 3.1.5 4.4 1.4 4.2 3 6.8 7.7 10.4 11.4 1.4 1.5 3.3 2.9 5.3 2.3 2.7-.8 3.5-4.8 6.3-5.5 1.7-.5 3.4.6 4.7 1.7 1.8 1.6 3.3 3.4 5.1 5 1.3 1.2 2.7 2.2 4.3 2.8H90.4z" fill="#fff"/><path d="M-70.4 166.6c132.9-128 259.3-185 360.3 29.7" fill="none" stroke="#4285f4" stroke-width="4.1245" stroke-linecap="round" stroke-linejoin="round" stroke-miterlimit="10" stroke-dasharray="14.9512"/></g><g clip-path="url(#b)"><path d="M465.3 315c-2-10.7-12.2-13.7-21.4-14.3-7.1-.4-14.5.1-21.1-2.6-8.5-3.5-14.4-12.1-23.4-14.4-11.5-3-23.4 5.5-35.2 3.8-7.1-1.1-13.2-5.8-17.6-11.5-4.4-5.7-7.3-12.3-10.5-18.8-6.5-13.1-15.5-26.7-29.6-30.8-16-4.7-33 4.6-44.1 17.1-11 12.4-18.1 27.9-28.2 41.1-4.4 5.8-11.1 11.6-18.1 9.5-6-1.8-8.9-8.5-13.8-12.4-8.2-6.6-20.7-3.9-29.2 2.3-8.5 6.2-14.6 15.1-22.3 22.2-4.1 3.8-9.1 7.1-14.4 8.9h328.9z" fill="#fff"/></g><g clip-path="url(#b)"><path d="M401.4 507.8c1.1-2.2 4.6-2.7 6.2-.8.7.8 1 1.9 1.1 2.9.2 2.2-.4 4.3-1 6.4-2.1 7.1-4.3 14.5-9.4 19.9-1 1-2.1 2-3.5 2.2-1.4.2-3-.7-3.1-2.1" fill="#4285f4"/></g><path clip-path="url(#b)" fill="#082a38" d="M403.7 514.7l2.6-14.2h-6.6l.5 15.2 3.5-1"/><g clip-path="url(#b)"><path d="M317 496.7c-1-1.5-2.5-3.2-4.3-3-1.3.1-2.3 1.3-2.7 2.5-.4 1.2-.3 2.6-.2 3.9.8 8.1 2.1 16.3 5.8 23.6.7 1.4 1.5 2.8 2.9 3.5 1.4.7 3.4.2 3.9-1.3" fill="#4285f4"/></g><g clip-path="url(#b)"><path d="M356.3 555.5c16.3 0 32.6 2.4 48.2 7.2 11.5 3.5 23.2 8.8 29.9 18.9 8.6 13 6.4 30.1 3.7 45.5-6.2 36.1-13.8 85.8-20.7 121.8-1.4 7.4-2.9 14.8-5.6 21.8-8.8 22.2-27.8 18.6-30.9 2.7-1.1-5.6 0-11.3 1-16.9 5.2-27.5 12.3-68.3 19.1-95.4 2.1-8.2 4.2-17.2.7-25-2-4.4-5.5-8-9.2-11.1-9.4-8.2-20.1-15-28.6-24.2-3.6-3.9-6.8-8.3-8.6-13.3-1.4-3.8-1.9-7.8-2.1-11.8-.3-7.1.3-14.2 2-21.1" fill="#4285f4"/></g><g clip-path="url(#b)"><path d="M353.3 575.5c.2 3.1.5 6.1 1.3 9.1h81.6c-.5-1-1.1-2.1-1.8-3-6.6-10-18.4-15.3-29.9-18.9-9.3-2.8-18.8-4.9-28.5-6h-21.2c-1.3 6.2-1.8 12.5-1.5 18.8zM370.6 607.1c7 6.2 14.8 11.6 21.9 17.7 3.4 3 6.8 6.2 8.8 10.2h35.4c.5-2.7.9-5.4 1.4-8 1.1-6.5 2.2-13.3 2.3-20h-69.8zM391 707.9c-1.8 9.5-3.6 19-5.2 27.9h34.1c1.6-8.9 3.2-18.3 4.9-27.9H391z" fill="#0063cc"/><path d="M381.5 758.3c-.9 5-1.6 10-.6 15 3.1 15.9 22.1 19.5 30.9-2.7 1.6-4 2.7-8.1 3.7-12.3h-34z" fill="#606060"/><path d="M401.8 657.5c-.3 1.1-.6 2.3-.8 3.4-1.8 7.3-3.7 15.7-5.5 24.5h33c1.6-9.4 3.1-18.8 4.6-27.9h-31.3z" fill="#0063cc"/></g><g clip-path="url(#b)"><path d="M410.1 734.6c-3.1-7.9-3.4-17.2-3.6-26.1-.7-25.7-1.2-51.5.9-77.1l-5.5 4.6c3.4 7.8 1.3 16.7-.8 24.9-6.4 25.6-13.1 63.6-18.2 90.8.3 10.3-19.5 24.4-17.9 34.5 7 7 40.2 1.2 46.9-15.6 2.8-7 4.2-14.4 5.6-21.8.2-1.2.4-2.3.7-3.5-3.5-2.3-6.4-6.2-8.1-10.7z" fill="#03509b"/></g><g clip-path="url(#b)"><path d="M385.7 735.8h24.9c-.2-.4-.4-.8-.5-1.2-3.1-7.9-3.4-17.2-3.6-26.1v-.6H391c-1.9 9.5-3.6 19-5.3 27.9z" fill="#053d69"/><path d="M407 635l.3-3.6-4.3 3.6h4z" fill="#606060"/><path d="M406 657.5h-4.2c-.3 1.1-.6 2.3-.8 3.4-1.8 7.3-3.7 15.7-5.5 24.5H406c-.2-9.3-.2-18.6 0-27.9z" fill="#053d69"/><path d="M380.9 758.3c-4.9 9.2-17.3 19.9-16 27.9h27.3c8.7-3 16.7-8.2 19.6-15.6 1.6-4 2.7-8.1 3.7-12.3h-34.6z" fill="#606060"/></g><g clip-path="url(#b)"><path d="M354.8 568.3c10.1 4.5 20.2 9.1 28.9 15.9 17.3 13.6 27.2 36 25.7 57.9-.7 10.2-1.5 11.5-26.8 115.8-.9 3.5-1.8 7.2-4.2 9.9-2.3 2.6-5.6 3.9-8.9 5.1-23.7 8.5-49.6 10.8-74.4 6.6-14.4-2.4-23.5-6.8-28.6-20.4-3.4-9.1-3.7-19.1-3.6-28.8.4-43.8 8.2-87.4 22.9-128.6 1.4-4 3-8 4.9-11.8 14.9-29 52.8-38.5 62.8-23.2" fill="#4285f4"/></g><g clip-path="url(#b)"><path d="M266.3 758.3l.3.9c5.1 13.6 14.2 18 28.6 20.4 24.8 4.1 50.7 1.8 74.4-6.6 3.2-1.2 6.6-2.5 8.9-5.1 2.3-2.6 3.3-6.2 4.1-9.6H266.3zM263.8 707.9c-.5 7.5-.8 15-.9 22.5v5.5H388c2.6-10.6 4.8-19.8 6.8-27.9h-131zM284 607.1c-3.1 9.2-5.9 18.5-8.4 27.9h133.9c-.4-9.7-2.9-19.3-7.3-27.9H284z" fill="#0063cc"/><path d="M354.8 568.3l-1.2-1.6c-9.4-14.3-43.3-6.9-59.7 18h90.3c-.2-.1-.3-.3-.5-.4-8.6-6.9-18.8-11.5-28.9-16z" fill="#606060"/><path d="M270.5 657.5c-1.8 9.3-3.3 18.6-4.5 27.9h134.3c3.3-13.6 5.3-22.1 6.6-27.9H270.5z" fill="#0063cc"/></g><g clip-path="url(#b)"><path d="M354.9 777.4c-1.9-4.3-3.4-8.9-4.5-13.8-5.1-23.9 2.4-49 7.4-73 2.6-12.4 4.5-26.1.9-37.9-5.4-17.6-20.9-25.3-26.6-42.8-3.3-10.3-2.5-22.4-.9-33.5.8-5.7 1.9-11.3 3.1-16.8-15 1.2-33.9 11.8-43.4 30.3-1.9 3.8-3.5 7.8-4.9 11.8-14.8 41.2-22.5 84.9-22.9 128.6-.1 9.7.2 19.7 3.6 28.8 5.1 13.6 14.2 18 28.6 20.4 19.7 3.4 40.1 2.6 59.6-2.1z" fill="#03509b"/></g><g clip-path="url(#b)" fill="#053d69"><path d="M263.8 707.9c-.5 7.5-.8 15-.9 22.5v5.5h86.2c.9-9.3 2.8-18.7 4.8-27.9h-90.1zM293.9 584.6h36.2c.2-2.8.6-5.6 1-8.3.8-5.7 1.9-11.3 3.1-16.8-13.5 1.2-30.2 9.9-40.3 25.1zM275.6 635h72.9c-6.2-7.7-13.1-14.7-16.5-25.2-.3-.9-.5-1.8-.8-2.8H284c-3.1 9.3-5.9 18.6-8.4 28zM266.6 759.2c5.1 13.6 14.2 18 28.6 20.4 19.8 3.3 40.2 2.5 59.7-2.2-1.9-4.3-3.4-8.9-4.5-13.8-.4-1.8-.7-3.5-.9-5.3h-83.1c0 .3.1.6.2.9zM266 685.4h92.8c1.7-9.3 2.6-19 1-27.9h-89.3c-1.9 9.2-3.4 18.6-4.5 27.9z"/></g><g clip-path="url(#b)"><path d="M338.1 604.8c-6.5-6.1-12.4-12.8-16.9-20.5-4.5-7.7-7.5-16.3-7.9-25.2-.3-8.9 2.1-18 7.6-25 3.6 5.1 7.1 10.2 10.7 15.3 6.5 9.3 13.2 18.6 20.4 27.4 1.8 2.3 1.3 3.2-.1 5.5-1.5 2.5-3 5-4.6 7.5-3 4.9-6 9.8-8.9 14.7" fill="#fff"/></g><g clip-path="url(#b)"><path d="M329.8 596.2c-.3-6.6.4-13.4 1.3-19.9 1.1-7.3 2.5-14.5 4.2-21.6-1.3-1.8-2.5-3.6-3.8-5.4-3.6-5.1-7.1-10.2-10.7-15.3-5.5 7-7.9 16.1-7.6 25 .3 8.9 3.4 17.5 7.9 25.2 2.5 4.4 5.5 8.3 8.7 12z" fill="#c7d4ff"/></g><g clip-path="url(#b)"><path d="M352 580.6c3.5 8.7 6.9 17.3 10.4 26 5.7-1.8 10.7-5.5 14.6-10.1 6.5-7.7 11.8-20.7 12.8-29.5.5-4.8.1-9.8-1.8-14.2-.3-.7-.9-1.5-1.6-1.4-.3.1-.6.3-.8.5-11.3 9.6-20.4 22.1-33.6 28.7" fill="#fff"/></g><g clip-path="url(#b)"><path d="M404.3 462.4c-11.3-19.1-41.7-28.7-65.6-13.5-5.1 3.2-13.7 10.3-17 16.3-4.7 8.6-6.2 31.6-6.5 42.3-.2 4.8 1.4 9.6 4.1 13.7 0 .4.1.9 0 1.4-.1 3.1-.5 6.1-.7 9.2-.3 6.4 0 13 2.2 19.1 1.4 3.9 3.5 7.5 5.6 11.1 3.7 6.3 7.8 12.7 14 16.5 6.6 4 15.1 4.3 22.4 1.9 7.4-2.4 13.8-7.2 19.1-12.8 3.3-3.5 6.3-7.4 7.7-11.9.9-3 1.1-6.2 1.7-9.2 1.8-8.8 7.5-16.7 8.2-25.7 2.4-6.2 4.8-13.8 5.7-16.9 4.2-14 6.5-29-.9-41.5z" fill="#4992fc"/></g><g clip-path="url(#b)"><path d="M404.3 462.4c-11.3-19.1-41.7-28.7-65.6-13.5-5.1 3.2-13.7 10.3-17 16.3-3.2 5.7-4.9 17.9-5.7 28.5 1 1 1.4 2.7 1.5 4.1.1 1.9-.4 3.9 0 5.8s1.9 3.8 3.8 3.7c3.7-17.6 3.7-18.5 5.3-20.2 1.9-1.9 5.1-2.1 7-3.9 4.7-4.5-1.4-12.4 12.7-14.9 31.8-5.7 55.6 7.9 58 11.9 1.7 2.8.2 6.4-.6 9.6-1.4 5.6-1.9 11.1 1 15.9.2-.7.4-1.4.6-1.9 4.1-13.9 6.4-28.9-1-41.4z" fill="#03509b"/></g><g clip-path="url(#b)"><path d="M405.4 503.8c4-13.9 6.3-28.9-1.1-41.4-.4-.7-.8-1.4-1.3-2 0 0 0 .1.1.1 1.6 4.7 1.6 10.1-.7 14.4-1.7 3.1-4.8 5.5-6.2 8.7-1.2 2.9-1.4 6.5-2 9.6-.8 3.9-2 8-1.6 12.1.5 5.9 4.5 11.4 3.7 17.3-.8 5.9-6.1 10.1-8.6 15.6-1.8 4.1-2 8.6-3 13-2.3 10.5-8.8 22.5-17.9 27.8 5.8-2.6 11-6.7 15.4-11.3 3.3-3.5 6.3-7.4 7.7-11.9.9-3 1.1-6.2 1.7-9.2 1.8-8.8 7.5-16.7 8.2-25.7 2.3-6.5 4.7-14.1 5.6-17.1z" fill="#4285f4"/></g><g clip-path="url(#b)"><path d="M404.3 462.4c-.4-.7-.8-1.4-1.3-2 0 0 0 .1.1.1 1.6 4.7 1.6 10.1-.7 14.4-.4.8-1 1.5-1.5 2.3 1.9 1.2 3.1 2.3 3.5 3.1 1.7 2.8.2 6.4-.6 9.6-1.4 5.6-1.9 11.1 1 15.9.2-.7.4-1.4.6-1.9 4-14 6.3-29-1.1-41.5z" fill="#053d69"/></g><g clip-path="url(#b)"><path d="M328.8 541.3c1.6-6.2 5.2-12.6 3-18.6-1.2-3.4-4.2-6.4-3.7-9.9.6-4.2 5.6-6 8.5-9.1 3.2-3.4 3.8-8.3 4.3-12.9.8-7.2 2.6-14.9-.5-21.9-1.5-3.5-4.1-6.6-4.7-10.4-.5-3.2.5-6.4 2.2-9.2-5.2 3.4-13.1 10.1-16.2 15.8-4.7 8.6-6.2 31.6-6.5 42.3-.2 4.8 1.4 9.6 4.1 13.7 0 .4.1.9 0 1.4-.1 3.1-.5 6.1-.7 9.2-.3 6.4 0 13 2.2 19.1 1.4 3.9 3.5 7.5 5.6 11.1 3.7 6.3 7.8 12.7 14 16.5 1.3.8 2.7 1.4 4.1 1.9-13.6-9.8-19.2-25.4-15.7-39z" fill="#4285f4"/></g><g clip-path="url(#b)"><path d="M335.9 458.6c-.5-3.2.5-6.4 2.2-9.2-5.2 3.4-13.1 10.1-16.2 15.8-3.2 5.7-4.9 17.9-5.7 28.5 1 1 1.4 2.7 1.5 4.1.1 1.9-.4 3.9 0 5.8s1.9 3.8 3.8 3.7c3.7-17.6 3.7-18.5 5.3-20.2 1.9-1.9 5.1-2.1 7-3.9 3.9-3.8.3-9.9 7.3-13.3-.1-.4-.3-.7-.4-1.1-1.7-3.3-4.2-6.4-4.8-10.2z" fill="#053d69"/></g><g clip-path="url(#b)"><path d="M403.7 514.7c-.5-.9-3.3-1.2-4.3-1.5-5.7-1.7-10.6-2.7-16.5-2.5-5.2.2-10.4.9-15.7 0s-10-3.3-14.8-5.1c-5.5-2.1-10.5-2.7-16.4-3-1-.1-3.7-.6-4.5 0-.7.6-.9 3.5-1.1 4.4-.2.9-.1 1.1.3 1.8 2.3 3.9 1 9.3 3.3 13.2 1.8 2.9 5.2 4.4 8.5 5.5 8.4 2.6 14.7 1.7 18.3-6.5.6-1.3 1-2.6 1.9-3.7.9-1.1 2-1.7 3.7-1.4s2.5 1.2 3 2.5.5 2.7.6 4.1c.7 9 6.4 11.9 15.2 12.2 3.4.1 7.1-.2 9.8-2.4 3.5-2.9 4-8.4 7.5-11.3.6-.5.8-.7.9-1.6-.1-1.2.7-3.9.3-4.7zm-44.5 4.5c-2.2 4.6-4.4 6.8-9.7 7.1-5.9.3-11.3-2.3-13.2-4.5-2.1-2.4-3.3-9.4-1.3-14.4.3-.6.9-1.3 1.5-1.7 3.3-2 15.3 1.2 18.9 2.9 2.2 1 4.5 2.7 5 5.1.4 1.9-.4 3.8-1.2 5.5zm33.5 12.1c-2.5 1.5-8.5 2.2-14-.1-4.9-2-6.2-4.8-6.8-9.9-.2-1.9-.3-3.9.7-5.5 1.3-2.1 3.9-2.9 6.4-3.2 4-.4 16.3.5 18.8 3.5.4.5.8 1.4.8 2 .3 5.4-3.2 11.6-5.9 13.2z" fill="#082a38"/><path d="M332.8 502.1l-16.5-9.7c-.4-.2-.9.1-.9.5v1.8c0 .4.2.7.5 1l14.5 12 2.4-5.6z" fill="#082a38"/></g><g clip-path="url(#b)"><path d="M357.2 581.6h-.3c-1.4 0-2.8.1-4.1.2 1.4.1 2.9 0 4.4-.2z" fill="#4285f4"/></g><g clip-path="url(#b)"><path d="M354.7 545.3c3.7.7 7.4 1.3 11.2 1.6 1 .1 1-1.5 0-1.5-3.6-.2-7.2-.8-10.8-1.5-1-.2-1.4 1.2-.4 1.4z" fill="#4285f4"/></g><ellipse cx="577.6" cy="903.5" rx="403.3" ry="149.2" clip-path="url(#b)" fill="#0063cc"/><ellipse cx="577.6" cy="892.2" rx="403.3" ry="149.2" clip-path="url(#b)" fill="#c7d4ff"/><path clip-path="url(#b)" fill="none" stroke="#ff8b00" stroke-width=".5156" stroke-miterlimit="10" d="M563.6 471.1"/><g opacity=".48" clip-path="url(#b)"><path d="M608.2 495.1c1 0 1-1.5 0-1.5-1-.1-1 1.5 0 1.5z" fill="#ff8b00"/></g><g clip-path="url(#b)"><path d="M730.5 630.9c-1.7 42.3-7.3 43.2-14 68.6-4.7 17.9-5.6 36.7-11.3 54.3-1.1 3.5-2.6 7.2-5.6 9.4-3 2.3-7 2.7-10.7 2.7-5.3 0-11-.7-14.7-4.5-12.8-13 8.5-41.7 19.5-133.5 1.4-11.8 2.8-24.4 10.2-33.7 2-2.5 4.2-3.8 8.5-2 11.5 5 17.5 25.8 18.1 38.7" fill="#79afff"/></g><g clip-path="url(#b)"><path d="M712 621.3c13 15.1 20.9 34.5 21.9 54.4.5 10-.6 20.3 2.2 30 3.2 11 11.1 19.9 18 29.1 10.2 13.4 18.9 28 25.8 43.4 10.4 23.1 13.7 30.1 41.5 37.5 29.6 7.9 31.2-5.9 41.4-34.5 8.9-25.1 23.3-32.9 17.5-56-5.8-23.3-21.2-84.7-27.8-111.1-3.9-15.8-8.9-33-22.6-41.8-12.9-8.3-29.7-6.5-44.3-11-9-2.8-17.1-7.9-25.8-11.4s-18.8-5.4-27.4-1.6c-7.7 3.5-12.9 11-16.4 18.7-7.4 16.5-13.1 40.9-4 54.3" fill="#fff"/></g><path d="M702.9 753.7v56.7l147.9 19.9 29.8-24.8c-44.3-22.9-105.9-41.1-177.7-51.8z" clip-path="url(#b)" fill="#c7d4ff"/><g clip-path="url(#b)"><path d="M879.9 612.4c-3.9-15.8-36.4-31.3-50-40.1-12.9-8.3-29.7-6.5-44.3-11-4.7-1.4-9.1-3.5-13.5-5.7 4.5 9 8.2 18.4 9.1 28.4 2.1 24.5-13.4 47.2-15.7 71.7-.7 7.1.1 15 5.2 20 3.9 3.7 9.4 5 14.6 6.2 8.4 2 17 4.2 24.2 8.9 7.3 4.7 13.2 12.2 13.8 20.9.5 7.5-2.9 15.4.1 22.2 1.4 3.1 3.9 5.6 6.3 7.9 6.8 6.5 13.6 13.1 20.4 19.6 2.1 2 3 2.3 6.2 1.7 13.2-2.7 21-5.1 28.7-16.8-1.6-9.8 26-10.2-5.1-133.9z" fill="#c7d4ff"/></g><g clip-path="url(#b)"><path d="M803.4 557c2.6 14 12.3 31.7-14.9 40.6-19.1 6.3-30.8 1.4-36.1-18.3-1.6-5.8-2.4-11.8-4.5-17.4-2.1-5.9-3.2-10.4-.1-16.3 1.9-3.7 4.7-6.8 7.6-9.8 6.2-6.6 12.8-13.1 20.9-17 8.1-3.9 18.2-4.9 26.1-.5 1.6.9 3.1 2 4 3.6 1.5 2.5.5 4.5-.4 7-1.1 3-2 6.1-2.6 9.3-1.1 6.2-1.1 12.6 0 18.8z" fill="#79afff"/></g><g clip-path="url(#b)"><path d="M788.5 597.6c27.2-8.9 17.5-26.6 14.9-40.6-1.1-6.2-1.1-12.6 0-18.8.6-3.2 1.4-6.3 2.6-9.3.9-2.4 1.9-4.5.4-7-.9-1.6-2.4-2.7-4-3.6-7.9-4.4-17.9-3.5-26.1.5-1.7.8-3.4 1.8-5 2.9l-4.8 23.2c6.7 12.4 13.5 25.2 14.7 39.2.4 5.3.1 10.5-.8 15.6 2.5-.4 5.2-1.1 8.1-2.1z" fill="#4992fc"/></g><g clip-path="url(#b)"><path d="M720.3 473.7c-6 11.9-3.3 26.7-8.5 39-1.6 3.9-4 7.5-4.5 11.7-.9 6.7 2.9 13.1 4.8 19.7 2 7.1 1.7 14.5 2 21.9.1 2.8.5 5.9 2.3 8 1.6 1.9 4.1 2.7 6.4 3.3 17.6 4.3 38.7-2.3 49.8-16.9 6.1-8 9.4-17.9 16.2-25.4 6.5-7.1 15.7-11.5 21.3-19.2 4.7-6.4 6.4-14.7 6-22.6s-2.8-15.7-5.8-23c-1.3-3.3-2.8-6.7-5.1-9.5-2.2-2.6-5-4.7-7.9-6.4-13-7.6-29.2-9.3-43.5-4.8-12.7 3.9-27.2 11.8-33.5 24.2z" fill="#79afff"/></g><g clip-path="url(#b)"><path d="M803.7 479.1c-1.7-3.4-5.6-5.3-9.3-5.4-3.8-.1-7.4 1.2-10.8 3-.4.2-.7.4-1.1.6-6.1 3.6-11.2 8.8-14.7 14.9-3.1 5.3-4.4 11.8-6.1 17.7-1.6 5.6-.8 7.9.8 13.2 1 3.5.6 7.3-1.1 10.5-1.6 2.9-4.3 5.3-5.4 8.4-1.6 4.5.5 9.5.5 14.3.1 7.2-4.3 13.9-10.1 18.2-3.9 3-9 3.3-14 3.9 15.2.5 31.1-6.1 40.3-18.2 6.1-8 9.4-17.9 16.2-25.4 4.1-4.5 9.3-7.9 13.9-11.7 1.4-6.6 2.4-13.4 3.1-20.1.3-3.6.6-7.3.7-11 0-3-1-5.9-1.6-8.8-.4-1.3-.7-2.8-1.3-4.1z" fill="#4992fc"/></g><g clip-path="url(#b)"><path d="M787.4 450.8c-7.5-14.2 4.8-33 22.8-31.9 9.6.6 17.8 7.2 20.5 13.9 5.8 14.5-6.2 36.2-21.9 37.8-12.6 1.2-10.8-11.3-16.8-16-1.7-1.3-4.1-2.3-4.3-4.4" fill="#0063cc"/></g><g clip-path="url(#b)"><path d="M831.3 434.1c-.1 3.2-.5 6.5-1.5 9.6-.8 2.7-2.1 5.4-4.3 7.1-2.2 1.8-5.5 2.3-7.9.8-2.8-1.9-3.5-6.2-6.5-7.7-3.2-1.5-6.7.8-10.2 1.3-4.2.6-8.5-1.6-10.7-5.2-1.9-3.1-2.2-6.9-1.2-10.4-4.1 6.3-5.1 14.2-1.5 21.1l.3-.7c.2 2.1 2.6 3.1 4.3 4.4 6 4.7 4.2 17.2 16.8 16 15.2-1.3 26.9-21.8 22.4-36.3z" fill="#03509b"/></g><g clip-path="url(#b)"><path d="M738.9 452.8c10.9-5.7 23.1-9.4 35.4-9.2 12.3.2 24.8 4.4 33.7 12.9 8.4 8 13.2 19.5 14.2 31.1s-1.6 23.3-6.2 34c-2 4.6-4.5 9.1-6.9 13.6-1.5 2.8-3.6 5.9-6.7 5.9-2.5-6.4-5-12.7-7.5-19.1-.4-1-.9-2.1-1.8-2.6-1.6-.9-3.6.5-4.5 2.1-.9 1.6-1.2 3.5-2.3 5 .7-5 .7-10.2-1.4-14.8-2.9-6.5-9.5-10.6-13.8-16.3-5.8-7.7-7.2-17.9-12.1-26.2-3.4-5.7-8.4-10.4-14.3-13.3-2-1-4.1-1.8-5.9-3.2" fill="#0063cc"/></g><g clip-path="url(#b)"><path d="M822.4 489.9c-3.2 2.6-8.5 2.4-11.5-.6-.4-.4-.7-.8-1.2-1-.7-.3-1.6.1-2.2.6-4 2.9-4.4 8.6-6.5 13-6.5 13.4-24.6-9.9-23.9-32.2l-9.5 19.7c1 2.1 2.1 4.1 3.6 6 4.3 5.7 10.9 9.8 13.8 16.3 2.1 4.6 2.1 9.8 1.4 14.8 1.1-1.5 1.4-3.4 2.3-5 .9-1.6 2.9-3 4.5-2.1.9.5 1.4 1.6 1.8 2.6 2.5 6.4 5 12.7 7.5 19.1 3.1 0 5.2-3.2 6.7-5.9 2.4-4.5 4.8-8.9 6.9-13.6 4.3-9.9 6.8-20.8 6.3-31.7z" fill="#03509b"/></g><g clip-path="url(#b)"><path d="M787.1 525.7c1.3-4.3 5.3-7.6 9.8-8.1 1.1-.1 2.2-.1 3.2.4 1.5.7 2.4 2.4 2.5 4.1.4 4.5-5.4 22.7-19.1 25-1 .2-2.4 0-2.6-1" fill="#4992fc"/></g><g clip-path="url(#b)"><path d="M782 504c-1.2-3.5-2.5-6.5-2.9-10.2-.4-3.4-.5-6.8-.5-10.2.1-6.5.5-13-1.1-19.3-1.8-7.1-6.6-16-14-18.2-8.2-2.5-17.2-1.6-25 1.7-9 3.7-16.5 10.4-22.6 18-2.9 3.7-5.6 7.8-6 12.5-.2 2.3.2 4.8 1.8 6.5 3.7 4 23.9 8.2 37.3 16.3 9.9 6 19.3 13.2 31.4 12.8 1.7-.1 5.5-.4 5.1-2.4-.2-1-1.5-2.4-1.9-3.4-.6-1.4-1.1-2.7-1.6-4.1z" fill="#0063cc"/></g><g clip-path="url(#b)"><path d="M697.4 744.9c4 7.6 10.7 20.4 19 22.4 6.8 1.6 16.8-3.6 26.4-3 3.3.2 6.5 1.1 9.7 2 21 5.7 42.2 10.8 63.4 15.9 9.7 2.3 20.5 4.6 29.4.1 8.8-4.4 13.7-16.2 9.2-24.9-3.5-6.7-11.2-10.2-18.7-11-7.5-.8-15.1.6-22.6 1.1-19.5 1.4-38.8-2.7-57.9-6.9-1.9-.4-3.9-.8-5.5-1.9-4.3-2.7-5.8-8.8-10.4-10.9-1.8-.8-3.8-.8-5.8-.8-9.1.1-18.2 1.6-26.9 4.5-3 1-6 2.2-8.2 4.5-2 2.2-2.7 6.2-1.1 8.9" fill="#4992fc"/></g><g clip-path="url(#b)"><path d="M774.6 751.4c13.5 3.4 40.5 3 81 8.5-.3-.9-.6-1.8-1.1-2.6-3.5-6.7-11.2-10.2-18.7-11-7.5-.8-15.1.6-22.6 1.1-19.5 1.4-38.8-2.7-57.9-6.9-1.9-.4-3.9-.8-5.5-1.9-4.3-2.7-5.8-8.8-10.4-10.9-1.8-.8-3.8-.8-5.8-.8-9.1.1-18.2 1.6-26.9 4.5-2.3.7-4.6 1.6-6.5 3 9.6-2.2 18.5-2.3 20.9-1 4.4 2.4 2.7 10.1 6.9 12.8 2.9 1.9 6.6.2 10-.7 12.1-3.4 24.5 2.8 36.6 5.9z" fill="#79afff"/></g><g clip-path="url(#b)"><path d="M688.6 635c-3.4 20-8 39.9-13.7 59.4-3.3 11.5-7 22.9-8.3 34.8-1.2 11.9.3 24.4 6.7 34.5 2.6 4.1 6.3 7.9 11.1 8.8 4.8.9 9.8-1.4 13.2-4.9 3.4-3.5 5.3-8.2 6.8-12.8 9.9-31.8-1.3-66.4 2.4-99.5.6-5.5 1.7-11.1 4.8-15.7 2.1-3.2 5.2-5.8 6.7-9.4 1.7-3.9 1.3-8.3.3-12.4-.3-1.2-.7-2.4-.5-3.7.1-1.1.7-2.2 1.4-3.1 2.6-3.8 6.3-6.8 10.6-8.5 2-.8 4.2-1.3 6.1-2.5 1.9-1.2 3.4-3.2 3.2-5.3-13.9-1.5-28.4 6.2-35 18.5-1.8 3.3-3.1 7.1-5.8 9.7-1.9 1.8-4.4 3-6.5 4.7-2.1 1.5-3.8 4.7-3.5 7.4" fill="#4992fc"/></g><g clip-path="url(#b)"><path d="M688.9 634c2.2-45.1 2.2-46 4.2-48.9 2.3-3.3 12.4-7.8 16.1-9.6 9.4-4.4 12.8-5.5 26.3-5.6 2.4 0 5 0 7.2 1 4.5 2 6.6 8.1 4.2 12.4-4.3 7.8-19.1 6.8-28.6 19.8-4.2 5.7-5.9 12.9-10 18.8-4.3 6.4-11.6 10.9-19.4 12.1" fill="#4992fc"/></g><g clip-path="url(#b)"><path d="M783.7 511.8c-6-.5-9-7.7-14.5-10.1-3.2-1.4-6.9-1.1-10.3-1.7-3.4-.6-6.6-2.3-9-4.6-3.8-3.7-6.1-9.1-10.7-11.7-5.2-3-11.6-1.7-17.6-2-3.2-.1-6.9-1.1-8.4-4-1.3-2.6-.4-5.7.5-8.5l-.2-.1c-1.8 2.8-3.2 5.8-3.5 9.1-.2 2.3.2 4.8 1.8 6.5 3.7 4 23.9 8.2 37.3 16.3 9.9 6 19.3 13.2 31.4 12.8 1.6 0 5-.3 5.1-2.1-.7.1-1.3.2-1.9.1z" fill="#03509b"/></g><g clip-path="url(#b)"><path d="M707.9 613.3c-.7-5.8-5.1-10.4-8.8-14.9-3.2-3.9-6.1-8.9-5.5-13.7-.2.2-.3.4-.4.5-2 2.8-2.1 3.8-4.1 46.9-.3 1-.5 2-.4 3-3.4 20-8 39.9-13.7 59.4-3.3 11.5-7 22.9-8.3 34.8-1.2 11.9.3 24.4 6.7 34.5 2.6 4.1 6.3 7.9 11.1 8.8 1.9.4 3.8.2 5.6-.3-2.1-.8-3.9-2-5.2-3.7-2.6-3.5-2.5-8.3-2.2-12.7 1.6-26.1 3.4-52.7 12.2-77.3 1.9-5.2 4-10.4 4.6-15.9.9-8.5-2.2-17.2 0-25.4 2.1-8.5 9.4-15.6 8.4-24z" fill="#79afff"/></g><path clip-path="url(#b)" fill="#fbbc05" d="M784.6 539.2l-3.3 5.7h6.6z"/><g clip-path="url(#b)"><path d="M727.6 540.4c-1.5-.8-3.5-1.4-4.8-2.4-2.8-2.1-2.3-4.2-.8-6.9 1.8-3.4 3.8-6.7 5.8-9.9.5-.8-.8-1.6-1.3-.8-1.6 2.6-3.2 5.3-4.8 8-1.1 2-3.1 4.6-3.2 6.9-.1 3.6 5.9 5.1 8.4 6.4.8.5 1.6-.8.7-1.3z" fill="#4285f4"/></g><g clip-path="url(#b)"><path d="M315.5 615.9c-.9-4.1-3.3-7.8-5.3-11.5-6.1-11.4-2.1-14.8.9-21.6 3-6.7 3.1-14.5 1.2-21.6-3.8-13.6-14.8-24.9-25.6-33.4-3-2.3-6.2-4.4-9.7-5.6-12.9-4.3-30.3 4.1-36.6 14.1-1.1 1.8-.6 4.9-.6 7.1V618.8l9 34.7c11 5.6 23.3 8.3 35.6 7.8 4.1-.2 8.8-1 10.9-4.6 1.3-2.1 1.3-4.7 1.6-7.2.7-6.7 3.7-6.8 5.4-8 2.6-1.9 2.5-6.5-.2-8.2l.1-.1-.8.3c2.2-1 4.2-2.6 5.5-4.6.8-1.2-.4-2-1.5-3.5-.5-.7-.8-1.7-.4-2.5.9-1.6 3.9-1 5.9-1.2 3.4-.4 5.2-2.6 4.6-5.8z" fill="#4285f4"/></g><g clip-path="url(#b)"><path d="M290.3 550.7c3.9 5.9 7.8 12.2 8.1 19.3.5 12.6-8.9 18.8-9.7 26.9-.6 5.2 2.3 10.1 2.7 15.3.9 12.6-11.2 21.2-16 32-1.7 3.8-2.5 8.1-5.2 11.3-8.1 9.8-29.8 9.4-39.5-4.6" fill="#0063cc"/></g><g clip-path="url(#b)"><path d="M247.2 626.3c17-26.4 38.7-49.6 61.8-70.9 1.2-1.1 2.4-2.2 2.9-3.7.8-2.4-.3-4.9-1.5-7.1-8.1-15.6-18-30.6-31.8-41.4-13.8-10.9-31.9-17.2-49.1-13.8-17.8 3.5-32.1 16.4-45.3 28.7-13.5 12.6-26.9 25.1-40.4 37.7-5.2 4.8-10.5 9.8-14.1 15.9-5.6 9.4-7 20.9-6.2 31.8s3.4 21.7 5.2 32.5c3.8 22.5 3.7 45.6-.1 68.1-1.6 9.4-3.8 18.8-3.4 28.3s4 19.4 11.8 24.9l110.2-131z" fill="#fff"/></g><g opacity=".71" clip-path="url(#b)"><path d="M269.5 749.2s0-.1-.1-.1c-.1.1-.1.2-.2.3l.3-.2z" fill="#ff8b00"/></g><g clip-path="url(#b)"><path d="M264 671.3l.1.4c9.3-30.4 11.6-62.9 7.8-94.4-3.7-30.7-13.2-60.7-26.8-88.5-5.1-.6-10.3-.4-15.5.6-10.8 2.1-20.3 7.7-29.1 14.5 3.6 60.5 26 119.8 63.5 167.4z" fill="#a2c7ff"/></g><g clip-path="url(#b)"><path d="M232.4 565.4c-.4-21.3-12.6-42.7-6.2-63.1 1.6-5.2 4.6-9.8 8.5-13.6-1.7.1-3.4.4-5.2.7-10.8 2.1-20.3 7.7-29.1 14.5 2 32.7 9.4 65 21.8 95.3 6.8-9.8 10.5-21.8 10.2-33.8z" fill="#4285f4"/></g><g clip-path="url(#b)"><path d="M147.8 736.8c3.2-5.2 6.4-10.3 10.1-15.2 23.4-30.9 55.5-35.4 75.7-22.1 8.2 5.4 14.1 13.6 19.7 21.7 6.2 8.8 12.4 17.8 16.2 27.9 6-9 10.3-18.7 11.4-29.5 2.9-28.9-18-68.3-30-90.1-18.7-34-51.4-87.6-31.2-137.2-13.4 5.4-24.7 15.8-35.5 25.8-13.5 12.6-26.9 25.1-40.4 37.7-5.2 4.8-10.5 9.8-14.1 15.9-5.6 9.4-7 20.9-6.2 31.8.8 11 3.4 21.7 5.2 32.5 3.8 22.5 3.7 45.6-.1 68.1-1.6 9.4-3.8 18.8-3.4 28.3.4 9.3 3.9 19.1 11.4 24.6 1.5-5.3 4.7-9.8 11.2-20.2z" fill="#fff"/></g><g clip-path="url(#b)"><path d="M219.7 492.4c-13.4 5.4-24.7 15.8-35.5 25.8-13.5 12.6-26.9 25.1-40.4 37.7-5.2 4.8-10.5 9.8-14.1 15.9-5.6 9.4-7 20.9-6.2 31.8.8 11 3.4 21.7 5.2 32.5 3.8 22.5 3.7 45.6-.1 68.1-1.6 9.4-3.8 18.8-3.4 28.3.4 9.3 3.9 19.1 11.4 24.6 1.4-5.2 4.6-9.7 11.1-20.1 3.2-5.2 6.4-10.3 10.1-15.2 5-6.6 10.4-12 16-16.3-5.9-20.9-7.8-43.4 3.4-61.4 10.7-17.4 31.2-26.5 43.5-42.8 3.3-4.3 5.9-9.2 7.8-14.3-12.8-29.1-21.8-62.7-8.8-94.6z" fill="#c7d4ff"/></g><g clip-path="url(#b)"><path d="M278.3 807.4c9.5-12.7 19-26.8 19.7-42.7.7-15.9-7.7-31-18.8-42.4-11.1-11.4-24.9-19.7-38-28.6-24.2-16.5-47-35.4-65.7-57.9-6.9-8.3-13.3-17.1-19.4-26.1-9.7-14.3-19-30.2-19-47.4-2.8 2.9-5.3 5.9-7.4 9.4-5.6 9.4-7 20.9-6.2 31.8.8 11 3.4 21.7 5.2 32.5 3.8 22.5 3.7 45.6-.1 68.1-1.6 9.4-3.8 18.8-3.4 28.3.4 9.3 3.9 19.1 11.4 24.6l141.7 50.4z" fill="#a2c7ff"/></g><g clip-path="url(#b)"><path d="M178.1 718.1c-8.8-24.1-14.2-52.4-.8-74.2.7-1.1 1.5-2.3 2.3-3.3-1.4-1.6-2.8-3.2-4.1-4.8-6.9-8.3-13.3-17.1-19.4-26.1-9.7-14.3-19-30.2-19-47.4-2.8 2.9-5.3 5.9-7.4 9.4-5.6 9.4-7 20.9-6.2 31.8.8 11 3.4 21.7 5.2 32.5 3.8 22.5 3.7 45.6-.1 68.1-1.6 9.4-3.8 18.8-3.4 28.3.4 9.3 3.9 19.1 11.4 24.6l59.7 21.3c-1.8-20.7-11-40.5-18.2-60.2z" fill="#4285f4"/></g><g clip-path="url(#b)"><path d="M129.4 916.7c-3.7-33.5-5.1-67.3-4.5-101.1.4-21.4 1.2-44.1 9.1-64.2 6.9-17.7 21.2-34.8 35-47.6 6.1-5.7 12.8-10.8 20.5-13.9 21.3-8.3 46.7 2.3 60.6 20.5 4.7 6.1 8.3 12.9 11.7 19.7 14.4 28.5 26.1 58.6 32.3 90 1.5 7.7 2.7 15.4 3 23.2.4 11.6-1.1 23.1-2.5 34.5-1.8 14.1-3.7 28.2-5.5 42.2" fill="#053d69"/></g><g clip-path="url(#b)"><path d="M294.5 877.8c.1-1 .3-2.1.4-3.1-15.8-1-31.5-5-44.8-13.5-19.5-12.5-15.8-26.1-21.4-43.9-4.5-14-15.2-25.9-28.6-31.9-12.7-5.6-30-6.9-25.5-39.1 3.1-22.4 12.4-45.6 30.1-59.2-5.1.1-10.3 1-15.1 2.9-7.7 3-14.4 8.2-20.5 13.9-13.8 12.8-28.1 29.9-35 47.6-7.9 20.2-8.7 42.9-9.1 64.2-.6 33.7.8 67.5 4.5 101.1l159.6 3.4c1.7-14.2 3.6-28.3 5.4-42.4z" fill="#082a38"/></g><g clip-path="url(#b)"><path fill="#4285f4" d="M436.1 747l-.1.5-.2-7.4.2-.5zM430.1 740.1l3.1.6.1 7.4-3.1-.5z"/><path fill="#4285f4" d="M433.2 740.7l1.6-.2.1 7.4-1.6.2zM426.9 766.5l.7-1.3c4.7-1.9 8.5-9.8 8.3-17.7l.1-.5c.2 8.7-3.9 17.4-9.1 19.5z"/><path d="M428.3 736.7l3.1.6c1 .2 1.8 1.5 1.8 3.4l-3.1-.6c0-1.9-.8-3.2-1.8-3.4zM430.2 747.6l3.1.6c.1 6.1-2.8 12.2-6.5 13.7l-3.1-.6c3.7-1.5 6.6-7.6 6.5-13.7z" fill="#4285f4"/><path d="M433.3 748.1l1.6-.2c.1 6.9-3.2 13.8-7.3 15.5l-.7-1.6c3.6-1.4 6.5-7.6 6.4-13.7zM430.6 737.4l.7-1.3c1.9-.8 3.5 1.2 3.5 4.4l-1.6.2c0-2.4-1.2-3.9-2.6-3.3zM429.1 732l3.1.6c-.5-.1-1.1 0-1.7.2l-3.1-.6c.6-.2 1.2-.3 1.7-.2z" fill="#4285f4"/><path d="M436 739.6l-.1.5c-.1-4.2-2.1-6.8-4.6-5.8l-.7-1.6c2.8-1.1 5.3 1.9 5.4 6.9zM423.7 761.3l3.2.5-2.7 1.1-3.1-.6zM423.9 740l-.2-.9 7.6-3-.7 1.3z" fill="#4285f4"/><path d="M431.2 734.3c2.5-1 4.6 1.6 4.6 5.8l.1 7.4c.1 7.9-3.6 15.8-8.3 17.7l-4.5 1.8-.4-29.3 8.5-3.4zm-7.1 30.5l3.5-1.4c4.1-1.6 7.4-8.6 7.3-15.5l-.1-7.4c0-3.2-1.6-5.2-3.5-4.4l-7.5 3 .3 25.7" fill="#4285f4"/><path fill="#4285f4" d="M426.9 761.8l.7 1.6-3.5 1.4.1-1.9zM421.5 768.6l1.6-1.6 4.5-1.8-.7 1.3z"/><path fill="#4285f4" d="M424.2 762.9l-.1 1.9-.4-25.7.2.9zM430.5 732.7l.7 1.6-8.6 3.4-1.5-1.2zM417.9 735.9l3.2.6.4 32.1-3.1-.5z"/><path fill="#4285f4" d="M427.4 732.2l3.1.5-9.4 3.8-3.2-.6zM421.1 736.5l1.5 1.2.5 29.3-1.6 1.6z"/></g><g clip-path="url(#b)"><path d="M335.2 877.1c-3.3 1-8.4-6.7-11.5-17.1-3.1-10.4-2.9-19.6.3-20.6" fill="none" stroke="#4285f4" stroke-width="3.6456" stroke-miterlimit="10"/><path d="M227.3 914.8c60.7-28 90.9-40.9 111.4-56.1 11.3-8.4 21.3-18.7 33.4-26.2 5.6-3.5 12.8-7.1 19.6-6.1 6.3.9 12.8 4 18.9 6 3.4 1.1 6.8 2.2 9.9 4 4.7 2.8 8.3 7.1 12.9 10.1s11 4.5 15.3 1.2c.4-.3.7-.6.7-1.1 0-.5-.4-.9-.8-1.2-3.9-3.2-7.5-6.7-10.9-10.4-2.7-2.9-5-7.1-8.4-9.1-7.7-4.6-17-8-25.3-11.4-4.8-2-9.8-3.9-15-4.1-11.9-.5-22.1 7.6-31.8 14.5-26.3 18.8-39.2 22.2-136.7 61.8l-21.4 9.9" fill="#79afff"/><path d="M448.7 847.8c.4-.3.7-.6.7-1.1v-.1c-2.1.2-4.2.1-6.2-.4-6.1-1.6-10.3-7-15.4-10.6-2.5-1.8-5.4-3.2-8.2-4.6-4.9-2.4-9.8-4.6-14.7-6.8-2.5-1.1-5.3-2.3-8-1.9-2.3.3-4.5 1.7-5.7 3.7l-.2.3c.2 0 .4 0 .7.1 6.3.9 12.8 4 18.9 6 3.4 1.1 6.8 2.2 9.9 4 4.7 2.8 8.3 7.1 12.9 10.1 4.5 3.1 10.9 4.5 15.3 1.3z" fill="#4992fc"/><path d="M411.7 830.8c1.7.8 3.5 1.6 4.8 3 1.1 1.2 1.8 2.8 2.4 4.4 1.4 3.8 2.4 7.7 2.9 11.6.3 1.9.5 3.9-.3 5.7-.8 1.7-2.3 2.9-3.8 4-3.8 2.8-7.7 5.3-11.8 7.6-2.1 1.2-4.5 2.4-6.9 1.7-3.1-.9-17.1-11.7-22.8-12.9-8-1.6-11.7 7.5-17.3 11.4-8.7 6-14.4 2.8-17.5 2.8-2.6 0-5 1.3-7.3 2.7-34.3 20-68.1 41-101.2 62.9l-8.4-33.3c-1.9-7.7-2.4-5.8 20.3-14.8 53-21.1 84.7-32.3 111.3-53 5.2-4 10.2-8.5 16.1-11.3 14.4-7 26.6 1.7 39.5 7.5z" fill="#79afff"/><path d="M371.1 848c-6.7 2.7-11.1 10.1-18.3 11.5-5.9 1.1-9.2-2.2-29.2 9.2-22.6 12.9-44.9 26.3-67.5 39.3-8.7 5-17.4 10.1-26.3 15.1 1.1 4.2 2.1 8.4 3.2 12.5 33.1-22 66.8-43 101.2-62.9 2.3-1.3 4.7-2.7 7.3-2.7 3.2 0 8.9 3.3 17.5-2.8 5.6-3.9 9.3-13 17.3-11.4 5.3 1.1 17.7 10.4 22 12.5.7-1.7 1-3.5.6-5.2-1.4-6.4-15.2-20.2-27.8-15.1z" fill="#4992fc"/><path d="M324 839.4c3.3-1 8.4 6.7 11.5 17.1 3.1 10.4 2.9 19.6-.3 20.6" fill="none" stroke="#4285f4" stroke-width="3.6456" stroke-miterlimit="10"/></g><path d="M276.6 907.5L258 871.6c-10.1 4.1-21.4 8.6-34.3 13.8-5.9 2.4-5.9 2.7-24.7 11.2l31.6-140.7c4.1-25.7-10.1-49.3-31.7-52.7-21.6-3.4-42.4 14.6-46.5 40.3L126.8 919c-5 34 31.4 58.9 61.3 42l44.8-25.4c14.5-9.5 29-18.9 43.7-28.1zm-77.5-10.9z" clip-path="url(#b)" fill="#053d69"/><g clip-path="url(#b)"><path d="M272.1 898.7c-5.3 3.1-10.6 6.2-16 9.3-21.9 12.6-44 26-67.4 35.3-5.6 2.2-19 9.9-27.8 7-4.9-1.6-8-6.6-9.4-11.6-1.4-5-1.5-10.3-2.8-15.3-.7-2.8-2.8-6.1-5.6-5.5-1.2.3-2.1 1.2-2.9 2.2-4.1 5.2-5.9 11.9-6.1 18.5-.1 3.8.2 7.6.8 11.4 11.8 15.3 33.9 22 53.4 11l44.8-25.4c14.4-9.6 29-19 43.7-28.2l-4.7-8.7z" fill="#082a38"/></g><g clip-path="url(#b)"><path d="M160.2 953.2c-8.4-6.3-9.6-18.3-9.4-28.7.7-32.6 8.2-65 21.8-94.5 4.7-10.2 10.1-20.1 13.1-30.9 2.9-10.8 3.1-22.9-2.4-32.6-3.9-6.8-10.4-12.3-11.5-20-.7-4.5.6-9.1 2.2-13.4 3.9-10.7 9.3-20.8 15.9-30-18 2.1-33.8 18.5-37.3 40.5L126.8 919c-5 34 31.4 58.9 61.3 42l44.8-25.4-.1-.3c-13.8 6.8-27.7 13.3-42.2 18.3-9.9 3.5-21.8 5.9-30.4-.4z" fill="#082a38"/></g><path d="M427.1 732.9l-53.2 4.5v41.2c-.7 4.8 8.2 8.4 21.3 8.4 14.5 0 28.6-4.5 31.3-9.9.3-.6.5-1.2.5-1.8v-42.4z" clip-path="url(#b)" fill="#79afff"/><path d="M381.1 785.1c3.7 1.2 8.5 1.9 14.2 1.9 1.1 0 2.2 0 3.3-.1v-51.6l-17.5 1.5v48.3z" clip-path="url(#b)" fill="#4285f4"/><path d="M426.6 735c-2.8 5.3-16.8 9.6-31.3 9.6s-23.8-4.3-20.8-9.6c3-5.2 17-9.4 31.3-9.4s23.6 4.2 20.8 9.4z" clip-path="url(#b)" fill="#a2c7ff"/><path d="M423.4 735c-2.4 4.6-14.7 8.4-27.4 8.4s-20.8-3.8-18.2-8.4c2.6-4.6 14.8-8.2 27.3-8.2 12.5-.1 20.7 3.6 18.3 8.2z" clip-path="url(#b)" fill="#053d69"/><path d="M728.5 747.6l-53 1.3v41.3c-.2.8-.2 1.6 0 2.3v.1c1.4 4.5 10.9 7.8 23.5 7.8 14.7 0 27.8-4.6 29.2-10.2.1-.4.1-.8.1-1.1h.2v-41.5z" clip-path="url(#b)" fill="#79afff"/><path d="M704.8 800.1c7-.6 13.2-2.2 17.5-4.3v-48l-17.5.4v51.9z" clip-path="url(#b)" fill="#4285f4"/><path d="M728.2 747.6c-1.4 5.4-14.5 9.8-29.2 9.8s-25.2-4.4-23.5-9.8c1.7-5.3 14.7-9.6 29.2-9.6s24.9 4.3 23.5 9.6z" clip-path="url(#b)" fill="#a2c7ff"/><path d="M725.1 747.6c-1.3 4.8-12.8 8.6-25.8 8.6-12.9 0-22.2-3.9-20.7-8.6 1.5-4.7 13-8.5 25.7-8.5s22 3.8 20.8 8.5z" clip-path="url(#b)" fill="#053d69"/><g clip-path="url(#b)"><path d="M553.4 872.2l2.2-1.5c0 9.1 7.1 17.4 15.9 18.5l-2.2 1.5c-8.8-1-15.9-9.3-15.9-18.5z" fill="#4992fc"/><path d="M550.8 872.3l2.6-.1c0 9.1 7.1 17.4 15.9 18.5l-.5 2.5c-10-1.2-18-10.5-18-20.9z" fill="#4992fc"/><path fill="#4992fc" d="M553.4 861.1l2.2-1.4v11.1l-2.2 1.4zM550.8 861.2l2.6-.1v11.1l-2.6.1zM569.2 890.7l2.3-1.4 6.3.7-2.3 1.5z"/><path fill="#4992fc" d="M568.7 893.2l.5-2.5 6.3.8 1.6 2.7zM555.9 856.2l2.2-1.5c-1.5 1-2.5 2.8-2.5 4.9l-2.2 1.5c0-2.1 1-3.9 2.5-4.9zM579.6 897.2l2.6 2-13-1.5-.5-1.8z"/><path d="M559.1 853.6l.5 1.8c-3.4-.4-6.2 2.2-6.2 5.7l-2.6.1c0-4.8 3.7-8.2 8.3-7.6z" fill="#4992fc"/><path d="M552 850.1l2.2-1.5c2.1-1.4 4.8-2.1 7.6-1.7l-2.2 1.5c-2.8-.3-5.5.3-7.6 1.7z" fill="#79afff"/><path fill="#4992fc" d="M577.1 855.7l-1.5 1.6-16-1.9-.5-1.8z"/><path d="M559.1 850.9l20.6 2.5-.1 43.8-10.9-1.3c-11.3-1.4-20.5-12.1-20.5-23.9v-11.1c.1-6.2 4.9-10.7 10.9-10zm18 43.3l.1-38.5-18-2.2c-4.6-.5-8.3 2.9-8.3 7.6v11.1c0 10.3 8 19.7 17.9 20.9l8.3 1.1" fill="#4285f4"/><path fill="#4992fc" d="M577.1 894.2l-1.6-2.7.1-34.2 1.5-1.6zM582.3 851.1l2.2-1.4-.1 48.1-2.2 1.4z"/><path fill="#79afff" d="M559.6 848.4l2.3-1.4 22.6 2.7-2.2 1.4z"/><path fill="#4992fc" d="M579.7 853.4l2.6-2.3-.1 48.1-2.6-2z"/><path d="M559.1 850.9l20.6 2.5 2.6-2.2-22.6-2.7c-7.1-.9-12.9 4.5-12.9 11.9v11.1c0 13 10.1 24.7 22.5 26.2l-.5-1.8c-11.3-1.4-20.5-12.1-20.5-23.9v-11.1c0-6.2 4.8-10.7 10.8-10z" fill="#4285f4"/><path d="M636.2 901.3v-62.7c0 2.1-71.7 5.6-71.7 5.6v60.6c-1.5 7.6 11.4 13.6 30.2 13.6 19.8 0 38.2-6.7 41.1-14.9.3-.7.4-1.4.4-2.2 0 .1 0 0 0 0z" fill="#79afff"/><path d="M579.9 917c4.3.9 9.3 1.5 14.9 1.5 9.3 0 18.3-1.5 25.5-3.9v-73.8c-12 1-28.5 2-40.3 2.6V917z" fill="#4285f4"/><path d="M635.8 840.7c-2.9 7.8-21.3 14.3-41.1 14.3s-33.1-6.4-29.8-14.3c3.3-7.8 21.6-14 41-14s32.8 6.3 29.9 14z" fill="#79afff"/><path d="M632.3 840.7c-2.6 7.1-19.2 12.9-37 12.9s-29.9-5.8-26.9-12.9c2.9-7 19.5-12.6 37-12.6s29.5 5.6 26.9 12.6z" fill="#082a38"/></g><path d="M509.6 906.7H335.9c-5.3 0-8.7-5.6-6.2-10.3l30.3-57.7c1.8-3.5 5.5-5.7 9.4-5.7h168.9c2.4 0 4 2.4 3.2 4.6l-25.3 64.6c-1.1 2.7-3.7 4.5-6.6 4.5z" clip-path="url(#b)" fill="#4285f4"/><path d="M508.5 903.6H334.9c-5.3 0-8.7-5.6-6.2-10.3l30.3-57.7c1.8-3.5 5.5-5.7 9.4-5.7h168.9c2.4 0 4 2.4 3.2 4.6l-25.3 64.6c-1.2 2.7-3.8 4.5-6.7 4.5z" clip-path="url(#b)" fill="#a2c7ff"/><path clip-path="url(#b)" fill="#fff" d="M341.8 897h167.4l25.2-63.5H374.5z"/><path clip-path="url(#b)" fill="#a2c7ff" d="M434.2 837.3h51.9l-23 53.4h-54z"/><path clip-path="url(#b)" fill="#34a853" d="M361.5 874h33.6l-8 16.7H353zM372.1 853.2h33.2l-7.9 16.1h-33.5z"/><path clip-path="url(#b)" fill="#fbbc05" d="M469.3 890.7h31.8l21.6-53.4h-30.6z"/><path clip-path="url(#b)" fill="#053d69" d="M836 880.5H667.5l17.4-60.6H846z"/><path d="M822.3 946H652.8c-2.1 0-3.7-2-3.1-4.1l17.9-62.2H836l-10.6 63.6c-.2 1.5-1.5 2.7-3.1 2.7z" clip-path="url(#b)" fill="#053d69"/><path clip-path="url(#b)" fill="#fff" d="M836 870.7H667.5l17.4-60.2H846z"/><path clip-path="url(#b)" fill="#c7d4ff" d="M835.8 870.7H667.5l3.1-10.9h167z"/><path clip-path="url(#b)" fill="#fff" d="M825 935.7H648.6l19-65.9H836z"/><g clip-path="url(#b)"><defs><path id="c" d="M315.6 792h145.2v95.9H315.6z"/></defs><clipPath id="d"><use xlink:href="#c" overflow="visible"/></clipPath><g clip-path="url(#d)"><path d="M335.2 877.1c-3.3 1-8.4-6.7-11.5-17.1-3.1-10.4-2.9-19.6.3-20.6" fill="none" stroke="#4285f4" stroke-width="3.6456" stroke-miterlimit="10"/><path d="M227.3 914.8c60.7-28 90.9-40.9 111.4-56.1 11.3-8.4 21.3-18.7 33.4-26.2 5.6-3.5 12.8-7.1 19.6-6.1 6.3.9 12.8 4 18.9 6 3.4 1.1 6.8 2.2 9.9 4 4.7 2.8 8.3 7.1 12.9 10.1s11 4.5 15.3 1.2c.4-.3.7-.6.7-1.1 0-.5-.4-.9-.8-1.2-3.9-3.2-7.5-6.7-10.9-10.4-2.7-2.9-5-7.1-8.4-9.1-7.7-4.6-17-8-25.3-11.4-4.8-2-9.8-3.9-15-4.1-11.9-.5-22.1 7.6-31.8 14.5-26.3 18.8-39.2 22.2-136.7 61.8l-21.4 9.9" fill="#79afff"/><path d="M448.7 847.8c.4-.3.7-.6.7-1.1v-.1c-2.1.2-4.2.1-6.2-.4-6.1-1.6-10.3-7-15.4-10.6-2.5-1.8-5.4-3.2-8.2-4.6-4.9-2.4-9.8-4.6-14.7-6.8-2.5-1.1-5.3-2.3-8-1.9-2.3.3-4.5 1.7-5.7 3.7l-.2.3c.2 0 .4 0 .7.1 6.3.9 12.8 4 18.9 6 3.4 1.1 6.8 2.2 9.9 4 4.7 2.8 8.3 7.1 12.9 10.1 4.5 3.1 10.9 4.5 15.3 1.3z" fill="#4992fc"/><path d="M411.7 830.8c1.7.8 3.5 1.6 4.8 3 1.1 1.2 1.8 2.8 2.4 4.4 1.4 3.8 2.4 7.7 2.9 11.6.3 1.9.5 3.9-.3 5.7-.8 1.7-2.3 2.9-3.8 4-3.8 2.8-7.7 5.3-11.8 7.6-2.1 1.2-4.5 2.4-6.9 1.7-3.1-.9-17.1-11.7-22.8-12.9-8-1.6-11.7 7.5-17.3 11.4-8.7 6-14.4 2.8-17.5 2.8-2.6 0-5 1.3-7.3 2.7-34.3 20-68.1 41-101.2 62.9l-8.4-33.3c-1.9-7.7-2.4-5.8 20.3-14.8 53-21.1 84.7-32.3 111.3-53 5.2-4 10.2-8.5 16.1-11.3 14.4-7 26.6 1.7 39.5 7.5z" fill="#79afff"/><path d="M371.1 848c-6.7 2.7-11.1 10.1-18.3 11.5-5.9 1.1-9.2-2.2-29.2 9.2-22.6 12.9-44.9 26.3-67.5 39.3-8.7 5-17.4 10.1-26.3 15.1 1.1 4.2 2.1 8.4 3.2 12.5 33.1-22 66.8-43 101.2-62.9 2.3-1.3 4.7-2.7 7.3-2.7 3.2 0 8.9 3.3 17.5-2.8 5.6-3.9 9.3-13 17.3-11.4 5.3 1.1 17.7 10.4 22 12.5.7-1.7 1-3.5.6-5.2-1.4-6.4-15.2-20.2-27.8-15.1z" fill="#4992fc"/><path d="M335.7 878.8l-1-3.5c1.2-.4 2.4-7.2-.9-18.3-1.4-4.9-3.4-9.2-5.4-12.3-2.2-3.2-3.5-3.6-3.8-3.5l-1-3.5c1.7-.5 4.4 0 7.8 5 2.3 3.4 4.4 8.1 5.9 13.3 2.9 9.9 3.7 21.3-1.6 22.8z" fill="#4285f4"/></g></g><path d="M459.6 861.6c-1.7 3.7-7.4 6.8-12.8 6.8s-8.4-3-6.7-6.8c1.7-3.7 7.4-6.7 12.8-6.7s8.3 3 6.7 6.7zM648.6 935.7h176v6h-176z" clip-path="url(#b)" fill="#c7d4ff"/><g clip-path="url(#b)" fill="#ea4335"><path d="M677.7 879.2c-4.4 15.1-9.3 30.6-14.5 46.4-.5 1.6 3.2 1.6 3.8 0 5.2-15.8 10-31.3 14.4-46.4.4-1.5-3.3-1.5-3.7 0zM689.9 879.2c-4.8 15.2-9.7 30.7-14.6 46.6-.5 1.6 3.3 1.6 3.8 0 4.9-15.9 9.8-31.4 14.5-46.6.4-1.5-3.2-1.5-3.7 0zM702.7 879.4c-5.7 15.1-11.1 30.6-16.2 46.4-.5 1.6 3.3 1.6 3.8 0 5-15.8 10.3-31.3 16.1-46.4.5-1.5-3.1-1.5-3.7 0zM713.5 879.5c-.7 15.2-11.1 30.6-14.2 46.5-.3 1.5 3.5 1.6 3.8 0 3.1-15.9 13.4-31.3 14.1-46.5 0-1.4-3.7-1.4-3.7 0zM725.8 879.9c-5.3 14.8-9.7 30-13.1 45.5-.3 1.5 3.4 1.6 3.8 0 3.4-15.5 7.8-30.7 13-45.5.4-1.4-3.2-1.4-3.7 0zM738.7 880.3c-5.5 14.6-7.6 29.6-10.6 44.9-.3 1.5 3.5 1.6 3.8 0 2.9-15.2 5-30.3 10.5-44.9.5-1.4-3.2-1.4-3.7 0zM745.8 899.2c-2 8.6-4.1 17.4-6.2 26.2-.4 1.6 3.4 1.6 3.8 0 2.1-8.9 4.1-17.6 6.1-26.2.4-1.5-3.3-1.5-3.7 0z"/></g><g clip-path="url(#b)"><path d="M765.3 844.9c7.3 2.2 12.5 6.2 15.2 6.7 3.8.6 9.4-2.1 12.1-8.3 1.8-4.1 2-10.7 1.9-15.3-.9-2.4-3-4.1-5-5.7-3.5-2.7-6.9-5.5-10.4-8.2-1-.8-2.1-1.6-3-2.5-3.2-2.9-5.7-6.4-9-9.2-1.5-1.3-3.2-2.4-5.1-2.8-2-.4-4.1 0-6.1.6-1.6.5-2.5 2.1-3.2 3.6-.6 1.3-1 2.7-1.3 4.2-2.2 9.2-4.4 18.5-4.1 27.9.1 2.7.5 5.5 2.3 7.5 1.8 1.9 4.9.4 7.2.3 2.9-.2 5.8.3 8.5 1.2z" fill="#082a38"/></g><g clip-path="url(#b)"><path d="M754.3 817.5c-1-2.4-2.5-7.2-2.4-9.5-1.5.5-11.7 17.2-13.5 22.4-.9 2.6-.9 4.3.6 7.1 3.5 6.6 10.2 10.4 16.8 13.7 2.9 1.5 3.8.8 4.9-.6 6.9-8.6 8.3-10.1 1.7-20.8-2.3-3.9-5.2-5.7-8.1-12.3z" fill="#053d69"/></g><path d="M750 855.1l-6.6 7.9.5-10.3 23.4-60.1c.4-1 2.1-1.3 3.7-.6 1.7.7 2.7 2 2.3 3L750 855.1z" clip-path="url(#b)" fill="#0063cc"/><g clip-path="url(#b)"><path d="M904.5 668.7c-.6-8.3-1.8-15.5-7.2-21.9-7 3.2-19.1 9.9-23.9 15.5-5.3 6-8.8 18.5-11.2 26.5-8.7 29.1-17.1 58.3-23.5 88-.4.2-.8.3-1.2.5-12.6 5.7-17.8 18.4-46.7 37.4-5.5 3.6-11.5 7.4-14 13.5-2.6 6.6.4 15 6.6 18.5 3.1 1.7 5 .9 8.3-1 21-11.9 51.5-16.7 65.7-29.3 3.5-2.3 6.3-5.6 8.8-8.9 10.4-14 16.3-30.6 21.8-47.1 9.8-29.8 18.7-60.6 16.5-91.7z" fill="#053d69"/></g><path d="M777 815.9l7.2 2.4s1.2 18.2 12.2 14.2c11-3.9 0 0 0 0l-.7 5.4-19.9 5.8-4.9-7.4 6.1-20.4z" clip-path="url(#b)" fill="#082a38"/><g clip-path="url(#b)"><path d="M878.4 703.9c-4.7 20.9-9.5 41.9-14.2 62.8-7.2 32.1-13.3 43-40.5 55.2-22.2 9.9-35.5 12.9-46.8 17.3 1.3 3.1 3.5 5.8 6.4 7.4 3.1 1.7 5 .9 8.3-1 21-11.9 51.5-16.7 65.7-29.3 3.5-2.3 6.3-5.6 8.8-8.9 10.4-14 16.3-30.6 21.8-47.1 9.4-28.4 18-58 16.7-87.8l-8.2-11.5c-10.6 11.4-14.5 27.5-18 42.9z" fill="#082a38"/></g><g clip-path="url(#b)"><path d="M886.3 685.1l-2.7 55.5c-.3 7.1-.7 14.1.2 21.2 3.9 31.8 31.1 55.2 44.7 84.2 7.3 15.7 10.8 33.2 20.3 47.6 9.7 14.6 25 24.7 41.5 30.6 7.2 2.6 14.8 4.4 22.4 4.6 17.2.4 34.3-8.4 44.4-22.4 12.8-17.6 12.2-38.1 5.5-57.7-7.7-22.8-11.6-46.8-14.5-70.6-3.1-25.2-5.4-50.8-13.7-74.8-8.3-24-23.6-46.7-46.4-58-12.2-6-25.9-8.5-39.4-10.2-10.4-1.4-21.1-2.4-31.4-.5-9 1.7-20.3 6.3-25.4 14.5-5.8 9.5-4.9 25.1-5.5 36z" fill="#0063cc"/></g><g clip-path="url(#b)"><path d="M1062.6 848.7c-7.7-22.8-11.6-46.8-14.5-70.6-3.1-25.2-5.4-50.8-13.7-74.8-5-14.3-12.4-28.2-22.5-39.5-8.3 18.9-13.6 25.8-24.7 36.8-14.7 14.6-31.7 28.5-52.2 31.9-17.8 3-29.1-4.2-33.8-19.2-4.4-13.7-3.7-53.2-3-71-2.6 1.9-4.8 4.1-6.4 6.7-5.8 9.5-5 25.2-5.5 36.1l-2.7 55.5c-.3 7.1-.7 14.1.2 21.2 3.9 31.8 31.1 55.2 44.7 84.2 7.3 15.7 10.8 33.2 20.3 47.6 9.7 14.6 25 24.7 41.5 30.6 7.2 2.6 14.8 4.4 22.4 4.6 17.2.4 34.3-8.4 44.4-22.4 12.8-17.6 12.2-38.1 5.5-57.7z" fill="#4285f4"/><path d="M885.5 795.8l-14.9 22.7v58.9l102.9 43.2c4.8-9.2 7.4-18.8 7.4-28.5 0-36.6-35.9-70.3-95.4-96.3z" fill="#c7d4ff"/><path d="M1062.6 848.7c-7.7-22.8-11.6-46.8-14.5-70.6-3.1-25.2-5.4-50.8-13.7-74.8-4.7-13.4-11.5-26.5-20.7-37.3h-2.8c-7.8 17.3-13.1 24.1-23.8 34.7-8.5 8.5-17.8 16.7-28 22.7-2.9 23.7-15.1 46-15 61.4.1 9.7 4 19.1 8.9 27.5 4 6.9 8.7 13.4 14 19.4 6.4 7.3 13.7 13.8 20.3 20.9 15.3 16.6 26.7 36.8 33 58.5.3 1.1.7 2.3 1.7 3 .9.6 2.1.7 3.2.7 7.4 0 16.2.3 23.8.4 3-2.6 5.7-5.6 8.1-8.8 12.8-17.6 12.2-38.1 5.5-57.7z" fill="#0063cc"/><path d="M901.2 713.3c4.8 15 16.1 22.2 33.8 19.2 20.4-3.4 37.5-17.3 52.2-31.9 11-11 16.4-17.9 24.7-36.8-6.8-7.6-14.7-14-23.9-18.5-12.2-6-25.9-8.5-39.4-10.2-10.4-1.4-21.1-2.4-31.4-.5-6.2 1.1-13.4 3.7-19 7.8-.7 17.7-1.3 57.1 3 70.9z" fill="#053d69"/><path d="M1009.8 668.6l-5.4-12.2c-5-4.4-10.4-8.1-16.4-11.1-12.2-6-25.9-8.5-39.4-10.2-10.4-1.4-21.1-2.4-31.4-.5-5.4 1-11.5 3-16.7 6.2 7.6 2.8 14.2 7.8 20.5 12.9 20.9 16.5 40.8 34.4 59.5 53.4 2.3-2.1 4.5-4.3 6.7-6.4 10.1-10.1 15.4-16.7 22.6-32.1z" fill="#082a38"/></g><g clip-path="url(#b)"><path d="M839.6 482c10.3-23 39.4-43.9 56-32.8 3.3 2.2 11.7 10.9 15.9 18.3 4.1 7.3 6 15.6 7.9 23.7 1.4 6.2 1.5 9.5-3.2 14.3-7.3 7.5-17.8 10.9-28.1 12.3-11.2 1.6-17.8.5-31.3-9.5-4.4-3.3-8.8-6.8-12.1-11.2s-5.4-9.9-4.9-15.4" fill="#4285f4"/></g><g clip-path="url(#b)"><path d="M869.3 461.9c7.7 0 13.9-6.2 13.9-13.9 0-.6 0-1.1-.1-1.7-7.8.6-16.4 4.8-24.1 11.1 2.6 2.8 6.2 4.5 10.3 4.5zM839.8 481.8c-.5 4.8 1.1 9.6 3.8 13.7 7.7 0 13.9-6.3 13.9-13.9 0-6.1-3.9-11.3-9.4-13.2-3.4 4.3-6.3 8.9-8.5 13.7l.2-.3z" fill="#c7d4ff"/><circle cx="895" cy="481.6" r="13.9" fill="#c7d4ff"/><path d="M906.9 512.3c3.5-1.8 6.6-4 9.3-6.8 2.2-2.2 3.3-4.1 3.8-6.1-7 .4-12.6 6-13.1 12.9zM869.3 499.4c-5.8 0-10.8 3.6-12.9 8.6.1.1.3.2.4.3 11 8.2 17.4 10.4 25.5 10.1.6-1.6.9-3.3.9-5.1 0-7.6-6.2-13.9-13.9-13.9z" fill="#fff"/></g><g clip-path="url(#b)"><path d="M846.5 520.9c-7.4-10.8-10.8-24.4-9.3-37.5.2-1.7.5-3.4 1.6-4.7 1.1-1.2 2.7-1.6 4.2-2 7.5-1.6 15.2-.6 22.7 1.1 17 3.9 33.1 12.2 46.2 23.7.4.3.8.7.9 1.1.2.7-.1 1.4-.4 2.1-3.4 6-10.2 8.9-16.6 11.4-7.8 3.1-15.8 6.2-24.1 6.4-4.3.1-8.6-.5-12.9-.2-2.4.1-4.7.6-7 .4-2.3-.2-4.8-1-6.2-2.8" fill="#c7d4ff"/></g><g clip-path="url(#b)" fill="#fff"><path d="M857.5 481.6c0-1.8-.4-3.6-1-5.2-4.5-.5-9-.4-13.5.5-1.5.3-3.2.8-4.2 2-1.1 1.2-1.5 3-1.6 4.7-.4 3.4-.4 6.9-.2 10.4 2 1 4.2 1.6 6.6 1.6 7.7-.1 13.9-6.3 13.9-14zM871.6 522.8c3.1-.1 6.1-.6 9-1.3 1.6-2.3 2.6-5.1 2.6-8.1 0-7.7-6.2-13.9-13.9-13.9s-13.9 6.2-13.9 13.9c0 3.5 1.3 6.7 3.4 9.1 4.3-.2 8.5.4 12.8.3zM912.4 504.9c.4-.6.7-1.4.4-2.1-.1-.2-.2-.4-.4-.6-2.7 2-4.7 5-5.3 8.4 2.1-1.5 4-3.4 5.3-5.7zM895 495.5c2.4 0 4.7-.6 6.7-1.7-6.4-4.4-13.4-8.1-20.6-11 .7 7.1 6.7 12.7 13.9 12.7z"/></g><g clip-path="url(#b)"><path d="M965 632.6c-5.6-2.9-11.4-6.1-14.6-11.5-3.7-6.1-3.4-13.9-1.5-20.7 1.9-6.9 5.3-13.2 7.5-20 4.7-14.1 4.4-29.8-.9-43.6-2.2-5.9-5.4-11.4-9.6-16.1-3.8-4.1-8.4-7.4-13.2-10.2-19.2-10.9-42.9-13.2-63.9-6.7-26.1 8-45.8 34.1-40.9 62.1 1.2 6.9 3.8 13.7 2.7 20.6-.7 4.7-3.1 8.9-5.8 12.8-2 3-4.4 6.6-3 9.9 1.2 3 3.9 3.1 6.3 4.6 1.6 1 1.6 1.1 1.2 3.4-.3 1.8-.9 3.5-1.8 5-.8 1.5-1.9 3.1-1.5 4.8.2.7.6 1.3 1.1 1.8 1.3 1.5 4.2 2.5 4.5 4.4.4 2.6-2.3 4.6-.4 7.4 1.4 1.9 4.1 2.3 5.9 3.8 1.8 1.6 2.3 4.3 3.4 6.5 5.6 10.8 19.3 3.4 26.1-1.6 2.9-2.2 6-4.8 9.7-4.7 3.2.1 5.9 2.2 8.3 4.2 14 11.7 23.6 26.9 37.1 38.9 9.5 8.5 21.5 15.8 34.2 14.4 8.4-.9 15.9-5.7 21.7-11.9s9.8-13.7 13.4-21.3c2.7-5.8 8.8-18.6 2.5-23.4-3.4-2.6-9.5-3.9-13.5-5.7-5.1-2.2-10.1-4.6-15-7.2z" fill="#053d69"/></g><g clip-path="url(#b)"><path d="M898.1 639.9c8.6 2.6 15.9 8.1 22.9 13.7 17.1 13.5 33.4 27.8 49 43 2.7-1.8 5.3-4 7.5-6.4 5.7-6.2 9.8-13.7 13.4-21.3 2.7-5.8 8.8-18.6 2.5-23.4-3.4-2.6-9.5-3.9-13.5-5.7-5-2.3-10-4.7-14.9-7.2-5.6-2.9-11.4-6.1-14.6-11.5-3.7-6.1-3.4-13.9-1.5-20.7 1.9-6.9 5.3-13.2 7.5-20 2.8-8.5 3.8-17.6 3-26.5L944 518.8c-3.4-3.2-7.2-5.9-11.3-8.3-12.2-7-26.2-10.4-40.2-10.3-3.9 1.7-7.7 3.6-11.5 5.6-22.7 11.7-35.8 33.6-33.5 59.6.3 3.3.9 6.7 2.7 9.4 5 7.8 18.4 9.5 19.4 18.7 1.1 10.5-15.3 14.3-18.1 24.5-1.3 4.7.7 9.6 2.7 14l5.4 12.3c.8 1.7 1.7 3.6 3.4 4.4 3.5 1.6 6.9-2.1 9.8-4.7 6.6-5.9 16.8-6.7 25.3-4.1z" fill="#082a38"/></g><circle cx="910.3" cy="599.5" r="4" clip-path="url(#b)" fill="#0063cc"/><g clip-path="url(#b)"><path d="M987.2 700.6c10.6-10.6 16-17.4 23.8-34.7h-73c6.9 7.8 13.7 16 17.6 25.6 4.3 10.6 4.9 21.3 3.6 31.9 10.3-6.1 19.5-14.3 28-22.8z" fill="#082a38"/></g><g clip-path="url(#b)"><path d="M874.7 568.9c14.4 14.6 31 26.7 48.6 37.2 7 4.1 14.1 8 21.6 11.3 4 1.8 5.6 2.7 9.3-.2 2.8-2.2 4.8-5.3 6.7-8.3 16.4-26.9 20.7-59.6 20.1-91.1-.1-3.1-.2-6.4-1.8-9-1.2-2-3.2-3.5-5.2-4.7-8.8-5.3-19.2-7.5-29.4-8.6-24-2.5-48.3.9-72 5-6.3 1.1-12.7 2.3-18.4 5-5 2.4-10.6 6.6-12.5 12-1.7 4.8 5.1 13.9 7.6 18.1 6.7 12.2 15.5 23.3 25.4 33.3z" fill="#c7d4ff"/></g><g clip-path="url(#b)" fill="#fff"><path d="M847.7 533.6c.5.7.9 1.4 1.2 2 2.6 4.4 5.4 8.8 8.5 12.9.1-.5.1-1.1.1-1.6 0-6.2-4.1-11.5-9.8-13.3z"/><circle cx="895" cy="547" r="13.9"/><path d="M972.2 564.8c-7.7 0-13.9 6.2-13.9 13.9 0 6.6 4.6 12.2 10.8 13.6 3.5-8.6 6.1-17.5 8-26.7-1.5-.5-3.2-.8-4.9-.8zM946.5 598.4c-7.3 0-13.4 5.7-13.9 12.9 4 2.2 8.1 4.2 12.2 6 4 1.8 5.6 2.7 9.3-.2 2.5-2 4.4-4.6 6.1-7.3-1.2-6.5-6.9-11.4-13.7-11.4zM883.2 513.4c0-6.1-4-11.3-9.4-13.2l-1.5.3c-4.2.7-8.5 1.5-12.5 2.8-2.7 2.5-4.4 6.2-4.4 10.2 0 7.7 6.2 13.9 13.9 13.9s13.9-6.3 13.9-14zM870.9 564.9c1.2 1.3 2.5 2.6 3.8 3.9 2.7 2.8 5.5 5.4 8.4 8-.8-6.2-5.9-11.1-12.2-11.9z"/><ellipse transform="rotate(-45 920.7687 578.7978)" cx="920.8" cy="578.8" rx="13.9" ry="13.9"/><path d="M972.2 527.3c3.3 0 6.3-1.1 8.7-3v-6.6c-.1-3.1-.2-6.4-1.8-9-1.2-2-3.2-3.5-5.2-4.7-2.2-1.4-4.6-2.5-7-3.5-5 2.1-8.5 7.1-8.5 12.9-.1 7.7 6.1 13.9 13.8 13.9z"/><ellipse transform="rotate(-9.213 920.722 513.243)" cx="920.8" cy="513.4" rx="13.9" ry="13.9"/><ellipse transform="rotate(-13.286 946.2899 546.8746)" cx="946.5" cy="547" rx="13.9" ry="13.9"/></g><g clip-path="url(#b)"><path d="M756.5 800c-3.7.7-8.1 1.7-9.4 5.6-.8 2.5.1 5.1 1 7.6 3.5 10.6 2.2 13.8 4 14.6.5.2 1.2.1 1.7-.3 1.4-1.1 3.7-7 2.6-13-1.2-6.1-2.7-6.8.3-13.3.1-.4.2-1-.2-1.2" fill="#053d69"/></g><g clip-path="url(#b)"><path d="M797.1 819.5c-2.6-7.2-10.7-9.8-17.3-11.6-4-1.1-5.8-.7-8.2 4.3-4.9 10.1-7.7 13.6-7.8 14.5-.1 1.2 2.6 3.7 6.8 0 4.2-3.8 4.7-6.8 7.3-7 5.3-.3 5 12.3 11.5 15.9 2.3 1.3 5.6 1.1 7.1-1 .5-.6.7-1.3 1-2.1 1.4-4.2 1-8.9-.4-13.1" fill="#053d69"/></g><g clip-path="url(#b)"><path d="M1005.5 873.3c-151.1 4.4-150.1 4.1-162 5.5-27.4 3.2-39.8 11.6-54.3 14.8-7.8 1.7-16.2 1.8-23.4-1.7-6.7-3.3-1.9-5.6 2.2-8.2 18.7-11.6 13-15 33.7-20.8 28-7.9 28.8-7 85.4-2.9 22.7 1.7 93.2-6.4 114.5-8.8" fill="#053d69"/><path d="M789.2 893.6c11.6-2.6 21.8-8.5 39.5-12.4-19.9-1.4-37.8 10.2-63 10.7h.1c7.2 3.5 15.7 3.4 23.4 1.7z" fill="#082a38"/><path d="M1012 890.6c-37.9-1.7-75.8-3.3-113.6-5-5.1-.2-10.3-.5-15.4.5-4.8.9-9.4 2.8-14 4.3-13.8 4.4-28.4 4.9-42.8 5.3-8.8.3-17.5.6-26.3.8-3.3.1-6.9.1-9.6-1.7.3-2.5 2.9-3.8 5.3-4.7 7.7-3 15.6-5.7 23.6-7.9 2.9-.8 7.4-.8 8.6-4.1.9-2.6-1.2-5.6.5-8.1.7-1.1 2-1.5 3.3-1.9 9-2.5 18.5-.9 27.8 0 15.3 1.6 30.7 1.5 46.1 1.2 34.2-.5 68.5-1.8 102.6-3.8l3.9 25.1z" fill="#053d69"/><path d="M922.9 880.9c-17.9-2.2-36.1-7.8-53.6-3.5-6.6 1.6-12.9 4.6-19.2 7.2-18.7 7.5-38.9 11.2-59 10.7 2.6 1.3 5.8 1.2 8.7 1.1 8.8-.3 17.5-.6 26.3-.8 14.4-.5 29.1-1 42.8-5.3 4.7-1.5 9.2-3.4 14-4.3 5.1-.9 10.3-.7 15.4-.5 37.9 1.7 75.8 3.3 113.6 5l-2.7-16.9c-28.8 5.5-57.4 10.9-86.3 7.3z" fill="#082a38"/><path d="M901.1 860.2c-5.6.2-10.4.1-14-.1h-.4V876c4.8.2 9.6.8 14.4 1.5v-17.3z" fill="#4285f4"/><path d="M886.7 885.6c.6-.1 1.3-.1 1.9-.1 1.3-.1 2.6-.1 3.9-.1 1.9 0 3.9.1 5.8.2.9 0 1.8.1 2.7.1v-8.2c-4.8-.7-9.6-1.3-14.4-1.5l.1 9.6z" fill="#0063cc"/></g><g clip-path="url(#b)"><path d="M957.8 506.3c-6.9 4.5-15.9 7.4-19.1 15-1.7 4-1.3 8.6-2.7 12.7-1.8 5.4-6.6 9.5-12 11.5s-11.3 2.1-17 1.5c-24.2-2.6-31.7-14.5-43-16-5.5-.7-12 2.4-13.2 7.6 6.8 11 14.9 21.1 23.9 30.2 14.4 14.6 31 26.7 48.6 37.2 7 4.1 14.1 8 21.6 11.3 4 1.8 5.6 2.7 9.3-.2 2.8-2.2 4.8-5.3 6.7-8.3 16.4-26.9 20.7-59.6 20.1-91.1-.1-3.1-.2-6.4-1.8-9-1.2-2-3.2-3.5-5.2-4.7-2.7-1.6-5.5-3-8.5-4.1-2.4 2.4-4.9 4.6-7.7 6.4z" fill="#4285f4"/></g><g clip-path="url(#b)" fill="#c7d4ff"><path d="M895 560.9c7.6 0 13.8-6.1 13.9-13.7-.7 0-1.3-.1-2-.2-10.6-1.1-18-4.1-23.9-7.1-1.2 2.1-1.9 4.5-1.9 7.1 0 7.7 6.2 13.9 13.9 13.9zM852 535.9c-.6.8-1 1.8-1.2 2.8 2.1 3.4 4.3 6.7 6.6 9.9.1-.5.1-1.1.1-1.6 0-4.6-2.2-8.6-5.5-11.1zM946.5 598.4c-7.3 0-13.4 5.7-13.9 12.9 4 2.2 8.1 4.2 12.2 6 4 1.8 5.6 2.7 9.3-.2 2.5-2 4.4-4.6 6.1-7.3-1.2-6.5-6.9-11.4-13.7-11.4zM972.2 564.8c-7.7 0-13.9 6.2-13.9 13.9 0 6.6 4.6 12.2 10.8 13.6 3.5-8.6 6.1-17.5 8-26.7-1.5-.5-3.2-.8-4.9-.8zM972.2 527.3c3.3 0 6.3-1.1 8.7-3v-6.6c-.1-3.1-.2-6.4-1.8-9-1.2-2-3.2-3.5-5.2-4.7-2.2-1.4-4.6-2.5-7-3.5-5 2.1-8.5 7.1-8.5 12.8-.1 7.8 6.1 14 13.8 14z"/><ellipse transform="rotate(-45 920.7687 578.7978)" cx="920.8" cy="578.8" rx="13.9" ry="13.9"/><ellipse transform="rotate(-13.286 946.2899 546.8746)" cx="946.5" cy="547" rx="13.9" ry="13.9"/><path d="M870.9 564.9c1.2 1.3 2.5 2.6 3.8 3.9 2.7 2.8 5.5 5.4 8.4 8-.8-6.2-5.9-11.1-12.2-11.9z"/></g><path d="M901.6 866.5h-15.5c-1.3 0-2.4-1.1-2.4-2.4v-5.3c0-1 .8-1.8 1.8-1.8h16.8c1 0 1.8.8 1.8 1.8v5.3c-.1 1.4-1.2 2.4-2.5 2.4z" clip-path="url(#b)" fill="#0063cc"/><path d="M902.2 861.1v-4h-16.9v4c0 .6.5 1.2 1.2 1.2H901c.7 0 1.2-.5 1.2-1.2z" clip-path="url(#b)" fill="#79afff"/><path d="M858.1 85.9c-.6 1.8-5.9 3.2-11.8 3.2s-10.1-1.5-9.4-3.2c.7-1.8 6-3.2 11.8-3.2s10 1.4 9.4 3.2zM502.8 254.7c-3.6 4.9-19.4 8.9-35.1 8.9s-25.2-4-21.2-8.9c3.9-4.9 19.6-8.7 35-8.7 15.3-.1 24.9 3.8 21.3 8.7zM883.2 321.4c-1.3 5.8-16.2 10.6-33.4 10.6-17.1 0-29.6-4.8-27.9-10.6 1.7-5.7 16.6-10.3 33.3-10.3s29.3 4.5 28 10.3zM174.5 488.8c-7.5 8.4-30.4 15.3-51.1 15.3s-30.7-6.9-22.6-15.3c8-8.3 30.6-14.9 50.7-14.9s30.4 6.6 23 14.9zM315.4 196.8c-4.5 4.2-19.9 7.6-34.4 7.6s-22.4-3.4-17.6-7.6c4.7-4.1 20-7.5 34.3-7.5s22.1 3.3 17.7 7.5z" clip-path="url(#b)" fill="#4992fc"/><g clip-path="url(#b)"><path d="M694.3 125.3c1.3-4.3-2-5.3-4.6-4.9-1.7.3-3.2 1-4.9 1.1-5.8.4-9.4-6.3-14.8-8.4-8.1-3.1-18.1 4.8-25.5.3-4.6-2.8-6.3-9.4-11.5-10.7-1.7-.4-3.4-.2-5 .3-4.6 1.4-8.3 4.7-12.7 6.8-4.3 2.1-10.1 2.7-13.5-.7-1.3-1.3-2.1-3.1-2.7-4.9-1.8-5.4-2.4-11.1-4.3-16.4-2-5.3-5.8-10.4-11.3-11.7-5.7-1.3-11.5 1.8-16 5.5-11.5 9.5-20.7 25.7-31.7 35.8-4 3.6-8.7 6.8-13.9 8h172.4z" fill="#fff"/></g><g clip-path="url(#b)"><path d="M875.1 240.1c-9.6-5.5-16-16.2-26.4-20.1-14.9-5.6-33.8 4.4-46.6-5-10.9-8-11.4-26.5-23.8-32-8.4-3.7-17.9.7-25.7 5.5-12.5 7.9-24 17.4-34.2 28.2-4.8 5.1-9.4 10.7-15.8 13.6s-15 2.3-19-3.4c-2.8-4-2.6-9.2-3.3-14s-2.9-10.2-7.7-11.3c-3.2-.7-6.5.9-9.3 2.6-15.4 9.5-26.6 24.3-40.4 36h252.2z" fill="#fff"/></g><path d="M472.9 254.7c158-217.2 286.8-211.1 381 60.4" clip-path="url(#b)" fill="none" stroke="#4285f4" stroke-width="3.0934" stroke-linecap="round" stroke-linejoin="round" stroke-miterlimit="10" stroke-dasharray="14.9512"/><g fill="none" stroke="#4285f4" stroke-width="3.0934" stroke-linecap="round" stroke-linejoin="round" clip-path="url(#b)"><path d="M135.6 490.3c1.4-2.1 2.8-4.1 4.2-6.2"/><path d="M148.3 471.9C456.9 25.4 721.5-191.9 850.2 300.7" stroke-dasharray="14.8547,14.8547"/><path d="M852 307.9l1.8 7.2"/></g><path d="M135.6 490.3c335-370.7 893.2-215.2 893.2 155.2M289.9 196.3c52.5-105.3 102.8-156.9 183 58.4M848.7 82.7c87.3-59.9 174.6-65.9 261.8 75.6" clip-path="url(#b)" fill="none" stroke="#4285f4" stroke-width="3.0934" stroke-linecap="round" stroke-linejoin="round" stroke-miterlimit="10" stroke-dasharray="14.9512"/><g><path d="M509.6 906.7H335.9c-5.3 0-8.7-5.6-6.2-10.3l30.3-57.7c1.8-3.5 5.5-5.7 9.4-5.7h168.9c2.4 0 4 2.4 3.2 4.6l-25.3 64.6c-1.1 2.7-3.7 4.5-6.6 4.5z" fill="#4285f4"/><path d="M508.5 903.6H334.9c-5.3 0-8.7-5.6-6.2-10.3l30.3-57.7c1.8-3.5 5.5-5.7 9.4-5.7h168.9c2.4 0 4 2.4 3.2 4.6l-25.3 64.6c-1.2 2.7-3.8 4.5-6.7 4.5z" fill="#a2c7ff"/><path fill="#fff" d="M341.8 897h167.4l25.2-63.5H374.5z"/><path fill="#a2c7ff" d="M434.2 837.3h51.9l-23 53.4h-54z"/><path fill="#34a853" d="M361.5 874h33.6l-8 16.7H353zM372.1 853.2h33.2l-7.9 16.1h-33.5z"/><path fill="#fbbc05" d="M469.3 890.7h31.8l21.6-53.4h-30.6z"/><path d="M459.6 861.6c-1.7 3.7-7.4 6.8-12.8 6.8s-8.4-3-6.7-6.8c1.7-3.7 7.4-6.7 12.8-6.7s8.3 3 6.7 6.7z" fill="#c7d4ff"/></g><g><defs><path id="e" d="M617 858.2c-67.1 6.4-132.1 27.8-199.2 34-96.7 8.9-201.3-18-265.5-90.9-50.8-57.4-92.8-169.5-85.6-292.3h565.1L617 858.2z"/></defs><clipPath id="f"><use xlink:href="#e" overflow="visible"/></clipPath><g clip-path="url(#f)"><path d="M227.3 914.8c60.7-28 90.9-40.9 111.4-56.1 11.3-8.4 21.3-18.7 33.4-26.2 5.6-3.5 12.8-7.1 19.6-6.1 6.3.9 12.8 4 18.9 6 3.4 1.1 6.8 2.2 9.9 4 4.7 2.8 8.3 7.1 12.9 10.1s11 4.5 15.3 1.2c.4-.3.7-.6.7-1.1 0-.5-.4-.9-.8-1.2-3.9-3.2-7.5-6.7-10.9-10.4-2.7-2.9-5-7.1-8.4-9.1-7.7-4.6-17-8-25.3-11.4-4.8-2-9.8-3.9-15-4.1-11.9-.5-22.1 7.6-31.8 14.5-26.3 18.8-39.2 22.2-136.7 61.8l-21.4 9.9" fill="#79afff"/><path d="M448.7 847.8c.4-.3.7-.6.7-1.1v-.1c-2.1.2-4.2.1-6.2-.4-6.1-1.6-10.3-7-15.4-10.6-2.5-1.8-5.4-3.2-8.2-4.6-4.9-2.4-9.8-4.6-14.7-6.8-2.5-1.1-5.3-2.3-8-1.9-2.3.3-4.5 1.7-5.7 3.7l-.2.3c.2 0 .4 0 .7.1 6.3.9 12.8 4 18.9 6 3.4 1.1 6.8 2.2 9.9 4 4.7 2.8 8.3 7.1 12.9 10.1 4.5 3.1 10.9 4.5 15.3 1.3z" fill="#4992fc"/><path d="M411.7 830.8c1.7.8 3.5 1.6 4.8 3 1.1 1.2 1.8 2.8 2.4 4.4 1.4 3.8 2.4 7.7 2.9 11.6.3 1.9.5 3.9-.3 5.7-.8 1.7-2.3 2.9-3.8 4-3.8 2.8-7.7 5.3-11.8 7.6-2.1 1.2-4.5 2.4-6.9 1.7-3.1-.9-17.1-11.7-22.8-12.9-8-1.6-11.7 7.5-17.3 11.4-8.7 6-14.4 2.8-17.5 2.8-2.6 0-5 1.3-7.3 2.7-34.3 20-68.1 41-101.2 62.9l-8.4-33.3c-1.9-7.7-2.4-5.8 20.3-14.8 53-21.1 84.7-32.3 111.3-53 5.2-4 10.2-8.5 16.1-11.3 14.4-7 26.6 1.7 39.5 7.5z" fill="#79afff"/><path d="M335.7 878.8l-1-3.5c1.2-.4 2.4-7.2-.9-18.3-1.4-4.9-3.4-9.2-5.4-12.3-2.2-3.2-3.5-3.6-3.8-3.5l-1-3.5c1.7-.5 4.4 0 7.8 5 2.3 3.4 4.4 8.1 5.9 13.3 2.9 9.9 3.7 21.3-1.6 22.8z" fill="#4285f4"/></g></g><g><path d="M553.4 872.2l2.2-1.5c0 9.1 7.1 17.4 15.9 18.5l-2.2 1.5c-8.8-1-15.9-9.3-15.9-18.5z" fill="#4992fc"/><path d="M550.8 872.3l2.6-.1c0 9.1 7.1 17.4 15.9 18.5l-.5 2.5c-10-1.2-18-10.5-18-20.9z" fill="#4992fc"/><path fill="#4992fc" d="M553.4 861.1l2.2-1.4v11.1l-2.2 1.4zM550.8 861.2l2.6-.1v11.1l-2.6.1zM569.2 890.7l2.3-1.4 6.3.7-2.3 1.5z"/><path fill="#4992fc" d="M568.7 893.2l.5-2.5 6.3.8 1.6 2.7zM555.9 856.2l2.2-1.5c-1.5 1-2.5 2.8-2.5 4.9l-2.2 1.5c0-2.1 1-3.9 2.5-4.9zM579.6 897.2l2.6 2-13-1.5-.5-1.8z"/><path d="M559.1 853.6l.5 1.8c-3.4-.4-6.2 2.2-6.2 5.7l-2.6.1c0-4.8 3.7-8.2 8.3-7.6z" fill="#4992fc"/><path d="M552 850.1l2.2-1.5c2.1-1.4 4.8-2.1 7.6-1.7l-2.2 1.5c-2.8-.3-5.5.3-7.6 1.7z" fill="#79afff"/><path fill="#4992fc" d="M577.1 855.7l-1.5 1.6-16-1.9-.5-1.8z"/><path d="M559.1 850.9l20.6 2.5-.1 43.8-10.9-1.3c-11.3-1.4-20.5-12.1-20.5-23.9v-11.1c.1-6.2 4.9-10.7 10.9-10zm18 43.3l.1-38.5-18-2.2c-4.6-.5-8.3 2.9-8.3 7.6v11.1c0 10.3 8 19.7 17.9 20.9l8.3 1.1" fill="#4285f4"/><path fill="#4992fc" d="M577.1 894.2l-1.6-2.7.1-34.2 1.5-1.6zM582.3 851.1l2.2-1.4-.1 48.1-2.2 1.4z"/><path fill="#79afff" d="M559.6 848.4l2.3-1.4 22.6 2.7-2.2 1.4z"/><path fill="#4992fc" d="M579.7 853.4l2.6-2.3-.1 48.1-2.6-2z"/><path d="M559.1 850.9l20.6 2.5 2.6-2.2-22.6-2.7c-7.1-.9-12.9 4.5-12.9 11.9v11.1c0 13 10.1 24.7 22.5 26.2l-.5-1.8c-11.3-1.4-20.5-12.1-20.5-23.9v-11.1c0-6.2 4.8-10.7 10.8-10z" fill="#4285f4"/><path d="M636.2 901.3v-62.7c0 2.1-71.7 5.6-71.7 5.6v60.6c-1.5 7.6 11.4 13.6 30.2 13.6 19.8 0 38.2-6.7 41.1-14.9.3-.7.4-1.4.4-2.2 0 .1 0 0 0 0z" fill="#79afff"/><path d="M579.9 917c4.3.9 9.3 1.5 14.9 1.5 9.3 0 18.3-1.5 25.5-3.9v-73.8c-12 1-28.5 2-40.3 2.6V917z" fill="#4285f4"/><path d="M635.8 840.7c-2.9 7.8-21.3 14.3-41.1 14.3s-33.1-6.4-29.8-14.3c3.3-7.8 21.6-14 41-14s32.8 6.3 29.9 14z" fill="#79afff"/><path d="M632.3 840.7c-2.6 7.1-19.2 12.9-37 12.9s-29.9-5.8-26.9-12.9c2.9-7 19.5-12.6 37-12.6s29.5 5.6 26.9 12.6z" fill="#082a38"/></g><g><defs><path id="g" d="M627.6 946l66-207.2 200.7 52.9L999.9 814v172.9z"/></defs><clipPath id="h"><use xlink:href="#g" overflow="visible"/></clipPath><g clip-path="url(#h)"><path fill="#053d69" d="M836 880.5H667.5l17.4-60.6H846z"/><path d="M822.3 946H652.8c-2.1 0-3.7-2-3.1-4.1l17.9-62.2H836l-10.6 63.6c-.2 1.5-1.5 2.7-3.1 2.7z" fill="#053d69"/><path fill="#fff" d="M836 870.7H667.5l17.4-60.2H846z"/><path fill="#c7d4ff" d="M835.8 870.7H667.5l3.1-10.9h167z"/><path fill="#fff" d="M825 935.7H648.6l19-65.9H836z"/><path fill="#c7d4ff" d="M648.6 935.7h176v6h-176z"/><g fill="#ea4335"><path d="M677.7 879.2c-4.4 15.1-9.3 30.6-14.5 46.4-.5 1.6 3.2 1.6 3.8 0 5.2-15.8 10-31.3 14.4-46.4.4-1.5-3.3-1.5-3.7 0zM689.9 879.2c-4.8 15.2-9.7 30.7-14.6 46.6-.5 1.6 3.3 1.6 3.8 0 4.9-15.9 9.8-31.4 14.5-46.6.4-1.5-3.2-1.5-3.7 0zM702.7 879.4c-5.7 15.1-11.1 30.6-16.2 46.4-.5 1.6 3.3 1.6 3.8 0 5-15.8 10.3-31.3 16.1-46.4.5-1.5-3.1-1.5-3.7 0zM713.5 879.5c-.7 15.2-11.1 30.6-14.2 46.5-.3 1.5 3.5 1.6 3.8 0 3.1-15.9 13.4-31.3 14.1-46.5 0-1.4-3.7-1.4-3.7 0zM725.8 879.9c-5.3 14.8-9.7 30-13.1 45.5-.3 1.5 3.4 1.6 3.8 0 3.4-15.5 7.8-30.7 13-45.5.4-1.4-3.2-1.4-3.7 0zM738.7 880.3c-5.5 14.6-7.6 29.6-10.6 44.9-.3 1.5 3.5 1.6 3.8 0 2.9-15.2 5-30.3 10.5-44.9.5-1.4-3.2-1.4-3.7 0zM745.8 899.2c-2 8.6-4.1 17.4-6.2 26.2-.4 1.6 3.4 1.6 3.8 0 2.1-8.9 4.1-17.6 6.1-26.2.4-1.5-3.3-1.5-3.7 0z"/></g><path d="M765.3 844.9c7.3 2.2 12.5 6.2 15.2 6.7 3.8.6 9.4-2.1 12.1-8.3 1.8-4.1 2-10.7 1.9-15.3-.9-2.4-3-4.1-5-5.7-3.5-2.7-6.9-5.5-10.4-8.2-1-.8-2.1-1.6-3-2.5-3.2-2.9-5.7-6.4-9-9.2-1.5-1.3-3.2-2.4-5.1-2.8-2-.4-4.1 0-6.1.6-1.6.5-2.5 2.1-3.2 3.6-.6 1.3-1 2.7-1.3 4.2-2.2 9.2-4.4 18.5-4.1 27.9.1 2.7.5 5.5 2.3 7.5 1.8 1.9 4.9.4 7.2.3 2.9-.2 5.8.3 8.5 1.2z" fill="#082a38"/><path d="M754.3 817.5c-1-2.4-2.5-7.2-2.4-9.5-1.5.5-11.7 17.2-13.5 22.4-.9 2.6-.9 4.3.6 7.1 3.5 6.6 10.2 10.4 16.8 13.7 2.9 1.5 3.8.8 4.9-.6 6.9-8.6 8.3-10.1 1.7-20.8-2.3-3.9-5.2-5.7-8.1-12.3z" fill="#053d69"/><path d="M750 855.1l-6.6 7.9.5-10.3 23.4-60.1c.4-1 2.1-1.3 3.7-.6 1.7.7 2.7 2 2.3 3L750 855.1z" fill="#0063cc"/><path d="M904.5 668.7c-.6-8.3-1.8-15.5-7.2-21.9-7 3.2-19.1 9.9-23.9 15.5-5.3 6-8.8 18.5-11.2 26.5-8.7 29.1-17.1 58.3-23.5 88-.4.2-.8.3-1.2.5-12.6 5.7-17.8 18.4-46.7 37.4-5.5 3.6-11.5 7.4-14 13.5-2.6 6.6.4 15 6.6 18.5 3.1 1.7 5 .9 8.3-1 21-11.9 51.5-16.7 65.7-29.3 3.5-2.3 6.3-5.6 8.8-8.9 10.4-14 16.3-30.6 21.8-47.1 9.8-29.8 18.7-60.6 16.5-91.7z" fill="#053d69"/><path d="M878.4 703.9c-4.7 20.9-9.5 41.9-14.2 62.8-7.2 32.1-13.3 43-40.5 55.2-22.2 9.9-35.5 12.9-46.8 17.3 1.3 3.1 3.5 5.8 6.4 7.4 3.1 1.7 5 .9 8.3-1 21-11.9 51.5-16.7 65.7-29.3 3.5-2.3 6.3-5.6 8.8-8.9 10.4-14 16.3-30.6 21.8-47.1 9.4-28.4 18-58 16.7-87.8l-8.2-11.5c-10.6 11.4-14.5 27.5-18 42.9z" fill="#082a38"/><path d="M756.5 800c-3.7.7-8.1 1.7-9.4 5.6-.8 2.5.1 5.1 1 7.6 3.5 10.6 2.2 13.8 4 14.6.5.2 1.2.1 1.7-.3 1.4-1.1 3.7-7 2.6-13-1.2-6.1-2.7-6.8.3-13.3.1-.4.2-1-.2-1.2M797.1 819.5c-2.6-7.2-10.7-9.8-17.3-11.6-4-1.1-5.8-.7-8.2 4.3-4.9 10.1-7.7 13.6-7.8 14.5-.1 1.2 2.6 3.7 6.8 0 4.2-3.8 4.7-6.8 7.3-7 5.3-.3 5 12.3 11.5 15.9 2.3 1.3 5.6 1.1 7.1-1 .5-.6.7-1.3 1-2.1 1.4-4.2 1-8.9-.4-13.1M1005.5 873.3c-151.1 4.4-150.1 4.1-162 5.5-27.4 3.2-39.8 11.6-54.3 14.8-7.8 1.7-16.2 1.8-23.4-1.7-6.7-3.3-1.9-5.6 2.2-8.2 18.7-11.6 13-15 33.7-20.8 28-7.9 28.8-7 85.4-2.9 22.7 1.7 93.2-6.4 114.5-8.8" fill="#053d69"/><path d="M789.2 893.6c11.6-2.6 21.8-8.5 39.5-12.4-19.9-1.4-37.8 10.2-63 10.7h.1c7.2 3.5 15.7 3.4 23.4 1.7z" fill="#082a38"/><path d="M1012 890.6c-37.9-1.7-75.8-3.3-113.6-5-5.1-.2-10.3-.5-15.4.5-4.8.9-9.4 2.8-14 4.3-13.8 4.4-28.4 4.9-42.8 5.3-8.8.3-17.5.6-26.3.8-3.3.1-6.9.1-9.6-1.7.3-2.5 2.9-3.8 5.3-4.7 7.7-3 15.6-5.7 23.6-7.9 2.9-.8 7.4-.8 8.6-4.1.9-2.6-1.2-5.6.5-8.1.7-1.1 2-1.5 3.3-1.9 9-2.5 18.5-.9 27.8 0 15.3 1.6 30.7 1.5 46.1 1.2 34.2-.5 68.5-1.8 102.6-3.8l3.9 25.1z" fill="#053d69"/><path d="M922.9 880.9c-17.9-2.2-36.1-7.8-53.6-3.5-6.6 1.6-12.9 4.6-19.2 7.2-18.7 7.5-38.9 11.2-59 10.7 2.6 1.3 5.8 1.2 8.7 1.1 8.8-.3 17.5-.6 26.3-.8 14.4-.5 29.1-1 42.8-5.3 4.7-1.5 9.2-3.4 14-4.3 5.1-.9 10.3-.7 15.4-.5 37.9 1.7 75.8 3.3 113.6 5l-2.7-16.9c-28.8 5.5-57.4 10.9-86.3 7.3z" fill="#082a38"/><path d="M901.1 860.2c-5.6.2-10.4.1-14-.1h-.4V876c4.8.2 9.6.8 14.4 1.5v-17.3z" fill="#4285f4"/><path d="M886.7 885.6c.6-.1 1.3-.1 1.9-.1 1.3-.1 2.6-.1 3.9-.1 1.9 0 3.9.1 5.8.2.9 0 1.8.1 2.7.1v-8.2c-4.8-.7-9.6-1.3-14.4-1.5l.1 9.6zM901.6 866.5h-15.5c-1.3 0-2.4-1.1-2.4-2.4v-5.3c0-1 .8-1.8 1.8-1.8h16.8c1 0 1.8.8 1.8 1.8v5.3c-.1 1.4-1.2 2.4-2.5 2.4z" fill="#0063cc"/><path d="M902.2 861.1v-4h-16.9v4c0 .6.5 1.2 1.2 1.2H901c.7 0 1.2-.5 1.2-1.2z" fill="#79afff"/></g></g><g><path d="M480.3 602.9c-2.8 19.9 2.9 39.9 5.9 59.9 4.1 28.2 2.6 56.8 2.4 85.2-.1 9.4.1 19.3 5 27.6 4.7 8 13.2 13.7 22.5 17 9.2 3.3 19.2 4.6 29.1 5.5 15.7 1.5 31.6 2.4 47-.7 15.4-3.1 30.2-10.7 38.5-22.9 17.9-26.4 4.8-77.5 13-118.6 2.6-13.1 7.4-26 6.7-39.3-2.3-42.6-61.6-79.1-114.5-66.3-27.6 6.7-49.9 27.2-55.6 52.6" fill="#053d69"/><path d="M669.6 591.1c-6.3-34-14.4-43.5-34.4-54.3-23.5-12.7-49.8-20.1-76.5-21.4h-.8c-9.5 17.6-5.4 41.5 9.4 55 12.6 11.6 34.6 17.3 44.6 34.2 2.1 3.6 3.2 6 5.8 15.7l54.2-16.7c-.8-4.3-1.6-8.4-2.3-12.5z" fill="#053d69"/><path d="M643.4 563c5.4 5.3 7.2 13.3 7.5 20.9.3 7.6-.7 15.2.2 22.7.1 1.1.3 2.1.5 3.2l20.3-6.3c-.7-4.1-1.5-8.3-2.2-12.4-6.3-34-14.4-43.5-34.4-54.3-23.5-12.7-49.8-20.1-76.5-21.4h-.8c-3.7 6.9-5.3 14.7-5 22.5 25.2 3.9 50.2 9.6 74.6 17.1 5.5 1.7 11.5 3.7 15.8 8z" fill="#082a38"/><path d="M560.5 531c-2.9-8.7-10.9-17.1-20-15.4l-1.1-.7c-21.6 3.1-42.7 9.9-62 20.1-24.3 12.8-28.8 24.5-29.6 52.7-.3 8.8-.4 17.6-.5 26.4l47.5 8.9c1.9-12.3 9.1-27.4 36.8-40.6 4.9-2.3 9.9-4.4 14.3-7.5 13.6-9.6 19.8-28.3 14.6-43.9z" fill="#053d69"/><path d="M460.2 590.6c.2-18.4 15.3-33.5 31.8-41.5s35.1-11 52.1-17.9l10.8-9.8c-3.8-4.2-8.9-6.8-14.3-5.8l-1.1-.7c-21.6 3.1-42.7 9.9-62 20.1-24.3 12.8-28.8 24.5-29.6 52.7-.3 8.8-.4 17.6-.5 26.4l18.5 3.5c-2.2-9.1-5.8-17.8-5.7-27z" fill="#082a38"/><path d="M521.9 449.2c-5.8 19.4-5.7 21.7-3.2 31.7 1.3 5.4 2.7 11 6 15.4 4.6-24.7 5.8-29 4.9-35.2-.7-5.1-3.4-10.3-8.1-12.6" fill="#c7d4ff"/><path d="M572.8 554.6c-7.4 6.9-9.3 5.8-14 6-4.4.2-19.3.2-22.8-2.3-4.3-3.1-3.3-13.2-9-25.5-2.7-5.7-5.7-11.7-5.3-18.1.3-5.4 2.9-10.6 2.2-15.9-.6-4.7-2.2-4.4-2-17.2.1-8.4-.5-18.9 3.1-26.8 3.3-7.3 9.5-14.8 15.7-19.8 9.7-7.9 22.9-11.2 35.2-9 34.3 6.3 45.5 48.8 31.7 72.1-2.8 4.7-6.2 8.7-8 13.9-1.9 5.2-3.7 10.4-6.2 15.4-5.3 10.1-12.2 19.4-20.6 27.2z" fill="#79afff"/><path d="M589.5 430.9c-2.2 2.3-3.8 5.2-4.8 8.5-1.5 5.2-1.5 11.7-.8 17.1.6 10.1.4 20.3-.5 30.4-.9 10.2 1 9.8 2.8 14.3 2.1 5.3-.2 11.4-3.5 16-1 1.4-2.1 2.7-2.6 4.3-.7 2.4 0 5 .6 7.5 1.2 5.2 1.5 10.7 1 16 4.4-5.5 8.3-11.4 11.5-17.7 2.5-5 4.4-10.2 6.2-15.4 1.9-5.2 5.2-9.2 8-13.9 11.8-19.8 5.5-53.6-17.9-67.1z" fill="#0063cc"/><path d="M604.6 493.2c1.6-3.2 3.5-6.5 6.6-8.2 1.7-.9 3-.7 3.6 1.3 1.1 3.6.2 7.6-.8 11.2-1.9 6.6-5 13.3-11.6 15.1-.8.2-1.8.2-2.2-.5-.2-.4-.1-.9 0-1.3 1.1-5.6 2.3-11.1 3.6-16.6" fill="#4992fc"/><path d="M565.9 465.9c-5.5 2.5-12 2.7-17.6.5-3.7-1.5-7-3.9-10.7-5.4-5.6-2.2-13.3-2.3-17.4-7.5-2-2.5-2.6-6.3-.7-8.9 3.2-4.3 14.9-7.5 26.5-1.2 7.1 3.8 12.6 10 17.5 16.5 1.3 1.8 2.7 3.8 2.7 6.1" fill="#053d69"/><path d="M521.2 516.2c1.3 2.9 1.6 6.2 3.1 9.1 1.2 2.2 3 4 5.2 5.2 3 1.6 3.9-.4 6.1-2.5.2-.2.4-.4.7-.5.3-.1.5-.1.8 0 7.2.9 14.3 2 21.6 2.7 2.3.2 4.7.6 6.3 2.2.7.8 1.2 1.8 2.1 2.4 1.1.8 2.5.8 3.9.7 4.1-.5 7.8-2.8 10.7-5.6s5.2-6.3 7.4-9.8c3.3-5.4 6.5-11.1 7.9-17.4.4-1.7.7-3.4 1.4-5s2-3 3.7-3.4l.7.3c-1.8 16.7-5.1 33.1-9.8 49.2-.9 2.9-1.8 5.9-3.6 8.3-1.3 1.7-2.9 3.1-4.6 4.4-4.3 3.4-8.8 6.5-13.5 9.3-4.3 2.5-9 4.8-14 5.1-2.8.2-5.5-.3-8.3-.8-5.8-1-11.6-1.9-17.4-2.9-4.1-5-3.5-12.6-4.5-19-.7-4.2-2.3-8.2-3.4-12.3-1.8-6.4-2.4-13.1-1.9-19.7" fill="#fff"/><path d="M601.5 502c-.1 0 .3-5.1.4-5.6 2.1-8.4 7.2-9.1 10.5-12.6 4.4-4.5 3-22.5 2-28.8-.5-3.2-1.3-6.7-3.7-8.9-1.4-1.2-2.3-1-3.8-.2-4.7 2.8-9.3 5.9-13.7 9.2-2 1.6-3.7 2.4-4.1 4.8-.4 2.5.5 5.7.7 8.2.9 10.9 7.2 3.3 7.7 15.7.3 6.1.5 12.2.8 18.3 1.1.3 2.2.2 3.2-.1zM515.1 454.7c-.5-3.3-.2-6.7 1.5-9.6 3.9-6.9 22.2-19 29.4-23.2 8.6-4.9 13.2-6.1 23-5.2 24.2 2.2 35.1 14.8 37.5 27-9.8 6.3-19.9 12.4-30.1 18.1-3.5 2-7.1 3.9-11.1 4.9-3.9.9-8.3.8-11.8-1.4-5.1-3.1-12.4-15.3-24.3-19.5-10.5-3.9-14.9 3.8-14.1 8.9" fill="#c7d4ff"/><path d="M592.8 435.2c2.4-3.5 2.9-6.9 2.1-9.6-6-4.5-14.5-7.9-25.9-8.9-9.8-.9-14.4.3-23 5.2-5.9 3.4-19.1 12-25.9 18.8 3.2-.4 6.4-.2 9.3.7 10 2.9 16.2 12.1 21.9 15.4 6.7 3.9 12.5.6 13-3.9.2-2.3-1.4-5.7 3.8-8 7.2-3.4 17.4.7 24.7-9.7z" fill="#fff"/><path d="M671.8 603.5l-54.2 16.7c3.1 11.6 8.2 33.5 19.5 80.1.9 3.6 1.8 7.2 3 10.7-5.3 4-9.9 9.3-14.9 13.2-7.3 5.8-15.9 9.5-24.7 12.6-8.1 2.9-16.2 5.2-17.9 15-.9 5.1 1 10.9 5.4 13.6 1.3.8 2.8 1.3 4.3 1.7 7.2 1.8 15.5-1.8 22.4-3.9 7.1-2.2 14.1-4.3 21.2-6.6 8.8-2.9 17.9-5.8 25.9-10.6 1.8-1.1 3.5-2.3 5.2-3.5 6-4.6 7.3-7.6 9.1-13.9 2.3-8.2 4-15.5 3.9-25.2.2-2.1.3-4.2.3-6.3.8-31.5-3.1-62.7-8.5-93.6z" fill="#79afff"/><path d="M663.7 733c-2.7 6.6-6.7 12.3-11.3 17.7 3.2-1.4 2.8-1.8 5.8-3.6 1.8-1.1 3.5-2.3 5.2-3.5 6-4.6 7.3-7.6 9.1-13.9 2.3-8.2 4-15.5 3.9-25.2.2-2.1.3-4.2.3-6.3.9-31.3-3.1-62.5-8.4-93.4l-16.7 5.2c2.6 14.5 11.2 27.4 15.3 41.6 4.9 16.7 3.6 34.6 2.3 52-.8 9.8-1.7 20-5.5 29.4z" fill="#0063cc"/><path d="M541.7 753c-1.5-6.4-3.7-8.3-9-11.8-26.4-17.4-34.2-28.2-43.1-32.4l.6-4.8c2.5-22.4 3.8-45 4-67.6 0-3.9-.1-8.5.7-13.6l-47.5-8.9c-.2 31 1 62.1 3.4 93.1.1 1.8.3 3.6.5 5.3.3 8.9 1.5 18 7.1 24.7 2 2.5 4.5 4.5 7.1 6.3 11.3 8.1 20.8 11 32.5 14.4 36 10.4 34.9 10.3 36.4 10.3 3.3.2 6.2-2.4 7.4-5.4 1-3 .6-6.4-.1-9.6z" fill="#79afff"/><path d="M475.2 733.1c-3.1-1.3-6.1-2.9-8.3-5.4-3.2-3.7-4-8.9-4.7-13.8-2.6-18.8-5.2-38.1-.9-56.5 2.2-9.6 6.2-19 6.1-28.9 0-3.7-.7-7.4-1.6-11l-16.1-3c-.2 44.1 2.7 87.9 3.9 98.4.3 8.9 1.5 18 7.1 24.7 2 2.5 4.5 4.5 7.1 6.3 11.3 8.1 20.8 11 32.5 14.4 36 10.4 32.5 9.8 34 9.9 3.3.2 6.2-2.4 7.4-5.4 1.1-3.1.8-6.5.1-9.6-1.3-5.7-3.2-7.8-7.3-10.7-.5-.1-1.1-.1-1.6-.2-19.5-2.1-39.7-1.7-57.7-9.2z" fill="#0063cc"/><path d="M598.4 497.6c-.7 1.6-1 3.3-1.4 5-1.4 6.2-4.6 11.9-7.9 17.4-2.1 3.5-4.4 7-7.4 9.8l-.7.7c-1.1 6-2.2 12.1-3.3 18.1-.7 3.6-1.4 7.4-3.1 10.6-1.3 2.4-3.2 4.4-5 6.5-.6.7-1.2 1.3-1.8 2 1.2-.6 2.4-1.3 3.6-2 4.7-2.8 9.2-5.9 13.5-9.3 1.7-1.3 3.3-2.7 4.6-4.4 1.8-2.4 2.7-5.4 3.6-8.3 4.7-16.1 8-32.6 9.8-49.2l-.7-.3c-1.8.4-3.1 1.8-3.8 3.4zM646.6 797.6H477.5c-5.5 0-10.1-4.1-10.5-9.1l-6.2-96.7c-.4-5.9 4.1-10.7 10.1-10.7h184.9c6 0 10.4 4.8 9.9 10.7l-8.4 96.7c-.5 5-5.3 9.1-10.7 9.1z" fill="#c7d4ff"/><path d="M646.6 801.7H477.5c-5.5 0-10.1-4.1-10.5-9.1l-6.2-96.7c-.4-5.9 4.1-10.7 10.1-10.7h184.9c6 0 10.4 4.8 9.9 10.7l-8.4 96.7c-.5 5-5.3 9.1-10.7 9.1z" fill="#fff"/><path d="M556.8 744c-1.2-.9-2.6-2-3.6-2.8v.1c-1.7 3.2-1.5 6.7 0 9.4l3.6-2.8c-.5-1.3-.5-2.6 0-3.9z" fill-rule="evenodd" clip-rule="evenodd" fill="#fbbc05"/><path d="M562.9 744.1v4.1h5.9c-.3 1.3-1.1 2.4-2.2 3.1l3.5 2.6c2.8-2.4 3.8-6.3 3.2-9.8h-10.4z" fill-rule="evenodd" clip-rule="evenodd" fill="#4285f4"/><path d="M553.2 741.2c1 .8 2.4 1.9 3.6 2.8.9-2.5 3.3-4.4 6.2-4.4 1.6 0 3.1.5 4.2 1.6l3.2-3c-5.2-4.7-13.9-3.2-17.2 3z" fill="#ea4335"/><path d="M562.8 752.3c-2.8 0-5.2-1.8-6.1-4.3l-3.6 2.8c1.7 3.3 5.3 5.7 9.7 5.7 2.9 0 5.4-.9 7.2-2.5l-3.5-2.6c-.9.5-2.2.9-3.7.9z" fill-rule="evenodd" clip-rule="evenodd" fill="#34a853"/><g><path d="M543.5 519.2c5 .7 10 1.6 15 1.5 1 0 1-1.6 0-1.5-5 .1-10-.8-15-1.5-1-.2-1 1.3 0 1.5z" fill="#4285f4"/></g></g></svg>