<svg xmlns="http://www.w3.org/2000/svg" viewBox="0 0 1000 1000"><path d="M146.5 210.3c-18.2 0-35.1 5.2-49.4 14.2H97c-4.1 2.6-8 5.5-11.7 8.7l-5.4 4 .5.6c-16.7 16.8-27 40-27 65.5 0 74.1 55.9 140.5 81.1 166.7l1.1 20.2 10.8-8.5h.1s.2-.2.7-.6c8.4-7.7 92.4-87.1 92.4-177.8-.1-51.3-41.7-93-93.1-93z" fill="#c7d4ff"/><path d="M135.6 218.8c-51.4 0-93.1 41.7-93.1 93.1 0 95.6 93.1 178.4 93.1 178.4s93.1-82.9 93.1-178.4c0-51.5-41.7-93.1-93.1-93.1z" fill="#053d69"/><circle cx="135.6" cy="311.8" r="46.3" fill="#ea4335"/><path d="M290.8 116.5c-13.3 0-24 10.8-24 24 0 24.7 24 46.1 24 46.1s24-21.4 24-46.1c0-13.3-10.8-24-24-24z" fill="#c7d4ff"/><path d="M288.9 118.4c-13.3 0-24 10.8-24 24 0 24.7 24 46.1 24 46.1s24-21.4 24-46.1c.1-13.2-10.7-24-24-24z" fill="#053d69"/><circle cx="288.9" cy="142.5" r="12" fill="#4285f4"/><g><path d="M474.3 138.7c-19.7 0-35.7 16-35.7 35.7 0 36.6 35.7 68.4 35.7 68.4S510 211 510 174.4c0-19.8-16-35.7-35.7-35.7z" fill="#c7d4ff"/><path d="M471.5 141.9c-19.7 0-35.7 16-35.7 35.7 0 36.6 35.7 68.4 35.7 68.4s35.7-31.8 35.7-68.4c0-19.7-16-35.7-35.7-35.7z" fill="#053d69"/><circle cx="471.5" cy="177.6" r="17.7" fill="#fbbc05"/></g><g><path d="M847.5 37.8c-8.5 0-15.4 6.9-15.4 15.4 0 15.8 15.4 29.5 15.4 29.5s15.4-13.7 15.4-29.5c0-8.5-6.9-15.4-15.4-15.4z" fill="#053d69"/><circle cx="847.5" cy="53.2" r="7.7" fill="#4285f4"/></g><g><path d="M853.9 135.3c-31 0-56.2 25.2-56.2 56.2 0 57.7 56.2 107.7 56.2 107.7s56.2-50 56.2-107.7c0-31-25.2-56.2-56.2-56.2z" fill="#c7d4ff"/><path d="M852 141.3c-31 0-56.2 25.2-56.2 56.2 0 57.7 56.2 107.7 56.2 107.7s56.2-50 56.2-107.7c-.1-31.1-25.2-56.2-56.2-56.2z" fill="#053d69"/><circle cx="852" cy="197.4" r="27.9" fill="#34a853"/></g></svg>