<svg xmlns="http://www.w3.org/2000/svg" viewBox="0 0 1000 1000"><path d="M392.8 122.9s-5.7-12.3 1.9-10.4-1.9 10.4-1.9 10.4z" fill="#223f6c"/><path fill="none" stroke="#2a4f83" stroke-width="2" stroke-miterlimit="10" d="M305.6 127l27-125.1M433.5 134.1L401.4 0"/><path d="M316.5 131.7s-3.3-4.1 0-5c3.3-.9-.6-4.1 1.2-5.1 1.8-1 2.6-6.1 4.5-5.6 2 .5-2.2-4.6 3.4-2.8 5.6 1.9 8.2 6.4 8.2 6.4s2-7.5 6.2-4.7 3.3 4.5 3.3 4.5.1-4.6 3.7-3.2c3.6 1.4 3.9 3.6 3.9 3.6s-1.3-6.3 2.9-3.8 3 5.3 3 5.3 2.4-4.2 6.1-2.8c3.6 1.4 3.9 3.2 3.9 3.2s-.3-4.9 4.3-4.4 4.9 5 4.9 5 2.2-8.3 6.8-5.6c4.6 2.8 2.6 5 2.6 5s.3-3.5 4.1-3.3c3.8.2 5.5 3.8 5.5 3.8s-1-9.8 2.9-9.2 4.1 1.7 4.1 1.7-7.6-13-2.6-12.6c5 .4 7.7 8.8 7.7 8.8s1.5-5.2 4.8-1.1 1.6 5.5 1.6 5.5 4.6-7.5 6.8-3.3c2.1 4.3 1.6 5.9 1.6 5.9s3.2-3.9 5.3-.4c2 3.5 1 4.1 1 4.1s-2.7 5.3-6.2 4.7c-3.5-.6-2.1 6.4-6 5.8-3.9-.6-13-2.7-13-2.7s-.2 11.8-6.7 9c-6.5-2.9-13.8-5.6-13.8-5.6s.1 3-3.7.9c-3.7-2.1-11.1-.7-10.9-1.9s-17.4 5.9-17.1 2.8-8.3.4-9.1-2.1c-.7-2.6-13.4 2.3-14.9-.5-1.5-2.7-10.3-.3-10.3-.3z" fill="#032a4a"/><g fill="#032a4a"><path d="M429.3 118s.5 5.3 3.4 3.7 3.2-4.8.5-5c-2.6-.3-4.2 0-4.2 0l.3 1.3zM430.1 128.9s-2.6 3.4 1.1 4.5 5 .3 4.5-1.3c-.6-1.6-3-4.3-5.6-3.2zM431.9 138.6s1.6-5.6 4.8-2.4c3.2 3.2 4 4.8.8 5-3.2.4-6.9-.2-5.6-2.6zM432.4 143.4s-5.6 1.6-4 4.2c1.6 2.6 5 3.2 5.6.3s-1.6-4.5-1.6-4.5zM434 149.5s1.1 4 2.6 2.1c1.6-1.9 3.2-3.2.3-3.2s-2.9 1.1-2.9 1.1zM429.5 256s1.1 4 2.6 2.1c1.6-1.9 3.2-3.2.3-3.2s-2.9 1.1-2.9 1.1zM430.9 222.7s1.1 4 2.6 2.1c1.6-1.9 3.2-3.2.3-3.2s-2.9 1.1-2.9 1.1zM431.7 153.7s-1.9 3.2 1.1 4c2.9.8 4.8.5 3.7-1.9-1.1-2.3-3.3-4.2-4.8-2.1zM431.9 162.2s1.6-4 4.2-3.2c2.7.8 1.1 5.3-4.2 3.2zM425.6 221.6s1.6-4 4.2-3.2c2.6.9 1.1 5.4-4.2 3.2zM424.5 238s1.6-4 4.2-3.2c2.7.9 1.1 5.4-4.2 3.2zM431.9 164.6s-5.2 4.6-2.9 6.4c2.4 1.9 8.7-3 7.9-4.6-.8-1.6-5-1.8-5-1.8zM430.9 208.2s-3.4 2.4-1.1 4.2 6.9-.8 6.1-2.4c-.8-1.6-5-1.8-5-1.8z"/><path d="M428.2 238.3s-3.4 2.4-1.1 4.2c2.4 1.9 6.9-.8 6.1-2.4-.8-1.5-5-1.8-5-1.8zM434 171.7s3.7 3.7 1.6 4.2-4.2-2.1-1.6-4.2zM432.7 177.5s0 8.2 3.7 7.4c3.7-.8 6.1-4.5 3.7-6.1-2.4-1.6-7.4-2.4-7.4-1.3zM427.1 182.3s0 12.3 5.4 5.2c1.7-2.3-2.3-7.5-5.4-5.2zM427.4 201.3s2.6 7.4 4 4.8c1.3-2.7-.8-7.2-4-4.8zM433.8 189.4s2.6-1.6 3.7.3c2.6 4.3-2.6 8.7-5.3 6.3-2.7-2.4.5-7.1 1.6-6.6z"/><path d="M428.4 121.3s3.3 16.3 5.6 23.9c2.4 7.7-.8 67.7-2.4 76.4-1.6 8.7-4.5 37.5 2.9 44.7 0 0-8.2-4-6.9-19.8s7.1-70 5.8-87.8-4.1-20.6-4.1-26.4c0-5.8-10.7-4.3-10.7-4.3"/></g><g fill="#032a4a"><path d="M329.2 122.8s-.5 5.3-3.4 3.7c-2.9-1.6-3.2-4.8-.5-5 2.6-.3 4.2 0 4.2 0l-.3 1.3zM328.4 133.6s2.6 3.4-1.1 4.5-5 .3-4.5-1.3c.6-1.6 3-4.2 5.6-3.2zM326.6 143.4s-1.6-5.6-4.8-2.4c-3.2 3.2-4 4.8-.8 5 3.2.3 6.9-.2 5.6-2.6zM326 148.1s5.6 1.6 4 4.2c-1.6 2.6-5 3.2-5.6.3s1.6-4.5 1.6-4.5zM324.5 154.2s-1.1 4-2.6 2.1c-1.6-1.9-3.2-3.2-.3-3.2s2.9 1.1 2.9 1.1zM328.9 260.8s-1.1 4-2.6 2.1c-1.6-1.9-3.2-3.2-.3-3.2s2.9 1.1 2.9 1.1zM327.6 227.4s-1.1 4-2.6 2.1-3.2-3.2-.3-3.2c2.9.1 2.9 1.1 2.9 1.1zM326.8 158.5s1.9 3.2-1.1 4c-2.9.8-4.8.5-3.7-1.9 1.1-2.4 3.2-4.3 4.8-2.1zM326.6 166.9s-1.6-4-4.2-3.2c-2.7.8-1.1 5.3 4.2 3.2zM332.9 226.4s-1.6-4-4.2-3.2c-2.7.8-1.1 5.3 4.2 3.2zM334 242.8s-1.6-4-4.2-3.2c-2.7.8-1.1 5.3 4.2 3.2zM328.4 168.3s1.6 3.3-.8 5.2c-2.4 1.9-6.9-.8-6.1-2.4.8-1.5 6.9-2.8 6.9-2.8zM327.6 212.9s3.4 2.4 1.1 4.2-6.9-.8-6.1-2.4c.8-1.5 5-1.8 5-1.8z"/><path d="M330.3 243s3.4 2.4 1.1 4.2c-2.4 1.9-6.9-.8-6.1-2.4.7-1.5 5-1.8 5-1.8zM324.5 176.4s-3.7 3.7-1.6 4.2c2.1.6 4.2-2.1 1.6-4.2zM325.8 182.2s0 8.2-3.7 7.4c-3.7-.8-6.1-4.5-3.7-6.1 2.4-1.5 7.4-2.3 7.4-1.3zM330 187.5s-2.6 7.4-4 4.8c-1.3-2.7.8-7.1 4-4.8zM331.1 206s-2.6 7.4-4 4.8c-1.3-2.7.8-7.1 4-4.8zM324.7 194.1s-3.4-1.9-3.7.3c-.3 2.1 2.6 8.7 5.3 6.3 2.6-2.3-.5-7.1-1.6-6.6z"/><path d="M327.9 122.8s-1.1 19.6-3.4 27.2c-2.4 7.7.8 67.7 2.4 76.4 1.6 8.7 4.5 37.5-2.9 44.7 0 0 8.2-4 6.9-19.8-1.3-15.9-7.1-70-5.8-87.8s5-30.9 5-36.7c0-5.8.5-8.9.5-8.9"/></g><g fill="#032a4a"><path d="M409.5 239s-1.1 4-2.6 2.1c-1.6-1.9-3.2-3.2-.3-3.2s2.9 1.1 2.9 1.1zM408.2 205.6s-1.1 4-2.6 2.1c-1.6-1.9-3.2-3.2-.3-3.2s2.9 1.1 2.9 1.1zM407.4 136.7s1.9 3.2-1.1 4-4.8.5-3.7-1.9c1.1-2.4 3.2-4.3 4.8-2.1zM407.1 145.1s-1.6-4-4.2-3.2c-2.6.8-1.1 5.3 4.2 3.2zM413.5 204.6s-1.6-4-4.2-3.2c-2.7.8-1.1 5.3 4.2 3.2zM414.5 221s-1.6-4-4.2-3.2c-2.6.8-1.1 5.3 4.2 3.2zM407.1 147.5s3.4 2.4 1.1 4.2c-2.4 1.9-6.9-.8-6.1-2.4.8-1.5 5-1.8 5-1.8zM408.2 191.1s3.4 2.4 1.1 4.2c-2.4 1.9-6.9-.8-6.1-2.4.8-1.5 5-1.8 5-1.8z"/><path d="M410.8 221.2s3.4 2.4 1.1 4.2c-2.4 1.9-6.9-.8-6.1-2.4.8-1.5 5-1.8 5-1.8zM405 154.6s-3.7 3.7-1.6 4.2c2.1.6 4.3-2.1 1.6-4.2zM406.3 160.4s0 8.2-3.7 7.4c-3.7-.8-6.1-4.5-3.7-6.1 2.4-1.5 7.4-2.3 7.4-1.3zM410.6 165.7s-2.6 7.4-4 4.8c-1.3-2.7.8-7.1 4-4.8zM411.6 184.2s-2.6 7.4-4 4.8c-1.3-2.6.9-7.1 4-4.8zM405.3 172.3s-3.4-1.9-3.7.3 2.6 8.7 5.3 6.3c2.6-2.3-.6-7.1-1.6-6.6z"/><path d="M407.4 204.6c1.6 8.7 5 37.4-2.9 44.7 0 0 8.2-4 6.9-19.8s-5.9-69.1-4.6-86.8"/></g><path d="M302.7 127h130.8s-6.8 57.7-54 61.1c-76.3 5.7-76.8-61.1-76.8-61.1z" fill="#223f6c"/><path d="M414.1 132.7s-7.7 40.7-33.3 53c0 0 38.3-.7 47.3-53.7l-14 .7z" fill="#3bbcf4"/><path d="M409.2 113.5s-5.7-12.3 1.9-10.4c7.6 1.9-1.9 10.4-1.9 10.4z" fill="#223f6c"/><path d="M357.4 121.9s-4.4-9.6 1.5-8.1-1.5 8.1-1.5 8.1zM334.2 119.5s-8.2-6.9-2.2-8.1 2.2 8.1 2.2 8.1zM413.4 118.5s-4.1-9.5 1.6-7.9-1.6 7.9-1.6 7.9z" fill="#3bbcf4"/><path d="M350 116.1s-5.4-12.5 2.2-10.4-2.2 10.4-2.2 10.4z" fill="#223f6c"/><g fill="#032a4a"><path d="M353.7 129.3s-2.1 8.3-5 6.7-2.3-9.4.3-9.7c2.6-.3 4.9 1.7 4.9 1.7l-.2 1.3zM352.9 140.1s2.6 3.4-1.1 4.5-5 .3-4.5-1.3c.6-1.6 3-4.2 5.6-3.2zM351.1 149.9s-4.2-6.1-7.3-2.9c-3.2 3.2-1.4 5.3 1.8 5.6 3.1.2 6.8-.3 5.5-2.7zM350.5 154.7s9.1 3 7.5 5.6c-1.6 2.6-8.6 1.8-9.1-1.2-.5-2.8 1.6-4.4 1.6-4.4zM348.9 160.8s-2.6 4.8-4.2 2.9-1.6-4 1.3-4 2.9 1.1 2.9 1.1zM353.4 267.3s-1.1 4-2.6 2.1c-1.6-1.9-3.2-3.2-.3-3.2 2.9 0 2.9 1.1 2.9 1.1zM352.1 234s-1.1 4-2.6 2.1-3.2-3.2-.3-3.2c2.9 0 2.9 1.1 2.9 1.1zM351.3 165s1.9 3.2-1.1 4-4.8.5-3.7-1.9c1.1-2.4 3.2-4.2 4.8-2.1zM351.1 173.5s-1.6-4-4.2-3.2c-2.7.8-1.1 5.3 4.2 3.2zM357.4 232.9s-1.6-4-4.2-3.2-1.1 5.3 4.2 3.2zM358.5 249.3s-1.6-4-4.2-3.2c-2.7.8-1.1 5.3 4.2 3.2zM351.1 175.8s6 3 3.7 4.8c-2.4 1.9-9.5-1.4-8.7-3 .7-1.5 5-1.8 5-1.8zM352.1 219.4s3.4 2.4 1.1 4.2c-2.4 1.9-6.9-.8-6.1-2.4.8-1.5 5-1.8 5-1.8z"/><path d="M354.8 249.6s3.4 2.4 1.1 4.2-6.9-.8-6.1-2.4c.7-1.6 5-1.8 5-1.8zM348.9 183s-3.7 3.7-1.6 4.2c2.2.5 4.3-2.1 1.6-4.2zM350.3 188.8s0 8.2-3.7 7.4-6.1-4.5-3.7-6.1c2.3-1.6 7.4-2.4 7.4-1.3zM354.5 194.1s-2.6 7.4-4 4.8c-1.3-2.7.8-7.2 4-4.8zM355.6 212.6s-2.6 7.4-4 4.8c-1.3-2.7.8-7.2 4-4.8zM349.2 200.7s-3.4-1.9-3.7.3c-.3 2.1 2.6 8.7 5.3 6.3 2.6-2.4-.5-7.1-1.6-6.6z"/><path d="M352.4 129.3s-1.1 19.6-3.4 27.2c-2.4 7.7.8 67.7 2.4 76.4 1.6 8.7 4.5 37.5-2.9 44.7 0 0 8.2-4 6.9-19.8s-7.1-70-5.8-87.8 5-30.9 5-36.7c0-5.8.8-13.5.8-13.5"/></g><circle cx="327.4" cy="219.3" r="11.3" fill="#223f6c"/><circle cx="354.2" cy="249.8" r="11.8" fill="#3bbcf4"/><circle cx="435.2" cy="183.4" r="13" fill="#ffb700"/><circle cx="327.7" cy="263.7" r="4.5" fill="#223f6c"/><path d="M440 182.8h-.7v-3c0-2.4-1.9-4.3-4.3-4.3s-4.3 1.9-4.3 4.3v3h-.7c-.7 0-.7.7-.7.7v5.9s0 .7.7.7h9.8c.7 0 .7-.7.7-.7v-5.9c.2 0 .2-.7-.5-.7zm-2.6 0h-4.6v-3c0-1.3 1-2.3 2.3-2.3s2.3 1 2.3 2.3v3z" fill="#223f6c"/><path fill="#ffb700" d="M334.1 215.2l-13.9 2.9 2.9 2.3 6.9-2.9-5.2 4v2.9l1.6-1.6 1.3 1z"/><g><circle cx="409.5" cy="204.5" r="9.4" fill="#2a4f83"/><g fill="none" stroke="#f4e1d7" stroke-width="2" stroke-linecap="round" stroke-miterlimit="10"><path d="M409.6 200.3v7.7M413.4 204.2h-7.7"/></g></g><g><circle cx="430.5" cy="245.1" r="11.5" fill="#dcd8cb"/><path d="M435.4 249.9h-10.2c-.5 0-.9-.4-.9-.9v-5.2c0-.5.4-.9.9-.9s.9.4.9.9v4.3h8.4v-4.3c0-.5.4-.9.9-.9s.9.4.9.9v5.2c0 .5-.4.9-.9.9zM432.5 242.8c-.2 0-.5-.1-.6-.3l-1.5-1.5-1.5 1.5c-.3.3-.9.3-1.3 0-.3-.3-.3-.9 0-1.3l2.2-2.2c.3-.3.9-.3 1.3 0l2.2 2.2c.3.3.3.9 0 1.3-.3.2-.5.3-.8.3z" fill="#032a4a"/><path d="M430.4 245.6c-.4 0-.8-.4-.8-.8v-4.9c0-.4.4-.8.8-.8s.8.4.8.8v4.9c0 .4-.4.8-.8.8z" fill="#032a4a"/></g><path d="M422.9 185.4s19.7 5.3 23.1-9.6c0 0 5.2 12.8-4.7 18-13.2 6.9-18.4-8.4-18.4-8.4z" opacity=".4" fill="#5e360b"/><path d="M346.5 257.8s14.7-.4 17.5-12.9c0 0 4.4 10.7-3.9 15.1-11.2 5.9-13.6-2.2-13.6-2.2z" opacity=".3" fill="#223f6c"/><path fill="#032a4a" d="M359.4 244.9l-6.5 6.4-3.2-3.3-1.7 1.7 4.9 4.9 8.1-8.1z"/><path fill="#3bbcf4" d="M388 126.8l44-1 1 2z"/><g><ellipse cx="549.5" cy="893.2" rx="47.5" ry="12.3" opacity=".6" fill="#223f6c"/><path d="M537 818.5s-13 60-10 69 7 16 31 17c22.1.9 34-5 34-26 0-11-12-61-12-61l-43 1z" fill="#27b"/><ellipse cx="558" cy="818.5" rx="22" ry="5" fill="#032a4a"/><path d="M554 821.5s-11 59 35 72c0 0-5 10-25 11s-41 1-37-32l9-54 18 3z" opacity=".8" fill="#052b49"/><path d="M548 819.5l-35.6-87.7c-.7-1.8-2.8-2.6-4.6-1.7-1.6.8-4.3 2.6-3.6 4.3l34.8 85.1h9z" fill="#032a4a"/><circle cx="525.5" cy="773" r="6.5" fill="#3bbcf4"/><path d="M557 815.5l-33.6-119.2c-.7-2.4-3.5-3.6-5.7-2.3-1.6.9-2.3 2.7-1.8 4.5l34.6 119.1 6.5-2.1z" fill="#032a4a"/><path d="M562.2 818.5l18.3-73.5c.4-2.1 2.4-3.5 4.6-3.2 2.3.4 3.8 2.5 3.3 4.8L571 819l-8.8-.5z" fill="#3bbcf4"/><circle cx="576" cy="780.5" r="6.5" fill="#032a4a" stroke="#69aae1" stroke-miterlimit="10"/><circle cx="528" cy="725" r="6.5" fill="#3bbcf4"/><path fill="#dcd8cb" d="M532.7 728.1l25 88-.7-.6-24.3-85.4z"/><g><ellipse cx="676.3" cy="902.6" rx="79.5" ry="20.5" opacity=".6" fill="#223f6c"/><path d="M604.8 784.6l28 119s26 15 63 11 46-14 46-14l24-118s-64 19-161 2z" fill="#032a4a"/><path d="M631.5 783.3s-36.7-17.3-32-86.7c0 0 34.7 54.7 44 88l-12-1.3zM665.5 784s-30.7-44-35.3-72c-4.7-28 9.3-44.7 9.3-44.7l31.3 117.3-5.3-.6z" fill="#031826"/><path d="M670.8 764s-22.7-29.3-18.7-75.3c0 0 26.7 36.7 29.3 70l-10.6 5.3z" fill="#031826"/><path d="M674.2 781.3s-28-48 24.7-128.7c0 0 8 80.7-12.7 131.3l-12-2.6z" fill="#031826"/><path d="M699.2 650.3s6 37.3.7 56l-3.3 8.7" fill="#3bbcf4"/><path d="M712.2 782.6s-6-31.3 4-42.7c10-11.3 53.3-51.3 55.3-74 0 0-2.7 64.7-40 113.3 0 .1-8.7 6.1-19.3 3.4z" fill="#032a4a"/><path d="M731.5 779.3s4.7-31.3 20-39.3 32-22 32-22-12 53.3-43.3 62.7l-8.7-1.4z" fill="#032a4a"/><path d="M649.8 768.6l-23-43.3s-4.8 13.1 0 18.3c10 11 8 16 23 25z" fill="#031826"/><path d="M639.8 670.6s-19.5 34 43 116l-13 3s-64.7-69.7-30.3-122.3" fill="#2a4f83"/><path d="M672.8 715.1s3.2-31.7-23.8-47.7c0 0 28.8-12.8 32.8 24.2M686.3 784.1s3.2-70.2 24.5-93.5c21.3-23.3 31.3-46.7 31.3-46.7s1.2 101.2-37.3 140.7l-18.7-.7.2.2z" fill="#031826"/><path d="M729.8 695.6s0 55.5-29.7 91.5l-13.8 1.5" fill="#223f6c"/><path d="M685.8 677.6l-9-26s27-10.7 22-39c0 0-9 32-25 33 0 0-10-26-3-42 0 0 13-13 20-15l1-6-22 14s12-57-10-71l-6 3s23 7 8 65c0 0-8-28-24-33l-4 3s17 1 27 49c0 0 5 51 21 74" fill="#031826"/><circle cx="587.8" cy="482.6" r="11.7" fill="#3bbcf4"/><g fill="#031826"><path d="M589.143 475.3l6.092 4.022-.881 1.336-6.093-4.022zM589.7 487.8l-6.1-4 1.4-2.2 4.2.2 1.9 3.8z"/><path d="M585.747 483.576l4.408-6.677 3.338 2.204-4.407 6.677z"/><path d="M584.1 490.8l-1.1.6v-1.3l4.5-6.8 1.1.7z"/></g><path d="M584.8 472.3s-4.6 17.8 8.7 20.7c0 0-9.7 5.9-15.2-2.5-7.3-11 6.5-18.2 6.5-18.2z" opacity=".4" fill="#031826"/><path d="M590.8 441.6s-2.7 37 56.3 56l-3.6 3.5s-48.4-10.2-56.7-55.5" fill="#031826"/><path d="M602.2 476.6s17.7-4.3 17.7-23.3l2.7.3s-1.3 21-16.3 24" fill="#031826"/><circle cx="652.3" cy="511.1" r="18.5" fill="#ffb700"/><path d="M647.1 492.9s15.2-3.1 21.9 9.8c6.7 12.9-5.2 23.5-8.3 24.8 0 0 7.8-17.8-7.7-27.3 0 0-8.5-4.1-16.2.5-.1 0 3.6-5.9 10.3-7.8z" opacity=".9" fill="#fdf6e4"/><path d="M661.8 502.2h-19.2c-.5 0-1 .4-1 1v2.9c0 .5.4 1 1 1s1-.4 1-1v-1.9h7.6v17.1h-1.4c-.5 0-1 .4-1 1 0 .5.4 1 1 1h4.8c.5 0 1-.4 1-1 0-.5-.4-1-1-1h-1.4v-17.1h7.6v1.9c0 .5.4 1 1 1 .5 0 1-.4 1-1v-2.9c0-.5-.5-1-1-1z" fill="#032a4a" stroke="#032a4a" stroke-miterlimit="10"/><path d="M659.8 525.6s13 6 14.3 26.3c1.3 20.3-4.3 44.7-4.3 44.7l-1.3-.3s6.3-27.7 3.3-49.7c0 0-.6-11.3-12-21z" fill="#e8e6e2"/><path d="M674.2 552s15.7-7.3 19-20.3l-.7-.7s-3.3 11-18.7 19.3" fill="#5395c5"/><path d="M671.8 546.6s18.3-8.3 20.7-15.7c0 0-3.7 15-21 22.3" fill="#031826"/><path d="M609.5 477s9.3 9.7 21.7 14.3c0 0-14-5.7-22.7-13.3l1-1zM622.1 453.5s-.3 13.8-8.9 19.8c0 0 5.5-5.9 8.9-19.8z" fill="#e8e6e2"/><path d="M692.5 739s5.3-36.7 20.7-51.3c15.3-14.7 28-41.3 28-41.3s-4 27.3-31.3 54.7c-.1-.1-10.7 11.2-17.4 37.9z" fill="#5093c3"/><path d="M771.5 666s3.7 29.7-17 67.7c0 0 11.3-40 10.7-50l6.3-17.7z" fill="#3bbcf4"/><path d="M731.2 695s2 24.7-17.3 70c0 0 12.7-48.7 9.3-52.7l8-17.3z" fill="#5093c3"/><path d="M670.8 603.6s-5 28 3 42l-2 1.3c0 .1-9.3-24.6-1-43.3z" fill="#e8e6e2"/><path d="M783.5 718s-6.7 36.7-27.7 50.7l27.7-50.7z" fill="#5093c3"/><ellipse cx="685.8" cy="783.3" rx="79.3" ry="11.3" fill="#031826"/><path d="M701.3 615.1s0 25.5-19.5 32c0 0 17.5-7.5 17-34.5" fill="#5395c5"/><path d="M642.8 562.6s17 7.3 18 24.5c0 0-8-20-18.5-23.5" fill="#e8e6e2"/><circle cx="698.8" cy="540" r="3.4" opacity=".5" fill="#4a8acb"/><circle cx="694.5" cy="527.3" r="4.7" opacity=".7" fill="#3bbcf4"/><path d="M617.2 837.1s-.6 7.1 35.5 11.7c34.9 4.4 93.8 3.3 101.3-6.3l-2.7 11.5s-1.7.5-11.8 3.3c-20.3 5.7-98.3 8.6-119.7-9.2l-2.6-11z" fill="#223f6c"/><path d="M613.8 777.6s-14 0-10 6 53 14.5 112 12c48.3-2 64-11 43-19 0 0 13 12-69 13-46 .6-90-4-76-12z" fill="#0d77be"/><path d="M750.8 723.6s-4 37-21 59h-10.5l31.5-59z" fill="#3bbcf4"/><g><circle cx="630.3" cy="555.8" r="21.5" fill="#ffb700"/><path fill="#031826" d="M623.4 545v23.1l18.7-12.1z"/><path d="M625.6 536.5s16-3.2 23 10.3-5.5 24.6-8.7 26c0 0 8.2-18.7-8-28.7 0 0-8.9-4.3-17 .5-.1 0 3.6-6.2 10.7-8.1z" opacity=".9" fill="#fdf6e4"/></g><path d="M605.5 427.7c0 11.4-9.2 20.6-20.6 20.6s-20.6-9.2-20.6-20.6c0-11.4 9.2-20.6 20.6-20.6 12.5-.1 20.6 9.2 20.6 20.6z" fill="#ffb700"/><path d="M592.1 417.7h-18.8c-1.7 0-3.1 1.4-3.1 3.1v12.5c0 1.7 1.4 3.1 3.1 3.1h11.3l2.4 3.6 2.2-3.6h2.8c1.7 0 3.1-1.4 3.1-3.1v-12.5c.1-1.7-1.3-3.1-3-3.1zm-2.1 14.6h-15.6v-1c0-.6.5-1 1-1H590c.6 0 1 .5 1 1 0 .6-.4 1-1 1zm0-4.1h-14.6c-.6 0-1-.5-1-1 0-.6.5-1 1-1H590c.6 0 1 .5 1 1s-.4 1-1 1zm0-4.2h-14.6c-.6 0-1-.5-1-1 0-.6.5-1 1-1H590c.6 0 1 .5 1 1s-.4 1-1 1zM631.8 782.6s-30-32-52-33c0 0 24.3 39.3 51.7 33.7" fill="#031826"/><g fill="#3a669b"><path d="M646 784.5s-29.2-22.1-22.5-57.5c0 0 31.5 28.3 43.5 59l-21-1.5z"/><path d="M667.2 786.6s-20-43 2.3-81.9c0 0 24 47.5 19.5 82"/><path d="M662.2 748.6l5 36 21-1s3-20-4-39"/></g><g><path d="M669.3 704.3s12 24.2 15.3 44.2l-16.2-39.8.9-4.4z" fill="#3bbcf4"/><path d="M669.2 706.6s-2.5 73.2 16 82.7h-19.3c-.1 0-17.6-61.7 3.3-82.7z" fill="#223f6c"/></g><circle cx="623" cy="449.1" r="7" fill="#5093c3"/><g><path d="M838.3 643.8s-1.3 7.7 12.7 23.3l-1 3.7s-10.3-7.7-14.3-25.7" fill="#032a4a"/><ellipse cx="811.7" cy="914.7" rx="41.5" ry="10.8" opacity=".4" fill="#032a4a"/><path d="M773 848.7l3.3 57c.2 3.7 2.4 7 5.7 8.7 8.2 4.2 25 10.7 43.5 7.1 22.6-4.4 21.5-7 22.1-14l6-59.9c.4-3.5-1.2-7-4.2-8.9-11.4-7.4-40-17.3-70-2.3-5.4 2.6-6.7 6.3-6.4 12.3z" fill="#ffb700"/><path d="M775.3 841.3s-6.7-10 0-8.7c6.7 1.3 0-6.7 6.7-6.7s2 7.3 8.7 1.3 5.3-10 8.7-7.3c3.3 2.7.7 7.3 6 4s7.3-8.7 11.3-6.7 3.3 12 6 9.3 4.7-6 7.3-5.3c2.7.7-3.3 7.3 2 7.3s6-6 10-2-4.7 12 0 12.7c4.7.7 4.6-5.6 6.7 1.3.3.9.4 1.8.4 2.6.1 2.8-2.2 4.4-4.3 6.2-6.5 5.3-40.5 15.3-69.5-8z" fill="#032a4a"/><path d="M813 834s-28-23.3-18.7-40c0 0 23.3 8.6 18.7 40z" fill="#032a4a"/><path d="M815.3 827.3s-21.3-76 20-113.3l-8-1.3s-37 38.3-17 111.7" fill="#032a4a"/><path d="M807.6 777s31.7-1 37-23l4-.7s-5.7 26-40.3 29.7" fill="#032a4a"/><path d="M888.5 755h-57.2c-2.7 0-4.8-2.2-4.8-4.8v-8.4c0-2.7 2.2-4.8 4.8-4.8h57.2c2.7 0 4.8 2.2 4.8 4.8v8.4c0 2.6-2.2 4.8-4.8 4.8z" fill="#ffb700"/><path d="M891.2 736.6h-18.5V755h18.5c1.7 0 3-1.2 3-2.7v-12.9c0-1.5-1.3-2.8-3-2.8z" fill="#031826"/><path fill="none" stroke="#f8eacc" stroke-width="2" stroke-miterlimit="10" d="M887.2 743.7l-3.9 3.9-3.9-3.9"/><path fill="#031826" d="M831.3 743.3h29.3v3.3h-29.3z"/><path d="M807.3 679.3S800 722.6 812 744l-2.7 5.3s-10-18-5.3-68.7M832.6 702.6s24.7-30 20-72h3.3s5.3 38-19.3 73.3" fill="#032a4a"/><path d="M825.7 697.5H853c2.4 0 4.6.9 6.4 2.4l8.6 7.6c1 .9 1 2.5 0 3.5l-8.6 7.6c-1.8 1.6-4 2.4-6.4 2.4h-27.3c-1.8 0-3.2-1.5-3.2-3.2v-17c-.1-1.8 1.4-3.3 3.2-3.3z" fill="#3bbcf4"/><circle cx="857" cy="618" r="17" fill="#032a4a"/><circle cx="875.6" cy="654.7" r="10.7" fill="#032a4a"/><path d="M870 658s-9 17-22 22l-3 6s15-6 26-23" fill="#032a4a"/><path d="M823.7 681.3h-27.3c-2.4 0-4.6-.9-6.4-2.4l-8.6-7.6c-1-.9-1-2.5 0-3.5l8.6-7.6c1.8-1.6 4-2.4 6.4-2.4h27.3c1.8 0 3.2 1.5 3.2 3.2v17c.1 1.9-1.4 3.3-3.2 3.3z" fill="#223f6c"/><path d="M857.4 608.3h-8.9v8.9l10.6 10.6 8.9-8.9-10.6-10.6zm-4.5 6.5c-1.1 0-2-.9-2-2s.9-2 2-2 2 .9 2 2-.8 2-2 2z" fill="#3bbcf4"/><circle cx="834.3" cy="641.6" r="7" fill="#0d77be"/><path d="M818.5 862.1l-2.8 56.6c-.1 2.1-1.9 3.7-4 3.5-9.8-.8-34.8-4.1-35.3-17.3l-3.3-59.3c-.1 0 2.7 16.2 45.4 16.5z" fill="#c47312"/><circle cx="834" cy="840.5" r="1.4" opacity=".5" fill="#dcd8cb"/><circle cx="832.5" cy="833.8" r="1.4" fill="#dcd8cb"/><circle cx="820.1" cy="849" r="1.4" opacity=".5" fill="#dcd8cb"/><circle cx="831.5" cy="849.1" r="1.4" opacity=".2" fill="#dcd8cb"/><path d="M811.7 835.5s-2.7-28.8 16.5-34.5c0 0 5.7 18.5-16.5 34.5z" fill="#032a4a"/><path d="M793.6 828.6s2-1.3 5.7-2 4-.3 7.7-1.7c3.7-1.3.3 2.7 3.7 3.7s1-5 4.3-2 .3 5.3 3.3 5.7c3 .3 5.3-.7 5.3 4.7 0 5.3-2.3 6.3-2.3 6.3" fill="#032a4a"/><circle cx="820" cy="839" r="1.4" fill="#dcd8cb"/><path d="M822.2 703.6s-.6-6.6 3.5-6.1 27.3 0 27.3 0 5.2-.9 14.5 9.8l-11-7c-1.1-.7-2.3-1-3.6-1l-24.5-.4c-2.4 0-4.6 1.2-5.7 3.2-.4.6-.5 1.1-.5 1.5zM827.1 663.9s.6-6.6-3.5-6.1-27.3 0-27.3 0-5.2-.9-14.5 9.8l11-7c1.1-.7 2.3-1 3.6-1l24.5-.4c2.4 0 4.6 1.2 5.7 3.2.4.6.5 1.1.5 1.5z" fill="#dcd8cb"/><path d="M792.2 837.6s-1-8 2-7.3c3 .7 3.3 3 3.3 3s-1.3-6 2-5l3.3 1s1-7 4.7-4.7 3.7 5.3 3.7 5.3-4.3-4-5.3-3.7c-1 .3-.3-.7-1 .3s-1 4.7-1 4.7-3.7-3.7-5-1c-1.3 2.7-1.7 5.3-1.7 5.3l-3.7-2.7c-1.3 1.2-1.3 4.8-1.3 4.8z" fill="#2a4f83"/><path d="M857.2 635s2 22.7-6.3 40c0 0 5-14 5.8-40h.5zM807.5 681.6s-5.3 34 0 49c0 0-4.3-27 1.7-49.3l-1.7.3zM819.2 736s-12 21.8-8.7 40.8c0-.1-2.7-13.8 8.7-40.8zM810.5 783l3.2 34-.2 1s-4-23-3.5-35h.5z" fill="#e8e6e2"/></g></g><path d="M851.3 601.3s12.5-5.2 20.5 7c8.4 12.7-3 21.8-3 21.8s8.3-11.9 2.3-20.5c-7.9-11.5-19.8-8.3-19.8-8.3z" fill="#dcd8cb"/><path d="M584.8 407s16.7-1.2 20.5 16.9c2.9 13.9-7.8 20.5-7.8 20.5s9.5-15.2.5-27.5c-7.3-10-13.2-9.9-13.2-9.9z" fill="#f7f6f2"/><g><circle cx="709.8" cy="581.5" r="18.8" fill="#3bbcf4"/><path d="M704.4 563.1s15.2-3.1 21.9 9.8c6.7 12.9-4.1 23.5-7.2 24.7 0 0 6.7-17.8-8.8-27.3 0 0-8.5-4.1-16.2.5 0 .1 3.6-5.9 10.3-7.7z" opacity=".9" fill="#fdf6e4"/><path d="M720.6 573.3l-3.3-3.3s-.2-.2-.7-.2-.6.2-.6.2l-1.6 1.6 4.6 4.6 1.6-1.6s.2-.2.2-.7-.2-.6-.2-.6zm-2.9 4.3l-10.9 10.9-4.6-4.6 10.9-10.9 4.6 4.6zm-12.2 12.2l-4.6-4.6-2.7 6.1c0 .2.6.8.8.8 0-.1 6.5-2.3 6.5-2.3z" fill="#031826"/></g><circle cx="612.2" cy="460" r="2.7" opacity=".5" fill="#4a8acb"/><circle cx="625.5" cy="446.2" r="2.2" fill="#f7f6f2"/><circle cx="697" cy="525.2" r="1.2" fill="#f7f6f2"/><path d="M591.2 448s5 18.3 12 23.7c0 0-10-7.7-13.3-23" fill="#f7f6f2"/></g><g><circle cx="358.8" cy="409.2" r="16.3" fill="#dcd8cb"/><g fill="#223f6c"><path d="M369.4 408.3l-7.4-8.6v17.2z"/><path d="M363.4 404.1s-11.4-.2-14.4 9.9c0 0 4-2.2 14.4-2.2v-7.7z"/></g><path d="M366.8 419c-8 0-14.5-6.5-14.5-14.5 0-2.1.4-4 1.2-5.8-5.3 2.2-9 7.4-9 13.4 0 8 6.5 14.5 14.5 14.5 6 0 11.1-3.6 13.3-8.7-1.7.7-3.6 1.1-5.5 1.1z" opacity=".5" fill="#223f6c"/><circle cx="481.1" cy="395.9" r="12.4" fill="#3bbcf4"/><g fill="#032a4a"><path d="M484.4 390.1h3.4v12h-3.4zM479.3 393.2h3.4v8.9h-3.4zM474.2 396.9h3.4v5.1h-3.4z"/></g><path d="M468.9 398.5s19.7 5.3 23.1-9.6c0 0 5.2 12.8-4.7 18-13.2 7-18.4-8.4-18.4-8.4z" fill="#3d72a3"/><path d="M481.1 383.5s7.6.2 10.6 4.9 1.8 9.5 1.8 9.5 1.5-10.8-12.4-14.4z" fill="#fff"/><circle cx="566.7" cy="277.7" r="10.6" fill="#77bce5"/><circle cx="565.4" cy="278.1" r="10.6" fill="#032a4a"/><g fill="none" stroke="#f2e9e9" stroke-width=".958" stroke-linecap="round" stroke-linejoin="round" stroke-miterlimit="10"><path d="M567 281.5l3-2.9-3-3M563.7 275.6l-3 3 3 2.9"/></g><circle cx="910.3" cy="439.7" r="18" fill="#31caff"/><path d="M906.9 423.4s14-2.9 20.2 9c6.2 11.9-4.8 21.6-7.7 22.8 0 0 7.2-16.4-7.1-25.2 0 0-7.9-3.8-15 .5.1 0 3.5-5.4 9.6-7.1z" opacity=".7" fill="#fdf6e4"/><g fill="#032a4a"><path d="M900.9 430.8h19.5v3h-19.5zM900.9 437.9h19.5v3h-19.5zM900.9 445.1h19.5v3h-19.5z"/></g><circle cx="838.3" cy="470.6" r="12.7" fill="#77bce5"/><circle cx="836.7" cy="471.2" r="12.7" fill="#032a4a"/><g fill="none" stroke="#fff" stroke-linecap="round" stroke-linejoin="round" stroke-miterlimit="10"><path d="M838.8 474.5l3.6-3.6-3.6-3.6M834.8 467.3l-3.5 3.6 3.5 3.6"/></g><circle cx="443.2" cy="865.4" r="15.9" fill="#3bbcf4"/><path d="M440.1 850s12.1-2.5 17.4 7.8-4.1 18.6-6.6 19.6c0 0 9.9-15.2-3.6-23.2 0 0-8.2-3.5-15.3 1.9-.1.1 2.8-4.6 8.1-6.1z" opacity=".9" fill="#fdf6e4"/><g fill="#032a4a"><path d="M443.2 871.7l-4.8-1.7-4.5 1.6 9.3 3.4 9.3-3.4-4.5-1.6zM443.4 865.9l-4.8-1.8-4.5 1.6 9.3 3.4 9.3-3.4-4.5-1.6zM443.2 856.1l-9.3 3.4 9.3 3.4 9.3-3.4z"/></g><circle cx="365.9" cy="839.9" r="20.8" fill="#ffb700"/><path d="M363.1 820.4s15-3.1 21.7 9.7c6.6 12.7-5.2 23.2-8.2 24.5 0 0 7.7-17.6-7.6-27 0 0-8.4-4.1-16.1.5 0-.1 3.6-5.9 10.2-7.7z" opacity=".9" fill="#fdf6e4"/><path d="M365.2 845.8l-3.8 2c-1.2.6-2.5-.4-2.3-1.7l.7-4.3c.1-.5-.1-1-.5-1.4l-3.1-3c-.9-.9-.4-2.5.9-2.7l4.3-.6c.5-.1 1-.4 1.2-.9l1.9-3.9c.6-1.2 2.2-1.2 2.8 0l1.9 3.9c.2.5.7.8 1.2.9l4.3.6c1.3.2 1.8 1.8.9 2.7l-3.1 3c-.4.4-.5.9-.5 1.4l.7 4.3c.2 1.3-1.1 2.3-2.3 1.7l-3.8-2c-.4-.2-1-.2-1.4 0z" fill="#032a4a"/><circle cx="330.1" cy="880.8" r="23.1" fill="#5093c3"/><path d="M308.3 886.1s34.1 8.5 39.9-15.4c0 0 9 20.6-8 29-23 11.1-31.9-13.6-31.9-13.6z" fill="#3d72a3"/><path d="M340.6 867.8l-12.1 12.1c-1.3-.6-2.8-.9-4.3-.5-2.6.5-4.7 2.7-5.2 5.3-.9 4.6 2.9 8.5 7.4 8 3.2-.4 5.7-3.1 5.9-6.3 0-.6 0-1.2-.1-1.8l1.2-1.2c.7-.7 1-1.6 1-2.5v-1.6h1.2c1.1 0 1.9-.9 1.9-1.9v-1.2h1.2c1.1 0 1.9-.9 1.9-1.9V873h1.2c1.1 0 1.9-.9 1.9-1.9v-1.7c0-.8-.7-1.5-1.5-1.5h-1.6zM324 889.6c-1.1 0-2.1-.9-2.1-2.1 0-1.1.9-2.1 2.1-2.1s2.1.9 2.1 2.1c0 1.2-.9 2.1-2.1 2.1z" fill="#032a4a"/><path d="M332.8 858s20.5 1 20.5 25c0 0 .7-19-20.5-25z" fill="#fdf6e4"/><circle cx="307.2" cy="829.2" r="19.6" fill="#dcd8cb"/><g><path fill="none" d="M310.9 821h4.6v4.6h-4.6zM310.9 827.6h4.6v4.4h-4.6zM301.2 834.1l1.2 1.5v-1.5h-1.2zM302.4 827.6h-4.6v.7c.6 1.3 1.3 2.5 2.1 3.7h2.6v-4.4zM308.8 834.1h-4.4v3.8l.8.8h3.5v-4.6zM310.9 834.1h4.6v4.6h-4.6zM297.8 821h4.6v4.6h-4.6zM304.4 821h4.4v4.6h-4.4zM304.4 827.6h4.4v4.4h-4.4z"/><path d="M316.5 819h-19.7c-.6 0-1 .5-1 1V839.7c0 .6.5 1 1 1h19.8c.6 0 1-.5 1-1V820c-.1-.6-.5-1-1.1-1zm-18.7 2h4.6v4.6h-4.6V821zm0 6.6h4.6v4.4h-4.7v-4.4zm4.6 11.1h-4.6v-4.6h4.6v4.6zm6.4 0h-4.3v-4.6h4.4v4.6zm0-6.7h-4.4v-4.4h4.4v4.4zm0-6.4h-4.4V821h4.4v4.6zm6.7 13.1h-4.6v-4.6h4.6v4.6zm0-6.7h-4.6v-4.4h4.6v4.4zm0-6.4h-4.6V821h4.6v4.6z" fill="#032a4a"/></g><path d="M286.7 832.1s32.2 8.6 37.7-15.6c0 0 8.5 20.8-7.6 29.3-21.7 11.3-30.1-13.7-30.1-13.7z" opacity=".5" fill="#3d72a3"/><g><circle cx="886.7" cy="864.7" r="15.7" fill="#4185af"/></g><path d="M884.2 850.2s11.7-2.4 16.9 7.6-5.6 20.9-8 21.9c0 0 2.6-11.3-9.3-18.7 0 0-6-6.2-12-2.7 0 0 7.3-6.7 12.4-8.1z" opacity=".4" fill="#fdf6e4"/><g fill="#032a4a"><path d="M891.2 859.3l-4.4 3.4c-1.1 0-1.9.9-1.9 1.9 0 1.1.9 1.9 1.9 1.9 1.1 0 1.9-.9 1.9-1.9l3.4-4.4-.9-.9z"/><path d="M880.6 870.8c-1.7-1.7-2.6-3.8-2.6-6.2s.9-4.5 2.6-6.2c1.7-1.7 3.8-2.6 6.2-2.6s4.5.9 6.2 2.6c1.7 1.7 2.6 3.8 2.6 6.2s-.9 4.5-2.6 6.2l2.1 2.1c2.1-2.1 3.4-5 3.4-8.2 0-6.4-5.2-11.7-11.7-11.7-6.4 0-11.7 5.2-11.7 11.7 0 3.2 1.3 6.1 3.4 8.2l2.1-2.1z"/></g><g><circle cx="940.7" cy="904.1" r="19.7" fill="#5093c3"/><path d="M936.3 885.3s15.5-3.1 22.3 10-4.2 23.8-7.3 25.1c0 0 6.8-18.1-8.9-27.8 0 0-8.6-4.2-16.5.5-.1.1 3.6-5.9 10.4-7.8z" opacity=".4" fill="#fdf6e4"/><g fill="#032a4a"><path d="M948.5 901c-.5 0-1 .4-1 1v11.5c0 .5.4 1 1 1 .5 0 1-.4 1-1V902c0-.5-.4-1-1-1zM940.7 906.6c-.5 0-1 .4-1 1v6c0 .5.4 1 1 1 .5 0 1-.4 1-1v-6c-.1-.6-.5-1-1-1zM932.9 906.9c.5 0 1-.4 1-1v-11.4c0-.5-.4-1-1-1-.5 0-1 .4-1 1V906c0 .5.4.9 1 .9zM935.8 908.7h-6c-.5 0-1 .4-1 1 0 .5.4 1 1 1h2v2.9c0 .5.4 1 1 1 .5 0 1-.4 1-1v-2.9h2c.5 0 1-.4 1-1s-.4-1-1-1zM943.7 903.1h-2v-8.5c0-.5-.4-1-1-1-.5 0-1 .4-1 1v8.5h-2c-.5 0-1 .4-1 1 0 .5.4 1 1 1h6c.5 0 1-.4 1-1-.1-.6-.5-1-1-1zM951.5 897.5h-2v-2.9c0-.5-.4-1-1-1-.5 0-1 .4-1 1v2.9h-2c-.5 0-1 .4-1 1s.4 1 1 1h6c.5 0 1-.4 1-1s-.4-1-1-1z"/></g></g><g><circle cx="953.6" cy="565" r="8.1" fill="#dcd8cb"/><circle cx="952.4" cy="564.9" r="8.1" fill="#031826"/></g></g></svg>