<svg xmlns="http://www.w3.org/2000/svg" viewBox="0 0 250 250"><path d="M120.2 154.8l-3.8-9.4c0-5.1 4.3-8.1 4.3-8.1-3 6.8-.5 17.5-.5 17.5z" opacity=".7" fill="#031826"/><path d="M82.2 153.9l.5-1.3c10.9-4 30.2.1 30.2.1-20.8-2.1-30.7 1.2-30.7 1.2z" fill="#e8e6e2"/><path d="M61.4 75.2s-21.8 6.3-19.8 32.7c.9 11.9 4.3 38.5 2.1 53.1-3.8 25.6 15.3 79.2 15.3 79.2l5.1-.4-.4-1.3s-10.5-53.1-9.1-67.8c1.1-12 1.5-45.8 1.2-46.6" fill="#032a4a"/><path d="M158.8 79.6s-11.8-5.2-30.1-12.5c-16.8-6.6-19.3-2.3-33.9.4-9.1 1.7-33.3 7-33.3 7-26.4 8.7-23 21.6-22.1 37.6.8 15.4 1.5 25.1 1.5 25.1 5.5 5.8 15.5 7.2 15.5 7.2l2.1-16.2 8.1 65.5 1.3-1.5c23 12.8 68.5-3.6 68.5-3.6-13.2-47.2-3-85.9-3-85.9l18.7-.4c.7-25.4 6.7-22.7 6.7-22.7z" fill="#053251"/><path d="M86.5 58.1c-.6 13.1 9.9 8.9 9.9 8.9 5.3 13.9-15.3 22.7-15.3 22.7-30.2 3.8-21.3-14-21.3-14 8.2-2.8 2.6-19.9 2.6-19.9" fill="#dcd8cb"/><path d="M154.7 83.3s-29.1-14.9-35.6-16.9c-6.5-2-21.8 1.1-21.8 1.1 3.7.9-2.2 12.2-5.7 14.8-.4-.7-8.2 7.3-8.8 7.8-5.2 4.6-20.7.1-25.1-3.8-8.7-7.7-13.9 1.8-16.3 15.3-2.1 12.1 2 39.6 2 39.6l13.1 2.4.6-6.5 5.7 39.4 72.8 48s7.5-20.6.9-40.4c-10.3-30.7-6.9-85.8-3-82.5l19.1.9s.3-15.9 2.1-18.9" opacity=".7" fill="#031826"/><path d="M59 142c.3 0-2.4.9-2.4 1.2 0 18 4.2 25.9 5 28.5.6 2-1.7 3.1-1.3 5.2l.3 1.6c2.3 13.4-4.1 48.2-5 54.6-.1.6-.1-2.5-.3-3.1l.3-.3-1.1 5.3c-.3-1.1-12.7-54.4-12.2-70.2.4-16.2 1.6-21.5.6-25.8-.1-.5 1.2.9 1.7 1.1 6.5 3 12.1 1.6 14.4 1.9z" fill="#dcd8cb"/><path d="M57.7 137.7s-.8 19.9 3.8 37c6.3 23-4.7 62.1-4.7 62.1v.4s-11.3-50-9.8-61.7c1.5-11.7.4-36.6.4-36.6l10.3-1.2z" opacity=".8" fill="#98b1b7"/><path d="M62.7 241.7l-6.7.6-5.5-25.9c3-2.1 11-16.6 11-16.6l1.2 41.9z" fill="#032033"/><path d="M144.1 250c7.9-14.2 5.3-41.5.9-52.3-2.1-5.1-7.1-19.2-9.4-24.2C104.9 106.6 105 65.2 105 65.2c-2.1-1.7-3.8.1-3.8.1-3.4.9 1.7 18.1-.4 38.9S86 127.9 67.1 117.6C52 109.3 59 75.9 59 75.9l-4.5 1.7c-3.8 10.2 1.7 49.8 2.2 62.7.6 14 6 62 3.5 70.2-2.4 8.2 2.5 31.3 2.5 31.3" fill="#2a4f83"/><path d="M58.2 80.8c-2 44.2 20.6 42.4 31.5 41.2 16.2-1.7 12.4-46.9 14.9-52.3 2.5-5.4 9.4 42.1 9.4 42.1l17.5 62.2c2.8 9.9 19 56.5 14.8 72.7l-45.9-9.5s-6.8-18.1-9.5-28.8c-2.6-10.7-4.8-21.2-9.2-35.8-4.5-14.7-15.3-36.7-23-52.3-8.3-16.7-.5-39.5-.5-39.5z" opacity=".3" fill="#031826"/><path d="M157.7 79.5c-4.7-.4-5.9 20.8-5.9 20.8s53.1 19.3 57.4 18.3c2.2-.5 4-2.1 4-2.1-.9-15.7-19.7-19.6-31.3-26.4-5.3-2.9-24.2-10.6-24.2-10.6z" fill="#dcd8cb"/><path d="M150.9 100.6l7-.1s2.9-.2 13.7.6c7.7.6 18.8 1.3 18.8 1.3l-37.4-17c1.1 2-2.1 15.2-2.1 15.2z" opacity=".8" fill="#98b1b7"/><path d="M203.6 103.3s-11.9-2.6-25.5-1.3-16.6-2.1-28.5-1.7c-11.9.4-18.7 11.9-20.8 15.3l14.8 7.6s4.8-5.5 6.5-9.7c0 0 19 10.3 55.7 5.1" fill="#dcd8cb"/><path d="M148.7 168.4c-16.8 12.3-27.9-.4-27.9-.4-19.8-18-39.2-11.9-39.2-11.9-1-.9 1.1-3.4 1.1-3.4 16.5-3.8 30.2.1 30.2.1 1.4-3.4 3-11.9 9.4-18.2 6.4-6.2 16-4.8 16-4.8 15 2.1 18 15.4 18 15.4 7 11.8-7.6 23.2-7.6 23.2z" fill="#ffb700"/><path d="M152.1 164.9c4-2.7 10.8-20.1 6.5-29.9-2.6-6.1-10-24-35.4-18.3S112.7 154 112.7 154l4.1-6.1c-1.7-2.3-8.7-21 4.3-25.6s21-3 29.2 8.2 3.7 16.3 3.7 16.3" fill="#ffb700"/><path d="M127.5 132.2l1.7 1.7s17.4 19.2 5.5 38.7c-1.1 2 .2.9 2.4.7 6.5-.6 15.4-2.2 19-12.8.3-.7 0-1.1.6-.6 0 0 10.9-21.5-12.2-38.8l-1.7 2.6s10.4 5.1 12 19c-4.8-10.1-19.2-13.3-27.3-10.5zm-1.5-11.3c-17 2.6-10.4 24.3-10.4 24.3s-5.1-10.2-3.1-19.3c2-9.1 15-9.9 15-9.9" fill="#c47312"/><path d="M149.9 113.8c-1.3 8.5-9.2 13.3-11.8 12.5s-3.8-1.7-6.4-3c-2.6-1.3-6 1.3-6-1.3s6-10.6 6-10.6m.5 0c7.7-13.3 31.5-10.6 31.5-10.6-27.8-2.6-31.5 10.6-31.5 10.6z" fill="#dcd8cb"/><path d="M124.4 169.9c11.4 8.5 23.3-1.1 23.3-1.1-11.4 4.5-15.6 1.7-15.6 1.7" fill="#ffb700"/><path d="M148.5 120.5l-1.1-.6c-1.3 2.5-3.9 4.3-3.9 4.3l2.8 2.3c2.8-1.4 2.2-6 2.2-6z" opacity=".9" fill="#874b0a"/><path d="M62.8 63.8l23.8-.9c.9 9.4 13.2 6.3 13.2 6.3L97 79.6c-13.6 19.2-26.9 11-26.9 11 1.3-13.2-7.3-26.8-7.3-26.8z" fill="#6f8a8e"/><path d="M210.8 118.6c3.6 1.2 1.9-1.4 1.3-4.4-.4-1.9-3.2-5.4-5.1-4.9-22.8 6.1-43.7 3.9-51.4 1.8-2-.6-4.2.4-5.2 2.3 22.5 10.2 50 6.2 52.3 5.7 2.3-.6 8.1-.5 8.1-.5z" opacity=".8" fill="#98b1b7"/><path d="M129.9 120.8s-.6 3.7.6 4.8c1.1 1.1 3.7-2.8 3.7-2.8s-2 2.8.3 4c2.3 1.1 2.6-2.3 2.6-2.3s-1.1 3.1.9 3.4c2 .3 3.4-2.8 3.4-2.8" fill="#dcd8cb"/><path d="M144.4 123.6c-.1 1.1-1 1.6-4.3 3.6-4.5 2.8-3.1-1.1-3.1-1.1-3.1 3.1-4-1.4-4-1.4-4.5 3.4-3.1 0-3.4-2.3-.1-.7.1-1.5.4-2.3.9-2.1 3.3-3.1 5.4-2.2l7.3 3.2c1.1.5 1.8 1.5 1.7 2.5z" opacity=".6" fill="#98b1b7"/><path d="M163.9 110.8c-.2 13.8-10.7 4.6-10.7 4.6s5.2 3.3 6.5-4c1.6-9.4-6.8-11.1-6.8-11.1 1.7-.3 11.1-3.2 11 10.5z" fill="#2a4f83"/><path d="M92.7 31.5l4.9-4.4C94 .5 68.6 5.7 68.8 6.2c8.4-1.3 23.9 25.3 23.9 25.3z" fill="#031826"/><path d="M58.6 23.4c-8.9 15.5 6.6 39.9 6.6 39.9s1.2 9.3-3.8 10.2C34 78.2 34.3 49.1 39.9 37.9c4-8 8.2-27.7 17.3-33 26.6-15.4 39 15.5 39 15.5s-28.8-12.5-37.6 3z" fill="#031826"/><path d="M106.1 42.1c1.7 19.1-17 18.6-17 18.6 4.3-15.8 3.1-25.8-1.3-31.9C82 20.8 72 .5 72 .5c16.8-4.5 32.6 24.3 34.1 41.6z" fill="#031826"/><path d="M79.8 14.1c-8.4-.9-14.8.3-19.4 1.8-4.8 1.7-7.8 6.5-7 11.5 1.4 8.8 3.9 23.1 7.3 29.3 4.8 8.6 12.7 17.4 21.6 13.5C95.5 64.5 95.8 39.4 94 27.9c-1-6.9-7.3-13-14.2-13.8z" fill="#dcd8cb"/><path d="M78.2 21.2s7.2.6 11.9 3.4c4.6 2.9 2.8 19 2.8 19 .6 26.9-11.3 27-11.3 27 3.7-2.6 3.5-7.2 1.4-8-1.6-.6-.8-1.9-1.1-4.2-.6-3.8.2-3.7 2.5-4 1.6-.2.3-4-.3-7.2s-1.6-6.4-1.6-6.4c1.4-5.6-4.3-19.6-4.3-19.6z" fill="#8eb1ba"/><path d="M62.1 15s3.5 10.2-1.8 16.8c-6.2 7.7-9.7 6.2-4 20.8 0 0-8.8-15.1-5.3-33.2" fill="#031826"/><path d="M58 49.2s-5.5-3.3-6.5-9c-.7-3.9 3.4-1.1 3.4-1.1" fill="#dcd8cb"/><path d="M53.7 32.3c0 9.7 4.9 14.6 4.9 14.6-3.1-10.2 1.8-15.1 1.8-15.1" fill="#031826"/><circle cx="56.6" cy="48" r="1.3" fill="#ffb700"/><path d="M77.9 39c.3.1.7.5.9.7 1.1 1 1.5 2.7 1.1 4.1-.7 2-1.4 5.1-2.6 6-1.6 1.2-8.6 1.5-10.1 1.1-1.1-.3-2.9-4-4-5.9-.4-.8-.6-1.7-.6-2.6v-.5c.1-1.3 1.5-2.4 2.8-2.6 4.5-.4 12.5-.3 12.5-.3z" fill="#031826"/><path d="M76.9 41.6c-2.4-.3-7.5-.1-9.9.2-.9.1-1.1.4-1.1 1.3 0 3.1 2 6 2.5 6.3.6.4 6.8.6 7.9-.4.8-.8 1.2-3.8 1.7-5.8.2-.8-.3-1.5-1.1-1.6z" fill="#dcd8cb"/><path d="M83.8 38.3c-.3.1-.5.3-.6.6-1 1.2-1.2 2.9-.5 4.3.9 1.9 1.6 4.8 3 5.7 1.7 1 9.1.2 10.6-.5 1-.5 2.5-4.1 3.3-6.2.3-.9.4-1.7.2-2.6l-.1-.6c-.3-1.4-1.4-2.3-2.8-2.3-4.5.1-13.1 1.6-13.1 1.6z" fill="#031826"/><path d="M85.6 40.5c2.4-.6 6.7-.7 9.1-.6.9 0 1.6.2 1.7 1.1.4 3.1-2 6.3-2.6 6.7-.6.5-5.8 1.1-7 .1-.9-.7-1.5-4.5-2.2-6.5-.2-.7.2-.6 1-.8z" fill="#dcd8cb"/><path d="M83.6 44.1c-1.1-3.4-4.9-.7-4.9-.7.4-2.9-1.4-4.3-1.4-4.3l6.8-.4-.5 5.4zM61 6.9c22.6-5.8 39.4 20.8 40.1 24.4.7 3.5-1.5 11.7-1.5 11.7S75.4 29.7 67 22.4 61 6.9 61 6.9zm2.7 37.4L55 39.9l-.7-2 10.3 2.5" fill="#031826"/><path d="M80 42.7l-2.4 13.7 4.3 1.8v-.8c-.6-3.4 1.9-2.8 3.3-4.3 1.4-1.6-2.3-10.8-2.3-10.8-1.6-.4-2.8.3-2.9.4z" fill="#dcd8cb"/><path d="M92.5 33.8c8.3 5.8 0 12.7 0 12.7.1-5.6-6.8-11.8-6.8-11.8" fill="#031826"/><path d="M81 63.8c-5-.2-6.9-3.1-6.9-3.1s2 1.4 4.5-1.3c1.2-1.3 2.7-.2 2.7-.2.5-.3 1.1-1.3 2.5-.3 1.6 1.1 3.4 1.1 3.4.7-.1 0-2.5 4.3-6.2 4.2z" opacity=".6" fill="#223f6c"/><path d="M90.2 39.9l-2.8.3-2.9.5 1.2 4.7.9 2.2.6.6 2.6.3 3.1-.3c.3-.3-.3-.6-.3-1.5 0-1.4-.6-3-.8-3.7-.7-2.6-1.6-3.1-1.6-3.1z" fill="#8eb1ba"/></svg>