<svg xmlns="http://www.w3.org/2000/svg" viewBox="0 0 250 250"><path d="M92.4 184.8l13.6 57.6s12.6 7.3 30.5 5.3 22.3-6.8 22.3-6.8l11.6-57.2c0 .1-31 9.3-78 1.1z" fill="#00264a"/><path d="M105.3 184.2s-17.8-8.4-15.5-42c0 0 16.8 26.5 21.3 42.6l-5.8-.6zM121.8 184.5s-14.9-21.3-17.1-34.9c-2.3-13.6 4.5-21.6 4.5-21.6l15.2 56.8-2.6-.3z" fill="#012"/><path d="M124.4 174.8s-11-14.2-9-36.5c0 0 12.9 17.8 14.2 33.9l-5.2 2.6z" fill="#012"/><path d="M126 183.2s-13.6-23.2 11.9-62.3c0 0 3.9 39.1-6.1 63.6l-5.8-1.3z" fill="#012"/><path d="M138.1 119.7s2.9 18.1.3 27.1l-1.6 4.2" fill="#00bcf5"/><path d="M144.4 183.8s-2.9-15.2 1.9-20.7 25.8-24.9 26.8-35.8c0 0-1.3 31.3-19.4 54.9.1 0-4.1 2.9-9.3 1.6z" fill="#00264a"/><path d="M153.8 182.2s2.3-15.2 9.7-19.1 15.5-10.7 15.5-10.7-5.8 25.8-21 30.4l-4.2-.6z" fill="#00264a"/><path d="M114.2 177.1l-11.1-21s-2.3 6.3 0 8.9c4.8 5.3 3.9 7.7 11.1 12.1z" fill="#012"/><path d="M109.4 129.6s-9.4 16.5 20.8 56.2l-6.3 1.5s-31.3-33.7-14.7-59.3" fill="#004e85"/><path d="M125.4 151.1s1.5-15.3-11.5-23.1c0 0 14-6.2 15.9 11.7M131.9 184.6s1.5-34 11.9-45.3 15.2-22.6 15.2-22.6.6 49-18.1 68.1l-9-.2z" fill="#012"/><path d="M153 141.7s0 26.9-14.4 44.3l-6.7.7" fill="#003d6e"/><path d="M131.7 133l-4.4-12.6s13.1-5.2 10.7-18.9c0 0-4.4 15.5-12.1 16 0 0-4.8-12.6-1.5-20.3 0 0 6.3-6.3 9.7-7.3l.5-2.9-10.7 6.8s5.8-27.6-4.8-34.4l-2.9 1.5s11.1 3.4 3.9 31.5c0 0-3.9-13.6-11.6-16l-1.9 1.5s8.2.5 13.1 23.7c0 0 2.4 24.7 10.2 35.8" fill="#012"/><circle cx="84.2" cy="38.5" r="5.7" fill="#00bcf5"/><g fill="#012"><path d="M84.804 34.961l3.005 1.983-.441.668-3.005-1.983zM85.1 41l-3-1.9.7-1.1 2.1.1.9 1.9z"/><path d="M83.118 38.964l2.149-3.255 1.585 1.046-2.148 3.255z"/><path d="M82.4 42.5l-.6.3v-.7l2.2-3.3.6.4z"/></g><path d="M82.7 33.5s-2.2 8.6 4.2 10c0 0-4.7 2.8-7.4-1.2-3.4-5.3 3.2-8.8 3.2-8.8z" opacity=".4" fill="#012"/><path d="M85.6 18.7s-1.3 17.9 27.3 27.1l-1.8 1.7s-23.4-4.9-27.5-26.9" fill="#012"/><path d="M91.1 35.6s8.6-2.1 8.6-11.3l1.3.2s-.6 10.2-7.9 11.6" fill="#012"/><circle cx="115.4" cy="52.3" r="8.9" fill="#ffb700"/><path d="M112.9 43.5s7.4-1.5 10.6 4.7c3.2 6.2-2.5 11.4-4 12 0 0 3.8-8.6-3.7-13.2 0 0-4.1-2-7.9.2 0 .1 1.7-2.8 5-3.7z" opacity=".9" fill="#fff5e3"/><path d="M120 48h-9.3c-.3 0-.5.2-.5.5v1.4c0 .3.2.5.5.5s.5-.2.5-.5V49h3.7v8.3h-.7c-.3 0-.5.2-.5.5s.2.5.5.5h2.3c.3 0 .5-.2.5-.5s-.2-.5-.5-.5h-.7V49h3.7v.9c0 .3.2.5.5.5s.5-.2.5-.5v-1.4c0-.3-.2-.5-.5-.5z" fill="#00264a" stroke="#00264a" stroke-width=".484" stroke-miterlimit="10"/><path d="M119.1 59.4s6.3 2.9 6.9 12.8c.6 9.8-2.1 21.6-2.1 21.6l-.6-.2s3.1-13.4 1.6-24.1c0 0-.3-5.5-5.8-10.1z" fill="#e8e6e2"/><path d="M126 72.1s7.6-3.6 9.2-9.8l-.3-.3s-1.6 5.3-9 9.4" fill="#0095c7"/><path d="M124.9 69.5s8.9-4 10-7.6c0 0-1.8 7.3-10.2 10.8" fill="#012"/><path d="M94.7 35.8s4.5 4.7 10.5 6.9c0 0-6.8-2.7-11-6.5l.5-.4zM100.8 24.4s-.1 6.7-4.3 9.6c0 0 2.6-2.8 4.3-9.6z" fill="#e8e6e2"/><path d="M134.9 162.7s2.6-17.8 10-24.9c7.4-7.1 13.6-20 13.6-20s-1.9 13.2-15.2 26.5c0 0-5.2 5.5-8.4 18.4z" fill="#0093c5"/><path d="M173.1 127.3s1.8 14.4-8.2 32.8c0 0 5.5-19.4 5.2-24.2l3-8.6z" fill="#00bcf5"/><path d="M153.6 141.4s1 11.9-8.4 33.9c0 0 6.1-23.6 4.5-25.5l3.9-8.4z" fill="#0093c5"/><path d="M124.4 97.1s-2.4 13.6 1.5 20.3l-1 .6c0 .1-4.5-11.8-.5-20.9z" fill="#e8e6e2"/><path d="M179 152.5s-3.2 17.8-13.4 24.5l13.4-24.5z" fill="#0093c5"/><ellipse cx="131.7" cy="184.2" rx="38.4" ry="5.5" fill="#012"/><path d="M139.2 102.7s0 12.4-9.4 15.5c0 0 8.5-3.6 8.2-16.7" fill="#0095c7"/><path d="M110.8 77.3s8.2 3.6 8.7 11.9c0 0-3.9-9.7-9-11.4" fill="#e8e6e2"/><circle cx="138" cy="66.3" r="1.7" opacity=".5" fill="#008acd"/><circle cx="135.9" cy="60.2" r="2.3" opacity=".7" fill="#00bcf5"/><path d="M98.4 210.2s-.3 3.4 17.2 5.7c16.9 2.1 45.4 1.6 49.1-3.1l-1.3 5.6s-.8.3-5.7 1.6c-9.8 2.7-47.6 4.2-58-4.4l-1.3-5.4z" fill="#003d6e"/><path d="M96.8 181.4s-6.8 0-4.8 2.9c1.9 2.9 25.7 7 54.2 5.8 23.4-1 31-5.3 20.8-9.2 0 0 6.3 5.8-33.4 6.3-22.3.3-43.6-1.9-36.8-5.8z" fill="#0078c1"/><path d="M163.1 155.3s-1.9 17.9-10.2 28.6h-5.1l15.3-28.6z" fill="#00bcf5"/><g><circle cx="104.8" cy="74" r="10.4" fill="#ffb700"/><path fill="#012" d="M101.4 68.8v11.1l9.1-5.9z"/><path d="M102.5 64.6s7.7-1.6 11.1 5c3.4 6.5-2.7 11.9-4.2 12.6 0 0 4-9-3.9-13.9 0 0-4.3-2.1-8.3.3 0-.1 1.9-3.1 5.3-4z" opacity=".9" fill="#fff5e3"/></g><path d="M92.7 11.9c0 5.5-4.5 10-10 10s-10-4.5-10-10 4.5-10 10-10c6.1 0 10 4.5 10 10z" fill="#ffb700"/><path d="M86.3 7.1h-9.1c-.8 0-1.5.7-1.5 1.5v6.1c0 .8.7 1.5 1.5 1.5h5.5l1.2 1.7 1.1-1.7h1.4c.8 0 1.5-.7 1.5-1.5V8.6c-.1-.8-.8-1.5-1.6-1.5zm-1.1 7.1h-7.6v-.5c0-.3.2-.5.5-.5h7.1c.3 0 .5.2.5.5 0 .2-.2.5-.5.5zm0-2.1h-7.1c-.3 0-.5-.2-.5-.5s.2-.5.5-.5h7.1c.3 0 .5.2.5.5s-.2.5-.5.5zm0-2h-7.1c-.3 0-.5-.2-.5-.5s.2-.5.5-.5h7.1c.3 0 .5.2.5.5s-.2.5-.5.5zM105.5 183.8s-14.5-15.5-25.2-16c0 0 11.8 19.1 25 16.3" fill="#012"/><g fill="#02669d"><path d="M112.4 184.7s-14.1-10.7-10.9-27.8c0 0 15.3 13.7 21.1 28.6l-10.2-.8z"/><path d="M122.6 185.8s-9.7-20.8 1.1-39.7c0 0 11.6 23 9.4 39.7"/><path d="M120.2 167.4l2.4 17.4 10.2-.5s1.5-9.7-1.9-18.9"/></g><g><path d="M123.7 145.9s5.8 11.7 7.4 21.4l-7.8-19.3.4-2.1z" fill="#00bcf5"/><path d="M123.6 147s-1.2 35.4 7.7 40H122c0 .1-8.5-29.8 1.6-40z" fill="#003d6e"/></g><circle cx="101.2" cy="22.3" r="3.4" fill="#0093c5"/><path d="M82.7 1.9s8.1-.6 9.9 8.2c1.4 6.7-3.8 9.9-3.8 9.9s4.6-7.3.3-13.3c-3.5-4.8-6.4-4.8-6.4-4.8z" fill="#f7f5f1"/><g><circle cx="143.3" cy="86.4" r="9.1" fill="#00bcf5"/><path d="M140.6 77.5s7.4-1.5 10.6 4.7-2 11.4-3.5 12c0 0 3.2-8.6-4.2-13.2 0 0-4.1-2-7.9.2 0 .1 1.8-2.8 5-3.7z" opacity=".9" fill="#fff5e3"/><path d="M148.5 82.4l-1.6-1.6s-.1-.1-.3-.1-.3.1-.3.1l-.8.8 2.3 2.3.8-.8s.1-.1.1-.3c-.1-.3-.2-.4-.2-.4zm-1.4 2.1l-5.3 5.3-2.3-2.3 5.3-5.3 2.3 2.3zm-5.9 5.9l-2.3-2.3-1.3 3c0 .1.3.4.4.4l3.2-1.1z" fill="#012"/></g><circle cx="96" cy="27.6" r="1.3" opacity=".5" fill="#008acd"/><circle cx="102.5" cy="20.9" r="1.1" fill="#f7f5f1"/><circle cx="137.1" cy="59.2" r=".6" fill="#f7f5f1"/><path d="M85.8 21.7s2.4 8.9 5.8 11.5c0 0-4.8-3.7-6.5-11.1" fill="#f7f5f1"/></svg>