<svg xmlns="http://www.w3.org/2000/svg" xmlns:xlink="http://www.w3.org/1999/xlink" viewBox="0 0 1000 1000"><defs><path id="a" d="M1000 0l.1 982.4C892.6 896.2 757.9 834.3 612 854.3c-66.8 9.2-131 31.3-198.1 37.5-96.7 8.9-201.3-18-265.5-90.9-50.7-57.5-92.8-169.6-85.5-292.4 7.4-124.8 65.5-251.3 33.8-375.7C82.4 77.2 52.1 25.6 1.1.6L1000 0z"/></defs><clipPath id="b"><use xlink:href="#a" overflow="visible"/></clipPath><path d="M1001.5 1l.1 982.4c-107.4-86.2-236.6-144.6-387-124.6-66.8 8.9-132.1 27.8-199.2 34-96.7 8.9-201.3-18-265.5-90.9C99.1 744.5 57 632.4 64.3 509.6c7.4-124.8 65.5-251.3 33.8-375.7C83.9 78.2 48.6 26.6-2.4 1.6L1001.5 1z" clip-path="url(#b)" fill="#5093c3"/><path opacity=".3" clip-path="url(#b)" fill="#223f6c" d="M468.7 213.1l-16 56 38.8 3zM567.4 226.4l-16.7 43.4 44.1 2.3z"/><path d="M-13.9-52.2c-2.3 3.3 126.3-141.6 130.2-140.5 57 15.9 320 158 262 438-44.2 213.3-104.5 234.3-112 366-12 210 190 300 190 300l-374 36.5-94.2-997.4-2-2.6z" clip-path="url(#b)" fill="#ffb700"/><g clip-path="url(#b)"><path d="M795 314.3H401.8c-3.3 0-5.4-3.4-3.9-6.3l13.8-26.8 404.2 1.9-17.2 29.1c-.8 1.2-2.2 2.1-3.7 2.1zM838.9 506.7H541.4c-4.6 0-7.1-5.4-4.1-8.9l19-22.5 304.2.1-16.9 28.6c-1 1.7-2.8 2.7-4.7 2.7z" opacity=".5" fill="#223f6c"/><path fill="#032a4a" d="M456.3 281.6l8.5 65.4h11.4l9.9-68.3M740.3 281.6l8.5 65.4h11.4l9.9-68.3"/><path d="M491 212.4s-10.1-29.1-5.1-25.9c5.1 3.2 10.7 25.3 10.7 25.3l-5.6.6zM504.8 214.3s-20.2-48-13.9-63.8 22.1 59.4 22.1 59.4l-8.2 4.4z" opacity=".5" fill="#2a4f83"/><path d="M815.2 283.9H414.3c-3.5 0-6.4-2.9-6.4-6.4 0-3.5 2.9-6.4 6.4-6.4h400.9c3.5 0 6.4 2.9 6.4 6.4 0 3.6-2.8 6.4-6.4 6.4z" fill="#032a4a"/><path fill="#3d72a3" d="M634.9 110h126.2v161.1H634.9z"/><path d="M709.4 181.1H687c-1.5 0-2.7 1.2-2.7 2.7v50.8c0 1.5 1.2 2.7 2.7 2.7h22.5c1.5 0 2.7-1.2 2.7-2.7v-50.8c-.1-1.5-1.3-2.7-2.8-2.7z" fill="#3bbcf4"/><path d="M709.4 130H687c-1.5 0-2.7 1.2-2.7 2.7v39.6c0 1.5 1.2 2.7 2.7 2.7h22.5c1.5 0 2.7-1.2 2.7-2.7v-39.6c-.1-1.5-1.3-2.7-2.8-2.7z" fill="#5093c3"/><path d="M676.7 130h-22.5c-1.5 0-2.7 1.2-2.7 2.7v82.2c0 1.5 1.2 2.7 2.7 2.7h22.5c1.5 0 2.7-1.2 2.7-2.7v-82.2c0-1.5-1.2-2.7-2.7-2.7z" opacity=".6" fill="#223f6c"/><path d="M742.2 130h-22.5c-1.5 0-2.7 1.2-2.7 2.7V153c0 1.5 1.2 2.7 2.7 2.7h22.5c1.5 0 2.7-1.2 2.7-2.7v-20.3c0-1.5-1.2-2.7-2.7-2.7z" fill="#2a4f83"/><path d="M742.2 162.2h-22.5c-1.5 0-2.7 1.2-2.7 2.7v20.3c0 1.5 1.2 2.7 2.7 2.7h22.5c1.5 0 2.7-1.2 2.7-2.7v-20.3c0-1.5-1.2-2.7-2.7-2.7z" fill="#eead59"/><path d="M742.2 193.3h-22.5c-1.5 0-2.7 1.2-2.7 2.7v20.3c0 1.5 1.2 2.7 2.7 2.7h22.5c1.5 0 2.7-1.2 2.7-2.7V196c0-1.5-1.2-2.7-2.7-2.7z" fill="#5093c3"/><path d="M522.4 212.4s-31.6-52.4-17.7-109.3c0 0 2.5-4.4 3.8 3.8s8.8 91.6 19 104.9l2.5 2.5s-26.5-94.1-10.1-146c0 0 3.2-3.8 4.4 0 1.3 3.8 8.8 146.6 8.8 146.6" opacity=".5" fill="#2a4f83"/><path d="M537 214.3s13.9-84.7 9.5-88.5-15.8 94.2-15.8 94.2" opacity=".5" fill="#2a4f83"/><path d="M542.7 223.7s22.1-59.4 17.7-64.4c-4.4-5.1-26.5 60-26.5 60" opacity=".5" fill="#2a4f83"/><path d="M594.2 227.8s1.9-32.2-8.2-30.3 2.5 31.2 8.2 32.4" fill="#2a4f83"/><path d="M593.4 228.3s12.7-22 19-21c6.3 1-4.8 16.9-15.9 24.5M598.7 202.5s-18.4-23.3-11-25.1c7.4-1.9 11.6 4.5 11 25.1z" fill="#2a4f83"/><path d="M598.6 198.8c-2 14.4-.6-30.3 12-29.1 17.5 1.7-13.3 32.9-13.3 32.9M598.6 177.8s-13.6-22.8-2.4-23.5c11.2-.7 8 14.4 2.4 23.5z" fill="#2a4f83"/><path d="M591.6 231s3.4-33.1 7.1-28.6-.8 34.2-.8 34.2" fill="#2a4f83"/><path d="M565.7 226.6h58.8s-4.7 24.6-10.4 44.5h-37s-10.4-33.1-11.4-44.5z" fill="#eead59"/><path d="M867.1 476.3H556.2c-3.5 0-6.4-2.9-6.4-6.4 0-3.5 2.9-6.4 6.4-6.4h310.9c3.5 0 6.4 2.9 6.4 6.4 0 3.6-2.9 6.4-6.4 6.4z" fill="#032a4a"/><circle cx="657.1" cy="-61.7" r="23.1" fill="#6c4170"/><path d="M835.9 367.2c-1.3-8.2-5.1-1.3-5.1-1.3-2.9 15.1-9.2 20.2-13.1 21.9-.1-6.6-.1-12.5-.1-15.6 0-10.1-3.8-16.4-8.8-7.6-5.1 8.8-1.3 55-1.3 55l10.7 1.9s-.2-9.9-.3-21c13.2-4.7 19.2-25.6 18-33.3z" opacity=".6" fill="#3a769b"/><path fill="#f8eacc" d="M624.5 227.5l-10.4 44.6-4.3-.5 10-43.1z"/><path d="M467.5 210.8s11.4 49.9 24 61.3h58.8s15.2-33.5 18.3-60.7l-101.1-.6z" fill="#3bbcf4"/><path fill="#5093c3" d="M558.1 251.1l-79.4-1.3-2.9-9.9h87.1z"/><path d="M806.5 270.9H751c-3.1 0-5.7-2.5-5.7-5.7v-90.3c0-3.1 2.5-5.7 5.7-5.7h55.5c3.1 0 5.7 2.5 5.7 5.7v90.3c0 3.2-2.5 5.7-5.7 5.7z" fill="#032a4a"/><path opacity=".49" fill="#ff7bac" d="M748.9 173h59.8v90.9h-59.8z"/><path fill="#eead59" d="M748.9 176.1h59.8v25.6h-59.8z"/><path fill="#5093c3" d="M748.9 201.7h59.8v62.2h-59.8z"/><path fill="#2c5082" d="M748.9 201.7h29.9v16.8h-29.9z"/><path fill="#2a4f83" d="M778.8 201.7h29.9v16.8h-29.9z"/><path fill="#1b0042" d="M748.9 173h59.8v3.1h-59.8z"/><g fill="#2a4f83"><circle cx="761.9" cy="188.9" r="6.9"/><path d="M794.9 187.2H774c-.4 0-.6-.3-.6-.6s.3-.6.6-.6h20.9c.4 0 .6.3.6.6s-.3.6-.6.6z"/></g><path d="M774.7 224.8h-20.9c-.4 0-.6-.3-.6-.6 0-.4.3-.6.6-.6h20.9c.4 0 .6.3.6.6s-.3.6-.6.6zM793.6 233.4h-31.3c-.4 0-.6-.3-.6-.6 0-.4.3-.6.6-.6h31.3c.4 0 .6.3.6.6s-.3.6-.6.6zM783.1 244.5h-20.9c-.4 0-.6-.3-.6-.6s.3-.6.6-.6h20.9c.4 0 .6.3.6.6s-.2.6-.6.6zM791.3 255.3h-29.1c-.4 0-.6-.3-.6-.6 0-.4.3-.6.6-.6h29.1c.4 0 .6.3.6.6.1.3-.2.6-.6.6z" fill="#2a4f83"/><ellipse transform="rotate(-5.557 756.16 232.804)" cx="756.2" cy="232.8" rx="2.4" ry="2.4" fill="#2a4f83"/><ellipse transform="rotate(-5.557 756.16 243.824)" cx="756.2" cy="243.8" rx="2.4" ry="2.4" fill="#2a4f83"/><ellipse transform="rotate(-5.557 756.16 254.843)" cx="756.2" cy="254.8" rx="2.4" ry="2.4" fill="#2a4f83"/><path d="M562.9 211.9l-16.6 60.2h3.9s14.7-35.1 18.1-58.9c.1-.6.2-1.2.2-1.8l-5.6.5z" fill="#f8eacc"/><path fill="#032a4a" d="M478.1 270.7h337.4v8.7H478.1z"/><path d="M783.5 418.7h58.8s-4.7 25.6-10.4 45.5h-37c-.1 0-10.5-34.1-11.4-45.5z" fill="#2a4f83"/><path d="M688.9 464.9h-87.2c-3 0-5.4-2.4-5.4-5.4v-92.7c0-3 2.4-5.4 5.4-5.4h87.2c3 0 5.4 2.4 5.4 5.4v92.7c0 2.9-2.4 5.4-5.4 5.4z" fill="#3d72a3"/><path d="M689.6 361.3H601c-2.6 0-4.7 2.1-4.7 4.7v15.8h98.1V366c-.1-2.6-2.2-4.7-4.8-4.7z" opacity=".6" fill="#223f6c"/><g fill="none" stroke-linecap="round" stroke-miterlimit="10"><path opacity=".6" stroke="#223f6c" stroke-width="2" d="M602.6 389.4h2.4M616.3 389.4h2.4M630 389.4h2.4M643.7 389.4h2.4"/><path stroke="#5093c3" stroke-width="2.817" stroke-linejoin="round" d="M657.4 389.4h2.4M671.2 389.4h2.3M684.9 389.4h2.3"/></g><g fill="none" stroke="#5093c3" stroke-width="2.817" stroke-linecap="round" stroke-linejoin="round" stroke-miterlimit="10"><path d="M602.6 404.9h2.4M616.3 404.9h2.4M630 404.9h2.4M643.7 404.9h2.4M657.4 404.9h2.4M671.2 404.9h2.3M684.9 404.9h2.3"/></g><g fill="none" stroke="#5093c3" stroke-width="2.817" stroke-linecap="round" stroke-linejoin="round" stroke-miterlimit="10"><path d="M602.6 420.5h2.4M616.3 420.5h2.4M630 420.5h2.4M643.7 420.5h2.4M657.4 420.5h2.4M671.2 420.5h2.3M684.9 420.5h2.3"/></g><g fill="none" stroke="#5093c3" stroke-width="2.817" stroke-linecap="round" stroke-linejoin="round" stroke-miterlimit="10"><path d="M602.6 436h2.4M616.3 436h2.4M630 436h2.4M643.7 436h2.4M657.4 436h2.4M671.2 436h2.3M684.9 436h2.3"/></g><g fill="none" stroke="#5093c3" stroke-width="2.817" stroke-linecap="round" stroke-linejoin="round" stroke-miterlimit="10"><path d="M602.6 451.6h2.4M616.3 451.6h2.4M630 451.6h2.4M643.7 451.6h2.4M657.4 451.6h2.4M671.2 451.6h2.3M684.9 451.6h2.3"/></g></g><path d="M835.5 364.6s4.3 21.3-13.3 34c0 0 14-14.7 13.3-34zM817.8 418.3s-2.9-14.4.1-17.7l-.1 17.7" opacity=".8" clip-path="url(#b)" fill="#dcd8cb"/><path d="M532.5 194.3s-2.7-117.3-8-122.7l8 122.7zM539.8 198.3s10-60.7 7.3-66M553.8 193.6s9.3-26 7.3-30.7" opacity=".5" clip-path="url(#b)" fill="#dcd8cb"/><path clip-path="url(#b)" fill="#5093c3" d="M466.2 463.3h402v1.5h-402z"/><path d="M905.7 634.9L266 629.1l2-40c3.9-58.5 23-87.3 44.7-140l27.3-70c36.4-85.8 51.9-179 39.5-271.4-.3-2-.5-4-.8-6C374 69.3 363 30.5 343.2 4.3l-.5-5.2 654 .7-91 635.1z" opacity=".4" clip-path="url(#b)" fill="#3a769b"/><path opacity=".5" clip-path="url(#b)" fill="#223f6c" d="M1069.2 999.3l-216-8 142.5-993 73.5 8z"/><path d="M265.3.3l-.8 891-177.8-138s-43.5-202.5-1.6-381S75.8 21.3 1.2-1.2" clip-path="url(#b)" fill="#ffb700"/><path d="M916.7 930.8s-20-40 8-63 31-57 20-88-2-58 9-60 0 37 20 74 25 71 8 98-27 61-27 61l-38-22z" clip-path="url(#b)" fill="#2a4f83"/><path d="M809.2 873.2s12.2 3.6 18.2-4.9c6.1-8.5 19.4-12.2 23.1-6.1 3.6 6.1 20.7 14.6 29.2 14.6s13.4 8.5 13.4 8.5-4.9-3.6 8.5-6.1 15.8 2.4 13.4 7.3-10.9 9.7 3.6 8.5c14.6-1.2 26.7-7.3 32.8 0 6.1 7.3 15.3 60.4 15.3 60.4s-23.8-15.4-114.9-25.1" clip-path="url(#b)" fill="#032033"/><path d="M935.7 938.8s.2-5 3-40.5c6-76.5-34.5-82.5-21-87s42 19.5 43.5 79.5c.6 24 9-16.5 21-25.5s19.5-28.5 19.5-28.5l-.2 149.3c0-.1-29.8-32.3-65.8-47.3z" clip-path="url(#b)" fill="#032a4a"/><path d="M387.7 366.8S373.8 441 391.8 475s6.9 73.8 6.9 73.8l-4.9 10.2s3.3-43.3-3.1-70.2c-8.1-34.2-11-100-3-122z" clip-path="url(#b)" fill="#2a4f83"/><path d="M323.6 565.4l32.2 18.1 8.9 4.5.8.5 29.3 16.6-15.1 2.6-21.8-5.4c-4.4-1.1-7.8-4.6-8.8-9l-1.4-6.4-25.4-9.8c-.1.1-2-11.1 1.3-11.7z" clip-path="url(#b)" fill="#032a4a"/><g clip-path="url(#b)" fill="#2a4f83"><path d="M234.5 444.9l49.7 38.5c1.4 1.4 3.2 3.4 5.1 3.8l71 28.9.2 12.3s-65.5-2.4-84.1-14.1c-6.8-4.3-43.8-22.3-43.8-22.3l1.9-47.1z"/><path d="M346.8 510.6s13.3 4.9 23-8.3c5.3-7.3 11.6-6 15-5.3 2.2.4 3 1.9 1.1 3.1-.5.3-1.1.6-1.9.9-2.6.9-4.8 2.6-6.4 4.8l-2.5 3.3s14.2 0 16.7-5.6 2.5-5.6 6.2-4.4c3.7 1.2 6.8 21.6-.5 27.9-12.3 10.6-26.5 2.1-58.1-.3"/></g><path d="M117.2 613.4s-26.7 49.5 2 94.9c12 19 31.3 119.7 31.3 119.7l31.3 21 10-211.3 12.6-15.9" clip-path="url(#b)" fill="#0d77be"/><path d="M184.6 396.2c-1.6 1.4-4.4 7-6.5 6.8-27-2.6-54.2 23.4-55.6 100.9-1.4 82.7-21 120-21 120l3 14c16.2 15 31.4 11.2 53 6.8 11.1-2.2 21.4-4.8 27-6.5 4.1-1.2 2.5-5.3 3.7-5.6 3.7-.9 21.8-46 26.9-62.2s1.2-15.9 5.9-25.7c4.6-9.7 11.8-44.6 11.8-44.6s11.8-65.6-9.3-84.8c-6.5-5.9-15.4-38.9-38.9-19.1z" clip-path="url(#b)" fill="#e8e6e2"/><path d="M201.8 513.9s-6.9 18.2-8 19.7c-9 11.9-36.3 60.6-75.9 27.6l-2.8 13s20.2 11.1 24.9 11.1c3.6 0-2.4 29.2-2.5 70.6-.1 24.9 21.6 50.2 43.8 61.7l9.8 5.1s-.5-75.4 5.6-94.7c5.6-17.6 34.4-97.5 36.2-117" clip-path="url(#b)" fill="#032a4a"/><path d="M166 488.7s-.9 71.5-39 78.9c-38.1 7.4 53.5 258.3 53.5 258.3l9.6-170.1 13-114.2-37.1-52.9z" opacity=".3" clip-path="url(#b)" fill="#142c3f"/><path d="M387.5 365.9s-8.5 80.2 6.3 115.7c13 31 4.7 66.3 4.7 66.3l-5 2s9-29-3-62-11-100-3-122z" clip-path="url(#b)" fill="#2a4f83"/><path d="M400.2 485.3l3.7 125.3-11.3.3 1.9-118.4s-9.3-17.6-31.9-21c0 0 17.3 29.3 34 29.3" clip-path="url(#b)" fill="#2a4f83"/><path d="M393.5 500.3s2.7 6 3.7 11.7c1 5.7 2 91 2 91l-6.3-3.3.6-99.4z" opacity=".5" clip-path="url(#b)" fill="#142c3f"/><path d="M393.5 500.3s2.7 6 3.7 11.7c1 5.7 2 91 2 91l-6.3-3.3.6-99.4z" opacity=".5" clip-path="url(#b)" fill="#142c3f"/><path d="M402.5 597.6s45.3 3.3 61.3 12.7l24.7 8s-70-20-87.3-18" opacity=".7" clip-path="url(#b)" fill="#dcd8cb"/><path d="M388.9 474.1s-8.2-47.8-41.9-67.6-32.9-47.4-32.9-47.4l-2 3.2s3.6 26.4 26 41.6c22.3 15.2 35.7 25.7 48.8 72.7M397.4 493.6s0-43.4 31.4-66.3l2.1 1.8s-27.5 19.8-30.7 64.2M410.5 415s-24.3 6.5-25.1 30.9c0 .1 24.8-2.7 25.1-30.9zM404.1 386.9s-18.1 4.8-18.7 23.1c0 0 18.5-2.1 18.7-23.1z" clip-path="url(#b)" fill="#2a4f83"/><path d="M353.9 396.1s3.9 26.9 30.1 30.7c-.1 0 0-27-30.1-30.7zM356.9 447.1s3.9 26.9 30.1 30.7c-.1 0 0-27-30.1-30.7zM431.9 440.8s-18.8-.2-24.2 17.2c-.1 0 18.3 3 24.2-17.2z" clip-path="url(#b)" fill="#2a4f83"/><path d="M394 446.2s-17.9 25.8 1.1 49.7c0 0 21.4-22.7-1.1-49.7zM362.5 422.6s-14.2-15.7-32.7-6.9c0 0 11.6 17.5 32.7 6.9zM376.5 441.6s-14.2-15.7-32.7-6.9c0 0 11.6 17.5 32.7 6.9zM468.2 427.2s9-12.9 23.6-8.1c0 .1-7 14-23.6 8.1zM457.7 404.2s11.9 15 1.3 30.3c0 .1-13.9-12.9-1.3-30.3zM438.2 419.7s11.9 15 1.3 30.3c0 .1-13.9-12.9-1.3-30.3zM412.5 484.4s14.2-15.7 32.7-6.9c.1 0-11.5 17.5-32.7 6.9z" clip-path="url(#b)" fill="#2a4f83"/><path d="M390.8 361.9s5.3-10.7 23.3 1.3c0 0-9.3 12-26.7 4.7M426.5 431.6s-4.7-24.7 6-31.3c0 0 7.4 17.1-2.3 29.9" clip-path="url(#b)" fill="#3bbcf4"/><path d="M343.2 404.9s-10-16 1.3-19.3c0 0 7.3 10.7-1.3 19.3zM401 511.9s2-19 20.5-19c0 0-1 21-20.5 19zM322.2 382.8s-7.2-13.6 5.1-21.9c-.1 0 8.8 14.4-5.1 21.9zM450.5 458.9s49 10 74-29c0 0-7.9 47.5-84.9 29.7" clip-path="url(#b)" fill="#2a4f83"/><path d="M413.2 468.3s16.1-11.9 25.4-4.6c0 0-6.7 11.3-13.4 14.6l11-14s-6-3.4-23 4zM395.2 449.6s16 12.8 5.3 42.8c0 0 4.7-24.1-5.3-42.8zM458.6 449.7s16.6 1.9 21.9-6.1l-24.6 4.7" clip-path="url(#b)" fill="#dcd8cb"/><path d="M312.2 361.8s-6.8-12.7 4.7-20.5c0 0 8.3 13.5-4.7 20.5z" clip-path="url(#b)" fill="#2a4f83"/><path clip-path="url(#b)" fill="#e8e6e2" d="M336.4 571.3l42.8 29.6-44-28.7z"/><path clip-path="url(#b)" fill="#5eacdd" d="M216.5 607.9l18.8-33.7 8.7 4.2-8-1.5z"/><path d="M226.8 421l6.6-9s20.3 4.8 25.7 3c5.4-1.8 8.7-14.2 11.4-13.7 9.6 1.8 4.2-6 3.6-13.2-.3-3.9 1.7-7.3 3.6-9.6 1.9-2.3 2.9-5.1 2.8-8.1l-.4-14c-1.2-15.5-30.5-39.5-52.6-32.3-22.1 7.2-18.9 29.2-23.9 49.6-4.1 16.6-7.7 21.4-7.7 21.4s16.5 22.9 30.9 25.9z" clip-path="url(#b)" fill="#2a4f83"/><path d="M201.3 381.3s11 7 15.8 2.3c0 0 2.1-21.7 6.7-23 9-2.4 7.2 17.9 7.2 17.9l6 1.2s-2.5-11.1 8.2-16.5 9.7-5.1 10.3-15.8c0 0 18.5 12 31.7 4.8 9.7-5.3-31.7-34.1-50.8-34.1s-37.1 17.3-34.7 35.9c2.5 19.3-.4 27.3-.4 27.3z" clip-path="url(#b)" fill="#031826"/><path d="M221 470.5c.5 2.5 2.2 4.6 4.5 5.3 2.8.9 6.7 0 10.1-8.2 3.7-8.5.9 29.4.9 29.4s-1.9 26.9-11.1 47.4l-37.3-2.2s36.7-51 12.2-107.4l-4-9.3c0 .1 17.8 9 24.7 45z" clip-path="url(#b)" fill="#032a4a"/><path d="M177.1 504.5s25.9 40.5 37.5 45.2 78.6 21.2 78.6 21.2 12.9 4.2 16 10 23 6.3 23 6.3l13-3.7s-19.5-4.2-22.3-11.6c-2.6-7 4.9-3.9 9.4-1.4 1.7.9 3.9.8 5.4-.4 1.3-1 2-2.5-.4-4.3-16.2-11.9-27.8-8.7-27.8-8.7s-63.1-32.4-71-33c-11.1-.9-29.9-40.8-29.9-40.8l-31.5 21.2zM195.5 394.5c-4.8 13.7 30.7 44.1 30.7 44.1-3.3-17.4 7.9-27.4 7.9-27.4" clip-path="url(#b)" fill="#2a4f83"/><path d="M187.2 394.3s-7.7 3-4.5 11c2.9 7.4 30.9 18 36.2 58l-12.3-8.3s-4.9-24.6-21.7-37.5c-16.7-12.9-13.2-22.9 2.3-23.2z" clip-path="url(#b)" fill="#032a4a"/><path d="M188.3 433l22.6 48.6 13.6 23.3s17.6-32 10.2-61.7c0 0-6.5 26-46.4-10.2z" opacity=".2" clip-path="url(#b)" fill="#142c3f"/><path d="M206.2 484.6l23.3 40.3 78.6 32.5 1.4-.4s-53.8-30.4-76.3-35.1l-24.3-38.3-2.7 1z" opacity=".7" clip-path="url(#b)" fill="#dcd8cb"/><path clip-path="url(#b)" fill="#e8e6e2" d="M193.5 444.6l19.3 42.3-35.7 17.6"/><path d="M228.2 417.9s8 9.3 8 32.3c0 0-4.3-23.3-9.7-25.3l1.7-7z" clip-path="url(#b)" fill="#032a4a"/><path d="M250.5 461.9s30 24 23 50l-36.7-18.3-.3-46.7 14 15z" opacity=".6" clip-path="url(#b)" fill="#142c3f"/><path d="M236.8 365.6s-1.8 20.1 3.8 32.4c2.1 4.7 7.6 6.7 12.3 4.6 3.8-1.7 8.2-2.3 15 .9 0 0-1.7 9.1-5.9 13.9-4.2 4.8-7.5 16.4-23.9 2.4-16.6-14.2-6.6-55.5-6.6-55.5" clip-path="url(#b)" fill="#031826"/><path d="M380.5 500.9s-5.8 2.5-7 4c-2.3 3-8.8 13.8-8.3 16.3 1 6 21 9.7 27.7 6l.7-27s-2.7 5-6.3 6.7c-3.7 1.7-12.9 3.2-12 2.1.9-1.1 5.2-8.1 5.2-8.1zM221.5 362.3s.8 22.1-8 31.7c-7.3 8-4 27.7-4 27.7s-21-22.3-12-29c0 0 7-14.3 5.7-33" opacity=".5" clip-path="url(#b)" fill="#142c3f"/><path d="M309.4 557.1c-3-.7 8.3-7.9 25.5 7.9.1-.1.5-3.3-25.5-7.9zM246 453.9l42 32s21.5 7 57 24c0 0-50-18-58-20.5s-41-35.5-41-35.5z" opacity=".7" clip-path="url(#b)" fill="#dcd8cb"/><path d="M385.2 475.6s-21.9-4.4-28.3-28.5c0 0 26.6 19.5 29.9 29.5M391.8 498.6s-17.7-6.7-21.3-20c0 0 21.3 13 21.3 20z" opacity=".5" clip-path="url(#b)" fill="#142c3f"/><g clip-path="url(#b)" fill="#032a4a"><path d="M523.6 870.1S421 798.5 423.4 757.7c0 0 .1 38.1 104.5 109.4"/><path d="M425.3 766.2s-15.5-21-4.2-21.1c11.3-.1 4.2 21.1 4.2 21.1zM435.9 783s-7.9-21.8 1.8-23.7c9.6-1.9 2.3 20.1-1.8 23.7zM444.9 798.2s-7.9-21.8 1.8-23.7c9.6-2 2.3 20.1-1.8 23.7zM433.6 784.9s-20.2-7.7-18.6 1.5c1.7 9.1 18.6-1.5 18.6-1.5zM444.3 797.1s-20.2-7.7-18.6 1.5c1.7 9.1 18.6-1.5 18.6-1.5zM459.5 816.3s-7.8-21.3 1.8-23.7c14.1-3.5 2.2 20.1-1.8 23.7zM458.9 815.2s-20.2-7.7-18.6 1.5 18.6-1.5 18.6-1.5zM474.7 830.7s-7.2-19.7 1.8-23.7c14.1-6.2 2.3 20.1-1.8 23.7zM474.1 829.7s-20.2-7.7-18.6 1.5 18.6-1.5 18.6-1.5zM490.9 843.2s-9.2-25 2.1-28.2c15.2-4.2 2.7 24-2.1 28.2zM490.3 842.2s-24-9.1-22.1 1.7c2 10.9 22.1-1.7 22.1-1.7z"/></g><path d="M456.7 856.8s0-1 8-6 2 0 12 1 8-10 19-16 14 2 19 4-1-7 12-3 26 15 26 15l13 9s-103 31-126 28" clip-path="url(#b)" fill="#032a4a"/><circle cx="210.6" cy="797.8" r="9" clip-path="url(#b)" fill="#579fdc"/><path d="M397.7 494.4s0-43.4 31.4-66.3l2.1 1.8s-27.5 19.8-30.7 64.2" clip-path="url(#b)" fill="#2a4f83"/><path d="M180.3 841.3l233.9 170-15.1-376-206.2-4c-7.8 0-14.2 8.4-14.2 18.7l1.6 191.3z" clip-path="url(#b)" fill="#5093c3"/><path d="M184.3 635.8l333.8-3.3 58.7-3.3-368.5-.8c0-.1-18-1.6-24 7.4z" opacity=".5" clip-path="url(#b)" fill="#f8eacc"/><path d="M375.5 635s-102.7 9.7-110.2 108.7C260.5 806 182 861.5 182 861.5L180.5 656s-1.5-18 12-19.5 183-1.5 183-1.5z" opacity=".5" clip-path="url(#b)" fill="#2a4f83"/><g clip-path="url(#b)"><path d="M134.2 759.9s25.8-27.2-21.7-53.5l-8.8-10.2-3.4 9.2-2.1-9.8s-8.1-.2-16.9-5c-8.8-4.8-7.8-2.9-7.8-2.9l-.8 8.9-6.2-10.6-13.9 2 2.7 9.7s-9-6.8-18.5 12c0 0 20.8-10.3 37.8.7l-12.4 2.4s12.5 2.9 20.4 16S94.3 740 94.3 740l7.7-2.4-4.4 6.7s19.9 16.7 34.8 17.3c0 0 61.4 138.8 78.3 211.1l5.2-1.4c0-.1-22.6-88.4-81.7-211.4z" fill="#2a4f83"/><path d="M149.2 856.7s10.1-18.9-11.5-28.7l-21.6-9.7-5.2 6.1-1.7-7.2-19.1-2 1.4 5.2S79.4 816 65 823.5c0 0 19-3.4 30.2 13.2s39.7 28.7 51.4 21" fill="#2a4f83"/><path d="M195.9 703.3s32.3-95 93-117.7l-10.4 2.6 1.3-3-12 2.8-1.5 5.3-1.8-4.8-36.4 18.7 2.9 8.6-4-.6s-46 38.7-46.3 76.1l5.9 2-9 4.1s.5 11.2 14.9 9.2c0 0-16.3 180.3-.2 258.3l4.4-1.2c-.1.1-12.6-136.6-.8-260.4z" fill="#032a4a"/><path d="M218.9 772s20.7-6.3 28.7-35c8.1-28.7 7.2-39.4 11.5-47.4l-8.9 3.9 10.2-8.8s6.4-11.7 11.6-13.1 22-11.2 53-10.9l-9.7-2 13-3.2s-22.1-3.6-44 2.9l2.7-9.8-26.6 7.1-1.1 10.9-2.5-8.4s-24.8 10.2-24.3 13.5l3 11.7-6.6-8.5s-12.3 13.2-15.4 29.1l10 13.4-13.4-8.9s-12.2 28-9.5 42.4c2.6 14.6 17 21.3 18.3 21.1z" fill="#032a4a"/><path d="M223.6 757.9s-25.6 114-20.2 209.6l-6.6.9s1.6-107.9 22.6-201.8" fill="#032a4a"/><path d="M205 966.5s8.5-112.9 21.1-170.2c0 0 23.2-42.9 81.7-43.9l11.3 11.2s1-19.1-31.3-14.5l2-3.3s-8.1 3-14.2 3.2c-6.1.2-4.3 4.3-10.3 5.1-6 .8-6.1.2-12.1 4.8-6.1 4.5-1.5-1.6-12.6 6-11.1 7.7-22.9 19.1-20.9 29.2l1.5 6.5-20.7 168.3 4.5-2.4z" fill="#032a4a"/><path d="M185.5 965.6s6.2-164.7-29.7-251.3c0 0-33.1-29.4-44.7-55.4l11.6-6.7-13.3.1s-20.3-16.2-20.5-29.5l9.9-1.9-13.5-3.9-9.3-21.5 5.3-1-6.2-3s-20.3-4.1-23.2-20l16.9 3 6.4 7 45 14.7-1.6 6.1 5.8-3.7s20.4 6.8 26.6 31.8l-2.1 8.8 10.6-.6s16.2 36.4 5.2 75.8c0 0 31.3 121.7 28.6 245.4M202 705s7.2 7.7 13.9-2 14.4-64.7 22.1-81.9c7.7-17.2 28.7-58.6 35.6-62.3 6.9-3.7-25 4.2-33.8 13.5l1.4 5.2-5.7-2.6-28.5 50.7 8.9 6.1-10.1.1S186 673 188 691.5c2 18.6 14 13.5 14 13.5z" fill="#2a4f83"/><path d="M208.4 692.7s-12.3 27.3-7.9 272.5l-8.6-3.5s3.3-219.3 12.4-265" fill="#2a4f83"/><path d="M159.7 719.8s-9-75-77-131c0 0 55 29 81.8 125.6l24.2 125.4-7-6-22-114zM134.2 759.9s-16.4-48.2-59.4-60.2c0 0 39 17 56 59" fill="#032a4a"/></g><path d="M229.2 857.6s10.2 2.4 14.7-4.9c4.6-7.3 15.4-11 18.7-6.1 3.3 4.8 17.7 10.9 24.7 10.5 7-.4 11.4 6.3 11.4 6.3s-4.2-2.8 6.7-5.4 13.1 1.2 11.3 5.3c-1.8 4.1-8.5 8.5 3.4 6.8 11.9-1.7 21.6-7.3 27-1.6 5.4 5.7 9.1 18.5 9.1 18.5s-13.9 18.9-89.2 15.4" clip-path="url(#b)" fill="#032a4a"/><path d="M278.8 857.8s-8.7-17.9-2.2-23.3c0 0 9.7 5.4 9.2 13.5 0 0 4.4-15.1 14.7-11l-1.1 13.8s7-8.1 14.6-4.3c0 0 1.6 14.6-15.1 16.8M240.7 859.9s-19.2-4.9-19.2-13.4c0 0 10.4-3.9 16.3 1.7 0 0-8.6-13.1 1-18.3l9.8 9.8s-1.6-10.6 6.1-13.9c0 0 12.2 8.2 3 22.4" clip-path="url(#b)" fill="#032a4a"/><path d="M254.7 849.9s9-19.1 13.8-15.3c4.9 3.8-1.1 28.1-1.1 28.1M473.9 858.3s-19.2-4.9-19.2-13.4c0 0 10.4-3.9 16.3 1.7 0 0-8.6-13.1 1-18.3l9.8 9.8s-1.6-10.6 6.1-13.9c0 0 12.2 8.2 3 22.4" clip-path="url(#b)" fill="#032a4a"/><path d="M487.9 848.3s9-19.1 13.8-15.3c4.9 3.8-1.1 28.1-1.1 28.1" clip-path="url(#b)" fill="#032a4a"/><circle cx="285.5" cy="855.9" r="4.8" clip-path="url(#b)" fill="#032a4a"/><circle cx="256.9" cy="844.1" r="6.9" clip-path="url(#b)" fill="#032a4a"/><path d="M410.8 415.9s-24.3 6.5-25.1 30.9c0 0 24.8-2.8 25.1-30.9zM404.4 387.8s-18.1 4.8-18.7 23.1c-.1-.1 18.4-2.2 18.7-23.1zM506.6 420.5s-9.6 16.1 2.8 29.6c0 0 11.8-14.4-2.8-29.6zM537.1 404.7s-16.3 9.4-12.1 27.1c-.1 0 17.3-6.8 12.1-27.1zM438.8 464.5s-26.5-5.8-39.3 17.3c-.1 0 25.2 9.6 39.3-17.3zM432.1 441.7s-18.8-.2-24.2 17.2c0 0 18.4 2.9 24.2-17.2z" clip-path="url(#b)" fill="#2a4f83"/><path d="M394.3 447s-17.9 25.8 1.1 49.7c-.1 0 21.3-22.7-1.1-49.7zM401.3 513.4s8.2-47.8 41.9-67.6 32.9-47.4 32.9-47.4l2 3.2s-3.6 26.4-26 41.6c-22.3 15.2-35.7 25.7-48.8 72.7" clip-path="url(#b)" fill="#2a4f83"/><path d="M427.3 458.5s17-12.5 33.4-.1c0 0-14.9 14.8-33.4.1zM447.8 444s17-12.5 33.4-.1c0 0-14.9 14.8-33.4.1zM468.4 428.1s9-12.9 23.6-8.1c0 0-7 14-23.6 8.1zM457.9 405.1s11.9 15 1.3 30.3c.1 0-13.8-13-1.3-30.3zM438.4 420.6s11.9 15 1.3 30.3c.1 0-13.8-13-1.3-30.3zM412.1 486.9s14.2-15.7 32.7-6.9c.1.1-11.6 17.5-32.7 6.9z" clip-path="url(#b)" fill="#2a4f83"/><path d="M385.7 366.3s-2.5-11.7 19-13.5c0 0 .2 15.2-17.9 20.3" clip-path="url(#b)" fill="#3bbcf4"/><path d="M385.7 369.5s-8.4-3.5-.2-17.8c0 0 9.6 6.5 4.9 20M426.7 432.4s-4.7-24.7 6-31.3c0 0 7.4 17.1-2.3 29.9" clip-path="url(#b)" fill="#3bbcf4"/><path d="M407.7 854.8s10 .5 10.5 4-6.5 6.5-6.5 6.5l-4-10.5zM431.2 856.3s7-.5 6.5 2.5-3 5-3 5l-3.5-7.5zM450.2 869.3s4.5-2 4 3l-.5 5-3.5-8z" clip-path="url(#b)" fill="#2a4f83"/><path d="M475.4 881.4s-.7 9-5.3 7c-4.7-2-6-5.3-6-5.3l11.3-1.7z" clip-path="url(#b)" fill="#c87e1b"/><path d="M464.2 883.3s17 2.5 32.1-11.9c0 0-14.5-10.7-30.8-5 0 0 14.5-3.8 6.3-22 0 0-15.7 4.4-17 16.4l-2.5-10.7-8.2 10.7s8.8-22 0-36.5l-9.4 8.8s7.5-12.6 1.9-20.8c0 0-14.5 9.4-14.5 20.8 0 0 0-14.5-10.1-21.4 0 0-8.2 18.9-4.4 28.3 0 0-5.7-16.4-14.5-17l-3.1 17s-.6-6.3-10.1-6.9c0 0-4.4 17.9 4.4 22.3l-17-2.2-6.3 8.2s13.8-20.1 5.7-33.3l-15.1 22.6s8.2-23.3 1.9-30.8l-9.4 10.1s3.1-15.7-13.8-32.1c0 0-13.8 17.6-4.4 37.7 0 0-21.4-8.2-30.8 5 0 0 4.4 10.7 18.2 11.3 0 0-12.6 8.2-14.5 20.8l12.6-1.9-1.9 9.4s-13.2 1.9-15.7 7.5l19.5 6.3s-13.2 3.8-17 20.8c0 0 15.1 3.1 18.2-5l-1.3 22.6s23.9-13.2 27-27.7l3.1 10.7 6.3-15.1s-3.8 14.5 5.7 17.6l5.7-11.3 3.1 8.8s-10.7 10.1-10.7 17.6c0 0 13.8 3.8 15.7-7.5l6.3 11.3 3.1-15.7 23.9-3.8s17 17 25.2 15.7c0 0-3.8-17-10.1-17 0 0 10.7 1.9 13.8-1.3 0 0 13.2 11.3 19.5 5 0 0 4.4-13.2-18.2-14.5l5-5.7s12.6 15.7 23.3 10.1l-7.5-10.7 18.9-1.3s3.1-5.7-5.7-6.9l5.7-5.7-8.1-1.7zM790.8 879.8s-14.1-2.1-26.6 9.9c0 0 12 8.9 25.6 4.2 0 0-12 3.1-5.2 18.3 0 0 13-3.7 14.1-13.6l2.1 8.9 6.8-8.9s-7.3 18.3 0 30.3l7.8-7.3s-6.3 10.4-1.6 17.2c0 0 12-7.8 12-17.2 0 0 0 12 8.3 17.7 0 0 6.8-15.7 3.7-23.5 0 0 4.7 13.6 12 14.1l2.6-14.1s.5 5.2 8.3 5.7c0 0 3.7-14.9-3.7-18.5l14.1 1.8 5.2-6.8s-11.5 16.7-4.7 27.6l12.5-18.8s-6.8 19.3-1.6 25.6l7.8-8.3s-2.6 13 11.5 26.6c0 0 11.5-14.6 3.7-31.3 0 0 17.7 6.8 25.6-4.2 0 0-3.7-8.9-15.1-9.4 0 0 10.4-6.8 12-17.2l-10.4 1.6 1.6-7.8s11-1.6 13-6.3l-16.2-5.2s11-3.1 14.1-17.2c0 0-12.5-2.6-15.1 4.2l1-18.8s-19.8 11-22.4 23l-2.6-8.9-5.2 12.5s3.1-12-4.7-14.6l-4.7 9.4-1.9-5s8.2-10.6 8.2-16.9c0 0-11.6 1.8-13.2 11.2l-8-9.3.3 13.3-5.7-5.3s-28.2-10.9-35-9.9c0 0 3.1 14.1 8.3 14.1 0 0-8.9-1.6-11.5 1 0 0-11-9.4-16.2-4.2 0 0-3.7 11 15.1 12l-4.2 4.7s-10.4-13-19.3-8.3l6.3 8.9-15.7 1s-2.6 4.7 4.7 5.7l-4.7 4.7 6.9 1.6z" clip-path="url(#b)" fill="#032a4a"/><path d="M493.7 881.8s209-74 360 17" clip-path="url(#b)" fill="#fffffc"/><g clip-path="url(#b)" fill="#032a4a"><path d="M865.6 882.2s13.7-108.8 47.8-127.7c0 0-30.5 16.1-43.5 129.9"/><path d="M907 759.2s10.3-21.2 15.2-12.3-15.2 12.3-15.2 12.3zM898.1 774.2s14.1-15.5 19.7-8.6c5.7 6.9-15.1 10.3-19.7 8.6zM890.2 789.8s14.1-15.5 19.7-8.6c5.7 6.9-15.1 10.3-19.7 8.6zM896.8 774.3s-2.4-19.4-9-14.3 9 14.3 9 14.3zM889.2 788.4s-2.4-19.4-9-14.3c-6.6 5.2 9 14.3 9 14.3zM881.6 808.1s13.8-15.2 19.7-8.6c8.9 9.9-15.1 10.3-19.7 8.6zM882.2 806.9s-2.8-22.9-10.6-16.8c-7.8 6.1 10.6 16.8 10.6 16.8zM876.5 826.3s12.8-14.1 19.7-8.6c10.9 8.8-15.1 10.4-19.7 8.6zM877.1 825.5s-2.4-19.4-9-14.3c-6.6 5.2 9 14.3 9 14.3zM873.2 841.9s16.2-17.9 23.5-10.2c9.8 10.4-18 12.3-23.5 10.2z"/><path d="M873.9 843.7s-2.8-23.1-10.7-16.9c-7.9 6.1 10.7 16.9 10.7 16.9z"/></g><path d="M367.1 591.8s2-2 13.3.7 10.7.7 16.7 5.3c6 4.7 24.7 16.7 24.7 16.7l-24.7.7" clip-path="url(#b)" fill="#2a4f83"/><path d="M252.7 631.8l260-3.5s-15-3-40.5-12-22.5-10.5-46.5-13.5-21-4.5-40.5-1.5-13.5 3-39 7.5-25.5 3-46.5 7.5-47 15.5-47 15.5zM401.2 512.8s2-19 20.5-19c0 0-1 21-20.5 19zM68.7 587.8l-16.9-16.3s6.9-6.7 19.9 6.3" clip-path="url(#b)" fill="#2a4f83"/><path d="M413.7 601.8s17 1 28 4 64 21 64 21l-36 1-56-26z" clip-path="url(#b)" fill="#0d77be"/><path d="M450.7 459.8s49 10 74-29c0 0-7.9 47.5-84.9 29.7" clip-path="url(#b)" fill="#2a4f83"/><path d="M509.7 450.8s17 8 27-9c0 0 3 17-37 15" clip-path="url(#b)" fill="#2a4f83"/><circle cx="324.7" cy="862.8" r="3" opacity=".4" clip-path="url(#b)" fill="#dcd8cb"/><circle cx="358.1" cy="880.4" r="1.4" clip-path="url(#b)" fill="#dcd8cb"/><circle cx="404.7" cy="854.8" r="3" clip-path="url(#b)" fill="#dcd8cb"/><circle cx="385.7" cy="868.8" r="3" opacity=".5" clip-path="url(#b)" fill="#dcd8cb"/><circle cx="908.7" cy="898.8" r="3.5" opacity=".7" clip-path="url(#b)" fill="#dcd8cb"/><circle cx="407.4" cy="876.8" r="1.4" opacity=".4" clip-path="url(#b)" fill="#dcd8cb"/><circle cx="312.7" cy="868.8" r="1.4" opacity=".4" clip-path="url(#b)" fill="#dcd8cb"/><g opacity=".4" clip-path="url(#b)" fill="#032a4a"><path d="M528.7 852.8S454 749.5 479 714c0 0-25.1 21.6 51 134.1"/><path d="M475.5 722.6s-7.2-27.1 4.2-22.7c11.3 4.2-4.2 22.7-4.2 22.7zM476.8 746.9s.7-24.9 11.1-23c10.5 1.9-5.6 21-11.1 23zM482.1 765.2s.7-24.9 11.1-23-5.6 21.1-11.1 23zM476.4 744.5s-17.2-15.7-19.1-5.9c-2 9.8 19.1 5.9 19.1 5.9z"/><path d="M482.3 764.3s-17.2-15.7-19.1-5.9c-2 9.8 19.1 5.9 19.1 5.9zM492.8 787.7s.7-24.4 11.1-23c15.6 2.2-5.6 21.1-11.1 23zM491.7 785.5s-17.2-15.7-19.1-5.9c-2 9.8 19.1 5.9 19.1 5.9zM501.3 807.2s.6-22.6 11.1-23c16.6-.6-5.6 21-11.1 23zM501.2 805.9s-17.2-15.7-19.1-5.9c-2 9.8 19.1 5.9 19.1 5.9zM512.6 826.1s.7-28.6 13.3-27.3c16.8 1.7-6.8 25-13.3 27.3zM512.4 824.8s-20.4-18.6-22.7-7c-2.3 11.6 22.7 7 22.7 7z"/></g><path d="M413.4 469.1s16.1-11.9 25.4-4.6c0 0-6.7 11.3-13.4 14.6l11-14s-6-3.3-23 4zM395.4 450.4s16 12.8 5.3 42.8c0 .1 4.7-24.1-5.3-42.8zM458.8 450.5s16.6 1.9 21.9-6.1l-24.6 4.7" clip-path="url(#b)" fill="#dcd8cb"/><path clip-path="url(#b)" fill="#3bbcf4" d="M413.2 269.8h402v1.5h-402z"/><path clip-path="url(#b)" fill="#3d72a3" d="M838.7 418.4l-9.3 44h-5.3l7.3-43.3z"/><path opacity=".5" clip-path="url(#b)" fill="#223f6c" d="M745.4 193.1l-8.7 74.7 9.4.6z"/><path opacity=".7" clip-path="url(#b)" fill="#2a4f83" d="M635.4 136.4l-10 132h9.3z"/><path opacity=".3" clip-path="url(#b)" fill="#223f6c" d="M784.4 418.4l-16.7 43.4h51z"/><path d="M101.4 620.8l-12.4 2s-1.2 9.9 9.5 18.5l-8-17 10.9-3.5zM215.9 631.7l-10.1.1s-14.6 32-15.6 44.5l16-43 9.7-1.6z" clip-path="url(#b)" fill="#5093c3"/><path d="M218.7 770.4s6-51.3 20.7-74c0 0-14.3 35.8-18.5 75.6" clip-path="url(#b)" fill="#2a4f83"/><path d="M260.1 689.6s-7 23.5-8.4 34.9c-1.3 11.3-6 29.3-17.3 37.3 0 0 13.3-18.7 15.3-38.7s10.7-34 10.7-34l-.3.5z" clip-path="url(#b)" fill="#5093c3"/><g><path d="M134.6 762.4s27.4-25.6-18.4-54.7L108 697l-4 9-1.5-9.9s-8.1-.7-16.5-6c-8.5-5.3-7.6-3.4-7.6-3.4l-1.3 8.8-5.6-10.9-14 1.1 2.1 9.9s-8.6-7.3-19.2 10.9c0 0 21.3-9.1 37.7 3l-12.6 1.7s12.3 3.7 19.4 17.2c7.1 13.5 11 11.8 11 11.8l7.9-2-4.8 6.4s18.8 17.9 33.7 19.4" fill="#2a4f83"/><path d="M136.6 772.4c-14.4-43-52.3-62.3-52.3-62.3 38.9 14.7 56.6 64.5 56.6 64.5l12 26.5-8-8.8-8.3-19.9z" fill="#032a4a"/></g><path d="M556.4 282.6H413.3c-1.9 0-3.5-1.6-3.5-3.5s1.6-3.5 3.5-3.5h143.1c1.9 0 3.5 1.6 3.5 3.5s-1.6 3.5-3.5 3.5z" fill="#ffb700"/><g><defs><path id="c" d="M522.2 870.8s179-54.7 316.6 17.8l-4-633h-418l-36 314 141.4 301.2z"/></defs><clipPath id="d"><use xlink:href="#c" overflow="visible"/></clipPath><path d="M493.5 880.8s209-74 360 17" clip-path="url(#d)" fill="#fffffc"/><path d="M609.5 615.8s10 7 10 19l-9 22s6-25-1-41z" opacity=".7" clip-path="url(#d)" fill="#031826"/><path d="M627.8 652.1s45.3-9.8 71-.3l1.2 3s-23.3-7.8-72.2-2.7z" clip-path="url(#d)" fill="#e8e6e2"/><path d="M762.2 584.7c-.8 1.9.2 81.4 2.8 109.6 3.2 34.6-21.5 159.5-21.5 159.5l-1 3 12 1s45-126 36-186c-5.2-34.4 2.9-97 5-125 4.7-62.3-46.5-77-46.5-77" clip-path="url(#d)" fill="#032a4a"/><path d="M519.8 480.1s14.2-6.3 15.7 53.7l44 1s24 91-7 202c0 0 107 38.5 161 8.5l3 3.5 19-154 5 38s23.5-3.3 36.5-17c0 0 1.6-22.8 3.5-59 2-37.7 10-68-52-88.5 0 0-56.8-12.5-78.3-16.5-34.3-6.3-40.3-16.6-79.7-1-43 17-70.7 29.3-70.7 29.3z" clip-path="url(#d)" fill="#053251"/><path d="M746.5 424.1s-13.3 40 6 46.7c0 0 21 42-50 33 0 0-48.4-20.5-36-53.3 0 0 24.7 9.7 23.3-21" clip-path="url(#d)" fill="#dcd8cb"/><path d="M529.5 489.3c4.3 7 5 44.5 5 44.5l45-2c9.3-7.9 17.3 121.8-7 194-15.6 46.5 2 95 2 95L745.8 708l13.3-92.7 1.3 15.3 30.7-5.7s9.7-64.7 4.7-93.2c-5.7-31.8-17.9-54.1-38.3-36-10.4 9.2-46.7 19.9-59 9-1.4-1.2-19.8-20-20.7-18.3-8.2-6-22-32.7-13.3-34.7 0 0-36-7.3-51.3-2.7-15.3 4.7-83.7 39.7-83.7 39.7" opacity=".7" clip-path="url(#d)" fill="#031826"/><path d="M754.5 626.8c5.4-.8 18.6 2.7 34-4 1.1-.5 4.3-3.8 4-2.7-2.5 10.2.3 22.6 1.3 60.7 1 37-28 162.5-28.8 165l-2.7-12.5.7.7c-.4 1.4-.4 8.8-.6 7.3-2.1-15.2-17.2-96.9-11.7-128.5l.8-3.8c1-4.8-4.5-7.5-3.1-12.2 1.9-6.1 11.6-24.7 11.7-67.1.1-.7-6.3-2.8-5.6-2.9z" clip-path="url(#d)" fill="#dcd8cb"/><path d="M781.5 619.8s-2.5 58.6 1 86c3.5 27.5-23 145-23 145v-1s-25.7-92-11-146c10.9-40.1 9-87 9-87l24 3z" opacity=".8" clip-path="url(#d)" fill="#98b1b7"/><path d="M748.7 762.7s18.8 34.1 25.8 39.1l-13 61-15.7-1.5 2.9-98.6z" clip-path="url(#d)" fill="#032033"/><path d="M646.5 446.1s.3 97.4-72 254.7c-5.4 11.8-17.1 45-22 57-10.5 25.5-16.5 89.5 2 123l31-12 54.3-8.3c21.3 15.7 50.6 18 68.2 2.8l37.7-1.8s11.5-54.3 5.8-73.7c-5.7-19.3 7-132 8.3-165 1.2-30.4 14.2-123.5 5.2-147.5l-10.5-4s16.5 78.5-19 98c-44.4 24.4-74 17.5-79-31.5s7-89.5-1-91.5c0 0-4-4.2-9-.2z" clip-path="url(#d)" fill="#2a4f83"/><path d="M756.5 482.8s18.3 53.8-1 93c-18.1 36.7-43.5 88.5-54 123S686 758 679.8 783.1s-22.3 67.7-22.3 67.7l-74 13-39 11c-10-38 33.3-149.4 39.8-172.6l41.1-146.3s16.3-111.8 22.1-99.1c5.8 12.7-3 119 35 123 25.6 2.7 78.7 7 74-97z" opacity=".3" clip-path="url(#d)" fill="#031826"/><path d="M522.5 479.8s-44.6 18-56.7 25c-27.3 16-71.7 25-73.7 62 0 0 4.2 3.8 9.3 5 10.2 2.3 135-43 135-43s-2.9-50-13.9-49z" clip-path="url(#d)" fill="#dcd8cb"/><path d="M533.5 493.8l-88 40s26.3-1.6 44.3-3c25.3-2 32.2-1.5 32.2-1.5l16.5.2s-7.7-31-5-35.7z" opacity=".8" clip-path="url(#d)" fill="#98b1b7"/><path d="M523.5 872.8s174-53 315 15l-4-633h-418l-36 314 143 304z" clip-path="url(#d)" fill="none"/><path d="M409.5 571.8c86.3 12.3 131-12 131-12 4 10 15.2 22.9 15.2 22.9l34.8-17.9c-5-8-21-35-49-36s-35 7-67 4-60 3-60 3" clip-path="url(#d)" fill="#dcd8cb"/><path d="M525.8 634.5s7-31.3 42.3-36.3c0 0 22.7-3.3 37.7 11.3s18.7 34.7 22 42.7c0 0 32.3-9.3 71-.3 0 0 5 6 2.7 8 0 0-45.7-14.3-92.3 28 0 0-26.3 30-65.7 1 0-.1-34.3-26.8-17.7-54.4z" clip-path="url(#d)" fill="#ffb700"/><path d="M531.2 638.1s-10.7-12 8.7-38.3c19.3-26.3 38.3-30.3 68.7-19.3s14 55 10 60.3l9.7 14.3s35-74.3-24.7-87.7-77.1 28.6-83.3 43c-10 23 6 64 15.3 70.3" clip-path="url(#d)" fill="#ffb700"/><path d="M593.5 603.8c-19.2-6.7-52.9 1-64.2 24.8 3.7-32.9 28.2-44.8 28.2-44.8l-4-6c-54.3 40.7-28.7 91.3-28.7 91.3 1.4-1.3.7-.4 1.3 1.3 8.5 24.8 29.5 28.6 44.7 30 5.3.5 8.4 2.9 5.7-1.7-27.9-45.9 13-91 13-91l4-3.9zM593.5 565.8s30.7 2 35.3 23.3c4.7 21.3-7.3 45.3-7.3 45.3s15.5-51.2-24.5-57.2" clip-path="url(#d)" fill="#c47312"/><path d="M583.5 554.8s14 19 14 25-8 0-14 3-9 5-15 7-24.7-9.3-27.7-29.3M508.5 529.8s56-6.3 74 25c0 0-8.7-31-74-25z" clip-path="url(#d)" fill="#dcd8cb"/><path d="M582.8 693.8s-10 6.7-36.7-4c0 0 28 22.7 54.7 2.7" clip-path="url(#d)" fill="#ffb700"/><path d="M544 576.3s-1.4 10.8 4.9 13.9l6.7-5.3s-6-4.2-9.1-10l-2.5 1.4z" opacity=".9" clip-path="url(#d)" fill="#874b0a"/><path d="M745.5 442.8s-20 32-17 63c0 0-31.3 19.3-63.3-25.7l-6.7-24.7s29 7.3 31-14.7l56 2.1z" clip-path="url(#d)" fill="#6f8a8e"/><path d="M397.5 571.8s13.7-.3 19 1c5.3 1.3 70 10.7 123-13.3-2.3-4.5-7.4-6.8-12.2-5.4-18.1 5-67.1 10.1-120.8-4.2-4.5-1.2-11.1 7.1-12 11.6-1.4 6.9-5.5 13.2 3 10.3z" opacity=".8" clip-path="url(#d)" fill="#98b1b7"/><path d="M561.2 586.8s3.3 7.3 8 6.7c4.7-.7 2-8 2-8s.7 8 6 5.3.7-9.3.7-9.3 6 9.3 8.7 6.7c2.7-2.7 1.3-11.3 1.3-11.3" clip-path="url(#d)" fill="#dcd8cb"/><path d="M557.4 577.7l17.2-7.5c5-2.2 10.8.1 12.8 5.1.8 1.9 1.2 3.8 1 5.4-.7 5.3 2.7 13.3-8 5.3 0 0-2 10.7-9.3 3.3 0 0 3.3 9.3-7.3 2.7-7.6-4.7-9.8-5.8-10-8.5-.3-2.4 1.3-4.8 3.6-5.8z" opacity=".6" clip-path="url(#d)" fill="#98b1b7"/><path d="M533.8 528.8s-19.8 4-16 26c3 17.1 15.3 9.3 15.3 9.3s-24.7 21.7-25.2-10.8c-.4-32 21.9-25.2 25.9-24.5z" clip-path="url(#d)" fill="#2a4f83"/><g clip-path="url(#d)"><path d="M731.6 307.4c.4-1.1-59.4-13.5-67.7 49l11.5 10.4c-.1 0 36.4-62.5 56.2-59.4z" fill="#031826"/><path d="M667 340.7s29.2-72.8 91.7-36.5c21.5 12.5 31.3 58.9 40.7 77.7 13.3 26.5 13.9 94.9-50.5 83.7-11.7-2-8.9-23.9-8.9-23.9s36.5-57.3 15.6-93.8-88.6-7.2-88.6-7.2z" fill="#031826"/><path d="M724 293.9s-23.6 47.9-37.2 66.7c-10.4 14.4-13.1 37.8-3.1 75 0 0-43.8 1.2-39.9-43.8 3.4-40.6 40.6-108.3 80.2-97.9z" fill="#031826"/><path d="M705.7 326.1c-16.4 1.7-31 16.1-33.5 32.4-4.2 27.1-3.6 86 27.6 99.5 21 9.1 39.6-11.5 50.9-31.8 8-14.4 13.9-48.1 17.1-68.8 1.8-11.8-5.2-23.1-16.5-27-10.7-3.6-25.9-6.3-45.6-4.3z" fill="#dcd8cb"/><path d="M709.5 342.8s-13.6 32.7-10.2 46.3c0 0-2.4 7.5-3.7 15-1.4 7.5-4.5 16.5-.7 17 5.4.7 7.2.5 5.8 9.5-.8 5.4 1 8.5-2.7 9.9-4.8 1.7-5.4 12.6 3.4 18.7 0 0-27.9-.3-26.5-63.6 0 0-4.2-37.9 6.7-44.7s27.9-8.1 27.9-8.1z" fill="#8eb1ba"/><path d="M773.3 338.7c8.3 42.7-12.5 78.1-12.5 78.1 13.5-34.4 5.2-30.8-9.4-49-12.5-15.6-4.2-39.6-4.2-39.6" fill="#031826"/><path d="M764.3 384.8s9.6-6.6 7.9 2.6c-2.4 13.4-15.3 21.2-15.3 21.2" fill="#dcd8cb"/><path d="M751.4 367.9s11.5 11.5 4.2 35.4c0 0 11.5-11.5 11.5-34.4" fill="#031826"/><circle cx="760.1" cy="405.7" r="3" fill="#ffb700"/><path d="M710.1 384.5s18.9-.1 29.2 1.2c3.1.4 6.5 3 6.7 6.1l.1 1.1c.1 2.1-.3 4.2-1.3 6-2.4 4.4-6.7 13-9.3 13.8-3.5 1-20 .3-23.8-2.6-2.9-2.3-4.6-9.5-6.2-14.2-1.1-3.4-.2-7.3 2.5-9.7.5-.6 1.5-1.5 2.1-1.7z" fill="#031826"/><path d="M712.4 390.6c-1.8.2-3 1.9-2.6 3.7 1 4.7 2.1 11.8 3.9 13.7 2.5 2.5 17 2 18.5 1 1.3-.9 5.8-7.7 5.9-14.9 0-2.1-.4-2.8-2.5-3.1-5.5-.7-17.6-1-23.2-.4z" fill="#dcd8cb"/><path d="M696.2 382.8s-20.3-3.4-30.8-3.6c-3.2 0-5.9 2.2-6.5 5.4l-.2 1.1c-.4 2.1-.2 4.2.5 6.2 1.8 4.8 5.3 13.4 7.7 14.5 3.4 1.5 20.8 3.5 24.9 1.1 3.3-1.9 4.9-8.8 7.1-13.3 1.6-3.3 1.2-7.3-1.2-10.1-.4-.6-.9-1.1-1.5-1.3z" fill="#031826"/><path d="M692 388c1.8.5 2.8.3 2.1 2-1.6 4.6-3 13.6-5.1 15.2-2.9 2.2-15.1.9-16.5-.3-1.2-1-7-8.6-6-15.8.3-2.1 2-2.6 4.1-2.6 5.6-.1 15.8 0 21.4 1.5z" fill="#dcd8cb"/><path d="M695.5 383.8l16 1s-4.3 3.3-3.3 10.1c0 0-8.9-6.3-11.5 1.6l-1.2-12.7zM749.8 309s5.7 19.3-14.1 36.5-76.6 48.5-76.6 48.5-5.2-19.3-3.6-27.6c1.6-8.4 41.2-71 94.3-57.4zM741.3 387.7l24.2-5.8-1.6 4.7-20.3 10.4" fill="#031826"/><path d="M698.3 392.4s-8.9 21.6-5.5 25.3c3.4 3.6 9.1 2.3 7.8 10.2v1.8l10.2-4.2-5.7-32.3c-.1-.1-2.9-1.9-6.8-.8z" fill="#dcd8cb"/><path d="M691.7 374.5s-16.3 14.6-16 27.8c0 0-19.5-16.3 0-29.9" fill="#031826"/><path d="M688.4 433c.1.9 4.3.9 8-1.7 3.3-2.3 4.7-.1 5.9.7 0 0 3.5-2.6 6.3.5 5.9 6.5 10.5 3.1 10.5 3.1s-4.6 6.9-16.3 7.3c-8.6.2-14.4-9.9-14.4-9.9z" opacity=".6" fill="#223f6c"/><path d="M681.1 386.6s-2 1.2-3.6 7.1c-.4 1.5-1.9 5.4-1.8 8.6 0 2.2-1.5 2.9-.7 3.6l7.2.6 6-.6 1.5-1.4 2-5.1 2.8-11-6.8-1.2-6.6-.6z" fill="#8eb1ba"/></g></g><g><defs><path id="e" d="M863.5 27H1000v645H863.5z"/></defs><clipPath id="f"><use xlink:href="#e" overflow="visible"/></clipPath><g clip-path="url(#f)"><path d="M993.9 262.5h-86.2c-6.8 0-12.3-5.5-12.3-12.3 0-6.8 5.5-12.3 12.3-12.3h86.2c6.8 0 12.3 5.5 12.3 12.3 0 6.8-5.5 12.3-12.3 12.3zM936.7 155.1s-15.4-32.7 5.8-42.4c0 0 6.7 9.6 4.8 22.1 0 0 0-23.1 15.4-25 0 0 5.8 22.1-1 30.8 0 0 9.6-11.6 19.3-11.6 0 0 1 12.5-8.7 22.1M944.4 103.1s-7.7-22.1 4.8-27c0 0 6.7 23.1-4.8 27z" fill="#032a4a"/><path d="M935.7 125.2s-1.2-21.6-19.2-26.4c0 0-4.8 25.2 19.2 26.4zM961.7 119.4s-1-11.6 11.6-16.4c0 .1 3.8 12.6-11.6 16.4z" fill="#032a4a"/><path d="M895.6 161.9c2.1 19.6 10.3 60.4 43.1 76.8l65.7-1.4-1.4-89-97.8 2.5c-5.8.2-10.2 5.3-9.6 11.1z" fill="#2a4f83"/><circle cx="915.8" cy="174" r="4.2" opacity=".6" fill="#031826"/><circle cx="985.8" cy="180.1" r="5.8" opacity=".4" fill="#1b75be"/><circle cx="970.9" cy="222.1" r="5.8" opacity=".4" fill="#1b75be"/><path d="M950.6 144.1s-1.5-15.2 6.1-18.8c0 0-.1 10.5-6.1 18.8z" fill="#5093c3"/><path d="M932.8 133.6s1-18.3 10.6-21.2c-2.4.1-4.9 12.7-10.6 21.2z" fill="#3bbcf4"/><path d="M930.1 93.1s.9-28.3-33.8-33.8c0 0-1.8 29.2 33.8 33.8z" fill="#032a4a"/><path d="M917.3 76.7s31.9 29.2 35.6 52.9c0 0-10.9-28.3-37.4-49.3" fill="#032a4a"/><path d="M912.7 150.2s35.4-.2 91.9-.7l-29.3 11.3-76.8-.4s-3.1-8.3 14.2-10.2z" fill="#3bbcf4"/><path fill="#032a4a" d="M969.7 258.8l37.5 73.5v-72.7"/><circle cx="938" cy="65.1" r="7.2" fill="#dcd8cb"/><circle cx="958.5" cy="98.2" r="3.7" opacity=".83" fill="#dcd8cb"/><path d="M944.8 99.3l2-19.5s-6.5-.5-2 19.5z" fill="#3bbcf4"/><path d="M975.3 160.8s-27 50-58 53c0 0 8.8 25.1 24.2 30.9l62.9-4.4 9.5-94.2-38.6 14.7z" opacity=".8" fill="#032a4a"/><circle cx="951" cy="207.8" r="5.8" fill="#2a4f83"/><circle cx="978.6" cy="171.7" r="5.8" fill="#2a4f83"/><path d="M907.7 237.9l103.5-1.4-2.7 3.8-104 .7c-1.8 0-2.5.7-1-.3l4.2-2.8z" opacity=".8" fill="#5093c3"/><path d="M1002.8 244.7h-39.2v11.8h39.2c4.8 0 8.6-2.7 8.6-5.9s-3.8-5.9-8.6-5.9z" fill="#5093c3"/><path d="M920.9 256.5h39.2v-11.8h-39.2c-4.8 0-8.6 2.7-8.6 5.9s3.8 5.9 8.6 5.9z" fill="#2a4f83"/><circle cx="959.3" cy="250.6" r="9.4" fill="#dcd8cb"/><circle cx="957.9" cy="250.5" r="9.4" fill="#032a4a"/><circle cx="977" cy="119" r="3.7" opacity=".7" fill="#dcd8cb"/><circle cx="974" cy="91.6" r="3.7" opacity=".54" fill="#dcd8cb"/><path d="M1002.8 574.6l-84.9.1c-6.1 0-11-4.9-11-11s4.9-11 11-11h76.9c6.1 0 11 4.9 11 11 0 6 3 10.9-3 10.9z" fill="#032a4a"/><path d="M907.8 493.2c2.8 18.7 10.3 48 36.7 61.2l59.6.6-1.2-79.4-82.2 2.1c-8 .3-14.1 7.5-12.9 15.5z" fill="#2a4f83"/><path d="M909.9 505s7.3 12.2 22 3.7 28.1-20.8 40.3-15.9 28.5 10.3 28.5 10.3v14.7s-22.4-16.4-33.4-15.2-37.8 26.9-52.5 15.9l-4.9-13.5zM966.8 389.3s23.6-34.2 27.9-31.4-13.4 33.2-28.6 34.9" fill="#032a4a"/><path d="M968.6 367.1s-8.5 73.7 6.4 109l-6.4-1.8s-10.2-61.4-1.8-104.4" fill="#032a4a"/><path d="M970.7 471.9s-6.7-48-39.9-68.8c-33.2-20.8-31.4-48.3-31.4-48.3l-2.1 3.2s2.8 26.5 24.7 42.3c21.9 15.9 34.9 26.8 46.6 74.1" fill="#032a4a"/><path d="M930.8 403.1s-4.2-24.3 1.1-28.9c5.3-4.6 4.2 21.2 1.4 30.7l-2.5-1.8zM944.2 415.8s-4.6-28.6 3.9-25.4c8.5 3.2.4 30.3.4 30.3l-4.3-4.9zM961.5 451.8s-15.9-26.8-24.7-22.6c-8.8 4.2 28.2 28.9 28.2 28.9l-3.5-6.3zM965.1 388.6s-5.3-26.8-11.6-30.7 6.7 31.1 11.3 34.9l.3-4.2zM918.5 393.9s-6-20.5-1.4-20.5 6 25.4 6 25.4l-4.6-4.9zM933.3 407.7s-26.1-11.6-25.4-5.3c.7 6.4 27.5 7.1 27.5 7.1l-2.1-1.8zM982 478.2s0-43.4 31.4-66.3l2.1 1.8s-27.5 19.8-30.7 64.2" fill="#032a4a"/><path d="M991.2 445.8s26.5-13.1 30-8.5-21.5 14.8-30.7 11.6l.7-3.1zM999.6 430.6s22.6-9.9 24-4.6-26.5 8.1-26.5 8.1l2.5-3.5zM1000 427.1s5.6-36.3-.7-31.8c-6.4 4.6-1.4 33.9-1.4 33.9l2.1-2.1zM962.9 411.9s-24.7-24.3-16.9-26.1c7.8-1.8 18.3 24.3 18.3 24.3l-1.4 1.8zM912.1 390.4s-21.9-28.2-25.8-21.9c-3.8 6.3 25.8 21.9 25.8 21.9zM946 478.2s-7.8-28.2-20.1-30.3l-1.8 2.5s8.5.4 18.7 27.5l3.2.3z" fill="#032a4a"/><path d="M940.4 466.9s-3.2-24 2.5-21.9 0 27.5 0 27.5l-2.5-5.6zM965.4 430.6s16.9-47.3 21.9-38.8c4.9 8.5-21.2 41.6-21.2 41.6l-.7-2.8zM968.9 458.1s6.7-44.5 17.3-37.4c10.6 7.1-16.6 45.2-16.6 45.2l-.7-7.8zM956.6 434.1s-3.9-23.3-.4-21.9 3.9 28.2 3.9 28.2l-3.5-6.3z" fill="#032a4a"/><path d="M983.9 333.4c-3.6-5.4-6.7 2.1-8.2 6.8.5-7.3-1.8-12.6-6.7-12.6-8.3 0 1.7 30 1.7 30s18.1-16.8 13.2-24.2z" fill="#dcd8cb"/><path d="M984.2 476.3s-36.3 57.3-58.3 52.5c0 0 10.9 20.6 24.5 25.4l56-2.8 1.5-74.3-23.7-.8z" opacity=".8" fill="#032a4a"/><path d="M921.4 476.5s35.4-.2 85.8.3l-5.3 7.3-93.3 1.2c0 .1-2.6-7.4 12.8-8.8z" fill="#3bbcf4"/><path fill="#032a4a" d="M969.7 573.8l37.5 73.5v-72.7"/><path d="M921.6 552.6l90-.3v2.5l-97-.6c2.1-1 4.5-1.6 7-1.6z" opacity=".8" fill="#5093c3"/><path d="M971.9 382.1s13.4-26.2 22-24l-22 24zM971.9 415.5s8.2-24.7 11.3-23.2c1.1.5-11.3 23.2-11.3 23.2z" fill="#3bbcf4"/><path d="M953.8 443.8s-10-18.5-16-14.5c-1.5 1 16 14.5 16 14.5zM974.6 438.1s7.3-24.9 11.6-17.4" fill="#5093c3"/><g><path d="M1004.1 560l-56.2.1v9.1l56.2-.1c4.4 0 8-2.1 7.9-4.6 0-2.5-3.5-4.5-7.9-4.5z" fill="#2a4f83"/><path d="M926.9 569.3l24.2-.1v-9.1l-24.2.1c-4.4 0-6.1 2.1-6.1 4.6s1.7 4.5 6.1 4.5z" fill="#5093c3"/></g></g></g></svg>