<svg xmlns="http://www.w3.org/2000/svg" enable-background="new 0 0 1000 435.9" viewBox="0 0 1000 435.9"><path fill="#000e41" d="M609 230.4c-2.5 9.5 2.3 18.7 6.8 26.8.8 1.4 1.6 2.9 2.4 4.2 2.2 3.6 6.1 5.8 10.3 5.8h19.7V251L609 230.4z"/><path fill="#000e41" d="M624.1 189.5c-2.9.5-5.2 2.8-6.4 5.5-2.8 6.1-2 24.1-1.6 33.5.1 1.8.2 3.6 1.2 5.1 2 2.9 6.3 2.8 8.1-.2.8-1.4.9-3.1.9-4.7.5-10.5 3.7-27.6.8-35.3-.4-1.4-1.3-4.2-3-3.9z"/><path fill="#761a81" d="M670.5 191c-2 5.3-2.8 10.8-2.9 18.1 1.2-1.7 2.7-3.2 4.2-4.7l1.5.8c-1.3 3.8 1.6 5.8 2.7 7.6 1 1.7 1.3 3.8.8 5.6-.4 1.3-1.2 2.5-1.8 3.8-3.1 6.1-.9 9.5-3.2 12.3-.7.8-1.8 1.4-2.8.9-.1-.1-.2-.1-.3-.2.1 1.5.2 3.1.3 4.8v.4l4.2-1.3c3 2.6 4.3 4.6 6.2 3.1.4-1.1.6-2.3.7-3.5 3.7-37.7 1.5-40.4-9.6-47.7z"/><path fill="#000e41" d="M671.7 234.5c2.3-2.8.1-6.2 3.2-12.3.6-1.2 1.4-2.4 1.8-3.8.6-1.9.3-4-.8-5.6-1.1-1.8-3.3-4.8-2.7-8.5l-1.5.1c-1.5 1.5-3 3-4.2 4.7-.1 6.8.4 15.1 1 26.1.1.1.2.1.3.2 1 .4 2.2-.1 2.9-.9z"/><path fill="#000e41" d="M670.5 244.8c1.8 1.6 5.6.8 7.2-.4.8-.6 1.2-1.4 1.6-2.3-1.9 1.5-3.2-.6-6.2-3.1l-4.2 1.3c.1 1.6.3 3.4 1.6 4.5z"/><path fill="#761a81" d="M673.5 196.9c-.3-5.7-1.8-5.5-17.7-14.1-3.6-2-5.5-3.5-5.4-11.4l-15.1 3.5c.5 0 1.1 0 1.6.2 1.1.4 2 1.5 1.8 2.6l1.8 2.1c2.1 4.5 4.2 9.2 3.9 14.2-.5 7.3-6.2 13.2-7.4 20.4-.4 2.3-.2 4.8 1.3 6.5 1.5 1.8 3.9 2.4 6.1 3.1 2.6.9 5.2 2.3 6.9 4.4 3.4 4.4 2.6 10.6 1.6 16.1v.2l11.5 1.4c2.2-27 9.9-33.6 9.1-49.2z"/><path fill="#000e41" d="M651.4 228.6c-1.7-2.2-4.3-3.5-6.9-4.4-2.2-.8-4.6-1.3-6.1-3.1s-1.7-4.3-1.3-6.5c1.1-7.2 6.9-13.1 7.4-20.4.4-4.9-1.8-9.7-3.9-14.2l-1.8-2.1c.2-1.1-.7-2.2-1.8-2.6-.5-.2-1-.2-1.6-.2l-2.5.6c.6 2.5 1.2 5.3-.2 7.5-2.3 3.5-11.2 5.8-13.1 9.4-.4.8-.6 1.6-.6 2.5-.4 5.4 2.7 10.3 4.5 15.4 2.3 6.4 2.5 12.3 4.1 31.4l25.5 3.1v-.2c.9-5.6 1.7-11.9-1.7-16.2z"/><path fill="#ea0073" d="M648.5 228.4h-15.2c-2.8 0-5.1-2.3-5.1-5.1v-20.7c0-2.8 2.3-5.1 5.1-5.1h15.2c2.8 0 5.1 2.3 5.1 5.1v20.7c0 2.8-2.2 5.1-5.1 5.1z"/><path fill="#000e41" d="M627 165c-.3-2.1-.7-4.1-.8-6.2-.1-.8-.1-1.6.1-2.4.5-1.7 2.3-3.6 4-4.7 1.2-.7 2.7-1.2 4.1-1.1 1.4.1 2.9.8 3.7 2 .4.5.6 1.1.8 1.7.6 2 1.1 6.6.6 8.2-.8 2.5-6.7 6.6-9.7 7.6-.5.2-.7.3-1-.1-.2-.4-1.4-2.6-1.8-5z"/><path fill="#000e41" d="M635.8 156.5c.4-.4.9-.8 1-1.4.2-.8-.1-1.6-.5-2.3-.6-1-1.2-2-2.2-2.7-1.1-.8-2.5-1.1-3.5-1.9-1.5-1.3-2.5-1.9-3.3 1-1.7 7.5 3.8 11.4 8.5 7.3z"/><path fill="#041c6f" d="M651 155.6c-.4-1.3-.8-2.7-2.1-3.3-1.1-.5-2.4-.2-3.4.5-1.5 1-1.7 2.2-1.7 4.1.1 3.6 1.2 7.4 3.8 10 4.1 3.8 5.9-2.1 3.4-11.3z"/><path fill="#f8aad0" d="M637.8 151.6c5.8-.8 11.3 4.2 12.3 11.3.2 2.2.3 4.4.5 6.6.1 1.1.1 2.3.1 3.4-.1 4-1.3 8-3 11.6-.5 1.1-1.1 2.2-2.1 2.9-.8.5-1.7.6-2.6.7-.9.2-1.8.3-2.7 0-1.1-.3-2-1.3-2.8-2.2-6-6.8-6.5-11.1-8.4-20.1-1-7 2.9-13.4 8.7-14.2z"/><path fill="#f155a2" d="M644.1 187.9h-1.3c-1.5-.1-3-.9-4-2.1-1.9-2.4-1.6-5.9-3.5-8.2-.8-.9-2-1.7-2.4-2.8-.4-1.2.1-2.5.9-3.4.6-.8 1.5-1.5 1.8-2.5.5-2-1.3-3.4-1.2-7.2.1-2.3 1.2-3.2 2.2-3.3l-4.9-2.8c-.1 0-.2.1-.2.1-1.9 2.7-2.9 6.3-2.3 10.2 1.8 8.9 2.4 13.2 8.4 20.1.8.9 1.7 1.8 2.8 2.2.9.3 1.8.1 2.7 0 .3-.2.6-.2 1-.3z"/><path fill="#f155a2" d="M630 169.3c-.8-2.3-5-3.2-.6 5.2 1 1.9 2.1 2 2.7 1.4"/><path fill="#f8aad0" d="M650.3 166.4c.1-2.4 3.9-4.4 2 4.9-.4 2-1.5 2.5-2.2 2.1"/><path fill="#000e41" d="M629.9 158.3l1 6.7-1.1 2 .5 3.3-.5.6-.5-3.3-1.2-2.2-.9-6.3z"/><path fill="#000e41" d="M650.6 167.7l-.7-1-.4-2.7-.9-1.7-1.2-6.5.4.1c.9.1 1.6.7 1.9 1.5l.6 1.5c.3.9.4 1.8.3 2.7l-.4 2.4.4 3.7z"/><path fill="#000e41" d="M647.8 156c-5 1.8-11.5 3.7-16.9 3-4.1-.5-5.7-2.8-5.8-5 2.1 0 10.7-3.3 16.6-2.7 2.2.2 6.1 2.8 6.1 4.7"/><path fill="none" stroke="#f155a2" stroke-linecap="round" stroke-miterlimit="10" stroke-width="1.831" d="M642.7 169.7c1.6-.9 3.5-1.5 5.3-1.7"/><path fill="none" stroke="#f155a2" stroke-linecap="round" stroke-miterlimit="10" stroke-width="1.831" d="M638.5 170.3c-1.8-.4-3.7-.5-5.6-.1"/><path fill="none" stroke="#f155a2" stroke-linecap="round" stroke-miterlimit="10" stroke-width="1.831" d="M641 178.6c.8.1 1.7-.1 2.4-.5"/><path fill="#761a81" d="M591.4 228.5c1.7 2.7 4.7 10.5 5.6 15.7 1.6 9.8-2.5 16.4-7.8 18.6-3.6 1.5-7.7 1.1-11.5.6"/><path fill="#ea0073" d="M596.1 246.2c-.3-.2-4.8-16.1-4.8-16.1v-40.8l-13.6-10.9-5 1.6c-1 1.4-1.7 2.3-1.7 2.3-4.5 6.9-9.1 13.8-11.8 21.6-.4 1.1-.7 2.4-.5 3.5.5 2.9 3.9 4.1 6.8 4.6 7.3 1.4 8.2 4.1 6.9 8.5-2.1 6.9-6.1 13.8-4.7 20.9.4 2.3 2.3 6.3 4.2 10.4v-2c5.8-.8 24.4-3.5 24.2-3.6z"/><path fill="#000e41" d="M572.3 220.6c1.3-4.4.4-7.1-6.9-8.5-2.9-.6-6.3-1.8-6.8-4.6-.2-1.2.1-2.4.5-3.5 2.7-7.8 7.3-14.8 11.8-21.6 0 0 .7-.9 1.7-2.3h-.9v-2.6l-12.2 2.7-8 13.5c-1.8 4.5-2.4 9.4-1.9 14.2.9 7.7 3.3 8.3.4 21.5-2 9.3-4.2 19.6-1.2 28.6h23v-6.1c-1.9-4.1-3.7-8.1-4.2-10.4-1.4-7.1 2.6-14 4.7-20.9z"/><path fill="#000e41" d="M478.9 235.1h36.6v30.1h-36.6z"/><path fill="#f8aad0" d="M361.4 207.3l4.6-16.8c-2.7-2.6-9.8-5.9-13-7.4-2-.9-4.3-2.2-4.2-4.2h-9.1c-.5 1.5-1.2 2.9-2.1 4.3-2.5 4.1-5.9 7.7-8.2 11.9-1.1 2.1-2 4.6-1 6.7.9 1.9 3.1 2.9 5.1 3.5 2.1.6 4.3.9 5.9 2.2 3 2.3 3.3 6.8 2.1 10.4-1.2 3.6-3.7 6.5-5.6 9.8-1.9 3.3-3.2 7.2-1.9 10.8.3.9.8 1.7 1.3 2.4h7.9V237l22.9-5.9-4.7-23.8z"/><path fill="#f155a2" d="M336.1 227.8c1.9-3.3 4.3-6.2 5.6-9.8 1.2-3.6.9-8.1-2.1-10.4-1.7-1.3-3.9-1.7-5.9-2.2-2.1-.6-4.2-1.6-5.1-3.5-1-2.1-.1-4.7 1-6.7 2.3-4.2 5.7-7.8 8.2-11.9.8-1.3 1.5-2.8 2.1-4.3H335c.1 2-2.2 3.3-4.2 4.2-3.4 1.5-10.9 5.1-13.3 7.7-2.6 2.8-4 8.3-5 12-2.3 8.8-4.1 17.7-5.4 26.6-.4 2.7-.7 5.6.8 7.9 1.9 2.7 5.7 3.5 9.1 3.8 4.5.4 9.1.3 13.6-.3h4.9c-.6-.8-1-1.6-1.3-2.4-1.3-3.5 0-7.5 1.9-10.7z"/><path fill="#761a81" d="M348.9 179h-9.1c-.5 1.5-1.2 2.9-2.1 4.3-1.7 2.8-3.9 5.4-5.8 8.1 1.5 3.4 3.8 7.3 7.1 11.2 1.1 1.3 3 1.3 4.1 0 6.7-7.9 9.1-15.9 9.8-19.5-1.9-.9-4.1-2.1-4-4.1z"/><path fill="#3f1f84" d="M339.8 179H335c.1 2-2.2 3.3-4.2 4.2-.4.2-1 .4-1.5.7.4 1.8 1.2 4.5 2.6 7.5 1.9-2.7 4.1-5.3 5.8-8.1.8-1.4 1.5-2.8 2.1-4.3z"/><path fill="#fff" d="M366.9 241.2c3.4-.3 7.3-1 9.1-3.8 1.5-2.3 1.2-5.2.8-7.9-1.4-9-3.2-17.9-5.4-26.6-.9-3.7-2.4-9.2-5-12-.1-.1-.2-.3-.4-.4l-4.6 16.8 5 23.9-22.9 5.9v3.9h9.9c4.4.5 9 .6 13.5.2z" opacity=".45"/><path fill="#bac1cf" d="M625.2 204.9c1.8-.7 3.5-1.5 5.4-1.9 3.6-.9 9.2-.9 9.4-.8.2.1.1.4 0 .6-1.4 2.5-4.9.8-12.9 4.3l-1.9-2.2z"/><path fill="#bac1cf" d="M625.3 212.6c-.9-2.5-.2-5.1 1.5-5.7l6.2-1.6c.9-.2 1.8-.4 2.8-.5l5.7-.5c.6 0 1.1.3 1.1.9.2 1.1-.2 2.2-1 2.9l-3 2.9c-1.3 1.2-2.8 2.3-4.4 3l-4.1 1.9c-1.7.7-3.8-.8-4.8-3.3z"/><path fill="#bac1cf" d="M630.3 215.9c-1 1.6-2.1 3.3-3.7 4.5-3.3 2.6-6.9 1.6-7.8-.4.6-3.5 2.6-6.7 3.6-10.1.5-1.5 1-4.3 3.2-5l4.7 11z"/><path fill="#761a81" d="M621.4 225.4c0 2.6.1 5.1.1 7.7v.9l5.3.9-.9-14.3-3-.2c-.4.5-.8.9-1 1.5-.5 1.1-.5 2.3-.5 3.5z"/><path fill="#000e41" d="M615.6 233.1l5.9.9v-.9c0-2.6-.1-5.1-.1-7.7 0-1.2 0-2.5.5-3.6.2-.6.6-1.1 1-1.5l-4-.3-3.3 13.1z"/><path fill="#bac1cf" d="M640.9 228.6c-.5.9.2 1.9.9 2.6.6.6 4.5 4.6 5.3 4.9.9.4 2.3-.2 2.5-.6.4-.8-1.5-2.1-6.9-6.5-.5-.4-1.1-.8-1.7-.4"/><path fill="#f8aad0" d="M638.2 225.3c-.2.3-.2.8 0 1.1.5 1 5.8 5.5 10.3 8.1 2 1.2 2.5-.5 2.1-1.4-.3-.7-.9-1.1-1.5-1.5-10.3-6.9-9.7-6.6-10.2-6.6-.3 0-.6.1-.7.3"/><path fill="#f8aad0" d="M650.7 233.9l-11.8-9c-.9-.7-1-1.9-.2-2.7l.3-.3c.7-.8 1.9-1.1 2.9-.8l5.7 1.8c1.6.5 3.1 1.2 4.6 2.2l3.3 2.2-4.8 6.6z"/><path fill="#f8aad0" d="M659.7 231.9h7.9c3.6 0 6.2 3.3 5.4 6.8l-1.5 6.7-16.1-6.4 4.3-7.1z"/><path fill="#f8aad0" d="M659.7 231.9l-4.2-4.6-8 9 8 2.7z"/><path fill="#f155a2" d="M655.5 239l16.1 6.4 1.4-6.4c-.3-.2-.6-.4-.9-.5-2.6-1.1-5.5 1.1-8.3.8-2.5-.3-4.4-2.3-5.7-4.4-1.3-2.1-2.5-4.4-4.5-5.9-2.6-1.9-3 1.9-3.9 2.8-1.2 1.2-3.2.6-4.6-.3-2.6-1.6-4.9-3.8-6.5-6.4-.5.1-.8.8-.4 1.4.2.4 1.2 1.3 2.5 2.5-.2.8.4 1.6 1 2.3.6.6 4.5 4.6 5.3 4.9.1.1.3.1.4.1l8.1 2.7z"/><path fill="#f8aad0" d="M628.3 207.7c.1-1.7.3-6.8-.5-8.3-.3-.6-.8-1-1.4-1.1l-1.5 8.4 3.4 1z"/><path fill="#000e41" d="M545.7 224.8c1.6-11.5 1.5-14.8 4.6-18.4v-.3l15.1-17.3-2.2-12.9c-2.5 2.5-6 3.5-9.3 4.7-8.2 2.9-9.5 5.6-10.8 11.7-2.2 10.3-3.9 20.8-3.5 31.4.1 1.7.2 3.5.9 5.1 1.2 2.8 3.8 4.7 6.7 5.6 2.8 1 15.2 2.8 24.9 4.1l1-4.8c-10-2.3-22.5-5.4-25.9-6.2-1.2-.5-1.7-.9-1.5-2.7z"/><path fill="#ea0073" d="M549.3 223.3l1-16.9c-3.1 3.6-3 6.9-4.6 18.4-.2 1.8.3 2.2 1.5 2.5 3.3.8 15.8 3.9 25.9 6.2l.3-1.3-24.1-8.9z"/><path fill="#fff" d="M561.1 235.4l-1.8-3.1c-3.9 4.4-8.4 9.6-10.3 15.4.7-1.2 1.5-2.4 2.3-3.5 2.7-3.5 5.9-6.7 9.8-8.8z"/><path fill="#8a92a3" d="M568.9 259.8l1.9-8.3-2.7-4.5-.6 2.4c-.9 3.6-.9 7.7 1.4 10.4z"/><path fill="#000e41" d="M569.4 237.8c-.5-3.5-2.7-4.8-6.5-3.2-.6.3-1.2.5-1.7.8l6.9 11.6c.8-3.1 1.7-6.1 1.3-9.2z"/><path fill="#f155a2" d="M548.6 257.2c1.4 5.6 5.5 6.4 11.2 6.5 2.8.1 5.6.1 8.3-.6l.8-3.4c-2.3-2.7-2.3-6.8-1.5-10.4l.6-2.4-6.9-11.6c-3.9 2.1-7.1 5.3-9.8 8.9-.8 1.1-1.6 2.3-2.3 3.5-.9 3.1-1.2 6.2-.4 9.5z"/><path fill="#f8aad0" d="M573 232.7l3.6.1c2.2.1 4.3 1 5.9 2.6l3.4 3.5 1.8 1.3c.4.3.5.9.1 1.2-.5.5-1.3.7-2 .6l-10.8-2.1-3.2-1 1.2-6.2z"/><path fill="#041c6f" d="M365.8 234c.8 3.4 1.6 6.8 2.3 10.2.9 3.8 1.7 7.7 1.5 11.6-.5 8.3-5.4 13.4-15.2 13.1-3.7-.1-7.3-.9-11-.9v-29.9l22.4-4.1z"/><path fill="#041c6f" d="M324.3 256.6c2.8 1.5 5.6-.2 16.1-4.5h.1v-14l-17-3.1-.7 1.4c-1.5 5.2-3.3 17.7 1.5 20.2z"/><path fill="#000e41" d="M315.9 244.2c-.9 3.8-1.7 7.7-1.5 11.6.5 8.3 5.4 13.4 15.2 13.1 3.7-.1 7.3-.9 11-.9v-16h-.1c-10.5 4.3-13.3 6-16.1 4.5-4.8-2.5-3-15-1.5-20.2l.7-1.4-5.3-1c-.9 3.5-1.6 6.9-2.4 10.3z"/><path fill="#fff" d="M531 192.4c-1.7-7.8-2.7-7-25.3-18.8h-14.3c-22.6 11.8-23.6 11-25.3 18.8-2.6 12.4-3.6 25.4-2.7 38.6.1 1.6.1 3.1.8 4.5 1.3 2.6 4.2 4.2 7.1 4.8 2.4.5 3.8.4 27.2-2.9 23.4 3.3 24.9 3.3 27.2 2.9 2.9-.6 5.7-2.2 7.1-4.8.7-1.4.7-2.9.8-4.5 1-13.2 0-26.2-2.6-38.6z"/><path fill="#f155a2" d="M498.9 174l-.3-.4h-7.2c-22.6 11.8-23.6 11-25.3 18.8-2.6 12.4-3.6 25.4-2.7 38.6.1 1.6.1 3.1.8 4.5 1.3 2.6 4.2 4.2 7.1 4.8 1.7.3 2.9.4 11.6-.7-.1-1.6-.2-3.3 0-4.9.8-8.1 6.9-14.6 10.6-21.9 1.9-3.7 3-8.5.4-11.7-1.8-2.2-4.8-2.9-7.4-3.8-.8-.3-1.6-.6-2.2-1.2-1.7-1.8-.5-4.8.9-6.9 3.8-5.8 8.4-10.9 13.7-15.2z"/><path fill="#ea0073" d="M429.5 146.7c1.3.7 2.2 2 2.9 3.3 3.9 7.6 3.7 16.5 5.7 24.8 1.1 4.6 2.3 5 5.1 8 1.3 1.3 2.4 3 2.4 4.8 0 2.1-1.4 3-3.4 3.4-3.8.8-7.8.1-11.6-.7-2.6-.6-4.1-1.2-5.7-3.7-1.3-2-2-4.3-2.5-6.6-2-8.7-1.8-17.8.4-26.5.8-2.7 2.7-8.9 6.7-6.8z"/><path fill="none" d="M426.9 161.3c-1.3-.8-3-.7-4.5-.9-.9-.2-1.8-.6-2.4-1.3l-5 6.6c-2.1 7.7-1.7 16.1 1.1 23.6.2.6.5 1.3.8 2.1.4-.2.7-.5 1-.8 2.1-1.7 3.7-4.2 4-6.9.4-3.6-1.5-7-1.7-10.7-.4-4.7 2.4-9.6 6.7-11.7z"/><path fill="#ea0073" d="M412.8 151.9c-.1.4-.2.9-.1 1.3.3.6 1 .8 1.7.9.9.1 1.9.3 2.8.4 1.2.2 2.6.7 2.6 1.9 0 .3-.2.6-.3 1-.1.6.1 1.2.5 1.7l6.5-8.7c.3-1.7.1-3.5-1-4.7-.8-.8-1.9-1.1-3-1.3-1.7-.2-3.3.1-4.8.8-2.3 1.6-4.1 4-4.9 6.7z"/><path fill="#000e41" d="M404.9 195.2c.9 9.2 4.8 10.7 8.1 14.1 2.9 3 2.9 5.4 2.9 5.4 1.2-2.1 1.8-5 2.3-7.4 1.6-7.7.1-12.5-1.2-15.9-1.9 1.3-4 2.2-6.2 2.8-2 .5-4 .9-5.9 1z"/><path fill="#761a81" d="M415 165.7l5-6.6c-.4-.5-.6-1.1-.5-1.7.1-.3.2-.6.3-1 .1-1.2-1.4-1.7-2.6-1.9-.9-.1-1.9-.3-2.8-.4-.7-.1-1.4-.3-1.7-.9-.2-.4-.1-.8.1-1.3.8-2.7 2.6-5.2 4.9-6.8-2.3 1-4.3 2.7-5.7 4.8-2.3 3.4-3.3 7.6-4.1 11.7-1.7 8.8-2.8 17.7-3.2 26.6-.1 2.7-.1 5 .1 6.9 2 0 3.9-.4 5.8-1 2.2-.6 4.3-1.5 6.2-2.8-.3-.7-.6-1.4-.8-2.1-2.7-7.4-3-15.8-1-23.5z"/><path fill="#ea0073" d="M432.7 163.2l-10.6 1.8v18.8h10.6z"/><path fill="#082487" d="M409.7 167.1v16.7h12.4V165z"/><path fill="#f155a2" d="M430.7 161.5c.2-.2.3-.5.6-.6.4-.1.8.1 1 .4s.3.8.3 1.2c.1 1.9-.3 3.9-1.2 5.6-.2.4-.5.8-1 .7"/><path fill="#f155a2" d="M411.6 161.5c-.2-.2-.3-.5-.6-.6-.4-.1-.8.1-1 .4s-.3.8-.3 1.2c-.1 1.9.3 3.9 1.2 5.6.2.4.5.8 1 .7"/><path fill="#f8aad0" d="M413.3 189.7c2.4 2 5.5 3.1 8.8 3.1 7.1 0 13-5.3 13.8-12.2-1.4-.4-2.8-.9-4-1.7-1.7-1.1-3-3.1-2.7-5.1l-7.2.6.7.8c.9 6.8-4.3 10.2-9.4 14.5z"/><path fill="#f155a2" d="M414.3 174.6c.6 1.1.1 2.4-.7 3.3-.8.9-1.9 1.4-3 1.9-.8.4-1.6.7-2.3 1 .5 3.6 2.3 6.8 5 9 5.1-4.3 10.3-7.8 9.4-14.4l-.7-.8h-7.7z"/><path fill="#f8aad0" d="M421.1 151.4c-5.2 0-9.4 3.8-9.4 8.5-.1 2.6-.2 5.3-.2 7.9 0 1.4 0 2.8.4 4.1.8 2.5 3 4.4 4.8 6.3.7.8 1.3 1.6 2.2 2.2 1.7 1.1 4.1 1.1 5.7-.1.6-.5 1.1-1 1.6-1.6 1.7-2 3.4-4.1 4.5-6.6.9-2 .9-3.2.7-5.2l-.8-7c-.1-4.7-4.3-8.5-9.5-8.5z"/><path fill="#f155a2" d="M423.4 181c-.5-.1-.9-.1-1.3-.3-1.3-.5-2.2-1.7-3.1-2.8-1.8-2.2-3.8-4.5-4-7.4-.1-1.3.3-2.7.6-4 .6-2.5.9-5 .9-7.6l-3.3-3.6c-.9 1.3-1.5 2.9-1.5 4.6-.1 2.6-.2 5.3-.2 7.9 0 1.4 0 2.8.4 4.1.8 2.5 3 4.4 4.8 6.3.7.8 1.3 1.6 2.2 2.2 1.3 1 3 1.1 4.5.6z"/><path fill="#ea0073" d="M427.1 158.9c1.3 1.6 4.1 3.6 6.1 4.3.2.1.4.1.5-.2.2-.5.3-1.1.3-1.6 0-3.9-1.9-8.6-4.8-11.2-.3-.3-.7-.6-1.1-.7-.4-.1-.9-.1-1.3.2-.6.4-.4 1.5-.5 2.1-.4 4.4-.8 5.2.8 7.1z"/><path fill="none" d="M420.4 164.9s0 .1-.1.1"/><path fill="none" stroke="#f155a2" stroke-linecap="round" stroke-miterlimit="10" stroke-width="1.421" d="M419.9 174.5c.8.5 2 .5 2.8 0"/><path fill="none" stroke="#95122e" stroke-linecap="round" stroke-miterlimit="10" stroke-width="1.421" d="M423.4 166.7c1.4-.6 2.8-1 4.3-1.2.3 0 .7-.1.9.1"/><path fill="none" stroke="#95122e" stroke-linecap="round" stroke-miterlimit="10" stroke-width="1.421" d="M418.7 166.7c-1.4-.6-2.8-1-4.3-1.2-.3 0-.7-.1-.9.1"/><path fill="#761a81" d="M419.6 157.4c.1-.3.2-.6.3-1 .1-1.2-1.4-1.7-2.6-1.9-.9-.1-1.9-.3-2.8-.4-.7-.1-1.4-.3-1.7-.9 0-.1-.1-.2-.1-.3-.4.4-.7.8-1 1.2-.6 1-1 2.1-1.2 3.2-.3.3-.6.6-.8.9-.3.4-.7.8-.9 1.2-.3.6-.3 1.2-.4 1.9-.2 1.8-.3 3.7.4 5.4l.5.4c.2-1.4.9-2.8 1.7-4 .2-.4.4-.8.7-1.1 1.1-1.4 3-2.5 5.7-2.6h.8c.8 0 1.7.1 2.5.1-.9-.5-1.3-1.3-1.1-2.1z"/><path fill="#ea0073" d="M424.8 158.8c.8-.4.9-.8 1.1-1.7.3-2 .5-4 .5-6.1 0-.8.4-2-.4-2.3-.8-.4-1.5-.2-5.3.1-2.6.2-3.7.5-6.3 2.5-.6.5-1.2 1-1.8 1.6 0 .1 0 .2.1.3.3.6 1 .8 1.7.9.9.1 1.9.3 2.8.4 1.2.2 2.6.7 2.6 1.9 0 .3-.2.6-.3 1-.2.9.3 1.6 1 2.2 1.6 0 3-.1 4.3-.8z"/><path fill="#000e41" d="M402.7 202.4c.2-.5.5-1.1.7-1.6h1.6c.1-.4.2-.8.4-1.2 1.6-4.3 4.8-7.2 7.9-9.9-2.7-2.2-4.6-5.4-5-9-13 5.5-14.3 4-17.2 11.3-1.9 5-3.3 10.2-4.7 16.8l6.7 3.2c1.4-3.4 3.1-6.7 5.1-9.8l4.5.2z"/><path fill="#082487" d="M402.7 202.4l-4.6-.2c-2 3.1-3.7 6.4-5.1 9.8l4.7 2.3c1.5-4 3.2-8 5-11.9z"/><path fill="#f8aad0" d="M437.1 239.9l6.5 5.1c4.5-5.4 10.2-15.2 10.6-21.4.2-3.2-1.3-10.1-3-17.4-3.2 1.8-8.8 5.1-10.9 6.4l4.2 10.1-7.4 17.2z"/><path fill="#f155a2" d="M447.7 225.7c1.4-4.9 0-10.2-1.7-15.1-.1-.4-.3-.8-.4-1.2-2.1 1.3-4.2 2.5-5.3 3.1l4.2 10.1-7.4 17.2 2.1 1.6c2.3-3.6 4.4-7.3 6.4-11.1.9-1.4 1.7-2.9 2.1-4.6z"/><path fill="#041c6f" d="M444.3 205.9c0-.1-.1-.1-.1-.2.1 0 .1.1.1.2z"/><path fill="#082487" d="M442.9 202.1c.5 1.2.9 2.4 1.3 3.5 0 .1.1.1.1.2.4 1.2.9 2.4 1.3 3.6 2-1.2 4.1-2.4 5.6-3.3-.4-1.8-.9-3.7-1.3-5.5-2.2-9.5-3-14.8-6.8-17.5-2.1-1.5-4.7-1.9-7.2-2.6-.8 6.9-6.7 12.2-13.8 12.2-3.3 0-6.4-1.2-8.8-3.1-3.1 2.7-6.3 5.6-7.9 9.9-.1.4-.3.8-.4 1.2l18.3.3v-3.2h10.9l2.3 5.5c.2-.3.3-.6.5-.9l5.9-.3z"/><path fill="#041c6f" d="M436.5 203.3c.2-.3.3-.6.5-.9-.1.3-.3.6-.5.9z"/><path fill="#000e41" d="M444.3 205.9c0-.1-.1-.1-.1-.2-.4-1.2-.9-2.4-1.3-3.5l-5.9.4c-.2.3-.3.6-.5.9l3.8 9.3c1.1-.7 3.1-1.9 5.3-3.1"/><path fill="#082487" d="M411.7 266.4c-6.2.9-12.6.1-15.1-.8-3.8-1.4-6.1-5.4-6.5-9.4-.4-4 .6-8 1.8-11.9 1-3.3 2.2-6.7 3.5-9.9h23l-6.7 32z"/><path fill="#082487" d="M411.7 248.2h18.2v18.2h-18.2z"/><path fill="#082487" d="M425.9 266.4c6.2.9 12.6.1 15.1-.8 3.8-1.4 6.1-5.4 6.5-9.4.4-4-.6-8-1.8-11.9-1-3.3-2.2-6.7-3.5-9.9h-23l6.7 32z"/><path fill="#041c6f" d="M510.4 150.7c0-.3 0-.6-.1-.8-.3-.9-4-5-6.4-5.8-.8-.3-4.2-.8-7.6-.6-2.9 1-3.6 2.6-3.1 3.8.3.8 1.9.9 2.6 1.1.7.2 1.4.8 1.3 1.5-.1.6-1.4 2.1-.5 3.4 1.1 1.5 2.3-.2 4.5-.7 1.5-.3 3 .3 3.8 1.6-2.1 2.1-4.2 4.2-6.2 6.5-.5.5-.9 1.1-1.3 1.7 1.8 1.2 3.9 2.4 5.6 2.8 1.8.5 3.8.5 5.2 1.6 3-6 2.4-5.8 2.2-16.1z"/><path fill="#082487" d="M494.2 140.8c-.1 0 0 0 0 0z"/><path fill="#000e41" d="M504.9 154c-.8-1.3-2.3-2-3.8-1.6-2.2.5-3.4 2.2-4.5.7-.9-1.3.4-2.7.5-3.4.1-.7-.6-1.3-1.3-1.5-.7-.2-2.3-.3-2.6-1.1-.4-1.2.2-2.8 3.1-3.8-2.1.1-4.3.5-5.9 1.3-4 2.1-2.2 4.8-1.5 6.5.7 1.9 1.6 3.7 2.8 5.3.6.8 2.2 2.7 3 3.5.5.5 1.6 1.3 2.8 2.1.4-.6.8-1.1 1.3-1.7 1.9-2.1 4-4.1 6.1-6.3z"/><path fill="#000e41" d="M487 147.8c-1.3.4-3.4 4.2-3.7 5.6-.3 1.4.2 6.2 1.1 8.1.5 1.1 2.7 4.2 4.6 6.2 1.1-1.1 1.8-2.6 2.2-4.2.6-2.5.8-9.7-1.6-13.9-.4-.8-1.5-2.1-2.6-1.8z"/><path fill="#041c6f" d="M487.9 165c-1.9-2.2-3.6.7-.4 5.9.2.3.4.6.7.8.3.2.7.3 1 0l-1.3-6.7z"/><path fill="#082487" d="M507.7 165c1.9-2.2 3.6.7.4 5.9-.2.3-.4.6-.7.8-.3.2-.7.3-1 0l1.3-6.7z"/><path fill="#082487" d="M508.4 163.7c0 1.8-.2 3.5-.4 5.3-.7 5.9-1.2 7.8-4.9 12.6-1.7 2.2-2.5 2.7-6 2.4-2.4-.2-2.9-.6-4-1.9-4.8-6-4.4-7.3-6.4-17.7-1.1-5.4.6-12.2 5.5-15 1.8-1 3.8-1.4 5.8-1.5.9 0 1.8 0 2.8.1 3 .5 5.6 2.6 6.8 5.4 1.6 3.5.9 8.1.8 10.3z"/><path fill="#041c6f" d="M486.7 164.4c2.1 10.4 1.6 11.7 6.4 17.7.5.6.9 1 1.3 1.3-.4-.8-.9-1.6-1.1-2.4-.5-1.5-.4-3.3-1.5-4.5-.6-.6-1.4-1-1.8-1.8-.6-1.4.9-2.8 1.3-4 .7-2-.7-5.3.2-10.1.4-2.3 1.4-4.5 3-6.1.4-.4.9-.8 1.5-.8l-2.1-5c-.6.2-1.2.5-1.8.8-4.8 2.7-6.5 9.5-5.4 14.9z"/><path fill="none" stroke="#041c6f" stroke-linecap="round" stroke-miterlimit="10" stroke-width="1.201" d="M496.8 176.3c0 .1.1.1.2.2.4.2.8.3 1.3.2.4-.1.8-.3 1.1-.7"/><path fill="#000e41" d="M508.1 167.1l-.6-1.1v-1.9c0-1.1-.2-2.2-.6-3.3l-1.2-3.1c-.4-.9-.5-1.8-.3-2.8l.3-2.3h2.5s.8 6.9.8 7.2c-.1.4-.9 7.3-.9 7.3z"/><path fill="#000e41" d="M485 160.1c0 .1 1.5 2.9 1.7 4.8.2 1.6.5 2.3.5 2.3l.6-1.1c0-2.2-.3-3.1.3-4.5l1.5-3.8c.9-2.1.1-3.6-.3-7.3l-3.9 2.2-.4 7.4z"/><path fill="#000e41" d="M501.4 153.3c1.3-.4 2.8-.4 3.6.7.7 1 .3 2.9 1.4 3.4.4.2 1.6.2 1.9-.1.1-.1.1-.3.1-.5.4-4.9-2-7-5-6.9-.9 0-1.8.3-2.7.5l.7 2.9z"/><circle cx="330" cy="173.7" r="1.1" fill="#fff"/><circle cx="350.7" cy="174.3" r="1.1" fill="#fff"/><path fill="#761a81" d="M340.5 151.4c5.6 0 10.2 5.8 11.2 13.3.2 1.6.2 3.3-.1 4.9-.3 2.2-.7 4.3-1.2 6.4-1.2 5.4-2.5 7-5.6 9.5-1.3 1-2.6 2.1-4.3 1.9-1.6.2-3-.8-4.3-1.9-1.1-.9-2.1-1.8-3-2.9-2.1-2.8-3.3-8.9-3.9-13.2-.2-1.6-.3-3.2-.1-4.8 1.1-7.4 5.8-13.2 11.3-13.2z"/><path fill="#3f1f84" d="M339.4 187.2c-2.4-.8-2.8-4.3-3.7-6.1-.7-1.4-1.8-2.7-2.2-4.2-1-3.4 1.5-7.4-.1-10.5l-4.1-1.5c-.2 1.6-.1 3.1.1 4.7.6 4.2 1.8 10.4 3.9 13.2.8 1.1 1.9 2 3 2.9 1.3 1 2.6 2.1 4.3 1.9h.5c-.7-.2-1.2-.2-1.7-.4z"/><path fill="none" stroke="#3f1f84" stroke-linecap="round" stroke-miterlimit="10" stroke-width="2" d="M339.4 180.5c.3.4 1.5.5 2.2-.3"/><path fill="#fff" d="M394 309.2c-.1 0-.1 0 0 0z"/><path fill="#ea0073" d="M399.2 328.1c.4 3.5.1 11.8 3.2 14.6 2 1.8 6.3 1.6 8.9.4 3.3-1.4-.9-6.8-2.1-18.2 0 .1 0 .2-.1.3-.5 2-2 3.4-4.3 2.6-4.5-1.6-7.3-9.3-6.6-15.4-.4 1.3-.9 2.6-1.1 4-.6 4 1.6 7.7 2.1 11.7z"/><path fill="#ea0073" d="M422.2 334.1c-.5 1.2-1 2.4-1.1 3.7-.2 1.3.1 2.7 1 3.6 1.5 1.5 4 .9 6 .3 2-.6 4.1-1.3 5.4-2.9 2.7-3.5.5-9.7 1.8-14.5.5-1.9 1.3-4 2.3-5.6 1.1-1.8.9-4.1.3-6l-.3-1.2c-.6 3.4-1.9 8.7-6.4 12.9-1 .9-2.4 1.8-3.7 1.3-.7-.3-1.7-1.3-2.2-2.8l-.6 2.4c-.7 2.9-1.4 5.9-2.5 8.8z"/><path fill="#082487" d="M406.9 212.2c4.2 4.6 11.8 3.3 15.8 8.1 3 3.7 2.5 9.4 1.3 14.2-.2.9-.5 1.9-.7 2.8h15.3c-2.1-16 7-20.7 4.6-36.4l-11.7-7.3h-21.7l-1.1.6c-1.3 1.5-2.4 3.2-3.1 5.2-1.8 4.4-1.5 9.6 1.3 12.8z"/><path fill="#000e41" d="M397.8 214.2c.8 3.3 2.2 6.5 3.1 9.8 1.2 4.4 1.5 9 .9 13.5h21.6c.2-.9.5-1.9.7-2.8 1.2-4.8 1.7-10.5-1.3-14.2-3.9-4.9-11.6-3.5-15.8-8.1-2.9-3.2-3.1-8.5-1.5-12.6.8-2 1.9-3.7 3.1-5.2l-11.4 6.6c-.8 4.2-.5 8.7.6 13z"/><path fill="#f8aad0" d="M394.4 223.5c1-3.1 2.1-6.1 3.3-9.2L393 212c-1.1 2.8-2.1 5.7-2.7 8.7-.3 1.3-.6 2.7-.2 4 .6 2.1 2.6 3.5 4.5 4.6 6.3 3.8 12.8 7.5 19.4 10.8l.5-1.1-20.1-15.5z"/><path fill="#f155a2" d="M390.1 224.8c-.4-1.3-.1-2.7.2-4 .7-3 1.6-5.9 2.7-8.7l-6.7-3.2c-.7 3.2-1.5 6.7-2.3 10.8-1 4.7-1.2 7.3 3.5 11.9 6.7 6.6 15.4 10.5 24 14.2l2.5-5.5c-6.6-3.3-13-7-19.4-10.8-1.9-1.3-3.9-2.6-4.5-4.7z"/><path fill="#f155a2" d="M443.3 250.7h-41.8c-1.4 0-2.5-1.1-2.6-2.4l-1.6-24.1c-.1-1.5 1.1-2.8 2.6-2.8H445c1.5 0 2.7 1.3 2.6 2.8l-1.6 24.1c-.3 1.3-1.4 2.4-2.7 2.4z"/><path fill="#f7f" d="M513.3 330.4c-1.2.6-3.9.6-4.8.2-1.4-.7-4.8-5.6-4.8-11.6-.6 2.4-1.5 4.7-1.2 7.1.2 2 1.3 3.8 1.6 5.8.7 3.6-.7 7.4 0 11 .8 4.3 4.9 7.7 9.3 7.7 2.4 0 5.2-1.4 5.5-3.8.2-1.2-.3-2.4-.7-3.5-1.9-5.1-2.9-10.5-2.9-15.9-.5 1.5-1.1 2.5-2 3z" opacity=".28"/><path fill="#f7f" d="M475.5 346.8c.3 2.4 3.1 3.8 5.5 3.8 4.4 0 8.5-3.4 9.3-7.7.7-3.6-.7-7.4 0-11 .4-2 1.4-3.8 1.6-5.8.3-2.7-.8-5.4-1.4-8-.1 2.6-.4 6.8-3.4 11.6-1.3 2-2.2 2.3-4.1 2.1-2-.2-3.2-.7-3.9-2.4-.2 4.8-1.2 9.5-2.8 14-.5 1.1-1 2.2-.8 3.4z" opacity=".28"/><path fill="#b00d7a" d="M486 334l.6-7.7"/><path fill="#082487" d="M478.6 320.2c.5 3 .6 6.1.5 9.2.7 1.7 2 2.2 3.9 2.4 1.9.2 2.9-.1 4.1-2.1 3.1-4.8 3.3-9 3.4-11.6-.1-.3-.1-.5-.2-.8l-12 1.7c.2.4.2.8.3 1.2z"/><path fill="#000e41" d="M478.4 319c.1.4.1.8.2 1.2.5 3 .6 6.1.5 9.2.7 1.7 2 2.2 3.9 2.4.5.1 1 .1 1.4 0 1.2-4 0-5.9-.3-10.4-.1-1.1-.1-2.2 0-3.2l-5.7.8z"/><path fill="#f7f" d="M503.7 319c0 6 3.4 10.9 4.8 11.6.9.4 3.6.5 4.8-.2 1-.5 1.6-1.5 2.1-3 0-2.4.2-4.8.5-7.2.1-.9.3-1.7.4-2.6l-12.1-1.2c-.1.9-.3 1.7-.5 2.6z" opacity=".28"/><path fill="#000e41" d="M511.4 317.1l-7.2-.7c-.1.8-.3 1.7-.5 2.5 0 4.1 1.5 7.6 3 9.7.1-.9.2-1.7.5-2.6.8-3 2.7-5.9 4.2-8.9z"/><path fill="#082487" d="M508.5 330.6c.9.4 3.6.5 4.8-.2 1-.5 1.6-1.5 2.1-3 0-2.4.2-4.8.5-7.2.1-.9.3-1.7.4-2.6l-4.9-.5c-1.4 2.9-3.4 5.8-4.2 9-.2.9-.4 1.7-.5 2.6.6 1 1.3 1.6 1.8 1.9z"/><path fill="#082487" d="M478.4 347.2c0-4.8 1.5-5.8 3.2-8.9 4.4-8.2 3.4-10.1 2.7-14.6H481c-1.3 0-2.3 1.1-2.2 2.4l.4 3.6c0-.1-.1-.2-.1-.3-.2 4.8-1.2 9.5-2.8 14-.4 1.1-.9 2.3-.7 3.5.3 2.4 3.1 3.8 5.5 3.8.7 0 1.3-.1 2-.2-2.6-.3-4.7-.8-4.7-3.3z"/><path fill="#b00d7a" d="M492 326.1c.3-2.7-.8-5.4-1.4-8-.1 2.5-.4 6.4-3 11l.2-2.5c.1-1.6-1.1-2.9-2.7-2.9h-.7c.7 4.6 1.7 6.4-2.7 14.6-1.7 3.1-3.2 4.2-3.2 8.9 0 2.5 2.1 3 4.6 3.2 3.6-.8 6.7-3.8 7.4-7.5.7-3.6-.7-7.4 0-11 .2-2 1.2-3.8 1.5-5.8z"/><path fill="#082487" d="M507.6 339.1c-.7-3.4-1.3-7-1-10.4-1.4-2.1-3-5.6-3-9.7-.6 2.4-1.5 4.7-1.2 7.1.2 2 1.3 3.8 1.6 5.8.7 3.6-.7 7.4 0 11 .8 4.3 4.9 7.7 9.3 7.7 1.2 0 2.5-.3 3.5-1-1.3-.3-2.7-.5-3.9-1.1-3.3-1.5-4.5-5.7-5.3-9.4z"/><path fill="#b00d7a" d="M519 346.8c.2-1.2-.3-2.4-.7-3.5-1.8-4.7-2.7-9.7-2.9-14.7l.2-1.1c.3-1.5-.9-3-2.4-3h-3.3c-1.3 0-2.4 1-2.5 2.3l-.1 2.6c-.2-.2-.4-.5-.6-.8-.4 3.4.3 7 1 10.4.8 3.7 2 7.9 5.4 9.5 1.2.5 2.6.8 3.9 1.1 1-.6 1.8-1.5 2-2.8z"/><path fill="#b00d7a" d="M522.3 239.8h-47.9c-1.3 0-2.4-1-2.5-2.3l-3.5-33.6c-.2-1.5 1-2.8 2.5-2.8h54.8c1.5 0 2.7 1.3 2.5 2.8l-3.5 33.6c0 1.3-1.1 2.3-2.4 2.3z"/><path fill="#f155a2" d="M673.2 250.4c-3.6-.6-5.6-2.3-53.1-23.7-5.3-3-12.1.4-11.6 6.3.3 4.5 6.6 11.7 10.6 14.6 7.4 5.4 16.6 6.2 25.7 7 6.6.6 13.2 2 19.4 4.3l6.4 2.3c1.9.3 4.4.7 4.9-.7.2-.5-.1-1.1-.2-1.6-.5-2.1.6-4.6 2.7-5.1.3-.1.6-.1.9-.3.8-.5.7-1.6.2-2.3-.2-.2-.3-.4-.5-.6-1.8-.4-3.6.1-5.4-.2z"/><path fill="#fff" d="M230 258.5l-10.2 4.8c2.8 1 13.4.8 30.7-4"/><path fill="#fecbf6" d="M258.5 247.5c-1.7-5.3-7.9-7.1-12.1-4.3-3.1 7.1-10.6 13.8-23 15.7 5.7 1.8 16.3 2.3 19.5 2.1 5-.3 11.7-2.6 15.6-6.5.5-2.5.6-5.1 0-7z"/><path fill="#fff" d="M251.7 227.2c-3.3 3.6-3.1 9-4.3 13.4-.3.9-.6 1.8-1 2.7 4.3-2.8 10.5-1 12.1 4.3.6 1.9.5 4.5 0 7l.6-.6c6.1-6.9-1-12.6-1.5-19.1-.2-2.7.9-4.1 2.2-4.7-.1-.9-.1-1.9.4-2.7.1-.2.3-.4.6-.6-.8-.7-1.6-1.3-2.6-1.6-2.3-.9-4.9.1-6.5 1.9z"/><path fill="#ea0073" d="M260.1 227.4c-.5.8-.5 1.8-.4 2.7 1.1-.5 2.4-.3 3.1.4-.4-1.3-1.2-2.6-2.2-3.6-.2.1-.4.3-.5.5z"/><circle cx="256.4" cy="227.7" r=".6" fill="#ea0073"/><path fill="#fecbf6" d="M245.2 258.3c.2 3 .1 3.8 1.9 5.7 1 1.1 2.1 2.1 3.3 2.9.3.2.6.4.9.3.3-.1.4-.4.4-.7-.1-1.3-2.2-2.7-1.4-6.4.8-3.5 2.7-5.4 1.7-6.2-1.3-1.1-7 2-6.8 4.2"/><path fill="#fd68e7" d="M251.3 266.2h2.7c1 0 2 .3 2.9.8l.6.4c.3.2.2.7-.2.7h-8c-.3 0-.4-.4-.1-.5l1.7-.9.4-.5z"/><path fill="#082487" d="M477.4 312.6c.3 2.1.7 4.3 1 6.4l5.6-.8c.1-2.1.5-4.2.7-6.3l-7.3.7z"/><path fill="#b00d7a" d="M490.2 314.9v-3.6l-5.5.6c-.2 2.1-.5 4.2-.7 6.3l6.4-.9c-.1-.8-.2-1.6-.2-2.4z"/><path fill="#082487" d="M476.3 258.9c3.4 5.9 14.5 6.1 6.2 22.9-2.4 4.8-5 10.3-2.8 15.2 1 2.2 2.8 3.9 3.9 6.1 1.4 2.7 1.4 5.8 1.1 8.9l5.5-.6c-.1-5.3-.2-18.7-.6-51.8-.1-5.3.7-9.5-1.9-13.9-1.2-2.1-2.7-3.7-4.3-4.6-.1 0-.2.1-.3.2-3.8 1.9-10.4 11.3-6.8 17.6z"/><path fill="#000e41" d="M483.6 303c-1.1-2.1-2.9-3.9-3.9-6.1-2.2-4.9.4-10.4 2.8-15.2 8.3-16.8-2.7-17.1-6.2-22.9-3.7-6.3 2.9-15.6 6.8-17.7.1-.1.2-.1.3-.2-5.7-3.4-12.6.6-14.6 8.6-.9 3.7 0 8.8.5 12.2 2.7 16.9 5.3 33.9 8 50.8l7.3-.7c.4-3 .4-6-1-8.8z"/><path fill="#082487" d="M504.3 309.9c-.1 5.5-.1 4.9-.1 5 0 .5 0 1-.1 1.5l7.2.7c.9-1.9 1.7-3.9 1.8-6l-8.8-1.2z"/><path fill="#b00d7a" d="M517.2 311.8l-4.1-.6c-.1 2.1-.8 4-1.8 6l4.9.5c.4-2 .7-4 1-5.9z"/><path fill="#082487" d="M511.3 248c-1.2 1.8-2.4 3.8-2.4 5.9 0 2.4 1.5 4.5 2.8 6.5 12.8 19.9-4.4 24.8-3.4 36 .4 4.8 4.5 8.7 4.9 13.5v1.2l4.1.6c2.6-16.7 5.2-33.3 7.8-49.9.5-3.4 1.5-8.5.5-12.2-1.1-4.3-3.5-7.4-6.5-8.9-3.3 1.3-5.8 4.3-7.8 7.3z"/><path fill="#000e41" d="M513.1 309.9c-.4-4.8-4.4-8.7-4.9-13.5-1-11.2 16.1-16.1 3.4-36-1.3-2-2.8-4.1-2.8-6.5 0-2.2 1.2-4.2 2.4-5.9 2.1-3 4.6-5.9 7.9-7.2-4.1-2-9-.8-12.4 4.9-2.6 4.4-1.8 8.7-1.9 13.9-.3 30.5-.5 44.2-.5 50.4l8.8 1.2c.1-.4.1-.8 0-1.3z"/><path fill="#ea0073" d="M372.2 307.5c-2.7.5-3.1 2.6-3.5 4.4 1 2.2 1.9 4.3 3.3 6.3 2 2.7 5 5 8.4 4.9 3.2-.1 5.8-2 8.5-3.8.1-.4.1-.9 0-1.3-.8-4.6-6.9-4.6-12.7-10.1-1.3-.2-2.7-.7-4-.4z"/><path fill="#761a81" d="M367.4 309.1l1.2 2.7c.4-1.8.8-4 3.5-4.4 1.3-.2 2.6.2 4 .4-1.5-1.4-3-3.3-4.4-5.7-1.6-2.8-3.1-7-4.6-11.7l-6.6 3.2c1.1 5.6 4.5 10.5 6.9 15.5z"/><path fill="#b00d7a" d="M372 318.2c-1.4-1.9-2.4-4.1-3.3-6.3-.2.8-.4 1.5-.8 2-.7.8-2 .7-2.9.2.4 1.5.8 3 1.8 4.3.8 1 2 1.7 2.8 2.8 1 1.2 1.4 2.8 2.4 4.1 1.8 2.2 5.2 2.5 7.9 1.6l1.2-.4c3.4-1.2 6.6-4.4 6.9-4.7.5-.6.9-1.4 1-2.3-2.7 1.8-5.3 3.8-8.5 3.8-3.5-.2-6.5-2.4-8.5-5.1z"/><path fill="#3f1f84" d="M367.9 313.8c.4-.5.6-1.2.8-2l-1.2-2.7c-2.4-5.1-5.8-9.9-6.8-15.4l-3.8 1.9c3.2 5.6 6.2 11.2 7.9 17.5.1.3.2.6.2.9.9.6 2.1.6 2.9-.2z"/><path fill="#ea0073" d="M349.9 350.5c.3-1.7-.2-3.4-.6-5.1-1.8-6.8-2.9-11.3-3.5-14.9-.1 1.2-.2 2.6-.5 4.2-.4 2.3-1.3 2.8-3.5 2.7-1.4-.1-1.8-.3-2.4-1.8-.3-.8-.6-1.6-.9-2.3-.4 1.5-.7 3-.5 4.5.3 2 1.3 3.9 1.6 5.9.4 2.5-.3 5.4 1.1 7.5 1 1.6 2.8 2.3 4.8 2.9.4 0 .8-.1 1.1-.1 1.7-.1 3-1.8 3.3-3.5z"/><path fill="#b00d7a" d="M340.7 351.3c-1.4-2.2-.7-5-1.1-7.5-.3-2-1.3-3.9-1.6-5.9-.2-1.5 0-3 .5-4.5-1.3-3.5-1.9-5-2.2-6.2-.8 2.4-2.7 4.4-2.7 6.9.1 2.8 2.6 4.9 3.1 7.6.5 2.7-.9 5.3-.6 7.1.4 3.3 5.5 5.6 9.3 5.4-1.9-.6-3.7-1.3-4.7-2.9z"/><path fill="#041c6f" d="M340 275.6c.4 3.4 2.8 6.1 4.2 9.1 4.5 9.5-1.5 15.9-3.4 22.7h6.8c.9-6.3 2.1-14.7 3.3-27l-6.5-15.2c-2.8 3.1-4.8 6.9-4.4 10.4z"/><path fill="#000e41" d="M344.2 284.7c-1.4-3.1-3.9-5.8-4.2-9.1-.4-3.5 1.6-7.3 4.3-10.5l-4-9.3c-2.8 1.1-4.7 4-5.5 6.9-.8 2.9-.6 6-.5 9.1.8 16.5 1.4 27.8 1.8 35.6h4.6c2-6.8 8-13.1 3.5-22.7z"/><path fill="#761a81" d="M340.2 310.4c-.3 4.5 1.9 9 1.4 13.6-.4 3.2-2.1 6.3-3 9.4.3.7.5 1.4.9 2.3.6 1.5 1 1.8 2.4 1.8 2.2.1 3.1-.4 3.5-2.7.3-1.6.4-3 .5-4.2-1.1-7.2-.1-11.2 1.7-23.1h-6.8c-.3.9-.5 1.9-.6 2.9z"/><path fill="#3f1f84" d="M341.6 323.9c.5-4.5-1.7-9-1.4-13.6.1-1 .3-2 .6-3h-4.6c.9 17.8.8 17.8.2 19.6.3 1.3.9 2.8 2.2 6.2.9-2.9 2.6-5.9 3-9.2z"/><path fill="#041c6f" d="M348.2 257.7c0 6.2 0 14.5 6 18.8 1.4 1 3 1.7 4.2 2.9 2.9 3.1 1.7 8 2 12.3 0 .7.1 1.4.3 2.1l6.6-3.2c-2.7-8.5-5.3-18.8-8.2-26.5-1.7-4.5-3.7-8.9-5.8-13.2-1.5-3.3-3.3-7.2-6.9-8.7-3.8-1.5-6.8-.1-23.4 5.2l11 7.4c1.8-.7 3.9-1.6 6.5-2.7 5-2.1 7.7-.7 7.7 5.6z"/><path fill="#000e41" d="M349.9 283.7c2.2 4 4.7 7.9 7 11.9l3.8-1.9-.3-2.1c-.3-4.2.9-9.2-2-12.3-1.2-1.2-2.8-1.9-4.2-2.9-6-4.3-6-12.6-6-18.8-.1-6.3-2.7-7.7-7.8-5.6-2.6 1.1-4.7 2-6.5 2.7l4.3 2.9c3.6 8.9 7.1 17.8 11.7 26.1z"/><path fill="#f8aad0" d="M376.8 229.6c-1.4-9-3.2-17.9-5.4-26.6-.9-3.7-2.4-9.2-5-12-.1-.1-.2-.3-.4-.4l-4.6 16.8.1.3c2.6 6.4 7.5 12.5 9.5 22.4.6 2.8 0 4.3-4.2 5.1-7.8 1.3-15.6 2.7-23.4 4v1.9h9.9c4.5.5 9 .6 13.6.3 3.4-.3 7.3-1 9.1-3.8 1.6-2.4 1.2-5.4.8-8z"/><path fill="#f155a2" d="M371 230c-2.1-9.9-6.9-15.9-9.5-22.4l4.9 23.6-22.9 5.9v2c7.8-1.3 15.6-2.7 23.4-4 4.1-.8 4.7-2.3 4.1-5.1z"/><path fill="#f155a2" d="M319.3 236.2c-1.8 0-3.7.2-5.4-.5-.3-.1-.7-.3-.9-.6-.2-.4-.2-.8-.2-1.2.3-2.5 2-4.7 3-7 .9-2.2 1.2-4.7 1.8-7 1.1-4 3.1-7.8 5.9-10.8l-6.3-17.6c-2.3 2.9-3.7 8.1-4.6 11.6-2.3 8.8-4.1 17.7-5.4 26.6-.4 2.7-.7 5.6.8 7.9 1.9 2.7 5.7 3.5 9.1 3.8 4.5.4 9.1.3 13.6-.3H341c-.1-.8-.1-1.5-.2-2.2-5.1-.7-10.1-1.4-15.2-2.1-2.1-.4-4.2-.6-6.3-.6z"/><path fill="#f8aad0" d="M319.2 230.6l4.3-21.6c-2.8 3.1-4.9 6.8-5.9 10.8-.6 2.3-.9 4.8-1.8 7-1 2.4-2.7 4.5-3 7 0 .4 0 .9.2 1.2.2.3.6.5.9.6 1.7.7 3.6.5 5.4.5 2.1 0 4.2.3 6.3.6 5.1.7 10.1 1.4 15.2 2.1-.1-1.1-.2-1.8-.2-1.8l-21.4-6.4z"/><path fill="#ea0073" d="M364.8 244.3h-43.9c-1.1 0-2.1-.9-2.1-2l-1-26.4c0-1.2.9-2.2 2.1-2.2h46c1.2 0 2.1 1 2.1 2.2l-1 26.4c-.2 1.1-1.1 2-2.2 2z"/><path fill="#b00d7a" d="M411.7 260.8c-.2 3.4 1.4 6.7 1.4 10 0 7-6.7 12.4-7.1 19.4-.2 3.1 1 6.1 1.1 9.2.1 2.6-.5 5.1-1.4 7.6l4.5.2 8.5-37.8c.6-4.6 1.1-12.5-1.3-16.6-3.1 1.5-5.5 4.6-5.7 8z"/><path fill="#f8aad0" d="M400.9 319.5c-.3 1.5-.5 3.1-.1 4.5 1.1 1.7 2.5 3.1 4.1 3.6 2.2.8 3.7-.6 4.3-2.6 0-.1 0-.2.1-.3-.4-3.9-.5-8.5.2-13.9l-.2.3.9-4-4.5-.2c-1.6 4.3-3.9 8.3-4.8 12.6z"/><path fill="#761a81" d="M404.9 327.7c-1.6-.5-3-1.9-4.1-3.6 0 .1 0 .2.1.3.9 2.7 3.5 4.6 4.8 7.2.8 1.7 1 3.7 1.4 5.6.4 2.2 1 4.3 1.9 6.3 0 .1.1.2.1.3.8-.2 1.6-.4 2.2-.7 3.3-1.4-.9-6.8-2.1-18.2 0 .1 0 .2-.1.3-.5 1.9-2 3.3-4.2 2.5z"/><path fill="#000e41" d="M414.3 347.9c-.5-.1-1.1-.2-1.6-.2.5.2 1 .2 1.6.2z"/><path fill="#082487" d="M406.4 253.2c-1.1 2-1.5 4.3-1.4 6.6l-.1.3c-8 16.1-4.2 36-5.3 46.6l6.1.3c.9-2.4 1.5-4.9 1.4-7.6-.1-3.1-1.2-6.1-1.1-9.2.4-6.9 7.1-12.4 7.1-19.4 0-3.4-1.6-6.7-1.4-10 .2-3.4 2.6-6.5 5.7-7.9-.1-.1-.1-.2-.2-.4-2.5-3.6-7.9-4.9-10.8.7z"/><path fill="#f155a2" d="M400.8 324.1c-.4-1.5-.3-3 .1-4.5.9-4.3 3.2-8.4 4.7-12.5l-6.1-.3c-.1.8-.2 1.6-.4 2.3-.2 1.1-.6 2.2-1 3.3-.3 3.8.7 8.5 2.7 11.7z"/><path fill="#000e41" d="M407 337.1c-.3-1.9-.5-3.9-1.4-5.6-1.3-2.6-3.9-4.4-4.8-7.2 0-.1 0-.2-.1-.3-2-3.2-3-7.8-2.6-11.8-.4 1.3-.9 2.6-1.1 4-.6 4.1 1.6 7.7 2 11.7.4 3.5.1 11.8 3.2 14.6 1.5 1.3 4.3 1.6 6.7 1.1 0-.1-.1-.2-.1-.3-.7-1.9-1.4-4-1.8-6.2z"/><path fill="#f8aad0" d="M432.6 310.5c.1 2.6-.8 5.2-1.6 7.7s-1.6 5-2.4 7.4c.9-.1 1.8-.7 2.6-1.4 4.6-4.2 5.8-9.5 6.4-12.9-.2-1.1-.2-2.1 0-3.3 0-.2.1-.4.1-.6l-5.4.4c.2 1 .3 1.8.3 2.7z"/><path fill="#761a81" d="M431.2 324.3c-.7.7-1.6 1.3-2.6 1.4-1 3.2-2.1 6.4-3.1 9.6-.7 2.2-1.3 4.9.5 6.4.2.2.4.3.6.4.5-.1 1.1-.3 1.6-.4 2-.6 4.1-1.3 5.4-2.9 2.7-3.5.5-9.7 1.8-14.5.5-1.9 1.3-4 2.3-5.6 1.1-1.8.9-4.1.3-6l-.3-1.2c-.7 3.3-2 8.6-6.5 12.8z"/><path fill="#b00d7a" d="M430 258.3c-1.5 3.4-1.4 7.3.1 10.7.9 2 2.3 3.7 3.2 5.7 1.8 4.2.9 9.1-.3 13.5s-2.7 8.9-2.2 13.5c.3 2.1 1 4.2 1.4 6.3l5.4-.4c1.7-11 2.7-22.2 2.9-33.3.1-7-.1-14.3-3.5-20.3-.4-.7-.8-1.3-1.3-1.9-2.5 1.3-4.5 3.5-5.7 6.2z"/><path fill="#f155a2" d="M427.4 325.6c.4.2.8.2 1.1.1.8-2.5 1.6-5 2.4-7.4.8-2.5 1.7-5.1 1.6-7.7 0-.9-.2-1.7-.3-2.6l-6.2.5c.1 1.3.3 2.6.4 3.9.4 3.6-.5 7-1.3 10.5.7 1.3 1.6 2.4 2.3 2.7z"/><path fill="#000e41" d="M425.5 335.3c1-3.2 2.1-6.4 3.1-9.6-.4 0-.8 0-1.1-.1-.7-.3-1.7-1.3-2.2-2.8l-.6 2.4c-.7 3-1.3 6-2.4 8.9-.5 1.2-1 2.4-1.1 3.7-.2 1.3.1 2.7 1 3.6 1.1 1.1 2.8 1.1 4.5.7-.2-.1-.4-.2-.6-.4-1.9-1.5-1.4-4.3-.6-6.4z"/><path fill="#082487" d="M434.3 250.6c-4.5-3-9.7 2.7-10.9 6.7-1 3.3-.7 6.8-.5 10.2.8 10.6 1.6 21.3 2.4 31.9.2 3 .5 6 .7 8.9l6.2-.5c-.4-2.1-1.2-4.2-1.4-6.3-.6-4.5 1-9.1 2.2-13.5 1.2-4.4 2.1-9.3.3-13.5-.8-2-2.2-3.7-3.2-5.7-1.5-3.3-1.6-7.3-.1-10.7 1.1-2.6 3.2-4.9 5.7-6.3-.4-.3-.9-.8-1.4-1.2z"/><path fill="#fff" d="M597.4 248.3c-.1-1.6-1.2-2-2.5-2.9-8.2-5.3-15.5-6-21.1-4.6-2.8.7-6.2 2.4-8.8 4.2l6.8 5.3c-2.8-.3-5 2.1-6.6 4.4-1.8 2.5-3.6 5.1-4.5 8-.9 3-.8 6.3.9 8.9 2.7 4.1 9.6 5.8 4.7 16.4-2.7 5.9-8.6 13.5-6 21 .5 1.5 1.4 2.9 1.9 4.4.3 1 .5 2 .6 3h5.2l5.9-53.4c5.9.7 11.1 1.7 15.5-.1 5.4-2.5 8.2-8.9 8-14.6z"/><path fill="#ea0073" d="M561.3 324.4c-.6 2-1.3 3.9-1.9 5.9 1.9-1.1 4-1.7 5.5-1.4.6.1 1.1.3 1.6.6.8-2.1 1.2-4.3 1.4-6.6-.3-.8-.5-1.8-.3-4.2l.3-2.3h-5.2c.1 2.6-.5 5.4-1.4 8z"/><path fill="#b00d7a" d="M564.9 328.8c-1.5-.3-3.5.4-5.5 1.4-.4 1.6-.8 3.3-.8 5-.1 3.7 1.6 7.8 5.1 9.3.1 0 .1 0 .2.1 2.7-.6 6.3-4.9 4.9-11.8-.3-1.5-.8-2.9-.7-4.4.1-1.1.5-2.2.5-3.3-.1-1.1-.3-1.6-.6-2.2-.2 2.2-.7 4.5-1.4 6.6-.6-.4-1.1-.6-1.7-.7z"/><path fill="#f155a2" d="M555.7 271.3l2 45h4.9c-.1-1-.2-2-.6-3-.5-1.5-1.4-2.9-1.9-4.4-2.6-7.5 3.3-15.1 6-21 4.9-10.6-2-12.2-4.7-16.4-1.7-2.6-1.8-6-.9-8.9.9-3 2.7-5.6 4.5-8 1.6-2.2 3.8-4.6 6.6-4.4l-6.8-5.3c-1.4 1-2.7 1.9-3.5 2.8-6.1 6.1-6.3 15.1-5.6 23.6z"/><path fill="#b00d7a" d="M558 322.6l-.1.1c0 .3-.1.6-.1 1 .3 2.4.2 4.8.7 7.1.3-.2.7-.4 1-.6.5-2 1.3-3.9 1.9-5.9.8-2.6 1.5-5.4 1.3-8h-4.9l.2 6.3z"/><path fill="#082487" d="M558.7 335.2c0-1.7.4-3.3.8-5-.3.2-.7.4-1 .6-.5-2.3-.4-4.8-.7-7.1-.3 1.5-1.2 2.8-1.2 4.3 0 .7.2 1.3.3 2 .5 3.2-1.3 6.4-.4 9.5 1 3.4 5.2 5.4 7.3 5h.1c-.1 0-.1 0-.2-.1-3.4-1.4-5.1-5.4-5-9.2z"/><path fill="#b00d7a" d="M585.2 306.8c1.2 1 4.1 2 7.5 2 1.4-.6 1.9-1.1 3-2.2 1-1 1.4-1.4 2.1-3.9.2-.6.3-1.3 0-1.9-.6-1.1-2.1-1-2.9-1-1.6-.1-3.2-.6-4.6-1.5-4.9 3.7-4 5.7-4.6 6.3-.3.2-1 .3-1.8.2.2.8.7 1.4 1.3 2z"/><path fill="#fff" d="M569.4 237.8c.5 3.9-1.1 7.8-2 11.7-.9 3.9-.8 8.5 2.2 11.1 2.7 2.2 7.8 2.2 7 13.3-.3 3.8-.7 8 1.4 11.2.7 1 1.6 1.9 2.5 2.8l3.8-1.3c-3.1-13.2-2.5-35.8-9.1-52.7-1-2.5-2.3-5.1-4.7-6.1-4.3-1.8-8.4 1.7-11.6 5l1.4 3.2c.8-.5 1.7-1 2.6-1.3 3.8-1.8 6-.4 6.5 3.1z"/><path fill="#ea0073" d="M582 289.9c2.7 4.4.2 10.9 1.8 14.9.9.1 1.6 0 1.8-.2.7-.5-.3-2.6 4.6-6.3-.9-.6-1.7-1.2-2.4-2-.6-1.7-1.5-3.4-2.2-5.1-.6-1.4-1-2.9-1.4-4.6l-3.8 1.3c.6.6 1.2 1.3 1.6 2z"/><path fill="#082487" d="M578.5 301.8c.2 5.8.7 5.1 7.2 7.5 2.8 1 3.6 1 6 0 .4-.2.8-.3 1.1-.5-3.5-.1-6.4-1-7.5-2-.6-.5-1-1.2-1.3-1.9-1.8-.3-4.1-1.2-5.5-3.1z"/><path fill="#f155a2" d="M561.2 244.9c1.4 15.6 10 29.6 14.8 44.5l4.5-1.5c-.9-.9-1.8-1.8-2.5-2.8-2.1-3.2-1.6-7.4-1.4-11.2.8-11.1-4.4-11.1-7-13.3-3-2.6-3.1-7.2-2.2-11.1.9-3.9 2.5-7.7 2-11.7-.5-3.5-2.7-4.8-6.5-3.2-.9.4-1.8.8-2.6 1.3l3.1 7.1-2.2 1.9z"/><path fill="#b00d7a" d="M582 289.9c-.4-.7-1-1.4-1.6-2l-4.5 1.5c.8 2.4 1.4 4.8 2 7.2.1.6.3 1.1.4 1.6.1 1.4.1 2.6.1 3.5 1.5 2 3.8 2.9 5.4 3.1-1.5-4 .9-10.5-1.8-14.9z"/><path fill="#b00d7a" d="M578.9 151.3c.2-.2.3-.4.6-.5.4-.2 1 0 1.4.3.6.5 1 1.4 1.2 2.2 1.2 4.3.3 8.9-1.4 13.1-.3.7-.6.9-1.2.5-4.8-3.4-4.3-11.5-.6-15.6z"/><path fill="#082487" d="M567 161.8c-.8-.5-1.5-1.5-1.2-2.4.1-.5.5-.8.7-1.2.2-.4.4-1 .1-1.4-.8-1.1-3.4-.2-4.8-.6-1.1-.3-1.5-1.1-1.3-2.1.4-1.7 3.8-5.3 6.4-7.3-3 .7-5.8 2.5-7.6 5.1-1.6 2.3-1.6 3.9-1.3 6.3.2 1.5.4 2.9.7 4.4.9 5.2 2 5.6 4 5 1.5-.5 2.9-1 4.3-1.6 1.7-.7 3.4-1.4 4.8-2.6.4-.3.8-.7 1.1-1.1-2.3.1-4.9 0-5.9-.5z"/><path fill="#b00d7a" d="M578.5 149.5c-2.1-2.2-6.5-3-9-3-.9 0-1.7.1-2.6.3-2.6 2.1-6 5.6-6.4 7.3-.2 1 .1 1.8 1.3 2.1 1.4.3 4.1-.5 4.8.6.3.4.1.9-.1 1.4-.2.4-.6.8-.7 1.2-.3.9.3 1.9 1.2 2.4 1 .6 3.6.6 5.9.5 2.4-2.7 4.9-7.2 6.1-10.5.3-1 .2-1.6-.5-2.3z"/><path fill="#f155a2" d="M559.7 164.2c-.5-1-2.5-2.4-1.9 1.4.3 1.4.6 2.9.9 4.3.2.8.7 2.5 1.4 2.7.4.1.9-.1 1-.5"/><path fill="#f8aad0" d="M580.4 164.2c.5-1 2.5-2.4 1.9 1.4-.3 1.4-.6 2.9-.9 4.3-.2.8-.7 2.5-1.4 2.7-.4.1-.9-.1-1-.5"/><circle cx="559.9" cy="172.5" r=".7" fill="#b00d7a"/><circle cx="580.2" cy="172.5" r=".7" fill="#b00d7a"/><path fill="#f8aad0" d="M570 153.9c-1.8 0-3.5.6-5 1.6 2.2 9.5 1.2 9.1-.7 12.1-1 1.6-1.5 3.6-.8 5.4.3.8.8 1.4 1.1 2.2.7 1.6.5 3.3.8 5 .5 2.6 1.8 4.3 3.2 5.5.4.1.8.2 1.2.2 4.2-.2 6.5-5 8.3-8.9 1.5-3.1 1.2-4.7 1.5-11.7.2-6.3-4.2-11.4-9.6-11.4z"/><path fill="#f155a2" d="M565.5 180c-.3-1.7-.2-3.4-.8-5-.3-.7-.8-1.4-1.1-2.2-.7-1.7-.2-3.8.8-5.4 1.8-3 2.8-2.6.7-12.1-2.9 2-4.8 5.6-4.8 9.8.2 5.8.2 7.8.5 9 .4 1.5 1.8 4.3 2.5 5.7.8 1.4 1.6 2.9 2.8 4 .8.7 1.7 1.3 2.7 1.6-1.5-1-2.8-2.7-3.3-5.4z"/><path fill="#b00d7a" d="M579.8 168.7c.5-2 .9-4 1.2-5.9.6-3.4 1-7.2-1.1-10.2-.6-.9-1.3-.6-1.6.3-.4 1-.4 2.1-.5 3.2-1 9.2 2.2 7.6 2 12.6z"/><path fill="#082487" d="M560.6 154.1c.1-.5.5-1.1.9-1.8-.3-.4-.8-.4-1.3.3-2.1 2.9-1.7 6.7-1.1 10.2.3 2 .7 4 1.2 5.9-.2-5 3-3.5 2-12.5-.2 0-.3 0-.5-.1-1.1-.2-1.5-1-1.2-2z"/><path fill="#b00d7a" d="M561.8 152.9c-.1-.2-.2-.4-.3-.5-.5.7-.8 1.3-.9 1.8-.2 1 .1 1.8 1.3 2.1.1 0 .3.1.5.1v-.2c-.2-1.2-.3-2.3-.6-3.3z"/><path fill="none" stroke="#feadf2" stroke-linecap="round" stroke-miterlimit="10" stroke-width="1.201" d="M569 178c.1.2 1.2.5 1.8 0"/><path fill="#f8aad0" d="M574.9 201c-.1.4-.2.9-.3 1.3-.1.9.7 1.7-1.5 2.6-1 .4-1.7.2-2.2-.9-.5-1-.7-2.2-.5-3.3.1-.7.4-1.4.6-2.1.2-.7.1-1.1 0-1.7-.4-1.4-.6-3-.7-4.4 0-.4-.1-.8.1-1.2.1-.4.4-.7.7-.9 1.5 5 4.4 6.7 3.8 10.6z"/><path fill="#000e41" d="M566.7 205h-3c-2.2 0-3.9-1.7-3.9-3.9V188c0-2.2 1.7-3.9 3.9-3.9h3c2.2 0 3.9 1.7 3.9 3.9v13.1c0 2.1-1.8 3.9-3.9 3.9z"/><path fill="#ea0073" d="M597 191.1c-2.6-6.1-5.7-6.6-14.7-10.3-1.7-.7-3.3-1.4-4.7-2.5l-1.4 10 14.2 11.5v.3l.1.1c.3.4.4.9.6 1.4 3.3 11.8 6.6 14.4 4.6 18.2-1.4 2.8-5-2.2-8.5-6.4l-12.6-10.5-2.7 2.6c5.8 3.7 12.9 15.9 21.6 22.1 3.2 2.2 5.7 2.1 7.3-.9.1-1 .2-2 .3-2.9 1.3-11.3-2.3-28.4-4.1-32.7z"/><path fill="#000e41" d="M595.7 219.8c1.9-3.8-1.4-6.4-4.6-18.2-.1-.5-.3-1-.6-1.4l-.1-.1.7 16.6-4-3.3c3.6 4.1 7.2 9.2 8.6 6.4z"/><path fill="#a10c50" d="M570.7 204.2c-.6.5-1.1 1.1-1.7 1.6-.7.7-.7 1.9 0 2.5.7.7 1.8.7 2.5 0 .6-.5 1.1-1.1 1.7-1.6.7-.7.7-1.9 0-2.5-.7-.7-1.8-.7-2.5 0-.6.5-1.1 1.1-1.7 1.6-.7.7-.7 1.9 0 2.5.7.7 1.8.7 2.5 0 .6-.5 1.1-1.1 1.7-1.6.7-.7.7-1.9 0-2.5-.7-.7-1.8-.7-2.5 0z"/><path fill="#000e41" d="M591.4 231.9c2.5 1.1 5.6 1.1 7.6-.7 1.2-1.1 1.7-2.8 1.9-4.6-1.7 3-4.1 3.2-7.3.9-8.7-6.1-15.8-18.3-21.6-22.1l-1.7 1.6c12.5 15.5 15.7 22.5 21.1 24.9z"/><path fill="#f8aad0" d="M566.6 203.5c1.4.5 2.8.7 4.1 1.3.4.2.8.4 1.2.7l1.9-1.9-1.9-2.3c.1-.1.1-.2.1-.3.2-.7.1-1.6-.4-2.1-6.7-9-7.8-10.6-9.2-10-.2.1-.5.3-.5.6 0 .8 1.7 3.2 5.4 8.5-3.6-1.7-6-4.2-7.6-3.9-.6.1-.6.5-.5 1.8 1.2 3.5 4 6.4 7.4 7.6z"/><path fill="#f155a2" d="M563 203.8c.9 1.2 1.5 1.7 3.8 1.9 2.4.2 1.6.1 3.5 1.5l1.7-1.6c-.4-.3-.8-.5-1.2-.7-1.3-.6-2.8-.8-4.1-1.3-3.4-1.2-6.2-4.2-7.2-7.7 0 .4.1.9.1 1.6.1 2.4.5 2.6 3.4 6.3z"/><path fill="#082487" d="M659.7 235.2c.3-.6.5-1.3.6-2 .1-.7 0-1.4-.3-2.1l-1.9-.9c.3.6.4 1.4.3 2.1-.1.7-.3 1.4-.6 2"/><path fill="#082487" d="M658.6 237.6c-.3.6-.8 1.1-1.4 1.4-.6.3-1.3.4-1.9.2l-1.8-.8c.7.1 1.3 0 1.9-.2.6-.3 1.1-.8 1.4-1.4"/><path fill="#761a81" d="M659.6 236.3l-.4.8c-.3.7-1.1 1-1.8.7-.7-.3-1-1.1-.7-1.8l.4-.8c.3-.7 1.1-1 1.8-.7.7.2 1 1.1.7 1.8z"/><path fill="none" d="M650.6 341c.5.1.9-.3 1.2-.7.5-.6 1-1.3 1.4-1.9-.4.7-.9 1.3-1.4 1.9-.3.4-.7.8-1.2.7z"/><path fill="none" d="M647.7 336.8c.4.2.8.4 1.1.7-.4-.2-.7-.5-1.1-.7z"/><path fill="none" d="M650.1 340.6c-.2-.3-.2-.7-.3-1.1.1.3.1.7.3 1.1z"/><path fill="none" d="M648.8 337.5c.4.4.8.9.9 1.4-.2-.5-.5-1-.9-1.4z"/><path fill="none" d="M654.5 336.3c-.2.3-.4.6-.5 1 .1-.3.3-.6.5-1z"/><path fill="#fff" d="M643.5 358.4c4.4-.5 5.9-2.7 7.7-6.4 5.6-11.3 7-13.5 7-16.7 0-2.2-.8-4.4-1.3-6.6-.2 1.3-.5 2.6-1 3.9-.3.8-.5 1.5-.9 2.3-.2.5-.5 1-.7 1.4-.2.3-.4.6-.5 1-.2.4-.5.7-.7 1.1-.4.7-.9 1.3-1.4 1.9-.3.4-.7.7-1.2.7-.3-.1-.4-.2-.5-.4-.2-.3-.2-.7-.3-1.1v-.2c0-.1 0-.2-.1-.2-.2-.6-.5-1-.9-1.4-.3-.3-.7-.5-1.1-.7-2.4 5.3-5 10.4-8.3 15.2-1.1 1.5-2.3 3.2-1.9 5 0 .1.1.2.1.4 1.6.6 3.6 1 6 .8z"/><path fill="#3f1f84" d="M646.3 271.2c1.3 5.9 6.9 10.5 7.3 16.5.3 4-1.9 7.8-3.5 11.5-5.8 12.7-1.3 17.2.8 22.3l6.3-.3c1.2-11.7 6.1-31 4.5-46-.6-5.9-1.9-12.6-6-17.2-.2-.2-.4-.4-.5-.6-5.2.6-10.4 6.9-8.9 13.8z"/><path fill="#f8aad0" d="M651.7 325.2c.1 2.4-.9 4.7-1.9 6.9-.7 1.6-1.4 3.1-2.1 4.7.4.2.8.4 1.1.7.4.4.8.9.9 1.4 0 .1 0 .2.1.2v.2c.1.4.1.8.3 1.1.1.2.3.4.5.4.5.1.9-.3 1.2-.7.5-.6 1-1.3 1.4-1.9.2-.4.5-.7.7-1.1.2-.3.4-.6.5-1 .3-.5.5-1 .7-1.4.3-.7.6-1.5.9-2.3.4-1.3.7-2.6 1-3.9 0 .1 0 .2.1.3v-.3c-.1-.3-.1-.7-.2-1-.1-1.1-.1-2.3-.1-3.8l-5.3.1c.1.7.2 1.1.2 1.4z"/><path fill="#bac1cf" d="M656.1 332.6c-.3.8-.5 1.5-.9 2.3.3-.7.6-1.5.9-2.3z"/><path fill="#bac1cf" d="M655.2 334.9c-.2.5-.5 1-.7 1.4.2-.4.5-.9.7-1.4z"/><path fill="#bac1cf" d="M653.9 337.3c-.2.4-.5.7-.7 1.1.3-.3.5-.7.7-1.1z"/><path fill="#bac1cf" d="M649.7 339c0 .1 0 .2.1.2-.1-.1-.1-.2-.1-.2z"/><path fill="#041c6f" d="M651.6 324.1l5.3-.1c0-.9.1-1.8.2-2.8l-6.3.3c.4.8.6 1.7.8 2.6z"/><path fill="#b00d7a" d="M645.4 336.1h.2c.2 0 .4.1.6.1-.2-.1-.4-.1-.6-.1h-.2z"/><path fill="#b00d7a" d="M647.6 336.8s.1 0 0 0c.1 0 0 0 0 0z"/><path fill="#b00d7a" d="M647.3 336.7c-.2-.1-.4-.1-.5-.2.1 0 .3.1.5.2z"/><path fill="#f8aad0" d="M639.4 352c3.3-4.7 5.9-9.9 8.3-15.2-.1-.1-.2-.1-.3-.1-.2-.1-.4-.1-.5-.2-.2-.1-.4-.1-.5-.2-.2-.1-.4-.1-.6-.1h-.2c-.7-.1-1.4-.2-2.1-.1-.4 1-.9 2.1-1.4 3.5-1.6 4.2-2.2 9-5.5 12-.9.8-2.2 1.8-1.9 3 .2.8 1.3 2 3.1 2.9 0-.1-.1-.2-.1-.4-.6-1.9.6-3.6 1.7-5.1z"/><path fill="#041c6f" d="M640.3 264.5c1.1 9.4.1 11.9 4.5 57.3l6-.3c-2-5-6.6-9.6-.8-22.3 1.7-3.7 3.8-7.4 3.5-11.5-.4-6-6-10.6-7.3-16.5-1.5-6.9 3.7-13.2 8.8-13.9-6.3-6.3-15.8-2.4-14.7 7.2z"/><path fill="#f155a2" d="M649.8 332.2c1-2.2 2-4.5 1.9-6.9 0-.4 0-.8-.1-1.1l-6.5.2c.1.7.1 1.4.2 2.1.4 4.5-1 7.3-2 9.6.7-.2 1.4-.1 2.1.1h.2c.2 0 .4.1.6.1.2.1.4.1.5.2.2.1.4.1.5.2.1 0 .2.1.3.1.9-1.5 1.6-3.1 2.3-4.6z"/><path fill="#b00d7a" d="M643.3 336c.7-.2 1.4-.1 2.1.1-.7-.2-1.4-.2-2.1-.1z"/><path fill="#b00d7a" d="M646.8 336.4c-.2-.1-.4-.1-.5-.2.1.1.3.2.5.2z"/><path fill="#000e41" d="M650.8 321.5l-6 .3c.1.8.2 1.7.2 2.5l6.5-.2c-.1-.9-.3-1.8-.7-2.6z"/><path fill="#fff" d="M678.9 253.4c-.3.2-.6.2-.9.3-2.1.5-3.3 3.1-2.7 5.1.1.5.4 1.1.2 1.6v.1c1.5.9 3.1 1.8 4.9 2.9 4.1 2.4 6.8 3.3 10.4 1.8 2.2-2.3 4-5.5 4.3-9.4.2-2.4-.7-3-2.2-3.3-3.7-.7-7.7-.2-11.3-1.3-.8-.2-1.6-.6-2.5-.7-.1 0-.3 0-.4-.1.2.2.4.4.5.6.4.8.5 1.9-.3 2.4z"/><path fill="#f8aad0" d="M675.5 260.5v-.1c.2-.5-.1-1.1-.2-1.6-.5-2.1.6-4.6 2.7-5.1.3-.1.6-.1.9-.3.8-.5.7-1.6.2-2.3-.2-.2-.3-.4-.5-.6-1.8-.2-3.6.3-5.3-.1-1.4-.3-2.6-.7-6.6-2.5l-2.3 6.2c2.3 1.3 5.5 3.2 11.1 6.4z"/><path fill="#3f1f84" d="M610.3 233.7c1.1 2.7 4 4.1 6.9 4.5 5 .7 12.5-1.6 16.3 3.2.9 1.2 1.4 2.6 2.1 3.9 1.5 2.8 4.2 4.9 7.2 5.9 5.2 1.6 10.9-.3 16.3.9 1 .2 1.8.5 2.9.9l2.1-6.2c-6.7-3.1-19.1-8.9-44-20.1-3.5-2-7.6-1.2-9.9 1.3-.4 1.9-.6 3.9.1 5.7z"/><path fill="#041c6f" d="M664.4 254.1l2.3-6.2c-.8-.3-1.6-.7-2.6-1.2L662 253c.7.3 1.4.6 2.4 1.1z"/><path fill="#f8aad0" d="M680.4 263.4c-1.8-1.1-3.4-2-4.9-2.9-.5 1.3-3 .9-4.8.6l1.3.4c.4.8 1.3 1.3 2.1 1.6 1.1.4 2.3.5 3.4 1.1 2.2 1.1 3.4 3.8 5.8 4.4 2 .5 5.1-.9 7.6-3.5-3.8 1.6-6.4.7-10.5-1.7z"/><path fill="#041c6f" d="M608.5 233c.3 4.5 6.6 11.7 10.6 14.6 7.4 5.4 16.6 6.2 25.7 7 5.3.5 10.5 1.5 15.6 3l1.6-4.7c-1-.5-1.9-.7-2.9-.9-5.3-1.2-11.1.7-16.3-.9-3-.9-5.7-3.1-7.2-5.9-.7-1.3-1.2-2.7-2.1-3.9-3.8-4.8-11.3-2.5-16.3-3.2-2.8-.4-5.8-1.8-6.9-4.5-.7-1.8-.5-3.8-.1-5.8-1.2 1.4-1.9 3.1-1.7 5.2z"/><path fill="#000e41" d="M662 253l-1.6 4.7c.8.2 1.6.5 2.4.8l1.6-4.3c-1-.6-1.7-.9-2.4-1.2z"/><path fill="#f8aad0" d="M642.6 205.3c-.1-.6-.6-1-1.1-.9l-5.7.5c-.9.1-1.9.2-2.8.5l-4.7 1.2c7.1-2.8 10.3-1.4 11.6-3.8.1-.2.2-.5 0-.6-.2-.1-5.8-.1-9.4.8-1.8.5-3.6 1.2-5.4 1.9-.9.4-1.4 1.1-1.8 2-.1.3-.1.7-.2 1 0 .6 0 1.2.3 1.8.9 1.8 3.9 1.8 4.8 3.7.6 1.4-.4 3-1.6 4-1.7 1.4-3.9 2.4-4.7 4.5v.1c1.4.2 3.1-.2 4.8-1.5 1.5-1.2 2.6-2.8 3.7-4.5l3.9-1.8c1.6-.8 3.1-1.8 4.4-3l3-2.9c.7-.9 1.1-2 .9-3z"/><path fill="#f155a2" d="M626.6 217.4c1.2-1 2.3-2.6 1.6-4-.8-1.9-3.8-1.9-4.8-3.7-.3-.5-.3-1.2-.3-1.8 0-.4.1-.7.2-1-.5 1.1-.7 2.3-.9 3-1 3.4-3 6.6-3.6 10.1.5 1 1.6 1.7 3 1.9v-.1c.9-1.9 3.1-3 4.8-4.4z"/><path fill="#b00d7a" d="M578.3 151.3c-1.2-.7-2.8-1-4.2-1.3-3.6-.7-7.4-1-10.5.9-1.4.9-2.5 2.2-3.2 3.6 0 .8.4 1.4 1.3 1.6 1.4.3 4.1-.5 4.8.6.3.4.1.9-.1 1.4-.2.4-.6.8-.7 1.2-.2.6 0 1.2.3 1.6 2.6-.6 5.7-.5 8.8-1.4 3-.8 2.8-2.2 3.4-6.4.3-.5.7-1.4.1-1.8z"/><path fill="#082487" d="M565.8 159.4c.1-.5.5-.8.7-1.2.2-.4.4-1 .1-1.4-.8-1.1-3.4-.2-4.8-.6-.9-.2-1.3-.9-1.3-1.6-.8 1.9-1 4.1-.3 6.1.6 1.9 1.5 1.9 1.7 2.7 1.1-1.3 2.6-2 4.3-2.4-.4-.5-.6-1.1-.4-1.6z"/><path fill="#041c6f" d="M505.4 151c.8-3.1-.7-4.2-3.7-4.6-2.9-.4-6-.6-8.6.3 0 .2.1.4.1.5.3.8 1.9.9 2.6 1.1.7.2 1.4.8 1.3 1.5-.1.6-1.4 2.1-.5 3.4 1.1 1.5 2.3-.2 4.5-.7.8-.2 1.6-.1 2.3.3.1 0 .3-.1.4-.1 1-.5 1.3-.7 1.6-1.7z"/><path fill="#082487" d="M494.2 140.8c-.1 0 0 0 0 0z"/><path fill="#000e41" d="M501.1 152.4c-2.2.5-3.4 2.2-4.5.7-.9-1.3.4-2.7.5-3.4.1-.7-.6-1.3-1.3-1.5-.7-.2-2.3-.3-2.6-1.1-.1-.2-.1-.3-.1-.5-1 .3-2 .8-2.9 1.6-2.2 1.7-1.2 2.3-.6 3.6.4.9.1.8 6.6 2.8 1.1.3.4.4 7.3-2-.8-.3-1.6-.4-2.4-.2z"/><path fill="none" d="M499.6 180.5l2.3-.6c-.1-.6-.6-1-1.2-1.1l-1.3-.3c-.8-.2-1.7-.2-2.5-.2-.1.8-.5 1.5-.8 2.2 1.1.4 2.3.4 3.5 0z"/><path fill="none" d="M494.6 178.8c-.5.1-1 .5-1.2 1l2.5.7h.2c.4-.7.7-1.5.8-2.2-.3 0-.7.1-1 .2l-1.3.3z"/><path fill="#000e41" d="M495.1 184.3c-.2-.5-.1-1.2.1-1.7.2-.7.6-1.3.9-2h-.2l-2.5-.7c.2-.5.6-.9 1.2-1l1.3-.3c.3-.1.7-.1 1-.2.1-.3.1-.6.1-1-.2 0-.3 0-.5.1l-3.4.5c-.2 0-.3.1-.4.2l-.2.2c-.4.3-.9.3-1.2-.1l-1.4-2.1c-.9-1.3-1.4-2.8-1.5-4.4l-.6-5.7-.6 1.1 1 6c.2 1.4.6 2.8 1.2 4.1l2.5 6.1c.4 1 1.3 1.8 2.4 2.1l.6.2c.6.2 1.2.2 1.9.3-.2-.1-.4-.2-.6-.4-.5-.4-.9-.8-1.1-1.3z"/><path fill="#000e41" d="M507.5 166l-.4 5.5c-.1 1.7-.7 3.3-1.6 4.7l-1.3 2c-.3.5-1 .6-1.4.2l-.2-.2c-.1-.1-.3-.2-.5-.2l-3.3-.5c-.6-.1-1.2-.1-1.8-.1 0 .3 0 .7-.1 1 .8-.1 1.7 0 2.5.2l1.3.3c.6.1 1 .6 1.2 1.1l-2.3.6c-1.1.3-2.4.3-3.5 0-.3.7-.7 1.3-.9 2-.2.6-.3 1.2-.1 1.7.2.5.6.9 1 1.2.2.1.4.2.6.4 1.2.1 2.5 0 3.7-.3l.8-.2c1.1-.3 2-1 2.4-2.1l2.4-5.9c.6-1.5 1-3 1.2-4.6l.8-5.7-.5-1.1z"/><path fill="#761a81" d="M507 168.2h-6.3c-.4 0-.8.1-1.2.2l-.8.3H497l-.8-.3c-.4-.1-.8-.2-1.2-.2h-6.3c-.3 0-.6.3-.6.6v.9c0 2 2.4 3.1 3.8 3.1 5.2 0 4.3-2.9 5.7-2.9h.6c1.4 0 .4 2.9 5.7 2.9 1.5 0 3.8-1.1 3.8-3.1v-.9c-.1-.3-.4-.6-.7-.6zm-10.8 1.9c-.1.1-.1.2-.2.3-.5.8-1.1 1.8-4.2 1.8-1.1 0-3.2-.9-3.2-2.5v-.8h6.3c.3 0 .6.1.9.2.3.1.5.4.5.7.1 0 0 .2-.1.3zm10.8-.4c0 1.7-2.1 2.5-3.2 2.5-3.1 0-3.8-1.1-4.2-1.8-.1-.1-.1-.2-.2-.3-.1-.1-.1-.3-.1-.4 0-.3.2-.6.5-.7.3-.1.6-.2.9-.2h6.3v.9z"/><path fill="#041c6f" d="M648.3 155.6c.1-.2.2-.5.2-.7.2-1 .1-2.1-.5-2.9-.4-.5-.8-.9-1.3-1.3-1.9-1.4-3.9-2.6-6.1-3.2-1.7-.4-2.9-.4-8.6-.3-1.3 1.2-1.3 3.3 1.3 3.9 1 .2 2 .3 2.9.6.9.4 1.8 1.1 1.9 2.1.1.8-.5 2.4 1.2 3.1 3.1.5 6.2 0 9-1.3z"/><path fill="#000e41" d="M638.2 153.8c-.1-1-1-1.7-1.9-2.1-.9-.4-1.9-.4-2.9-.6-2.7-.5-2.7-2.7-1.3-3.9h-3.4c.5 1.5.6 4.5 4.8 7.3 1.9 1.3 4 2.1 6.1 2.4-1.9-.7-1.3-2.3-1.4-3.1z"/><ellipse cx="498.4" cy="221.3" fill="#fff" rx="4.3" ry="3.7"/><ellipse cx="422.3" cy="236.6" fill="#fff" rx="3" ry="2.6"/><ellipse cx="342.8" cy="230.5" fill="#fff" rx="3" ry="2.6"/><path fill="#ea0073" d="M510.1 333.2c1.4-.4 3.5-1 4.9-.6 1.9.5 2.7-2.4.8-2.9-2-.5-4.5.1-6.5.6-1.8.4-1 3.3.8 2.9z"/><path fill="#ea0073" d="M510.7 335.4c1.8-.5 3.5-.6 5.4-.5.7.1 1.4-.6 1.5-1.3.1-.8-.4-1.4-1.1-1.6-.1 0-.1 0-.2-.1-.8-.3-1.6.3-1.8 1-.2.9.3 1.5 1 1.8.1 0 .1 0 .2.1.1-1 .3-2 .4-2.9-2.1-.2-4.2 0-6.2.6-1.9.6-1.1 3.5.8 2.9z"/><path fill="#ea0073" d="M511.2 337.8c1.8-.4 3.6-.6 5.4-.6 1.9 0 1.9-3 0-3-2.1 0-4.1.3-6.2.8-1.9.3-1.1 3.2.8 2.8z"/><path fill="#ea0073" d="M479.6 332c1.5-.7 4.1 0 5.7.3 1.9.4 2.7-2.4.8-2.9-2.5-.6-5.5-1.1-8 0-1.7.8-.2 3.4 1.5 2.6z"/><path fill="#ea0073" d="M478.8 334.5c1.7-.2 3.3-.3 4.9.3 1.8.7 2.6-2.2.8-2.9-2.1-.8-4.3-.6-6.5-.3-.8.1-1.2 1.1-1 1.8.2.9 1 1.2 1.8 1.1z"/><path fill="#ea0073" d="M478.5 337.1c1.4-.5 2.8-.5 4.2 0 1.8.6 2.6-2.3.8-2.9-1.9-.6-3.9-.6-5.8 0-1.8.6-1 3.5.8 2.9z"/><path fill="#b00d7a" d="M336.8 164.7c-2.8 2.2-5.1 4.9-6.9 7.9-1.4-3.5-1.6-7.4-.7-11 .3-1 .7-2.1 1.6-2.7.8-.5 1.8-.5 2.8-.2 1.3.4 2.5 1.2 3.3 2.2.4.5.7 1.1.8 1.7.1.6 0 1.3-.5 1.7"/><path fill="#ea0073" d="M350.9 173.7c1.8-8.2 1.1-15.9.5-17.8-1.9-5.8-13-6.8-18.5-3.8-2.4 1.3-2.9 2.6-3.2 4.7-.2 1.4-.6 3.2-.1 4.5 3.1 7 16.8 5.7 21.3 12.4"/><path fill="#b00d7a" d="M344.2 153.4c.4-.7.8-1.5.9-2.3-1.8-.5-3.9-.6-5.8-.5 0 1.2 0 2.5-.1 3.7-.1 1.6-.5 3.1-1.3 4.5 1.3-.7 2.4-1.6 3.6-2.5.9-.8 2-1.7 2.7-2.9z"/><path fill="#ea0073" d="M328.9 160.9c1.8 3.3 10.9-1.4 13.3-4.3 2.7-3.4 1.6-7.4-2.1-8.8-3.2-1.2-6.5.3-9.4 2.2-1.4 1-2.9 2.2-3.2 3.9-.3 1.6.7 5.3 1.4 7"/><path fill="#b00d7a" d="M336.2 160.7c-.9-.2-1.4-.4-1.3-1.4.3-1.7 2.3-2.6 3.1-4.2.4-.8-.2-1.6-1-1.6-3.3-.2-6.5 0-6.7-.9l.5-2.7-.1.1c-1.4 1-2.9 2.2-3.2 3.9-.3 1.6.8 5.3 1.4 7 1 1.8 4.2 1.2 7.3-.2z"/><path fill="#b00d7a" d="M330.6 150c-1.2.8-2.4 1.7-2.9 3 0 .1.1.1.1.1.3.2.6.3.9.3 2.5.3 5.1-.1 7.5-.6 1.3-.3 2.7-.7 3.8-1.6.9-.7 1.4-1.7 1.4-2.7-.4-.3-.9-.5-1.4-.7-3.2-1.1-6.5.3-9.4 2.2z"/><path fill="#d3c0f3" d="M543.2 48.7c-6.4 4.4-13.3 8-20.5 10.7-1.6.6-3.3 1.2-4.9 1.9-.8.4-1.8 1-1.7 1.9.1.4.3.7.6 1 1.5 1.4 3.9 1.5 5.9 1 2-.6 3.8-1.7 5.6-2.6 2.1-1 4.4-1.8 6.8-2.2 1.5-.3 3-.4 4.5-.8s2.9-1.2 3.8-2.5c1.6-2.3 1-5.3.1-8 .1-.1.2-.3.3-.4"/><path fill="#d3c0f3" d="M569.9 62.2c1.4 5.4 2.4 10.9 3.1 16.4.7 5.4 1.1 10.9 2.1 16.3 1.1 5.4 2.9 10.7 6.2 15.1.1.3-.2.6-.5.6s-.6-.2-.8-.4c-1.5-1.2-2.6-2.8-3.6-4.5-5.4-8.8-9-18.7-12.1-28.6-1.4-4.6-2.8-9.3-3-14.1-.1-2 .2-4.5 2-5.5 1.3-.7 3-.4 4.2.5 1.2.9 1.9 2.3 2.5 3.7"/><path fill="#fecbf6" d="M566.1 64.5c2.3 15.1 4.7 30.4 10 44.7.1.2.1.4.1.6-.1.5-.8.5-1.3.3-13.6-3.7-24.8-14.3-30.8-27-2-4.3-3.5-8.9-3.5-13.6s1.9-9.6 5.7-12.5c1.8-1.4 4.1-2.3 6.3-2.8 3.2-.6 6.8-.2 9.4 1.8 2.4 1.9 3.6 5.1 3.9 8.2"/><path fill="#f2f2f2" d="M591.3 56.8c-2.1-6.4-2.1-6.7-2.6-7.4-.8-1.2-2.3-1.9-3.7-2.1-3.5-.6-5.2 1-7.4 1.5-3.5.8-9-1.9-24.8-1.8-2.1 0-4.2.1-6.3.5-4.1.9-7.7 3.2-10.7 6-.7.6-.8 1.2-.1 1.7 2.5 2 6 1.7 9 2.7 3 1 14.8 10.7 29.2 6.5 3.4-1.3 6.5-3.5 8.9-6.3.8-.9 1.5-1.9 2.5-2.5 1.9-1 4.4-.3 5.9 1.3"/><circle cx="587.7" cy="50.7" r=".5" fill="#ea0073"/><path fill="#f2f2f2" d="M575.7 52.3c2.2 2.3 2.5 5.6 3.9 8.4 1.1 2.2 2.8 4.1 4.2 6.1 3.4 4.9 5.1 10.6 7.6 16 4.7 10 12.2 18.4 20.2 26-.2.5-1 .4-1.5.2-5-2.1-9.9-6.3-13.6-10.3-8.7-9.7-16.5-20.3-23.2-31.5-2.2-3.7-3.4-7.4-3.8-11.7-.2-1.9.3-4.2 2-4.7 1.3-.4 2.7.4 3.8 1.2"/><path fill="#f2f2f2" d="M572 55.7c5.6 18 16.4 33.9 28.1 48.7.5.6.9 1.5.3 1.9-.3.2-.7.1-1.1 0-6.9-1.9-13.2-5.5-18.9-9.9-5.6-4.4-10.6-9.6-15.4-14.9-2.1-2.3-4.1-4.6-5.9-7.1-3.5-4.6-6.2-9.7-8.2-15.1-.8-2.1-1.4-4.6-.2-6.6.7-1.2 2-1.9 3.2-2.4 6.4-2.9 14-2.6 20.2.6.9.5 1.9 1.5 1.3 2.3-.4.6-1.3.5-1.9.6-.7.1-1.3 1.1-.7 1.5"/><path fill="#ea0073" d="M587.4 53.6c.3-.1.6-.2.8-.3.2-.1.4-.2.6-.4.3-.2.7-.3 1.1-.3.3 1 .7 2.3 1.3 4.1l-.1.1c-1.1-1.1-2.6-1.8-4.1-1.8v-.1c-.1-.2-.3-.5-.2-.8.1-.1.4-.3.6-.5z"/><path fill="#f2f2f2" d="M515.6 62.3c.1-.9 1.2-1.3 2.1-1.5 7.8-2 15.2-5.4 21.7-10.2l17-2.7c-2.5.6-5 1.6-6.7 3.5-.4.4-.7.9-1 1.4-4.1 4.8-2 7.2-10.8 7.8-6.6-.1-13.6-1.7-19.9.9-.6.3-1.3.6-1.6 1.3-.1.3-.1.6-.1.9-.5-.4-.8-.9-.7-1.4z"/><path fill="#f2f2f2" d="M556.3 70.5c-4.6-7.6-9.9-13.3-11.8-11.8l-.3-2.6 12.6-1.7-.5 16.1z"/><path fill="#fecbf6" d="M911 201.2c-2-3.3-3.9-6.6-5.2-10.3-1.2-3.4-1.8-7-2.4-10.6-1.2-7.2-2.5-14.5-4.6-21.5-.4-1.3-.8-2.5-1-3.8 0-.2 0-.4.1-.6.2-.2.5-.1.7 0 1.6.8 2.8 2.3 3.9 3.8 1.4 2 2.6 4.2 3.8 6.3 1.2 2.2 2.4 4.3 3.3 6.6 1 2.5 1.7 5.2 2.3 7.9 2 8.9 3.8 17.9 3.8 27.1"/><path fill="#fecbf6" d="M912.8 203.8c.2.3.5.6.7.9-1.7-17.5-5.4-34.1-9.7-51.1-.1-.6-.2-1.2.2-1.6.2-.2.6-.3.9-.3 1.4 0 2.8.6 4 1.3 7.2 4.2 12.4 11.5 15.2 19.3s3.7 16.3 3.7 24.7c0 2.3-.1 4.6-.9 6.8"/><path fill="#f2f2f2" d="M913.9 204.8c6.5-4.1 10.6-10.9 16.7-15.5 2-1.5 4.1-2.7 6.1-4.1 8.8-6.2 14.7-15.7 19-25.6.6-1.4 1.2-2.9 2.1-4.2 1.2.7 1.1 2.4.9 3.8-1.8 12.3-8.2 23.5-15.6 33.5-2.5 3.4-5.2 6.7-8.2 9.7-3.2 3.2-6.8 6-10.6 8.4"/><path fill="#f2f2f2" d="M925.1 214c7.9-2 15.9-4.1 23.1-7.9 7.2-3.8 13.6-9.7 16.4-17.4.8-2.1 1.3-4.4 1.8-6.6.8-3.7 1.5-7.4 1.4-11.2-.1-3.8-1.2-7.6-3.5-10.5-.2-.3-.5-.6-.9-.6-.5-.1-1 .4-1.3.8-8 10.9-9.2 26.1-27.7 29.8l-17.8 15.7 8.5 7.9z"/><path fill="#f2f2f2" d="M931.9 227.4c9.7.8 13.5 12.8 21.5 17.3 1.7.9 2.5.1 2.6-1.6.2-3.6-1.1-9.4-2.1-11-2.3-3.9-7.5-4.1-11-6.7-3.4-2.5-3.7-5.7-6-9.3-2.7-4.4-8.4-2.1-10.3 1.7s-.3 9.1 5.3 9.6z"/><path fill="#f2f2f2" d="M941.2 225.4c-.2-1.1-.8-2.2-1.2-3.3-9.5-23.4-23.3-18.2-33.3-27.4-1-.9-1.8-1.9-2.9-2.7-3.6-2.8-9.3-2.4-12.5.8-.9.9-1.5 1.9-2.7 3.8.6.1 1.2.1 1.8.2.5.1 1.1.1 1.6.4.5.3.9.7.9 1.3 0 .4-.2.7-.4 1 .6.2 1.2.5 1.8.9 4.7 3.1 7.6 11.6 10.3 15.5 7.4 10.7 22.9 10.9 36.3 12.2-.1-1.2.6-1.5.3-2.7z"/><path fill="#ea0073" d="M892 197.2c-.5-.3-1.1-.3-1.6-.4-.6-.1-1.2-.1-1.8-.2-.5.9-1.2 2-2.1 3.4 2.3-1.1 4.2-1.2 5.9-.6.2-.3.4-.6.4-1s-.4-.9-.8-1.2z"/><circle cx="895.8" cy="195.3" r=".8" fill="#ea0073"/><path fill="#fecbf6" d="M197.1 109.3c-6-4.7-9.4-12-15-17.2-1.8-1.7-3.8-3.1-5.6-4.7-8.1-7.1-12.9-17.2-16.2-27.4-.5-1.5-.9-3-1.7-4.4-1.2.6-1.4 2.3-1.3 3.6.6 12.4 5.7 24.2 12 34.9 2.2 3.6 4.5 7.2 7.1 10.5 2.9 3.5 6.1 6.7 9.7 9.5"/><path fill="#fecbf6" d="M184.9 117.3c-7.6-2.8-15.4-5.7-22.1-10.3-6.7-4.6-12.5-11.1-14.5-19-.6-2.2-.8-4.5-1.1-6.8-.4-3.8-.7-7.5-.2-11.3s1.9-7.4 4.6-10.1c.3-.3.6-.5.9-.5.5 0 .9.5 1.2.9 6.8 11.6 6.5 27 24.5 32.5l16 17.5-9.3 7.1z"/><path fill="#f2f2f2" d="M192.5 109c-.2.4-.4.7-.5 1.1-2.5-19.9-2.4-39.3-2-59.3 0-.7 0-1.4-.6-1.8-.3-.2-.7-.1-1.1-.1-1.6.3-3 1.4-4.2 2.5-7 6.5-10.9 15.8-12.2 25.3s0 19.1 2.1 28.4c.6 2.6 1.7 4.9 2.7 7.3 3.6 9.2 7.7 10.7 7.7 10.7"/><path fill="#f2f2f2" d="M177.6 129.7c-9.7.8-13.5 12.8-21.5 17.3-1.7.9-2.5.1-2.6-1.6-.2-3.6 1.1-9.4 2.1-11 2.3-3.9 7.5-4.1 11-6.7 3.4-2.5 3.7-5.7 6-9.3 2.7-4.4 8.4-2.1 10.3 1.7 1.9 3.7.3 9.2-5.3 9.6z"/><path fill="#f2f2f2" d="M168.3 127.7c.2-1.1.8-2.2 1.2-3.3 9.5-23.4 23.3-18.2 33.3-27.4 1-.9 1.8-1.9 2.9-2.7 3.6-2.8 9.3-2.4 12.5.8.9.9 1.5 1.9 2.7 3.8-.6.1-1.2.1-1.8.2-.5.1-1.1.1-1.6.4-.5.3-.9.7-.9 1.3 0 .4.2.7.4 1-.6.2-1.2.5-1.8.9-4.7 3.1-7.6 11.6-10.3 15.5-7.4 10.7-22.9 10.9-36.3 12.2.1-1.2-.6-1.5-.3-2.7z"/><path fill="#ea0073" d="M217.5 99.5c.5-.3 1.1-.3 1.6-.4.6-.1 1.2-.1 1.8-.2.5.9 1.2 2 2.1 3.4-2.3-1.1-4.2-1.2-5.9-.6-.2-.3-.4-.6-.4-1s.4-.9.8-1.2z"/><circle cx="213.7" cy="97.6" r=".8" fill="#ea0073"/><path fill="#f2f2f2" d="M193.8 105.6c1.4-4.2 2.7-8.4 3.3-12.7.5-4.1.3-8.3 0-12.4-.5-8.4-.8-16.8-.2-25.1.1-1.5.3-3 .1-4.5 0-.2-.1-.5-.3-.6-.3-.2-.6 0-.8.2-1.6 1.3-2.6 3.3-3.4 5.2-1 2.6-1.8 5.3-2.6 8s-1.6 5.4-2 8.2c-.5 3.1-.5 6.2-.6 9.4-.1 10.4.2 20.9 2.5 31.1"/><path fill="#f2f2f2" d="M126.4 296.1c8.8 2.3 18-.7 27.1-.6 2.3 0 4.7.3 7 .2 2.7 0 5.4-.4 8.1-.9 11.3-1.9 22.5-4.8 33.4-8.5-.9 1.5-2.4 2.4-3.9 3.3-2.2 1.3-4.4 2.4-6.6 3.6-5.1 2.6-10.3 5.3-15.4 7.9-3.7 1.9-7.4 3.8-11.2 5.7-8.2 4.1-16.7 5.5-25.8 6.7-3.4.4-6.3-1.7-9.6-2.7-3.3-1-6.8 1.6-8.3-1.5"/><path fill="#fecbf6" d="M122.4 309.9c5.4 6.2 9.6 8.2 18.7 7.8 11.6-.5 22.9-4 33-9.4 10.1-5.4 18.9-12.6 26.6-20.7l-29.4 9.6c-9.5 3.1-19.5 4.8-29.5 5l-17.9.4"/><path fill="#f2f2f2" d="M119 291.1c-4.9.8-10.1.2-14.2-2.6-1.7-1.2-3.1-2.6-4.6-3.9-2-1.6-4.3-2.9-6.6-4.2-7.7-4.1-15.8-7.7-22.6-13.3-6.4-5.3-11.3-12.2-16.1-19-.5 2.2.4 4.5 1.4 6.6 5.3 11.3 13.1 21.5 22.9 29.3 9.8 7.8 21.6 13 34 14.7"/><path fill="#fecbf6" d="M67.5 269.3c-5.9-5.9-11.6-12.2-16.8-18.7-.3 9.2 3.8 17.9 8.5 25.9 1.6 2.7 3.3 5.4 5.2 7.9 2.7 3.3 5.9 6.1 8.9 9 5.6 5.3 11.2 11.3 18.6 13.6 6.8 2.1 14.6.7 20.3-3.7l2.1-8-46.8-26z"/><path fill="#fecbf6" d="M50.6 251.3c.3 8.5 3.7 16.7 7.7 24.2 7.2 13.7 16.8 26.5 31.3 32.3 8.4 3.4 13.8 2.2 21.8-3.2V297l-26.9-13.9c-9.8-5.1-18.5-12-25.5-20.5l-4.2-5.1"/><path fill="#fecbf6" d="M120 319.4c12.4 13.2 12.4 13 12.7 14.1.4 1.8-1.5 3.8-2.8 5.1-17.8 16.8-44.9 13.3-51-15.6-.2-1-.3-2.3.5-2.9 1.1-.9 7-.7 26.7-5.2"/><path fill="#f2f2f2" d="M101.3 337.5c-.8-9-.6-18.2 2.7-26.6.9-2.3 1.7-3.9 5.4-11.7 3.8-7.9 6.2-7.1 8.4-8 3.1-1.3 5-5.8 8.7-5.3 2.4.3 4.1 3 3.2 5.9-.6 2-.8 1.7 0 4.5 2.3 8-2.4 12.9-4.7 18.2-.8 1.8-1.3 3.7-2 5.5-3.3 8.2-10.4 14.3-17.2 20-1 .9-2.6 1.7-3.6.8-1-.9-.8-1.8-.9-3.3"/><path fill="#f2f2f2" d="M119.7 290c.8-.7 1.6-1.5 2.4-2.2.4-.4.8-.8 1.3-1.1 1-.7 2.3-.9 3.5-.8s2.3.8 3.1 1.8l.6.9c.2.4.2.9.2 1.3 0 .8-.3 1.7-.7 2.4-.5.9-1.3 1.6-1.9 2.4-.5.8-.8 1.7-1.4 2.3-.6.5-1.4.8-2.2.7-.8 0-1.5-.3-2.2-.7-1.3-.7-2.4-1.8-2.9-3.1-.5-1.4-.3-3 .6-4.1"/><path fill="#ea0073" d="M126.6 295.8c-.8-.6-.2-2.5 1.8-2.5.5 0 .7.1.9.8.3 1.3.2 2.7-.1 4-.1.3-.1.6-.4.8-.8-3.2-1.7-2.5-2.2-3.1"/><ellipse cx="124" cy="290.3" fill="#ea0073" rx=".5" ry=".9" transform="rotate(-19.136 124.002 290.285)"/></svg>