<svg id="Layer_1" data-name="Layer 1" xmlns="http://www.w3.org/2000/svg" viewBox="0 0 99.327 250"><defs><style>.cls-1{fill:#f8aad0;}.cls-2{fill:#f155a2;}.cls-3{fill:#761a81;}.cls-4{fill:#3f1f84;}.cls-5{opacity:0.45;}.cls-6{fill:#fff;}.cls-7{fill:#041c6f;}.cls-8{fill:#000e41;}.cls-9{fill:none;stroke:#3f1f84;stroke-linecap:round;stroke-miterlimit:10;stroke-width:0.8046px;}.cls-10{fill:#ea0073;}.cls-11{fill:#b00d7a;}</style></defs><title>bbc-thumb-layer2</title><path class="cls-1" d="M139.381,72.41l5.5954-20.2554c-3.3126-3.1609-11.8017-7.1673-15.6668-8.9067-2.3641-1.0639-5.1538-2.6267-5.0431-5.0975H113.2184a28.8333,28.8333,0,0,1-2.4791,5.1751c-3.0106,4.9861-7.088,9.2827-9.903,14.3818-1.38,2.5006-2.4431,5.5681-1.2241,8.1512,1.1,2.3315,3.7159,3.5132,6.1991,4.2063s5.1427,1.1362,7.1838,2.711c3.605,2.7816,4.0214,8.2272,2.5288,12.529s-4.4585,7.9053-6.7294,11.8519-3.872,8.739-2.3146,13.0177a12.01,12.01,0,0,0,1.626,2.9611h9.5259v-4.7317l27.7481-7.0788Z" transform="translate(-73.3365 0)"/><path class="cls-2" d="M108.7945,97.1566c2.2709-3.9466,5.2369-7.55,6.7294-11.8519s1.0762-9.7474-2.5288-12.529c-2.0411-1.5748-4.7007-2.0179-7.1838-2.711s-5.0989-1.8748-6.1991-4.2063c-1.219-2.5831-.1563-5.6506,1.2241-8.1512,2.815-5.0991,6.8924-9.3957,9.903-14.3818a28.8333,28.8333,0,0,0,2.4791-5.1751h-5.724c.1108,2.4708-2.679,4.0336-5.0431,5.0975-4.0553,1.825-13.2057,6.1464-16.1213,9.3677-3.1,3.4248-4.8718,10.0776-6.0094,14.5063q-4.097,15.95-6.58,32.2188c-.4947,3.2427-.8731,6.8041.9975,9.5632,2.2445,3.3108,6.87,4.2471,11.0184,4.5742a82.5645,82.5645,0,0,0,16.39-.3426h5.9594a12.01,12.01,0,0,1-1.626-2.9611C104.9225,105.8956,106.5235,101.1031,108.7945,97.1566Z" transform="translate(-73.3365 0)"/><path class="cls-3" d="M124.2665,38.15H113.2184a28.8333,28.8333,0,0,1-2.4791,5.1751c-2.08,3.4443-4.6682,6.56-6.9982,9.8381a57.724,57.724,0,0,0,8.5493,13.577,3.2476,3.2476,0,0,0,4.97,0,55.9037,55.9037,0,0,0,11.908-23.5576C126.8355,42.1205,124.1579,40.5723,124.2665,38.15Z" transform="translate(-73.3365 0)"/><path class="cls-4" d="M113.2184,38.15h-5.724c.1108,2.4708-2.679,4.0336-5.0431,5.0975-.5379.2421-1.1673.5291-1.8579.8506a52.66,52.66,0,0,0,3.1477,9.0651c2.33-3.2782,4.9185-6.3938,6.9982-9.8381A28.8333,28.8333,0,0,0,113.2184,38.15Z" transform="translate(-73.3365 0)"/><g class="cls-5"><path class="cls-6" d="M146.0044,113.478c4.1486-.327,8.7739-1.2633,11.0184-4.5741,1.8706-2.7591,1.4922-6.3206.9976-9.5633q-2.4781-16.2447-6.58-32.2188c-1.1376-4.4286-2.91-11.0814-6.0094-14.5063-.1368-.1511-.2915-.3053-.4545-.4609L139.381,72.41,145.38,101.325l-27.7481,7.0788v4.7316h11.9826A82.5571,82.5571,0,0,0,146.0044,113.478Z" transform="translate(-73.3365 0)"/></g><path class="cls-7" d="M144.642,104.752l2.818,12.305c1.0539,4.602,2.1146,9.2782,1.85,13.9919-.5631,10.04-6.4927,16.216-18.3726,15.8553-4.45-.1351-8.8543-1.0316-13.3057-1.0949V109.65Z" transform="translate(-73.3365 0)"/><path class="cls-7" d="M94.5413,132.048c3.3844,1.7782,6.805-.2484,19.4992-5.4723.04-.0164.0784-.0306.1182-.0467v-16.94l-20.561-3.7282-.8821,1.738C90.9044,113.9033,88.7115,128.9849,94.5413,132.048Z" transform="translate(-73.3365 0)"/><path class="cls-8" d="M84.3305,116.9961c-1.0539,4.602-2.1146,9.2782-1.85,13.9919.5631,10.04,6.4927,16.2161,18.3726,15.8554,4.45-.1351,8.8543-1.0316,13.3058-1.0949v-19.22c-.04.0161-.0782.03-.1182.0467-12.6942,5.2239-16.1148,7.2505-19.4992,5.4723-5.83-3.0631-3.6369-18.1447-1.8257-24.4494l.8821-1.738-6.4492-1.1694Q85.74,110.8436,84.3305,116.9961Z" transform="translate(-73.3365 0)"/><circle class="cls-6" cx="28.0216" cy="31.8542" r="1.3675"/><circle class="cls-6" cx="53.0961" cy="32.5311" r="1.3675"/><path class="cls-3" d="M114.1422,4.83c6.7483,0,12.3609,6.9592,13.5248,16.1364a22.1737,22.1737,0,0,1-.1025,5.98q-.569,3.909-1.4549,7.7629c-1.4887,6.4741-2.9867,8.4093-6.7764,11.5222-1.5367,1.2623-3.2,2.4864-5.191,2.2711-1.9917.2153-3.6588-1.0125-5.191-2.2711a20.96,20.96,0,0,1-3.58-3.5137c-2.5383-3.3889-3.96-10.8183-4.68-15.9393a21.917,21.917,0,0,1-.0782-5.781C101.7686,11.8044,107.3863,4.83,114.1422,4.83Z" transform="translate(-73.3365 0)"/><path class="cls-4" d="M112.8071,48.12c-2.9009-.9933-3.408-5.1759-4.4762-7.4035-.8285-1.7276-2.1623-3.2172-2.7053-5.0546-1.2234-4.14,1.8545-8.9053-.0952-12.7569l-4.9266-1.8177a21.9644,21.9644,0,0,0,.0879,5.69c.72,5.121,2.1412,12.55,4.68,15.9393a20.96,20.96,0,0,0,3.58,3.5137c1.5322,1.2586,3.1993,2.4864,5.191,2.2711a4.2492,4.2492,0,0,0,.5465.02A10.9376,10.9376,0,0,1,112.8071,48.12Z" transform="translate(-73.3365 0)"/><path class="cls-9" d="M112.8071,40.0431a1.9846,1.9846,0,0,0,2.7-.327" transform="translate(-73.3365 0)"/><path class="cls-10" d="M152.4387,193.5512c-3.2765.5537-3.74,3.1823-4.2714,5.3376a41.2517,41.2517,0,0,0,4.0133,7.5824c2.38,3.3083,6.0617,6.0245,10.1364,5.9448,3.8292-.0749,6.9865-2.4747,10.2621-4.6363a4.499,4.499,0,0,0,.0326-1.54c-.9175-5.5753-8.3791-5.5325-15.3752-12.2044C155.633,193.8408,154.03,193.2825,152.4387,193.5512Z" transform="translate(-73.3365 0)"/><path class="cls-3" d="M146.6731,195.58c.5187,1.0907,1.0052,2.2007,1.4942,3.3092.5316-2.1553.9949-4.7839,4.2714-5.3376,1.5908-.2687,3.1943.29,4.7978.4836a29.3357,29.3357,0,0,1-5.29-6.8653,79.4993,79.4993,0,0,1-5.5592-14.0972l-7.9284,3.8786C139.6607,183.55,143.75,189.4328,146.6731,195.58Z" transform="translate(-73.3365 0)"/><path class="cls-11" d="M152.1806,206.4712a41.2517,41.2517,0,0,1-4.0133-7.5824,5.3474,5.3474,0,0,1-.9973,2.3645,2.8934,2.8934,0,0,1-3.5459.2054,13.1507,13.1507,0,0,0,2.19,5.1444c.9967,1.2276,2.39,2.0894,3.3638,3.3354,1.1674,1.494,1.6529,3.44,2.86,4.9023,2.2033,2.6687,6.2871,3.02,9.57,1.9262.3407-.1059,1.0809-.3895,1.4173-.5083a24.5321,24.5321,0,0,0,8.286-5.7219,6.48,6.48,0,0,0,1.268-2.7571c-3.2756,2.1616-6.4329,4.5614-10.2621,4.6363C158.2423,212.4957,154.5607,209.78,152.1806,206.4712Z" transform="translate(-73.3365 0)"/><path class="cls-4" d="M147.17,201.2533a5.3474,5.3474,0,0,0,.9973-2.3645c-.489-1.1085-.9755-2.2185-1.4942-3.3092-2.9233-6.1468-7.0124-12.0292-8.214-18.6287l-4.6349,2.2674c3.9268,6.7353,7.529,13.6005,9.5067,21.1093.0986.3745.1953.7526.2932,1.1311A2.8934,2.8934,0,0,0,147.17,201.2533Z" transform="translate(-73.3365 0)"/><path class="cls-10" d="M125.4866,245.6248a14.6551,14.6551,0,0,0-.7583-6.1855,182.6338,182.6338,0,0,1-4.2124-18.0245,44.1077,44.1077,0,0,1-.5682,5.1009c-.5122,2.8174-1.57,3.3733-4.2078,3.257-1.6794-.0741-2.2286-.39-2.9318-2.23-.3911-1.0237-.7392-1.9292-1.0555-2.7518a13.3089,13.3089,0,0,0-.5691,5.43c.31,2.4538,1.5218,4.7182,1.8881,7.1641.46,3.0745-.38,6.497,1.2747,9.129,1.2537,1.9949,3.4225,2.8118,5.7525,3.4784a9.0384,9.0384,0,0,0,1.3725-.1522C123.562,249.71,125.1332,247.6894,125.4866,245.6248Z" transform="translate(-73.3365 0)"/><path class="cls-11" d="M114.3463,246.5139c-1.6542-2.632-.8142-6.0545-1.2747-9.129-.3663-2.4459-1.5783-4.71-1.8881-7.1641a13.3089,13.3089,0,0,1,.5691-5.43,60.7718,60.7718,0,0,1-2.6526-7.5449c-.9813,2.8456-3.3152,5.3182-3.248,8.3262.0747,3.3487,3.1105,5.9344,3.7648,9.2193.6456,3.2409-1.0478,6.3806-.7545,8.6356.5166,3.9714,6.6663,6.7386,11.2365,6.5656C117.7688,249.3257,115.6,248.5088,114.3463,246.5139Z" transform="translate(-73.3365 0)"/><path class="cls-7" d="M113.44,155.0287c.4625,4.0575,3.3765,7.3439,5.1239,11.035,5.4576,11.5289-1.795,19.2167-4.1585,27.4157H122.57c1.1471-7.5642,2.56-17.7924,4.0061-32.659l-7.89-18.4308C115.3772,146.2437,112.96,150.8122,113.44,155.0287Z" transform="translate(-73.3365 0)"/><path class="cls-8" d="M118.564,166.0637c-1.7474-3.6911-4.6614-6.9775-5.1239-11.035-.4805-4.2165,1.9371-8.785,5.2461-12.6391l-4.8268-11.2756c-3.4129,1.3763-5.6759,4.78-6.62,8.3366s-.7668,7.3021-.583,10.9775c.9956,19.9037,1.7139,33.5684,2.2013,43.0513h5.5476C116.769,185.28,124.0216,177.5926,118.564,166.0637Z" transform="translate(-73.3365 0)"/><path class="cls-3" d="M113.7387,197.0907c-.3752,5.4991,2.3031,10.9125,1.6689,16.3878-.453,3.9108-2.5668,7.5673-3.655,11.312.3163.8226.6644,1.7281,1.0555,2.7518.7032,1.8406,1.2524,2.1563,2.9318,2.23,2.6375.1163,3.6956-.44,4.2078-3.257a44.1077,44.1077,0,0,0,.5682-5.1009c-1.3586-8.762-.1364-13.4923,2.0539-27.9354h-8.1643A17.2651,17.2651,0,0,0,113.7387,197.0907Z" transform="translate(-73.3365 0)"/><path class="cls-4" d="M115.4076,213.4785c.6342-5.4753-2.0441-10.8887-1.6689-16.3878a17.2651,17.2651,0,0,1,.6668-3.6113h-5.5476c1.1089,21.5789,1.0194,21.4708.2632,23.7093-.0065.0192-.0145.0378-.0211.0569a60.7718,60.7718,0,0,0,2.6526,7.5449C112.8408,221.0458,114.9546,217.3893,115.4076,213.4785Z" transform="translate(-73.3365 0)"/><path class="cls-7" d="M123.4332,133.3291c.06,7.5492.04,17.5286,7.306,22.7654,1.662,1.1978,3.6239,2.0144,5.0243,3.51,3.5166,3.7554,2.0657,9.7141,2.3816,14.8492a21.1718,21.1718,0,0,0,.314,2.4975l7.9284-3.8786c-3.2443-10.2318-6.414-22.6869-9.9464-32.0557-2.05-5.4372-4.502-10.7506-6.9615-15.998-1.8507-3.9486-4.0022-8.7436-8.3267-10.4939-4.5974-1.8608-8.2378-.1188-28.2675,6.3264l13.3,9.004c2.1449-.8916,4.7157-1.9873,7.8554-3.2794C120.1707,124.0531,123.3724,125.7194,123.4332,133.3291Z" transform="translate(-73.3365 0)"/><path class="cls-8" d="M125.3964,164.8176c2.6607,4.858,5.6267,9.5964,8.4278,14.4007l4.6349-2.2674a21.1718,21.1718,0,0,1-.314-2.4975c-.3159-5.1351,1.135-11.0938-2.3816-14.8492-1.4-1.4953-3.3623-2.3119-5.0243-3.51-7.2665-5.2368-7.2456-15.2162-7.306-22.7654-.0608-7.61-3.2625-9.276-9.3927-6.7534-3.14,1.2921-5.71,2.3878-7.8554,3.2794l5.2218,3.5352C115.6382,144.0562,119.8843,154.7538,125.3964,164.8176Z" transform="translate(-73.3365 0)"/><path class="cls-1" d="M158.02,99.3406q-2.4781-16.2447-6.58-32.2188c-1.1376-4.4287-2.91-11.0815-6.0094-14.5063-.1368-.1511-.2915-.3053-.4545-.461L139.381,72.41l.0837.4036c3.131,7.7636,9.0289,15.1109,11.5266,27.0466.703,3.3594.01,5.2568-5.1045,6.1294l-28.255,4.82v2.326h11.9826a82.5646,82.5646,0,0,0,16.39.3426c4.1486-.3271,8.7739-1.2634,11.0184-4.5742C158.8934,106.1447,158.515,102.5833,158.02,99.3406Z" transform="translate(-73.3365 0)"/><path class="cls-2" d="M150.9913,99.86c-2.4977-11.9357-8.3956-19.283-11.5266-27.0466l5.9152,28.5114-27.7481,7.0788v2.4057l28.255-4.82C151.0015,105.1169,151.6943,103.22,150.9913,99.86Z" transform="translate(-73.3365 0)"/><path class="cls-2" d="M88.4748,107.313c-2.2177-.01-4.5168.2185-6.5836-.5856a2.1936,2.1936,0,0,1-1.0837-.7551,2.2508,2.2508,0,0,1-.2269-1.4974c.3472-3.0771,2.3893-5.66,3.5753-8.52C85.273,93.26,85.6253,90.32,86.3694,87.5a31.2891,31.2891,0,0,1,7.1635-13.0948l-7.63-21.2776c-2.8357,3.5419-4.4985,9.7744-5.5825,13.9942q-4.097,15.95-6.58,32.2188c-.4947,3.2427-.8731,6.8041.9975,9.5632,2.2445,3.3108,6.87,4.2471,11.0184,4.5742a82.5645,82.5645,0,0,0,16.39-.3426h12.5559c-.0812-.9523-.1774-1.8686-.2662-2.6438l-18.3738-2.4851A58.7508,58.7508,0,0,0,88.4748,107.313Z" transform="translate(-73.3365 0)"/><path class="cls-1" d="M88.39,100.6051,93.5488,74.45l-.0159-.0443A31.2891,31.2891,0,0,0,86.3694,87.5c-.7441,2.82-1.0964,5.76-2.2135,8.4544-1.186,2.8606-3.2281,5.4434-3.5753,8.52a2.2508,2.2508,0,0,0,.2269,1.4974,2.1936,2.1936,0,0,0,1.0837.7551c2.0668.8041,4.3659.5755,6.5836.5856a58.7508,58.7508,0,0,1,7.5876.6935l18.3738,2.4851c-.1493-1.3037-.2775-2.2079-.2775-2.2079Z" transform="translate(-73.3365 0)"/><path class="cls-10" d="M143.4187,117.1921H90.28a2.5427,2.5427,0,0,1-2.5408-2.4432l-1.25-31.8969A2.5428,2.5428,0,0,1,89.03,80.21h55.6391A2.5428,2.5428,0,0,1,147.21,82.852l-1.25,31.8969A2.5428,2.5428,0,0,1,143.4187,117.1921Z" transform="translate(-73.3365 0)"/><ellipse class="cls-6" cx="43.513" cy="100.4307" rx="3.6527" ry="3.1219"/><path class="cls-11" d="M109.6662,20.9248a35.3918,35.3918,0,0,0-8.3826,9.5745,21.7576,21.7576,0,0,1-.8753-13.3258,5.1151,5.1151,0,0,1,1.9378-3.2656,4.2284,4.2284,0,0,1,3.342-.2388,7.7836,7.7836,0,0,1,3.9962,2.7125,4.5089,4.5089,0,0,1,.9491,2.0112,2.48,2.48,0,0,1-.5781,2.09" transform="translate(-73.3365 0)"/><path class="cls-10" d="M126.7221,31.8542c2.1482-9.8821,1.3758-19.2855.6633-21.4721-2.2976-7.0512-15.71-8.1972-22.3275-4.5459a6.464,6.464,0,0,0-3.862,5.6923c-.2277,1.6508-.7728,3.9177-.105,5.4916,3.5107,8.2737,20.1289,6.67,25.6312,14.8341" transform="translate(-73.3365 0)"/><path class="cls-11" d="M118.5733,7.3007a6.9345,6.9345,0,0,0,1.0475-2.84,23.1608,23.1608,0,0,0-7.0544-.5979c-.0364,1.5086-.02,3.02-.1472,4.523a12.55,12.55,0,0,1-1.5449,5.436,31.6373,31.6373,0,0,0,4.2962-3.0013A15.0939,15.0939,0,0,0,118.5733,7.3007Z" transform="translate(-73.3365 0)"/><path class="cls-10" d="M100.0074,16.2967c2.2054,3.9927,13.2-1.6566,16.0577-5.18,3.3014-4.0707,1.9876-9.0063-2.5285-10.6184-3.906-1.3943-7.9187.3453-11.3658,2.6216-1.7507,1.156-3.5393,2.6512-3.8752,4.722-.3208,1.9779.9305,6.4432,1.7118,8.4544" transform="translate(-73.3365 0)"/><path class="cls-11" d="M108.8744,16.06c-1.0595-.1877-1.7364-.5034-1.5548-1.6478.3349-2.1107,2.7973-3.1791,3.7326-5.1006a1.3617,1.3617,0,0,0-1.174-1.9428c-4.0382-.2454-7.89-.0015-8.0912-1.0539l.5514-3.3021c-.0556.0362-.1123.0712-.1676.1078-1.7506,1.156-3.5393,2.6511-3.8752,4.7219-.3208,1.978.9305,6.4433,1.7118,8.4545C101.2278,18.5061,105.1393,17.7611,108.8744,16.06Z" transform="translate(-73.3365 0)"/><path class="cls-11" d="M102.1708,3.12a9.3384,9.3384,0,0,0-3.5276,3.5852.9679.9679,0,0,0,.1705.1732,2.24,2.24,0,0,0,1.109.3575,26.7335,26.7335,0,0,0,9.1063-.7756A10.55,10.55,0,0,0,113.6,4.5743a4.2467,4.2467,0,0,0,1.6425-3.21,7.4128,7.4128,0,0,0-1.7058-.8655C109.6306-.8956,105.6179.844,102.1708,3.12Z" transform="translate(-73.3365 0)"/></svg>