<svg xmlns="http://www.w3.org/2000/svg" xmlns:xlink="http://www.w3.org/1999/xlink" enable-background="new 0 0 1000 435.9" viewBox="0 0 1000 435.9"><defs><path id="a" d="M1000 309.2C858 372.4 797.3 401.7 727.7 419c-57.6 14.3-118.9 18.3-175.9 1.7C451.2 391.5 394 313.9 316 300.7c-75.4-12.7-147.2 37-222.7 32.8-37.7-2.1-77.1-20.6-93.2-55.6V.7h999.8l.1 308.5z"/></defs><clipPath id="b"><use overflow="visible" xlink:href="#a"/></clipPath><path fill="#955ff4" d="M.3-67.5h117.2v510H.3z" clip-path="url(#b)"/><path fill="#955ff4" d="M24-1.6h8.9v468.3H24z" clip-path="url(#b)"/><path fill="#955ff4" d="M93-409.6h906.3V961.5H93z" clip-path="url(#b)"/><g clip-path="url(#b)"><path fill="#a576f4" d="M44-262h32.6V813.8H44z"/><path fill="#c0a2f3" d="M75.2-249.6h1.4V-262H64.3v1.4c0 2.3-1.8 4.2-3.9 4.2-2.2 0-3.9-1.9-3.9-4.2v-1.4H44v12.3h1.4c2.3 0 4.2 1.8 4.2 3.9 0 2.2-1.9 3.9-4.2 3.9H44v12.3h12.3v-1.4c0-2.3 1.8-4.2 3.9-4.2 2.2 0 3.9 1.9 3.9 4.2v1.4h12.3v-12.3H75c-2.3 0-4.2-1.8-4.2-3.9.3-2 2.1-3.8 4.4-3.8zm-14.9 7.9c-2.2 0-3.9-1.8-3.9-3.9 0-2.2 1.8-3.9 3.9-3.9 2.2 0 3.9 1.8 3.9 3.9.1 2.1-1.7 3.9-3.9 3.9z"/><path fill="#c0a2f3" d="M75.2 793.6h1.4v-12.3H64.3v1.4c0 2.3-1.8 4.2-3.9 4.2-2.2 0-3.9-1.9-3.9-4.2v-1.4H44v12.3h1.4c2.3 0 4.2 1.8 4.2 3.9 0 2.2-1.9 3.9-4.2 3.9H44v12.3h12.3v-1.4c0-2.3 1.8-4.2 3.9-4.2 2.2 0 3.9 1.9 3.9 4.2v1.4h12.3v-12.3H75c-2.3 0-4.2-1.8-4.2-3.9.3-2.1 2.1-3.9 4.4-3.9zm-14.9 7.9c-2.2 0-3.9-1.8-3.9-3.9 0-2.2 1.8-3.9 3.9-3.9 2.2 0 3.9 1.8 3.9 3.9.1 2.2-1.7 3.9-3.9 3.9z"/><path fill="#c0a2f3" d="M75.2-184.4h1.4v-12.3H64.3v1.4c0 2.3-1.8 4.2-3.9 4.2-2.2 0-3.9-1.9-3.9-4.2v-1.4H44v12.3h1.4c2.3 0 4.2 1.8 4.2 3.9 0 2.2-1.9 3.9-4.2 3.9H44v12.3h12.3v-1.4c0-2.3 1.8-4.2 3.9-4.2 2.2 0 3.9 1.9 3.9 4.2v1.4h12.3v-12.3H75c-2.3 0-4.2-1.8-4.2-3.9.3-2.2 2.1-3.9 4.4-3.9zm-14.9 7.9c-2.2 0-3.9-1.8-3.9-3.9 0-2.2 1.8-3.9 3.9-3.9 2.2 0 3.9 1.8 3.9 3.9.1 2.1-1.7 3.9-3.9 3.9z"/><path fill="#c0a2f3" d="M75.2-119.3h1.4v-12.3H64.3v1.4c0 2.3-1.8 4.2-3.9 4.2-2.2 0-3.9-1.9-3.9-4.2v-1.4H44v12.3h1.4c2.3 0 4.2 1.8 4.2 3.9 0 2.2-1.9 3.9-4.2 3.9H44V-99h12.3v-1.4c0-2.3 1.8-4.2 3.9-4.2 2.2 0 3.9 1.9 3.9 4.2v1.4h12.3v-12.3H75c-2.3 0-4.2-1.8-4.2-3.9.3-2.3 2.1-4.1 4.4-4.1zm-14.9 7.9c-2.2 0-3.9-1.8-3.9-3.9 0-2.2 1.8-3.9 3.9-3.9 2.2 0 3.9 1.8 3.9 3.9.1 2.1-1.7 3.9-3.9 3.9z"/><path fill="#c0a2f3" d="M75.2-54.1h1.4v-12.3H64.3v1.4c0 2.3-1.8 4.2-3.9 4.2-2.2 0-3.9-1.9-3.9-4.2v-1.4H44v12.3h1.4c2.3 0 4.2 1.8 4.2 3.9 0 2.2-1.9 3.9-4.2 3.9H44V-34h12.3v-1.4c0-2.3 1.8-4.2 3.9-4.2 2.2 0 3.9 1.9 3.9 4.2v1.4h12.3v-12.3H75c-2.3 0-4.2-1.8-4.2-3.9.3-2.1 2.1-3.9 4.4-3.9zm-14.9 7.9c-2.2 0-3.9-1.8-3.9-3.9 0-2.2 1.8-3.9 3.9-3.9 2.2 0 3.9 1.8 3.9 3.9.1 2.1-1.7 3.9-3.9 3.9z"/><path fill="#c0a2f3" d="M75.2 11.1h1.4V-1.3H64.3V.1c0 2.3-1.8 4.2-3.9 4.2-2.2 0-3.9-1.9-3.9-4.2v-1.4H44V11h1.4c2.3 0 4.2 1.8 4.2 3.9 0 2.2-1.9 3.9-4.2 3.9H44v12.3h12.3v-1.4c0-2.3 1.8-4.2 3.9-4.2 2.2 0 3.9 1.9 3.9 4.2v1.4h12.3V19H75c-2.3 0-4.2-1.8-4.2-3.9.3-2.3 2.1-4 4.4-4zM60.3 19c-2.2 0-3.9-1.8-3.9-3.9 0-2.2 1.8-3.9 3.9-3.9 2.2 0 3.9 1.8 3.9 3.9.1 2.1-1.7 3.9-3.9 3.9z"/><path fill="#c0a2f3" d="M75.2 76.2h1.4V63.9H64.3v1.4c0 2.3-1.8 4.2-3.9 4.2-2.2 0-3.9-1.9-3.9-4.2v-1.4H44v12.3h1.4c2.3 0 4.2 1.8 4.2 3.9 0 2.2-1.9 3.9-4.2 3.9H44v12.3h12.3v-1.4c0-2.3 1.8-4.2 3.9-4.2 2.2 0 3.9 1.9 3.9 4.2v1.4h12.3V84.1H75c-2.3 0-4.2-1.8-4.2-3.9.3-2.2 2.1-4 4.4-4zm-14.9 7.9c-2.2 0-3.9-1.8-3.9-3.9 0-2.2 1.8-3.9 3.9-3.9 2.2 0 3.9 1.8 3.9 3.9.1 2.2-1.7 3.9-3.9 3.9z"/><path fill="#c0a2f3" d="M75.2 141.4h1.4V129H64.3v1.4c0 2.3-1.8 4.2-3.9 4.2-2.2 0-3.9-1.9-3.9-4.2V129H44v12.3h1.4c2.3 0 4.2 1.8 4.2 3.9 0 2.2-1.9 3.9-4.2 3.9H44v12.3h12.3V160c0-2.3 1.8-4.2 3.9-4.2 2.2 0 3.9 1.9 3.9 4.2v1.4h12.3v-12.3H75c-2.3 0-4.2-1.8-4.2-3.9.3-2 2.1-3.8 4.4-3.8zm-14.9 7.9c-2.2 0-3.9-1.8-3.9-3.9 0-2.2 1.8-3.9 3.9-3.9 2.2 0 3.9 1.8 3.9 3.9.1 2.1-1.7 3.9-3.9 3.9z"/><path fill="#c0a2f3" d="M75.2 206.6h1.4v-12.3H64.3v1.4c0 2.3-1.8 4.2-3.9 4.2-2.2 0-3.9-1.9-3.9-4.2v-1.4H44v12.3h1.4c2.3 0 4.2 1.8 4.2 3.9 0 2.2-1.9 3.9-4.2 3.9H44v12.3h12.3v-1.4c0-2.3 1.8-4.2 3.9-4.2 2.2 0 3.9 1.9 3.9 4.2v1.4h12.3v-12.3H75c-2.3 0-4.2-1.8-4.2-3.9.3-2.2 2.1-3.9 4.4-3.9zm-14.9 7.9c-2.2 0-3.9-1.8-3.9-3.9 0-2.2 1.8-3.9 3.9-3.9 2.2 0 3.9 1.8 3.9 3.9.1 2.1-1.7 3.9-3.9 3.9z"/><path fill="#c0a2f3" d="M75.2 271.7h1.4v-12.3H64.3v1.4c0 2.3-1.8 4.2-3.9 4.2-2.2 0-3.9-1.9-3.9-4.2v-1.4H44v12.3h1.4c2.3 0 4.2 1.8 4.2 3.9 0 2.2-1.9 3.9-4.2 3.9H44V292h12.3v-1.4c0-2.3 1.8-4.2 3.9-4.2 2.2 0 3.9 1.9 3.9 4.2v1.4h12.3v-12.3H75c-2.3 0-4.2-1.8-4.2-3.9.3-2.3 2.1-4.1 4.4-4.1zm-14.9 7.9c-2.2 0-3.9-1.8-3.9-3.9 0-2.2 1.8-3.9 3.9-3.9 2.2 0 3.9 1.8 3.9 3.9.1 2.2-1.7 3.9-3.9 3.9z"/><path fill="#c0a2f3" d="M75.2 336.9h1.4v-12.3H64.3v1.4c0 2.3-1.8 4.2-3.9 4.2-2.2 0-3.9-1.9-3.9-4.2v-1.4H44v12.3h1.4c2.3 0 4.2 1.8 4.2 3.9 0 2.2-1.9 3.9-4.2 3.9H44V357h12.3v-1.4c0-2.3 1.8-4.2 3.9-4.2 2.2 0 3.9 1.9 3.9 4.2v1.4h12.3v-12.3H75c-2.3 0-4.2-1.8-4.2-3.9.3-2.1 2.1-3.9 4.4-3.9zm-14.9 7.9c-2.2 0-3.9-1.8-3.9-3.9 0-2.2 1.8-3.9 3.9-3.9 2.2 0 3.9 1.8 3.9 3.9.1 2.1-1.7 3.9-3.9 3.9z"/><path fill="#c0a2f3" d="M75.2 402.1h1.4v-12.3H64.3v1.4c0 2.3-1.8 4.2-3.9 4.2-2.2 0-3.9-1.9-3.9-4.2v-1.4H44v12.3h1.4c2.3 0 4.2 1.8 4.2 3.9 0 2.2-1.9 3.9-4.2 3.9H44v12.3h12.3v-1.4c0-2.3 1.8-4.2 3.9-4.2 2.2 0 3.9 1.9 3.9 4.2v1.4h12.3V410H75c-2.3 0-4.2-1.8-4.2-3.9.3-2.3 2.1-4 4.4-4zM60.3 410c-2.2 0-3.9-1.8-3.9-3.9 0-2.2 1.8-3.9 3.9-3.9 2.2 0 3.9 1.8 3.9 3.9.1 2.1-1.7 3.9-3.9 3.9z"/><path fill="#c0a2f3" d="M75.2 467.2h1.4v-12.3H64.3v1.4c0 2.3-1.8 4.2-3.9 4.2-2.2 0-3.9-1.9-3.9-4.2v-1.4H44v12.3h1.4c2.3 0 4.2 1.8 4.2 3.9 0 2.2-1.9 3.9-4.2 3.9H44v12.3h12.3v-1.4c0-2.3 1.8-4.2 3.9-4.2 2.2 0 3.9 1.9 3.9 4.2v1.4h12.3V475H75c-2.3 0-4.2-1.8-4.2-3.9.3-2.1 2.1-3.9 4.4-3.9zm-14.9 7.9c-2.2 0-3.9-1.8-3.9-3.9 0-2.2 1.8-3.9 3.9-3.9 2.2 0 3.9 1.8 3.9 3.9.1 2.2-1.7 3.9-3.9 3.9z"/><path fill="#c0a2f3" d="M75.2 532.4h1.4v-12.3H64.3v1.4c0 2.3-1.8 4.2-3.9 4.2-2.2 0-3.9-1.9-3.9-4.2v-1.4H44v12.3h1.4c2.3 0 4.2 1.8 4.2 3.9s-1.9 3.9-4.2 3.9H44v12.3h12.3v-1.4c0-2.3 1.8-4.2 3.9-4.2 2.2 0 3.9 1.9 3.9 4.2v1.4h12.3v-12.3H75c-2.3 0-4.2-1.8-4.2-3.9s2.1-3.9 4.4-3.9zm-14.9 7.9c-2.2 0-3.9-1.8-3.9-3.9s1.8-3.9 3.9-3.9c2.2 0 3.9 1.8 3.9 3.9s-1.7 3.9-3.9 3.9z"/><path fill="#c0a2f3" d="M75.2 597.6h1.4v-12.3H64.3v1.4c0 2.3-1.8 4.2-3.9 4.2-2.2 0-3.9-1.9-3.9-4.2v-1.4H44v12.3h1.4c2.3 0 4.2 1.8 4.2 3.9s-1.9 3.9-4.2 3.9H44v12.3h12.3v-1.4c0-2.3 1.8-4.2 3.9-4.2 2.2 0 3.9 1.9 3.9 4.2v1.4h12.3v-12.3H75c-2.3 0-4.2-1.8-4.2-3.9s2.1-3.9 4.4-3.9zm-14.9 7.9c-2.2 0-3.9-1.8-3.9-3.9s1.8-3.9 3.9-3.9c2.2 0 3.9 1.8 3.9 3.9s-1.7 3.9-3.9 3.9z"/><path fill="#c0a2f3" d="M75.2 662.7h1.4v-12.3H64.3v1.4c0 2.3-1.8 4.2-3.9 4.2-2.2 0-3.9-1.9-3.9-4.2v-1.4H44v12.3h1.4c2.3 0 4.2 1.8 4.2 3.9 0 2.2-1.9 3.9-4.2 3.9H44V683h12.3v-1.4c0-2.3 1.8-4.2 3.9-4.2 2.2 0 3.9 1.9 3.9 4.2v1.4h12.3v-12.3H75c-2.3 0-4.2-1.8-4.2-3.9.3-2.3 2.1-4.1 4.4-4.1zm-14.9 7.9c-2.2 0-3.9-1.8-3.9-3.9 0-2.2 1.8-3.9 3.9-3.9 2.2 0 3.9 1.8 3.9 3.9.1 2.2-1.7 3.9-3.9 3.9z"/><path fill="#c0a2f3" d="M75.2 727.9h1.4v-12.3H64.3v1.4c0 2.3-1.8 4.2-3.9 4.2-2.2 0-3.9-1.9-3.9-4.2v-1.4H44v12.3h1.4c2.3 0 4.2 1.8 4.2 3.9 0 2.2-1.9 3.9-4.2 3.9H44V748h12.3v-1.4c0-2.3 1.8-4.2 3.9-4.2 2.2 0 3.9 1.9 3.9 4.2v1.4h12.3v-12.3H75c-2.3 0-4.2-1.8-4.2-3.9.3-2.1 2.1-3.9 4.4-3.9zm-14.9 7.9c-2.2 0-3.9-1.8-3.9-3.9 0-2.2 1.8-3.9 3.9-3.9 2.2 0 3.9 1.8 3.9 3.9.1 2.1-1.7 3.9-3.9 3.9z"/></g><g clip-path="url(#b)"><path fill="#b18cf3" d="M76.6-262h16.3V813.8H76.6z"/><path fill="#d3c0f3" d="M92.2-217h.7v-12.3h-6.2v1.4c0 2.3-.9 4.2-2 4.2s-2-1.9-2-4.2v-1.4h-6.2v12.3h.7c1.1 0 2.1 1.8 2.1 3.9 0 2.2-.9 3.9-2.1 3.9h-.7v12.3h6.2v-1.4c0-2.3.9-4.2 2-4.2s2 1.9 2 4.2v1.4h6.2v-12.3h-.7c-1.1 0-2.1-1.8-2.1-3.9 0-2.2 1-3.9 2.1-3.9zm-7.4 7.9c-1.1 0-2-1.8-2-3.9 0-2.2.9-3.9 2-3.9s2 1.8 2 3.9c-.1 2.1-1 3.9-2 3.9z"/><path fill="#d3c0f3" d="M92.2-151.9h.7v-12.3h-6.2v1.4c0 2.3-.9 4.2-2 4.2s-2-1.9-2-4.2v-1.4h-6.2v12.3h.7c1.1 0 2.1 1.8 2.1 3.9 0 2.2-.9 3.9-2.1 3.9h-.7v12.3h6.2v-1.4c0-2.3.9-4.2 2-4.2s2 1.9 2 4.2v1.4h6.2V-144h-.7c-1.1 0-2.1-1.8-2.1-3.9 0-2.2 1-4 2.1-4zm-7.4 7.9c-1.1 0-2-1.8-2-3.9 0-2.2.9-3.9 2-3.9s2 1.8 2 3.9c-.1 2.2-1 3.9-2 3.9z"/><path fill="#d3c0f3" d="M92.2-86.7h.7V-99h-6.2v1.4c0 2.3-.9 4.2-2 4.2s-2-1.9-2-4.2V-99h-6.2v12.3h.7c1.1 0 2.1 1.8 2.1 3.9 0 2.2-.9 3.9-2.1 3.9h-.7v12.3h6.2V-68c0-2.3.9-4.2 2-4.2s2 1.9 2 4.2v1.4h6.2v-12.3h-.7c-1.1 0-2.1-1.8-2.1-3.9 0-2.1 1-3.9 2.1-3.9zm-7.4 7.9c-1.1 0-2-1.8-2-3.9 0-2.2.9-3.9 2-3.9s2 1.8 2 3.9c-.1 2.1-1 3.9-2 3.9z"/><path fill="#d3c0f3" d="M92.2-21.5h.7v-12.3h-6.2v1.4c0 2.3-.9 4.2-2 4.2s-2-1.9-2-4.2v-1.4h-6.2v12.3h.7c1.1 0 2.1 1.8 2.1 3.9 0 2.2-.9 3.9-2.1 3.9h-.7v12.3h6.2v-1.4c0-2.3.9-4.2 2-4.2s2 1.9 2 4.2v1.4h6.2v-12.3h-.7c-1.1 0-2.1-1.8-2.1-3.9 0-2.2 1-3.9 2.1-3.9zm-7.4 7.9c-1.1 0-2-1.8-2-3.9 0-2.2.9-3.9 2-3.9s2 1.8 2 3.9c-.1 2.1-1 3.9-2 3.9z"/><path fill="#d3c0f3" d="M92.2 43.6h.7V31.3h-6.2v1.4c0 2.3-.9 4.2-2 4.2s-2-1.9-2-4.2v-1.4h-6.2v12.3h.7c1.1 0 2.1 1.8 2.1 3.9 0 2.2-.9 3.9-2.1 3.9h-.7v12.3h6.2v-1.4c0-2.3.9-4.2 2-4.2s2 1.9 2 4.2v1.4h6.2V51.5h-.7c-1.1 0-2.1-1.8-2.1-3.9 0-2.2 1-4 2.1-4zm-7.4 7.9c-1.1 0-2-1.8-2-3.9 0-2.2.9-3.9 2-3.9s2 1.8 2 3.9c-.1 2.2-1 3.9-2 3.9z"/><path fill="#d3c0f3" d="M92.2 108.8h.7V96.5h-6.2v1.4c0 2.3-.9 4.2-2 4.2s-2-1.9-2-4.2v-1.4h-6.2v12.3h.7c1.1 0 2.1 1.8 2.1 3.9 0 2.2-.9 3.9-2.1 3.9h-.7V129h6.2v-1.4c0-2.3.9-4.2 2-4.2s2 1.9 2 4.2v1.4h6.2v-12.3h-.7c-1.1 0-2.1-1.8-2.1-3.9 0-2.2 1-4 2.1-4zm-7.4 7.9c-1.1 0-2-1.8-2-3.9 0-2.2.9-3.9 2-3.9s2 1.8 2 3.9c-.1 2.1-1 3.9-2 3.9z"/><path fill="#d3c0f3" d="M92.2 174h.7v-12.3h-6.2v1.4c0 2.3-.9 4.2-2 4.2s-2-1.9-2-4.2v-1.4h-6.2V174h.7c1.1 0 2.1 1.8 2.1 3.9 0 2.2-.9 3.9-2.1 3.9h-.7v12.3h6.2v-1.4c0-2.3.9-4.2 2-4.2s2 1.9 2 4.2v1.4h6.2v-12.3h-.7c-1.1 0-2.1-1.8-2.1-3.9 0-2.2 1-3.9 2.1-3.9zm-7.4 7.9c-1.1 0-2-1.8-2-3.9 0-2.2.9-3.9 2-3.9s2 1.8 2 3.9c-.1 2.1-1 3.9-2 3.9z"/><path fill="#d3c0f3" d="M92.2 239.1h.7v-12.3h-6.2v1.4c0 2.3-.9 4.2-2 4.2s-2-1.9-2-4.2v-1.4h-6.2v12.3h.7c1.1 0 2.1 1.8 2.1 3.9 0 2.2-.9 3.9-2.1 3.9h-.7v12.3h6.2V258c0-2.3.9-4.2 2-4.2s2 1.9 2 4.2v1.4h6.2V247h-.7c-1.1 0-2.1-1.8-2.1-3.9 0-2.2 1-4 2.1-4zm-7.4 7.9c-1.1 0-2-1.8-2-3.9 0-2.2.9-3.9 2-3.9s2 1.8 2 3.9c-.1 2.2-1 3.9-2 3.9z"/><path fill="#d3c0f3" d="M92.2 304.3h.7V292h-6.2v1.4c0 2.3-.9 4.2-2 4.2s-2-1.9-2-4.2V292h-6.2v12.3h.7c1.1 0 2.1 1.8 2.1 3.9 0 2.2-.9 3.9-2.1 3.9h-.7v12.3h6.2V323c0-2.3.9-4.2 2-4.2s2 1.9 2 4.2v1.4h6.2v-12.3h-.7c-1.1 0-2.1-1.8-2.1-3.9 0-2.1 1-3.9 2.1-3.9zm-7.4 7.9c-1.1 0-2-1.8-2-3.9 0-2.2.9-3.9 2-3.9s2 1.8 2 3.9c-.1 2.1-1 3.9-2 3.9z"/><path fill="#d3c0f3" d="M92.2 369.5h.7v-12.3h-6.2v1.4c0 2.3-.9 4.2-2 4.2s-2-1.9-2-4.2v-1.4h-6.2v12.3h.7c1.1 0 2.1 1.8 2.1 3.9 0 2.2-.9 3.9-2.1 3.9h-.7v12.3h6.2v-1.4c0-2.3.9-4.2 2-4.2s2 1.9 2 4.2v1.4h6.2v-12.3h-.7c-1.1 0-2.1-1.8-2.1-3.9 0-2.2 1-3.9 2.1-3.9zm-7.4 7.9c-1.1 0-2-1.8-2-3.9 0-2.2.9-3.9 2-3.9s2 1.8 2 3.9c-.1 2.1-1 3.9-2 3.9z"/><path fill="#d3c0f3" d="M92.2 434.6h.7v-12.3h-6.2v1.4c0 2.3-.9 4.2-2 4.2s-2-1.9-2-4.2v-1.4h-6.2v12.3h.7c1.1 0 2.1 1.8 2.1 3.9 0 2.2-.9 3.9-2.1 3.9h-.7v12.3h6.2v-1.4c0-2.3.9-4.2 2-4.2s2 1.9 2 4.2v1.4h6.2v-12.3h-.7c-1.1 0-2.1-1.8-2.1-3.9 0-2.1 1-3.9 2.1-3.9zm-7.4 7.9c-1.1 0-2-1.8-2-3.9 0-2.2.9-3.9 2-3.9s2 1.8 2 3.9c-.1 2.2-1 3.9-2 3.9z"/><path fill="#d3c0f3" d="M92.2 499.8h.7v-12.3h-6.2v1.4c0 2.3-.9 4.2-2 4.2s-2-1.9-2-4.2v-1.4h-6.2v12.3h.7c1.1 0 2.1 1.8 2.1 3.9 0 2.2-.9 3.9-2.1 3.9h-.7v12.3h6.2v-1.4c0-2.3.9-4.2 2-4.2s2 1.9 2 4.2v1.4h6.2v-12.3h-.7c-1.1 0-2.1-1.8-2.1-3.9 0-2.1 1-3.9 2.1-3.9zm-7.4 7.9c-1.1 0-2-1.8-2-3.9 0-2.2.9-3.9 2-3.9s2 1.8 2 3.9c-.1 2.1-1 3.9-2 3.9z"/><path fill="#d3c0f3" d="M92.2 565h.7v-12.3h-6.2v1.4c0 2.3-.9 4.2-2 4.2s-2-1.9-2-4.2v-1.4h-6.2V565h.7c1.1 0 2.1 1.8 2.1 3.9 0 2.2-.9 3.9-2.1 3.9h-.7v12.3h6.2v-1.4c0-2.3.9-4.2 2-4.2s2 1.9 2 4.2v1.4h6.2v-12.3h-.7c-1.1 0-2.1-1.8-2.1-3.9 0-2.2 1-3.9 2.1-3.9zm-7.4 7.9c-1.1 0-2-1.8-2-3.9 0-2.2.9-3.9 2-3.9s2 1.8 2 3.9c-.1 2.1-1 3.9-2 3.9z"/><path fill="#d3c0f3" d="M92.2 630.1h.7v-12.3h-6.2v1.4c0 2.3-.9 4.2-2 4.2s-2-1.9-2-4.2v-1.4h-6.2v12.3h.7c1.1 0 2.1 1.8 2.1 3.9 0 2.2-.9 3.9-2.1 3.9h-.7v12.3h6.2V649c0-2.3.9-4.2 2-4.2s2 1.9 2 4.2v1.4h6.2V638h-.7c-1.1 0-2.1-1.8-2.1-3.9 0-2.2 1-4 2.1-4zm-7.4 7.9c-1.1 0-2-1.8-2-3.9 0-2.2.9-3.9 2-3.9s2 1.8 2 3.9c-.1 2.2-1 3.9-2 3.9z"/><path fill="#d3c0f3" d="M92.2 695.3h.7V683h-6.2v1.4c0 2.3-.9 4.2-2 4.2s-2-1.9-2-4.2V683h-6.2v12.3h.7c1.1 0 2.1 1.8 2.1 3.9s-.9 3.9-2.1 3.9h-.7v12.3h6.2V714c0-2.3.9-4.2 2-4.2s2 1.9 2 4.2v1.4h6.2v-12.3h-.7c-1.1 0-2.1-1.8-2.1-3.9s1-3.9 2.1-3.9zm-7.4 7.9c-1.1 0-2-1.8-2-3.9s.9-3.9 2-3.9 2 1.8 2 3.9-1 3.9-2 3.9z"/><path fill="#d3c0f3" d="M92.2 760.5h.7v-12.3h-6.2v1.4c0 2.3-.9 4.2-2 4.2s-2-1.9-2-4.2v-1.4h-6.2v12.3h.7c1.1 0 2.1 1.8 2.1 3.9s-.9 3.9-2.1 3.9h-.7v12.3h6.2v-1.4c0-2.3.9-4.2 2-4.2s2 1.9 2 4.2v1.4h6.2v-12.3h-.7c-1.1 0-2.1-1.8-2.1-3.9s1-3.9 2.1-3.9zm-7.4 7.9c-1.1 0-2-1.8-2-3.9s.9-3.9 2-3.9 2 1.8 2 3.9-1 3.9-2 3.9z"/></g><g clip-path="url(#b)"><path fill="#824cde" d="M33.3-262H44V813.8H33.3z"/><path fill="#955ff4" d="M43.6-217h.4v-12.3h-4.1v1.4c0 2.3-.6 4.2-1.3 4.2-.7 0-1.3-1.9-1.3-4.2v-1.4h-4.1v12.3h.5c.8 0 1.4 1.8 1.4 3.9 0 2.2-.6 3.9-1.4 3.9h-.5v12.3h4.1v-1.4c0-2.3.6-4.2 1.3-4.2.7 0 1.3 1.9 1.3 4.2v1.4H44v-12.3h-.5c-.8 0-1.4-1.8-1.4-3.9.1-2.2.7-3.9 1.5-3.9zm-5 7.9c-.7 0-1.3-1.8-1.3-3.9 0-2.2.6-3.9 1.3-3.9.7 0 1.3 1.8 1.3 3.9 0 2.1-.5 3.9-1.3 3.9z"/><path fill="#955ff4" d="M43.6-151.9h.4v-12.3h-4.1v1.4c0 2.3-.6 4.2-1.3 4.2-.7 0-1.3-1.9-1.3-4.2v-1.4h-4.1v12.3h.5c.8 0 1.4 1.8 1.4 3.9 0 2.2-.6 3.9-1.4 3.9h-.5v12.3h4.1v-1.4c0-2.3.6-4.2 1.3-4.2.7 0 1.3 1.9 1.3 4.2v1.4H44V-144h-.5c-.8 0-1.4-1.8-1.4-3.9.1-2.2.7-4 1.5-4zm-5 7.9c-.7 0-1.3-1.8-1.3-3.9 0-2.2.6-3.9 1.3-3.9.7 0 1.3 1.8 1.3 3.9 0 2.2-.5 3.9-1.3 3.9z"/><path fill="#955ff4" d="M43.6-86.7h.4V-99h-4.1v1.4c0 2.3-.6 4.2-1.3 4.2-.7 0-1.3-1.9-1.3-4.2V-99h-4.1v12.3h.5c.8 0 1.4 1.8 1.4 3.9 0 2.2-.6 3.9-1.4 3.9h-.5v12.3h4.1V-68c0-2.3.6-4.2 1.3-4.2.7 0 1.3 1.9 1.3 4.2v1.4H44v-12.3h-.5c-.8 0-1.4-1.8-1.4-3.9.1-2.1.7-3.9 1.5-3.9zm-5 7.9c-.7 0-1.3-1.8-1.3-3.9 0-2.2.6-3.9 1.3-3.9.7 0 1.3 1.8 1.3 3.9 0 2.1-.5 3.9-1.3 3.9z"/><path fill="#955ff4" d="M43.6-21.5h.4v-12.3h-4.1v1.4c0 2.3-.6 4.2-1.3 4.2-.7 0-1.3-1.9-1.3-4.2v-1.4h-4.1v12.3h.5c.8 0 1.4 1.8 1.4 3.9 0 2.2-.6 3.9-1.4 3.9h-.5v12.3h4.1v-1.4c0-2.3.6-4.2 1.3-4.2.7 0 1.3 1.9 1.3 4.2v1.4H44v-12.3h-.5c-.8 0-1.4-1.8-1.4-3.9.1-2.2.7-3.9 1.5-3.9zm-5 7.9c-.7 0-1.3-1.8-1.3-3.9 0-2.2.6-3.9 1.3-3.9.7 0 1.3 1.8 1.3 3.9 0 2.1-.5 3.9-1.3 3.9z"/><path fill="#955ff4" d="M43.6 43.6h.4V31.3h-4.1v1.4c0 2.3-.6 4.2-1.3 4.2-.7 0-1.3-1.9-1.3-4.2v-1.4h-4.1v12.3h.5c.8 0 1.4 1.8 1.4 3.9 0 2.2-.6 3.9-1.4 3.9h-.5v12.3h4.1v-1.4c0-2.3.6-4.2 1.3-4.2.7 0 1.3 1.9 1.3 4.2v1.4H44V51.5h-.5c-.8 0-1.4-1.8-1.4-3.9.1-2.2.7-4 1.5-4zm-5 7.9c-.7 0-1.3-1.8-1.3-3.9 0-2.2.6-3.9 1.3-3.9.7 0 1.3 1.8 1.3 3.9 0 2.2-.5 3.9-1.3 3.9z"/><path fill="#955ff4" d="M43.6 108.8h.4V96.5h-4.1v1.4c0 2.3-.6 4.2-1.3 4.2-.7 0-1.3-1.9-1.3-4.2v-1.4h-4.1v12.3h.5c.8 0 1.4 1.8 1.4 3.9 0 2.2-.6 3.9-1.4 3.9h-.5V129h4.1v-1.4c0-2.3.6-4.2 1.3-4.2.7 0 1.3 1.9 1.3 4.2v1.4H44v-12.3h-.5c-.8 0-1.4-1.8-1.4-3.9.1-2.2.7-4 1.5-4zm-5 7.9c-.7 0-1.3-1.8-1.3-3.9 0-2.2.6-3.9 1.3-3.9.7 0 1.3 1.8 1.3 3.9 0 2.1-.5 3.9-1.3 3.9z"/><path fill="#955ff4" d="M43.6 174h.4v-12.3h-4.1v1.4c0 2.3-.6 4.2-1.3 4.2-.7 0-1.3-1.9-1.3-4.2v-1.4h-4.1V174h.5c.8 0 1.4 1.8 1.4 3.9 0 2.2-.6 3.9-1.4 3.9h-.5v12.3h4.1v-1.4c0-2.3.6-4.2 1.3-4.2.7 0 1.3 1.9 1.3 4.2v1.4H44v-12.3h-.5c-.8 0-1.4-1.8-1.4-3.9.1-2.2.7-3.9 1.5-3.9zm-5 7.9c-.7 0-1.3-1.8-1.3-3.9 0-2.2.6-3.9 1.3-3.9.7 0 1.3 1.8 1.3 3.9 0 2.1-.5 3.9-1.3 3.9z"/><path fill="#955ff4" d="M43.6 239.1h.4v-12.3h-4.1v1.4c0 2.3-.6 4.2-1.3 4.2-.7 0-1.3-1.9-1.3-4.2v-1.4h-4.1v12.3h.5c.8 0 1.4 1.8 1.4 3.9 0 2.2-.6 3.9-1.4 3.9h-.5v12.3h4.1V258c0-2.3.6-4.2 1.3-4.2.7 0 1.3 1.9 1.3 4.2v1.4H44V247h-.5c-.8 0-1.4-1.8-1.4-3.9.1-2.2.7-4 1.5-4zm-5 7.9c-.7 0-1.3-1.8-1.3-3.9 0-2.2.6-3.9 1.3-3.9.7 0 1.3 1.8 1.3 3.9 0 2.2-.5 3.9-1.3 3.9z"/><path fill="#955ff4" d="M43.6 304.3h.4V292h-4.1v1.4c0 2.3-.6 4.2-1.3 4.2-.7 0-1.3-1.9-1.3-4.2V292h-4.1v12.3h.5c.8 0 1.4 1.8 1.4 3.9 0 2.2-.6 3.9-1.4 3.9h-.5v12.3h4.1V323c0-2.3.6-4.2 1.3-4.2.7 0 1.3 1.9 1.3 4.2v1.4H44v-12.3h-.5c-.8 0-1.4-1.8-1.4-3.9.1-2.1.7-3.9 1.5-3.9zm-5 7.9c-.7 0-1.3-1.8-1.3-3.9 0-2.2.6-3.9 1.3-3.9.7 0 1.3 1.8 1.3 3.9 0 2.1-.5 3.9-1.3 3.9z"/><path fill="#955ff4" d="M43.6 369.5h.4v-12.3h-4.1v1.4c0 2.3-.6 4.2-1.3 4.2-.7 0-1.3-1.9-1.3-4.2v-1.4h-4.1v12.3h.5c.8 0 1.4 1.8 1.4 3.9 0 2.2-.6 3.9-1.4 3.9h-.5v12.3h4.1v-1.4c0-2.3.6-4.2 1.3-4.2.7 0 1.3 1.9 1.3 4.2v1.4H44v-12.3h-.5c-.8 0-1.4-1.8-1.4-3.9.1-2.2.7-3.9 1.5-3.9zm-5 7.9c-.7 0-1.3-1.8-1.3-3.9 0-2.2.6-3.9 1.3-3.9.7 0 1.3 1.8 1.3 3.9 0 2.1-.5 3.9-1.3 3.9z"/><path fill="#955ff4" d="M43.6 434.6h.4v-12.3h-4.1v1.4c0 2.3-.6 4.2-1.3 4.2-.7 0-1.3-1.9-1.3-4.2v-1.4h-4.1v12.3h.5c.8 0 1.4 1.8 1.4 3.9 0 2.2-.6 3.9-1.4 3.9h-.5v12.3h4.1v-1.4c0-2.3.6-4.2 1.3-4.2.7 0 1.3 1.9 1.3 4.2v1.4H44v-12.3h-.5c-.8 0-1.4-1.8-1.4-3.9.1-2.1.7-3.9 1.5-3.9zm-5 7.9c-.7 0-1.3-1.8-1.3-3.9 0-2.2.6-3.9 1.3-3.9.7 0 1.3 1.8 1.3 3.9 0 2.2-.5 3.9-1.3 3.9z"/><path fill="#955ff4" d="M43.6 499.8h.4v-12.3h-4.1v1.4c0 2.3-.6 4.2-1.3 4.2-.7 0-1.3-1.9-1.3-4.2v-1.4h-4.1v12.3h.5c.8 0 1.4 1.8 1.4 3.9 0 2.2-.6 3.9-1.4 3.9h-.5v12.3h4.1v-1.4c0-2.3.6-4.2 1.3-4.2.7 0 1.3 1.9 1.3 4.2v1.4H44v-12.3h-.5c-.8 0-1.4-1.8-1.4-3.9.1-2.1.7-3.9 1.5-3.9zm-5 7.9c-.7 0-1.3-1.8-1.3-3.9 0-2.2.6-3.9 1.3-3.9.7 0 1.3 1.8 1.3 3.9 0 2.1-.5 3.9-1.3 3.9z"/><path fill="#955ff4" d="M43.6 565h.4v-12.3h-4.1v1.4c0 2.3-.6 4.2-1.3 4.2-.7 0-1.3-1.9-1.3-4.2v-1.4h-4.1V565h.5c.8 0 1.4 1.8 1.4 3.9 0 2.2-.6 3.9-1.4 3.9h-.5v12.3h4.1v-1.4c0-2.3.6-4.2 1.3-4.2.7 0 1.3 1.9 1.3 4.2v1.4H44v-12.3h-.5c-.8 0-1.4-1.8-1.4-3.9.1-2.2.7-3.9 1.5-3.9zm-5 7.9c-.7 0-1.3-1.8-1.3-3.9 0-2.2.6-3.9 1.3-3.9.7 0 1.3 1.8 1.3 3.9 0 2.1-.5 3.9-1.3 3.9z"/><path fill="#955ff4" d="M43.6 630.1h.4v-12.3h-4.1v1.4c0 2.3-.6 4.2-1.3 4.2-.7 0-1.3-1.9-1.3-4.2v-1.4h-4.1v12.3h.5c.8 0 1.4 1.8 1.4 3.9 0 2.2-.6 3.9-1.4 3.9h-.5v12.3h4.1V649c0-2.3.6-4.2 1.3-4.2.7 0 1.3 1.9 1.3 4.2v1.4H44V638h-.5c-.8 0-1.4-1.8-1.4-3.9.1-2.2.7-4 1.5-4zm-5 7.9c-.7 0-1.3-1.8-1.3-3.9 0-2.2.6-3.9 1.3-3.9.7 0 1.3 1.8 1.3 3.9 0 2.2-.5 3.9-1.3 3.9z"/><path fill="#955ff4" d="M43.6 695.3h.4V683h-4.1v1.4c0 2.3-.6 4.2-1.3 4.2-.7 0-1.3-1.9-1.3-4.2V683h-4.1v12.3h.5c.8 0 1.4 1.8 1.4 3.9s-.6 3.9-1.4 3.9h-.5v12.3h4.1V714c0-2.3.6-4.2 1.3-4.2.7 0 1.3 1.9 1.3 4.2v1.4H44v-12.3h-.5c-.8 0-1.4-1.8-1.4-3.9s.7-3.9 1.5-3.9zm-5 7.9c-.7 0-1.3-1.8-1.3-3.9s.6-3.9 1.3-3.9c.7 0 1.3 1.8 1.3 3.9s-.5 3.9-1.3 3.9z"/><path fill="#955ff4" d="M43.6 760.5h.4v-12.3h-4.1v1.4c0 2.3-.6 4.2-1.3 4.2-.7 0-1.3-1.9-1.3-4.2v-1.4h-4.1v12.3h.5c.8 0 1.4 1.8 1.4 3.9s-.6 3.9-1.4 3.9h-.5v12.3h4.1v-1.4c0-2.3.6-4.2 1.3-4.2.7 0 1.3 1.9 1.3 4.2v1.4H44v-12.3h-.5c-.8 0-1.4-1.8-1.4-3.9s.7-3.9 1.5-3.9zm-5 7.9c-.7 0-1.3-1.8-1.3-3.9s.6-3.9 1.3-3.9c.7 0 1.3 1.8 1.3 3.9s-.5 3.9-1.3 3.9z"/></g><path fill="#b18cf3" d="M128.5-374.1h871.8V925.6H128.5z" clip-path="url(#b)"/><path fill="#a576f4" d="M1163.7 277.2l-67.1 38.7-39.8-39.8 39.8-39.8 67.4 38.9 1.6-2.8L1099 234l54.5-54.5-2.3-2.3-55.1 55.1-48.8-28.2 28.2-48.8 75.2 20.2.8-3.1-74.4-19.9 38.6-66.8-2.8-1.6-39 67.5-54.4-14.6 14.6-54.4h77.9v-3.2h-77l20-74.5-3.1-.8-20.2 75.3h-56.3V23l75.2-20.2-.8-3.1-74.4 19.9v-77.1h-3.2v78l-54.4 14.6-14.6-54.4 67.4-38.9L969-61l-66.7 38.5-20-74.5-3.1.8 20.2 75.3-48.8 28.2-28.2-48.8 55.1-55.1-2.3-2.3-54.4 54.4-38.6-66.8-2.8 1.6 39 67.5-39.9 40L738.7-42l38.9-67.4-2.8-1.6-38.5 66.7-54.5-54.5-2.3 2.3 55.1 55.1-28.1 48.7-48.8-28.2 20.2-75.2-3.1-.8-19.9 74.4L588-61.1l-1.6 2.8 67.5 39-14.6 54.4L585 20.5v-77.9h-3.2v77l-74.5-20-.8 3.1L581.7 23v56.3h-56.3L505.3 4.1l-3.1.8 19.9 74.4H445v3.2h78l14.6 54.4-54.4 14.6-38.9-67.4-2.8 1.6 38.5 66.7-74.5 20 .8 3.1 75.3-20.2 28.2 48.8-48.8 28.2-55.1-55.1-2.3 2.3 54.5 54.5-66.7 38.5 1.6 2.8 67.5-39 39.9 39.9-40 39.8-67.5-39-1.6 2.8 66.8 38.6-54.1 54.1 2.3 2.3 54.8-54.8 48.8 28.2-28.4 48.8-75.3-20.2-.8 3.1 74.5 20-38.3 66.3 2.8 1.6 38.7-67.1 54.4 14.6-14.6 54.4h-78v3.2H522l-19.8 74 3.1.8 20-74.8h56.3v56.3l-75.3 20.2.8 3.1 74.5-20v76.6h3.2v-77.4l54.4-14.6 14.6 54.4-67.5 39 1.6 2.8 66.8-38.6 19.8 74 3.1-.8-20-74.8 48.8-28.2 28.2 48.8-55.1 55.1 2.3 2.3 54.5-54.5 38.3 66.3 2.8-1.6-38.7-67.1 39.8-39.8 39.8 39.8-39 67.5 2.8 1.6 38.6-66.8 54.1 54.1 2.3-2.3-54.8-54.8 28.2-48.8 48.8 28.2-20.2 75.3 3.1.8 20-74.5 66.3 38.3 1.6-2.8-67.1-38.7 14.6-54.4 54.4 14.6v78h3.2v-77.1l74 19.8.8-3.1-74.8-20v-56.3h56.3l20.2 75.3 3.1-.8-20-74.5h76.6v-3.2H1034l-14.6-54.4 4.7-1.3-.1.2 86.5 49.9 2.3 4 2.8-1.6-2.1-3.6.3-.6-1-.6-35.8-62 74-19.8-.8-3.1-74.8 20-28.2-48.8L1096 320l55.1 55.1 2.3-2.3-54.5-54.5 66.4-38.3-1.6-2.8zm-70-42.5l-40.2 40.2h-90.4c26-10.9 34-25.5 41.2-38.5 6.4-11.7 12-21.8 29.8-26.7l.1.2 11-3.2 48.5 28zM956.2 454.5c-10.3-5.9-20-5.7-30.2-5.5-15.5.3-33 .7-57.3-20.1l-.3-.5c4.8-7.2 7.4-15.5 7.7-24.5.3-7.5-1-15.5-3.7-23.9-2.5-7.4-5.6-13.7-8.1-18.1 4.4 2.5 10.7 5.7 18.1 8.1 7.6 2.5 14.9 3.8 21.8 3.8h2.1c8.8-.3 16.8-2.8 23.8-7.3 21.3 24.6 20.9 42.3 20.6 57.9-.2 10.1-.4 19.9 5.5 30.1zm-350.6-30.2c-.3-15.7-.7-33.4 20.8-58.2 7.2 4.7 15.4 7.3 24.3 7.6h2.1c6.9 0 14.2-1.3 21.8-3.8 7.4-2.5 13.7-5.6 18.1-8.1-2.5 4.4-5.7 10.7-8.1 18.1-2.8 8.4-4 16.4-3.7 23.9.3 8.9 2.9 17.1 7.6 24.3-24.8 21.5-42.5 21.2-58.2 20.9-10.2-.2-19.9-.4-30.2 5.5 5.9-10.2 5.7-20 5.5-30.2zm-5.5-325.8c10.3 5.9 20 5.7 30.2 5.5 15.6-.3 33.3-.7 57.9 20.6-4.5 7.1-7 15.1-7.3 23.9-.3 7.5 1 15.5 3.7 23.9 2.5 7.4 5.6 13.7 8.1 18.1-4.4-2.5-10.7-5.7-18.1-8.1-8.4-2.8-16.4-4-23.9-3.7-9 .3-17.3 3-24.5 7.7l-.5-.3c-20.8-24.3-20.5-41.9-20.1-57.3.2-10.3.4-20.1-5.5-30.3zm67.3 149.7c-1.1 5.8-.1 11.7 2.9 16.8 3 5.2 7.6 9 13.2 10.9-5.6 1.9-10.2 5.8-13.2 10.9-3 5.3-4 11.3-2.8 17.2-3.6.2-13.8.6-25.2-1.8-8.2-1.7-15.5-4.5-21.5-8.3-7.2-4.5-12.7-10.6-16.3-17.9 3.6-7.3 9.1-13.3 16.3-17.9 6-3.8 13.2-6.6 21.4-8.3 11.3-2.2 21.5-1.8 25.2-1.6zm-20-17.5c-6.3-5.6-11.2-11.6-14.5-17.9-4-7.6-5.7-15.5-5.2-23.7 6.8-4.5 14.5-7 23-7.4 7.1-.3 14.7.9 22.7 3.5 10.9 3.6 19.5 8.9 22.6 11-7.9 9.2-7.9 22.9 0 32.1-5.8-1.1-11.7-.1-16.9 2.9-5.3 3-9.1 7.8-11 13.5-3.1-1.5-12.1-6.3-20.7-14zm21 76.8c2 5.5 5.8 10.2 10.9 13.1 3.8 2.2 8 3.3 12.3 3.3 1.5 0 3.1-.1 4.6-.4-8 9.3-7.9 23.2.2 32.4-2.9 1.9-11.6 7.4-22.8 11.1-8 2.6-15.7 3.8-22.7 3.6-8.5-.3-16.3-2.8-23.1-7.4-.6-8.1 1.2-16.1 5.1-23.6 3.3-6.3 8.2-12.3 14.4-17.9 8.8-7.8 17.9-12.7 21.1-14.2zm31.3 16.9c4.2-4.2 9.7-6.3 15.2-6.3s11 2.1 15.2 6.3c8.4 8.4 8.4 22 0 30.3-8.4 8.4-22 8.4-30.3 0-8.4-8.4-8.4-22-.1-30.3zm-2.5-4.5c-5.5 1.5-11.3.7-16.3-2.1-5-2.9-8.5-7.5-10-13-3.1-11.4 3.7-23.2 15.2-26.3 1.9-.5 3.7-.7 5.5-.7 9.5 0 18.1 6.3 20.7 15.9 1.5 5.5.7 11.3-2.1 16.3-2.9 4.9-7.5 8.5-13 9.9zm-11.1-46.5c-11.4-3.1-18.2-14.8-15.2-26.3 1.5-5.5 5-10.2 10-13 3.3-1.9 7-2.9 10.7-2.9 1.9 0 3.7.2 5.6.7 5.5 1.5 10.2 5 13 10 2.9 5 3.6 10.7 2.1 16.3-2.6 9.6-11.2 15.9-20.7 15.9-1.8 0-3.7-.2-5.5-.7zm13.6-45.9c-8.4-8.4-8.4-22 0-30.3 4.2-4.2 9.7-6.3 15.2-6.3s11 2.1 15.2 6.3c8.4 8.4 8.4 22 0 30.3-8.4 8.4-22 8.4-30.4 0zm34.8-32.9c-1.5-5.5-.7-11.3 2.1-16.3 2.9-5 7.5-8.5 13-10 1.8-.5 3.7-.7 5.6-.7 3.7 0 7.4 1 10.7 2.9 5 2.9 8.5 7.5 10 13 3.1 11.4-3.7 23.2-15.2 26.3-5.5 1.5-11.3.7-16.3-2.1-4.9-2.9-8.4-7.5-9.9-13.1zm14.6-55.3c-1.6 7.7-2 14.7-2 19.8-2.5-4.4-6.4-10.3-11.6-16.1-5.9-6.6-12.2-11.7-18.8-15.2-8-4.2-16.5-6.1-25.2-5.5-6-31.7 3.1-46.7 11.2-60C708 53.6 713 45.2 713 33.4c5.9 10.2 14.5 14.9 23.4 19.9 13.6 7.5 29.1 16 39.8 46.5-7.5 3.9-13.6 9.6-18.3 17-4.1 6.3-7 13.9-8.8 22.5zm-57.6-13.8c8.1-.6 16.1 1.2 23.6 5.1 6.3 3.3 12.3 8.2 17.9 14.4 7.6 8.5 12.4 17.4 14.1 20.8-5.6 1.9-10.2 5.8-13.2 10.9-3 5.2-4 11.1-2.9 16.9-9.3-8-23.1-7.9-32.3.2-2.1-3.1-7.4-11.6-11-22.5-2.6-8-3.8-15.7-3.6-22.7.3-8.6 2.8-16.3 7.4-23.1zm-61.4 88.8c3.5 6.6 8.6 13 15.2 18.8 5.8 5.2 11.8 9.1 16.1 11.6-5 0-12.1.4-19.8 2-8.6 1.8-16.2 4.7-22.6 8.7-7.7 4.8-13.5 11.2-17.4 19h-.1c-30.7-10.7-39.2-26.1-46.7-39.8-4.9-8.9-9.6-17.5-19.9-23.4 11.8 0 20.2-5.1 28.9-10.4 13.4-8.1 28.5-17.3 60.7-11.1-.4 8.7 1.5 16.9 5.6 24.6zm-28.2 64c3.9 7.6 9.6 13.8 17.1 18.5 6.3 4 13.9 6.9 22.6 8.7 7.7 1.6 14.7 2 19.8 2-4.4 2.5-10.3 6.4-16.1 11.6-6.6 5.9-11.7 12.2-15.2 18.8-4.2 8-6.1 16.4-5.6 25.1-32.2 6.2-47.3-2.9-60.7-11-8.7-5.3-17.1-10.3-28.9-10.3 10.2-5.9 14.9-14.5 19.9-23.4 7.5-13.8 16.1-29.3 47.1-40zm82.2 125.5c-.3-7.1.9-14.7 3.5-22.7 3.7-11.2 9.2-20 11.2-22.9 4.6 4 10.3 6 16.1 6 5.7 0 11.5-2 16.1-6-1.1 5.8-.1 11.7 2.9 16.9 3 5.2 7.7 9.1 13.4 11-1.5 3.1-6.3 12.2-14.2 21.1-5.6 6.3-11.6 11.2-17.9 14.5-7.6 4-15.5 5.7-23.7 5.2-4.6-6.8-7-14.5-7.4-23.1zm7.4 26.3c1 .1 1.9.1 2.9.1 7.7 0 15.1-1.9 22.2-5.6 6.6-3.5 13-8.6 18.8-15.2 5.2-5.8 9.1-11.8 11.6-16.1 0 5 .4 12.1 2 19.8 1.8 8.6 4.7 16.2 8.7 22.6 4.7 7.5 10.9 13.2 18.5 17.1-10.7 31-26.2 39.6-39.9 47.1-8.9 4.9-17.5 9.6-23.4 19.9 0-11.8-5.1-20.2-10.4-28.9-8-13.5-17.2-28.6-11-60.8zm45.1-56.6c-2.9-5-3.6-10.7-2.1-16.3 1.5-5.5 5-10.2 10-13 3.3-1.9 7-2.9 10.7-2.9 1.9 0 3.7.2 5.6.7 11.4 3.1 18.2 14.8 15.2 26.3-1.5 5.5-5 10.2-10 13-5 2.9-10.7 3.6-16.3 2.1-5.6-1.4-10.2-4.9-13.1-9.9zm25-34.5c-6.4-1.7-13-.8-18.7 2.5-1.3.8-2.6 1.7-3.7 2.6 1.4-7.7-.8-16-6.8-22s-14.3-8.2-22-6.8c1-1.2 1.9-2.4 2.6-3.7 3.3-5.7 4.2-12.4 2.5-18.7-2.2-8.2-8.3-14.3-15.7-16.9 7.4-2.6 13.5-8.7 15.7-16.9 1.7-6.4.8-13-2.5-18.7-.8-1.3-1.7-2.6-2.6-3.7 1.5.3 3 .4 4.6.4 6.3 0 12.6-2.4 17.4-7.2 6-6 8.2-14.3 6.8-22 1.2 1 2.4 1.9 3.7 2.6 3.8 2.2 8 3.3 12.3 3.3 2.1 0 4.3-.3 6.4-.9 8.2-2.2 14.3-8.2 16.9-15.7 2.6 7.4 8.7 13.5 16.9 15.7 2.1.6 4.3.9 6.4.9 4.3 0 8.5-1.1 12.3-3.3 1.3-.8 2.6-1.7 3.7-2.6-1.4 7.7.8 16 6.8 22 4.8 4.8 11.1 7.2 17.4 7.2 1.5 0 3.1-.1 4.6-.4-1 1.2-1.9 2.4-2.6 3.7-3.3 5.7-4.2 12.4-2.5 18.7 1.7 6.4 5.8 11.7 11.5 15 1.3.8 2.7 1.4 4.1 1.9-1.4.5-2.8 1.1-4.1 1.9-5.7 3.3-9.8 8.6-11.5 15-1.7 6.4-.8 13 2.5 18.7.8 1.3 1.7 2.6 2.6 3.7-7.7-1.4-16 .8-22 6.8s-8.2 14.3-6.8 22c-1.2-1-2.4-1.9-3.7-2.6-5.7-3.3-12.4-4.2-18.7-2.5-8.2 2.2-14.3 8.2-16.9 15.7-2.6-7.5-8.7-13.5-16.9-15.7zm189.1-210.3c.3 15.5.7 33-20.2 57.4-7.2-4.7-15.3-7.2-24.2-7.6-7.5-.3-15.5 1-23.9 3.7-7.4 2.5-13.7 5.6-18.1 8.1 2.5-4.4 5.7-10.7 8.1-18.1 2.8-8.4 4-16.4 3.7-23.9-.3-8.9-2.9-17.1-7.6-24.2 24.4-20.9 41.9-20.5 57.4-20.2 10.2.2 19.9.4 30.2-5.5-5.9 10.3-5.7 20.1-5.4 30.3zM859.8 232c1.8-.5 3.7-.7 5.6-.7 3.7 0 7.4 1 10.7 2.9 5 2.9 8.5 7.5 10 13s.7 11.3-2.1 16.3c-2.9 5-7.5 8.5-13 10s-11.3.7-16.3-2.1c-5-2.9-8.5-7.5-10-13s-.7-11.3 2.1-16.3c2.8-5.1 7.5-8.6 13-10.1zm-18.4 1.8c-4.2-.1-8.5-1.5-12-4.1-.9-.6-1.7-1.3-2.5-2.1-8.4-8.4-8.4-22 0-30.3 3.6-3.6 8.1-5.6 12.8-6.1.8-.1 1.6-.1 2.4-.1 5.5 0 11 2.1 15.2 6.3 8.4 8.4 8.4 22 0 30.3-4.4 4.2-10.2 6.2-15.9 6.1zm29.5 44.7c5.5 1.5 10.2 5 13 10 2.9 5 3.6 10.7 2.1 16.3-1.5 5.5-5 10.2-10 13-5 2.9-10.7 3.6-16.3 2.1-5.5-1.5-10.2-5-13-10-2.9-5-3.6-10.7-2.1-16.3 1.5-5.5 5-10.2 10-13 3.3-1.9 7-2.9 10.7-2.9 1.9.1 3.8.3 5.6.8zm-13.7 45.9c8.4 8.4 8.4 22 0 30.3-8.4 8.4-22 8.4-30.3 0-8.4-8.4-8.4-22 0-30.3 4.2-4.2 9.7-6.3 15.2-6.3s11 2.1 15.1 6.3zm3.6-.9c1.5.3 3.1.4 4.6.4 4.3 0 8.5-1.1 12.3-3.3 5.1-3 9-7.6 10.9-13.1 3.2 1.6 12.2 6.3 21 14.1 6.3 5.6 11.2 11.6 14.5 17.9 4 7.6 5.7 15.5 5.2 23.7-6.8 4.5-14.5 7-23 7.4-7.1.3-14.7-.9-22.7-3.5-11.2-3.7-20-9.2-22.8-11.1 7.9-9.4 8-23.2 0-32.5zm28.7-19.4c1.2-5.9.2-12-2.8-17.2-3-5.2-7.6-9-13.2-10.9 5.6-1.9 10.2-5.8 13.2-10.9 3-5.1 4-11 2.9-16.8 3.6-.2 13.8-.6 25.2 1.8 8.2 1.7 15.4 4.5 21.4 8.3 7.2 4.5 12.7 10.6 16.3 17.9-3.6 7.3-9.1 13.3-16.3 17.9-6 3.8-13.2 6.6-21.4 8.3-11.4 2.2-21.7 1.9-25.3 1.6zm-.8-59.3c-1.9-5.7-5.8-10.5-11-13.5s-11.1-4-16.9-2.9c7.9-9.2 7.9-22.9 0-32.1 3.1-2.1 11.6-7.4 22.5-11 8-2.6 15.6-3.8 22.7-3.6 8.5.3 16.3 2.8 23.1 7.4.6 8.1-1.2 16.1-5.1 23.6-3.3 6.3-8.2 12.3-14.4 17.9-8.6 7.8-17.6 12.6-20.9 14.2zm-15.8-96.3c.3 7.1-.9 14.7-3.5 22.7-3.6 10.9-8.9 19.5-11 22.6-9.2-8.1-23.1-8.1-32.3-.2 1.1-5.8.1-11.7-2.9-16.9-3-5.2-7.6-9-13.2-10.9 1.7-3.4 6.5-12.3 14.1-20.8 5.6-6.3 11.6-11.1 17.9-14.4 7.5-4 15.5-5.7 23.6-5.1 4.4 6.7 6.9 14.5 7.3 23zm-8.1-26.3c-8.5-.4-16.7 1.5-24.5 5.6-6.6 3.5-13 8.6-18.8 15.2-5.2 5.8-9.1 11.8-11.6 16.1 0-5-.4-12.1-2-19.8-1.8-8.6-4.7-16.2-8.7-22.6-4.8-7.6-11.2-13.4-18.9-17.3 10.7-30.3 26-38.8 39.6-46.2 8.9-4.9 17.5-9.6 23.4-19.9 0 11.8 5.1 20.2 10.4 28.9 8 13.3 17.1 28.3 11.1 60zm-44.5 56.2c2.9 5 3.6 10.7 2.1 16.3-1.5 5.5-5 10.2-10 13-5 2.9-10.7 3.6-16.3 2.1-11.4-3.1-18.2-14.8-15.2-26.3 1.5-5.5 5-10.2 10-13 3.3-1.9 7-2.9 10.7-2.9 1.9 0 3.7.2 5.6.7 5.6 1.6 10.3 5.1 13.1 10.1zm-24.1 163.7c1.8-.5 3.7-.7 5.6-.7 3.7 0 7.4 1 10.7 2.9 5 2.9 8.5 7.5 10 13s.7 11.3-2.1 16.3c-2.9 5-7.5 8.5-13 10-11.4 3.1-23.2-3.7-26.3-15.2-3.1-11.5 3.7-23.2 15.1-26.3zm11.7 70.9c1.6-7.7 2-14.7 2-19.8 2.5 4.4 6.4 10.3 11.6 16.1 5.9 6.6 12.2 11.7 18.8 15.2 7.1 3.8 14.6 5.6 22.2 5.6h2.1c6.2 32.1-3 47.3-11 60.6-5.3 8.7-10.3 17.1-10.3 28.9-5.9-10.2-14.5-14.9-23.4-19.9-13.6-7.5-29-16-39.7-46.5v-.2c7.8-3.9 14.2-9.7 19-17.4 3.9-6.3 6.9-13.9 8.7-22.6zm57.6 13.9c-8.1.6-16.1-1.2-23.6-5.1-6.3-3.3-12.3-8.2-17.9-14.4-7.9-8.8-12.7-18.1-14.2-21.1 5.7-1.9 10.4-5.8 13.4-11s4-11.1 2.9-16.9c4.6 4 10.3 6 16.1 6 5.7 0 11.5-2 16.1-6 1.9 2.9 7.5 11.6 11.2 22.9 2.6 8 3.8 15.6 3.5 22.7-.5 8.4-3 16.1-7.5 22.9zm61.4-88.9c-3.5-6.6-8.6-13-15.2-18.8-5.8-5.2-11.8-9.1-16.1-11.6 5 0 12.1-.4 19.8-2 8.6-1.8 16.2-4.7 22.6-8.7 7.4-4.7 13.1-10.8 17-18.3 30.5 10.7 39 26.1 46.5 39.7 4.9 8.9 9.6 17.5 19.9 23.4-11.8 0-20.2 5.1-28.9 10.4-13.3 8-28.3 17.1-60 11.2.5-8.8-1.4-17.3-5.6-25.3zm11-82.5c-6.3-4-13.9-6.9-22.6-8.7-7.7-1.6-14.7-2-19.8-2 4.4-2.5 10.3-6.4 16.1-11.6 6.6-5.9 11.7-12.2 15.2-18.8 4.1-7.8 6-16.1 5.6-24.5 31.6-5.9 46.7 3.2 59.9 11.2 8.7 5.3 17.1 10.3 28.9 10.3-10.2 5.9-14.9 14.5-19.9 23.4-7.5 13.6-15.9 29-46.2 39.6-3.7-7.7-9.6-14.1-17.2-18.9zm134.3-101l-28.4 49.1-10.3 3-.1-.2c-18.1 4.8-28-1.2-39.5-8.1-12.7-7.7-27-16.3-55.1-12.7l78.9-45.6 54.5 14.5zm-97.8-71.9h56.3l-14.6 54.7-78.7 45.5c17.2-22.5 16.8-39.2 16.5-54.1-.3-13.3-.5-24.7 12.2-37.8l8.3-8.3zm-2.3-58.7v56.5l-7.8 7.7C951 101.2 939.4 101 926 100.7c-14.8-.3-31.4-.6-53.8 16.3l45.3-78.5 54.6-14.6zM851.3 10.6l48.9-28.2 14.6 54.5-45.7 79.1c3.7-28.3-4.9-42.7-12.7-55.5-6.9-11.4-12.9-21.3-8.2-39.2l3.1-10.7zM780.1.8L820-39.1l28.2 48.8-3.1 10.5c-4.9 18-15 23.6-26.8 30.1-12.9 7.1-27.3 15.1-38.2 40.4V.8zm16.3 117.6c3.8 6 6.6 13.2 8.3 21.4 2.3 11.2 2 21.2 1.8 25-5.8-1.1-11.8-.2-17 2.8-5.2 3-9 7.6-10.9 13.2-1.9-5.6-5.8-10.2-10.9-13.2-5.2-3-11.2-4-17-2.8-.2-3.8-.5-13.8 1.8-24.9 1.7-8.2 4.5-15.5 8.3-21.5 4.5-7.2 10.6-12.7 17.9-16.3 7.1 3.6 13.1 9.1 17.7 16.3zM737-39.1L776.9.8v91.8c-10.9-26.9-25.8-35-39-42.3-11.8-6.5-21.9-12.1-26.8-30.1l-2.3-10.5L737-39.1zm-80.1 21.5l48.8 28.2L708 21v.1c4.8 18.1-1.2 28-8.1 39.5-7.7 12.7-16.2 26.9-12.8 54.7l-44.8-78.4 14.6-54.5zM585 23.9l54.5 14.6 45.2 79c-22.7-17.4-39.5-17.1-54.4-16.8-13.4.3-25 .5-38.2-12.6l-7-7.8V23.9zm-58.7 58.6h56.4l7 7.8 1.1-1-1.1 1.1c13.2 13.2 12.9 24.8 12.7 38.2-.3 14.6-.6 31 15.7 52.9L540.9 137l-14.6-54.5zm-41.5 71.9l54.5-14.6 79.4 45.9c-29-4.1-43.6 4.7-56.5 12.6-11.5 6.9-21.4 12.9-39.4 8.2l-9.7-3.1-28.3-49zm-21.6 80.2l48.9-28.2 9.7 3.1.5-1.5-.4 1.5c18 4.9 23.6 15 30.1 26.8 7.1 12.9 15.1 27.4 40.6 38.2h-89.4l-40-39.9zm.1 83.1l39.9-39.9h90.9c-26.7 10.9-34.9 25.7-42.1 38.9-6.4 11.6-11.9 21.7-29.4 26.6l-10.7 2.4-48.6-28zm21.5 80.1l28.3-49 9.6-2.2c18.1-4.8 28 1.2 39.5 8.1 10.7 6.5 22.4 13.6 42.5 13.6 3.8 0 7.9-.3 12.3-.8l-77.7 44.9-54.5-14.6zm97.9 71.9h-56.4l14.6-54.5 78.1-45.1c-17.3 22.6-17 39.4-16.7 54.3.3 13.4.5 25-12.7 38.3l-6.9 7zm2.3 58.7V472l8.9-8.8c12.5-11.3 23.6-11.1 36.3-10.9 15 .3 31.8.6 54.4-16.8l-45.2 78.3-54.4 14.6zm120.7 13.3l-48.8 28.2-14.6-54.5 44.8-77.6c-3.5 27.8 5.1 42 12.8 54.6 7 11.5 13 21.4 8.2 39.5l-2.4 9.8zm71.2 9.8L737 591.3l-28.2-48.9 2.7-11c5-17 15-22.5 26.4-28.8 13.2-7.3 28-15.5 39-42.4v91.3zm1.6-101.3c-7.3-3.6-13.3-9.1-17.9-16.3-3.8-6-6.6-13.2-8.3-21.4-2.4-11.6-2-22-1.8-25.4 1.6.3 3.1.5 4.7.5 4.3 0 8.5-1.1 12.3-3.3 5.2-3 9-7.6 10.9-13.2 1.9 5.6 5.8 10.2 10.9 13.2 3.8 2.2 8 3.3 12.3 3.3 1.6 0 3.1-.2 4.7-.5.2 3.4.7 13.7-1.7 25.3-1.7 8.2-4.5 15.5-8.3 21.5-4.4 7.2-10.5 12.7-17.8 16.3zM820 591.3l-39.9-39.9v-89.1c10.9 25.3 25.3 33.3 38.2 40.3 11.8 6.5 21.9 12.1 26.8 30.1h.2l2.9 9.8-28.2 48.8zm80.2-21.5l-48.9-28.2-3.8-12.6c-3.4-16.2 2.3-25.7 8.8-36.6 7.8-13 16.6-27.5 12.5-56.6l45.9 79.5-14.5 54.5zm207.1-111.3l-79.1-45.6 45.6-12.2 33.5 57.8zm-63-112.4l-1.4.8 29.3 50.8-56.7 15.2 15.2 56.7H972v58.7l-54.5-14.6-44.5-77.1c21.9 16.3 38.3 15.9 52.9 15.6 13.4-.3 25-.5 38.3 12.7l2.3-2.3c-13.2-13.2-12.9-24.8-12.7-38.2.3-15.6.7-33.3-19.3-57.5 6.2 1 11.8 1.5 16.9 1.5 20.1 0 31.9-7.1 42.5-13.6 11.5-7 21.4-13 39.5-8.2l.8-3.1c-18-4.9-23.6-15-30.1-26.8-7.2-13.1-15.3-27.7-41.5-38.6h91.3l39.5 39.5-49.1 28.5z" clip-path="url(#b)"/><path fill="#955ff4" d="M126.8-375.9v1304h1303.3v-1304H126.8zM1426.5 924.5H130.4V-372.2h1296.1V924.5zM418.9 421.9c19.5 48.1 48.2 91.3 85.2 128.3 37 37 80.2 65.7 128.3 85.2 23.1 9.4 47.3 16.5 71.9 21.3 24.3 4.7 49.3 7.1 74.1 7.1 24.8 0 49.8-2.4 74.1-7.1 24.6-4.8 48.8-11.9 71.9-21.3 48.1-19.5 91.3-48.2 128.3-85.2 37-37 65.7-80.2 85.2-128.3 9.4-23.1 16.5-47.3 21.3-71.9 4.7-24.3 7.1-49.3 7.1-74.1 0-24.8-2.4-49.8-7.1-74.1-4.8-24.6-11.9-48.8-21.3-71.9-19.5-48.1-48.2-91.3-85.2-128.3-37-37-80.2-65.7-128.3-85.2-23.1-9.4-47.3-16.5-71.9-21.3-24.3-4.7-49.3-7.1-74.1-7.1-24.8 0-49.8 2.4-74.1 7.1-24.6 4.8-48.8 11.9-71.9 21.3-48.1 19.5-91.3 48.2-128.3 85.2S438.4 81.8 418.9 130c-9.4 23.1-16.5 47.3-21.3 71.9-4.7 24.3-7.1 49.3-7.1 74.1 0 24.8 2.4 49.8 7.1 74.1 4.8 24.5 12 48.7 21.3 71.8zm-18.1-219.4c4.7-24.4 11.8-48.4 21.1-71.3 19.4-47.7 47.8-90.5 84.5-127.3 36.7-36.7 79.5-65.2 127.3-84.5 22.9-9.3 46.9-16.4 71.3-21.1 24.1-4.7 48.9-7 73.5-7s49.3 2.4 73.5 7c24.4 4.7 48.4 11.8 71.3 21.1 47.7 19.4 90.5 47.8 127.3 84.5 36.7 36.7 65.2 79.5 84.5 127.3 9.3 22.9 16.4 46.9 21.1 71.3 4.7 24.1 7 48.9 7 73.5s-2.4 49.3-7 73.5c-4.7 24.4-11.8 48.4-21.1 71.3-19.4 47.7-47.8 90.5-84.5 127.3-36.7 36.7-79.5 65.2-127.3 84.5-22.9 9.3-46.9 16.4-71.3 21.1-24.1 4.7-48.9 7-73.5 7s-49.3-2.4-73.5-7c-24.4-4.7-48.4-11.8-71.3-21.1-47.7-19.4-90.5-47.8-127.3-84.5-36.7-36.7-65.2-79.5-84.5-127.3-9.3-22.9-16.4-46.9-21.1-71.3-4.7-24.1-7-48.9-7-73.5s2.3-49.4 7-73.5zM457.6 763c31.9 21.1 66 39 101.4 53.4 34.8 14.1 71.1 24.9 108.1 32 36.6 7.1 74.1 10.7 111.4 10.7 37.3 0 74.8-3.6 111.4-10.7 36.9-7.2 73.3-17.9 108.1-32 35.4-14.4 69.5-32.3 101.4-53.4 32.7-21.6 63.5-46.7 91.5-74.7s53.1-58.8 74.7-91.5c21.1-31.9 39-66 53.4-101.4 14.1-34.8 24.9-71.1 32-108.1 7.1-36.6 10.7-74.1 10.7-111.4 0-37.3-3.6-74.8-10.7-111.4-7.2-36.9-17.9-73.3-32-108.1-14.4-35.4-32.3-69.5-53.4-101.4-21.6-32.7-46.7-63.5-74.7-91.5s-58.8-53.1-91.5-74.7c-31.9-21.1-66-39-101.4-53.4-34.8-14.1-71.1-24.9-108.1-32-36.6-7.1-74.1-10.7-111.4-10.7-37.3 0-74.8 3.6-111.4 10.7-36.9 7.2-73.3 17.9-108.1 32-35.4 14.4-69.5 32.3-101.4 53.4-32.7 21.6-63.5 46.7-91.5 74.7S313-77.7 291.4-45c-21.1 31.9-39 66-53.4 101.4-14.1 34.8-24.9 71.1-32 108.1-7.1 36.6-10.7 74.1-10.7 111.4 0 37.3 3.6 74.8 10.7 111.4 7.2 36.9 17.9 73.3 32 108.1 14.4 35.4 32.3 69.5 53.4 101.4 21.6 32.7 46.7 63.5 74.7 91.5s58.8 53.1 91.5 74.7zM241 494.2c-14-34.6-24.7-70.7-31.8-107.5-7-36.4-10.6-73.7-10.6-110.8s3.6-74.4 10.6-110.8c7.1-36.7 17.8-72.9 31.8-107.5 14.3-35.2 32.1-69.2 53.1-100.9 21.5-32.5 46.5-63.2 74.3-91 27.8-27.8 58.4-52.8 91-74.3 31.7-20.9 65.7-38.8 100.9-53.1 34.6-14 70.7-24.7 107.5-31.8 36.4-7 73.7-10.6 110.8-10.6 37.1 0 74.4 3.6 110.8 10.6 36.7 7.1 72.9 17.8 107.5 31.8 35.2 14.3 69.2 32.1 100.9 53.1 32.5 21.5 63.2 46.5 91 74.3 27.8 27.8 52.8 58.4 74.3 91 20.9 31.7 38.8 65.7 53.1 100.9 14 34.6 24.7 70.7 31.8 107.5 7 36.4 10.6 73.7 10.6 110.8s-3.6 74.4-10.6 110.8c-7.1 36.7-17.8 72.9-31.8 107.5-14.3 35.2-32.1 69.2-53.1 100.9-21.5 32.5-46.5 63.2-74.3 91-27.8 27.8-58.4 52.8-91 74.3-31.7 20.9-65.7 38.8-100.9 53.1-34.6 14-70.7 24.7-107.5 31.8-36.4 7-73.7 10.6-110.8 10.6-37.1 0-74.4-3.6-110.8-10.6-36.7-7.1-72.9-17.8-107.5-31.8-35.2-14.3-69.2-32.1-100.9-53.1-32.5-21.5-63.2-46.5-91-74.3-27.8-27.8-52.8-58.4-74.3-91-20.9-31.8-38.8-65.7-53.1-100.9zm-43.3 17.6c15.4 38.1 34.7 74.7 57.4 109 23.2 35.2 50.2 68.2 80.3 98.3 30.1 30.1 63.1 57.1 98.3 80.3 34.3 22.6 71 41.9 109 57.4 37.4 15.2 76.4 26.7 116.1 34.4 39.3 7.6 79.6 11.5 119.7 11.5s80.4-3.9 119.7-11.5c39.7-7.7 78.8-19.3 116.1-34.4 38.1-15.4 74.7-34.7 109-57.4 35.2-23.2 68.2-50.2 98.3-80.3 30.1-30.1 57.1-63.1 80.3-98.3 22.6-34.3 41.9-71 57.4-109 15.2-37.4 26.7-76.4 34.4-116.1 7.6-39.3 11.5-79.6 11.5-119.7s-3.9-80.4-11.5-119.7c-7.7-39.7-19.3-78.8-34.4-116.1-15.4-38.1-34.7-74.7-57.4-109-23.2-35.2-50.2-68.2-80.3-98.3-30.1-30.1-63.1-57.1-98.3-80.3-34.3-22.6-71-41.9-109-57.4-37.4-15.2-76.4-26.7-116.1-34.4-39.3-7.6-79.6-11.5-119.7-11.5s-80.4 3.9-119.7 11.5c-39.7 7.7-78.8 19.3-116.1 34.4-38.1 15.4-74.7 34.7-109 57.4-35.2 23.2-68.2 50.2-98.3 80.3-30.1 30.1-57.1 63.1-80.3 98.3-22.6 34.3-41.9 71-57.4 109-15.2 37.4-26.7 76.4-34.4 116.1-7.6 39.3-11.5 79.6-11.5 119.7s3.9 80.4 11.5 119.7c7.7 39.6 19.3 78.7 34.4 116.1zm151.8-664.9c118.5-118.5 273.7-177.7 429-177.7s310.5 59.2 429 177.7c236.9 236.9 236.9 621.1 0 858-118.5 118.5-273.7 177.7-429 177.7s-310.5-59.2-429-177.7c-237-236.9-237-621 0-858zm124.2 733.8c41.1 41.1 89.1 73 142.6 94.7 25.7 10.4 52.6 18.4 79.9 23.7 27 5.2 54.7 7.9 82.3 7.9 27.6 0 55.3-2.7 82.3-7.9 27.3-5.3 54.2-13.3 79.9-23.7 53.5-21.7 101.4-53.5 142.6-94.7 41.1-41.1 73-89.1 94.7-142.6 10.4-25.7 18.4-52.6 23.7-79.9 5.2-27 7.9-54.7 7.9-82.3 0-27.6-2.7-55.3-7.9-82.3-5.3-27.3-13.3-54.2-23.7-79.9-21.7-53.5-53.5-101.4-94.7-142.6-41.1-41.1-89.1-73-142.6-94.7-25.7-10.4-52.6-18.4-79.9-23.7-27-5.2-54.7-7.9-82.3-7.9-27.6 0-55.3 2.7-82.3 7.9-27.3 5.3-54.2 13.3-79.9 23.7-53.5 21.8-101.5 53.6-142.6 94.8-41.1 41.1-73 89.1-94.7 142.6-10.4 25.7-18.4 52.6-23.7 79.9-5.2 27-7.9 54.7-7.9 82.3 0 27.6 2.7 55.3 7.9 82.3 5.3 27.3 13.3 54.2 23.7 79.9 21.7 53.4 53.5 101.4 94.7 142.5zM350.7 276c0-27.4 2.6-54.9 7.8-81.7 5.2-27.1 13.2-53.8 23.5-79.3 21.5-53.1 53.1-100.7 94-141.5 40.8-40.8 88.5-72.5 141.5-94 25.5-10.3 52.2-18.2 79.3-23.5 26.8-5.2 54.3-7.8 81.7-7.8 27.4 0 54.9 2.6 81.7 7.8 27.1 5.2 53.8 13.2 79.3 23.5 53.1 21.5 100.7 53.1 141.5 94 40.8 40.8 72.5 88.5 94 141.5 10.3 25.5 18.2 52.2 23.5 79.3 5.2 26.8 7.8 54.3 7.8 81.7 0 27.4-2.6 54.9-7.8 81.7-5.2 27.1-13.2 53.8-23.5 79.3-21.5 53.1-53.1 100.7-94 141.5-40.8 40.8-88.5 72.5-141.5 94-25.5 10.3-52.2 18.2-79.3 23.5-26.8 5.2-54.3 7.8-81.7 7.8-27.4 0-54.9-2.6-81.7-7.8-27.1-5.2-53.8-13.2-79.3-23.5-53.1-21.5-100.7-53.1-141.5-94-40.8-40.8-72.5-88.5-94-141.5-10.3-25.5-18.2-52.2-23.5-79.3-5.2-26.9-7.8-54.4-7.8-81.7z" clip-path="url(#b)"/><path fill="none" stroke="#955ff4" stroke-miterlimit="10" stroke-width="9.732" d="M444.6 81.3l-169-97.6-1.6 2.8 169 97.6 1.6-2.8zm-40.1 92.8l-187.3-50.2-.8 3.1 187.3 50.2.8-3.1zm.4 200.3l-188.6 50.5.8 3.1 188.6-50.5-.8-3.1zM506.4 1.6l-138-138-2.3 2.3 138 138 2.3-2.3zm45.3 272.7H196.9v3.2h354.8v-3.2zm562.2-190.1l169-97.6-1.6-2.8-169 97.6 1.6 2.8zm-43.2-311.1l-2.8-1.6-97.6 169 2.8 1.6 97.6-169zM1052.8 3.9l138-138-2.3-2.3-138 138 2.3 2.3zM586.7-59.5l-97.6-169-2.8 1.6 97.6 169 2.8-1.6zm-143.2 527L274 565.3l1.6 2.8 169.5-97.8-1.6-2.8zM679.8-98.7l-50.2-187.5-3.1.8 50.2 187.5 3.1-.8zm197.1 1.1l3.1.8 50.5-188.6-3.1-.8-50.5 188.6zm173.6 647.9l138.1 138.1 2.3-2.3L1052.8 548l-2.3 2.3zm-80.3 60.9l97.7 169.2 2.8-1.6L973 609.6l-2.8 1.6zM1111 469.8l170.3 98.3 1.6-2.8-170.3-98.3-1.6 2.8zm53.5-195.5v3.2H1360v-3.2h-195.5zm-12.6 103.4l187.9 50.3.8-3.1-187.9-50.3-.8 3.1zM486.3 778.8l2.8 1.6 98.5-170.5-2.8-1.6-98.5 170.5zm390.2-130.7l50.9 190.1 3.1-.8-50.9-190.1-3.1.8zM626.4 837.3l3.1.8 50.6-188.9-3.1-.8-50.6 188.9zM504.3 547.8L366.1 686l2.3 2.3 138.2-138.2-2.3-2.3zm272.6 309.7h3.2v-195h-3.2v195zm0-967.8h3.2v-195.3h-3.2v195.3z" clip-path="url(#b)"/><path fill="#c0a2f3" d="M114 781.3l12.8-9.8V-72.3L114-79.2z" clip-path="url(#b)"/><g fill="#955ff4" clip-path="url(#b)"><path d="M206.9 250.1l13.7 13.7 3.4-3.4c2.2-2.2 5.2-3.4 8.3-3.4l72.2.1c22.1 0 35 15.9 35 15.9s-2.6-26.4-25.4-29.5v-.3h-82c-3.1 0-6-1.2-8.2-3.4l-3.4-3.4-13.6 13.7z"/><path d="M207.958 275.472l12.657-12.657 12.657 12.657-12.657 12.658z"/><path d="M306.648 245.674l22.698-22.698L339.6 233.23l-22.698 22.698z"/><path d="M278.4 230.4v45.1l-12.2-4.2v-45.1z"/><path d="M278.4 275.5l-19.2-6.4 11.4-6.4z"/><path d="M266.2 226.2l21.2 6.8-11.2 3.1z"/><path d="M339.6 233.2l-17.5-16.7-2.5 2.5 3.7 3.7c3.3 3.3-1.2 7.4-1.2 7.4l17.5 3.1z"/><path d="M224.1 290.6l-3.4-3.4-13.8 13.8 13.7 13.7 3.4-3.4c2.2-2.2 5.2-3.4 8.3-3.4l81.9.1c3.1 0 6.1 1.2 8.3 3.4l3.3 3.3 13.7-13.7-13.7-13.7-3.3 3.3c-2.2 2.2-5.2 3.4-8.3 3.4h-82c-3 0-5.9-1.2-8.1-3.4z"/></g><g fill="#955ff4" clip-path="url(#b)"><path d="M366.1 467.1l4.7 1.2 5-18.8-18.8-5-1.3 4.7c-.8 3-2.8 5.6-5.5 7.1l-71 40.9c-2.7 1.5-5.9 2-8.9 1.2l-4.6-1.2-5 18.8 18.8 5 1.2-4.6c.8-3 2.8-5.6 5.5-7.1l71-41c2.8-1.6 6-2 8.9-1.2z"/><path d="M379.8 490.7l4.7 1.2 5-18.8-18.8-5-1.3 4.7c-.8 3-2.8 5.6-5.5 7.1l-71 40.9c-2.7 1.5-5.9 2-8.9 1.2l-4.6-1.2-5 18.8 18.8 5 1.2-4.6c.8-3 2.8-5.6 5.5-7.1l71-41c2.8-1.5 5.9-2 8.9-1.2z"/><path d="M393.5 514.4l4.7 1.2 5-18.8-18.8-5-1.3 4.7c-.8 3-2.8 5.6-5.5 7.1l-71 40.9c-2.7 1.5-5.9 2-8.9 1.2l-4.6-1.2-5 18.8 18.8 5 1.2-4.6c.8-3 2.8-5.6 5.5-7.1l71-41c2.7-1.6 5.9-2 8.9-1.2z"/><path d="M420.8 561.8l4.7 1.2 5-18.8-18.8-5-1.3 4.7c-.8 3-2.8 5.6-5.5 7.1l-71 40.9c-2.7 1.5-5.9 2-8.9 1.2l-4.6-1.2-5 18.8 18.8 5 1.2-4.6c.8-3 2.8-5.6 5.5-7.1l71-41c2.8-1.5 6-2 8.9-1.2z"/><path d="M404.3 539.6l7.5 2 2.2-1.7-30.6-8.1-63.1 36.3c-2.7 1.5-5.9 2-8.9 1.2l-4.6-1.2-5 18.8 18.8 5 1.2-4.6c.8-3 2.8-5.6 5.5-7.1l68.2-39.4c2.7-1.5 5.8-2 8.8-1.2z"/></g><g fill="#955ff4" clip-path="url(#b)"><path d="M539.9 656l4.7-1.3-5-18.8-18.8 5 1.3 4.7c.8 3 .4 6.2-1.2 8.9l-41 70.9c-1.6 2.7-4.1 4.6-7.1 5.4l-4.6 1.2 5 18.8 18.8-5-1.2-4.6c-.8-3-.4-6.2 1.2-8.9l41-71c1.4-2.5 3.9-4.5 6.9-5.3z"/><path d="M563.5 669.7l4.7-1.3-5-18.8-18.8 5 1.3 4.7c.8 3 .4 6.2-1.2 8.9l-41 70.9c-1.6 2.7-4.1 4.6-7.1 5.4l-4.6 1.2 5 18.8 18.8-5-1.2-4.6c-.8-3-.4-6.2 1.2-8.9l41-71c1.4-2.5 4-4.5 6.9-5.3z"/><path d="M611 697.1l4.7-1.3-5-18.8-18.8 5 1.3 4.7c.8 3 .4 6.2-1.2 8.9l-41 70.9c-1.6 2.7-4.1 4.6-7.1 5.4l-4.6 1.2 5 18.8 18.8-5-1.2-4.6c-.8-3-.4-6.2 1.2-8.9l41-71c1.4-2.6 3.9-4.5 6.9-5.3z"/><path d="M585.6 686.1l7.5-2 1-2.6-30.5 8.3-36.5 63c-1.6 2.7-4.1 4.6-7.1 5.4l-4.6 1.2 5 18.8 18.8-5-1.2-4.6c-.8-3-.4-6.2 1.2-8.9l39.4-68.2c1.5-2.6 4-4.6 7-5.4z"/></g><g fill="#955ff4" clip-path="url(#b)"><path d="M759 731.2l3.4-3.4-13.8-13.8-13.7 13.7 3.4 3.4c2.2 2.2 3.4 5.2 3.4 8.3l-.1 81.9c0 3.1-1.2 6.1-3.4 8.3l-3.3 3.3 13.7 13.7 13.7-13.7-3.3-3.3c-2.2-2.2-3.4-5.2-3.4-8.3v-82c0-3 1.2-6 3.4-8.1z"/><path d="M813.8 731.2l3.4-3.4-13.8-13.8-13.7 13.7 3.4 3.4c2.2 2.2 3.4 5.2 3.4 8.3l-.1 81.9c0 3.1-1.2 6.1-3.4 8.3l-3.3 3.3 13.7 13.7 13.7-13.7-3.3-3.3c-2.2-2.2-3.4-5.2-3.4-8.3v-82c0-3 1.2-6 3.4-8.1z"/><path d="M786.3 734.4l5.5-5.5-.4-2.8-22.4 22.4-.1 72.8c0 3.1-1.2 6.1-3.4 8.3l-3.3 3.3 13.7 13.7 13.7-13.7-3.3-3.3c-2.2-2.2-3.4-5.2-3.4-8.3v-78.8c0-3 1.2-5.9 3.4-8.1z"/></g><g fill="#955ff4" clip-path="url(#b)"><path d="M1191.6 450.2l-1.3-4.7-18.8 5 5 18.8 4.7-1.3c3-.8 6.2-.4 8.9 1.2l70.9 41c2.7 1.6 4.6 4.1 5.4 7.1l1.2 4.6 18.8-5-5-18.8-4.6 1.2c-3 .8-6.2.4-8.9-1.2l-71-41c-2.5-1.4-4.4-4-5.3-6.9z"/><path d="M1177.9 473.5l-1.3-4.7-18.8 5 5 18.8 4.7-1.3c3-.8 6.2-.4 8.9 1.2l70.9 41c2.7 1.6 4.6 4.1 5.4 7.1l1.2 4.6 18.8-5-5-18.8-4.6 1.2c-3 .8-6.2.4-8.9-1.2l-71-41c-2.6-1.4-4.5-3.9-5.3-6.9z"/><path d="M1166.9 498.9l-2-7.5-2.6-1 8.3 30.5 63 36.5c2.7 1.6 4.6 4.1 5.4 7.1l1.2 4.6 18.8-5-5-18.8-4.6 1.2c-3 .8-6.2.4-8.9-1.2l-68.2-39.4c-2.6-1.5-4.6-4-5.4-7z"/></g><g fill="#955ff4" clip-path="url(#b)"><path d="M1041.8 653.3l1.2-4.7-18.8-5-5 18.8 4.7 1.3c3 .8 5.6 2.8 7.1 5.5l40.9 71c1.5 2.7 2 5.9 1.2 8.9l-1.2 4.6 18.8 5 5-18.8-4.6-1.2c-3-.8-5.6-2.8-7.1-5.5l-41-71c-1.6-2.7-2-5.9-1.2-8.9z"/><path d="M1018.2 666.7l1.2-4.7-18.8-5-5 18.8 4.7 1.3c3 .8 5.6 2.8 7.1 5.5l40.9 71c1.5 2.7 2 5.9 1.2 8.9l-1.2 4.6 18.8 5 5-18.8-4.6-1.2c-3-.8-5.6-2.8-7.1-5.5l-41-71c-1.6-2.8-2-6-1.2-8.9z"/><path d="M996 683.2l2-7.5-1.7-2.2-8.1 30.6 36.3 63.1c1.5 2.7 2 5.9 1.2 8.9l-1.2 4.6 18.8 5 5-18.8-4.6-1.2c-3-.8-5.6-2.8-7.1-5.5L997.2 692c-1.6-2.7-2-5.8-1.2-8.8z"/></g><g fill="#955ff4" clip-path="url(#b)"><path d="M472.6-208.8l-5 18.8 4.7 1.3c3 .8 5.6 2.8 7.1 5.5l36 62.6c11 19.1 3.7 38.3 3.7 38.3S540.7-97.7 532-119l.3-.2-41-71c-1.5-2.7-2-5.8-1.2-8.8l1.2-4.7-18.7-5.1z"/><path d="M489.148-202.536l4.633-17.29 17.29 4.632-4.633 17.29z"/><path d="M522.45-110.595l3.752-14.005 31.005 8.307-3.752 14.006z"/><path d="M525.4-156.8l-39.1 22.5-2.5-12.6 39.1-22.6z"/><path d="M486.3-134.3l-4-19.7 11.2 6.6z"/><path d="M522.9-169.5l4.7 21.8-8.3-8.1z"/><path d="M553.5-102.3l5.8-23.5-3.4-.9-1.4 5.1c-1.2 4.5-7 2.7-7 2.7l6 16.6z"/><path d="M533.4-224.1l1.2-4.7-18.8-5-5 18.8 4.7 1.3c3 .8 5.6 2.8 7.1 5.5l40.9 71c1.5 2.7 2 5.9 1.2 8.9l-1.2 4.6 18.8 5 5-18.8-4.6-1.2c-3-.8-5.6-2.8-7.1-5.5l-41-71c-1.5-2.8-1.9-5.9-1.2-8.9z"/></g><g fill="#955ff4" clip-path="url(#b)"><path d="M743.6-296.3l-13.7 13.7 3.4 3.4c2.2 2.2 3.4 5.2 3.4 8.3l-.1 72.2c0 22.1-15.9 35-15.9 35s26.4-2.6 29.5-25.4h.3v-82c0-3.1 1.2-6 3.4-8.2l3.4-3.4-13.7-13.6z"/><path d="M754.778-282.502l12.657-12.657 12.657 12.657-12.657 12.657z"/><path d="M737.676-186.228l10.253-10.253 22.698 22.698-10.253 10.253z"/><path d="M763.3-224.8h-45.1l4.2-12.2h45.1z"/><path d="M718.2-224.8l6.4-19.1 6.3 11.3z"/><path d="M767.5-237l-6.8 21.2-3.2-11.2z"/><path d="M760.4-163.5l16.7-17.5-2.5-2.5-3.7 3.7c-3.3 3.3-7.4-1.2-7.4-1.2l-3.1 17.5z"/><path d="M803.9-279.1l3.4-3.4-13.7-13.7-13.7 13.7 3.4 3.4c2.2 2.2 3.4 5.2 3.4 8.3l-.1 81.9c0 3.1-1.2 6.1-3.4 8.3l-3.3 3.3 13.7 13.7 13.7-13.7-3.3-3.3c-2.2-2.2-3.4-5.2-3.4-8.3v-82c0-3 1.2-6 3.3-8.2z"/><path d="M830.5-279.1l3.4-3.4-13.7-13.7-13.7 13.7 3.4 3.4c2.2 2.2 3.4 5.2 3.4 8.3l-.1 81.9c0 3.1-1.2 6.1-3.4 8.3l-3.3 3.3 13.7 13.7 13.7-13.7-3.3-3.3c-2.2-2.2-3.4-5.2-3.4-8.3v-82c-.1-3 1.1-6 3.3-8.2z"/></g><path fill="#955ff4" d="M1063.4-196.1l4.7-1.3-5-18.8-18.8 5 1.3 4.7c.8 3 .4 6.2-1.2 8.9l-41 70.9c-1.6 2.7-4.1 4.6-7.1 5.4l-4.6 1.2 5 18.8 18.8-5-1.2-4.6c-.8-3-.4-6.2 1.2-8.9l41-71c1.4-2.6 3.9-4.5 6.9-5.3z" clip-path="url(#b)"/><g fill="#955ff4" clip-path="url(#b)"><path d="M1257.7-26.7l4.7 1.2 5-18.8-18.8-5-1.3 4.7c-.8 3-2.8 5.6-5.5 7.1l-71 40.9c-2.7 1.5-5.9 2-8.9 1.2l-4.6-1.2-5 18.8 18.8 5 1.2-4.6c.8-3 2.8-5.6 5.5-7.1l71-41c2.7-1.5 5.9-1.9 8.9-1.2z"/><path d="M1271.4-2.9l4.7 1.2 5-18.8-18.8-5-1.3 4.7c-.8 3-2.8 5.6-5.5 7.1l-71 40.9c-2.7 1.5-5.9 2-8.9 1.2l-4.6-1.2-5 18.8 18.8 5 1.2-4.6c.8-3 2.8-5.6 5.5-7.1l71-41c2.8-1.5 5.9-1.9 8.9-1.2z"/></g><g fill="#955ff4" clip-path="url(#b)"><path d="M287.3-6.4l5 18.8 4.7-1.3c3-.8 6.2-.4 8.9 1.2l62.5 36.2c19.1 11 22.4 31.3 22.4 31.3s11-24.1-7.2-38.3l.2-.3-71-41c-2.7-1.5-4.6-4.1-5.4-7l-1.3-4.7-18.8 5.1z"/><path d="M300.184-26.58l17.29-4.633 4.632 17.29-17.29 4.632z"/><path d="M375.565 39.372l31.585-8.463 3.752 14.006-31.584 8.463z"/><path d="M359 12.2l-22.6 39.1-8.4-9.7 22.5-39.1z"/><path d="M336.4 51.3l-13.3-15.1 13 .2z"/><path d="M350.5 2.5l15 16.5-11.3-2.9z"/><path d="M410.9 44.9l-6.8-23.2-3.4.9 1.4 5.1c1.2 4.5-4.8 5.9-4.8 5.9l13.6 11.3z"/></g><defs><path id="c" d="M146.9 1.4h806.4v434.5H146.9z"/></defs><clipPath id="d"><use overflow="visible" xlink:href="#c"/></clipPath><path fill="#761a81" d="M834.1 31.7c0-8.4-3.7-15.9-9.5-20.9h.1s-40.6-32.9-40.6-58.1c0-7.2 5.7-10.4 5.7-10.4l-11.2-11.4-11.2 11.4s5.7 3.2 5.7 10.4c0 25.2-40.6 58.1-40.6 58.1h.1c-5.8 5.1-9.5 12.6-9.5 20.9 0 15.3 12.4 27.8 27.8 27.8 5.8 0 11.3-1.8 15.7-4.9l-1.2 82.3c-.4 21.4-29.3 25.9-29.3 25.9v7.5s28.6 5.3 28.2 27.5l-1.8 103.5s3.1 69.5-24.6 98.1l-1.2 17.2s29 2.6 41.9 17.3c12.9-14.7 41.9-17.3 41.9-17.3l-1.2-17.2c-27.6-28.6-24.6-98.1-24.6-98.1l-1.8-103.5c-.4-22.2 28.2-27.5 28.2-27.5v-7.5s-28.9-4.6-29.3-25.9l-1.2-82.4c4.5 3.1 9.9 4.9 15.7 4.9 15.3.1 27.8-12.4 27.8-27.7z" clip-path="url(#d)"/><g fill="#000e41" clip-path="url(#d)"><path d="M772.9-57.8c.1-.8.1-1.5.1-2.3 0-4.2-1.9-7-3.5-8.6l-2.2 2.2s4.8 2.7 5.6 8.7z"/><path d="M784.1-57.8c.8-6 5.5-8.7 5.5-8.7l-2.2-2.2c-1.6 1.6-3.5 4.5-3.5 8.6.1.8.1 1.6.2 2.3z"/><path d="M766.4 54.6l.1-4c-4.5 3.1-9.9 4.9-15.7 4.9-14.8 0-26.8-11.4-27.8-25.8 0 .7-.1 1.4-.1 2 0 15.3 12.4 27.8 27.8 27.8 5.8 0 11.2-1.8 15.7-4.9z"/><path d="M794.5 296.9c0-2.7.1-4.2.1-4.2v-2.6c-.1 1.4-.1 3.7-.1 6.8z"/><path d="M792.8 193.9v2.4c1-20.8 28.2-25.9 28.2-25.9v-4c.1 0-28.6 5.3-28.2 27.5z"/><path d="M764.1 196.1v-2.2c.4-22.2-28.2-27.5-28.2-27.5v4s27.1 5 28.2 25.7z"/><path d="M806.3 55.5c-5.8 0-11.3-1.8-15.7-4.9l.1 4c4.5 3.1 9.9 4.8 15.7 4.8 15.3 0 27.8-12.4 27.8-27.8 0-.7 0-1.4-.1-2-1.1 14.5-13.1 25.9-27.8 25.9z"/><path d="M762.4 296.9v-6.8 2.6c-.1 0 0 1.5 0 4.2z"/></g><g clip-path="url(#d)"><path fill="#761a81" d="M771.1-62.7c1.1-3.2 1.8-6.4 1.9-9.5l-5.6 5.7c-.1 0 2 1.2 3.7 3.8z"/><path fill="#761a81" d="M789.7-66.5l-5.6-5.7c.1 3.1.8 6.3 1.9 9.5 1.5-2.6 3.7-3.8 3.7-3.8z"/><path fill="#041c6f" d="M778.5 417.2c-11.4-13-35.3-16.5-40.7-17.2l-1.1 16.7s29 2.6 41.9 17.3c12.9-14.7 41.9-17.3 41.9-17.3l-1.1-16.7c-5.7.6-29.5 4.2-40.9 17.2z"/><path fill="#000e41" d="M778.5 417.2c-11.4-13-35.3-16.5-40.7-17.2l-1.1 16.7s29 2.6 41.9 17.3v-16.8z"/></g><path fill="#761a81" d="M228.5 284l519.9 9.8v-35.2l-519.9 9.8c-4.2.1-7.6 3.5-7.6 7.8 0 4.2 3.4 7.7 7.6 7.8z" clip-path="url(#d)"/><path fill="#000e41" d="M302.3 285.4l311.8 5.9 30.7-30.7-323.9 6.1z" clip-path="url(#d)"/><g clip-path="url(#d)"><path fill="#000e41" d="M798.4 351.5c-4.8-25.8-3.8-50.1-3.8-50.1l-1.3-72.6c-9.1-5.9-19.2 26-29.5 24.5l-1.5 48.1s1.5 35-7.4 65.5c15.4-.4 30.7-5.5 43.5-15.4z"/><path fill="#000e41" d="M699.8 292.9l48.7.9v-35.2l-39.5.7c-6.3 10.3-9.3 22-9.2 33.6z"/><ellipse cx="778.5" cy="276" fill="#000e41" rx="63.7" ry="63.7" transform="rotate(-45.001 778.485 275.963)"/><path fill="#082487" d="M778.5 276l63.7-.1c0-16.3-6.3-32.5-18.7-44.9-2.9-2.9-6-5.4-9.3-7.7L778.5 276z"/><ellipse cx="778.5" cy="276" fill="#082487" rx="59.2" ry="59.2" transform="rotate(-45.001 778.485 275.963)"/><path fill="#ea0073" d="M778.5 276l59.2-.1c0-15.1-5.8-30.2-17.3-41.7-2.7-2.7-5.6-5.1-8.6-7.1L778.5 276z"/><ellipse cx="778.5" cy="276" fill="#000e41" rx="28.9" ry="28.9" transform="rotate(-45.001 778.485 275.963)"/><ellipse cx="778.5" cy="276" fill="#082487" rx="4.7" ry="4.7" transform="rotate(-45.001 778.485 275.963)"/><path fill="#082487" d="M807.4 275.9c0-7.4-2.8-14.7-8.5-20.4-1.3-1.3-2.7-2.5-4.2-3.5l-16.2 24 28.9-.1z"/><path fill="#ea0073" d="M783.2 275.9c0-1.2-.5-2.4-1.4-3.3-.2-.2-.4-.4-.7-.6l-2.6 3.9h4.7z"/></g></svg>