<svg id="Layer_1" data-name="Layer 1" xmlns="http://www.w3.org/2000/svg" viewBox="0 0 102.6013 250"><defs><style>.cls-1{fill:#000e41;}.cls-2{fill:#761a81;}.cls-3{fill:#ea0073;}.cls-4{fill:#041c6f;}.cls-5{fill:#f8aad0;}.cls-6{fill:#f155a2;}.cls-10,.cls-7{fill:none;}.cls-7{stroke:#f155a2;stroke-linecap:round;stroke-miterlimit:10;stroke-width:0.7206px;}.cls-8{fill:#bac1cf;}.cls-9{fill:#082487;}.cls-11{fill:#fff;}.cls-12{fill:#3f1f84;}.cls-13{fill:#b00d7a;}</style></defs><title>bbc-thumb-layer1</title><path class="cls-1" d="M75.516,98.5192c-2.9711,11.1883,2.7307,22.1134,8.01,31.6679.9311,1.6852,1.87,3.3747,2.8662,5.0247a14.21,14.21,0,0,0,12.18,6.8061h23.3448V122.8491Z" transform="translate(-74.6994 0)"/><path class="cls-1" d="M93.3015,50.1113c-3.42.6053-6.1555,3.3691-7.5916,6.5318-3.2551,7.1688-2.4087,28.5689-1.8578,39.6023.1048,2.0986.2522,4.3163,1.4384,6.0507a5.6914,5.6914,0,0,0,9.5821-.2842c.9684-1.6478,1.032-3.6523,1.12-5.5616.5753-12.4114,4.4313-32.6117.9687-41.8219C96.3621,53.0331,95.3692,49.7921,93.3015,50.1113Z" transform="translate(-74.6994 0)"/><path class="cls-2" d="M148.2244,52.1008c-2.4112,6.2176-3.3238,12.7608-3.4353,21.37a38.84,38.84,0,0,1,4.9515-5.5257l1.73.899c-1.4865,4.4617,1.9423,6.9206,3.25,9.0128a8.3486,8.3486,0,0,1,.918,6.6842,26.1008,26.1008,0,0,1-2.16,4.4711c-3.7212,7.2085-1.0676,11.19-3.83,14.5368a2.8263,2.8263,0,0,1-3.2837,1.0242,2.1825,2.1825,0,0,1-.3586-.2427q.1521,2.7162.3109,5.6218c.0079.1464.0167.2942.0262.4426l4.94-1.5288c3.554,3.03,5.0509,5.4757,7.3015,3.6818a17.8912,17.8912,0,0,0,.8066-4.1567C164.04,63.9306,161.3673,60.7488,148.2244,52.1008Z" transform="translate(-74.6994 0)"/><path class="cls-1" d="M149.6483,103.549c2.7627-3.3471.1091-7.3283,3.83-14.5368a26.1008,26.1008,0,0,0,2.16-4.4711,8.3486,8.3486,0,0,0-.918-6.6842c-1.3075-2.0922-3.9524-5.623-3.2061-10.0372l-1.7734.1254a38.84,38.84,0,0,0-4.9515,5.5257c-.1041,8.0186.4866,17.8289,1.2169,30.86a2.1825,2.1825,0,0,0,.3586.2427A2.8263,2.8263,0,0,0,149.6483,103.549Z" transform="translate(-74.6994 0)"/><path class="cls-1" d="M148.2591,115.74c2.1833,1.8513,6.6392.99,8.4628-.4479a5.9543,5.9543,0,0,0,1.8624-2.7439c-2.2506,1.7939-3.7475-.6516-7.3015-3.6818l-4.94,1.5288C146.47,112.3677,146.7724,114.4791,148.2591,115.74Z" transform="translate(-74.6994 0)"/><path class="cls-2" d="M151.786,58.8864c-.3513-6.7316-2.1317-6.4709-20.8955-16.6884-4.2911-2.3366-6.4912-4.0825-6.3413-13.4719l-17.9055,4.1986a5.0742,5.0742,0,0,1,1.8411.2331,3.0347,3.0347,0,0,1,2.1823,3.1006l2.1374,2.4763c2.4612,5.3173,4.9793,10.9253,4.5644,16.77-.6092,8.5827-7.3735,15.641-8.718,24.14-.4235,2.6773-.2069,5.6565,1.5406,7.7285,1.7774,2.1074,4.6691,2.7906,7.2749,3.6908a17.3465,17.3465,0,0,1,8.1448,5.2419c4.0732,5.1621,3.1061,12.5361,1.933,19.0061l-.0469.2595,13.6435,1.6483C143.6669,85.1086,152.7473,77.3106,151.786,58.8864Z" transform="translate(-74.6994 0)"/><path class="cls-1" d="M125.6112,96.3053a17.3465,17.3465,0,0,0-8.1448-5.2419c-2.6058-.9-5.4975-1.5834-7.2749-3.6908-1.7475-2.072-1.9641-5.0512-1.5406-7.7285,1.3445-8.4986,8.1088-15.5569,8.718-24.14.4149-5.8445-2.1032-11.4525-4.5644-16.77l-2.1374-2.4763a3.0347,3.0347,0,0,0-2.1823-3.1006,5.0742,5.0742,0,0,0-1.8411-.2331l-2.9909.7013c.7181,2.9464,1.3757,6.2892-.289,8.8241-2.6961,4.1055-13.2,6.905-15.5081,11.1716a7.1215,7.1215,0,0,0-.7282,2.9348c-.4207,6.3621,3.1791,12.1886,5.2837,18.2074,2.6686,7.6318,2.922,14.5437,4.8571,37.155l30.229,3.652.0469-.2595C128.7173,108.8414,129.6844,101.4674,125.6112,96.3053Z" transform="translate(-74.6994 0)"/><rect class="cls-3" x="23.6085" y="59.5793" width="29.9773" height="36.5634" rx="2.0018" ry="2.0018"/><path class="cls-1" d="M96.7661,21.0866c-.3848-2.4367-.77-4.8758-.9868-7.3333a8.2717,8.2717,0,0,1,.1085-2.8752c.5384-2.0013,2.7148-4.2933,4.7579-5.5073a8.7452,8.7452,0,0,1,4.87-1.3422,5.6345,5.6345,0,0,1,4.3669,2.32,7.4384,7.4384,0,0,1,.898,2.0681c.7065,2.3968,1.3157,7.8446.7527,9.6555-.9222,2.9669-7.878,7.7549-11.4293,8.9706-.6322.2164-.8472.4112-1.2185-.1406A18.3428,18.3428,0,0,1,96.7661,21.0866Z" transform="translate(-74.6994 0)"/><path class="cls-1" d="M107.199,11.1a3.5084,3.5084,0,0,0,1.2068-1.6324,3.7915,3.7915,0,0,0-.6105-2.7433,8.9848,8.9848,0,0,0-2.5709-3.1379c-1.2807-.902-2.9015-1.2668-4.0931-2.2836C99.3548-.2128,98.1484-.9723,97.2839,2.4853,95.0953,11.2379,101.5661,15.9045,107.199,11.1Z" transform="translate(-74.6994 0)"/><path class="cls-4" d="M125.1639,9.9424c-.4207-1.54-.9993-3.2531-2.44-3.9413a4.11,4.11,0,0,0-3.9808.6215c-1.7684,1.22-2.0456,2.6621-1.96,4.8615.1669,4.305,1.3689,8.7948,4.46,11.7956C125.9768,27.8748,128.1411,20.8443,125.1639,9.9424Z" transform="translate(-74.6994 0)"/><path class="cls-5" d="M109.5631,5.2571c6.8786-.9762,13.4136,4.9886,14.5964,13.3228q.3155,3.9093.55,7.8241c.08,1.335.1526,2.6721.12,4.0079a34.6325,34.6325,0,0,1-3.5822,13.711,7.6546,7.6546,0,0,1-2.5178,3.3995,6.7206,6.7206,0,0,1-3.0487.8418,6.72,6.72,0,0,1-3.1626.04,7.6551,7.6551,0,0,1-3.3643-2.5648c-7.0655-8.0635-7.7421-13.1366-9.904-23.7241C98.067,13.7808,102.6844,6.2333,109.5631,5.2571Z" transform="translate(-74.6994 0)"/><path class="cls-6" d="M117.0215,48.1751c-.52.0126-1.0438.0391-1.5557.0073a6.5766,6.5766,0,0,1-4.6986-2.4659c-2.2011-2.8-1.8633-7.0343-4.176-9.7431-.9566-1.12-2.3475-1.9559-2.8156-3.3529a4.4232,4.4232,0,0,1,1.0549-4.0342c.7678-.9484,1.7858-1.7747,2.1077-2.9518.6377-2.3323-1.5789-4.0387-1.4235-8.4824.0956-2.7321,1.3923-3.81,2.5993-3.8929l-5.839-3.3354c-.0982.0375-.1968.0757-.2952.1134A16.69,16.69,0,0,0,99.25,22.115c2.1619,10.5875,2.8385,15.6606,9.9041,23.7241a7.655,7.655,0,0,0,3.3642,2.5648,6.7215,6.7215,0,0,0,3.1626-.04A11.7644,11.7644,0,0,0,117.0215,48.1751Z" transform="translate(-74.6994 0)"/><path class="cls-6" d="M100.3173,26.194c-.953-2.7316-5.93-3.7405-.7022,6.2062,1.1517,2.1912,2.4809,2.31,3.1971,1.6859" transform="translate(-74.6994 0)"/><path class="cls-5" d="M124.3649,22.7812c.1554-2.8889,4.6553-5.2428,2.4012,5.7658-.4965,2.4251-1.74,2.909-2.6017,2.5088" transform="translate(-74.6994 0)"/><polygon class="cls-1" points="25.555 13.198 26.675 21.09 25.422 23.485 25.968 27.331 25.399 28.094 24.837 24.135 23.394 21.612 22.334 14.143 25.555 13.198"/><path class="cls-1" d="M124.691,24.32l-.8509-1.1871L123.3813,19.9l-1.0929-2.0625L120.91,10.1457l.4213.0625a2.8989,2.8989,0,0,1,2.2815,1.831l.689,1.8a6.4706,6.4706,0,0,1,.359,3.2536l-.4192,2.8559Z" transform="translate(-74.6994 0)"/><path class="cls-1" d="M121.3724,10.4046c-5.9492,2.1811-13.6524,4.3549-19.9441,3.6034-4.871-.5818-6.7952-3.2761-6.8313-5.9465,2.509-.0123,12.6905-3.8641,19.5887-3.1518,2.583.2668,7.1421,3.252,7.1867,5.4949" transform="translate(-74.6994 0)"/><path class="cls-7" d="M115.3388,26.6664a15.6278,15.6278,0,0,1,6.3094-1.9578" transform="translate(-74.6994 0)"/><path class="cls-7" d="M110.3847,27.37a15.6282,15.6282,0,0,0-6.605-.1251" transform="translate(-74.6994 0)"/><path class="cls-7" d="M113.3657,37.1911a4.6972,4.6972,0,0,0,2.8493-.5362" transform="translate(-74.6994 0)"/><path class="cls-8" d="M94.6032,68.3452a46.2561,46.2561,0,0,1,6.3531-2.295,45.3117,45.3117,0,0,1,11.0692-.9478c.219.1355.1513.472.0244.6961-1.6464,2.9063-5.74.9453-15.2264,5.0764Z" transform="translate(-74.6994 0)"/><path class="cls-8" d="M94.81,77.4367c-1.0841-2.97-.2808-5.991,1.7942-6.7486l7.2971-1.85a20.8641,20.8641,0,0,1,3.2883-.559l6.7218-.5957a1.25,1.25,0,0,1,1.3469,1.0655h0a3.9911,3.9911,0,0,1-1.18,3.445l-3.5711,3.4426A19.1766,19.1766,0,0,1,105.3232,79.2L100.53,81.4419C98.4553,82.2,95.8942,80.4063,94.81,77.4367Z" transform="translate(-74.6994 0)"/><path class="cls-8" d="M100.6787,81.3683a19.6189,19.6189,0,0,1-4.3272,5.306c-3.9415,3.081-8.1185,1.8849-9.1864-.4468.7461-4.0932,3.0441-7.946,4.252-11.9274.5381-1.7739,1.1742-5.0706,3.7454-5.88Z" transform="translate(-74.6994 0)"/><path class="cls-2" d="M90.1669,92.61l.1,9.0912c.0041.3709.0065.7461-.0012,1.1211l6.3219,1.0117L95.4845,86.86l-3.5631-.2709a6.2145,6.2145,0,0,0-1.216,1.8066A10.366,10.366,0,0,0,90.1669,92.61Z" transform="translate(-74.6994 0)"/><path class="cls-1" d="M83.3271,101.7118l6.9387,1.1105c.0077-.375.0053-.75.0012-1.1211l-.1-9.0912a10.366,10.366,0,0,1,.5385-4.2142,6.2145,6.2145,0,0,1,1.216-1.8066l-4.7563-.3617Z" transform="translate(-74.6994 0)"/><path class="cls-8" d="M113.1872,96.3909c-.6452,1.074.2449,2.2018,1.0379,3.0288.6916.7213,5.3024,5.4589,6.3276,5.8552a2.9753,2.9753,0,0,0,2.921-.7151c.4205-.9909-1.7159-2.4424-8.1448-7.7225-.5665-.4653-1.3147-.9848-1.9581-.5008" transform="translate(-74.6994 0)"/><path class="cls-5" d="M110.011,92.4957a1.34,1.34,0,0,0,.0162,1.3018c.5805,1.1331,6.9029,6.4558,12.167,9.569,2.3388,1.3832,2.916-.6424,2.4546-1.6843a4.5581,4.5581,0,0,0-1.7889-1.7613c-12.2261-8.1907-11.53-7.8224-12.0581-7.8526a.9832.9832,0,0,0-.7908.4274" transform="translate(-74.6994 0)"/><path class="cls-5" d="M124.7954,102.5912,110.8425,91.9918a2.1785,2.1785,0,0,1-.2772-3.2187l.3454-.3712a3.3523,3.3523,0,0,1,3.48-.9079l6.7919,2.1831a22.2922,22.2922,0,0,1,5.3929,2.5748l3.9013,2.5554Z" transform="translate(-74.6994 0)"/><path class="cls-5" d="M135.5077,100.2511h9.3777a6.5963,6.5963,0,0,1,6.4383,8.0319l-1.7661,7.9215-19.0808-7.5882Z" transform="translate(-74.6994 0)"/><polygon class="cls-5" points="60.808 100.251 55.777 94.807 46.363 105.407 55.777 108.616 60.808 100.251"/><path class="cls-6" d="M130.4768,108.6163l19.0808,7.5882,1.6958-7.6055a5.54,5.54,0,0,0-1.0328-.5729c-3.1065-1.2715-6.5376,1.2734-9.877.9341-2.9318-.298-5.1661-2.7367-6.7552-5.2184s-2.9143-5.26-5.276-7.022c-3.0429-2.2708-3.52,2.1958-4.657,3.328-1.3813,1.3761-3.7327.6714-5.4059-.33A22.8914,22.8914,0,0,1,110.557,92.11a1.11,1.11,0,0,0-.53,1.6877,17.1532,17.1532,0,0,0,3.0036,2.9489c-.2915.9627.4884,1.9372,1.1943,2.6733.6915.7212,5.3023,5.4589,6.3274,5.8552a1.9917,1.9917,0,0,0,.5229.117l-.0129.0146Z" transform="translate(-74.6994 0)"/><path class="cls-5" d="M98.3146,71.6123c.1618-2.058.3285-8.0227-.5414-9.7635a2.2467,2.2467,0,0,0-1.7021-1.3038q-.9417,4.9824-1.7474,9.9892Z" transform="translate(-74.6994 0)"/><path class="cls-6" d="M151.49,122.13c-4.2122-.7557-6.59-2.69-62.8727-28.0743-6.2914-3.5027-14.262.43-13.7424,7.48.3917,5.3138,7.8632,13.865,12.5426,17.2925,8.7525,6.4109,19.6771,7.38,30.424,8.3362a93.3749,93.3749,0,0,1,23.01,5.0342l7.57,2.6922c2.2091.3167,5.2281.852,5.7417-.87a3.5967,3.5967,0,0,0-.2535-1.8995c-.6487-2.4629.76-5.4268,3.2224-6.0772a3.9184,3.9184,0,0,0,1.0624-.34c.89-.54.8342-1.9162.25-2.7778a4.5112,4.5112,0,0,0-.6287-.7222C155.7247,121.9675,153.5692,122.5033,151.49,122.13Z" transform="translate(-74.6994 0)"/><path class="cls-9" d="M135.5077,104.1426a8.5268,8.5268,0,0,0,.7325-2.3984,4.5392,4.5392,0,0,0-.3233-2.4632l-2.2635-1.08a4.54,4.54,0,0,1,.3232,2.4632,8.5219,8.5219,0,0,1-.7325,2.3983" transform="translate(-74.6994 0)"/><path class="cls-9" d="M134.2033,107.0048a3.6143,3.6143,0,0,1-3.9556,1.9056l-2.0867-.99a3.6143,3.6143,0,0,0,3.9556-1.9056" transform="translate(-74.6994 0)"/><rect class="cls-2" x="131.4574" y="103.5771" width="4.3497" height="3.2992" rx="0.6271" ry="0.6271" transform="translate(-91.6544 184.3072) rotate(-65.9242)"/><path class="cls-10" d="M124.72,229.3574c.5439.1074,1.0225-.3489,1.3775-.7746a27.6541,27.6541,0,0,0,1.7155-2.2891,27.6135,27.6135,0,0,1-1.7155,2.289C125.742,229.0085,125.2634,229.4647,124.72,229.3574Z" transform="translate(-74.6994 0)"/><path class="cls-10" d="M121.2289,224.4082a5.9791,5.9791,0,0,1,1.2982.8582,5.9791,5.9791,0,0,0-1.2982-.8582Z" transform="translate(-74.6994 0)"/><path class="cls-10" d="M124.0771,228.83a4.926,4.926,0,0,1-.3289-1.3365A4.926,4.926,0,0,0,124.0771,228.83Z" transform="translate(-74.6994 0)"/><path class="cls-10" d="M122.5271,225.2664a3.5969,3.5969,0,0,1,1.1,1.6779A3.5969,3.5969,0,0,0,122.5271,225.2664Z" transform="translate(-74.6994 0)"/><path class="cls-10" d="M129.2847,223.8411c-.2058.3859-.4237.7649-.6472,1.1408C128.861,224.606,129.0789,224.227,129.2847,223.8411Z" transform="translate(-74.6994 0)"/><path class="cls-11" d="M116.29,249.9146c5.2462-.5808,7.0065-3.1633,9.1626-7.52,6.6188-13.3737,8.2669-15.9739,8.323-19.7525.0393-2.6558-.9676-5.1963-1.4812-7.8066a28.2464,28.2464,0,0,1-1.1259,4.6292,28.56,28.56,0,0,1-1.0424,2.6644q-.3916.87-.8409,1.7124c-.2058.3859-.4237.7649-.6472,1.1408-.264.4441-.5369.8829-.825,1.3118a27.6541,27.6541,0,0,1-1.7155,2.2891c-.355.4257-.8336.882-1.3775.7746a.9008.9008,0,0,1-.6424-.5275,4.926,4.926,0,0,1-.3289-1.3365c-.015-.09-.03-.18-.0468-.2654-.0193-.0976-.047-.1905-.0743-.2837a3.5969,3.5969,0,0,0-1.1-1.6779,5.9791,5.9791,0,0,0-1.2982-.8582,113.07,113.07,0,0,1-9.8282,17.9589c-1.2544,1.793-2.6651,3.8058-2.2782,5.9558a3.9248,3.9248,0,0,0,.1044.4255A12.7587,12.7587,0,0,0,116.29,249.9146Z" transform="translate(-74.6994 0)"/><path class="cls-12" d="M119.591,146.8122c1.4853,7.0206,8.142,12.3852,8.6236,19.5434.3207,4.768-2.1916,9.1979-4.1779,13.5493-6.8562,15.02-1.5075,20.3632.9149,26.3306l7.4774-.3619c1.4721-13.8239,7.2759-36.63,5.3451-54.48-.76-7.0229-2.2077-14.96-7.1029-20.3891-.207-.23-.4185-.4453-.6315-.6557C123.9982,131.1529,117.8537,138.6011,119.591,146.8122Z" transform="translate(-74.6994 0)"/><path class="cls-5" d="M125.9794,210.7054c.0813,2.8535-1.1048,5.5739-2.2677,8.1839-.82,1.8405-1.6427,3.6836-2.4828,5.5189a5.9791,5.9791,0,0,1,1.2982.8582,3.5969,3.5969,0,0,1,1.1,1.6779c.0273.0932.055.1861.0743.2837.0169.0852.0318.1751.0468.2654a4.926,4.926,0,0,0,.3289,1.3365.9008.9008,0,0,0,.6424.5275c.5439.1073,1.0225-.3489,1.3775-.7747a27.6135,27.6135,0,0,0,1.7155-2.289c.2881-.4289.561-.8677.825-1.3118.2235-.3759.4414-.7549.6472-1.1408q.449-.8417.8409-1.7124a28.56,28.56,0,0,0,1.0424-2.6644,28.2464,28.2464,0,0,0,1.1259-4.6292c.0225.1141.05.2275.0745.3414.0158-.1136.0288-.229.0463-.3414-.076-.3865-.1415-.7745-.1879-1.165a26.8708,26.8708,0,0,1-.07-4.4592l-6.3017.1566A10.75,10.75,0,0,1,125.9794,210.7054Z" transform="translate(-74.6994 0)"/><path class="cls-8" d="M131.168,219.4643a28.56,28.56,0,0,1-1.0424,2.6644A28.56,28.56,0,0,0,131.168,219.4643Z" transform="translate(-74.6994 0)"/><path class="cls-8" d="M130.1256,222.1287q-.3916.87-.8409,1.7124Q129.7337,222.9995,130.1256,222.1287Z" transform="translate(-74.6994 0)"/><path class="cls-8" d="M128.6375,224.9819c-.264.4441-.5369.8829-.825,1.3118C128.1006,225.8648,128.3735,225.426,128.6375,224.9819Z" transform="translate(-74.6994 0)"/><path class="cls-8" d="M123.6271,226.9443c.0273.0932.055.1861.0743.2837.0169.0851.0318.175.0468.2654-.015-.09-.03-.18-.0468-.2654C123.6821,227.13,123.6544,227.0375,123.6271,226.9443Z" transform="translate(-74.6994 0)"/><path class="cls-4" d="M125.8554,209.3675l6.3017-.1566q.0823-1.564.2719-3.3373l-7.4774.3619A13.9384,13.9384,0,0,1,125.8554,209.3675Z" transform="translate(-74.6994 0)"/><path class="cls-13" d="M118.5374,223.53c.0929.0184.1858.037.2779.0568.228.0491.459.1069.69.171-.2311-.0641-.4621-.1219-.69-.171C118.7232,223.5671,118.63,223.5485,118.5374,223.53Z" transform="translate(-74.6994 0)"/><path class="cls-13" d="M121.1769,224.3807c.0176.0087.0345.0186.052.0275h0C121.2113,224.3993,121.1945,224.3894,121.1769,224.3807Z" transform="translate(-74.6994 0)"/><path class="cls-13" d="M120.7979,224.2064c-.2112-.0908-.4275-.1717-.6455-.247C120.37,224.0347,120.5867,224.1157,120.7979,224.2064Z" transform="translate(-74.6994 0)"/><path class="cls-5" d="M111.4007,242.3671a113.07,113.07,0,0,0,9.8282-17.9589c-.0175-.0089-.0344-.0188-.052-.0275q-.1865-.0915-.379-.1743c-.2112-.0907-.4275-.1717-.6455-.247q-.3218-.1113-.647-.2015c-.2311-.0641-.4621-.1219-.69-.171-.0921-.02-.185-.0384-.2779-.0568a6.1013,6.1013,0,0,0-2.494-.0737l-.0273.005c-.5257,1.1768-1.0922,2.4918-1.6865,4.087-1.8361,4.9278-2.6087,10.6292-6.5021,14.1642-1.1029,1.0013-2.5655,2.162-2.21,3.6088.2442.9944,1.5465,2.412,3.61,3.427a3.9248,3.9248,0,0,1-.1044-.4255C108.7356,246.1729,110.1463,244.16,111.4007,242.3671Z" transform="translate(-74.6994 0)"/><path class="cls-4" d="M112.5562,138.8074c1.28,11.0944.1343,14.0483,5.3486,67.769l7.0468-.3409c-2.4224-5.9674-7.7711-11.311-.9149-26.3306,1.9863-4.3514,4.4986-8.7813,4.1779-13.5493-.4816-7.1582-7.1383-12.5228-8.6236-19.5434-1.7373-8.2111,4.4072-15.6593,10.4487-16.4633C122.46,122.8657,111.2443,127.4419,112.5562,138.8074Z" transform="translate(-74.6994 0)"/><path class="cls-6" d="M123.7117,218.8893c1.1629-2.61,2.349-5.33,2.2677-8.1839a10.75,10.75,0,0,0-.124-1.3379l-7.66.19c.0808.8246.1628,1.6576.2465,2.5052.5235,5.3-1.2,8.6586-2.4233,11.3964l.02-.0022.0049-.0009a6.1,6.1,0,0,1,2.494.0737c.0929.0184.1858.037.2779.0568.228.0491.459.1069.69.171q.3248.09.647.2015c.218.0753.4343.1562.6455.247q.1923.0828.379.1743c.0176.0087.0344.0186.052.0275C122.069,222.5729,122.8916,220.73,123.7117,218.8893Z" transform="translate(-74.6994 0)"/><path class="cls-13" d="M116.0434,223.4564a6.1013,6.1013,0,0,1,2.494.0737A6.1,6.1,0,0,0,116.0434,223.4564Z" transform="translate(-74.6994 0)"/><path class="cls-13" d="M120.1524,223.9594q-.3218-.1113-.647-.2015Q119.83,223.8479,120.1524,223.9594Z" transform="translate(-74.6994 0)"/><path class="cls-1" d="M124.9516,206.2355l-7.0468.3409q.1422,1.4649.2908,2.9815l7.66-.19A13.9384,13.9384,0,0,0,124.9516,206.2355Z" transform="translate(-74.6994 0)"/><path class="cls-11" d="M158.1949,125.7042a3.9167,3.9167,0,0,1-1.0625.34c-2.4624.65-3.8711,3.6144-3.2224,6.0773a3.5953,3.5953,0,0,1,.2535,1.8994c-.0138.0464-.0364.0849-.0538.128,1.7433,1.0237,3.6671,2.1522,5.8182,3.4094,4.8786,2.8513,7.9983,3.9018,12.272,2.145a18.11,18.11,0,0,0,5.0739-11.142c.212-2.8274-.8489-3.5877-2.59-3.9095-4.4346-.8194-9.0982-.2111-13.4157-1.5137a26.889,26.889,0,0,0-2.9436-.87c-.1689-.0305-.3392-.0445-.509-.0636a4.5161,4.5161,0,0,1,.6287.7222C159.0291,123.7881,159.0849,125.1641,158.1949,125.7042Z" transform="translate(-74.6994 0)"/><path class="cls-5" d="M154.11,134.149c.0174-.0431.04-.0816.0538-.128a3.5953,3.5953,0,0,0-.2535-1.8994c-.6487-2.4629.76-5.4269,3.2224-6.0773a3.9167,3.9167,0,0,0,1.0625-.34c.89-.54.8342-1.9161.2494-2.7777a4.5161,4.5161,0,0,0-.6287-.7222c-2.0909-.2368-4.2464.299-6.326-.0743-1.6868-.3025-3.083-.796-7.761-2.9069l-2.7147,7.3583C143.6954,128.0166,147.5689,130.3083,154.11,134.149Z" transform="translate(-74.6994 0)"/><path class="cls-12" d="M77.037,102.406c1.287,3.1373,4.7817,4.8364,8.1434,5.2817,5.889.78,14.8149-1.8505,19.2807,3.79a31.4632,31.4632,0,0,1,2.5063,4.6054,14.8531,14.8531,0,0,0,8.5257,6.9574c6.1641,1.9092,12.9452-.3735,19.2441,1.0284a17.9355,17.9355,0,0,1,3.4152,1.1032l2.5151-7.3443c-7.9187-3.6326-22.6056-10.4924-52.0507-23.7725A9.6582,9.6582,0,0,0,76.8994,95.587C76.4521,97.8818,76.16,100.2689,77.037,102.406Z" transform="translate(-74.6994 0)"/><path class="cls-4" d="M141.0139,126.5814l2.7147-7.3583c-.8922-.4025-1.905-.8645-3.0611-1.3949l-2.5151,7.3443C138.9692,125.5253,139.8886,125.979,141.0139,126.5814Z" transform="translate(-74.6994 0)"/><path class="cls-5" d="M159.9279,137.5584c-2.1511-1.2572-4.0749-2.3857-5.8182-3.4094-.6288,1.5589-3.5383,1.05-5.6879.7419l1.4855.5283a4.5555,4.5555,0,0,0,2.4868,1.9367,34.1086,34.1086,0,0,1,3.9973,1.2672c2.5761,1.315,4.0146,4.5076,6.819,5.2154,2.3253.5869,5.9811-1.0113,8.99-4.1351C167.9262,141.46,164.8065,140.41,159.9279,137.5584Z" transform="translate(-74.6994 0)"/><path class="cls-4" d="M74.8744,101.5358c.3917,5.3138,7.8632,13.8649,12.5426,17.2925,8.7526,6.4109,19.6772,7.38,30.4241,8.3362a93.2961,93.2961,0,0,1,18.4156,3.5437l1.8957-5.5357a17.9355,17.9355,0,0,0-3.4152-1.1032c-6.2989-1.4019-13.08.8808-19.2441-1.0284a14.8531,14.8531,0,0,1-8.5257-6.9574,31.4632,31.4632,0,0,0-2.5063-4.6054c-4.4658-5.6409-13.3917-3.01-19.2807-3.79-3.3617-.4453-6.8564-2.1444-8.1434-5.2817-.8768-2.1371-.5849-4.5242-.1376-6.819A7.7424,7.7424,0,0,0,74.8744,101.5358Z" transform="translate(-74.6994 0)"/><path class="cls-1" d="M138.1524,125.1725l-1.8957,5.5357q1.4553.4345,2.8966.9165l1.8606-5.0433C139.8886,125.979,138.9692,125.5253,138.1524,125.1725Z" transform="translate(-74.6994 0)"/><path class="cls-5" d="M115.2583,68.7485a1.2493,1.2493,0,0,0-1.3468-1.0655l-6.7218.5957a20.8641,20.8641,0,0,0-3.2883.559l-5.5565,1.409c8.4075-3.2981,12.15-1.7025,13.705-4.4482.127-.2242.1946-.5606-.0244-.6961a45.3117,45.3117,0,0,0-11.0692.9478,46.2561,46.2561,0,0,0-6.3531,2.295,4.2983,4.2983,0,0,0-2.095,2.3485,7.773,7.773,0,0,0-.2031,1.2321,3.964,3.964,0,0,0,.3192,2.0806c1.0947,2.1675,4.66,2.1436,5.6237,4.3725.7291,1.6863-.5311,3.5731-1.9476,4.7431-2.0007,1.6526-4.5752,2.8876-5.595,5.2738-.0118.0275-.02.0561-.031.0838a7.7277,7.7277,0,0,0,5.6771-1.8053,19.6042,19.6042,0,0,0,4.3234-5.3L105.3232,79.2a19.1781,19.1781,0,0,0,5.1841-3.5641l3.5711-3.4426A3.991,3.991,0,0,0,115.2583,68.7485Z" transform="translate(-74.6994 0)"/><path class="cls-6" d="M96.3,83.122c1.4165-1.17,2.6767-3.0568,1.9476-4.7431-.9637-2.2289-4.529-2.205-5.6237-4.3725a3.964,3.964,0,0,1-.3192-2.0806,7.773,7.773,0,0,1,.2031-1.2321A28.1918,28.1918,0,0,0,91.4171,74.3c-1.2079,3.9814-3.5059,7.8342-4.252,11.9274A4.33,4.33,0,0,0,90.6744,88.48c.0112-.0277.0192-.0563.031-.0838C91.7252,86.01,94.3,84.7746,96.3,83.122Z" transform="translate(-74.6994 0)"/><path class="cls-4" d="M122.0037,9.9556a5.4362,5.4362,0,0,0,.2772-.8321,4.3437,4.3437,0,0,0-.5516-3.46A6.7842,6.7842,0,0,0,120.14,4.16,20.0165,20.0165,0,0,0,112.8949.43C110.8976-.038,109.45-.0312,102.7264.0285c-1.57,1.4005-1.5878,3.9309,1.5911,4.58a21.3583,21.3583,0,0,1,3.46.7335,3.3779,3.3779,0,0,1,2.2849,2.4821c.123.9348-.6431,2.8306,1.4634,3.6914A17.8127,17.8127,0,0,0,122.0037,9.9556Z" transform="translate(-74.6994 0)"/><path class="cls-1" d="M110.0621,7.8238a3.3779,3.3779,0,0,0-2.2849-2.4821,21.3583,21.3583,0,0,0-3.46-.7335c-3.1789-.6488-3.1616-3.1792-1.5911-4.58-1.1855.0106-2.5315.0227-4.0771.0342.5845,1.8241.6956,5.2889,5.6308,8.6224a17.7757,17.7757,0,0,0,7.2454,2.83C109.419,10.6544,110.1851,8.7586,110.0621,7.8238Z" transform="translate(-74.6994 0)"/></svg>