<?xml version="1.0" encoding="utf-8"?>
<!-- Generator: Adobe Illustrator 15.0.2, SVG Export Plug-In . SVG Version: 6.00 Build 0)  -->
<!DOCTYPE svg PUBLIC "-//W3C//DTD SVG 1.1//EN" "http://www.w3.org/Graphics/SVG/1.1/DTD/svg11.dtd">
<svg version="1.1" id="Layer_1" xmlns="http://www.w3.org/2000/svg" xmlns:xlink="http://www.w3.org/1999/xlink" x="0px" y="0px"
	 width="162px" height="100.667px" viewBox="0 0 162 100.667" enable-background="new 0 0 162 100.667" xml:space="preserve">
<polygon fill="#F15A57" points="11.5,2.334 4,2.334 28,50.334 35.5,50.334 "/>
<polygon fill="none" stroke="#010101" stroke-width="2" stroke-miterlimit="10" points="11.5,2.334 4,2.334 28,50.334 35.5,50.334 
	"/>
<polygon fill="#53A3DA" points="44,67.334 35.5,50.334 28,50.334 44,82.334 47.75,74.834 "/>
<polygon fill="none" stroke="#010101" stroke-width="2" stroke-miterlimit="10" points="44,67.334 35.5,50.334 28,50.334 44,82.334 
	47.75,74.834 "/>
<polygon fill="#53A3DA" points="119,67.334 115.25,74.834 119,82.334 135,50.334 127.5,50.334 "/>
<polygon fill="none" stroke="#010101" stroke-width="2" stroke-miterlimit="10" points="119,67.334 115.25,74.834 119,82.334 
	135,50.334 127.5,50.334 "/>
<polygon fill="#F15A57" points="151.5,2.334 127.5,50.334 135,50.334 159,2.334 "/>
<polygon fill="none" stroke="#010101" stroke-width="2" stroke-miterlimit="10" points="151.5,2.334 127.5,50.334 135,50.334 
	159,2.334 "/>
<polygon fill="#426EB5" points="51.5,82.334 47.75,74.834 44,82.334 51.5,97.334 59,82.334 55.25,74.834 "/>
<polygon fill="none" stroke="#010101" stroke-width="2" stroke-miterlimit="10" points="51.5,82.334 47.75,74.834 44,82.334 
	51.5,97.334 59,82.334 55.25,74.834 "/>
<polygon fill="#426EB5" points="111.5,82.334 107.75,74.834 104,82.334 111.5,97.334 119,82.334 115.25,74.834 "/>
<polygon fill="none" stroke="#010101" stroke-width="2" stroke-miterlimit="10" points="111.5,82.334 107.75,74.834 104,82.334 
	111.5,97.334 119,82.334 115.25,74.834 "/>
<polygon fill="#F15A57" points="85.25,29.834 81.5,22.334 77.75,29.834 67.5,50.334 75,50.334 81.5,37.334 88,50.334 95.5,50.334 
	"/>
<polygon fill="none" stroke="#010101" stroke-width="2" stroke-miterlimit="10" points="85.25,29.834 81.5,22.334 77.75,29.834 
	67.5,50.334 75,50.334 81.5,37.334 88,50.334 95.5,50.334 "/>
<polygon fill="#53A3DA" points="59,67.334 55.25,74.834 59,82.334 75,50.334 67.5,50.334 "/>
<polygon fill="none" stroke="#010101" stroke-width="2" stroke-miterlimit="10" points="59,67.334 55.25,74.834 59,82.334 
	75,50.334 67.5,50.334 "/>
<polygon fill="#53A3DA" points="104,67.334 95.5,50.334 88,50.334 104,82.334 107.75,74.834 "/>
<polygon fill="none" stroke="#010101" stroke-width="2" stroke-miterlimit="10" points="104,67.334 95.5,50.334 88,50.334 
	104,82.334 107.75,74.834 "/>
<polygon fill="#F15A57" points="43,50.334 19,2.334 11.5,2.334 35.5,50.334 "/>
<polygon fill="none" stroke="#010101" stroke-width="2" stroke-miterlimit="10" points="43,50.334 19,2.334 11.5,2.334 35.5,50.334 
	"/>
<polygon fill="#53A3DA" points="44,67.334 47.75,74.834 51.5,82.334 55.25,74.834 59,67.334 67.5,50.334 60,50.334 55.25,59.834 
	51.5,67.334 47.75,59.834 43,50.334 35.5,50.334 "/>
<polygon fill="none" stroke="#010101" stroke-width="2" stroke-miterlimit="10" points="44,67.334 47.75,74.834 51.5,82.334 
	55.25,74.834 59,67.334 67.5,50.334 60,50.334 55.25,59.834 51.5,67.334 47.75,59.834 43,50.334 35.5,50.334 "/>
<polygon fill="#53A3DA" points="104,67.334 107.75,74.834 111.5,82.334 115.25,74.834 119,67.334 127.5,50.334 120,50.334 
	115.25,59.834 111.5,67.334 107.75,59.834 103,50.334 95.5,50.334 "/>
<polygon fill="none" stroke="#010101" stroke-width="2" stroke-miterlimit="10" points="104,67.334 107.75,74.834 111.5,82.334 
	115.25,74.834 119,67.334 127.5,50.334 120,50.334 115.25,59.834 111.5,67.334 107.75,59.834 103,50.334 95.5,50.334 "/>
<polygon fill="#F15A57" points="151.5,2.334 144,2.334 120,50.334 127.5,50.334 "/>
<polygon fill="none" stroke="#010101" stroke-width="2" stroke-miterlimit="10" points="151.5,2.334 144,2.334 120,50.334 
	127.5,50.334 "/>
<polygon fill="#F15A57" points="89,22.334 85.25,14.834 81.5,7.334 77.75,14.834 74,22.334 60,50.334 67.5,50.334 77.75,29.834 
	81.5,22.334 85.25,29.834 95.5,50.334 103,50.334 "/>
<polygon fill="none" stroke="#010101" stroke-width="2" stroke-miterlimit="10" points="89,22.334 85.25,14.834 81.5,7.334 
	77.75,14.834 74,22.334 60,50.334 67.5,50.334 77.75,29.834 81.5,22.334 85.25,29.834 95.5,50.334 103,50.334 "/>
</svg>
