<svg id="Layer_1" data-name="Layer 1" xmlns="http://www.w3.org/2000/svg" viewBox="0 0 441.46 144.89"><defs><style>.cls-1{fill:#e8383d;}.cls-2{fill:#382986;}</style></defs><path class="cls-1" d="M47.92,57.49v16a6,6,0,0,1-6,6h0a6,6,0,0,1-6-6v-16a6,6,0,0,1,6-6h0A6,6,0,0,1,47.92,57.49Z"/><path class="cls-1" d="M107.92,57.49v16a6,6,0,0,1-6,6h0a6,6,0,0,1-6-6v-16a6,6,0,0,1,6-6h0A6,6,0,0,1,107.92,57.49Z"/><path class="cls-1" d="M77.92,57.49v45a6,6,0,0,1-6,6h0a6,6,0,0,1-6-6v-45a6,6,0,0,1,6-6h0A6,6,0,0,1,77.92,57.49Z"/><path class="cls-1" d="M62.92,42.49v45a6,6,0,0,1-6,6h0a6,6,0,0,1-6-6v-45a6,6,0,0,1,6-6h0A6,6,0,0,1,62.92,42.49Z"/><path class="cls-1" d="M92.92,42.49v45a6,6,0,0,1-6,6h0a6,6,0,0,1-6-6v-45a6,6,0,0,1,6-6h0A6,6,0,0,1,92.92,42.49Z"/><path class="cls-2" d="M119.83,61.32V44.53c0-5.43,4.18-8.46,9.47-8.46,4.93,0,8.79,2.85,8.79,7.91v3.63H132.2V44.53a2.69,2.69,0,0,0-2.9-2.85,2.66,2.66,0,0,0-2.89,3V61.05c0,2,1,3.12,2.94,3.12a2.7,2.7,0,0,0,2.85-2.85v-3h5.89v3.36c0,5.15-3.82,8.19-8.83,8.19C123.83,69.88,119.83,67.07,119.83,61.32Z"/><path class="cls-2" d="M146.28,36.52h8.83l6.4,32.85h-6.58L153.59,62h-6.67l-1.33,7.36h-6Zm6.25,20.25-2.16-12.93h-.14L148,56.77Z"/><path class="cls-2" d="M164.4,36.57h9.43c5.52,0,8.88,3,8.88,9.71,0,4.74-1.52,7.4-3.82,8.65l4.23,14.44h-6.71l-3.36-13h-2.16v13H164.4Zm8.88,15c1.84,0,2.94-1.29,2.94-4.83,0-3.08-1-4.74-3-4.74h-2.34v9.57Z"/><path class="cls-2" d="M186.3,36.57h9.47c5,0,9,2.58,9,7.91V61.05c0,5.7-4,8.32-9,8.32H186.3Zm8.88,27.24a2.83,2.83,0,0,0,3-3.13V45.08a2.79,2.79,0,0,0-3.09-3h-2.34V63.81Z"/><path class="cls-2" d="M208.38,36.57h6.48v32.8h-6.48Z"/><path class="cls-2" d="M218.5,60.91V45c0-5.84,4.09-8.92,9.52-8.92s9.48,2.76,9.48,8.83V60.82c0,6.11-4.24,9.06-9.53,9.06C222.36,69.88,218.5,67,218.5,60.91Zm12.46.14V44.71a2.78,2.78,0,0,0-3-3,2.71,2.71,0,0,0-2.9,3V61a3,3,0,1,0,5.89,0Z"/><path class="cls-2" d="M239.06,36.57h6.44L249,57.73h.18l3.55-21.16h5.84l-6.3,32.94h-6.86Z"/><path class="cls-2" d="M264.63,36.52h8.84l6.39,32.85h-6.58L272,62h-6.67l-1.34,7.36h-6Zm6.26,20.25-2.16-12.93h-.14l-2.25,12.93Z"/><path class="cls-2" d="M280.55,60.4l6.07-.18c.19,2,.65,4.37,2.95,4.37,1.84,0,2.39-1.57,2.39-3,0-1.79-1.15-3.13-3-4.92l-3.13-3.08c-2.94-2.76-4.73-5.48-4.73-9.07,0-4.55,2.85-8.46,8.69-8.46,4.09,0,7.91,2.11,8.19,9.29l-5.71.19c-.23-2.4-.78-4.28-2.8-4.28-1.61,0-2.35,1.24-2.35,2.76,0,1.75,1.8,3.4,3.36,4.87l2.9,2.86c3.17,3,5,5.84,5,9.52,0,4.83-3.32,8.65-8.79,8.65S280.87,66.24,280.55,60.4Z"/><path class="cls-2" d="M301.16,61.32V44.53c0-5.43,4.18-8.46,9.47-8.46,4.93,0,8.79,2.85,8.79,7.91v3.63h-5.89V44.53a2.69,2.69,0,0,0-2.9-2.85,2.66,2.66,0,0,0-2.89,3V61.05c0,2,1.05,3.12,2.94,3.12a2.7,2.7,0,0,0,2.85-2.85v-3h5.89v3.36c0,5.15-3.82,8.19-8.83,8.19C305.16,69.88,301.16,67.07,301.16,61.32Z"/><path class="cls-2" d="M322.64,61.18V36.57h6.53V61c0,2.17,1.24,3.27,2.95,3.27s2.85-1.29,2.8-3.27V36.57h6.21V61c0,5.75-4.09,8.88-9.43,8.88C326.09,69.88,322.64,67.12,322.64,61.18Z"/><path class="cls-2" d="M345,36.57h6.44V63.81h9.38v5.56H345Z"/><path class="cls-2" d="M369.24,36.52h8.83l6.39,32.85h-6.57L376.55,62h-6.67l-1.33,7.36h-6Zm6.25,20.25-2.16-12.93h-.14l-2.25,12.93Z"/><path class="cls-2" d="M386.9,36.57h9.43c5.52,0,8.88,3,8.88,9.71,0,4.74-1.52,7.4-3.82,8.65l4.23,14.44h-6.71l-3.36-13h-2.16v13H386.9Zm8.88,15c1.84,0,2.94-1.29,2.94-4.83,0-3.08-1-4.74-3-4.74h-2.34v9.57Z"/><path class="cls-2" d="M119.82,75.7h6.49V89H132V75.7h6.48v32.8H132V94.88h-5.71V108.5h-6.49Z"/><path class="cls-2" d="M142.41,75.7h15.78v5.47h-9.34V88.9h7.41v5.52h-7.41v8.51h9.39v5.57H142.41Z"/><path class="cls-2" d="M167.25,75.65h8.83l6.4,32.85H175.9l-1.33-7.36H167.9l-1.34,7.36h-6Zm6.26,20.25L171.35,83h-.14L169,95.9Z"/><path class="cls-2" d="M185.37,75.7h6.44v27.23h9.39v5.57H185.37Z"/><path class="cls-2" d="M206.12,81.17h-6.21V75.7h18.91v5.47h-6.17V108.5h-6.53Z"/><path class="cls-2" d="M221.62,75.7h6.49V89h5.7V75.7h6.49v32.8h-6.49V94.88h-5.7V108.5h-6.49Z"/></svg>