<svg id="Layer_1" data-name="Layer 1" xmlns="http://www.w3.org/2000/svg" viewBox="0 0 252.09 72.64"><defs><style>.cls-1{fill:#e8383d;}.cls-2{fill:#f3775c;}.cls-3{fill:#fcba24;}.cls-4{fill:#85bd40;}.cls-5{fill:#40bd52;}.cls-6{fill:#382986;}</style></defs><path class="cls-1" d="M42.44,108.19h0a6,6,0,0,0,6-6h0a6,6,0,0,0-6-6h0a6,6,0,0,0-6,6h0A6,6,0,0,0,42.44,108.19Z" transform="translate(-36.44 -36.19)"/><path class="cls-2" d="M57.44,93.19h0a6,6,0,0,0,6-6h0a6,6,0,0,0-6-6h0a6,6,0,0,0-6,6h0A6,6,0,0,0,57.44,93.19Z" transform="translate(-36.44 -36.19)"/><path class="cls-3" d="M72.44,78.19h0a6,6,0,0,0,6-6h0a6,6,0,0,0-6-6h0a6,6,0,0,0-6,6h0A6,6,0,0,0,72.44,78.19Z" transform="translate(-36.44 -36.19)"/><path class="cls-4" d="M87.44,63.19h0a6,6,0,0,0,6-6h0a6,6,0,0,0-6-6h0a6,6,0,0,0-6,6h0A6,6,0,0,0,87.44,63.19Z" transform="translate(-36.44 -36.19)"/><path class="cls-5" d="M102.44,48.19h0a6,6,0,0,0,6-6h0a6,6,0,0,0-6-6h0a6,6,0,0,0-6,6h0A6,6,0,0,0,102.44,48.19Z" transform="translate(-36.44 -36.19)"/><path class="cls-5" d="M102.44,63.19h0a6,6,0,0,0,6-6h0a6,6,0,0,0-6-6h0a6,6,0,0,0-6,6h0A6,6,0,0,0,102.44,63.19Z" transform="translate(-36.44 -36.19)"/><path class="cls-4" d="M87.44,78.19h0a6,6,0,0,0,6-6h0a6,6,0,0,0-6-6h0a6,6,0,0,0-6,6h0A6,6,0,0,0,87.44,78.19Z" transform="translate(-36.44 -36.19)"/><path class="cls-3" d="M72.44,93.19h0a6,6,0,0,0,6-6h0a6,6,0,0,0-6-6h0a6,6,0,0,0-6,6h0A6,6,0,0,0,72.44,93.19Z" transform="translate(-36.44 -36.19)"/><path class="cls-2" d="M57.44,108.19h0a6,6,0,0,0,6-6h0a6,6,0,0,0-6-6h0a6,6,0,0,0-6,6h0A6,6,0,0,0,57.44,108.19Z" transform="translate(-36.44 -36.19)"/><path class="cls-5" d="M102.44,78.19h0a6,6,0,0,0,6-6h0a6,6,0,0,0-6-6h0a6,6,0,0,0-6,6h0A6,6,0,0,0,102.44,78.19Z" transform="translate(-36.44 -36.19)"/><path class="cls-4" d="M87.44,93.19h0a6,6,0,0,0,6-6h0a6,6,0,0,0-6-6h0a6,6,0,0,0-6,6h0A6,6,0,0,0,87.44,93.19Z" transform="translate(-36.44 -36.19)"/><path class="cls-3" d="M72.44,108.19h0a6,6,0,0,0,6-6h0a6,6,0,0,0-6-6h0a6,6,0,0,0-6,6h0A6,6,0,0,0,72.44,108.19Z" transform="translate(-36.44 -36.19)"/><path class="cls-5" d="M102.44,93.19h0a6,6,0,0,0,6-6h0a6,6,0,0,0-6-6h0a6,6,0,0,0-6,6h0A6,6,0,0,0,102.44,93.19Z" transform="translate(-36.44 -36.19)"/><path class="cls-4" d="M87.44,108.19h0a6,6,0,0,0,6-6h0a6,6,0,0,0-6-6h0a6,6,0,0,0-6,6h0A6,6,0,0,0,87.44,108.19Z" transform="translate(-36.44 -36.19)"/><path class="cls-5" d="M102.44,108.19h0a6,6,0,0,0,6-6h0a6,6,0,0,0-6-6h0a6,6,0,0,0-6,6h0A6,6,0,0,0,102.44,108.19Z" transform="translate(-36.44 -36.19)"/><path class="cls-6" d="M120.58,36.29h9.94c5.38,0,8,3.54,8,10,0,6.71-2.53,10.81-8.28,10.81h-3.23v12h-6.48Zm8.74,15.55c1.93,0,2.9-1.75,2.9-5.39,0-3.22-.83-4.78-2.85-4.78h-2.31V51.84Z" transform="translate(-36.44 -36.19)"/><path class="cls-6" d="M141.14,36.29h9.43c5.52,0,8.88,3,8.88,9.7,0,4.74-1.52,7.41-3.82,8.65l4.23,14.45h-6.71l-3.36-13h-2.16v13h-6.49Zm8.88,15c1.84,0,2.94-1.29,2.94-4.83,0-3.09-1-4.74-3-4.74h-2.34v9.57Z" transform="translate(-36.44 -36.19)"/><path class="cls-6" d="M163,36.29h15.78v5.47h-9.34v7.73h7.4V55h-7.4v8.51h9.38v5.57H163Z" transform="translate(-36.44 -36.19)"/><path class="cls-6" d="M180.56,36.29H187l3.55,21.16h.18l3.54-21.16h5.84l-6.3,32.94H187Z" transform="translate(-36.44 -36.19)"/><path class="cls-6" d="M202.37,36.29h15.78v5.47h-9.34v7.73h7.4V55h-7.4v8.51h9.38v5.57H202.37Z" transform="translate(-36.44 -36.19)"/><path class="cls-6" d="M221.59,36.29h6.63l6.9,17.52h.14V36.29H241v32.8h-5.84l-7.69-19.65h-.13V69.09h-5.76Z" transform="translate(-36.44 -36.19)"/><path class="cls-6" d="M250,41.76h-6.21V36.29h18.91v5.47h-6.16V69.09H250Z" transform="translate(-36.44 -36.19)"/><path class="cls-6" d="M120.54,75.52h15.78V81H127v7.73h7.41v5.52H127v8.51h9.38v5.57H120.54Z" transform="translate(-36.44 -36.19)"/><path class="cls-6" d="M139.77,75.52h9.93c5.39,0,8.06,3.54,8.06,10,0,6.71-2.54,10.81-8.29,10.81h-3.22v12h-6.48Zm8.74,15.55c1.93,0,2.9-1.75,2.9-5.39,0-3.22-.83-4.78-2.86-4.78h-2.3V91.07Z" transform="translate(-36.44 -36.19)"/><path class="cls-6" d="M160.6,75.52h6.49v32.8H160.6Z" transform="translate(-36.44 -36.19)"/><path class="cls-6" d="M171.23,75.52h9.48c5,0,9,2.57,9,7.91V100c0,5.71-4,8.33-9,8.33h-9.43Zm8.88,27.23a2.82,2.82,0,0,0,3-3.13V84A2.78,2.78,0,0,0,180,81h-2.35v21.71Z" transform="translate(-36.44 -36.19)"/><path class="cls-6" d="M193,75.52h15.78V81h-9.34v7.73h7.41v5.52h-7.41v8.51h9.38v5.57H193Z" transform="translate(-36.44 -36.19)"/><path class="cls-6" d="M212.22,75.52h8.28L224,88.58h.14l3.68-13.06h7.91v32.8H230v-23h-.09l-3.68,14h-4.46L218,85.32h-.09v23h-5.7Z" transform="translate(-36.44 -36.19)"/><path class="cls-6" d="M239.68,75.52h6.48v32.8h-6.48Z" transform="translate(-36.44 -36.19)"/><path class="cls-6" d="M249.93,100.27V83.48c0-5.43,4.19-8.47,9.48-8.47,4.92,0,8.79,2.85,8.79,7.91v3.64h-5.89V83.48a2.7,2.7,0,0,0-2.9-2.86,2.67,2.67,0,0,0-2.9,3V100c0,2,1.06,3.13,2.95,3.13a2.7,2.7,0,0,0,2.85-2.85v-3h5.89v3.35c0,5.16-3.82,8.19-8.83,8.19C253.94,108.82,249.93,106,249.93,100.27Z" transform="translate(-36.44 -36.19)"/><path class="cls-6" d="M270.77,99.35l6.08-.19c.18,2,.64,4.37,2.94,4.37,1.84,0,2.39-1.56,2.39-3,0-1.8-1.15-3.13-3-4.93L276,92.49c-2.95-2.76-4.74-5.47-4.74-9.06,0-4.56,2.85-8.47,8.69-8.47,4.1,0,7.92,2.12,8.19,9.3l-5.7.18c-.23-2.39-.78-4.28-2.81-4.28-1.61,0-2.34,1.24-2.34,2.76,0,1.75,1.79,3.41,3.35,4.88l2.9,2.85c3.18,3,5,5.84,5,9.52,0,4.84-3.31,8.65-8.79,8.65S271.09,105.19,270.77,99.35Z" transform="translate(-36.44 -36.19)"/></svg>