<svg id="Layer_1" data-name="Layer 1" xmlns="http://www.w3.org/2000/svg" viewBox="0 0 332.49 144.89"><defs><style>.cls-1{fill:#382986;}.cls-2{fill:#f3775c;}</style></defs><rect class="cls-1" x="35.45" y="96.42" width="12" height="12" rx="5.79"/><path class="cls-2" d="M71.66,66.42H41.24a5.79,5.79,0,0,0-5.79,5.79v.42a5.79,5.79,0,0,0,5.79,5.79H65.45v24.21a5.79,5.79,0,0,0,5.79,5.79h.42a5.79,5.79,0,0,0,5.79-5.79V72.21A5.79,5.79,0,0,0,71.66,66.42Z"/><path class="cls-2" d="M101.66,36.42H41.24a5.79,5.79,0,0,0-5.79,5.79v.42a5.79,5.79,0,0,0,5.79,5.79H95.45v54.21a5.79,5.79,0,0,0,5.79,5.79h.42a5.79,5.79,0,0,0,5.79-5.79V42.21A5.79,5.79,0,0,0,101.66,36.42Z"/><path class="cls-1" d="M119.4,36.47h11.87c6.94,0,11.17,3.82,11.17,12.21,0,6-1.91,9.32-4.81,10.88L143,77.73h-8.45l-4.23-16.38h-2.72V77.73H119.4Zm11.17,18.81c2.32,0,3.71-1.62,3.71-6.08,0-3.88-1.22-6-3.77-6h-2.95v12Z"/><path class="cls-1" d="M147,36.47H166.8v6.88H155.05v9.73h9.32V60h-9.32V70.73h11.81v7H147Z"/><path class="cls-1" d="M168.88,66.45l7.64-.24c.23,2.55.81,5.5,3.7,5.5,2.32,0,3-2,3-3.82,0-2.25-1.44-3.93-3.82-6.19l-3.93-3.88c-3.71-3.47-6-6.88-6-11.4,0-5.73,3.59-10.65,10.94-10.65,5.15,0,9.95,2.66,10.3,11.69l-7.18.23c-.29-3-1-5.38-3.53-5.38-2,0-3,1.56-3,3.47,0,2.2,2.26,4.29,4.22,6.14L185,55.51c4,3.82,6.25,7.35,6.25,12,0,6.08-4.17,10.88-11.05,10.88S169.29,73.8,168.88,66.45Z"/><path class="cls-1" d="M194.8,67.08v-20c0-7.35,5.16-11.23,12-11.23,6.65,0,11.92,3.47,11.92,11.11V67c0,7.69-5.33,11.4-12,11.4C199.67,78.37,194.8,74.78,194.8,67.08Zm15.69.18V46.71A3.5,3.5,0,0,0,206.73,43c-2.43,0-3.65,1.5-3.65,3.82V67.2c0,2.31,1.27,4,3.71,4S210.49,69.51,210.49,67.26Z"/><path class="cls-1" d="M223.28,36.47h8.1V70.73h11.81v7H223.28Z"/><path class="cls-1" d="M242,36.47h8.11l4.45,26.62h.24l4.45-26.62h7.35l-7.93,41.44h-8.62Z"/><path class="cls-1" d="M269.46,36.47h19.85v6.88H277.56v9.73h9.32V60h-9.32V70.73h11.8v7h-19.9Z"/><path class="cls-1" d="M124,87.62h-4.74V83.45h14.41v4.17H129v20.83h-5Z"/><path class="cls-1" d="M135.12,102V89.86c0-4.45,3.12-6.8,7.26-6.8s7.22,2.11,7.22,6.73v12.14c0,4.66-3.23,6.9-7.26,6.9C138.06,108.83,135.12,106.66,135.12,102Zm9.5.1V89.65a2.12,2.12,0,0,0-2.28-2.28,2.07,2.07,0,0,0-2.21,2.32v12.38a2.25,2.25,0,1,0,4.49,0Z"/><path class="cls-1" d="M157,101.61l4.63-.14c.14,1.54.49,3.33,2.24,3.33,1.4,0,1.83-1.19,1.83-2.31,0-1.37-.88-2.39-2.32-3.75L161,96.39c-2.25-2.11-3.61-4.18-3.61-6.91C157.35,86,159.52,83,164,83c3.12,0,6,1.61,6.24,7.08l-4.34.14c-.18-1.82-.6-3.26-2.14-3.26-1.23,0-1.79,1-1.79,2.1,0,1.34,1.37,2.6,2.56,3.72L166.71,95c2.42,2.32,3.78,4.46,3.78,7.26a6.34,6.34,0,0,1-6.69,6.59C159.62,108.83,157.21,106.06,157,101.61Z"/><path class="cls-1" d="M176.91,83.41h6.73l4.88,25h-5l-1-5.61H177.4l-1,5.61h-4.56Zm4.77,15.43L180,89h-.11l-1.71,9.85Z"/><path class="cls-1" d="M188,83.45h4.91l2.7,16.13h.14l2.7-16.13h4.45l-4.8,25.1H192.9Z"/><path class="cls-1" d="M204.64,83.45h12v4.17h-7.12v5.89h5.64v4.21h-5.64v6.49h7.15v4.24H204.64Z"/><path class="cls-1" d="M224.48,83.45h4.91v20.76h7.15v4.24H224.48Z"/><path class="cls-1" d="M238.86,83.45h4.94v25h-4.94Z"/><path class="cls-1" d="M245.52,83.45h4.91l2.7,16.13h.14L256,83.45h4.45l-4.8,25.1h-5.23Z"/><path class="cls-1" d="M262.13,83.45h12v4.17H267v5.89h5.65v4.21H267v6.49h7.16v4.24H262.13Z"/><path class="cls-1" d="M275.74,101.61l4.63-.14c.14,1.54.49,3.33,2.24,3.33,1.4,0,1.82-1.19,1.82-2.31,0-1.37-.87-2.39-2.31-3.75l-2.38-2.35c-2.25-2.11-3.62-4.18-3.62-6.91,0-3.47,2.18-6.45,6.63-6.45,3.12,0,6,1.61,6.24,7.08l-4.35.14c-.17-1.82-.59-3.26-2.13-3.26-1.23,0-1.79,1-1.79,2.1,0,1.34,1.36,2.6,2.56,3.72L285.49,95c2.42,2.32,3.78,4.46,3.78,7.26a6.34,6.34,0,0,1-6.69,6.59C278.4,108.83,276,106.06,275.74,101.61Z"/></svg>