<svg xmlns="http://www.w3.org/2000/svg" viewBox="0 0 1000 436.1"><path d="M842.5 391.4l-66.2-8.8 6.3 17h.1c.1.8.5 1.7 1.1 2.6 4.3 6.5 19.9 12 34.5 12 10.1 0 16.4-2.7 17.4-6.4l6.8-16.4z" fill="#57a296"/><path d="M782.5 399.6c.2.8.5 1.7 1.1 2.6 2.4 3.6 8.4 7 15.8 9.2l-1.8-16.1-4.1-10.4-17.2-2.3 6.2 17z" fill="#3e7971"/><path d="M842.6 388.6l-7.1-71.6-53-3.9-6.3 66.2c-.3.8-.4 1.6-.2 2.5.2.8.5 1.7 1.2 2.6 5.2 7.5 24.9 14 43.6 14 15 0 23.3-4.2 21.8-9.8z" fill="#70caba"/><path d="M801.9 314.6l-19.4-1.4-6.3 66.2c-.3.8-.4 1.6-.2 2.5.2.8.5 1.7 1.2 2.6 3 4.3 10.8 8.3 20.3 10.9l4.4-80.8z" fill="#57a296"/><path d="M800 308.9c13 0 27.8 2.6 33.4 5.9 6 3.6-.7 6.7-15.3 6.7-14.6 0-30.2-3.1-34.5-6.7-4.1-3.3 3.4-5.9 16.4-5.9" fill="#3e7971"/><path d="M813.3 321.4c1.6.1 3.2.1 4.8.1 14.6 0 21.3-3.1 15.3-6.7-3.7-2.2-11.6-4.1-20.2-5.1l.1 11.7z" fill="#315851"/><path d="M536.8 380.2c.9-8.3-10.8-14.5-29.7-14.5-23.9 0-51.3 8.2-63.7 19.3-13.8 12.4-4.7 23.2 24.9 23.2 28.1 0 51.4-10.2 58.8-16.3h27.1c-17.3 20.4-67.8 33-102.1 33-38.8 0-65.5-16.8-34.9-39.9 23-17.5 64.2-28.4 98.2-28.4 28.8 0 50 9.1 46.2 23.6h-24.8z" opacity=".21" fill-rule="evenodd" clip-rule="evenodd" fill="#b90920"/><path d="M536.8 364.1c.9-7.6-10.8-13.2-29.7-13.2-23.9 0-51.3 7.5-63.7 17.5-13.8 11.2-4.7 21 24.9 21 28.1 0 51.4-9.2 58.8-14.8h27.1c-17.3 18.5-67.8 30-102.1 30-38.8 0-65.5-15.2-34.9-36.2 23-15.8 64.2-25.8 98.2-25.8 28.8 0 50 8.3 46.2 21.4h-24.8v.1z" opacity=".41" fill-rule="evenodd" clip-rule="evenodd" fill="#ff791e"/><path d="M437.6 398.4c-1.5-3.6.1-7.9 4.7-12.4v-22.3l-15.2 4.6v10.2c-3.6 2-6.9 4.2-9.9 6.5-1.8 1.3-3.3 2.7-4.7 4l-8.5-2.6v17c-.7 11.5 15.7 19.4 38.3 21.2v-26.2h-4.7z" fill="#b9833a"/><path d="M545.3 360.8c-1.3-.5-2.7-.9-4.2-1.3v-7l-4.4-.5v25.9c.1.8.2 1.5.1 2.3h1.3l-1.4.5v2H531l-46.1 15.7h-42.5v26.2c3.2.2 6.4.4 9.8.4 34.3 0 84.8-12.6 102.1-33v-11.7h7.4c.2-.8.3-1.5.4-2.2h.1v-17.2h-16.9zM442.3 363.7V386c.3-.3.7-.7 1.1-1 9.9-8.8 29.2-15.8 48.8-18.3v-18.2l-49.9 15.2z" fill="#f5ca65"/><path fill="#886c59" d="M536.7 380.7l-5.8 1.9h5.8z"/><path d="M536.7 377.9V352l-40.5-4.8-4.1 1.2v18.2c5-.6 10.1-1 15-1 17 .1 28.3 5.1 29.6 12.3z" fill="#b9833a"/><path d="M536.8 364.1c.9-7.6-10.8-13.2-29.7-13.2-23.9 0-51.3 7.5-63.7 17.5-13.8 11.2-4.7 21 24.9 21 28.1 0 51.4-9.2 58.8-14.8h27.1c-17.3 18.5-67.8 30-102.1 30-38.8 0-65.5-15.2-34.9-36.2 23-15.8 64.2-25.8 98.2-25.8 28.8 0 50 8.3 46.2 21.4h-24.8v.1z" fill-rule="evenodd" clip-rule="evenodd" fill="#fae379"/><path d="M813.1 321.5c6.4-51.9 9.2-81.8 14.1-133.9.2-1.9-2.8-1.9-3 0-4.9 52.1-7.8 81.7-14.1 133.6" fill="#7da257"/><path d="M816.4 321.5c18.9-53.5 31.5-82.5 54.8-134.2.8-1.7-1.8-3.3-2.6-1.5-23.4 52-36.3 81.9-55.3 135.6M808 321.1c14.8-61.2 24.5-95.3 41.5-156 .5-1.9-2.4-2.7-2.9-.8-17.1 60.6-26.7 95.2-41.5 156.4M798.8 319.9c6.7-52.7 14.3-80.7 23.1-133.1.3-1.9-2.6-2.7-2.9-.8-8.8 52.7-16.5 80.3-23.2 133.3" fill="#5b793e"/><path d="M811.2 321.3c8.2-23.4 11.1-30.8 19.6-54.1 8.4-22.9 16.5-46 27.6-67.8.9-1.7-1.7-3.2-2.6-1.5-11 21.4-19 44.1-27.3 66.7-8.8 23.9-11.9 32.5-20.4 56.5" fill="#7da257"/></svg>