<svg xmlns="http://www.w3.org/2000/svg" xmlns:xlink="http://www.w3.org/1999/xlink" viewBox="0 0 1000 436.1"><defs><path id="a" d="M1000 0H0v276.5c16.1 35 55.5 53.5 93.2 55.6 75.5 4.2 147.4-45.5 222.7-32.8 78 13.1 135.3 90.7 235.8 120 57.1 16.6 118.3 12.6 175.9-1.7 69.6-17.3 130.3-46.6 272.3-109.8V0z"/></defs><clipPath id="b"><use xlink:href="#a" overflow="visible"/></clipPath><path clip-path="url(#b)" fill="#b9927a" d="M1000 316.6H321.3L0 424.6v13.5h1000z"/><path clip-path="url(#b)" fill-rule="evenodd" clip-rule="evenodd" fill="#3e7971" d="M0 424.6l324.1-108.3V-5.9L0-7.7z"/><path clip-path="url(#b)" fill-rule="evenodd" clip-rule="evenodd" fill="#f0dfd3" d="M324.1 0H1000v316.6H324.1z"/><path clip-path="url(#b)" fill-rule="evenodd" clip-rule="evenodd" fill="#e8d1c2" d="M324.1 302.7H1000v13.9H324.1z"/><path clip-path="url(#b)" fill-rule="evenodd" clip-rule="evenodd" fill="#e0c2b0" d="M1003.1 126.7H420.4l-5.4 17 596.3-13.1zM1003.1 41.8H420.4l-5.4 17 596.3-13.3zM1003.1 211.6H420.4l-5.4 17.1 596.3-10.8z"/><path clip-path="url(#b)" fill-rule="evenodd" clip-rule="evenodd" fill="#886c59" d="M362.5 321.3h97.9l-9.2 5.4H348.6z"/><path d="M480 322.5c-3.4 2.3-17.7 4.3-31.8 4.3s-21.7-1.9-17.3-4.3c4.3-2.2 18.2-4 31.3-4 13.1 0 21.1 1.8 17.8 4z" clip-path="url(#b)" fill-rule="evenodd" clip-rule="evenodd" fill="#3e7971"/><path d="M432.1 286.6c-3.5 6.4-6 12.2-6.7 16.8" clip-path="url(#b)" clip-rule="evenodd" fill="none" stroke="#315851" stroke-width="2.6865" stroke-linecap="round" stroke-miterlimit="10"/><path clip-path="url(#b)" fill-rule="evenodd" clip-rule="evenodd" fill="#3e7971" d="M429.7 323.9v-40.6l51-1.5v39.8z"/><path d="M429.7 283.5v1.8c.1.3.3.6.6.8.9.7 2.2.2 3.2.8 1 .6 1.2 1.9 1.3 3 .2 1.1.8 2.5 1.9 2.5 1.6.1 2.4-2.4 4-2.4.8 0 1.5.7 1.7 1.4.3.7.2 1.6.2 2.3-.2 2.8-.1 5.6 0 8.4.1 1.3.5 2.9 1.8 3.1.9.1 1.7-.5 2-1.3.3-.8.3-1.7.3-2.6 0-2.4.1-4.9.3-7.3.1-1.3.4-2.7 1.5-3.4 1.8-1.1 4 .7 6 .4 1.7-.2 2.8-1.7 4.3-2.6 1.8-1 3.9-.9 5.9-.8 1.5.1 3.2.3 3.8 1.7.7 1.7-.9 4 .4 5.3 1 1 2.7.2 3.4-1s.5-2.6.7-4c.1-.6.2-1.2.6-1.6.3-.3.7-.6 1.1-.8.9-.4 1.8-.7 2.8-.9.9-.2 1.8-.3 2.6-.7.2-.1.5-.3.7-.4v-3.6l-51 1.5c-.1.2-.1.3-.1.4z" clip-path="url(#b)" fill-rule="evenodd" clip-rule="evenodd" fill="#233630"/><path d="M480 282.4c-3.4 1.5-17.7 2.8-31.8 2.8s-21.7-1.3-17.3-2.8c4.3-1.5 18.2-2.6 31.3-2.6 13.1 0 21.1 1.1 17.8 2.6z" clip-path="url(#b)" fill-rule="evenodd" clip-rule="evenodd" fill="#315851"/><path d="M425.4 303.4c-1 6.8 1.8 11.1 10.9 11.1 24.1 0 44.4-29.1 44.4-29.1" clip-path="url(#b)" clip-rule="evenodd" fill="none" stroke="#315851" stroke-width="2.6865" stroke-linecap="round" stroke-miterlimit="10"/><path clip-path="url(#b)" clip-rule="evenodd" fill="none" d="M268 241.7l-99.7 9.1V55.2L268 86.4zM161.7 55.2h6.6v195.6h-6.6z"/><path d="M139.4 62c-34.9-9.8-66.9 3.9-66.9 32v157l120-9.2V117.3c0-22.3-22.3-46.6-53.1-55.3z" clip-path="url(#b)" fill-rule="evenodd" clip-rule="evenodd" fill="#b9927a"/><path d="M72.5 94.1v.3h112.6c-9-14.2-25.6-26.6-45.7-32.3-34.9-9.9-66.9 3.9-66.9 32z" clip-path="url(#b)" fill-rule="evenodd" clip-rule="evenodd" fill="#af866e"/><path d="M200.8 118.2c0-17.5 12.5-28.9 28.8-29.6-18.1-.9-32.6 10.8-32.6 29.6v123.3l3.9-.3v-123z" clip-path="url(#b)" fill-rule="evenodd" clip-rule="evenodd" fill="#233630"/><path d="M242.8 90.1c-22.2-6.3-42 6-42 28.1v123.3l76.8-6V133.2c0-18.3-14.8-37.4-34.8-43.1z" clip-path="url(#b)" fill-rule="evenodd" clip-rule="evenodd" fill="#57a296"/><path clip-path="url(#b)" fill-rule="evenodd" clip-rule="evenodd" fill="#d8b49e" d="M202.1 137.9l-10.7-1.6v-3.9l10.7 1.7zM202.1 215.3l-10.7.2v-3.9l10.7-.1z"/><path d="M105.1 241.8V117.3c0-14.1-10.7-29.1-27.8-40.3-3.1 4.8-4.8 10.6-4.8 17.1V244l32.6-2.2z" clip-path="url(#b)" fill-rule="evenodd" clip-rule="evenodd" fill="#615044"/><path clip-path="url(#b)" fill-rule="evenodd" clip-rule="evenodd" fill="#f0dfd3" d="M192.5 241.8h-87.4l-32.6 2.1v7.1z"/><path clip-path="url(#b)" fill="#615044" d="M72.5 154.6v8.4l32.4 2.4h88.7z"/><path clip-path="url(#b)" fill="#b9927a" d="M72.5 150.7v3.9l121.1 10.8v-3z"/><g clip-path="url(#b)"><path d="M139.4 220.5c0-.2 0 .6-.1-1.6-.2-3.1-.6-4.4-1.1-6.8-.1-.2-.3-.9-.4-1.3-1.4-4.3-2.3-6-4.5-10.7-3.8-8.4-3.2-8.3-3.6-13.6-.1-.7.3 3.7-1.5-21.2h-.1c-.1 0-.3-.1-.3-.1h-.1-.1-.1-.1-.1-.5-.2H126.3h-.1-.2-.5H125.2h-.1-.1-.1-.1-.1-.1-.1-.4-.2c-.1 0-1.3.1-1.2.1l-1.3 23.1-7.1 24.9s1.7 21.6 2.8 30.6c.7.2 1.4.2 1.5.3.1 0 .7.1.8.1.4.1.4 0 .7.1.1 0 .5 0 .7.1h6.4c1.2 0 2.3-.1 3.8-.3.3 0 .6-.1.9-.1.4-.1.5-.1.6-.1.1 0 .3-.1.5-.1 0 0 .3-.1.4-.1.1 0 .2-.1.3-.1.1 0 .2-.1.2-.1h.1c.1-.1.1 0 .2-.1v-.1c0-.1.6-1.4.6-1.3 1.4-3.1 1.9-4.9 2.4-6.4 0 .1.2-.6.9-3.2.9-4.4 1.4-6.4 1.3-12z" fill="#f0b050"/><path d="M123.1 166.7v-1.8c-.2 0-.4.1-.6.1-.2 0-.3.1-.5.1-.1 0-.2.1-.3.1-.1 0-.1.1-.1.1-.1 11.7-.2 19.9-1.9 26.6-3.7 13.7-14.5 22.1-6.1 46.4l.6 1.5c.4 1 .4 1 1.3 3 .1.1.3.3.6.4.3.1.8.3 1.4.4.6.1 1.3.2 2.1.3.8.1 1.6.2 2.6.2-10.9-32.7-3.7-37.9-.6-52 1.4-6.6 1.4-18.1 1.5-25.4z" fill="#815624"/><path d="M129.2 196.9c-2.4-10.5-2.3-21.3-2.5-32h-.2-.2H126h-.1-.2-.5H124.9h-.1v30.7c0 13.7-1.6 19.8.6 27.1 1.8 5.9 7.1 5.2 7.8-1.4 1.2-8.3-2.1-16.3-4-24.4z" fill="#f8ede5"/></g><g clip-path="url(#b)"><path d="M90.3 241.7c0-.1-.1-.1 0 0-.1-.1 0-.1 0 0z" fill="#98c5ed"/><path d="M117 200.7c-.9-2.7-2.5-6.7-4.5-10.1-5.3-8.7-3.9-7.6-5.1-17v-.1h-.1-.1-.1-.1-.2c-.4-.1-.5-.1-.6-.1-.1 0-.3-.1-.2 0h-.1H105.6h-.2-.1-.1-.1-.1-.4H104.3h-.1-.1-.1-.9-.1-.1-.1-.2-.1-.9-.1-.1-.1-.1-.1-.1-.1-.1-.1-.1-.4-.4-.2-1.2c-.3 0-.1 0-.5.1-.1 0-.4.1-.3 0-.1 0-.4.1-.3 0-.1 0-.4.1-.3.1-.1 0 0 0-.3.1-.1 0-.5.1-.4.1h-.2-.1-.2l-.3.1-.1.1c0 .1 0 0 0 0-.1 2-.3 4.1-.5 6.1 0 .1 0 .3-.1.4v.1c0 .1 0 .2-.1.3 0 .1-.1.3-.1.4-.8 4.5-3.1 7.3-4.3 9.7-5.2 9.8-7.1 16.9-6.5 28.6v.4c0 .2 0 .5.1.6v.1l.1.6v-.4c2 14.7 9.1 23.4 9.1 23.3.1 0 0 .4 3.8.7.3 0 .9.1 1 .1h6.2c1.6 0 3-.1 4-.2.3 0 .4 0 1-.1.2 0 .5-.1.6-.1.1 0 .6-.1.5-.1.1 0 .5-.1.4-.1.3-.1.2-.1.3-.1.1 0 .1 0 .2-.1.2-.1 1.1-1.6 1-1.5 13.4-21.5 4.4-44 4.9-42z" fill="#f0b050"/><path d="M101.5 244.9c-4.7-9-15.7-30-8.8-52.6l.8-2.5c3.5-9.3 3.2-8.6 3.7-17H96c-.1 0 0 0-.3.1-.1 0-.5.1-.4.1h-.2-.1-.2l-.3.1-.1.1c0 .1 0 0 0 0-.1 2-.3 4.1-.5 6.1 0 .1 0 .3-.1.4v.1c0 .1 0 .2-.1.3 0 .1-.1.3-.1.4-.8 4.5-3.1 7.3-4.3 9.7-5.2 9.8-7.1 16.9-6.5 28.6v.4c0 .2 0 .5.1.6v.1l.1.6v-.4c2 14.7 9.1 23.4 9.1 23.3.1 0 0 .4 3.8.7.3 0 .9.1 1 .1h3.7c.1.7.5.7.9.7z" fill="#815624"/><g><path d="M107.2 190.1c-.4-.6-.8-1.3-1.1-2-.4-1-.3-2.2-.3-3.3.1-4.1-.3-8.1-1.1-12.1h-.1-.1-.1-.1-.4H103.6h-.1-.1-.1-.9-.1-.1-.1-.2-.1-.8c-2.2 8.4 1.9 14 2.1 15.2.6 4-4.6 11.4-1.7 26.8.3 1.8.8 3.6 1.7 5.2.9 1.5 2.4 2.9 4.1 2.7 5.2-.8 8.7-18.3 0-32.5z" fill="#f8ede5"/></g></g><path clip-path="url(#b)" fill-rule="evenodd" clip-rule="evenodd" fill="#b9927a" d="M80 292.3H-51.6l161.9-19.7h101.4z"/><path clip-path="url(#b)" fill-rule="evenodd" clip-rule="evenodd" fill="#b9927a" d="M80 285.7H-51.6l161.9-18.2h101.4z"/><path clip-path="url(#b)" fill-rule="evenodd" clip-rule="evenodd" fill="#f0dfd3" d="M80 285.7H-51.6L149.7 263h94z"/><path clip-path="url(#b)" fill="#d8b49e" d="M48.8 281.1l12.4-3.4H19.6l-30.5 3.4z"/><path clip-path="url(#b)" fill-rule="evenodd" clip-rule="evenodd" fill="#cea992" d="M240.4 344.3L80 397.9V292.3l160.4-24z"/><path clip-path="url(#b)" fill-rule="evenodd" clip-rule="evenodd" fill="#d8b49e" d="M235.1 294.8L86.9 326.2v-29.7l148.2-23.6zM235.1 321.7L86.9 362.6v-29.7l148.2-33.1z"/><path clip-path="url(#b)" fill-rule="evenodd" clip-rule="evenodd" fill="#615044" d="M0 292.3h80v96.2H0z"/><path clip-path="url(#b)" fill-rule="evenodd" clip-rule="evenodd" fill="#d8b49e" d="M243.7 263L80 285.7v6.6l163.7-24.5z"/><path clip-path="url(#b)" fill-rule="evenodd" clip-rule="evenodd" fill="#fffff8" d="M155.9 300.9l-39.1 7.5v-4.3l39.1-7.1zM219.6 288.8l-29.5 5.6v-3.6l29.5-5.4z"/><path clip-path="url(#b)" fill-rule="evenodd" clip-rule="evenodd" fill="#e8d1c2" d="M111.4 304.1h5.8l38.7-7.1h-5.4zM185.1 290.8h5.1l29.1-5.3h-4.7z"/><g clip-path="url(#b)"><path d="M511.6 100.1c0-.1 0-.1 0 0v-.2-.1c0-.6-.1-1.2-.1-1.8 0-.3-.1-.6-.1-.9V97v-.1c-.1-.5-.1-.9-.3-1.6v-.2c0-.1 0-.2-.1-.3-.1-.6-.3-1.1-.4-1.5-.5-1.9-1.3-3.8-2.3-5.6-.1-.1-.2-.3-.2-.4-.1-.2-.2-.3-.3-.5 0-.1-.1-.1-.1-.2-.1-.2-.3-.5-.4-.7-.1-.1-.1-.2-.2-.3l-.1-.1-.1-.1-.2-.3c0-.1-.1-.1-.1-.1l-.1-.1v-.1l-.3-.3-.1-.1-.1-.2-.3-.3-.1-.1-.2-.2-.3-.3-.3-.3-.3-.3-.3-.3-.1-.1c-.1 0-.1-.1-.2-.1 0 0-.1 0-.1-.1-.1-.1-.3-.2-.4-.3 0 0-.1 0-.1-.1l-.1-.1c-.4-.4-.8-.7-1.2-1-.6-.4-1.1-.8-1.5-1.1-.1 0-.1-.1-.2-.1-.1-.1-.2-.1-.3-.2l-.1-.1c-1.2-.8-2.1-1.4-2.7-2.1l-.1-.1-.2-.2c0-.1-.1-.1-.1-.2-.1-.1-.1-.2-.2-.3v-.1c-.1-.1-.1-.2-.2-.3v-.1c-.1-.1-.1-.3-.2-.4-.4-.9-.6-2-.8-3.6v-.1-.4c-.3-2.7-.5-5.4-.7-8.1h-.1-.1-.1H494.1h-.4-.1c-.2 0-.4 0-.7-.1h-.4-.1-.5-.4H491.2h-.1-.1-.1-.1-.1-.1-.1-.1-.1-.1-.1-.1c-.5 5.5-.7 7.4-.7 7.9v.2c0 .2 0 .4-.1.6v.4c0 .1 0 .3-.1.4l-.3 1.5c0 .1-.1.3-.1.4v.1c-.3 1-.8 1.7-1.5 2.4l-.1.1-.3.3-.1.1c-.3.2-.6.5-.9.7 0 0-.1 0-.1.1-.1.1-.3.2-.4.3-.2.2-.5.3-.7.5-.1.1-.2.1-.3.2-.1.1-.2.1-.3.2l-.1.1-.1.1c-.1.1-.2.1-.3.2-.1 0-.1.1-.2.1-.1.1-.2.1-.2.2-.1.1-.2.1-.3.2l-.1.1c-.4.3-.9.7-1.4 1.1l-.1.1c-.1.1-.1.1-.2.1l-.1.1-.1.1c-.1.1-.2.1-.2.2l-.3.3-.3.3-.3.3-.3.3-.1.1c0 .1-.1.1-.1.2l-.3.3c-.1.1-.2.2-.2.3 0 .1-.1.1-.1.2l-.3.3c-.5.6-1 1.3-1.4 2-1.3 2-2.4 4.5-3.1 7.5V94.5c0 .1-.1.2-.1.3v.1c-.4 2-.6 3.7-.6 4.8v2.7c0 .3 0 .6.1.9.1.5.1 1.1.2 1.5v.2l.2.9c.1.4.2 1 .3 1.4 0 0 .1.6.4 1.4v.2c0 .1 0 .2.1.2 0 0 0 .1.1.2v.1c0 .1.1.2.1.3 0 .1.1.2.1.4 0 .1 0 .1.1.2v.1c.2.6.5 1.1.7 1.6 0 0 0 .1.1.1.2.5.4.9.7 1.3 0 .1.1.1.1.2.3.4.5.8.8 1.2l.1.1c.3.4.5.7.8 1 .1.1.1.2.2.2l.1.1c.1.1.2.3.3.4l.1.1.1.1.1.2c.2.3.5.5.7.8l.3.3.1.1.1.1.2.2.2.1h.1l.1.1c.3.2.5.4.8.6.2.2.5.4.8.5.1.1.2.1.3.2 0 0 .1 0 .1.1.2.1.3.2.5.3.1 0 .1.1.2.1h.1c.1 0 .1.1.2.1 0 0 .1 0 .1.1.1 0 .2.1.3.1.1 0 .2.1.3.1.1 0 .3.1.4.1.1 0 .1 0 .2.1.2.1.3.1.5.1h.1c.2.1.4.1.6.1.1 0 .2 0 .3.1h.2c.1 0 .2 0 .3.1H488.6c.2 0 .4.1.6.1h.1c2.4.3 4.5.4 6.4.2H499.3c.2 0 .4 0 .5-.1h.5c.4-.1.8-.1 1.2-.2.7-.1 1.4-.3 2.1-.6.1 0 .2-.1.3-.1h.1l.1-.1c.1 0 .2-.1.3-.1l.1-.1c.1 0 .2-.1.3-.1.3-.2.7-.3 1-.5 0 0 .1 0 .1-.1.1 0 .2-.1.2-.1.3-.2.6-.4 1-.7.2-.1.3-.3.5-.4l.1-.1.2-.2.1-.1c.7-.7 1.5-1.5 2.2-2.4.1-.2.2-.3.4-.5 0-.1.1-.1.1-.2l.1-.1c.2-.3.3-.5.5-.8.1-.1.2-.3.2-.4.6-1 1.1-2.1 1.5-3.1 0-.1.1-.2.1-.3.4-.9.7-1.9.9-2.8v-.2c.1-.3.1-.5.2-.7v-.1c0-.2.1-.4.1-.7v-.1c.1-.3.1-.7.2-1.1l.1-.3v-.1-.1c0-.1 0-.2.1-.4v-.4-.3V102.8v-.1-.3c0-.4 0-.7.1-1.1v-.1-.1-.1-.1c-3.2 0-3.2-.4-3.2-.8z" fill="#57a296"/><path d="M494.4 67.2c-.1-1.5-.2-3-.4-4.4h-.1-.1-.1H493.4h-.4-.1c-.2 0-.4 0-.7-.1h-.4-.1-.5-.4c-.3.5-.4 1.1-.4 1.7-.2 2.4-.4 9 .8 10.9.8 1.3 3 1.5 3.6 1 .2-.8 0-2.2-.4-9.1zM509 97.4c.4-7.1-3.3-13-8.6-15.5-4.3-2-7.5-1.2-9.9.7-3.8 2.8-5.2 6.1-4.7 10.2 1 8.5 5.3 12.3 10.4 13.6 1.1.3 2.3.5 3.4.4 3.9-.3 9-3 9.4-9.4z" fill="#70caba"/><path d="M497.4 122c-.3.1-.7.1-1.1.2.4-.1.8-.1 1.1-.2z" fill="#192b3c"/><path fill="#cea992" d="M496.3 122.2z"/><path d="M491.5 116.8c-16.4-3.3-24-25.9-8.4-38.1l.2-.2c-.3.1-.6.1-.8.2.4-.1.7-.2.8-.2 4.4-3.4 3.3-5.4 4.1-14.1 0-.5.1-.4.2-1.7-.6.1-1 .3-1 .4-.9 9.9-.8 8.1-.6 8-.4 4.7-1.1 5.6-4.8 8.1-.1.1-.2.1-.3.2l-.3.2c-.1.1-.2.1-.3.2l-.3.2c-.1.1-.2.2-.3.2l-.3.2c-.1.1-.2.2-.3.2l-.3.2c-.1.1-.2.2-.3.2l-.3.2c-.1.1-.2.2-.3.2l-.3.2-.3.3-.3.3-.3.3-.3.3-.3.3-.3.3-.3.3-.3.3c-.2.2-.4.4-.5.6l-.5.7c-.1.2-.3.5-.5.7l-.5.7c-.1.2-.3.5-.4.7l-.4.7c-.1.2-.3.5-.4.8l-.4.8c-.1.2-.2.6-.3.8l-.3.8c-.1.2-.2.6-.3.8l-.3.8c-.1.3-.2.6-.2.8l-.2.8c-.1.3-.1.6-.2.9l-.2.9c0 .3-.1.6-.1.9l-.1.9c0 .3-.1.6-.1.9v3c0 .5.1 1.1.1 1.6.7 7.1 4.2 13.1 8.2 15.9-.1 0-.1 0-.2.1.1.1.3.2.4.3.2.2.5.4.8.5.1.1.2.1.3.2 0 0 .1 0 .1.1.2.1.3.2.5.3.1 0 .1.1.2.1h.1c.1 0 .1.1.2.1 0 0 .1 0 .1.1.1 0 .2.1.3.1.1 0 .2.1.3.1.1 0 .3.1.4.1.1 0 .1 0 .2.1.2.1.3.1.5.1h.1c.2.1.4.1.6.1.1 0 .2 0 .3.1h.2c.1 0 .2 0 .3.1H484.8c.2 0 .4.1.6.1h.1c2.4.3 4.5.4 6.4.2H495.5c.2 0 .4 0 .5-.1h.5c.4-.1.8-.1 1.2-.2.1 0 .3-.1.5-.1.3-.1.6-.1.9-.2.2-.1.5-.1.6-.2h.1c.1 0 .2-.1.3-.1l.1-.1c.1 0 .2-.1.3-.1l.1-.1c.1 0 .2-.1.3-.1.3-.2.7-.3 1-.5 0 0 .1 0 .1-.1.1 0 .2-.1.2-.1.1-.1.3-.2.5-.3.3-.2.7-.5 1-.7l.8-.8.9-.9.8-.9c.2-.3.5-.7.8-1.1l.7-1.1c.2-.4.5-.8.7-1.2l.6-1.2c.2-.4.4-.9.6-1.3l.5-1.4.3-.9.4-1.5c-3 13-14.8 10.6-19.3 9.7z" fill="#3e7971"/></g><g clip-path="url(#b)"><path d="M482.2 95.8c0-.1 0-.1 0 0v-.2-.1c0-.8-.1-1.5-.2-2.2 0-.3-.1-.7-.1-1v-.1-.1c-.1-.6-.2-1.1-.4-1.9v-.1c0-.1 0-.2-.1-.3 0-.1-.1-.2-.1-.4-.2-.7-.4-1.3-.5-1.7-.8-2.3-1.9-4.5-3.4-6.7-.1-.2-.2-.3-.3-.4-.2-.2-.3-.4-.5-.6 0-.1-.1-.1-.1-.2-.2-.2-.4-.5-.6-.8l-.1-.1-.3-.3c0-.1-.1-.1-.1-.2s-.1-.1-.1-.2l-.3-.3-.2-.2-.1-.1-.1-.1-.1-.1-.4-.4-.1-.1-.2-.2c-.1-.1-.3-.2-.4-.3l-.1-.1c-.1-.1-.2-.2-.3-.2-.1-.1-.3-.2-.4-.3-.1-.1-.3-.2-.4-.3-.1-.1-.3-.2-.4-.3-.1-.1-.3-.2-.4-.3 0 0-.1 0-.1-.1l-.2-.2-.1-.1c-.2-.1-.4-.3-.6-.4l-.1-.1s-.1 0-.1-.1c-.6-.4-1.2-.8-1.7-1.2h-.1c-.8-.5-1.5-.9-2.2-1.3-.1-.1-.2-.1-.3-.2-.1-.1-.3-.1-.4-.2-.1 0-.1-.1-.2-.1-1.7-1-3-1.7-3.9-2.5l-.1-.1-.2-.2-.2-.2c-.1-.1-.2-.2-.3-.4l-.1-.1c-.1-.1-.2-.2-.3-.4 0 0 0-.1-.1-.1-.1-.2-.2-.3-.3-.5-.5-1.1-.8-2.4-1.1-4.3V62c0-.2 0-.3-.1-.5-.4-3.2-.7-6.5-1.1-9.7v-.1h-.1-.1-.1-.1-.1-.1-.4-.5-.1c-.3 0-.6 0-1-.1H453h-.4H452h-.5-.1-.1-.1-.1-.1-.1-.1-.1-.1-.1-.1-.1-.1-.1-.1-.1-.1-.1c-.7 6.5-1 8.8-1.1 9.4v.2c0 .2-.1.5-.1.7v.5c0 .2-.1.3-.1.5-.1.6-.3 1.2-.4 1.8-.1.2-.1.3-.2.5v.1c-.5 1.2-1.1 2.1-2.2 2.9l-.1.1c-.2.1-.3.2-.5.4 0 0-.1 0-.1.1-.4.3-.9.6-1.4.9 0 0-.1 0-.1.1-.2.1-.4.2-.6.4-.3.2-.7.4-1 .5-.1.1-.3.2-.4.2-.1.1-.3.1-.4.2-.1 0-.1.1-.2.1s-.1.1-.2.1c-.1.1-.3.2-.4.2-.1 0-.2.1-.3.1-.1.1-.2.1-.3.2-.1.1-.3.2-.4.2-.1 0-.1.1-.2.1-.6.4-1.3.8-2 1.3-.1 0-.1.1-.2.1-.1.1-.2.1-.3.2-.1 0-.1.1-.2.1l-.1.1h-.1l-.3.3c-.1.1-.3.2-.4.3-.1.1-.3.2-.4.3-.1.1-.3.2-.4.3-.1.1-.3.2-.4.3l-.1.1-.2.2-.1.1c-.1.1-.3.2-.4.4l-.3.3-.2.2-.4.4c-.7.7-1.4 1.5-2 2.4-1.9 2.4-3.5 5.4-4.5 9v.4c0 .1-.1.3-.1.4v.1c-.6 2.4-.8 4.3-.8 5.7V97.9c0 .2 0 .5.1.8 0 .3.1.7.1 1.1.1.6.2 1.3.3 1.8v.2l.2 1.1c.1.5.3 1.2.5 1.7 0 0 .2.7.6 1.7v.2c0 .1.1.2.1.3 0 .1.1.1.1.2v.2c0 .1.1.2.1.3.1.1.1.3.2.4 0 .1.1.1.1.2 0 0 0 .1.1.1.3.7.7 1.3 1 2 0 .1.1.1.1.2.3.5.6 1 1 1.5.1.1.1.2.2.3.4.5.7 1 1.1 1.5l.1.1c.4.5.7.9 1.1 1.2l.3.3.1.1c.1.2.3.3.5.5l.1.1.1.1.1.1.2.2.1.1.1.1c.4.3.7.7 1.1.9.1.1.3.2.4.3l.1.1s.1 0 .1.1c.1.1.2.2.3.2l.2.2s.1 0 .1.1c0 0 .1 0 .1.1.4.3.8.5 1.2.7.3.2.8.4 1.1.6.1.1.3.1.4.2.1 0 .1 0 .2.1.2.1.5.2.7.3.1 0 .2.1.3.1h.1c.1 0 .2.1.3.1.1 0 .1 0 .2.1.1 0 .3.1.4.1.2 0 .3.1.5.1.2.1.4.1.6.2.1 0 .2.1.3.1.2.1.5.1.7.2h.1c.3.1.6.1.8.2.2 0 .3.1.5.1h.2c.1 0 .2 0 .4.1H447.2c.3 0 .6.1.9.1h.1c3.4.3 6.5.4 9.2.3H462.5c.3 0 .5 0 .8-.1h.7c.6-.1 1.2-.2 1.7-.2 1-.2 2-.4 3.1-.7.1 0 .3-.1.4-.1h.1l.2-.1c.1 0 .3-.1.4-.1l.2-.1h.1c.1-.1.3-.1.4-.2.5-.2 1-.4 1.4-.6 0 0 .1 0 .1-.1.1-.1.2-.1.3-.2.4-.2.9-.5 1.4-.8h.2c.2-.2.5-.3.7-.5.1 0 .1-.1.2-.1.1-.1.2-.2.4-.3l.1-.1c1-.8 2.1-1.8 3.1-2.9.2-.2.3-.4.5-.6l.2-.2c0-.1.1-.1.1-.2.2-.3.5-.6.7-.9.1-.2.2-.3.3-.5.9-1.2 1.6-2.5 2.2-3.7.1-.1.1-.2.2-.3.5-1.1 1-2.2 1.3-3.3 0-.1 0-.1.1-.2.1-.3.2-.6.3-.8v-.1c.1-.2.1-.5.2-.8v-.1c.1-.4.2-.9.3-1.3l.1-.4v-.1-.1c0-.1.1-.3.1-.5 0-.1 0-.3.1-.4v-.4-.4-.1-.3c0-.4.1-.9.1-1.3v-.2-.1-.1-.1c-3.1-.8-3.1-1.3-3.1-1.8z" fill="#57a296"/><path d="M457.3 56.7c-.1-1.8-.3-3.5-.5-5.3h-.1-.1-.1-.1-.1-.1-.4-.5-.1c-.3 0-.6 0-1-.1h-1.9-.4c-.4.6-.6 1.3-.6 2.1-.3 2.9-.6 10.7 1.1 12.9 1.2 1.6 4.3 1.8 5.1 1.2.6-1 .3-2.6-.2-10.8zM478.4 92.6c.6-8.4-4.7-15.5-12.5-18.4-6.3-2.4-10.8-1.4-14.4.8-5.5 3.3-7.5 7.2-6.8 12.1 1.5 10.2 7.7 14.7 15.1 16.2 1.6.3 3.3.6 4.9.5 5.7-.3 13.1-3.5 13.7-11.2z" fill="#70caba"/><path d="M461.6 121.9c-.5.1-1 .1-1.6.2.6-.1 1.1-.1 1.6-.2z" fill="#192b3c"/><path fill="#cea992" d="M460.1 122.1h-.1z"/><path d="M453.1 115.7c-23.7-4-34.6-30.8-12.1-45.4l.3-.2c-.5.1-.8.1-1.2.2.6-.1 1.1-.2 1.2-.2 6.3-4.1 4.7-6.5 6-16.8.1-.5.1-.5.3-2-.9.1-1.4.3-1.4.5-1.3 11.7-1.1 9.6-.9 9.5-.6 5.6-1.6 6.7-7 9.6-.1.1-.3.2-.4.2l-.4.2c-.1.1-.3.2-.4.2l-.4.3c-.1.1-.3.2-.4.3l-.4.3c-.1.1-.3.2-.4.3l-.4.3c-.1.1-.3.2-.4.3l-.4.3c-.1.1-.3.2-.4.3l-.4.3c-.1.1-.3.2-.4.3l-.4.3c-.1.1-.3.2-.4.3l-.4.3c-.1.1-.3.2-.4.3l-.4.3c-.1.1-.3.2-.4.3l-.4.3-.8.8-.7.8c-.2.2-.5.6-.7.8l-.7.8-.6.9-.6.9-.6.9-.5.9c-.2.3-.3.7-.5.9l-.5 1c-.1.3-.3.7-.4 1l-.4 1c-.1.3-.2.7-.3 1l-.3 1c-.1.3-.2.7-.3 1l-.2 1c-.1.3-.1.7-.2 1l-.1 1c0 .3-.1.7-.1 1.1l-.1 1.1V98c.1.6.1 1.3.2 1.9 1.1 8.5 6.1 15.6 11.9 18.9-.1 0-.2 0-.3.1.2.1.4.3.6.4.3.2.8.4 1.1.6.1.1.3.1.4.2.1 0 .1 0 .2.1.2.1.5.2.7.3.1 0 .2.1.3.1h.1c.1 0 .2.1.3.1.1 0 .1 0 .2.1.1 0 .3.1.4.1.2 0 .3.1.5.1.2.1.4.1.6.2.1 0 .2.1.3.1.2.1.5.1.7.2h.1c.3.1.6.1.8.2.2 0 .3.1.5.1h.2c.1 0 .2 0 .4.1H443.9c.3 0 .6.1.9.1h.1c3.4.3 6.5.4 9.2.3H459.2c.3 0 .5 0 .8-.1h.7c.6-.1 1.2-.2 1.7-.2.2 0 .4-.1.7-.1l1.2-.3c.3-.1.7-.2.9-.2h.2c.1 0 .3-.1.4-.1h.1l.2-.1c.1 0 .3-.1.4-.1l.2-.1c.1-.1.3-.1.4-.2.5-.2 1-.4 1.4-.6 0 0 .1 0 .1-.1.1-.1.2-.1.3-.2.2-.1.5-.2.7-.4.4-.3 1-.6 1.4-.9l1.2-.9c.4-.3.9-.8 1.3-1.1l1.1-1.1c.3-.4.8-.9 1.1-1.3l1-1.3c.3-.4.7-1 1-1.4l.9-1.5c.3-.5.6-1.1.8-1.6l.7-1.6.4-1.1.5-1.7c-4.3 15.6-21.4 12.8-27.9 11.7z" fill="#3e7971"/></g><g clip-path="url(#b)"><path d="M815.8 165.1h-5.2c-1.2-.4-2.5-.6-3.9-.6h5.2c1.4 0 2.7.2 3.9.6z" fill="#f0b050"/><path d="M809.8 151.9h-5.2c1-.1 2-.2 2.9-.2h5.2c-.9.1-1.9.1-2.9.2z" fill="#cea992"/><path d="M799.4 159h-5.2c2-2.7 6-5.7 10.4-7.1h5.2c-4.3 1.4-8.4 4.4-10.4 7.1z" fill="#f0b050"/><path d="M812.7 151.8c1.8 0 3.1.1 3.1.2v13.1c-1.2-.4-2.5-.6-3.9-.6-6.3 0-12.8 4.4-12.2 18.1v24.6H786v-53.6h13.4v5.4c2-2.7 6-5.7 10.4-7.1 1-.1 2-.1 2.9-.1z" fill="#fae379"/><path fill="#f0b050" d="M780.8 153.6h5.2v53.6h-5.2z"/><path fill="#cea992" d="M786 153.6h-5.2 18.6z"/></g><g clip-path="url(#b)"><path d="M931.2 108.1h-5.9c5 0 8-2 10.6-6.1h5.9c-2.6 4.1-5.6 6.1-10.6 6.1zM941.5 85.6h-5.9c0-6.7-5.3-11.1-11.7-11.1h5.9c6.4-.1 11.7 4.3 11.7 11.1z" fill="#f0b050"/><path d="M929.9 74.4h-6.5 6.5z" fill="#cea992"/><path d="M931.9 120.3H926c-16.3 0-28-12.5-28-30 0-13.3 9.7-27 25.7-27h5.9c-16 0-25.7 13.6-25.7 27 0 17.5 11.7 30 28 30z" fill="#f0b050"/><path d="M930.2 63.3c18.6.3 27 16.5 26.6 32.3h-39.3c0 7.1 6.7 12.5 13.6 12.5 5 0 8-2 10.6-6.1H956c-2 9.4-11.7 18.2-24.3 18.2-16.3 0-28-12.5-28-30 0-13.3 9.7-27 25.7-27 .4.1.6.1.8.1zm-12 22.3h23.3c0-6.7-5.3-11.1-11.7-11.1h-.6c-5.7-.1-11 4.5-11 11.1" fill="#fae379"/></g><path d="M836 182.6c0 7.1 6.7 12.5 13.8 12.5 5.1 0 8.1-2 10.8-6.1h14.5c-2 9.4-11.8 18.2-24.6 18.2-16.5 0-28.3-12.5-28.3-30 0-13.5 10.1-27.3 26.6-27 18.9.3 27.3 16.5 27 32.4H836zm12.5-21.2c-6.1-.3-11.8 4.4-11.8 11.1h23.6c0-6.8-5.4-11.1-11.8-11.1zM638.9 118.6c0 .3-.3-2-1-4.4-2.4 2-7.8 6.1-16.2 6.1-9.4 0-20.2-5.7-20.2-16.8 0-6.7 4.4-15.5 19.5-17.5 8.8-1.3 15.5-.7 15.8-5.4.3-1.7-1.3-7.4-10.1-7.4-4 0-9.1 1.3-10.1 7.8h-12.1c0-9.4 5.7-17.5 23.6-17.5 11.1 0 22.2 4.7 22.2 16.9v29.7c.3 3 1.3 7.1 2.4 8.8h-13.8v-.3zM614 103.1c.3 5.7 7.8 6.7 9.1 6.1 0 0 7.4 0 10.8-3.7 2-2.7 3-6.1 2-13.5-13.5 3-21.9 4.3-21.9 11.1zM920.7 135.1h13.4v72.1h-13.4v-72.1z" clip-path="url(#b)" fill-rule="evenodd" clip-rule="evenodd" fill="#f5ca65"/><g clip-path="url(#b)"><path fill="#3e7971" d="M437.7 177.5h6.1v16.2h-6.1zM445.7 166.7h6.1c-5.7 0-8 5.7-8 10.8h-6.1c0-5 2.3-10.8 8-10.8z"/><path d="M444.7 151.9h6.1c11 0 13.4 8.8 15.1 10.8h-6.1c-1.7-2-4-10.8-15.1-10.8zM477.5 165.1c-4.3 0-11.4 1-11.4 12.5v16.2h6.1v-16.2c0-11.5 7-12.5 11.4-12.5h-6.1z" fill="#fae379"/><path d="M472.2 177.7c-.4-.1-.8-.1-1.1 0-.4.2-.7.6-1.1.8-.6.3-1.3.1-2 0-.1 0-.3-.1-.4-.2-.4-.3-.1-1-.2-1.5 0-.6-.7-1.1-1.3-1 0 .6-.1 1.1-.1 1.7v16.2h6.1v-16z" fill="#3e7971"/><path d="M498.2 169.4h6.1v37.7h-6.1v-37.7z" fill="#fae379"/><path d="M504.3 186.7c-.4 0-.9.1-1.3.1-.1 0-.3-.1-.4-.2-.1-.1 0-.3 0-.4 0-.4-.6-.6-1-.6-.8-.1-1.6 0-2.3.1-.1-.3-.1-.5-.1-.8 0-.3-.1-.6-.3-.8s-.6-.2-.7.1v23.1h6.1v-20.6z" fill="#3e7971"/><path d="M479.5 149.2c12.7 0 18.7 12.5 18.7 20.2v37.7h-71.9v-32.7c0-11.1 5-22.6 18.4-22.6 11 0 13.4 8.8 15.1 10.8 2-6.3 8-13.4 19.7-13.4zm7.7 44.5v-17.2c0-2.4-2-11.5-9.7-11.5-4.3 0-11.4 1-11.4 12.5v16.2h21.1m-31.8 0v-15.5c0-3.4-1.3-11.5-9.7-11.5-5.7 0-8 5.7-8 10.8v16.2h17.7" fill="#f0b050"/><path d="M479.5 149.2h6.1c12.7 0 18.7 12.5 18.7 20.2h-6.1c0-7.7-6-20.2-18.7-20.2z" fill="#fae379"/></g><g clip-path="url(#b)"><path d="M558.8 205.5h-8.2c-.1 0-.5-2.2-.7-4.4h8.2c.2 2.2.7 4.4.7 4.4zM556.1 192.4h-8.2c1.5-2.7 2-5.7 1.5-13.5h8.2c.5 7.7 0 10.8-1.5 13.5zM557.3 167.4h-8.2c.3-1.4-1-7.1-7.4-7.1h8.2c6.5 0 7.7 5.8 7.4 7.1zM548.5 196.1h-8.2c.3 0 5.4 0 7.6-3.7h8.2c-2.2 3.7-7.4 3.7-7.6 3.7z" fill="#f0b050"/><path d="M547.6 196.2h-8.2c.4 0 .7-.1.9-.2h8.2c-.2.2-.5.2-.9.2z" fill="#cea992"/><path d="M533.7 168.1h-8.2c0-9.4 4.7-17.5 17.3-17.5h8.2c-12.6 0-17.3 8.1-17.3 17.5z" fill="#f0b050"/><path d="M567.2 195c0 2.4.7 8.4 1.5 10.4h-9.9c-.1 0-.5-2.2-.7-4.4-1.7 2-5.7 6.1-11.8 6.1-6.9 0-14.8-5.7-14.8-16.8 0-6.7 3.2-15.2 14.5-17.5 5.9-1.3 11.1-.7 11.3-5.4.3-1.4-1-7.1-7.4-7.1-3 0-6.4 1-7.1 7.7h-9.1c0-9.4 4.7-17.5 17.3-17.5 7.9 0 16 4.7 16.3 16.8-.1 10.2-.1 26.9-.1 27.7zm-11.1-2.6c1.5-2.7 2-5.7 1.5-13.5-9.6 3.4-15.8 4.4-15.8 11.1 0 4.7 3.9 6.2 5.8 6.2.4 0 .7-.1.9-.2.2.1 5.4.1 7.6-3.6" fill="#fae379"/><path d="M546.3 207.2h-8.2c-6.9 0-14.8-5.7-14.8-16.8 0-6.7 3.2-15.2 14.5-17.5 5.9-1.3 11.1-.7 11.3-5.4h8.2c-.2 4.7-5.4 4-11.3 5.4-11.3 2.4-14.5 10.8-14.5 17.5 0 11.1 7.9 16.8 14.8 16.8z" fill="#f0b050"/></g><g clip-path="url(#b)"><path fill="#fae379" d="M570.4 66.7h9.1v5.4h-9.1zM570.8 95.7h9.1v24.6h-9.1V95.7zM582.8 77.6h9.1c-6.1 0-12.6 4.4-12 18.1h-9.1c-.6-13.7 5.8-18.1 12-18.1z"/><path d="M583.5 64.9c1.8 0 3 .1 3.1.2v13.1c-1.2-.4-2.5-.6-3.8-.6-6.1 0-12.6 4.4-12 18.1v24.6h-13.5V66.7h13.2v5.4c2-2.7 5.9-5.7 10.2-7.1.9-.1 1.9-.1 2.8-.1z" fill="#f0b050"/><path fill="#fae379" d="M586.6 65h9.1v13.1h-9.1z"/><path d="M583.5 64.9h9.1c1.8 0 3 .1 3.1.2h-9.1c-.1-.1-1.3-.2-3.1-.2z" fill="#fae379"/></g><g clip-path="url(#b)"><path d="M474.4 207c.1-2.3.3-4.5.4-6.8-1.4-.4-2.7-.8-4.1-1.3.2-1.7.3-3.5.4-5.3h-5v-16h-.1c-2.2 0-3.5-2.9-2.7-4.9-1.8.2-3.5.1-5.3-.2.2-1 .3-2 .1-3-.2-1-.9-2-1.9-2.2-.9-.2-2.3 0-2.6-.9-.1-.5.2-1 .3-1.5.1-.8-.5-1.6-1.3-1.9-.7-.3-1.6-.3-2.4-.2-5 .3-9.9.6-14.9.9-.3 0-.7 0-1 .3-.3.2-.4.6-.5.9-.5 1.9-1 3.7-1.6 5.6-.9-.1-1.8-.4-2.7-.7.4-1.5.4-3 .2-4.6-.8 0-1.6-.1-2.5-.1-.9 2.9-1.3 6.1-1.3 9.3v32.7H474c.4 0 .4 0 .4-.1zm-19-13.3h-17.7v-16.2c0-5 2.3-10.8 8-10.8 8.4 0 9.7 8.1 9.7 11.5v15.5z" fill="#f0b050"/></g><g clip-path="url(#b)"><path d="M498.2 184.1c-.8 0-1.8.3-2.3-.4-.3-.4-.2-.9-.3-1.3-.5-1.1-2.2-.8-3.1-1.6-1-.8-.6-2.4-.4-3.7.2-1.3-.4-3.1-1.7-2.8-.3.1-.6.3-.9.5-.6.3-1.3.3-2 .3h-.5c.1.6.1 1.1.1 1.4v17.2H466v-16.2c0-.6 0-1.2.1-1.8h-.4c-1.4 0-3.2-.2-3.5-1.5-.1-.4-.1-.9-.2-1.3-.6-1.5-3.2-.5-4.5-1.5-1.8-1.3 0-4.6-1.6-6.1-.5-.5-1.2-.6-1.9-.7-4.1-.6-8.3-.5-12.4.3-.9.2-1.8.4-2.6.1s-1.4-1.3-1-2.1c-1.6.5-3.3.6-4.9.3-.1-1-.3-2.1-.4-3.1h-2.9c-2.4 4.1-3.5 9.3-3.5 14.4v32.7h71.9v-23.1zm-42.8 9.6h-17.7v-16.2c0-5 2.3-10.8 8-10.8 8.4 0 9.7 8.1 9.7 11.5v15.5z" fill="#233630"/></g><g clip-path="url(#b)" fill-rule="evenodd" clip-rule="evenodd"><path d="M509.7 204.1l4.4-28.4c.4-2.4 1-4.7 1.9-6.9l.6-1.4 1.6.3v1.3c0 2.5-.2 5.1-.8 7.6l-6 27.8c-.1.4-.5.7-.9.6-.6 0-.9-.4-.8-.9z" fill="#3e7971"/><path d="M518 169v-1.3l-1.6-.3-.6 1.4c-.1.3-.2.7-.4 1 0 0 0 .1.1.1.2.5.2 1.1.4 1.6.3.6.8 1 1.2 1.5.3.5.4 1 .4 1.6.4-1.7.6-3.6.5-5.6zM517.6 167.2c-1.3-.2-1.7-1.6-1.6-2.5.3-1.6 2.5-2.5 2.7-3.9v-.4c.7-.1 1 .9.9 1.8-.1.6-.5 1.2-.5 1.6-.1.8.3 1.5.1 2.2-.1.8-.7 1.4-1.6 1.2" fill="#f0b050"/></g><g clip-path="url(#b)" fill-rule="evenodd" clip-rule="evenodd"><path d="M508.8 201.4l-.9-28.7c-.1-2.4.1-4.8.6-7.1l.3-1.5h1.6l.2 1.2c.5 2.5.7 5 .6 7.6l-.9 28.4c0 .4-.4.8-.8.8-.3.1-.7-.3-.7-.7z" fill="#3e7971"/><path d="M510 163.5c-1.3 0-2-1.3-2-2.2 0-1.6 2-2.9 2-4.4 0-.1 0-.3-.1-.4.7-.2 1.2.7 1.2 1.6 0 .6-.2 1.3-.2 1.7 0 .8.5 1.4.5 2.2-.1.9-.6 1.7-1.4 1.5" fill="#233630"/></g><path d="M518.8 183.9h-15.2v21.3c0 1.1.9 2 2 2h11.2c1.1 0 2-.9 2-2v-21.3z" clip-path="url(#b)" fill="#fff"/><path d="M509.6 183.9h-6.1v21.3c0 1.1.9 2 2 2h4.1v-23.3z" clip-path="url(#b)" fill="#e0c2b0"/><path d="M510 170.5c.3-.6.7-.9 1.2-1.3-.1-1.3-.3-2.6-.5-3.8l-.2-1.2h-1.6l-.3 1.5c-.5 2.3-.7 4.7-.6 7.1v.8c.2-.1.5-.3.7-.5.4-.3.7-.7.9-1.2.1-.6.2-1 .4-1.4z" clip-path="url(#b)" fill-rule="evenodd" clip-rule="evenodd" fill="#233630"/><path clip-path="url(#b)" fill-rule="evenodd" clip-rule="evenodd" fill="#fff" d="M415 33.8h585V38H415z"/><path clip-path="url(#b)" fill-rule="evenodd" clip-rule="evenodd" fill="#e8d1c2" d="M1003.1 126.7H420.4l-5.4-1.9h596.3z"/><path clip-path="url(#b)" fill-rule="evenodd" clip-rule="evenodd" fill="#fff" d="M415 120.6h585v4.2H415zM415 207.5h585v4.2H415z"/><path clip-path="url(#b)" fill-rule="evenodd" clip-rule="evenodd" fill="#e8d1c2" d="M1003.1 41.8H420.4l-5.4-3.9h596.3z"/><g clip-path="url(#b)"><path d="M266.8 168.9c-.1 7 .4 5.2-22.6 27.8-1.3 1.3-5.1 3.7-4 9.9.9 5.1 4.6 5.9 8.6 3 1.3-1 3.8-2.5 16.4-12.3 16.3-12.8 17-13.6 18.1-23.1 1.3-11.4 2.6-22.8 3.9-34.3l-19.9-4.1c-.2 6.9-.2 17.1-.5 33.1z" fill="#cea992"/><path d="M237.3 213.7c.8 1.9 2.9 5.8 4.6 7 2.8 1.9 7.3 1.6 10 .5 1.1-.5 3-4.3 2.9-5.4-.2-1.7-2.2-5.4-4-7.7-2.9-3.6-5-2.3-7.3-4.2-2.3-2-2.4-6.4-5.1-5.2-3.5 1.5-3.1 11.1-1.1 15z" fill-rule="evenodd" clip-rule="evenodd" fill="#f0dfd3"/><path d="M303.1 94.6c-1.1-.5-2.5.2-3.5.9-9.6 6.3-25.9 10.9-30.2 23.8-.1.3-.2.5-.3.8-1.2 3.2-1.6 5.2-1.8 16l19.9 4.1c.1-1.3.3-2.6.4-3.9.1-2.2.2-4.5.1-6.8 2.5-.3 4.8-1 6.6-2.3 1.5-1 2.7-2.4 3.8-3.8 9.1-12.1 7.5-27.6 5-28.8z" fill-rule="evenodd" clip-rule="evenodd" fill="#cea992"/><path d="M363 161.9c-3.5-16 2.6-35.6-7.3-60.7-2.1-5.2-4.2-7.9-10.6-9.3-8.1-1.8-17.5-.2-24.1-5.2-.2-.1-.4-.3-.6-.5l-8.9 11.5-9.4 3.3c5.4 17.3 15.1 47.7 32.1 101.6h47.1c-6.5-16.8-15.3-26.8-18.3-40.7z" fill-rule="evenodd" clip-rule="evenodd" fill="#cea992"/><path d="M375.7 316.6c10 22.5 28.5 58.8 29.6 70.8 1.2 1.1 1.9 2.8 2.6 4.4.4.8 1.2 1.8 2 1.4.5-.2.7-.8.8-1.3 1.1-3 3.9-5.3 7-6.1.9-.2 1.8-.4 2.7-.4-1.5-5-2.5-9.5-5.2-23.8-1.8-9.5-3.2-19.1-5.5-28.5-3-12.6-9.6-24.5-12.6-37.1-1.5-6.4-7.2-46.9-8.6-62.2-1.2-12.9-3.9-22.8-7.2-31.1h-47.1c3 9.6 6.3 20 9.8 31.1 4.4 13.3 19.7 55.7 31.7 82.8z" fill="#cea992"/><path d="M363 161.9c-3.5-16 2.6-35.6-7.3-60.7-2.1-5.2-4.2-7.9-10.6-9.3-8.1-1.8-17.5-.2-24.1-5.2-.2-.1-.4-.3-.6-.5l-8.9 11.5-2 .7c1.4 1 3.2 2.1 5.4 3.1 5.2 2.5 11 4.5 14.4 9.1 7.8 10.3-1 25.4 2.6 37.7 2.5 8.7 10.5 14.3 16.4 21.2 10.6 12.3 11.8 23.3 12.1 33.1h20.9c-6.5-16.8-15.3-26.8-18.3-40.7z" fill="#fff"/><path d="M375.2 243.1c6.3 13.9-3 30.1-.6 45.1 2.7 16.7 15.4 16.3 30.2 76.7 2 8.2 4 16.5 7.8 23.9 1.4-1.5 3.2-2.6 5.2-3.1.9-.2 1.8-.4 2.7-.4-1.5-5-2.5-9.5-5.2-23.8-1.8-9.5-3.2-19.1-5.5-28.5-3-12.6-9.6-24.5-12.6-37.1-1.5-6.4-7.2-46.9-8.6-62.2-1.2-12.9-3.9-22.8-7.2-31.1h-20.9c.2 7.3 0 13.9 2.7 19.9 3.3 7.5 8.6 13.2 12 20.6z" opacity=".33" fill="#fffff8"/><path d="M405.4 389c-.8 10.8-.6 10.4 2.6 12 4.5 2.3 5.1 4.9 7.4 6.5 3.3 2.3 14 2.2 17.7-1 1.7-1.5 2.6-4 1.5-6-1.8-3.5-8.9-3.2-14-14.8 0-.1-.1-.2-.1-.3-.9 0-1.8.2-2.7.4-3.1.8-5.9 3.1-7 6.1-.2.5-.4 1.1-.8 1.3-.8.4-1.6-.6-2-1.4-.7-1.6-1.4-3.3-2.6-4.4v1.6z" fill-rule="evenodd" clip-rule="evenodd" fill="#b9927a"/><path d="M420.5 385.7c0-.1-.1-.2-.1-.3-.9 0-1.8.2-2.7.4-2 .5-3.8 1.6-5.2 3.1.7 1.3 1.5 2.7 2.3 4 3.2 5 10.4 12.3 17.5 14.1.2-.1.4-.3.5-.4 1.7-1.5 2.6-4 1.5-6-1.6-3.6-8.7-3.3-13.8-14.9z" fill="#fffff8" opacity=".33"/><path d="M308.4 388.9c2.3-1.7 4.7-4.4 7.4-6.2.2-1.7.3-3.3.5-4.7 7.5-46 5.7-69.5 8.1-79.7 2.4-10.1 19.4-49.1 25.2-61.6L309.3 98.5l-8.9 3.2.1 13-3.7-12.1-4.8-2.5c-.1.3-.1.6-.2.9-2.5 11.5-8.9 20.7-2.9 42.5 4.8 17.3 21.2 47.9 22.3 54.7 1.6 9.9-14.3 79.1-15 86.4-.3 2.9-.3 5.9-.2 8.9.6 22.7 3 45.5 3.5 68.2.1 4 0 7.3-.1 10-.1 3.9-2.3 7.5-5.7 9.5 6.3 2.6 8.7 12.2 14.7 7.7z" fill-rule="evenodd" clip-rule="evenodd" fill="#cea992"/><path d="M324.3 298.3c2.4-10.1 19.4-49.1 25.2-61.6l-3.9-13.3-10.7 6c-3.6 8-22.1 50.8-22.6 59.6-.5 8 4.9 16.1 5.4 30.5.7 21.8-12.3 42.7-9.9 64.4.2 1.7.5 3.4.7 5 2.2-1.7 4.6-4.3 7.2-6.1.2-1.7.3-3.3.5-4.7 7.5-46.1 5.7-69.5 8.1-79.8z" fill-rule="evenodd" clip-rule="evenodd" fill="#fffff8" opacity=".33"/><path d="M267.7 393.7c-5.8 2.1-5.2 7.5 3 8.9 8.4 1.4 16.9-1.5 25.4-1.8 7.8-.3 21.9 2 21.8-4-.1-3.1-.7-10.3-2.1-14-2.6 1.8-5.1 4.4-7.4 6.2-6 4.5-8.4-5-14.9-7.7-6.3 3.5-13.4 9-21 11.2-1.6.3-3.2.6-4.8 1.2z" fill-rule="evenodd" clip-rule="evenodd" fill="#615044"/><path d="M308.5 388.8c.6 4.1 1.2 8.3.2 12.2 5.1-.1 9.2-.9 9.2-4.2-.1-3.1-.7-10.3-2.1-14-2.6 1.6-5 4.2-7.3 6z" fill-rule="evenodd" clip-rule="evenodd" fill="#fffff8" opacity=".33"/><path d="M320.5 86.2c-9.5-8-7.5-27.1-13-25.9-3.3.7-5.7 3.6-7.5 6.5-2 3.2-3.7 6.7-4.4 10.5-.1.7-.5.3.1 2.6l-5.8 3.7c2.9 4.8 3 10.8 2 16.4l4.8 2.5 3.7 12.1-.1-13 8.9-3.2 2.3-.8 9-11.4z" fill="#e0c8b0"/><path d="M307.5 60.3c-3.3.7-5.7 3.6-7.5 6.5-1.5 2.5-2.9 5.1-3.8 7.9.8 1 1.7 2 2.6 2.9 1.6 1.5 3.4 2.9 4.2 4.9 1.5 3.9-1.8 9.8 6.6 15.8l2-.7 8.9-11.5c-9.5-7.9-7.6-26.9-13-25.8z" fill="#fffff8"/><path d="M386.2 218.2c-3.4-15.2-9.1-25.5-14.1-34.7-31.6-29.8-31.8-32.4-40.2-93.1-1.8-.2-3.5-.5-5.1-1l1.8 35.4L293 133l-1-33.2s-3.3 1.7-4.2 2.2c-.4 14.3 0 28.7 1.5 42.9 5.2 17.5 20.8 46.7 21.9 53.3 1.6 9.5-12.8 72.6-14.8 84.9H367c6.2 0 11.3-4.7 11.8-10.9 1.6-18.9 4.1-34.8 7.4-54z" fill="#233630"/><path d="M331.9 90.5c-1.8-.2-3.5-.5-5.1-1l1 19.3c.6.6 1.1 1.2 1.6 1.8 7.8 10.3-1 25.4 2.6 37.7 2.5 8.7 10.5 14.3 16.4 21.2 18.4 21.4 8.4 38.8 14.7 53 3.3 7.4 8.7 13.2 12 20.6 5.2 11.5-.3 24.6-.9 37.4 2.5-2 4.1-4.9 4.4-8.3 1.7-18.9 4.2-34.9 7.5-54-3.4-15.2-9.1-25.5-14.1-34.7-31.4-29.8-31.7-32.4-40.1-93z" fill="#315851"/><g fill="none" stroke="#c4c4bf" stroke-width=".5" stroke-miterlimit="10"><path d="M317.7 203.7h-1l-.1 1"/><path d="M316.2 206.6l-3.3 20.5c-.3 2.1 1.3 4.1 3.4 4.1l26.4.6c2.8.1 5.2-2 5.4-4.8l2-22" stroke-dasharray="2.0057,2.0057"/><path d="M350.3 204.1l.1-1h-1"/><path stroke-dasharray="2.1118,2.1118" d="M347.3 203.2l-28.5.4"/></g><path d="M272.2 66.9c4.6.1 5.2 2.9 5.2 2.9l1.7-11.4-10.8 2.7 1.8 4.3 1.3 1.2.8.3" fill-rule="evenodd" clip-rule="evenodd" fill="#615044"/><g><path d="M286.1 46.9c-8.4 3.2-13.2 13.2-9.7 23.6.8 2.6 2.2 5 2.8 7.6.4 1.6.5 3.3 1.1 4.9 1.1 2.6 3.5 4.3 5.2 6.5 3 3.9 4.2 10.4 10.3 8.6 11.7-3.5 17.3-26.2 14.1-38-2.8-10.8-12.7-17.3-23.8-13.2z" fill-rule="evenodd" clip-rule="evenodd" fill="#f8ede5"/></g><g><path d="M309.9 60c-2.5-9.6-10.7-15.7-20.4-14 3.1 4.8.6 9.5.9 14.9.3 6.1 4.1 12.7 8.4 16.8 1.6 1.5 3.4 2.9 4.2 4.9.9 2.3.1 5.3 1.1 8.7 5.8-8.6 8.1-22.8 5.8-31.3z" fill="#fffff8"/></g><g><path d="M236.4 201.6c.8-2.6 2-5.1 3.7-7.3 1-1.3 2.1-2.5 2.9-3.8.9-1.4 1.7-1.3 2.1-.3 1.3 3 .2 4.4 0 7.1-.1 2.1.6 4.3.5 6.4-.1 1.9-1 3.3-3.7 3.7-1.3.2-2.8 0-3.8-.9-.9-1-1.5-3.6-1.7-4.9z" fill-rule="evenodd" clip-rule="evenodd" fill="#fffff8"/></g><g><g fill="#fae379"><path d="M271.7 157.9c-3.8-2.4-9.3-4.2-11.7-9.2-1.9-3.7.4-9 5.1-10.9 1.2-.5 2.4-.7 3.5-.7h-7.3c-1.1 0-2.3.2-3.5.7-4.6 1.8-6.9 7.2-5.1 10.9 2.4 5 7.9 6.8 11.7 9.2h7.3zM267.6 201.9c-.2-.3-3.4-6.5 7.1-22h-7.3c-10.5 15.5-7.3 21.7-7.1 22 2 5.3 7.1 7.3 11.5 7.3h7.3c-4.4 0-9.5-2-11.5-7.3z"/></g><path d="M303.5 202.6h7.3c-3.4 7.7-13.4 18.1-22.2 21.6-3.9 1.5-7.9 2.3-11.9 2.3h-7.3c3.9 0 8-.7 11.9-2.3 8.7-3.5 18.8-13.9 22.2-21.6zM291.3 136.9c-3.7-9.8-12-15.1-21.5-15.1h-7.3c9.5 0 17.8 5.3 21.5 15.1 5.7 15-3.7 24.6-6 29l16.9 11.6h7.3l-16.9-11.6c2.2-4.4 11.6-14 6-29z" fill="#fae379"/><path d="M309.4 186.5l23.3 14.5-19.3 7.6-9.9-5.9c-3.4 7.7-13.4 18.1-22.2 21.6-3.9 1.5-7.9 2.3-11.9 2.3-11.3 0-21.9-6.1-26-16.9-6.8-18 6.3-34.5 10.7-38.2-5-3-13.6-7.9-17-17-4.1-12.2-.5-24.4 15-30.5 3.5-1.4 7.1-2.1 10.5-2.1 9.5 0 17.8 5.3 21.5 15.1 5.7 15-3.7 24.6-6 29l16.9 11.6c1.5-5 .9-15.6-.2-17.2l14.7-5.8c.1.8 4.9 19.5-.1 31.9zm-34 22.2c5.5-2.2 11.7-10 14.1-14.9l-22.1-14c-10.5 15.5-7.3 21.7-7.1 22 2 5.3 7.1 7.3 11.5 7.3 1.3.1 2.5-.1 3.6-.4m-22.6-60c2.4 5 7.9 6.8 11.7 9.2 2.4-3.9 7-9.6 4.9-15.2-1.2-3.3-4.3-5.5-8-5.5-1.1 0-2.3.2-3.5.7-4.7 1.7-7 7.1-5.1 10.8" fill="#f0b050"/><path fill="#fffff8" d="M332.7 200.9h7.3l-19.3 7.6h-7.3z"/><path d="M316.7 186.5c5-12.3.2-31 0-32h-7.3c.3 1 5 19.7 0 32l23.3 14.5h7.3l-23.3-14.5z" fill="#fae379"/></g><path d="M385.2 159.4c-5.7-14.9-17.1-44-27.6-58.7-2.4-3.3-5.3-6.5-9.1-7.8-2.9-.9-6.7-.3-8.9 2-2.5 2.7-3.8 11.1 1.4 20.1 14.8 25.6 22 38.8 29 50.2-8.5 9.5-15.5 19.2-23.5 28.9-2.6.8-6.4 1-8.4.6-2.3-.5-9.6-4.1-10.7-5.5-.1-.2-.3-.4-.6-.3-.1 0-.1.1-.2.2-1.1 1.6-.5 3.8.8 5.2 2.1 2.4 5.1 3 8.1 7-15.1 6.2-15.9 6.6-18.3 6.6-2.5 0-7-1.9-8.9.9-.2.2-.1.4.1.5 5.9 2.5 7.1 3.1 8.8 3.7 5.3 2 9.1-1.6 14.9-1.6 1.3 0 2.6.2 3.9.2 5.8-.1 12-6.1 13-7.5 6.8-4.8 30.8-25.9 34.6-30.8 4.5-3.2 3.6-8.8 1.6-13.9z" fill-rule="evenodd" clip-rule="evenodd" fill="#fffff8"/><path d="M354.8 121.7c-2.5-4.9-6.9-8.5-10.5-12.8-3.2-3.9-5.8-9-4.9-13.8-2.4 2.9-3.5 11.1 1.6 19.9 14.8 25.6 22 38.8 29 50.2-8.5 9.5-15.5 19.2-23.5 28.9-2.1.6-4.8.9-6.9.8 3 .6 5.9.7 7.6 0 6.9-2.7 28.2-24.8 28.6-29.6.4-5.7-13.4-21.3-17.1-31.8-1.4-4-2.1-8.1-3.9-11.8z" fill-rule="evenodd" clip-rule="evenodd" fill="#f8ede5"/><path d="M303.1 69.2c.5-.4 1-.7 1.5-1.1-.2-1.2-.6-2.5-.4-3.7.3-2.3 2.9-3.3 4.1-.7 1.5 3.2-.6 7.5 1.4 10.4 1 1.5 3 2.5 4.8 2.8-1.9-5.3-2.2-12.3-4.4-18.3-1.9-5-4.6-8.1-8.6-10.5-3.9 4.7-2.9 6.1-2.8 10.3.2 7.6.7 5.1 2.5 5.8.8.4 1 1.5 1.9 5z" fill-rule="evenodd" clip-rule="evenodd" fill="#ceb092"/><path d="M302.5 48.8c-4 3.5-8.3 6.8-12.6 10-9.3 7-9.5 1.6-16.1 3.6-3.7 1.2-3 4.1-1.5 4.4-2.5.4-4.8-4.8-4.2-7.5.6-2.7 3.1-4.4 5.4-5.9 9.5-6.3 8.9-8.8 14.1-10.9 6.9-2.7 16-1.1 14.9 6.3" fill-rule="evenodd" clip-rule="evenodd" fill="#615044"/><path d="M287.5 42.6c-.2.1-.4.2-.7.3.6.6 1.2 1.2 1.7 1.8 3.9 4.5 2.2 8.8 1.9 13.6 4.1-3.1 8.1-6.2 12-9.5 1.2-7.4-7.9-9-14.9-6.2z" fill="#b9927a"/><path d="M287.3 88.3l-1.8.9c-.2.1-1.5.7-1.5.1 0-.1.1-.2.1-.2 1.1-1.1 1.9-2.5 3.2-3.4.6-.4 1.4 0 1.5.7.1.4-.1.9-.4 1.2-.3.3-.7.5-1.1.7zM292.6 86.1c.8-.2 1.6-.6 2.3-.9.4-.2.7-.4 1.1-.6.1-.1.5-.5.1-.4-1.3.1-2.5.1-3.8.1-1.1-.1-3.1-.2-2.9 1.5 0 .2.1.4.2.5.1.1.3.2.5.2.9 0 1.7-.2 2.5-.4z" fill-rule="evenodd" clip-rule="evenodd" fill="#615044"/><path d="M348.4 92.9c-2.9-.9-6.7-.3-8.9 2-2.5 2.7-3.8 11.1 1.4 20.1 2.8 4.8 5.3 9.2 7.6 13.2l18.7-10.8c-3.2-6.4-6.5-12.2-9.7-16.7-2.3-3.3-5.2-6.6-9.1-7.8z" fill="#fff"/><path d="M355.8 124.1c-.3-.8-.6-1.6-1-2.3-2.5-4.9-6.9-8.5-10.5-12.8-3.2-3.9-5.8-9-4.9-13.8-2.4 2.9-3.5 11.1 1.6 19.9 2.8 4.8 5.3 9.2 7.6 13.2l7.2-4.2z" fill-rule="evenodd" clip-rule="evenodd" fill="#cea992"/><path d="M306.5 109l-6.2-7.3s9.9-5.3 18.7-16.8l3.7 3c.1 0-.8 7.7-16.2 21.1zM295.4 109.6l1.3-7s-2.3-.7-4.5-4.5l-.5 1.9c0-.1-.4 4.6 3.7 9.6z" fill-rule="evenodd" clip-rule="evenodd" fill="#f8ede5"/><path d="M238.3 205.5c.1-1 1-1.8 2.1-1.8 4 .1 10.2.3 14.1 1.7 1.2.5.9 2.3-.4 2.3h-13.8c-1.2 0-2.1-1-2-2.2zM240.7 209.3c3.2-.5 10.7-1.4 13.6.1 2.2 1.1 3.2 3.6 3 4.3-.4 1.3-12.5 6.3-15.4 4.9-2.6-1.3-4.3-8.7-1.2-9.3" fill-rule="evenodd" clip-rule="evenodd" fill="#fffff8"/><path d="M246.8 219.9c17.1-9.8 9.3 1.9 1.4 2.2-2 0-2.5-1.6-1.4-2.2z" fill-rule="evenodd" clip-rule="evenodd" fill="#fffff8"/><g><path d="M277.6 75.1c1.1-1.2 2.7-1.7 4.2-1.4.4.1.5-.5.2-.6-1.8-.3-3.6.2-4.8 1.6-.3.3.1.7.4.4z" fill="#615044"/></g><g><path d="M285.4 72.4c1.5-1.7 4.4-2.4 6.7-2.3.4 0 .4-.6 0-.6-2.4-.1-5.4.6-7.1 2.5-.2.3.2.7.4.4z" fill="#615044"/></g><g><path d="M282.8 76.2l1.2 5.1c.2.9.3 2.8.8 3.5.2.3.3.3.7.3 1.1.1 3-1.2 4-1.6.4-.2 0-.7-.3-.5-.9.4-2.3 1.4-3.3 1.4-.7 0-.5 0-.7-.7-.2-.5-.3-1.1-.4-1.6-.5-2-.9-4-1.4-6-.1-.4-.7-.2-.6.1z" fill="#e8d5c2"/></g></g><g clip-path="url(#b)"><path d="M674.6 97.3c-6.1 2-7.2 8.9-8.4 11.7-.4.9 0-.1-4.8 9.5-6 12.4-19.4 19.3-32.3 23.8-3.5 1.2-7.1 2.4-10.6 3.5 8.8 20.7 29.4 35.2 53.3 35.2 3.1 0 6.2-.3 9.1-.7v-6.8c0-67.2 2.4-79.2-6.3-76.2z" fill="#d8b49e"/><path d="M674.6 97.3c-6.1 2-7.2 8.9-8.4 11.7-.4.9 0-.1-4.8 9.5-6 12.4-19.4 19.3-32.3 23.8-3.5 1.2-7.1 2.4-10.6 3.5 8.8 20.7 29.4 35.2 53.3 35.2 3.1 0 6.2-.3 9.1-.7v-6.8c0-67.2 2.4-79.2-6.3-76.2z" fill="#b9927a"/><path d="M740.9 191.4c-.4-14.1-2.9-18.2-15.2-26l-9-5.7c-6.2 7.6-14.3 13.6-23.5 17.3 5.3 12 14.7 22.7 17.8 35.6 1.3 5.4 2.6 8.7 2.5 54 0 16.8-.9 32.1 8.2 35.2 3.5 1.2 9.6-5.3 11.1-8.7 6.8-15 8.9-72.7 8.1-101.7z" fill="#af866e"/><path d="M714.6 291.2h19c1.7-4.7 3-12.1 4.1-20.9h-24.1c-.1 7.9-.1 15.2 1 20.9zm26.3-99.8c0-1.7-.1-3.2-.2-4.7h-42.3c4 6.8 8.5 13.6 11.2 20.9H741c.1-5.9 0-11.4-.1-16.2zm-27.4 58h26.1c.5-6.8.8-13.9 1-20.9H713c.3 4.9.5 11.6.5 20.9z" fill="#e0c2b0"/><path d="M716.7 159.6c-1.8 2.2-3.8 4.3-5.9 6.2h15.6c-.2-.2-.5-.3-.7-.5-3-1.8-6-3.7-9-5.7z" fill="#615044"/><path d="M720.6 301.2c.4.2.7.4 1.2.5 3.5 1.2 9.6-5.3 11.1-8.7 6.8-15 8.8-72.6 8-101.6-.4-14.1-2.9-18.2-15.2-26l-9-5.7c-2.6 3.2-5.6 6.1-8.8 8.7 7.1 3.7 12.7 6.3 17 11.4 12.8 14.9 4.2 38 3.3 54-.9 15.6 3.6 31.5.5 46.9-1.1 5.9-2.7 10.3-8.1 20.5z" fill="#e0c2b0"/><path d="M725.7 165.4l-9-5.7c-1.8 2.2-3.8 4.3-5.9 6.2h15.6c-.2-.2-.5-.4-.7-.5zm3.1 115.1c-.7 3.6-1.6 6.7-3.3 10.7h8.1c1.7-4.7 3-12.1 4.1-20.9h-7.8c-.1 3.4-.4 6.8-1.1 10.2zm-.5-46.8c-.3 5.2 0 10.5.4 15.7h10.9c.5-6.8.8-13.9 1-20.9h-11.9c-.2 1.8-.3 3.5-.4 5.2zm12.6-42.3c0-1.7-.1-3.2-.2-4.7h-11.4c2.7 6.4 3 13.6 2.4 20.9h9.4c0-5.9-.1-11.4-.2-16.2z" fill="#fff"/><path d="M716.7 159.6c-7.6-4.9-15.3-9.8-22.9-14.7l-.4.4c-3.2 6.3-4.4 13.5-3.4 20.5.6 3.9 1.8 7.5 3.3 11.1 9.2-3.7 17.2-9.7 23.4-17.3z" fill="#d8b49e"/><path d="M719.9 332.6c-2.6-4.8-2.4-6.3-8.4-48.7-1.4-10.1-2.9-20.3-1.8-30.4 1.4-12.9 6.8-25.2 7.7-38.2 1.2-16-2.8-32.3-9.6-46.9-7.8 6.2-17.2 10.4-27.4 12-.5.1-1 .2-1.6.2-.3 0-.5.1-.8.1-.5.1-1 .1-1.5.2-.4 0-.8.1-1.1.1-.4 0-.8.1-1.2.1-.8 0-1.6.1-2.4.1-.9 0-1.8 0-2.6-.1h-.8c-.6 0-1.3-.1-1.9-.1-.3 0-.5 0-.8-.1-.8-.1-1.5-.2-2.2-.3h-.3c-.9-.1-1.7-.3-2.6-.5-.2 0-.3-.1-.5-.1-.7-.1-1.4-.3-2.1-.5-.2 0-.4-.1-.6-.1-.8-.2-1.5-.4-2.3-.6-.1 0-.1 0-.2-.1-1.7-.5-3.4-1.1-5.1-1.8-.1 0-.1-.1-.2-.1-6.7-2.8-12.8-6.8-18-11.8-5.6-5.4-10.1-11.8-13.2-19-9.6 3.2-19.1 6.6-27 12.9-7.2 5.7-12.4 13.4-17.5 21-12.9 19.3-25.2 38.9-36.8 58.9-5.5 9.4-16.7 28.3-14.9 37.3.4 1.8 1.1 3.3 2 4.7l30.8-17.1s.5-.4 1.4-1.2c.2-.7.6-1.3.9-1.9 11.2-18.3 23.8-35.8 37.6-52.2 1.8 13.7 4.7 37.7 4.4 47.7-.3 12.5-7.2 52.9-9.5 65.1-1.3 6.7-2.4 8.5-8.7 12.5-15.9 10.2-31.9 20.3-47.9 30.4v25.6s140.4 9.5 140.4 0h98.7V365c-42-22.2-48-24.2-52.4-32.4z" fill="#af866e"/><path d="M556.5 262.3c.2-.7.6-1.3.9-1.9 10.4-17.2 22.2-33.5 34.9-49 .8-1.1 1.7-2.2 2.6-3.2 5.7-6.2.4-23.1-5.8-16.8-3.1 3.2-4.8 7.4-6.7 11.3-19.1 39.8-35.5 45.4-40.7 63.6-.2.6-.3 1.1-.4 1.6l13.2-4.2.3-.2c.3 0 .8-.4 1.7-1.2z" fill="#e0c2b0"/><path d="M524.2 280.7l18.6-10.4h-20.5c-.4 2.1-.5 4-.2 5.6.5 1.8 1.2 3.4 2.1 4.8zM595.1 291.2h117.5c-.3-2.3-.7-4.7-1-7.3-.6-4.5-1.3-9.1-1.7-13.6H598.1c-.8 6.4-1.9 13.7-3 20.9z" fill="#615044"/><path d="M537.1 238.6c-1.7 2.9-3.9 6.7-6.2 10.8h33.5c4.6-7.1 9.5-14.1 14.6-20.9h-35.9c-2 3.4-4 6.7-6 10.1zm62.3 10.8h111c1.2-7 3.3-13.9 4.9-20.9H597.5c.9 7.5 1.6 15 1.9 20.9zm32.2-84.6c-5.6-5.4-10.1-11.8-13.2-19-9.6 3.2-19.1 6.6-27 12.9-2.7 2.1-5.1 4.6-7.4 7.2h48.6c-.2-.4-.6-.7-1-1.1zm83 21.9H569.3c-4.6 6.9-9 13.9-13.4 20.9h161.8c-.2-7-1.3-14-3.1-20.9z" fill="#e0c2b0"/><g fill="#fffff8"><path d="M595.5 207.6c5-6.6-.2-22.4-6.2-16.3-3.1 3.2-4.8 7.4-6.7 11.3-.8 1.7-1.6 3.4-2.5 5h15.4zM564.4 249.4c4.6-7.1 9.5-14.1 14.6-20.9h-11.3c-6.3 9.1-11.9 15.3-16.4 20.9h13.1z"/></g><path d="M707.9 168.4c-1.8-3.9-3.8-7.7-6-11.3-4.2-6.9-8.1-14.6-7.7-22.7l-25.1-5.6-37.5 36c10.4 10 24.6 16.2 40.1 16.2 13.7 0 26.3-4.7 36.2-12.6z" fill="#d8b49e"/><path d="M716.7 159.6c-6.7-4.3-13.5-8.6-20.2-12.9-1.6-4-2.6-8.1-2.4-12.3l-25.1-5.6-37.5 36c10.4 10 24.6 16.2 40.1 16.2 13.6 0 26.2-4.8 36.1-12.6 3.4-2.6 6.4-5.5 9-8.8z" fill="#b9927a"/><path d="M716.7 159.6c-6.7-4.3-13.5-8.6-20.2-12.9-1.1-2.7-1.8-5.4-2.2-8.2l-10.4 13.2c9.5 8.6 17.4 13.1 24 16.6 3.2-2.5 6.2-5.4 8.8-8.7z" fill="#f0dfd3"/><path d="M673.7 389.6h98.7v-24.7c-42.1-22.2-48.2-24.2-52.5-32.3-2.6-4.8-2.4-6.3-8.4-48.7-1.4-10.1-2.9-20.3-1.8-30.4.5-4.9 1.6-9.8 2.9-14.6-3.4-28.4-5.3-57-5.7-85.6-2.3-1.5-4.6-2.9-6.9-4.4l-2.4 51c-.2 4.2-3.7 7.5-7.9 7.5h-52.9c-5 0-8.8-4.6-7.7-9.5l12.9-61.2c-2.5 1.3-5.1 2.5-7.8 3.6-10.1 34.5-21.9 68.5-35.4 101.8.5 5.5.7 10.4.6 13.8-.3 12.5-7.2 52.9-9.5 65.1-1.3 6.7-2.4 8.5-8.7 12.5-15.9 10.2-31.9 20.3-47.9 30.4v25.6c.1.1 140.4 9.6 140.4.1z" fill="#233630"/><path d="M719.9 332.6c-2.6-4.8-2.4-6.3-8.4-48.7-1.4-10.1-2.9-20.3-1.8-30.4.5-4.9 1.6-9.8 2.9-14.6-.7-6.2-1.4-12.4-2-18.6-.4.6-.7 1.2-1.1 1.8-5.5 8.2-12.8 16-13.5 25.9-.7 9.6 5.4 19 .6 37.8-4.3 16.8-14.1 27.4 3.2 54.9 12.6 20.1 30.5 36.6 50.9 48.9h21.8v-24.7c-42.2-22.1-48.2-24.1-52.6-32.3z" fill="#315851"/><path d="M701.2 325.7c8.4 2.8 14.3 6.4 16.3 10.4M601.2 326.8c12.4-4.7 31.4-7.7 51.5-7.7M587.8 336.1c1.2-2.4 3.8-4.6 7.4-6.6" fill="none" stroke="#f5db65" stroke-width="2" stroke-linecap="round" stroke-miterlimit="10"/><path d="M582.2 350.5c5.8-11.9 36.8-20.2 70.1-20.2s64.2 8.3 70 20.2" fill="none" stroke="#faf279" stroke-width="2" stroke-linecap="round" stroke-miterlimit="10"/><path fill-rule="evenodd" clip-rule="evenodd" fill="#f0dfd3" d="M1062.5 444.8H273.7l147.6-92.9h481.6z"/><path fill-rule="evenodd" clip-rule="evenodd" fill="#e0c2b0" d="M441.3 380.2h211.4v48.2h-270z"/><path fill="#e0c2b0" d="M678.8 414.6h133.7l-11.6-15.1h-124zM713.8 286.5c-.6 1.2-1.2 2.5-1.7 3.7-23.4 52.7-28 54.7-25.7 59.9 1.1 2.4 4.2 4.9 7.2 4.6 4.5-.4 5.8-2.5 16.5-20.3 7.2-12 13.8-23.9 19.8-35.6 1.1-2.2 2.6-5.1 3.6-8.2-6.6-1.4-14.4-3-19.7-4.1z"/><path d="M726.3 289.1c-3.5 9.2-11.6 22.8-35.5 65.1.9.3 1.8.5 2.7.4 4.5-.4 5.8-2.5 16.5-20.3 7.2-12 13.8-23.9 19.8-35.6 1.1-2.2 2.6-5.1 3.6-8.2-2.2-.4-4.7-.9-7.1-1.4z" fill="#e8d1c2"/><path d="M732.3 387.3c9.1 20.6-25.6 41.1-79.6 41.1-54 0-88.7-20.5-79.6-41.1 7.4-16.8 42.5-28.3 79.6-28.3 37.1 0 72.2 11.5 79.6 28.3z" fill="#886c59"/><path fill="#886c59" d="M733.7 394.2v-5H730zM571.6 389.5v4.8h8.3z"/><path d="M732.3 383.2c9.1 20.1-25.6 40.2-79.6 40.2-54 0-88.7-20-79.6-40.2 7.4-16.4 42.5-27.6 79.6-27.6 37.1-.1 72.2 11.2 79.6 27.6z" fill="#cea992"/><path d="M707.9 383.2c4.2 13.5-24.2 26-64.2 26s-67.3-12.6-61.9-26c4.7-11.7 33.1-20.1 63.9-20.1 30.9 0 58.5 8.4 62.2 20.1z" fill="#b9927a"/><path d="M694.4 351.2v-6c0-1.7 0-3.4.3-5.1s.9-3.3 2-4.6c.6-.7 1.4-1.4 2.1-2.1 1-1.1 1.5-2.5 2.2-3.8.7-1.3 1.5-2.6 2.8-3.3.7-.4 1.4-.6 2.2-.5.6 0 1.3.2 1.8.6.6.5.7 1.4.7 2.2-.2 4-4.4 6.8-4.7 10.8-.1 2.3 1.1 4.4 1.2 6.7.1 1.3-.2 2.6-.9 3.7-.7 1-1.7 1.7-2.9 2.2-1.1.4-2.4.6-3.6.7-.6 0-1.2 0-1.8-.2-.6-.2-1.1-.6-1.2-1.2" fill="#e8d1c2"/><path d="M695.3 372.1c.1.8.2 1.7.7 2.4.5.8 1.2.8 1.5 1.7.1.2.2.5.4.5.3.1.5-.1.8-.2 3.7-2.7 5.7-7.1 7.5-11.2 1.9-4.4 3.2-9.1 3.9-13.9 1.5-9.8-3.5-9.8-4.3-13.8-.4-1.9.7-3.8.6-5.8-.1-2.5-5.4 2.4-7.6 11-.9 3.3-1.3 6.6-1.8 10-.6 4.2-1.2 8.4-1.5 12.6-.3 2.2-.4 4.5-.2 6.7z" fill="#f0dfd3"/><path d="M586 366.9c5.2-12.3 34.6-21 66.3-21s61 8.7 66.1 21" fill="none" stroke="#f5db65" stroke-width="2" stroke-linecap="round" stroke-miterlimit="10"/><path d="M699.2 385.2v-54.9h-93v54.9c-.1 10.3 19.7 19.2 46.5 19.2 26.8.1 46.5-8.8 46.5-19.2z" fill="#f5ca65"/><path d="M637.9 330.4h-31.7v54.9c0 8.3 12.7 15.7 31.7 18.3v-73.2z" fill="#b9833a"/><path d="M652.7 317c23 0 43.6 5 46.2 11.9 2.9 7.7-17.6 14.8-46.2 14.8s-49.2-7-46.2-14.8c2.5-6.8 23.1-11.9 46.2-11.9" fill="#fff"/><path d="M652.7 318.5c20.1 0 37.9 4.4 39.9 10.4 2.2 6.6-15.6 12.5-39.9 12.5-24.3 0-42-5.9-39.9-12.5 2-5.9 19.7-10.4 39.9-10.4" fill="#f0b050"/><path d="M666.7 319.3v21.5c16.7-1.8 27.6-6.6 25.9-11.8-1.5-4.6-12.1-8.2-25.9-9.7z" fill="#b9833a"/><path d="M690.5 361.3c3.6-1.9 7.1-4 10.6-6.2 2.3-1.4 6.5-3.6 5.2-7-.2-.6-.6-1.1-1.1-1.6-1.6-1.6-2.7-3.8-4.7-2.8-2.9 1.4-3.2 4.8-13 11-.8.5-1.6 1-2.5 1.4-1 .4-2 .7-3.1.9l-5.7 1.5c-1 .3-2.1.6-2.9 1.2-1.1.9-2.6 4-.1 3.8 4.7-.3 9.4-.8 14.1-1.3.5-.1 1-.1 1.5-.3.6-.1 1.2-.4 1.7-.6z" fill="#e8d1c2"/><path d="M692.3 360.4c-1.8 1-3.6 2.1-5.6 2.7-2.1.6-4.3.6-6.4.7-3.3.1-6.7.4-10 1.1-1.1.2-2.3.5-3.2 1.1-1 .6-1.8 1.5-2 2.7-.5 2.7 3.5 2.3 5.3 2.3 4.8-.1 9.6-.3 14.5-.6 1.1-.1 2.3-.2 3.4-.4 1.3-.3 2.6-.9 3.8-1.4 3.2-1.4 6.5-2.9 9.7-4.3.9-.4 1.7-.8 2.4-1.4 1.4-1.4 1.5-3.8.6-5.5-.5-.9-1.4-1.8-2.4-1.9-1.7-.2-3.2 1.2-4.6 2-1.9.8-3.7 1.9-5.5 2.9z" fill="#e8d1c2"/><path d="M688.7 369.5c-.8.3-1.6.7-2.5.8-1.4.3-2.9.2-4.3.2-2 0-4.1.1-6.1.4-1.3.2-2.6.4-3.8 1-1.2.6-2.3 1.5-2.8 2.7-.4 1-.5 2.4.9 2.5 2.2.1 4.4.1 6.6.1 1.9 0 3.8 0 5.7-.1 6.2-.5 12.1-3 17.6-5.8.4-.2.9-.4 1.2-.7.9-.8 1.3-2.2.9-3.3-.4-.9-1.2-1.7-2.2-1.9-1-.2-2.3.7-3.3 1-2.7 1-5.3 2-7.9 3.1z" fill="#e8d1c2"/><path d="M697.9 372.1c-2.8 1.3-5.5 2.6-8.3 3.8-.6.3-1.1.5-1.7.7-.6.2-1.2.2-1.8.3-1.3.2-2.6.4-3.7 1.1s-1.8 2.1-1.4 3.4c0 .2.1.3.3.4.1 0 .2.1.3.1 2.3 0 4.7 0 7-.2 1-.1 1.9-.2 2.9-.5.6-.2 1.2-.5 1.8-.8 2.7-1.4 5.4-3 7.1-5.5.4-.6.7-1.3.5-1.9-.1-.5-.5-.9-1-1-.5-.2-1-.2-1.4 0" fill="#e8d1c2"/><path d="M662.4 98.1c-.5.8-1.8.5-2.6 0s-1.5-1.3-2.5-1.2c-.6 0-1.2.3-1.8.2-1.3-.2-1.6-2-2.8-2.5-.6-.2-1.3 0-2-.2-1.8-.6-1.4-3.3-2.5-4.8-.7-.9-1.9-1.4-2.5-2.3-1-1.5-.2-3.7-1.2-5.2-.5-.7-1.3-1.1-1.6-1.9-.6-1.3.4-2.7.5-4.1.2-2.1-1.6-3.9-1.3-6 .3-2.1 2.5-3.3 3.2-5.3.5-1.6-.1-3.5.5-5.2.5-1.5 1.9-2.6 2.7-4 .8-1.6.9-3.5 1.8-5 1.6-2.5 5.4-2.9 7.3-5.2.8-1 1.3-2.3 2.2-3.2 2.2-2 5.8-.7 8.4-2.1 2.2-1.2 3.3-4.1 5.8-4.8 2-.5 4 .7 6 .5 3.7-.5 6.3-5.7 9.8-4.4.8.3 1.4 1 2.2 1.3 2.3 1.1 4.8-.5 6.9-1.8 2.1-1.4 5-2.6 6.9-1 .7.6 1.2 1.4 1.9 2 3.1 2.5 8.1-2 11.6.1 1.5.9 2.2 2.8 3.8 3.6 2.3 1.1 5.3-.8 7.5.4 1.8 1 2.3 3.4 3.9 4.7 1.1.9 2.7 1.2 3.9 2 2.2 1.7 2.3 5 4.2 7.1.9 1 2.3 1.8 2.8 3 .4 1 .3 2.1.6 3.1 1.1 3.1 5.9 3.5 7.2 6.6.7 1.7 0 3.8.7 5.6.6 1.6 2.1 2.7 2.7 4.3.6 1.9-.2 4 .2 5.9.4 1.5 1.5 2.8 1.3 4.4-.2 1.4-1.3 2.4-1.6 3.7-.2 1.1.2 2.2.2 3.4 0 1.4-.6 2.7-1.2 3.9-1.5 3-3.3 6-5.3 8.7-.5.8-1.1 1.5-1.4 2.4-.3 1.1-.3 2.3-.9 3.2-1 1.6-3.3 1.6-5 2.4-1.3.6-2.4 1.7-3.7 2.4-1.2.6-2.6.8-4 .9-2.6.2-5.1.4-7.7.5-3.9.1-8 0-11.2-2.3l-53.9-13.8z" fill="#233630"/><path d="M756.7 72.2c-.6-1.6-2.1-2.7-2.7-4.3-.6-1.8.1-3.8-.7-5.6-1.3-3.1-6.1-3.4-7.2-6.6-.3-1-.2-2.1-.6-3.1-.5-1.3-1.9-2-2.8-3-1.8-2.1-2-5.4-4.2-7.1-1.2-.9-2.8-1.1-3.9-2-1.6-1.3-2.1-3.8-3.9-4.7-2.3-1.2-5.2.7-7.5-.4-1.6-.8-2.3-2.7-3.8-3.6-3.5-2-8.5 2.4-11.6-.1-.7-.6-1.2-1.4-1.9-2-2-1.5-4.8-.3-6.9 1-7 4.5-7.1.7-9.9.3 6.2 3.5 6.2 4.5 7.5 4.5.5 0 1-.2 1.6-.2 1.4.1 2 1.9 3.1 2.8 1.2 1 3 .8 4.7.8s3.6.5 4 2.1c.3 1.1-.4 2.5.3 3.5.6.9 1.9.9 2.9 1.3 1.2.5 2 1.8 1.9 3.1 0 .8-.4 1.7.1 2.3.6.9 2.1.6 3 1.2 2.3 1.5-1.1 5.9 1 7.6.5.4 1.2.5 1.7 1 1.4 1.2-.2 3.5 0 5.4.2 1.5 1.5 2.7 1.2 4.2-.2 1.3-1.6 2.3-1.5 3.6 0 .7.5 1.2.7 1.9.8 1.9-.6 4.4-2.6 4.7l-2.9 30.6.6.1c3.1 2.3 7.3 2.4 11.2 2.3 2.6-.1 5.1-.2 7.7-.5 1.4-.1 2.7-.3 4-.9 1.3-.7 2.3-1.8 3.7-2.4 1.7-.8 4-.8 5-2.4.6-.9.5-2.1.9-3.2.3-.9.9-1.6 1.4-2.4 2-2.8 3.8-5.7 5.3-8.7.6-1.2 1.2-2.5 1.2-3.9 0-1.1-.4-2.3-.2-3.4.3-1.3 1.4-2.4 1.6-3.7.2-1.5-1-2.9-1.3-4.4-.4-1.7.5-3.8-.2-5.7z" fill-rule="evenodd" clip-rule="evenodd" fill="#755e4f"/><path fill="#615044" d="M729.3 120.9l-1.6-16.4-1.3 1 1.4 17.6z"/><path d="M664 124.2c.4 2.3 1.1 4.6 1.8 6.8 1.2 3.8 2.5 7.5 4 11.2 1.3 3.4 2.8 6.9 5.4 9.6 3.1 3.1 7.9 4.3 12 2.8 2-.7 3.8-2 5.5-3.2 3.2-2.4 6.4-4.8 9.7-7 3.2-2.1 6.5-3.9 9.3-6.6 4.2-4 6.6-9.4 8.2-14.9.8-2.9 1.4-5.5 2.8-8.2 1.5-2.8 3.2-5.5 4.8-8.3 4.2-7.1 7.8-14.7 8.5-22.9s-1.7-17-7.9-22.4c-2.6-2.3-5.8-3.9-9-5.2-3.9-1.6-7.9-2.9-12-3.4-8.4-1.1-17.2 1-24.1 5.9-6.9 4.9-11.9 12.5-13.4 20.8-.6 3.2-.7 6.5-.8 9.8-.1 2.9 0 5.7-.9 8.5-1 2.9-1.9 5.9-2.6 8.9-.7 3-1.3 6-1.6 9.1-.3 2.9.3 5.8.3 8.7z" fill="#cea992"/><path d="M687.3 154.6c2-.7 3.8-2 5.5-3.2 3.2-2.4 6.4-4.8 9.7-7 3.2-2.1 6.5-3.9 9.3-6.6 4.2-4 6.6-9.4 8.2-14.9.8-2.9 1.4-5.5 2.8-8.2 1.5-2.8 3.2-5.5 4.8-8.3 4.2-7.1 7.8-14.7 8.5-22.9.6-6.9-1-14.2-5.3-19.6l-13.3 5.4c3.5 9.5.9 20.2-3.2 29.4-8.5 19.5-12.9 16.6-14.3 30.8-.7 7.6-5.7 1.9-5.9 8-.1 2.8.2 3.3-1.8 5.4-8.1 8.3-10 11.6-15.2 10.3 3 2.1 6.8 2.6 10.2 1.4z" fill="#f0dfd3"/><path d="M667.8 100.6c-1.7 3-4.9 3.6-6.3.6-4.2-8.7 7.1-31.2 10.3-21.3l-4 20.7z" fill="#cea992"/><path d="M719.6 80.6c8.6 11.1 11.6 14.5 12.6 16.9 7.4-16.7 5.4-31.4-2.1-37.9-2.6-2.3-7.5-4.2-10.8-5.6-25.9-10.7-46.3 6.6-49.8 25.3-.2 1.3-.4 2.6-.5 3.9 4.8.9 10.1-.8 13.4-4.5 1.1-1.2 1.9-.7 5.1 1 9.8 5.2 22.1 5.5 32.1.9z" fill="#233630"/><path d="M719.7 80.6c8.6 11.1 11.6 14.5 12.6 16.8 7.4-16.7 7.1-33.2-.4-39.8-2.6-2.3-9.2-2.4-12.4-3.7-.1-.1-.3-.1-.4-.1.3 1.9-1.4 5 .2 6.3.5.4 1.2.5 1.7 1 1.4 1.2-.2 3.5 0 5.4.2 1.5 1.5 2.7 1.2 4.2-.2 1.3-1.6 2.3-1.5 3.6 0 .7.5 1.2.7 1.9.8 1.6-.2 3.6-1.7 4.4z" fill-rule="evenodd" clip-rule="evenodd" fill="#755e4f"/><path d="M719.1 80.8c-.1 0-.2.1-.3.1.1 0 .2-.1.3-.1z" fill-rule="evenodd" clip-rule="evenodd" fill="#f0dfd3"/><path d="M667.3 82.3c15.6-11.4 38.9-14.6 40.4-16.2.5-.6 1.2-3 .5-4.1-2.2-3.8-24.2-.8-32.3 2.9-2.3 1.1-3 1.8-4 3.2-2.7 4.2-4.5 9-5 13.9" fill="#3e7971"/><path d="M687.3 125.7c-1.1 1-1.5 2.5-.4 3.7.5.5 1.2.7 1.8 1 1.8.8 2.9 1.8 4.5 2.9 1.9 1.3 4.2.7 6.5.8 1.4.1 2.5-.1 3-1.5.2-.4-.5-.6-.7-.2-.5 1.2-2.5.9-3.4.8-2.5-.1-2.9.5-5.6-1.2-.8-.6-1.5-1.2-2.4-1.7-1.1-.5-5.5-1.6-2.7-4.2.2-.2-.3-.7-.6-.4z" fill="#c39d86"/><path fill="#f0dfd3" d="M668 81.8l8.2 19.7-1.1 2.3-7.7-21.2z"/><path d="M679.7 136.2c2 4.3 3.5 10.1 10 10.7 2.6.3 5.7-.9 8.4-4.6l-18.4-6.1z" fill="#b9927a"/><path d="M699.7 141.9c-1.2.8-6.2 1.3-8.6 1-5-.6-11.4-5.4-13.1-8.1l.1.1c5.2 3.3 11.5 2.2 13.8 4 1.8 1.4 1.4-.1 3.4.6 1.4.5 2.6 2 4.4 2.4" fill="#c39d86"/><path d="M657.9 61.5c4.1-3.6 10-4.9 15.2-3.6 1.5.4 3 1 4.1 2.2 1.1 1.1 1.7 2.8 1.3 4.3-.4 1.5-1.8 2.7-1.9 4.2 0 .6.1 1.2.1 1.8-.2 1.6-1.9 2.4-2.6 3.9-.6 1.3-.2 2.9-.7 4.3-.9 2.3-4.1 3-5 5.3-.4.9-.4 1.9-.9 2.6-1 1.5-3.4 1.5-4.3 3.1-.2.3-.3.7-.5 1-.9 1.2-2.9.5-4 1.5l-.8-30.6z" fill="#233630"/><path d="M705.2 129.3c2.8 2.9 7 4.1 10.9 3.3 3.9-.8 8-3.6 8.7-7.8.7-4.1-1.8-6.4-5.8-7.8-12-4.2-17.4 4-15 10.2.2.8.7 1.5 1.2 2.1zM678.4 119.4c3.6 2.6 8.6 3.1 12.7 1.6 7.1-2.5 7.4-8.9 4-12.1-2.7-2.6-10-4.5-13.1-4.1-6.2.9-9.7 10.2-3.6 14.6z" fill="#f0b050"/><g><path d="M724.9 118.8c-9.1-6.1-12.2-2.4-24.2-7.9-4.6-2.1-5.7-4.4-11.5-6.2-3.9-1.2-8.1-1.6-12-2.8-.2-.1-.9-.4-1.1-.4-.3.1-1.1 2.3-1.1 2.3 4 1.6-6.1 10.2 2.4 16.4 7.2 5.2 19.5 2.9 22.7-6.7 0 0 2.3 1.3 5.6 2.1-3.1 3.5-5 10.4-1.5 14 6.2 6.4 17.2 4.7 21.2-3.3.6-1.2 1.1-2.4 2.8-2.4.3-1 .6-2.1.9-3.1-1.3-.2-2.9-1.2-4.2-2zm-33.7 2.2c-4.2 1.5-9.1 1-12.7-1.6-6.1-4.4-2.6-13.7 3.6-14.6 3.1-.4 10.5 1.5 13.1 4.1 3.3 3.2 3 9.6-4 12.1zm33.6 3.8c-.7 4.1-4.8 7-8.7 7.8-3.9.8-8.1-.4-10.9-3.3-.5-.6-1-1.2-1.2-2-2.4-6.3 3-14.4 15-10.2 4 1.3 6.5 3.6 5.8 7.7z" fill="#fffff8"/></g><path d="M728.8 300.7c-1.4-7.5-10.9-10.6-15.6-10.7-1 0-1.8-.9-1.6-1.9l1.2-6.1c.2-.8.8-1.5 1.6-1.8 6.7-2.1 14.1-1.7 20.5 1.1 1.2.5 1.8 1.9 1.4 3.2-.9 3.5-3.5 10.5-7.5 16.2" fill="#fffff8"/><path d="M524.2 280.7c3.2 4.8 9.5 7.8 15.1 10.1 49.4 20.4 57.9 24.5 62.8 24.8 10.8.8 6.1-12.9 1.1-16.6-3.8-2.5-45.9-30.8-46.8-35.3-.1-.5 0-.9.1-1.4-.9.7-1.4 1.2-1.4 1.2l-30.9 17.2z" fill="#e0c2b0"/><g><path d="M603.2 299c-3.8-2.5-45.9-30.8-46.8-35.3v-.5l-14.9 4.7c-1 5.1 1.2 7 5.1 8.9 49.2 23.2 53 24 57.2 30.6.1.2.3.4.4.6 2-3 1.7-7-1-9z" fill="#e8d1c2"/></g><path d="M558.2 259.2s0 4.7-1.6 6.4c-.8.8-1.6 1.4-2.5 2.1-9.9 7.8-18.7 21-20.1 21.4-.3.1-.5 0-.8-.1-5.2-1.5-9.4-3.4-11.4-9-2.3-6.3.6-17.3 3.5-24.5.5-1.2 1.9-1.6 2.9-.8 4 2.9 13 8.1 30 4.5z" fill="#fffff8"/><g><path d="M595.7 312.3c1.6 3.5 4.3 6.5 7.7 8.4 1.1.6 2.4 1.2 3.7 1.4 1.7.3 3.4 0 5 .1 4.2.2 8 2.4 11.4 4.8 3.4 2.5 6.6 5.3 10.3 7.1 1.8.9 3.9 1.6 5.8 1 .6-.2 1.3-.7 1.2-1.3 0-.4-.3-.7-.6-.9-3.1-3.1-6.2-6.1-9.4-9.1-3.8-3.6-7.7-7.1-12.3-9.6-1.7-.9-3.7-1.9-4.3-3.8-.3-1.2 0-2.4-.1-3.7-.3-2.2-2.2-4-4.3-4.6-2.1-.6-4.4-.4-6.6.1-2.3.5-4.6 1.3-6.2 3.1-1.6 1.7-2.2 4.3-1.5 6.6" fill="#e0c2b0"/><path d="M625.9 310.2c2 2.6 4.1 5.2 6.1 7.8 1.2 1.6 2.5 3.2 3.6 4.8 1.2 1.8 2.2 3.8 3.2 5.7.9 1.8 1.8 3.5 2.8 5.3.7 1.4 1.4 2.7 2.1 4.1.9 2 1.7 4.2 2.5 6.3.2.6.4 1.2.3 1.8-.3 1.1-1.8 1.4-2.9 1.1-2.5-.6-4-3.1-5.3-5.3-.9-1.6-1.8-3.2-2.7-4.7-1.5-2.7-3.1-5.5-5.1-7.9-.8-1-1.7-1.8-2.6-2.7l-7.7-7.7c-1.3-1.3-2.7-2.7-3.1-4.5-.6-2.3.7-4.9 2.8-6 2.1-1.1 4.6 0 6 1.9" fill="#e0c2b0"/><path d="M634.4 306c4.3 7.4 8.6 14.9 12.4 22.6 2.2 4.5 4.3 9.2 5.4 14.2.1.3.1.6 0 .9-.1.2-.3.3-.4.4-1.4.7-3.1-.4-4.2-1.6-3.3-3.6-4.8-8.4-7.5-12.5-3-4.5-8.8-9.7-12.6-15.7-5.6-9 4.2-11.2 6.2-9" fill="#e0c2b0"/><path d="M654.9 336.2c-4.2-11.5-9.3-22.6-15.1-33.4-.1-.5-.4-.9-.8-1.5-2.6-4.2-4.7-5.3-8-5.8-7.4-1.2-15 1.3-22.4.5-5.2-.5-14.7-4.1-19.4 1.8-2.3 2.8-2.2 7.1-.2 10.1 2.4 3.7 6.5 4.8 10.3 6.6 4.4 2.1 8.9 2.6 13.6 1.8 4-.6 13.4-3.7 20-7.1.3.7.6 1.5 1.1 2.3 3.4 5.5 8.1 10.1 11.3 15.8 2.1 3.7 3.6 7.9 6.9 10.5.4.3.9.7 1.5.7.5.1 1.2-.1 1.4-.6.2-.6 0-1.2-.2-1.7z" fill="#e0c2b0"/><path d="M633.6 306c9.3-5.5 12.3-3.5 17.3-7 6.9-4.8 5.1-9.8 2.6-9.8-1.8 0-3.9 2.8-9.1 5.1-4.1 1.9-8.7 2.5-13.3 3l2.5 8.7z" fill="#e0c2b0"/></g><path d="M655 336.5c0-.1-.1-.2-.1-.3-4.2-11.5-9.3-22.6-15.1-33.4-.1-.5-.4-.9-.8-1.5-2.6-4.2-4.7-5.3-8-5.8-7.4-1.2-15 1.3-22.4.5-4.8-.5-14.1-3.9-18.9 1 6.1 3.8 12.6 7.1 19 10.3 10.3 5.2 9.8-1 21.9-4.3 2.8-.8 4.7-.6 7.2 2.3 4.8 5.7 5.6 13.9 16.9 30.7.1.2.2.3.3.5z" fill="#e8d1c2"/><path d="M706.1 338.9c0 1.1 0 2.2-.2 3.3-.8 3.1-4.2 5.2-4.4 8.4-.2 2.2 1.3 4.2 1.3 6.4 0 2.1-1.4 4.1-1.4 6.2 0 1.5.7 3 .8 4.5.1 1.7-.6 3.4-1.4 4.9-1 1.9-2.1 3.6-3.4 5.2.9-.7 1.7-1.4 2.4-2.3 3-2.7 4.8-6.6 6.3-10.2 1.9-4.4 3.2-9.1 3.9-13.9 1.3-8.6-2.4-9.7-3.9-12.5z" fill="#f0dfd3"/><path d="M696.7 111c-1.6.1-3.2.1-4.8.4-1.8.3-3.6.8-5 2-1.2 1-2.1 2.5-3.2 3.6-1.2 1.3-2.8 2.3-4.5 2.9 3.5 2.2 8.1 2.5 11.9 1.1 5.8-2 7.1-6.6 5.6-10zM724.8 124.8c.2-1.2.1-2.2-.1-3-.8.2-1.6.4-2.4.5-2.2.3-4.5.3-6.5 1.4-1.4.8-2.4 1.9-3.5 3-1.7 1.6-3.7 2.8-5.9 3.6 2.7 2.1 6.3 3 9.7 2.3 3.9-.8 8-3.7 8.7-7.8z" fill="#fae379"/><g><path d="M721.5 62c-6.6-2.7-12.8-3-14.5-1.8-1.1.8-1.3 2.2-1.4 3.5-.1 3.9 1.3.6 13.5 10.7.9.8 1.8 1.5 2.6 2.3 2.6-.5 2.1-13.7-.2-14.7z" fill="#3e7971"/><path d="M731.7 98.8c0 .6-.6 3.7.7 3.1.4-.2.6-.5.8-.9 3.8-6.9 4.3-15.2 4.1-23.1 0-2.1-.2-3.2-1.9-5.5-3.7-5-8.9-8.3-13.9-10.4 2.2 1 2.7 14.2.3 14.7 5.7 5.2 9.8 11.1 9.9 22.1z" fill="#57a296"/></g><path d="M593.2 382.6c-6.7-4.7-9.5-10.2-7.2-15.8M615.7 391.7c-2.5-.6-4.8-1.2-7-1.9" fill="none" stroke="#f5db65" stroke-width="2" stroke-linecap="round" stroke-miterlimit="10"/><path d="M703.8 386.7c-11.9 5.3-30 8.8-51.6 8.8-10.7 0-20.5-.9-29.2-2.4" fill="none" stroke="#faf279" stroke-width="2" stroke-linecap="round" stroke-miterlimit="10"/><path d="M718.4 366.9c2.2 5.3-.2 10.6-6.3 15.1M652.2 378.5c-41 0-69.8-10.9-70.9-23.3M697.2 373.2c-10.3 2.8-23.2 4.7-37.9 5.2" fill="none" stroke="#f5db65" stroke-width="2" stroke-linecap="round" stroke-miterlimit="10"/><path d="M722.3 350.5c3.7 7.6-3.4 15.1-17.9 20.5" fill="none" stroke="#faf279" stroke-width="2" stroke-linecap="round" stroke-miterlimit="10"/><path d="M666.6 358.8c-4.5.3-9.1.4-14 .4-42.2 0-70.8-11.3-64.9-23.1M717.6 336.1c3.3 6.5-4 12.9-18.4 17.3" fill="none" stroke="#f5db65" stroke-width="2" stroke-linecap="round" stroke-miterlimit="10"/></g><path d="M-12.1 10.2c18.6 24.9 35 51.5 48.9 79.4.7 1.4 1.9 2.5 3.4 2.9 2.9.7 4.3-1.5 5.2-3.6 3.3-8 2-17.2-1.5-25.1s-9.1-14.6-14.7-21.2C18.3 29.8 4.5 16.9-10.4 8.3c-1.2-.8-2.6.8-1.7 1.9z" clip-path="url(#b)" fill="#415831"/><g clip-path="url(#b)"><path d="M1018.1 253c-1.8-20.9-10.4-40.2-19-50.5-16-19.2-58.3-42.1-65.1-77.8-3.4 17.4-6.8 35-6.2 52.7 1.7 49.8 39 97.5 73.7 99 14.7.7 17.9-8.3 16.5-22.6" fill="#a1ca70"/><path d="M1004.4 254.8c-5.7-8.3-4.3-20-10.3-28-4-5.4-10.7-8.2-17.3-9.9-6.6-1.7-13.4-2.6-19.5-5.4-15.3-7.1-22.9-25-24.3-41.8-1.3-14.8.9-29.7 1.1-44.5 0-.1-.1-.3-.1-.4-3.4 17.4-6.8 35-6.2 52.7 1.7 49.8 39 97.5 73.7 99 11 .5 15.5-4.4 16.6-12.8-5.6-1.3-10.6-4.3-13.7-8.9z" fill="#7da257"/><path d="M867.9-5.6c31.1-3.5 67.5-5.3 90 17 13.8 13.7 27 44.4 10.7 61.9-4.9 5.3-12 8.5-19.2 8.3-38.7-.8-38.5-73.6-81.5-87.2" fill="#a1ca70"/><path d="M949.5 81.7c7.2.2 14.3-3 19.2-8.3 9.3-10.1 9-24.4 4.3-37.5.1 2.5.1 5.1 0 7.6-.3 4.9-1.3 9.9-4.1 13.9-4.7 6.5-14 8.5-21.6 6.2C923 56.3 922.1 23.2 906 6.8c-9.3-9.5-23.2-13.6-36.5-12.6-.5.1-1.1.1-1.6.2 43 13.6 42.8 86.4 81.6 87.3z" fill-rule="evenodd" clip-rule="evenodd" fill="#7da257"/><path d="M911.6 5c27 19.2 46.8 46.4 62.6 75.2 17.1 31.1 30.4 64.4 40 98.6 5.4 19.3 9.6 38.8 12.5 58.6.3 1.9 3.2 1.1 2.9-.8-5.5-36.6-15.1-72.4-28.9-106.8-12.6-31.4-28-62.5-48.7-89.4-11.1-14.4-24-27.4-38.9-38-1.6-1.1-3.1 1.5-1.5 2.6z" fill="#5b793e"/><path d="M912.3 88.3c20.5 10.7 46.5 6.2 68.4 13 39.1 12.1 39.9 51.2 10.7 58.6-11.6 3-19.5.4-27.9-7.6-18.3-17.5-21.4-40.6-51.2-64z" fill="#80c377"/><path d="M991.4 159.9c16.8-4.3 23.6-19 19-33-2.8-1.1-5.7-1.8-8.7-2.1-7.7-.7-15.4 1.4-23.1 2.8-7.7 1.4-15.9 1.9-22.8-1.6-6.2-3.2-10.4-9.1-14.8-14.6-7.7-9.6-16.2-18.6-27.6-22.2 28.8 23 32 45.9 50 63.1 8.5 8 16.4 10.6 28 7.6z" fill="#629c5d"/><path d="M949.1 108.1c52 20.1 89 68.1 95.2 123.5.2 1.9 3.2 1.9 3 0-6.4-56.9-44.1-105.7-97.4-126.4-1.8-.7-2.6 2.2-.8 2.9zM937.3 166.5c9.1 47.6 41.6 85.6 79.9 113.3 1.6 1.1 3.1-1.5 1.5-2.6-37.7-27.3-69.5-64.8-78.5-111.5-.4-1.9-3.3-1.1-2.9.8z" fill="#5b793e"/><path d="M1025.2 285.6c.7.4 1.5.9 2.2 1.3.7.4 1.6.2 2.1-.5.4-.7.2-1.6-.5-2.1-.7-.4-1.5-.9-2.2-1.3-.7-.4-1.6-.2-2.1.5-.5.8-.2 1.7.5 2.1z" fill="#898986"/><path d="M1030 285.8c1.9 0 1.9-3 0-3s-1.9 3 0 3z" fill="#898986"/></g><path d="M49.4 111c-3.3.3-6.5-1.4-8.6-3.9-2.2-2.5-3.4-5.6-4.5-8.7-5.7-16.3-7.4-33.8-7.9-51.1-.7-22.9.8-46.7 11.9-66.7 2.5-4.5 6.5-9.3 11.6-9 5.9.3 9.2 6.7 11.1 12.3C72.3 11.1 75.5 40 78.7 68.7c1.3 11.8 2.2 25-5.4 34.1-5.3 6.4-14.4 9.3-22.4 7.3" clip-path="url(#b)" fill="#7da257"/><path d="M70.3 102.3c-4.7-3.6-7.2-9.4-8.1-15.2-.9-5.8-.2-11.8.4-17.6.6-5.7 1.2-11.5 1.9-17.2.5-5 .6-10.9-3.4-13.8-4-2.8-9.7-.8-14.5-2.1-4.3-1.1-7.6-4.9-9.1-9.1-1.5-4.2-1.5-8.8-1.2-13.2 1.1-14.9 5.8-29.5 13.5-42.3-4.1.9-7.3 5-9.5 8.8C29.2.6 27.7 24.4 28.4 47.3c.5 17.3 2.2 34.8 7.9 51.1 1.1 3.1 2.4 6.2 4.5 8.7s5.4 4.2 8.6 3.9l1.5-.9c7.6 1.9 16.2-.6 21.6-6.4-.8-.4-1.5-.9-2.2-1.4zM37.9 175.4c2.1-12 4.1-24.8-.5-36.1-1.2-2.9-2.7-5.6-4.4-8.3-11.4-18.6-26.1-35.2-43.3-48.7-1.4-1.1-3.4-2.3-4.9-1.2-1 .7-1.2 2.1-1.2 3.3-.2 9 3.7 17.6 7.6 25.8 11.5 24.2 23.7 49.1 44.5 66 .4.3.8.6 1.2.4s.3-1-.2-.9" clip-path="url(#b)" fill="#415831"/><g clip-path="url(#b)"><path d="M82.8 161.7c-14.3 25.9-22.9 54.3-25.5 83.8-.2 1.9 2.8 1.9 3 0 2.6-28.9 11.1-56.8 25.1-82.2 1-1.8-1.6-3.3-2.6-1.6z" fill="#5b793e"/></g><g clip-path="url(#b)"><path d="M71.7 124.9c-12.3 37.1-20 76.7-19.8 115.9 0 1.9 3 1.9 3 0-.2-39 7.5-78.2 19.7-115.1.6-1.8-2.3-2.6-2.9-.8z" fill="#5b793e"/></g><g clip-path="url(#b)"><path d="M70.2 123.4c-12.1 34-19.1 69.8-21 105.9-.1 1.9 2.9 1.9 3 0 1.9-35.8 8.9-71.3 20.9-105.1.6-1.8-2.3-2.6-2.9-.8z" fill="#5b793e"/></g><g clip-path="url(#b)"><path d="M42.8 141c4.9 26 7.6 52.5 7.4 79 0 1.9 3 1.9 3 0 .3-26.7-2.6-53.5-7.5-79.8-.3-1.9-3.2-1.1-2.9.8z" fill="#5b793e"/></g><g clip-path="url(#b)"><path d="M35.7 176.4c8.9 21.1 13.8 43.6 14.4 66.5.1 1.9 3.1 1.9 3 0-.6-23.4-5.7-46.4-14.8-68-.8-1.8-3.3-.2-2.6 1.5z" fill="#5b793e"/></g><g clip-path="url(#b)"><path d="M33.5 245.9c.1-1.9.1-1.6-.4-3.4-.5-1.5-3.1-1.4-2.9.4 1 10.8 2 21.5 3 32.3.2 1.9 3.2 1.9 3 0-1-10.8-2-21.5-3-32.3-1 .1-2 .3-2.9.4.1.9.2 1.7.3 2.6-.2 1.9 2.8 1.9 2.9 0z" fill="#9b7964"/></g><path d="M73.2 125.3c-7.8-4-9.8-13.3-9.8-22-.1-17.6 6.9-34.3 14.5-50.2C88.7 30.2 101 7.8 117.6-11.3 113.9 30 104.9 70.8 91 109.9c-1.3 3.7-2.7 7.4-5.1 10.4-2.4 3.1-7.1 7-12.7 5M44 142.1c-3.6-1.4-7.1-2.7-10.7-4.1-2.7-1-5.4-2.1-7.5-4-3.2-2.9-4.6-7.2-5.8-11.3-5.1-18.2-8.1-37-8.9-55.9-.1-2.1-.1-4.5 1.4-5.9 1.9-1.8 5-1.2 7.4-.2C29.4 65 35.6 74.1 41 83c5.7 9.2 11.3 18.7 13.2 29.3 1.8 10.6-.9 22.7-9.5 29.3" clip-path="url(#b)" fill="#80c377"/><path d="M69.1 279.9c-5.8.7-18.6 1.3-28.3 1.3s-12.5-.6-6.3-1.3c6.1-.7 18.5-1.3 27.9-1.3s12.4.6 6.7 1.3z" clip-path="url(#b)" fill="#cea992"/><path d="M79.3 241.4l-55.6.6 7.5 38.5h.1c-.5.4 2.9.7 9.6.7 9.7 0 22.5-.6 28.3-1.3 1.3-.2 2.1-.3 2.5-.5h.4l7.2-38z" clip-path="url(#b)" fill="#70caba"/><path d="M41.8 241.8l-18.1.2 7.5 38.5h.1c-.5.4 2.9.7 9.6.7h4.7l-3.8-39.4z" clip-path="url(#b)" fill="#315851"/><path d="M75.4 241.5c-7.9.5-25.4.9-38.7.9s-17.1-.4-8.5-.9c8.3-.5 25.3-.8 38-.8s16.9.3 9.2.8z" clip-path="url(#b)" fill="#615044"/><g clip-path="url(#b)"><path d="M54.8 98.5c2 8.8 1.5 18.1 1.5 27 0 9.6-.2 19.1-.5 28.7-.7 18.8-2 37.5-4 56.2-.2 1.9 2.8 1.9 3 0 2.1-19.4 3.5-38.8 4.1-58.2.3-9.6.5-19.1.4-28.7 0-8.6.2-17.4-1.6-25.8-.4-1.9-3.3-1.1-2.9.8z" fill="#5b793e"/></g><path d="M82.5 168.4c-2.2-7.4-4.4-15.3-2.3-22.8 1.2-4.3 3.8-8.1 6.4-11.7 8.4-11.7 17.2-23 26.6-33.8 5.8-6.7 12-13.5 20-17.2 1.7 4.9-1.9 9.8-5.2 13.8-18.2 21.8-33.6 46.1-45.6 71.9" clip-path="url(#b)" fill="#7da257"/><path d="M117.5-10.4c0-.3.1-.6.1-.9-16.7 19-28.9 41.5-39.7 64.4-7.5 15.9-14.6 32.7-14.5 50.2.1 8.6 2.1 17.9 9.7 22-.1-.1-.2-.3-.2-.4-5.9-11 .7-23.3 6.1-32.8 10.2-18 17.6-28 13-37.8-1.8-3.8-4.3-5.2-1.6-14.1 5.5-18.5 16.1-34.8 27.1-50.6zM44 142.1l.7-.5 1.8-1.5c-1.8-1.3-3.2-3.3-3.9-5.4-2.5-7.7 2.3-16.1.5-23.9-2.5-11-15.1-5.7-22.8-14.3-5.5-6.2-7.1-22.3-8.1-31.4-.1-1.1-.2-2.1-.2-3.2-.9 1.4-.9 3.4-.8 5.1.9 18.9 3.9 37.6 8.9 55.9 1.2 4.1 2.5 8.5 5.8 11.3 2.1 1.9 4.9 3 7.5 4 3.5 1.2 7.1 2.5 10.6 3.9z" clip-path="url(#b)" fill="#415831"/><path d="M993 185.3c-1.8-.1-6.6-1-8.8-2.1-3.9-2-7.7-7.4-7.9-13.7 7.3-.8 14.6 5.7 16.7 15.8" clip-path="url(#b)" fill="#80c377"/><path d="M993.8 96.3c-1.9-1.7-3.5-3.6-5.1-5.6-1.3-1.6-2.6-3.3-3.2-5.2-.6-1.8-.6-3.8-.4-5.7.1-1.7.3-3.5 1.2-4.9 3.7 1.6 6.2 5.2 7.3 9.1s.9 8 .4 11.9" clip-path="url(#b)" fill="#a1ca70"/><path d="M971.2 269.4c-1.7-3-10.4-5.9-15.5-2.4-1.5 1-2.5 2.5-3.6 4-.9 1.3 1.3 2.2 2.7 2.8 1.9.7 3.9 1.5 5.9 1.6 4 .3 8.1-1.6 10.3-4.9" clip-path="url(#b)" fill="#7da257"/><g clip-path="url(#b)"><path fill="#886c59" d="M805.1 319.9h111.5l6.1 2.6H808.6z"/><path fill="#886c59" d="M716.8 322.5l139.6-1-.8 7.6H718.5z"/><path d="M784.1 108.6h10.4c-5.1 5.2 2.8 10 3.5 11.2h-10.4c-.7-1.2-8.7-5.9-3.5-11.2zM787.6 119.8H798l-7.3 7.4h-10.4zM796.9 65.5h10.4l4.9 5h-10.4z" fill="#fae379"/><path fill="#fae379" d="M804.4 87.9h10.3l-20.2 20.7h-10.4zM817.4 87.4h10.4l-6.8 6.9h-10.4zM811.1 81h10.4l6.3 6.4h-10.4z"/><path d="M813 59l9.8 10-11.7 12 6.3 6.4-6.8 6.9-6.3-6.4-20.3 20.7c-5.1 5.2 2.8 10 3.5 11.2l-7.2 7.4-7.9-8.1c-7.7-7.9-3.5-15-.5-18.1l22.6-23.1-4.9-5 7.2-7.4 4.9 5L813 59z" fill="#f0b050"/><path fill="#fae379" d="M822.8 69.1h10.4L821.5 81h-10.4zM813 59h10.4l9.8 10.1h-10.4z"/><path d="M830.8 94.6c-.4-.2-.8-.5-1.2-.8-1.2-.9-1.9-2.2-2.5-3.5-.7-1.6-1.2-3.2-1.9-4.8-.2-.4-.3-.7-.6-1-.2-.2-.5-.4-.7-.5-.8-.4-1.7-.7-2.6-.9-1.4-.5-2.8-1-4.1-1.7-.4.6-.1 1.4.3 1.9.9 1.2 2.4 1.9 3.8 2.5.3.2.7.3.9.6.3.4.3.8.4 1.3.1 1.7-.3 3.5.4 5-5.6-2.2-6.3-.4-4.7.3 1.5.6 2.9 1.7 4.2 2.7 2.6 1.9 4.4 2.3 5.4 2.1-.1.1.2-2.3 2.9-3.2z" fill="#755e4f"/><path d="M885.1 107.3c-5.4-5.4-18.4-2.2-29-4.5-2.5-.6-3.1-1-25.4-8.2-2.7.9-2.9 3.3-2.9 3.3 28.1 18.7 28 18.9 30.5 19.7 2.4.8 2.9.6 24.1 1.4 8.7.2 5.2-9.3 2.7-11.7z" fill="#d8b49e"/><path d="M887.2 86.3c4-9-4.6-19.5-15.6-17-8 1.9-7.9 8.7-10.5 14-1.4 2.8-1.8 2.8-2.4 7.2-.8 6.2-1 6.9-.4 7.8.6 1 2 1.2 3.2 1.1 1.4 0 2.7-.2 4.1-.4.6.2 1.1.7 1.2 1.4.4 1.9-2.6 6.8-2.6 8.7-.1 3.2 5.2 6.9 10.6 4.8l8.3-6.5c-3.2-6.9-3.1-8.4 2.6-18.5.5-.7 1.1-1.6 1.5-2.6z" fill="#755e4f"/><path d="M887.2 86.3c3-7-1.3-14.8-8.5-16.8 2 1.8 3.3 4.7 3.2 7.5-.1 9.1-9.6 15.8-9.7 24.9-.1 4 1.7 7.6 4 11l6.9-5.4c-3.2-6.9-3.1-8.4 2.6-18.5.5-.8 1.1-1.7 1.5-2.7z" fill="#cea992"/><path fill-rule="evenodd" clip-rule="evenodd" fill="#233630" d="M862 210.7h28.2v57.4H862z"/><path d="M847.2 323.8c-2.7 1.5-1.4 5.5 7.5 5.5 6 0 6.9-.8 10.1-1.2 4.4-.5 11.4 1.3 12.9-1 .6-.9.8-1-.2-11.4-.6.4-1.2 1.3-2 2.5-4 6.3-6.8-.8-10-2.3v.1c-14.6 8.2-16 6.5-18.3 7.8z" fill="#f8ede5"/><path d="M891.4 111.6c-2.7-4.3-8.9-7.7-14.7-8H875c-8.5.2-14 2.3-18.6 3.8-4.4 1.4-5.3 3.7-6.5 6.6-3.2 7.9-4.3 16.2-5.2 24.6-2 19.8-2.3 39.7-.8 59.6h49.2c-.2-1.1-.5-2.1-.8-3.2-2.2-8.5-6.8-16.6-6.6-25.4.2-9.8 6.7-18.8 8.3-42.1.3-5.5.3-11.3-2.6-15.9z" fill="#f0dfd3"/><path d="M916.8 306.2c-2.5-10.1-4.9-20.1-7.8-30.1-2.8-9.7-6.9-19.2-9.2-29-3.9-16-3.1-32.9-6.6-49h-30.6c.4 1.4.9 2.8 1.3 4.2 12.5 36.2 27.1 71.7 43.3 106.4v.1c.4-.7 1.5-1 2.3-.8 1.8.5 2.6 2.5 4 3.6.7.6 1.7.9 2.6.6 1.1-.4 1.6-1.7 2.4-2.6-.6-.9-1.1-2.1-1.7-3.4z" fill="#d8b49e"/><path d="M916.8 306.2c-2.5-10.1-4.9-20.1-7.8-30.1-2.8-9.7-6.9-19.2-9.2-29-3.9-16-3.1-32.9-6.6-49H844c.1 1.4.2 2.7.3 4.1 2.5 27.9 8.4 55.3 14.3 82.6 2.3 10.4 4.5 20.8 6.8 31.2 3.3 1.5 6 8.6 10 2.3.8-1.2 1.4-2 2-2.5-.6-6.4-1.6-16.6-3.3-33.2-3.7-37.5-8.3-19.2-3.4-60.8 10.8 29.5 23.1 58.5 36.3 87v.1c.4-.7 1.5-1 2.3-.8 1.8.5 2.6 2.5 4 3.6.7.6 1.7.9 2.6.6 1.1-.4 1.6-1.7 2.4-2.6-.4-1-.9-2.2-1.5-3.5z" fill="#d8b49e"/><path d="M908.9 276.1c-2.8-9.7-6.9-19.2-9.2-29-3.9-16-3.1-32.9-6.6-49H883c4 4.6 6.1 10.8 5.8 16.9-.3 6.7-3.5 13.3-2.6 20 1.2 8.4 8.5 14.7 10.3 23 .9 4.5.2 9.2 1.2 13.6 1.4 6.1 6.1 10.9 9.1 16.5 3.8 7.2 4.9 16.3 7.8 24.1.5.1.9.1 1.4 0 1.1-.4 1.6-1.7 2.4-2.6-.5-1-1.1-2.1-1.6-3.4-2.5-10-4.9-20.1-7.9-30.1z" fill="#cea992"/><path d="M843.7 194.1h48.4c-.2-.7-.4-1.5-.7-2.2h-47.9c.1.7.1 1.4.2 2.2z" fill-rule="evenodd" clip-rule="evenodd" fill="#615044"/><g><path d="M915.4 321.4c2.5-.3 1.7 1.6 5.7 1.1 3-.4 6.7-2.1 6.3-4-.5-2.5-3.9.8-9-8.9-.8.9-1.3 2.2-2.4 2.6-.9.3-1.8 0-2.6-.6-1.5-1.1-2.2-3.1-4-3.6-.8-.2-1.9 0-2.3.8 0 3 .1 6.1.1 9.1.1 4.8.1 4.5 8.2 3.5z" fill="#f8ede5"/></g><g><path d="M918.4 309.7c-.8.9-1.3 2.2-2.4 2.6-.4.2-.9.2-1.4 0 1.4 3.9 3.2 7.4 6 10.3h.4c3-.4 6.7-2.1 6.3-4-.5-2.5-3.8.7-8.9-8.9z" fill="#fffff8"/></g><path d="M871.6 69.4c-2.1.5-3.6 1.3-4.8 2.4 1.1.8 5.3 4 5.5 4.5.3.9-1.2 2.9-1.1 4 .2 1.8 2.5 1.3-.2 5.8.4.1 1.4.7 1.9.8.3-.9.6-1.9 1.3-2.6 1.9-2.3 4.6-.7 4.2 2-.5 3.4-3.6 3.2-3.2 7.1.5 4.1 3.2 5.9 5.7 6 .3-2 1.3-4.3 3.2-7.8.7-1.3 1.5-2.5 2.2-3.8.3-.5.6-1 .8-1.5 4.1-9-4.5-19.5-15.5-16.9z" fill-rule="evenodd" clip-rule="evenodd" fill="#615044"/><path d="M887.2 86.3c3-7-1.3-14.8-8.5-16.8 2 1.8 3.3 4.7 3.2 7.5-.1 5.7-3.9 10.5-6.7 15.5v.9c.5 4.1 3.2 5.9 5.7 6 .3-2 1.3-4.3 3.2-7.8.7-1.3 1.5-2.5 2.2-3.8.4-.4.7-.9.9-1.5z" fill="#b9927a"/><path d="M877.4 217.7c5.9-5.4 8.7-12.6 8.4-19.5h-14c-.6 4.5-2 9-4.2 13-2.9 5.3-7.2 10.1-8.3 16.1-2 11.4 7.8 20 5.4 38.4-.8 6.4-3.1 13-1.2 19.2 1.8 6.2 9.3 13.2 10.5 30.1.1 1.6.1 3.3.1 4.9.4-.4.9-.9 1.3-1.6.8-1.2 1.4-2 2-2.5-.6-6.4-1.6-16.6-3.3-33.2-3.7-37.5-8.3-19.2-3.4-60.8 0 .1.1.2.1.4 0-.1.1-.2.1-.3.8-1.9 3.2-1.2 6.5-4.2z" fill="#cea992"/><path d="M891.4 111.6c-2.7-4.3-8.9-7.7-14.7-8H875c-.9 0-1.8.1-2.7.1 1 7.9 8.7 14 11.4 21.8 3.6 10.4-2.3 21.4-7.4 31.1-5.7 10.9-7.1 18.5-6.2 24.1.1 2.6 3.5 8 1.7 17.5H893c-.2-1.1-.5-2.1-.8-3.2-2.2-8.5-6.8-16.6-6.6-25.4.2-9.8 6.7-18.8 8.3-42.1.4-5.5.4-11.3-2.5-15.9z" fill="#fffff8"/><path d="M872.3 194.1h19.8c-.2-.7-.4-1.5-.7-2.2h-19.1c.1.7 0 1.4 0 2.2z" fill="#f0dfd3"/><path d="M855.8 176.3c-.2-2.5-.6-5.1-1.1-7.6l-9-38.2c-.4 2.7-.7 5.3-1 8-2.2 21.1-2.3 42.5-.5 63.6 2 22.2 6.1 44.1 10.8 65.9h7.1l-6.3-91.7z" fill="#233630"/><path d="M877.6 327.1c.6-.9.8-1-.2-11.4-.6.4-1.2 1.3-2 2.5-.4.7-.9 1.2-1.3 1.6-.4 4-1.5 7-2.2 8.4 2.6.2 4.9.1 5.7-1.1z" fill-rule="evenodd" clip-rule="evenodd" fill="#fffff8"/><g><path d="M863.1 115.3c-.5-3.9-2.8-9-5.9-8.2-9.3 2.6-30.4 14.9-39.6 20.9l-23.1-3.2s-3.2 1.1-4 5.6l22.4 7.7c3.3 1.1 7 1.1 10.3 0 6-2 15.6-5.4 20.9-7.4 6.8-2.6 15.5-4.3 18.5-11.8.4-1.1.7-2.4.5-3.6z" fill="#f0dfd3"/><path d="M863.1 115.3c-.5-3.9-2.8-9-5.9-8.2-9.3 2.6-30.4 14.9-39.6 20.9l-23.1-3.2s-3.2 1.1-4 5.6l22.4 7.7c3.3 1.1 7 1.1 10.3 0 6-2 15.6-5.4 20.9-7.4 6.8-2.6 15.5-4.3 18.5-11.8.4-1.1.7-2.4.5-3.6z" fill="#f0dfd3"/><path d="M794.5 124.9c-.6-2.5-1.8-2-4.2-9-.8-2.2-2.5-.5-1.7 2.8.5 2 1.3 2.7 1.1 5.1-8.6 4.5-7.4 3-10.1 3.9-2 .6-2.7 2.5-1.4 2.5 2.4 0 4.8-.3 7.2-.2 1.5 0 3 .2 4.6.2v.1l.6.2c.7-4.5 3.9-5.6 3.9-5.6z" fill="#755e4f"/></g><path d="M872.5 105l.6-1.3c-7 .4-11.9 2.1-15.9 3.5-9.3 2.6-30.4 14.9-39.6 20.9l-23.1-3.2s-.8.3-1.7 1.1l25.8 4.5c.2-.1 29.5-21.1 53.9-25.5z" fill-rule="evenodd" clip-rule="evenodd" fill="#fffff8"/></g></svg>