<svg xmlns="http://www.w3.org/2000/svg" viewBox="0 0 250 250"><path d="M66.1 45.9h9.6c-4.7 4.9 2.6 9.3 3.2 10.4h-9.6c-.6-1.2-7.9-5.6-3.2-10.4z" fill="#fae379"/><path fill="#fae379" d="M69.3 56.2H79L72.3 63h-9.6zM78 6h9.6l4.5 4.6h-9.6zM84.9 26.7h9.6L75.7 45.9h-9.6zM96.9 26.2h9.7l-6.3 6.4h-9.6z"/><path fill="#fae379" d="M91.1 20.3h9.6l5.9 5.9h-9.7z"/><path d="M92.8 0l9.1 9.3-10.8 11 5.8 6-6.3 6.4-5.8-5.9-18.7 19.1c-4.7 4.9 2.6 9.3 3.2 10.4L62.7 63l-7.3-7.5c-7.1-7.3-3.2-13.9-.4-16.8l20.9-21.4-4.5-4.6L78 6l4.5 4.6L92.8 0z" fill="#f0b050"/><path fill="#fae379" d="M101.9 9.3h9.6l-10.8 11h-9.6zM92.8 0h9.7l9 9.3h-9.6z"/><path d="M109.3 32.9c-.4-.2-.7-.4-1.1-.7-1.1-.8-1.8-2-2.4-3.2-.7-1.4-1.1-3-1.7-4.4-.2-.3-.3-.7-.6-.9-.2-.2-.4-.3-.7-.5-.8-.4-1.6-.6-2.4-.9-1.3-.4-2.6-.9-3.8-1.6-.3.5-.1 1.3.3 1.8.9 1.1 2.2 1.7 3.5 2.3.3.2.6.3.8.6.3.3.3.8.3 1.2.1 1.6-.2 3.2.3 4.7-5.2-2-5.8-.4-4.3.3 1.4.6 2.6 1.6 3.9 2.5 2.4 1.7 4.1 2.1 5 1.9.2-.1.4-2.2 2.9-3.1z" fill="#755e4f"/><path d="M159.6 44.6c-5-5-17-2-26.8-4.2-2.3-.5-2.9-.9-23.5-7.5-2.5.9-2.7 3-2.7 3 26 17.3 25.9 17.5 28.3 18.2 2.2.7 2.7.6 22.3 1.3 8 .3 4.7-8.5 2.4-10.8z" fill="#d8b49e"/><path d="M161.5 25.2c3.7-8.3-4.3-18-14.4-15.7-7.4 1.7-7.3 8.1-9.7 13-1.3 2.6-1.7 2.6-2.2 6.6-.7 5.7-1 6.4-.4 7.3.6.9 1.8 1.1 2.9 1.1 1.3 0 2.5-.2 3.8-.4.5.2 1 .7 1.1 1.3.4 1.8-2.4 6.3-2.4 8.1-.1 2.9 4.8 6.4 9.8 4.4l7.7-6c-2.9-6.4-2.9-7.7 2.4-17.2.5-.8 1-1.6 1.4-2.5z" fill="#755e4f"/><path d="M161.5 25.2c2.8-6.4-1.2-13.7-7.9-15.6 1.9 1.7 3 4.4 3 6.9-.1 8.4-8.9 14.6-9 23-.1 3.7 1.6 7 3.7 10.2l6.4-5c-2.9-6.4-2.9-7.7 2.4-17.2.5-.6 1-1.4 1.4-2.3z" fill="#cea992"/><path fill-rule="evenodd" clip-rule="evenodd" fill="#233630" d="M138.2 140.3h26.1v53.1h-26.1z"/><path d="M124.5 244.9c-2.5 1.4-1.3 5.1 6.9 5.1 5.5 0 6.4-.8 9.3-1.1 4.1-.4 10.5 1.2 12-.9.6-.8.7-1-.2-10.5-.5.4-1.1 1.2-1.9 2.3-3.7 5.8-6.3-.7-9.3-2.1v.1c-13.4 7.5-14.7 5.9-16.8 7.1z" fill="#f8ede5"/><path d="M165.4 48.6c-2.5-4-8.3-7.1-13.6-7.4H150.2c-7.9.2-13 2.1-17.2 3.5-4 1.3-4.9 3.4-6 6.1-3 7.3-4 15-4.8 22.7-1.9 18.3-2.1 36.8-.7 55.1H167c-.2-1-.5-2-.7-3-2.1-7.9-6.3-15.4-6.1-23.5.2-9.1 6.2-17.4 7.6-39 .3-4.9.3-10.2-2.4-14.5z" fill="#f0dfd3"/><path d="M188.9 228.7c-2.3-9.3-4.6-18.6-7.3-27.8-2.6-8.9-6.3-17.8-8.6-26.8-3.6-14.8-2.8-30.4-6.1-45.3h-28.3l1.2 3.9C151.4 166 165 198.9 180 231v.1c.4-.7 1.4-.9 2.1-.7 1.7.5 2.4 2.3 3.7 3.3.7.5 1.6.8 2.4.5 1-.4 1.5-1.6 2.2-2.4-.5-.9-1-1.9-1.5-3.1z" fill="#d8b49e"/><path d="M188.9 228.7c-2.3-9.3-4.6-18.6-7.3-27.8-2.6-8.9-6.3-17.8-8.6-26.8-3.6-14.8-2.8-30.4-6.1-45.3h-45.5c.1 1.2.2 2.5.3 3.7 2.3 25.8 7.8 51.1 13.3 76.4l6.3 28.8c3 1.4 5.6 7.9 9.3 2.1.7-1.1 1.3-1.9 1.9-2.3-.6-5.9-1.5-15.3-3-30.7-3.4-34.7-7.7-17.8-3.1-56.2 10 27.3 21.3 54.1 33.6 80.4v.1c.4-.7 1.4-.9 2.1-.7 1.7.5 2.4 2.3 3.7 3.3.7.5 1.6.8 2.4.5 1-.4 1.5-1.6 2.2-2.4-.5-.9-1-1.9-1.5-3.1z" fill="#d8b49e"/><path d="M181.6 200.8c-2.6-8.9-6.3-17.8-8.6-26.8-3.6-14.8-2.8-30.4-6.1-45.3h-9.3c3.7 4.3 5.7 10 5.4 15.6-.3 6.2-3.3 12.3-2.4 18.5 1.1 7.7 7.9 13.6 9.5 21.3.9 4.1.2 8.5 1.1 12.6 1.3 5.7 5.6 10.1 8.4 15.3 3.5 6.6 4.6 15 7.2 22.3.4.1.9.1 1.3 0 1-.4 1.5-1.6 2.2-2.4-.5-.9-1-2-1.5-3.2-2.2-9.3-4.5-18.7-7.2-27.9z" fill="#cea992"/><path d="M121.2 124.9H166l-.6-2.1h-44.3c0 .8.1 1.4.1 2.1z" fill-rule="evenodd" clip-rule="evenodd" fill="#615044"/><g><path d="M187.6 242.7c2.3-.3 1.5 1.5 5.2 1 2.8-.3 6.2-1.9 5.8-3.7-.5-2.3-3.6.7-8.3-8.2-.7.8-1.2 2-2.2 2.4-.8.3-1.7 0-2.4-.5-1.3-1-2.1-2.9-3.7-3.3-.8-.2-1.7 0-2.1.7 0 2.8.1 5.6.1 8.4.1 4.4.1 4.1 7.6 3.2z" fill="#f8ede5"/></g><g><path d="M190.4 231.8c-.7.8-1.2 2-2.2 2.4-.4.2-.9.1-1.3 0 1.3 3.6 3 6.9 5.6 9.5h.4c2.8-.3 6.2-1.9 5.8-3.7-.5-2.2-3.6.8-8.3-8.2z" fill="#fffff8"/></g><path d="M147.1 9.6c-1.9.5-3.4 1.2-4.5 2.2 1 .7 4.9 3.7 5.1 4.2.3.8-1.1 2.7-1 3.7.2 1.7 2.3 1.2-.1 5.4.4.1 1.3.7 1.8.8.3-.9.6-1.7 1.2-2.4 1.8-2.1 4.3-.6 3.9 1.8-.5 3.2-3.4 3-2.9 6.6.5 3.8 2.9 5.4 5.3 5.6.3-1.9 1.2-4 2.9-7.3.6-1.2 1.4-2.3 2.1-3.5.3-.4.5-.9.7-1.4 3.6-8.4-4.3-18.1-14.5-15.7z" fill-rule="evenodd" clip-rule="evenodd" fill="#615044"/><path d="M161.5 25.2c2.8-6.4-1.2-13.7-7.9-15.6 1.9 1.7 3 4.4 3 6.9-.1 5.3-3.6 9.7-6.2 14.3v.8c.5 3.8 2.9 5.4 5.3 5.6.3-1.9 1.2-4 2.9-7.3.6-1.2 1.4-2.3 2.1-3.5.4-.2.6-.7.8-1.2z" fill="#b9927a"/><path d="M152.5 146.8c5.5-5 8-11.7 7.7-18.1h-12.9c-.5 4.2-1.8 8.3-3.9 12-2.7 4.9-6.7 9.4-7.7 14.9-1.9 10.5 7.2 18.5 5 35.5-.8 5.9-2.8 12-1.1 17.7 1.7 5.8 8.6 12.2 9.7 27.8.1 1.5.1 3 .1 4.6.4-.4.8-.9 1.2-1.5.7-1.1 1.3-1.9 1.9-2.3-.6-5.9-1.5-15.3-3-30.7-3.4-34.7-7.7-17.8-3.1-56.2 0 .1.1.2.1.3 0-.1.1-.2.1-.3.6-1.6 2.8-.9 5.9-3.7z" fill="#cea992"/><path d="M165.4 48.6c-2.5-4-8.3-7.1-13.6-7.4H150.2c-.9 0-1.7.1-2.5.1.9 7.3 8.1 12.9 10.6 20.1 3.3 9.6-2.1 19.8-6.8 28.7-5.3 10.1-6.5 17.1-5.7 22.3 0 2.4 3.2 7.4 1.6 16.2H167c-.2-1-.5-2-.7-3-2.1-7.9-6.3-15.4-6.1-23.5.2-9.1 6.2-17.4 7.6-39 .3-4.9.3-10.2-2.4-14.5z" fill="#fffff8"/><path d="M147.7 124.9H166l-.6-2.1h-17.6c0 .7 0 1.4-.1 2.1z" fill="#f0dfd3"/><path d="M132.5 108.5c-.2-2.4-.5-4.7-1.1-7l-8.3-35.3c-.4 2.5-.6 4.9-.9 7.4-2 19.5-2.2 39.3-.4 58.8 1.8 20.5 5.7 40.8 10 61h6.5l-5.8-84.9z" fill="#233630"/><path d="M152.7 248c.6-.8.7-1-.2-10.5-.5.4-1.1 1.2-1.9 2.3-.4.7-.8 1.1-1.2 1.5-.4 3.7-1.4 6.5-2 7.8 2.4.1 4.5 0 5.3-1.1z" fill-rule="evenodd" clip-rule="evenodd" fill="#fffff8"/><g><path d="M139.2 52c-.5-3.6-2.6-8.3-5.5-7.5-8.6 2.4-28.2 13.8-36.7 19.3l-21.4-2.9s-2.9 1-3.7 5.1l20.7 7.1c3.1 1.1 6.4 1.1 9.5 0 5.5-1.9 14.5-5 19.3-6.8 6.3-2.4 14.4-4 17.1-11 .6-1 .9-2.1.7-3.3z" fill="#f0dfd3"/><path d="M139.2 52c-.5-3.6-2.6-8.3-5.5-7.5-8.6 2.4-28.2 13.8-36.7 19.3l-21.4-2.9s-2.9 1-3.7 5.1l20.7 7.1c3.1 1.1 6.4 1.1 9.5 0 5.5-1.9 14.5-5 19.3-6.8 6.3-2.4 14.4-4 17.1-11 .6-1 .9-2.1.7-3.3z" fill="#f0dfd3"/><path d="M75.7 60.9c-.5-2.3-1.7-1.8-3.9-8.3-.7-2.1-2.3-.5-1.6 2.6.4 1.8 1.2 2.5 1 4.7-8 4.1-6.9 2.8-9.3 3.6-1.8.6-2.5 2.3-1.3 2.3 2.2 0 4.4-.2 6.7-.2 1.4 0 2.8.2 4.2.2v.1l.5.2c.8-4.2 3.7-5.2 3.7-5.2z" fill="#755e4f"/></g><path d="M147.9 42.5l.5-1.2c-6.5.4-11 2-14.7 3.2-8.6 2.4-28.2 13.8-36.7 19.3l-21.4-2.9s-.7.2-1.6 1L97.9 66c.3 0 27.5-19.4 50-23.5z" fill-rule="evenodd" clip-rule="evenodd" fill="#fffff8"/></svg>