<svg id="Layer_1" data-name="Layer 1" xmlns="http://www.w3.org/2000/svg" viewBox="0 0 250 130.3901"><defs><style>.cls-1{fill:#ff8479;}.cls-2{fill:#ff090c;}.cls-3{fill:#fff;}.cls-4{fill:#ffaaa2;}.cls-5{fill:#f0f;}.cls-6{fill:#661c3f;}.cls-7{fill:#380812;}.cls-8{fill:#95122e;}.cls-9{fill:#ffd5c7;}.cls-10{fill:#b9090b;}</style></defs><title>netflix-thumb-layer1</title><path class="cls-1" d="M178.0946,129.3728a63.2841,63.2841,0,0,1,6.4914-3.6893l-2.1884-3.253q-1.1005.61-2.1937,1.2333-4.1631,2.3742-8.2155,4.9353l-25.3078-9.3322-3.4386.86-.49,2.2059-.1793.807C171.1958,133.9047,169.8812,134.7442,178.0946,129.3728Z" transform="translate(0 -57.8049)"/><path class="cls-2" d="M170.1207,141.1064l11.9234-5.9922c2.23-.63,4.8837-1.3953,7.4467-2.14l-4.9048-7.2909a63.2841,63.2841,0,0,0-6.4914,3.6893c-8.2134,5.3714-6.8988,4.5319-35.5221-6.2334l-.3621,1.6292Z" transform="translate(0 -57.8049)"/><path class="cls-3" d="M216.6862,117.7045c-9.7372-6.3-13.13-5.5659-18.843-3.0055q-7.8835,3.5328-15.4456,7.7315l2.1884,3.253c7.92-3.9356,16.5763-6.4268,25.1214-8.8595a11.2532,11.2532,0,0,1-.7714,4.7754l5.115-2.5706Z" transform="translate(0 -57.8049)"/><path class="cls-4" d="M209.7074,116.824c-8.5451,2.4327-17.2016,4.9239-25.1214,8.8595l4.9048,7.2909c5.287-1.5357,10.1882-2.9844,10.1882-2.9844l-.1614-3.6573,9.4184-4.7333A11.2532,11.2532,0,0,0,209.7074,116.824Z" transform="translate(0 -57.8049)"/><path class="cls-5" d="M214.47,123.442a7.6116,7.6116,0,0,1-2.2233-1.5861,21.5131,21.5131,0,0,0-1.15,3.7908c-.8082,3.9635.1856,5.7615,1.8594,7.3605a15.8111,15.8111,0,0,0,7.5335,4.0779l5.2317-10.7919A25.7538,25.7538,0,0,1,214.47,123.442Z" transform="translate(0 -57.8049)"/><path class="cls-3" d="M220.83,137.1635a15.89,15.89,0,0,1-7.8744-4.1563c-1.6738-1.599-2.6676-3.397-1.8594-7.3605a21.7991,21.7991,0,0,1,4.489-9.4167,20.65,20.65,0,0,0-3.6629-.2978c-6.7589.1486-12.7459,4.1114-18.4921,7.6732-12.412,7.6936-25.99,14.2433-40.54,15.4941l.88,4.5675,23.8069,25.278,7.323-2.6381C199.0091,160.1144,210.7416,149.0528,220.83,137.1635Z" transform="translate(0 -57.8049)"/><path class="cls-4" d="M229.2971,147.9545l1.1264-9.1691a50.2586,50.2586,0,0,0-5.0651-.9313c-1.3936-.1861-2.9238-.3354-4.528-.6906-10.0888,11.8893-21.8213,22.9509-35.93,29.1434l8.7773,6.3835Z" transform="translate(0 -57.8049)"/><path class="cls-1" d="M228.2784,120.081a63.8018,63.8018,0,0,0-12.6928-3.851,21.7991,21.7991,0,0,0-4.489,9.4167c-.8082,3.9635.1856,5.7615,1.8594,7.3605,4.3334,4.14,8.8185,4.3682,12.4024,4.8469a50.2586,50.2586,0,0,1,5.0651.9313l1.93-15.7138C231.5826,121.5292,229.878,120.7253,228.2784,120.081Z" transform="translate(0 -57.8049)"/><path class="cls-6" d="M30.7092,101.0949a4.81,4.81,0,0,1-1.6407-.7539c-2.1306-1.5627-2.19-4.7173-1.6463-7.3029a31.9784,31.9784,0,0,0,.9532-5.2085,64.3629,64.3629,0,0,0-8.3217-1.92c-5.1163-.736-10.47-.3905-15.2885-2.2621C3.7308,83.2455,1.3811,82.1782.381,83.2c-.7269.743-.2438,2.599.0561,3.4873,2.3075,6.8364,11.0372,7.2379,16.0017,11.3178a16.8,16.8,0,0,1,1.7889,1.74C24.6912,103.5542,27.93,102.7626,30.7092,101.0949Z" transform="translate(0 -57.8049)"/><path class="cls-7" d="M30.4545,107.5077c2.2275-.71,3.7529-2.7939,5.881-3.762a7.5456,7.5456,0,0,1,2.6757-.6333,8.8615,8.8615,0,0,0-3.5045-1.46c-1.5736-.2766-3.2908-.1573-4.7975-.5573-2.7789,1.6677-6.018,2.4593-12.4815-1.35,1.4392,1.5939,2.6843,3.3859,4.2031,4.912C24.539,106.7755,27.6072,108.4153,30.4545,107.5077Z" transform="translate(0 -57.8049)"/><path class="cls-6" d="M49.2953,173.394a13.3471,13.3471,0,0,0,4.2791-1.5068,3.9652,3.9652,0,0,1-1.2433-1.36c-.7976-1.4523-.5925-3.2267-.9039-4.8541a7.6819,7.6819,0,0,0-1.8282-3.6547,54.1076,54.1076,0,0,1-21.0672,4.4091c-1.5415.0279-3.4579.1163-4.7058,1.1481-1.5777,1.3043-.5058,3.8066.46,5.22a10.3782,10.3782,0,0,0,.86,1.06A64.8531,64.8531,0,0,0,49.2953,173.394Z" transform="translate(0 -57.8049)"/><path class="cls-7" d="M33.0325,179.7381c4.9329,2.161,7.7826.428,9.6847-.26,5.8621-2.12,11.3588.3036,16.4127-1.8521a6.6932,6.6932,0,0,0,4.272-4.6058l-.0518.0445a9.0913,9.0913,0,0,1,1.279-2.579c-1.67.6346-3.2842,1.4826-5.0007,1.9914a7.4061,7.4061,0,0,1-6.054-.59,13.3471,13.3471,0,0,1-4.2791,1.5068,64.8531,64.8531,0,0,1-24.1486.4615A27.4017,27.4017,0,0,0,33.0325,179.7381Z" transform="translate(0 -57.8049)"/><path class="cls-8" d="M158.127,140.054a92.8558,92.8558,0,0,1-16.53-14.8622c-4.053-4.6366-18.0359-16.2216-24.2858-20.8432C108.1851,97.6,104.3448,96.5,92.9079,94.9406,80.84,93.2958,68.7445,91.6486,56.57,91.3018c-2.7154-.0773-5.4408-.0915-8.16-.17-.0305,1.6833-.0716,3.8451-.121,6.1858,2.1548.4264,4.297,1.0163,6.3561,1.6144,19.4427,5.6471,26.3251,8.15,34.2266,7.5379,3.7-.2867,7.38-1.3366,11.0659-.9128,7.1909.8267,12.4851,6.8864,17.0332,12.5175q6.3465,7.8575,12.6928,15.715l-8.746,4.9675c9.5679,10.5167,18.4595,18.6512,21.2,20.0861,4.023,2.1062,12.1136,2.7814,18.2451,1.857Z" transform="translate(0 -57.8049)"/><polyline class="cls-9" points="153.354 80.874 135.756 52.193 130.505 54.266 135.52 64.375 153.354 80.874"/><path class="cls-1" d="M146.9821,122.6819a6.5318,6.5318,0,0,1-2.8016,2.2995,3.2892,3.2892,0,0,1-2.8527-.4434c-1.1924-.8449-1.7005-2.3994-2.8457-3.3071-.5338-.4231-1.2778-.8655-1.1757-1.5389a1.151,1.151,0,0,1,1.3184-.78,12.0066,12.0066,0,0,1,1.6169.4946,10.8316,10.8316,0,0,0,3.305-.1073c1.1067-.0636,2.4094.2734,2.8252,1.3009" transform="translate(0 -57.8049)"/><path class="cls-1" d="M147.8756,120.2932l-1.6109-3.6362c-3.4069-7.69-5.7417-4.2182-16.3817-8.9956-.8623,1.6794.076,3.69,1.05,5.3067a12.1577,12.1577,0,0,0,2.4045,3.1092c2.1159,1.7925,5.1565,2.083,7.4179,3.6881a34.3494,34.3494,0,0,0,3.0816,2.4216c1.1468.63,2.7738.7183,3.6025-.2944" transform="translate(0 -57.8049)"/><path class="cls-7" d="M116.9712,118.0748c-4.5481-5.6311-9.8423-11.6908-17.0332-12.5175-3.6863-.4238-7.3664.6261-11.0659.9128-7.9015.6123-14.7839-1.8908-34.2266-7.5379-2.0591-.5981-4.2013-1.188-6.3561-1.6144-.05,2.3779-.1087,4.9405-.1733,7.3757,9.59,2.4614,18.9576,5.7209,28.39,8.7181,31.9217,10.1433,27.2708,4.4536,31.21,9.6073,4.1823,5.4719,8.765,10.8611,13.2023,15.7384l8.746-4.9675Q123.3177,125.9324,116.9712,118.0748Z" transform="translate(0 -57.8049)"/><path class="cls-1" d="M48.2894,97.3178c.0494-2.3407.09-4.5025.121-6.1858a70.6328,70.6328,0,0,1-11.344-1.0648c-2.9367-.565-5.81-1.4229-8.691-2.2376a31.9784,31.9784,0,0,1-.9532,5.2085c-.5436,2.5856-.4843,5.74,1.6463,7.3029a4.81,4.81,0,0,0,1.6407.7539c1.3015-.7811,2.5026-1.7536,3.887-2.5352C38.7169,96.2332,43.5339,96.377,48.2894,97.3178Z" transform="translate(0 -57.8049)"/><path class="cls-2" d="M39.0112,103.1124a18.6264,18.6264,0,0,1,5.25.6389q1.9342.4466,3.8549.9422c.0646-2.4352.1232-4.9978.1733-7.3757-4.7555-.9408-9.5725-1.0846-13.6932,1.2419-1.3844.7816-2.5855,1.7541-3.887,2.5352,1.5067.4,3.2239.2807,4.7975.5573A8.8615,8.8615,0,0,1,39.0112,103.1124Z" transform="translate(0 -57.8049)"/><path class="cls-8" d="M78.2155,150.9552c2.0555-5.5387,1.256-7.4049,8.55-12.1208a183.0817,183.0817,0,0,1,22.2628-12.29c2.9705-1.38,6.647-2.6307,9.3286-.75,2.7926,1.9585,2.73,5.9929,3.145,9.3784a23.3513,23.3513,0,0,0,16.4511,19.1627c5.2312,1.47,11.2245,1.1818,15.4833,4.5567,3.0046,2.381,4.5809,6.21,7.57,8.6111,4.72,3.7914,11.6,3.0566,17.3776,1.25q2.434-.7611,4.779-1.7149l-24.7407-23.0737-34.5242-27.2928c-8.8938-7.0308-13.9694-7.8435-24.6033,1.8986q-16.9269,15.5075-33.4783,31.4184c-1.669,1.6045-3.3427,3.2129-5.0832,4.7391l7.8763,6.9823A20.0252,20.0252,0,0,0,78.2155,150.9552Z" transform="translate(0 -57.8049)"/><path class="cls-7" d="M105.576,139.277c2.9917-2.0014,4.195-1.5108,5.7766.348,7.0614,8.2994,12.3536,17.9491,19.0053,26.58,4.66,6.0468,10.4344,11.8507,17.8718,13.5728a28.7863,28.7863,0,0,0,8.21.5127c11.67-.6981,22.842-5.2928,34.5118-5.9888l-7.7887-7.2639q-2.3461.95-4.779,1.7149c-5.7781,1.8068-12.6578,2.5416-17.3776-1.25-2.9888-2.4009-4.5651-6.23-7.57-8.6111-4.2588-3.3749-10.2521-3.0866-15.4833-4.5567a23.3513,23.3513,0,0,1-16.4511-19.1627c-.415-3.3855-.3524-7.42-3.145-9.3784-2.6816-1.88-6.3581-.6295-9.3286.75a183.0817,183.0817,0,0,0-22.2628,12.29c-7.2942,4.7159-6.4947,6.5821-8.55,12.1208A20.0252,20.0252,0,0,1,68.6094,161.71l2.8313,2.51Q87.9868,151.0544,105.576,139.277Z" transform="translate(0 -57.8049)"/><path class="cls-1" d="M57.2113,167.5809c2.599-3.1365,7.0327-3.8413,10.7331-5.544.2245-.1033.4449-.2149.665-.3268l-7.8763-6.9823a50.8184,50.8184,0,0,1-4.5464,3.5969,40.9672,40.9672,0,0,1-6.5877,3.6934,7.6819,7.6819,0,0,1,1.8282,3.6547c.3114,1.6274.1063,3.4018.9039,4.8541a3.9652,3.9652,0,0,0,1.2433,1.36C55.4447,170.735,55.7955,169.29,57.2113,167.5809Z" transform="translate(0 -57.8049)"/><path class="cls-2" d="M59.6284,172.4771c1.7165-.5088,3.3308-1.3568,5.0007-1.9914a22.821,22.821,0,0,1,4.5266-4.4469c.7583-.6105,1.5232-1.2128,2.285-1.8189l-2.8313-2.51c-.22.1119-.4405.2235-.665.3268-3.7,1.7027-8.1341,2.4075-10.7331,5.544-1.4158,1.7087-1.7666,3.1541-3.6369,4.3063A7.4061,7.4061,0,0,0,59.6284,172.4771Z" transform="translate(0 -57.8049)"/><path class="cls-3" d="M229.6993,138.6192c-1.4387-.32-2.8926-.5717-4.3409-.7651a46.5015,46.5015,0,0,1-4.8689-.769l-4.55,9.3853c0,.2137-7.7563,10.4-13.2163,17.5438l7.6674,6.2672c3.5891-3.7167,6.9479-7.6694,10.231-11.6621C226.0515,152.0164,230.902,148.9054,229.6993,138.6192Z" transform="translate(0 -57.8049)"/><path class="cls-4" d="M231.6569,157.5676c2.2983-2.6614,4.6728-5.5122,5.2825-8.9753.4663-2.6476-.1509-5.316-.8709-7.9678a36.063,36.063,0,0,0-6.3692-2.0053c1.2027,10.2862-3.6478,13.3972-9.0775,20-3.2831,3.9927-6.6419,7.9454-10.231,11.6621l4.74,3.8746A175.9707,175.9707,0,0,0,231.6569,157.5676Z" transform="translate(0 -57.8049)"/><path class="cls-1" d="M167.2377,140.62a48.2923,48.2923,0,0,1-3.2729-6.13,8.98,8.98,0,0,0-.9046-1.72,8.2076,8.2076,0,0,0-1.3081-1.3055l-4.2734-3.667a9.1711,9.1711,0,0,0-1.6584-1.22c-1.6113-.847-3.54-.6652-5.36-.6162a32.0348,32.0348,0,0,1-3.3444-.0849.6063.6063,0,0,0,.003.611,4.2763,4.2763,0,0,0,3.2978,2.1026,12.7822,12.7822,0,0,1,3.9326.9759,7.9873,7.9873,0,0,1,1.6721,1.3746c.95.9466,1.8741,1.9186,2.7982,2.8905a9.828,9.828,0,0,1,1.1715,1.3959,12.1965,12.1965,0,0,1,1.2853,3.79,6.29,6.29,0,0,0,1.8382,3.4967" transform="translate(0 -57.8049)"/><path class="cls-1" d="M163.2284,140.8029c3.5215,2.3223,5.3542,6.41,7.2729,10.167a93.4735,93.4735,0,0,0,20.9763,27.1734c5.5993,4.9929,6.226,3.4551,11.0925-.5645a95.1274,95.1274,0,0,0,7.8207-7.2974l-7.6674-6.2672c-2.9647,3.8792-5.2531,6.8622-5.2531,6.8622l-30.3427-30.3426-2.2841-.3514.0558-.1181c-4.0412-5.5282-2.7776-5.8672-5.9274-8.6328-2.5817-2.2666-3.3936-2.5558-6.1013-2.9311-5.0768-.7037-5.2608-.719-5.2378-.0431.0513,1.5064,1.4628,1.8654,2.255,2.3827,1.7246,1.1263,1.9989,2.9949,2.6583,4.3475C155.1116,138.11,160.189,138.7985,163.2284,140.8029Z" transform="translate(0 -57.8049)"/><path class="cls-2" d="M158.5915,139.8728a50.8336,50.8336,0,0,1,3.589,3.9591L186.2567,181.76l-.0447.1606c5.0993,7.0195,9.2567,8.7174,17.2259,2.1665,4.05-3.329,7.9359-6.5888,11.6932-9.9313l-4.74-3.8746a95.1274,95.1274,0,0,1-7.8207,7.2974c-4.8665,4.02-5.4932,5.5574-11.0925.5645A93.4735,93.4735,0,0,1,170.5013,150.97c-1.9187-3.7566-3.7514-7.8447-7.2729-10.167-3.0394-2.0044-8.1168-2.6934-10.6823-5.6154a4.3645,4.3645,0,0,0,.2973.5246C154.0951,137.57,157.7444,139.18,158.5915,139.8728Z" transform="translate(0 -57.8049)"/><path class="cls-2" d="M234.6613,134.4683c-1.1387-10.4358,8.3306-17.1567,11.3155-24.0942a14.6586,14.6586,0,0,0-4.24-17.0089,14.0959,14.0959,0,0,1,2.6337,6.876c.4574,4.7432-1.641,8.5856-4.6929,12.0049-11.3806,12.7505-12.467,12.076-10.2883,24.2835.13.729.2323,1.4237.31,2.09a36.063,36.063,0,0,1,6.3692,2.0053A41.1977,41.1977,0,0,1,234.6613,134.4683Z" transform="translate(0 -57.8049)"/><path class="cls-1" d="M244.37,100.2412a14.0959,14.0959,0,0,0-2.6337-6.876,15.28,15.28,0,0,0-2.2552-1.5541,19.7167,19.7167,0,0,0-9.62-2.3924c-6.1221.4947-9.7512,6.9122-12.3488,10.64a68.9173,68.9173,0,0,1-4.4576,5.7786c-.8628,1.02-1.1771,1.4206-1.0545,1.9062.2233.8847,1.7446.7674,2.0911,1.6115.3049.7425-.4118,1.2759-2.3574,8.5159-.4337,1.6142-.51,2.8385.5115,3.9847a7.6116,7.6116,0,0,0,2.2233,1.5861,25.7538,25.7538,0,0,0,11.2517,2.8512L220.49,137.0851a46.5015,46.5015,0,0,0,4.8689.769c1.4483.1934,2.9022.4452,4.3409.7651-.0779-.6659-.18-1.3606-.31-2.09-2.1787-12.2075-1.0923-11.533,10.2883-24.2835C242.7293,108.8268,244.8277,104.9844,244.37,100.2412Z" transform="translate(0 -57.8049)"/><path class="cls-2" d="M213.6718,121.4744c1.8461,6.8558,10.5939,9.04,12.9891,10.623,2.223,1.4694,2.5971,3.35,3.0784,6.2382.4182-2.2574,1.98-4.1434,2.3567-6.408a58.2509,58.2509,0,0,0,.7774-6.08,2.3229,2.3229,0,0,0-.0959-1.0162c-.2786-.6853-1.0878-.9545-1.8009-1.1509q-4.9257-1.3564-9.7211-3.1371Z" transform="translate(0 -57.8049)"/><path class="cls-1" d="M228.8512,126.1589c1.0032-3.5611,4.1359-6.4171,10.8262-13.9128,3.0519-3.4193,5.15-7.2617,4.6929-12.0049a14.0959,14.0959,0,0,0-2.6337-6.876,15.28,15.28,0,0,0-2.2552-1.5541,19.7167,19.7167,0,0,0-9.62-2.3924c-6.1221.4947-9.7512,6.9122-12.3488,10.64a68.9173,68.9173,0,0,1-4.4576,5.7786c-.8628,1.02-1.1771,1.4206-1.0545,1.9062.2233.8847,1.7446.7674,2.0911,1.6115.3049.7425-.4118,1.2759-2.3574,8.5159-.4337,1.6142-.51,2.8385.5115,3.9847a7.6116,7.6116,0,0,0,2.2233,1.5861,25.64,25.64,0,0,0,14.3817,2.7169" transform="translate(0 -57.8049)"/><path class="cls-6" d="M201.3951,76.3475c-.7625.892-2.0253,1.9874-2.0938,3.26-.0684,1.2682,1.104,2.2641,1.9762,3.0068.8416.7168,1.9054,1.6335,3.0912,1.3814a6.0628,6.0628,0,0,0,3.0475-2.4073c.3881-.5043-.471-.9976-.8544-.4994a5.2375,5.2375,0,0,1-2.2169,1.8571c-.9832.2916-1.94-.6454-2.6276-1.2593-.6229-.5559-1.5535-1.2733-1.4029-2.2015.1446-.8907,1.2324-1.7972,1.78-2.4383.4116-.4815-.2851-1.1846-.7-.7Z" transform="translate(0 -57.8049)"/><path class="cls-6" d="M208.9861,82.7739c-.8789,1.0871-2.3249,2.6532-1.9653,4.19.2832,1.2109,1.6491,2.2266,2.5225,3.0306.6641.6114,1.429,1.574,2.4242,1.3008,1.2416-.3409,2.4436-1.8013,3.1986-2.7593.39-.4948-.3055-1.2-.7-.7a11.5413,11.5413,0,0,1-1.9156,1.9564c-1.0538.8224-1.4554.2871-2.308-.4978-.4908-.4519-.9917-.907-1.4476-1.3948a1.8632,1.8632,0,0,1-.4083-2.5922,10.8786,10.8786,0,0,1,1.2988-1.8344c.3968-.4908-.2991-1.1951-.7-.7Z" transform="translate(0 -57.8049)"/><path class="cls-6" d="M201.4984,76.8892q6.7212,5.6086,13.0147,11.6921c.458.4428,1.1585-.2561.7-.7q-6.2942-6.084-13.0147-11.6921c-.4857-.4053-1.1893.291-.7.7Z" transform="translate(0 -57.8049)"/><path class="cls-6" d="M214.6341,88.9063l5.0925,5.0161c1.7316,1.7056,6.01,4.6167,4.7229,7.5606-.2526.5778.6,1.0821.8543.4994.9222-2.11.2806-3.5907-1.24-5.1768-2.8226-2.9437-5.8243-5.7368-8.73-8.5989-.4541-.4473-1.1542.2519-.7.7Z" transform="translate(0 -57.8049)"/><polyline class="cls-1" points="121.691 33.952 129.035 0 131.228 0.572 146.965 23.366 135.52 64.375 121.31 34.047"/><polygon class="cls-10" points="119.116 33.475 129.035 0 144.771 22.794 133.327 63.803 119.116 33.475"/><polygon class="cls-1" points="133.327 63.803 151.352 82.4 153.354 80.874 134.269 60.294 133.327 63.803"/><path class="cls-7" d="M220.9675,85.206c1.5883,5.5007,3.5065,11.3479,8.4513,14.5884,3.2849,2.1526,5.28,1.1607,11.5535-1.2486,1.2522-.4809,2.4613-.8463,3.0236-2.2136a4.62,4.62,0,0,0,.1663-2.6948c-.9876-4.69-6.7147-7.3788-11.7012-7.52-4.0194-.1141-9.5614,1.5-11.5058-1.0806" transform="translate(0 -57.8049)"/><path class="cls-7" d="M237.1142,124.28c1.9275-2.799,3.8569-5.6,5.971-8.2614a28.668,28.668,0,0,0,4.2535-6.2142,12.2835,12.2835,0,0,0-2.1414-12.8233,2.7483,2.7483,0,0,0-.8381-.6847c-2.3932-1.1108-5.9542,3.8982-7.1838,5.33a4.4717,4.4717,0,0,0-.7857,1.1417c-.4753,1.1325.0125,2.4125.0822,3.6387.1392,2.4463-1.3954,4.6355-2.8588,6.6008a4.0742,4.0742,0,0,0,.9047.9686.5164.5164,0,0,0,.34.1415.5392.5392,0,0,0,.3046-.18c1.2746-1.2218,2.4379-2.7682,4.1624-3.1468a1.6705,1.6705,0,0,1,1.4642.2487,1.6893,1.6893,0,0,1,.4431,1.3713c-.1227,2.3717-2.3308,4.0172-3.5208,6.0723a7.6446,7.6446,0,0,0-.7247,5.8612" transform="translate(0 -57.8049)"/><path class="cls-1" d="M238.2083,111.3035c2.3291-1.9545,4.8877-.3219,3.965,2.0871a10.5376,10.5376,0,0,1-2.6031,3.2c-.677.54-2.6267,1.6639-3.4912,1.6123a.9987.9987,0,0,1-.9607-.762" transform="translate(0 -57.8049)"/><path class="cls-7" d="M242.8734,96.3871a22.9091,22.9091,0,0,0,2.2779-5.3124,15.1265,15.1265,0,0,1-.9387,7.5533" transform="translate(0 -57.8049)"/><path class="cls-7" d="M243.71,96.798a9.9686,9.9686,0,0,1,2.9928-1.4532,5.8856,5.8856,0,0,1,3.2973.006,13.3664,13.3664,0,0,0-5.5019,3.8339" transform="translate(0 -57.8049)"/><path class="cls-2" d="M130.6283,82.8915c-.2813.0143-.469.2881-.6012.5367-1.92,3.6121-.6755,6.38.5718,5.8591.8772-.3663,2.052-3.3122,1.8519-4.8808-.17-1.3321-1.19-1.8625-1.7444-1.5491" transform="translate(0 -57.8049)"/></svg>