<svg id="Layer_1" data-name="Layer 1" xmlns="http://www.w3.org/2000/svg" viewBox="0 0 172.418 161.2397"><defs><style>.cls-1{fill:#ff8479;}.cls-2{fill:#661c3f;}.cls-3{fill:#ffcac3;}.cls-4{fill:#380812;}.cls-5{fill:#95122e;}.cls-6{fill:#ff090c;}.cls-7{fill:#6f1e22;}.cls-8{opacity:0.39;}.cls-9{fill:#f0f;}.cls-10{fill:none;}.cls-11{fill:#fff;}.cls-12{fill:#b9090b;}</style></defs><title>netflix-thumb-layer2</title><path class="cls-1" d="M105.2668,101.0493c4.4684,9.216,2.3267,9.6784,5.6359,13.2329,7.2,7.7339,6.0906,3.5406,13.056,9.0882a.605.605,0,0,0,.2475.14c.6134.1214,1.595-2.307-.1021-5.0319-1.6823-2.7012-4.9827-4.4207-5.7549-7.6151-1.0016-4.1433,2.8892-7.9225,2.4492-12.0828" transform="translate(-45.6497 -47.522)"/><path class="cls-2" d="M114.5455,113.9629l21.4464,19.9946s7.4918-7.1008,7.2312-7.1008c-.0282,0,.0738-2.5362.0738-2.5362-3.7008-3.18-20.0871-14.8527-20.0871-14.8527l-8.3162,1.8236Z" transform="translate(-45.6497 -47.522)"/><path class="cls-3" d="M114.8936,111.2914l21.1722,20.13s7.4917-7.1008,7.2311-7.1008-19.739-17.5241-19.739-17.5241Z" transform="translate(-45.6497 -47.522)"/><path class="cls-1" d="M124.1836,183.5006c2.8955,1.9691,6.7015.5159,9.9605,1.349,2.0224.5169,3.7172,1.8553,5.5668,2.823,2.968,1.553,4.27,1.2142,4.66,1.942a.9934.9934,0,0,1-.1943,1.06,3.1547,3.1547,0,0,1-2.2925.8429,13.88,13.88,0,0,1-4.3606-.2539c-1.9352-.4866-4.0489-1.788-5.2442-1.97-3.6194-.5512-4.967,4.5719-8.2766,5.3354" transform="translate(-45.6497 -47.522)"/><path class="cls-1" d="M132.9427,200.4318a32.2042,32.2042,0,0,0,6.1991,2.5179c-1.3622-1.0718-2.8826-1.971-4.348-2.9083-2.5257-1.6154-3.7557-2.8874-3.7427-6.93.01-3.23.1117-4.3154-2.2814-6.1968a44.707,44.707,0,0,0-4.7951-3.2884l-5.7362,3.7794C122.8023,192.2038,127.1911,197.31,132.9427,200.4318Z" transform="translate(-45.6497 -47.522)"/><path class="cls-4" d="M128.5962,201.98c1.2348.5764,2.5556.9439,3.8212,1.4491,1.8665.7449,3.058,1.4676,9.9146,5.3325.5118-1.2838-.1912-2.7332-1.0752-3.7957a13.893,13.893,0,0,0-2.115-2.0163,32.2042,32.2042,0,0,1-6.1991-2.5179c-5.7516-3.1218-10.14-8.228-14.7043-13.0265l-2.5608,1.6872C120.2037,193.164,122.9477,199.3437,128.5962,201.98Z" transform="translate(-45.6497 -47.522)"/><path class="cls-1" d="M132.2438,199.7387l14.2793,6.9256c.5485.2661.8992.3112,1.2685-.2163a4.6292,4.6292,0,0,0,.5806-2.6856,7.8489,7.8489,0,0,0-.8956-4.3235c-1.3288-2.0544-9.4966-7.7327-18.6448-10.6842" transform="translate(-45.6497 -47.522)"/><path class="cls-1" d="M98.5533,141.3847a2.075,2.075,0,0,0,1.1648-2.5729c-.2617-.5442-.6508-.7742-2.745-2.3773.5072-.8427,1.1518-1.5151,1.659-2.3578,5.6347,2.8777,5.3124,2.8729,5.9394,2.5574,1.0578-.5324,2.0068-2.43,3.4-1.9453.6737.2345,1.0228,1.0257,1.6873,1.2852,1.1573.4519,2.345-.8968,3.387-2.0265.86-5.099-2.1019-8.8167-2.7774-11.8025-.6118-2.7042-.1112-4.0889-.9784-4.2685-1.2014-.2488-2.1768,1.4771-3.3664,1.1769-.8654-.2184-5.1137-5.0006-7.2874-5.3713-1.3821-.2356-2.6718.6779-3.7708,1.5485a65.6355,65.6355,0,0,0-7.71,6.875l-.6672.4613c-.6708,3.3092-3.3951,3.5183-2.6239,9.9073a25.498,25.498,0,0,0,1.4091,6.1033,35.8527,35.8527,0,0,0,10.1934,3.0235A5.431,5.431,0,0,0,98.5533,141.3847Z" transform="translate(-45.6497 -47.522)"/><path class="cls-5" d="M92.7113,145.9223c4.5972,1.5786,10.0457,1.1888,13.8631-1.82a18.6445,18.6445,0,0,0,3.21-3.4228,17.5649,17.5649,0,0,0,2.7748-4.8216,11.949,11.949,0,0,0,.487-1.91c-1.042,1.13-2.23,2.4784-3.387,2.0265-.6645-.26-1.0136-1.0507-1.6873-1.2852-1.3936-.4852-2.3426,1.4129-3.4,1.9453-.627.3155-.3047.32-5.9394-2.5574-.5072.8427-1.1518,1.5151-1.659,2.3578,2.0942,1.6031,2.4833,1.8331,2.745,2.3773a2.075,2.075,0,0,1-1.1648,2.5729,5.431,5.431,0,0,1-3.0866.2163,35.8527,35.8527,0,0,1-10.1934-3.0235A11.74,11.74,0,0,0,92.7113,145.9223Z" transform="translate(-45.6497 -47.522)"/><path class="cls-6" d="M98.5533,141.3847c.945-.45,2.3765-1.8469,1.9227-2.79-.2617-.5442-.72-1.3895-2.8141-2.9925.5072-.8427.463-.6825.97-1.5252,5.6347,2.8777,5.3124,2.8729,5.9394,2.5574a8.6737,8.6737,0,0,0,1.5248-1.3089,8.1923,8.1923,0,0,0,.1208-2.2871c-.1854-1.6012-1.5488-3.2626-3.1294-2.946-1.5284.3062-2.7544,2.2247-4.1936.5445-3.1374-3.6628-1.098-9.2686-.3166-12.5332a3.177,3.177,0,0,0-.2586-2.8275c-.6727-.7735-1.8049-.7756-3.0152-.3841-.149.112-.2952.2257-.4379.3388a65.6355,65.6355,0,0,0-7.71,6.875l-.6672.4613c-.6708,3.3092-3.3951,3.5183-2.6239,9.9073a25.498,25.498,0,0,0,1.4091,6.1033,35.8527,35.8527,0,0,0,10.1934,3.0235A5.431,5.431,0,0,0,98.5533,141.3847Z" transform="translate(-45.6497 -47.522)"/><path class="cls-7" d="M92.7113,145.9223c4.5972,1.5786,10.0457,1.1888,13.8631-1.82a15.0086,15.0086,0,0,0,1.9374-1.8625,3.0109,3.0109,0,0,1-1.0476-.2446c-1.4678-.6664-1.9218-2.56-1.7726-4.1655.078-.8385.267-1.6716.4047-2.5044a8.6737,8.6737,0,0,1-1.5248,1.3089c-.627.3155-.3047.32-5.9394-2.5574-.5072.8427-.463.6825-.97,1.5252,2.0941,1.603,1.9559,2.4854,2.0562,3.21a2.3859,2.3859,0,0,1-1.1648,2.5729,5.431,5.431,0,0,1-3.0866.2163,35.8527,35.8527,0,0,1-10.1934-3.0235A11.74,11.74,0,0,0,92.7113,145.9223Z" transform="translate(-45.6497 -47.522)"/><path class="cls-1" d="M123.4745,107.662c2.6493,10.8975,2.5238,10.7123,2.9835,11.384a1.6558,1.6558,0,0,0,1.4749.7862c.5977-1.7949-.7127-10.7941-1.02-12.6581" transform="translate(-45.6497 -47.522)"/><path class="cls-1" d="M126.7676,109.5048l3.1259,11.0187a1.8491,1.8491,0,0,0,1.5682,1.5988,3.4511,3.4511,0,0,0,3.9395-1.3874c.7239-1.3972,1.56-7.997-1.7508-14.1375" transform="translate(-45.6497 -47.522)"/><g class="cls-8"><path class="cls-9" d="M62.2332,81.9432a30.5906,30.5906,0,0,1-4.6546-13.09,19.3272,19.3272,0,0,0-3.1893,6.3052L64.5218,93.0857l25.2856,7.9155c.8329.3373,1.6706.66,2.51.9772C78.8043,96.3352,68.232,91.1213,62.2332,81.9432Z" transform="translate(-45.6497 -47.522)"/></g><path class="cls-10" d="M85.9411,89.5318q2.5567,1.2087,5.0418,2.5615l.4222-.29-5.3283-8.68Z" transform="translate(-45.6497 -47.522)"/><path class="cls-11" d="M175.7157,55.9068c1.2694,2.303,3.9625,3.001,5.8872,4.9481a26.3569,26.3569,0,0,1,3.4572.4612c7.3177,1.4856,14.3492,6.2513,19.2309,14.1474a14.48,14.48,0,0,0-.21-4.2417c-1.6765-7.9462-10.3176-12.0392-15.55-17.0423-2.3065-2.2054-4.1843-4.6807-6.6156-5.0294a5.1951,5.1951,0,0,0-4.2814,1.6159,23.3757,23.3757,0,0,1-2.2388,2.2711A3.6812,3.6812,0,0,0,175.7157,55.9068Z" transform="translate(-45.6497 -47.522)"/><path class="cls-1" d="M181.6029,60.8549c-1.9247-1.9471-4.6178-2.6451-5.8872-4.9481a3.6812,3.6812,0,0,1-.32-2.87,5.6886,5.6886,0,0,1-1.7061.911L163.13,55.2106l2.899,8.3873A36.7377,36.7377,0,0,1,181.6029,60.8549Z" transform="translate(-45.6497 -47.522)"/><path class="cls-12" d="M90.9829,92.0933Q88.5,90.74,85.9411,89.5318l.1357-6.4081L74.12,63.6474c14.9461-6.3484,26.25-3.0975,32.13,3.5111,1.8882,2.1223,3.3563,4.7531,5.8431,6.1261,4.9491,2.7325,11.0464-.4511,20.9032-4.32,1.7-.6675,3.5344-1.3462,5.311-.9215,1.9063.4558,3.2972,2.0754,5.0563,2.94,4.1821,2.0551,9.0379-.52,13.0992-2.8045,1.5738-.8853,3.1908-1.7381,4.8409-2.5314l-3.0672-9.8509L133.9211,58.703c-50.7577-11.7325-49.64-12.2582-60.6973-10.3246-6.5848,1.1514-8.4137,2.225-12.09,5.7122-.9425.8941-1.946,1.8037-2.9273,2.7476-1.9218,8.5093-.7385,17.8149,4.0263,25.105C68.1526,91,78.5245,96.1964,91.782,101.7545c-.1091-2.843-.2357-6.1258-.3769-9.9513Z" transform="translate(-45.6497 -47.522)"/><path class="cls-1" d="M185.06,61.3161a26.3569,26.3569,0,0,0-3.4572-.4612c1.54,1.5578,2.5881,3.9143,2.0192,8.537a29.6716,29.6716,0,0,1,2.6633,2.5488c2.7581,2.9369,5.53,5.9536,7.3026,9.5718.8111,1.6557,1.8386,4.5392,3.5345,5.2286a3.45,3.45,0,0,0,3.4951-.9993,11.5861,11.5861,0,0,0,2.8289-5.6872,27.7945,27.7945,0,0,0,.8445-4.5911C199.4093,67.5674,192.3778,62.8017,185.06,61.3161Z" transform="translate(-45.6497 -47.522)"/><path class="cls-6" d="M175.6683,66.8107c3.0025-.6921,5.7043.7183,7.9538,2.5812.5689-4.6227-.48-6.9792-2.0192-8.537a36.7377,36.7377,0,0,0-15.5735,2.743l1.9487,5.6382Z" transform="translate(-45.6497 -47.522)"/><path class="cls-4" d="M122.3235,78.7a45.2247,45.2247,0,0,0,20.5747-1.5536l20.02-6.314-1.6145-5.1853c-1.65.7933-3.2671,1.6461-4.8409,2.5314-4.0613,2.2846-8.9171,4.86-13.0992,2.8045-1.7591-.8644-3.15-2.484-5.0563-2.94-1.7766-.4247-3.6106.254-5.311.9215-9.8568,3.8693-15.9541,7.0529-20.9032,4.32-2.4868-1.373-3.9549-4.0038-5.8431-6.1261-5.88-6.6086-17.1836-9.86-32.13-3.5111L86.0768,83.1237l.2126-10.0465Z" transform="translate(-45.6497 -47.522)"/><path class="cls-2" d="M166.0294,63.5979l-2.899-8.3873-4.8939.5851,3.0672,9.8509C162.8519,64.9023,164.4294,64.2116,166.0294,63.5979Z" transform="translate(-45.6497 -47.522)"/><path class="cls-4" d="M167.9781,69.2361l-1.9487-5.6382c-1.6.6137-3.1775,1.3044-4.7257,2.0487l1.6145,5.1853Z" transform="translate(-45.6497 -47.522)"/><path class="cls-1" d="M94.7109,134.2129a6.3917,6.3917,0,0,0,.98,6.0705,2.1292,2.1292,0,0,0,1.2792.8823,1.688,1.688,0,0,0,1.6292-.978,4.1546,4.1546,0,0,0,.3375-1.9775" transform="translate(-45.6497 -47.522)"/><path class="cls-6" d="M57.2055,102.3572c5.2206,3.8617,12.5069,4.9788,16.4372,10.148,7.6045,10.0016-2.5354,24.8427.1139,33.0739,2.3055,7.163,12.5891,8.1888,16.76,14.4522,2.6347,3.9567,2.4591,9.53,5.8314,12.88,2.2577,2.243,5.5722,2.9331,8.5108,4.1549,5.294,2.201,9.4225,6.1753,13.42,10.3807l5.9392-3.8833L98.8222,159.4878,86.0457,137.2809a33.5492,33.5492,0,0,0,5.6549-13.8063c.7242-4.44.617-7.7521.0814-21.72C78.5245,96.1964,68.1526,91,62.2332,81.9432c-4.7648-7.29-5.9481-16.5957-4.0263-25.105a31.5287,31.5287,0,0,0-3.4027,3.7345c-2.8419,6.1858-5.3594,12.5448-6.0334,19.2835C47.9368,88.1953,50.4678,97.3734,57.2055,102.3572Z" transform="translate(-45.6497 -47.522)"/><path class="cls-4" d="M62.6738,82.5932A38.4924,38.4924,0,0,0,58.185,84.729c-2.74,1.5346-6.6891,2.55-8.6109-.8933a8.0027,8.0027,0,0,1-.6913-4.5125c.0307-.4115.0719-.8234.1124-1.2355-.0867.587-.1651,1.1758-.2244,1.7685-.834,8.3391,1.697,17.5172,8.4347,22.501,3.5732,2.6431,8.1137,4.001,11.8839,6.2518a5.2493,5.2493,0,0,1-1.164-5.1776c.7432-1.8294,4.366-4.7439,9.9988-5.14a29.2253,29.2253,0,0,1,7.0289.49C75.2522,94.3478,67.5618,89.6626,62.6738,82.5932Z" transform="translate(-45.6497 -47.522)"/><path class="cls-4" d="M45.65,91.4565c0,15.7937,15.097,64.932,69.9929,97.7143l2.6359-1.7235c-3.9975-4.2054-8.126-8.18-13.42-10.3807-2.9386-1.2218-6.2531-1.9119-8.5108-4.1549-3.3723-3.35-3.1967-8.9237-5.8314-12.88-4.1706-6.2634-14.4542-7.2892-16.76-14.4522-2.6493-8.2312,7.4906-23.0723-.1139-33.0739-3.93-5.1692-11.2166-6.2863-16.4372-10.148-6.7377-4.9838-9.2687-14.1619-8.4347-22.501.674-6.7387,3.1915-13.0977,6.0334-19.2835-.2768.3694-.5411.7446-.7834,1.1291C51.0742,66.3771,45.65,78.56,45.65,91.4565Z" transform="translate(-45.6497 -47.522)"/><path class="cls-12" d="M90.2992,83.41c9.4342,5.9087,14.0941,18.4832,24.6576,21.9944,11.453,3.8067,24.3025-5.0383,35.7314-1.16,4.1382,1.4043,7.5885,4.3552,11.65,5.9668,7.3,2.8961,15.2927,1.1247,23.2377.3366q.131-5.188.2618-10.3759l-47.9333-6.811C90.79,67.1436,100.5773,73.1465,90.9962,65.7245c-10.47-8.11-25.4233-7.4408-33.4176,3.1287a30.5906,30.5906,0,0,0,4.6546,13.09c.143.2187.2909.4331.4391.6474C71.7467,78.9556,82.52,78.5374,90.2992,83.41Z" transform="translate(-45.6497 -47.522)"/><path class="cls-4" d="M92.3177,101.9784c9.0678,3.4231,18.5071,5.7481,27.7241,8.7817,17.4749,5.7515,19.7119,5.7875,65.3851,5.7121q.0749-2.9624.15-5.9247c-7.945.7881-15.9382,2.56-23.2377-.3366-4.062-1.6116-7.5123-4.5625-11.65-5.9668-11.4289-3.8784-24.2784,4.9666-35.7314,1.16C104.3933,101.8928,99.7334,89.3183,90.2992,83.41c-7.7791-4.8722-18.5525-4.454-27.6269-.819C68.74,91.368,79.1263,96.47,92.3177,101.9784Z" transform="translate(-45.6497 -47.522)"/><path class="cls-11" d="M199.295,104.486c2.4873,2.9695,8.9155,3.9625,7.0462,10.3156A27.1047,27.1047,0,0,1,217.4154,132.17a17.3878,17.3878,0,0,0-.0123-9.4706c-1.3446-5.0358-4.117-9.6147-5.3225-14.6856-.6819-2.8684-1.1058-6.2551-3.6311-7.7768-2.7753-1.6725-6.252-.04-9.413.6724-.2811.0634-.563.118-.8455.1663A4.51,4.51,0,0,0,199.295,104.486Z" transform="translate(-45.6497 -47.522)"/><path class="cls-1" d="M196.376,110.6237a24.2675,24.2675,0,0,1,9.9652,4.1779c1.8693-6.3531-4.5589-7.3461-7.0462-10.3156a4.51,4.51,0,0,1-1.104-3.41,24.3951,24.3951,0,0,1-7.42-.0485l-.3528,9.2118A32.3,32.3,0,0,1,196.376,110.6237Z" transform="translate(-45.6497 -47.522)"/><path class="cls-2" d="M190.7714,101.0273c-1.6052-.2192-3.2064-.5263-4.7873-.835l-.1459-.0207q-.131,5.1879-.2618,10.3759c1.6183-.16,3.2342-.2772,4.8422-.3084Z" transform="translate(-45.6497 -47.522)"/><path class="cls-1" d="M206.3412,114.8016a14.7359,14.7359,0,0,1-1.2255,2.8582c-.705,1.2951-1.3153,2.3677-1.7787,3.3533a32.6758,32.6758,0,0,1,2.38,2.8665,98.2305,98.2305,0,0,1,8.3911,13.179,9.7,9.7,0,0,0,3.3075-4.8885A27.1047,27.1047,0,0,0,206.3412,114.8016Z" transform="translate(-45.6497 -47.522)"/><path class="cls-6" d="M206.3412,114.8016a24.2675,24.2675,0,0,0-9.9652-4.1779,32.3,32.3,0,0,0-5.9574-.3846q-.12,3.1266-.2395,6.2531c7.0965.184,10.2329,1.4532,13.1579,4.5209.4634-.9856,1.0737-2.0582,1.7787-3.3533A14.7359,14.7359,0,0,0,206.3412,114.8016Z" transform="translate(-45.6497 -47.522)"/><path class="cls-4" d="M188.0847,116.4678c.7357-.0012,1.431.0073,2.0944.0244q.12-3.1265.2395-6.2531c-1.608.0312-3.2239.1479-4.8422.3084q-.0747,2.9624-.15,5.9247Z" transform="translate(-45.6497 -47.522)"/><path class="cls-5" d="M49.5741,83.8357c1.9218,3.4435,5.8705,2.4279,8.6109.8933a38.4924,38.4924,0,0,1,4.4888-2.1358c-.1487-.2151-.2971-.43-.4406-.65-4.7648-7.29-5.9481-16.5957-4.0263-25.105a31.5287,31.5287,0,0,0-3.4027,3.7345c-2.5919,5.6417-4.9092,11.4285-5.809,17.515-.04.4121-.0817.824-.1124,1.2355A8.0027,8.0027,0,0,0,49.5741,83.8357Z" transform="translate(-45.6497 -47.522)"/><path class="cls-5" d="M77.9242,98.2916c-5.6328.3959-9.2556,3.31-9.9988,5.14a5.2493,5.2493,0,0,0,1.164,5.1776,15.6,15.6,0,0,1,4.5533,3.8962c7.6045,10.0016-2.5354,24.8427.1139,33.0739,2.3055,7.163,12.5891,8.1888,16.76,14.4522,2.6347,3.9567,2.4591,9.53,5.8314,12.88,2.2577,2.243,5.5722,2.9331,8.5108,4.1549,5.294,2.201,9.4225,6.1753,13.42,10.3807l5.9392-3.8833L98.8222,159.4878,86.0457,137.2809a33.5492,33.5492,0,0,0,5.6549-13.8063c.7242-4.44.617-7.7521.0814-21.72-2.3723-.9945-4.65-1.9777-6.8289-2.9733A29.2253,29.2253,0,0,0,77.9242,98.2916Z" transform="translate(-45.6497 -47.522)"/><path class="cls-6" d="M203.4465,80.0546a27.7945,27.7945,0,0,0,.8445-4.5911,14.48,14.48,0,0,0-.21-4.2417c-1.6765-7.9462-10.3176-12.0392-15.55-17.0423-2.2574-2.1583-4.1054-4.57-6.4622-4.9987-.8414.6744-1.2806,2.1707.1873,4.1687,2.9186,3.9726,8.4266,5.0035,12.7067,10.61,4.4068,5.772,2.7986,10.2722,2.3531,14.6486-.2507,2.4635-.1224,5.1253,1.3044,7.1491a2.1492,2.1492,0,0,0,.8678.7775,4.7631,4.7631,0,0,0,1.1292-.7924A11.5861,11.5861,0,0,0,203.4465,80.0546Z" transform="translate(-45.6497 -47.522)"/></svg>