<svg xmlns="http://www.w3.org/2000/svg" viewBox="0 0 250 250"><path d="M181.5 76.9c-.7 1.2-1.5 2.3-2.3 3.3-.5.6-.8 1.1-.1 1.6.7.5 2 1.3 2.6.7.3-.2.3-.6.3-1 0-.3.1-.7.1-1l-.6-3.6z" fill="#95d0f3"/><path d="M139.6 176.6c1.9-2.3 2.3-5.2 3.4-8.3l-5.5-20.3c-.4-.1-.8-.1-1.3 0-3.8.8-5.4 5.5-5.4 9.4 0 5.2 2.6 6 3.5 9.4.8 2.6 0 9.4 4.5 10.6.5-.3.7-.5.8-.8z" fill="#003a60"/><path d="M144.5 173.6l-1.4-5.3c-1.2 3.2-1.5 6-3.4 8.3l-.6.6c.5.1 1 .2 1.6.2 2.1 0 3-1.7 3.8-3.8z" fill="#7cb7da"/><path d="M148.8 159.9l.6.9c.1-.2.3-.5.4-.7l-5.9-9.4c-.4 1.7-.8 3.5-1.3 5.5-.1.2-.1.4-.2.7-.8-1-1.3-2.1-1.7-3.3-.6-1.8-1.1-4.9-3.2-5.5-1.6-.5-3.7 1.1-4.6 2.6-1.4 2.4-2.3 7.6-.2 11.8.7 1.3 1.6 2.5 2.1 4 .7 2.1.2 4.4 1.1 6.4.8 1.7 2.2 3 4 3.4 3.1-4.3 1.8-10 8.9-16.4z" fill="#326c91"/><path d="M143.2 175.6c.9-.7 1.2-1.7 1.6-2.8.7-2.1 1.4-4.1 2-6.2.2-.7.4-1.4.4-2.1.5-.7 1.3-2.1 2.2-3.9l-.6-.9c-7.1 6.4-5.8 12.1-8.8 16.3.1 0 .2 0 .3.1 1 .2 2.1.1 2.9-.5z" fill="#b0e3ff"/><path d="M165.4 115c-1-.9-2-1.8-3.2-2.4-2.7-1.2-6-.2-8.1 1.9-3.8 3.8-4.2 6.7-5 10.5-7.3 31.9-7.4 31.5-7.3 33.9.1 1.7.6 3.5 1.6 4.9 0 .1.1.1.1.2.4.6.9 1.2 1.6 1.6.6.4 1.4.7 2.2.6 1.2-.2 1.9-1.3 2.4-2.3 2.8-5.1 9.4-21.9 11.6-26.6 0-.1.1-.2.1-.3 4.3 5.9 8.9 11.7 13.6 17.3 3.7 2.5 8.4 3.8 12.9 4.1 3.6.3 7.5-.1 10.2-2.3.3-2.6-.2-5.3-1.2-7.6-3.6-8.9-24.4-26.9-31.5-33.5z" fill="#01294d"/><path d="M136.3 156.1c1.4-1.2 2.9-2 4.6-2.5.5-.2.3-1-.2-.8-1.9.5-3.6 1.5-5 2.8-.5.2.2.9.6.5zM136.8 157.4c1.3-1.2 3-2 4.7-2.7.5-.2.3-1-.2-.8-1.8.7-3.6 1.5-5 2.9-.5.4.1 1 .5.6zM137.5 158.8c1.3-1.2 2.8-2.1 4.5-2.8.5-.2.3-1-.2-.8-1.8.7-3.4 1.8-4.8 3.1-.5.3.1.9.5.5zM138.1 160c1.4-1.2 3-2.2 4.8-2.9.5-.2.1-1-.4-.7-1.8.8-3.4 1.8-4.9 3.1-.6.2.1.9.5.5zM138.7 161.2c.7-.6 1.5-1.2 2.4-1.7.4-.2.7-.4 1.1-.6.2-.1.3-.2.5-.3.2-.1.3-.1 0 0-.2-.2-.3-.4-.5-.6.2-.1.4-.1.6-.2-.5-.3-.9.4-.4.7.2.1.5 0 .6-.2.2-.3-.1-.8-.5-.6-.6.2-1.3.7-1.9 1.1-.8.5-1.6 1.1-2.4 1.8-.5.4.1 1 .5.6z" fill="#dcf4ff"/><path d="M143.2 167.2c-2.2 0-5.2 2-7.6 4 .1.5.2 1.1.5 1.5.8 1.7 2.2 3 4 3.4 1.8-2.5 2-5.5 3.5-8.9h-.4z" fill="#01294d"/><path d="M143.2 175.6c.9-.7 1.2-1.7 1.6-2.8.5-1.4.9-2.7 1.4-4.1-.5-.9-1.3-1.4-2.6-1.5-1.4 3.4-1.7 6.4-3.5 8.9.1 0 .2 0 .3.1.9.1 2 0 2.8-.6z" fill="#326c91"/><path d="M140.4 152.1c-.5-1.7-1.2-3.7-2.8-4.2-1.6-.5-3.7 1.1-4.6 2.6-1.1 1.9-2 5.8-1 9.4 1.6-1.8 2.3-5.8 8.4-7.8z" fill="#01294d"/><path d="M147.8 244.2c-.4.6-.9 1.5-.9 2.3 0 2.2 4.7 3.5 6.9 3.5 6.2 0 5.8-5.5 9.8-8.9 1.4-1.2 4.6-3.1 4.6-6 0-1.7-1.3-2.9-3.4-2.9-1 0-2.1.2-3.1.7l-6.3 10.2-7.6 1.1z" fill="#003a60"/><path d="M161.7 232.9l-6.3 10.2-7.6 1.1c-.4.6-.9 1.5-.9 2.3 0 2.2 4.7 3.5 6.9 3.5 6.2 0 5.8-5.5 9.8-8.9.4-.3.9-.7 1.4-1.1-.1-2.6-.3-5.2-.4-7.8-.9 0-1.9.2-2.9.7z" fill="#003a60"/><path d="M168.3 235.1c0-1.7-1.3-2.9-3.4-2.9h-.2c.1 2.6.3 5.2.4 7.8 1.4-1.2 3.2-2.8 3.2-4.9z" fill="#7cb7da"/><path d="M170 197.3c1.3.3 2.8 0 2.5 3.4-1 11.6-.8 11.8-1.6 12.5-.6.5-1.7.5-2.4.4-.3-.1-.4-.2-.4-.4-.3-3.5.2-7 .6-10.5.6-4.7.7-5.3 1.2-5.4M192.2 173.9c.8 2.1 1.1 2.2.4 2.9-1.5 1.3-3.1 2.4-4.8 3.5-7.2 4.8-7.8 5.5-8.5 4.4-.3-.5-2.1-3.6-2.1-4.1 0-.3.2-.5.4-.7 3.2-2.9 7.8-7.2 11.7-8.4.6-.2.9-.1 1.3.5.7.5 1.1 1.3 1.6 1.9" fill="#01294d"/><path d="M165.6 217.5l-6.3-.7v8.4c-4.9 12-6.2 14.7-7.1 15.7-1.5 1.7-3.9 2.1-4.7 3-.6.7-.5 1.9 0 2.7 1.3 2 6.4 3.7 9.5 1.6 2-1.4 3.7-5.3 6.7-8.2.4-.4.8-.8 1.3-1.2-.2-3.7-.5-7.4-.5-11.2 0-3.1.4-6.7 1.1-10.1z" fill="#326c91"/><path d="M167.7 234.9c.4-1.5-.1-3-.3-4.5-.3-2.1 0-4.2.2-6.2.3-1.7.6-3.7 1-6.3l-3-.3c-.8 3.4-1.1 7-1.1 10.1 0 3.8.3 7.5.5 11.2 1.2-1.3 2.4-2.4 2.7-4z" fill="#b0e3ff"/><path d="M187.5 136l-3.6-3.7c-.1 1.1-.3 2.3-.4 3.5-.8 5.1-.2 10.4.9 15.4.6 2.5-.6 2.9-2.5 4.6-1.9 1.8-3.8 3.6-5.5 5.6-4.7 4.7-8.9 9.9-12.5 15.5-3.9 6.1-4.7 9.1-5.4 16.8-.6 7.5-.9 15.1-1 22.7 0 2.2.3 4.8 2.2 5.7 1 .4 3.7.8 5.1.9 1.1 0 2.2-.1 3.3-.3 2.4-.4 2.4-6.5 3.6-26.9.1-2.2-.2-5.4 1.7-6.9 7-5.6 12-9 15.7-11.4 8.2-5.1 16.3-10.4 20.9-19 1.5-2.8 2.4-5.8 3-8.8-11.1 1.4-19.8-8-25.5-13.7z" fill="#003a60"/><path d="M187.5 136l-3.6-3.7c-.1 1.1-.3 2.3-.4 3.5-.8 5.1-.2 10.4.9 15.4.6 2.5-.6 2.9-2.5 4.6-.4.4-.8.8-1.3 1.2 2.4.8 4.9 1.3 7.3 1.4 3.6.3 7.6-.1 10.4-2.5 2.4-2.1 3.4-5.5 2.9-8.7-5.6-2.8-10.2-7.7-13.7-11.2zM179.1 158.5c-.9.9-1.9 1.9-2.8 2.9-4.7 4.7-8.9 9.9-12.5 15.5-3.9 6.1-4.7 9.1-5.4 16.8-.6 7.5-.9 15.1-1 22.7 0 2.2.3 4.8 2.2 5.7.7.3 2 .5 3.3.7-.4-2.5-1-5.1-.7-7.7.6-5.2 4.8-10 3.7-15.2-.4-1.9-1.5-3.6-1.6-5.5-.3-3.3 2.2-6.3 5-8 2-1.2 4.5-2.1 5.5-4.3 1.2-2.5-.1-5.6 1.1-8 1.7-3.6 5.7-1.5 10.2-3.3 3-1.1 5.4-3.5 7.3-6.1.2 0-7.8.2-14.3-6.2z" fill="#01294d"/><path d="M178.9 158.7c1.9 2.2 4 4.4 6.8 5.3 5.6 1.8 7.9.7 7.9.7l5.8-3.2-19.6-3-.9.2z" fill="#003a60"/><g fill="#7cb7da"><path d="M169.1 186.6c-2 1.3-3.8 3.2-4.4 5.4h.3c.2 0 .3-.1.4-.2 2.1-1.5 3.6-3.5 3.7-5.2zM193.6 164.7c-.2.3-.5.7-.8 1 .6.2 1.1.4 1.7.2 1.2-.3 2.9-2.5 2.1-4.1-.8-1.7-3.1-1.6-4.5-2.7-2.3-1.8-1.3-5.5-1.7-7.2-.2-.7-.6-1.3-1.3-1.6-.9-.4-1.9.1-2.7.5-.5.3-1 .6-1.3 1.1-.9 1.3-1.1 6.5-2.5 8.7-.1.1-.2.2-.3.4 5.6 3.8 11.3 3.7 11.3 3.7z"/><path d="M208.7 155c-1.2-.1-2.4.2-3.6.3-4.3.3-4-2.8-4.8-4.7-.6-1.4-2-2.5-3.5-2.4-1.9.2-3 2.2-3.5 4-.4 1.3-.6 2.9.2 4.1 1.4 2 4.7 1.2 6.5 2.9.8.7 1.2 1.9 1.1 3-.3 3.9-4.3 3.9-2.1 8.7 4.4-3.4 8.3-7.3 11-12.3.4-.8.8-1.7 1.2-2.6-.8-.6-1.6-.9-2.5-1zM185.9 141.2c1 .1 2.1.7 2.4 1.6.3 1-.1 2.3.6 3 .5.5 1.4.4 2 .1s1.1-1 1.6-1.5c.6-.6 1.3-1.2 2-1.7-2.7-2.3-5.1-4.7-7.1-6.7l-3.6-3.7c-.1 1.1-.3 2.3-.4 3.5-.3 1.8-.4 3.6-.4 5.4 1.1.1 2.1-.1 2.9 0zM165.7 217.7c-.8 1.1-.9 3.2-1.8 5.2.4 0 .7.1 1 .1 1.1 0 2.2-.1 3.3-.3 1.2-.2 1.8-1.8 2.2-5.9-.4-.2-.7-.3-1.1-.4-1.4-.3-2.9.2-3.6 1.3zM191.9 168.4c-.5-.1-.9-.2-1.4-.2-1.2 1.1-2.6 2.1-4.2 2.7-4.5 1.7-8.5-.3-10.2 3.3-.3.6-.4 1.3-.5 2 .3.2.6.4.7.7.8 1.2.4 3.9 4.8 3.2 2-.3 4.1-.9 6.3-1.3l1.8-1.2c2.7-1.7 5.3-3.4 7.9-5.2-1.3-1.9-3.1-3.4-5.2-4zM166.1 196.4c-.1.6-.2 1.5-.4 2.3.1.4.3.8.3 1.2 1.1 5.2-3.1 9.9-3.7 15.2-.1 1.2-.1 2.4 0 3.6 1.6-3.7.8-8.8 2.6-10.7.4-.5 1.1-.8 1.7-.6.6.2 1 .8 1.5 1.3.7.9 1.7 1.5 2.8 1.9.2-3.3.4-7.4.7-12.5-1.3-.2-2.3-.7-2.5-1-.9-1 1.3-3.4 2.8-4.3.1-1.4.4-2.9 1.4-3.8-.4.1-.8.2-1.2.4-3.1 1.2-5.4 3.9-6 7zM174.8 184.5c-.4-.2-.8-.4-1.1-.7-.6.5-1.3 1-2 1.4.6 1.2 1.4 2.2 3.5 2.4 1.4-1.1 2.8-2.2 4.1-3.1-2.2.4-3.4.5-4.5 0z"/></g><path d="M200.8 152.4c-.2-.6-.3-1.2-.5-1.7-.6-1.4-2-2.5-3.5-2.4-1.9.2-3 2.2-3.5 4-.4 1.3-.6 2.9.2 4.1.5.7 1.3 1.1 2.2 1.3 1-.4 1.9-.9 2.7-1.6 1.1-1.1 1.9-2.3 2.4-3.7zM190.3 152c-.2-.7-.6-1.3-1.3-1.6-.9-.4-1.9.1-2.7.5-.5.3-1 .6-1.3 1.1-.6.9-.9 3.5-1.4 5.8 1.5.3 2.9.5 4.4.6 1.1.1 2.3.1 3.4 0-1.4-1.8-.7-4.9-1.1-6.4z" fill="#003a60"/><path d="M151.4 241.4c.4.9.9 1.6 1.5 2.4.3.4 1.1 0 .7-.4-.6-.8-1.1-1.5-1.5-2.4-.2-.6-1-.1-.7.4zM152.6 240c.6.7 1.2 1.5 1.9 2.2.4.4 1-.2.6-.6-.6-.7-1.3-1.4-1.9-2.2-.3-.4-.9.2-.6.6zM153.6 238.4c.8.8 1.7 1.5 2.6 2.1.5.3.9-.4.4-.7-.9-.6-1.7-1.3-2.4-2-.4-.4-1 .2-.6.6zM154.3 236.5c.9.7 1.9 1.4 2.9 2 .5.3.9-.5.4-.7-.9-.6-1.8-1.2-2.7-1.9-.4-.4-1 .2-.6.6zM155.2 234.7c1 .6 1.9 1.1 3 1.5.5.2.9-.5.4-.7l-3-1.5c-.5-.3-.9.4-.4.7zM156 233c1 .6 2.1 1.1 3.1 1.7.5.3.9-.5.4-.7-1-.6-2.1-1.1-3.1-1.7-.5-.4-.9.4-.4.7zM156.8 231.1c.9.6 1.8 1.1 2.7 1.5.5.2.9-.5.4-.7-1-.4-1.9-.9-2.7-1.5-.4-.3-.8.4-.4.7zM157.5 229.4c1.2.6 2.4 1.1 3.6 1.6.5.2.8-.7.2-.8-1.2-.4-2.3-.9-3.4-1.5-.5-.3-.9.4-.4.7z" fill="#dcf4ff"/><path d="M199.8 91c-.3-3.4-.4-6.8-.5-10.2 0-2 .4-5.5-1.1-8.3-3.4-6.5-12.7-6.8-16.1 1.2-1.9 4.3-1.9 12.7-.8 15.3.4 1.1 1.2 2.1 2.2 2.4 1.3.4 2.8.2 4.1-.1 0 .4 0 .8.1 1.3.1 1.6.2 3.2 1.7 4.1 2.5 1.4 6.6.2 9.1-1.5 2.2-1.5 1.4-1.8 1.3-4.2z" fill="#95d0f3"/><path d="M181.2 76.9c.3.1 1.2.3 2.1.6 0-.3-.2-.5-.4-.7-.3-.2-.8-.4-1.6-.6-.1 0-.2 0-.2.1l-.1.4c.1.1.1.2.2.2z" fill="#01183a"/><path d="M188.8 83.3c.1.1.3.1.5 0 .4-.3 1.2-1.9 1.5-2.6.9-3-1.2-5.1-2.6-2.4l.6 5z" fill="#95d0f3"/><path d="M188.6 77.5c1.3-.9 2.5 1 1.8 3.4-.2.6-.7 1.7-1.2 2.3h.1c.4-.3 1.2-1.9 1.5-2.6.8-2.7-.8-4.7-2.2-3.1z" fill="#cdeeff"/><path d="M198.2 72.5c-3-5.8-10.8-6.7-14.9-1 3 2.3 1 3.1 1.5 4.3.1.2.3.4.5.6.8.9 1.2 2.3 1.2 3.5h1c0-.8.2-1.7.6-2.4 1-1.5 2.5-1.4 3.2.5.5 1.4 0 2.9.2 4.3s1.5 3.5 2.2 4c1 .7 3.9 1 5 .8l.9-.3c-.1-2-.2-4.1-.2-6.1-.2-1.9.3-5.4-1.2-8.2z" fill="#01183a"/><path d="M198.2 72.5c-2.3-4.3-7.2-5.9-11.3-4.1.9-.3 1.9-.4 2.8-.1 4.5 1.3 2.8 7 3.2 11.8.2 2.3.9 4.6 1.8 6.8 1.3.4 3.2.5 3.9.4l.9-.3c-.1-2-.2-4.1-.2-6.1-.1-2.1.4-5.6-1.1-8.4z" fill="#e32426"/><path d="M161.4 137c0 .1-.1.2-.1.3-2.2 4.7-8.8 21.6-11.6 26.6-.5 1-1.2 2.1-2.4 2.3-.8.1-1.5-.1-2.2-.6s-1.1-1-1.6-1.6c0-.1-.1-.1-.1-.2-.9-1.5-1.5-3.2-1.6-4.9-.1-2.3 0-2 7.3-33.9.9-3.8 1.2-6.7 5-10.5 2.1-2.1 5.4-3.1 8.1-1.9 1.2.5 2.2 1.5 3.2 2.4 7.1 6.6 27.9 24.6 31.6 33.5 1.4 3.3 1.9 7.5.2 10.8-1 2-2.2 2.8-3.9 3.9-2.2 1.5-5 1.6-7.6.8-2.8-.9-4.9-3.1-6.8-5.3-6.2-6.9-12-14.2-17.5-21.7z" fill="#003a60"/><path d="M195.7 157.6s-.1 0 0 0c.6.2 1.3.3 2.1.5.2-.6.4-1.3.4-1.9-.8.6-1.6 1.1-2.5 1.4zM190.3 152c-.2-.7-.6-1.3-1.3-1.6-.9-.4-1.9.1-2.7.5-.5.3-1 .6-1.3 1.1-.9 1.3-1.1 6.5-2.5 8.7-.2.3-.5.7-.8.9 4 3.5 8.6 3.6 11.6 1.6 1.1-.7 1.9-1.3 2.7-2.2-1-.9-2.8-1-4-1.9-2.2-1.7-1.2-5.4-1.7-7.1z" fill="#7cb7da"/><path d="M165.4 115c-1-.9-2-1.8-3.2-2.4-2.7-1.2-6-.2-8.1 1.9-3.8 3.8-4.2 6.7-5 10.5-7.3 31.9-7.4 31.5-7.3 33.9.1 1.7.6 3.5 1.6 4.9 0 .1.1.1.1.2.4.6.9 1.2 1.6 1.6.6.4 1.4.7 2.2.6 1.2-.2 1.9-1.3 2.4-2.3 2.8-5.1 9.4-21.9 11.6-26.6 0-.1.1-.2.1-.3 4.3 5.9 8.9 11.7 13.6 17.3 3.7 2.5 8.4 3.8 12.9 4.1 3.6.3 7.5-.1 10.2-2.3.3-2.6-.2-5.3-1.2-7.6-3.6-8.9-24.4-26.9-31.5-33.5z" fill="#01294d"/><path d="M165.4 115c-1-.9-2-1.8-3.2-2.4-2.4-1.1-5.4-.3-7.4 1.4 7.6-4 9.4 6 13.1 10.1 2.2 2.4 5.5 2.9 7.8 5.2 4.3 4.2 4.7 12.3 17.6 13.4-7.4-9.5-22.2-22.3-27.9-27.7zM161.4 137c-.9-.9-1.7-1.6-2.9-1.6-4 0-3 8.9-4.4 11.9-1.3 2.7-3.5 5-4.7 7.8-.9 2.3-.6 5.1-1.9 7.3-1.2 2.1-2 1.6-3.1 2.8.2.2.4.4.6.5.6.4 1.4.7 2.2.6 1.2-.2 1.9-1.3 2.4-2.3 2.8-5.1 9.4-21.9 11.6-26.6.1-.2.2-.3.2-.4z" fill="#003a60"/><path d="M187.5 136c5.8 5.7 14.4 15.1 25.5 13.7 1-5.4.8-11 .7-16.5-.4-13.8-.9-19.6-5.9-32.5-1.7-4.4-3.7-8.9-7-12.3-2.7-2.8-6.3-4.7-10.1-5.6-3.7-.8-8.2-1.5-9.8 2.8-.7 1.8-.7 3.8-.6 5.7.1 5.7.2 11.4 1.3 17 1 5.1 3.6 12.4 2.4 23.9l3.5 3.8z" fill="#fff"/><path d="M201.2 147.3c0-.2-.1-.4-.1-.6-.6-2.6-2.1-4.9-2.3-7.5-.5-6.8 7.8-11.7 7.7-18.5-.1-3.2-2.1-6.1-4.4-8.2-2.4-2.1-5.2-3.8-7.6-5.9-2.4-2.1-4.5-4.9-4.8-8-.3-4 2.3-8.1 1-12-.8-2.3-2.9-3.5-5.2-4.2-.1 0-.2-.1-.4-.1-1.8.2-3.4 1.1-4.3 3.3-.7 1.8-.7 3.8-.6 5.7.1 5.7.2 11.4 1.3 17 1 5.1 3.6 12.4 2.4 23.9l3.6 3.7c3.5 3.6 8.1 8.5 13.7 11.4z" fill="#88c4e7"/><path d="M167.2 84c-12 2.4-10.5 2.6-12.7 2.8-1.4.1-3-.6-4.4-1-16.2-4.3-19.1-6.1-21-6.1-2.2.1-3 2-1.8 3.7.6.7 1.4 1.2 2.2 1.7 17.6 10.5 17.7 10.6 19.5 11.3 3.8 1.3 13.4 1 22.1.3-5.1-.9-6.6-10-3.9-12.7z" fill="#bfe9ff"/><path d="M167.2 83.9c-12 2.4-10.4 2.7-12.6 2.9-1.4.1-3-.6-4.4-1-16.2-4.3-19.1-6.1-21-6.1-.4 0-.7.1-.9.2.3.2.6.3.9.5 8 3.9 18.7 7.8 24 7.8.6 0 6.5-1 13.2-2.7.1-.7.4-1.2.8-1.6z" fill="#fff"/><path d="M186 81.9c-4.5-.6-8.9.1-13.3.9-2.1.4-4 .8-5.6 1.1-2.7 2.7-1.2 11.8 3.9 12.8 6.1-.5 11.8-1.1 14.6-1.4 1.6-.2 3.3-.4 4.7-1.2 4.4-2.3 8.3-10.6-4.3-12.2z" fill="#fff"/><path d="M190.6 86.7c-.8-2.3-2.9-3.5-5.2-4.2-1.7-.5-3.4-.7-5.1-.7-2.5.2-5.1.6-7.6 1.1-2.1.4-4 .8-5.6 1.1-2.7 2.7-1.2 11.8 3.9 12.8 6.1-.5 11.7-.7 14.5-1 1.5-.2 3.2-.8 4.5-1.4.7-2.6 1.5-5.2.6-7.7z" fill="#88c4e7"/><path d="M177.4 82.1c-1.6.2-3.1.5-4.7.8-2.1.4-4 .8-5.6 1.1-.4.4-.7.9-.9 1.5 3.8-1 7.8-2.2 11.2-3.4z" fill="#fff"/><path d="M173.7 149.2c.1-.3-.2-.7-.5-.8-.6-.2-1.8.1-3.1 0l2.4 3c.3-.5.7-1.3 1-1.8.1-.2.1-.3.2-.4zM190.3 152c-.2-.7-.6-1.3-1.3-1.6-.9-.4-1.9.1-2.7.5-.5.3-1 .6-1.3 1.1-.6.9-.9 3.5-1.4 5.8 1.5.3 2.9.5 4.4.6 1.1.1 2.3.1 3.4 0-1.4-1.8-.7-4.9-1.1-6.4zM196.9 148.2c-1.9.2-3.1 2.2-3.6 4-.4 1.3-.6 2.9.2 4.1.5.7 1.3 1.1 2.2 1.3.9-.4 1.7-.8 2.5-1.5.3-2.6-.2-5.3-1.2-7.6 0-.1-.1-.2-.1-.3zM143.4 163.8c1.8-.9 2.1-1 2.4-1.4.6-.6.9-1.6.7-2.4-.2-.7-.7-1.3-.9-2-.8-2.8 3.1-5.5 1.6-8.1-.7-1.2-2.3-1.6-3.3-2.4-2.2 9.4-2.2 9.8-2.1 11.3.2 1.9.7 3.6 1.6 5z" fill="#003a60"/><path d="M153.8 148.1c-.6-1.1-.8-2.5-.8-3.7.1-1.4.2-3-.9-3.8-1-.7-2.4-.2-3.6-.6-1-.3-1.7-1.3-2-2.4-.1-.3-.1-.6-.1-.9-.5 2.3-1 4.3-1.4 6 .2.3.5.6.7.9 1.4 1.2 4 1.7 4.7 4.5.8 3-2 6.4-1.8 8.2 0 .3.1.5.2.7.1-.6.3-1.3.5-1.9 1.2-2.5 3.2-4.6 4.5-7zM162.8 132.6c-.4-.2-1-.1-1.4 0-1.7.4-3.8 0-4.4-1.6-.2-.6-.2-1.2-.3-1.8-.6-2.9-4-.8-5.1.6-.5.7-.7 1.5-.9 2.3-.3 1-1.5 5.1.6 5.3.3 0 .6-.1.9-.2 1.3-.6 3-.9 4 .1l.1.1c.5-1.2 1.2-1.9 2.4-1.9 1.1 0 2 .7 2.9 1.6.1-.4.3-.7.5-1 .4-.5.9-1 1.2-1.6.2-.7.1-1.6-.5-1.9z" fill="#003a60"/><path d="M149.9 163.6c1.5-2.8 3.8-8.3 6.1-13.7-.5-.2-1-.4-1.4-.8-.3-.3-.6-.6-.8-.9-1.3 2.4-3.2 4.5-4.3 7-.2.6-.4 1.2-.5 1.9l.3.6c1.3 2.5.2 4.5.6 5.9zM158.6 135.4c-1.2 0-1.9.8-2.4 1.9 1.2 1.2.6 3.3 1.6 4.7.3.4.7.7 1.2.7 1-2.3 1.8-4.3 2.4-5.5 0-.1.1-.1.1-.2v-.1c-1-.8-1.8-1.5-2.9-1.5z" fill="#7cb7da"/><path d="M154.8 114c-.2.1-.4.3-.5.5.1.5 0 1.1-.1 1.6-.2 1.6.5 3.3.3 4.9-.4 2.4-3 3.8-4.6 2.9-.1-.1-.3-.2-.4-.3l-.3 1.5c-.1.6-.3 1.2-.4 1.8.8.4 1.8.5 2.6 0 .5-.3.9-.7 1.4-1 2.2-1.8 4.9-2.2 5.8-2 .8.2 1.2 1.1 1.3 1.9.1.8-.1 1.6-.3 2.4-.2 1.1.1 1.5 1.1 1.8.7.2 1.4.4 2.1.4.7 0 1.5-.3 1.8-1 .7-1.3-.5-2.7-.8-4.2-.4-1.5.4-3.6 1.4-5.6-2.5-4.1-5-8.5-10.4-5.6zM179.7 135c-1.2 1.7-2.1 3.3-.6 4.6 2.5 2.3 5 1.4 6.8 1.6 1 .1 2.1.7 2.4 1.6.3 1-.1 2.3.6 3 .5.5 1.4.4 2 .1 1-.6 1.5-1.8 3.5-3.2-8.9-.4-12.3-4-14.7-7.7z" fill="#003a60"/><path d="M167.9 124.1l-.9-1.2c-.3 2.6.5 5.6 2.8 8.8.7.9 1.4 1.8 1.6 2.9.2 1.1-.3 2.4-1.4 2.6-.7.1-1.5-.3-2.2-.5-1.4-.4-3.1 0-4.2 1.1-.3.4-.6.8-.8 1.3.7 1 1.4 1.9 2.2 2.9.7-2.5 2.8-3.7 3.8-.4 1.8 5.9 2.3 4.4 6.7 3.8.6-.1 1.3-.1 1.9 0 1.7.4 2 2.1.7 3.4-.6.6-1.4 1-2 1.5-.9.8-1.5 1.9-1.8 3.1.3.3.6.7.9 1 .4.3.8.5 1.2.7 0-.5.1-.9.2-1.4.6-1.6 2.1-2.7 3.4-3.8 1.3-1.2 2.4-2.9 1.8-4.6-.7-1.6-2.7-2-4.4-2.2-1.7-.2-3.7-.4-4.6-1.8-.8-1.2-.6-2.8.1-4 1.2-2.1 3.7-3.4 5-5.5-.6-1-1.3-1.9-2.1-2.6-2.4-2.2-5.8-2.8-7.9-5.1z" fill="#003a60"/><path d="M165.4 115c-1-.9-2-1.8-3.2-2.4-2.4-1.1-5.4-.3-7.4 1.4 5.4-2.9 7.9 1.5 10.2 5.7.6-1.2 1.3-2.3 2-3.2-.6-.5-1.1-1-1.6-1.5zM178.8 127.3c-3.6-3.4-7-6.5-9.8-9-1.1 1.2-1.9 2.8-2.1 4.6l.9 1.2c2.2 2.4 5.5 2.9 7.8 5.2.8.8 1.4 1.7 2.1 2.6.2-.3.3-.6.4-.9.5-1.2.5-2.5.7-3.7z" fill="#7cb7da"/><path d="M187.5 136c-1.7-1.8-3.5-3.6-5.3-5.4-.4 1.6-1.6 3-2.5 4.4 2.4 3.7 5.8 7.3 14.8 7.7-2.6-2.3-5-4.7-7-6.7z" opacity=".35" fill="#b0e3ff"/><path d="M170.3 124.1c-.3-.3-.5-.6-.7-.9-.9 1-1.7 2-2.5 3.1s-3.5 3.8-2.3 5.1c.1 0 2.6 2.9 9.5 9.7.3.3.6.7 1 .8.6 0 1.3-.8 2.1-1.6.6-.6 3.1-2.9 5-4.9-1.5-2.2-2.6-4.5-4.3-6.1-2.2-2.3-5.6-2.9-7.8-5.2z" fill="#012143"/><path d="M184.6 132c-2.8-4.3-7.1-7.6-11-10.7-.8-.6-1.3-1.1-2.4.1-.6.6-1.1 1.1-1.6 1.7.2.3.5.6.7.9 2.2 2.4 5.5 2.9 7.8 5.2 1.7 1.7 2.8 3.9 4.3 6.1 1.3-1.3 2.4-2.5 2.4-2.7.1-.2-.1-.4-.2-.6z" fill="#012143"/><path d="M184.6 132c-2.8-4.3-7.1-7.6-11-10.7-.8-.6-1.3-1.1-2.4.1-.6.6-1.1 1.1-1.6 1.7.2.3.5.6.7.9 2.2 2.4 5.5 2.9 7.8 5.2 1.7 1.7 2.8 3.9 4.3 6.1 1.3-1.3 2.4-2.5 2.4-2.7.1-.2-.1-.4-.2-.6z" fill="#003a60"/><path d="M176 140.4c-6.9-6.8-9.4-9.6-9.5-9.7-1.3-1.3 1.5-4 2.3-5.1 1.3-1.7 2.7-3.3 4.1-4.8-.5-.2-.9-.2-1.7.6-1.5 1.5-2.9 3.1-4.1 4.8-.8 1.1-3.5 3.8-2.3 5.1.1 0 2.6 2.9 9.5 9.7.3.3.6.7 1 .8.4 0 .8-.3 1.3-.8l-.6-.6z" fill="#01183a"/><path d="M170.3 124.1c-.3-.3-.5-.6-.7-.9-.9 1-1.7 2-2.5 3 .4 1.7 1.2 3.6 2.6 5.5.7.9 1.4 1.8 1.6 2.9.2 1-.2 2.2-1.1 2.5l1.9 1.9c.1-.6.3-1.1.6-1.6 1.4-2.4 4.5-3.7 5.4-6.4.1-.4.2-.9.3-1.3-.1-.1-.2-.3-.4-.4-2.1-2.3-5.5-2.9-7.7-5.2zM178.3 139.4c1-1 2.7-2.6 4.1-4-.8-1.2-1.6-2.5-2.3-3.7-1.3 3-3.6 5.8-1.8 7.7z" fill="#003a60"/><path d="M179.1 125.8c-1.8-1.6-3.7-3.1-5.4-4.5-.8-.6-1.3-1.1-2.4.1-.6.6-1.1 1.1-1.6 1.7.2.3.5.6.7.9 2.2 2.4 5.5 2.9 7.8 5.2.1.1.2.3.4.4.1-.8.1-1.5.3-2.3-.1-.5 0-1 .2-1.5z" fill="#003a60"/><path d="M179.1 125.8c-1.8-1.6-3.7-3.1-5.4-4.5-.8-.6-1.3-1.1-2.4.1-.6.6-1.1 1.1-1.6 1.7.2.3.5.6.7.9 2.2 2.4 5.5 2.9 7.8 5.2.1.1.2.3.4.4.1-.8.1-1.5.3-2.3-.1-.5 0-1 .2-1.5z" fill="#7cb7da"/><path d="M184.6 132c-1.1-1.7-2.5-3.3-4-4.8.4 1.5.1 3-.5 4.4.8 1.2 1.5 2.4 2.3 3.7 1.3-1.3 2.4-2.5 2.4-2.7.1-.2-.1-.4-.2-.6z" fill="#003a60"/><path d="M184.6 132c-1.1-1.7-2.5-3.3-4-4.8.4 1.5.1 3-.5 4.4.8 1.2 1.5 2.4 2.3 3.7 1.3-1.3 2.4-2.5 2.4-2.7.1-.2-.1-.4-.2-.6z" fill="#7cb7da"/><path d="M168.7 125.6c1.3-1.7 2.7-3.3 4.1-4.8-.5-.2-.9-.2-1.7.6-1.5 1.5-2.8 3.1-4.1 4.7.1.4.2.7.3 1.1.6-.6 1.2-1.2 1.4-1.6zM171.3 135.8c-.2.6-.5 1-1 1.2l1.9 1.9c.1-.6.3-1.1.6-1.6-.5-.6-1-1.1-1.5-1.5z" fill="#01183a"/><path d="M148.2 131.1c-.5-.2-.9.5-1.1 1-1.3 4-2.4 8.1-3.2 12.2-.4 1.8-.1 2.3 1 3.1 1.2 1 2.5 1.8 3.9 2.5 1 .5 1.4.2 1.7-.5 1.6-3.6 2.9-7.4 4-11.2.4-1.4.2-1.8-.6-2.4-1.8-1.5-4-2.7-5.4-4.6-.1 0-.1 0-.3-.1z" fill="#012143"/><path d="M153.8 135.8c-.2-.2-.4-.3-.7-.5v.2c-1.2 4.9-2.7 9.7-4.6 14.3.1 0 .1.1.2.1 1 .5 1.4.2 1.7-.5 1.6-3.6 2.9-7.4 4-11.2.4-1.3.2-1.7-.6-2.4z" fill="#256085"/><path d="M145.8 143.6c1.4 1.2 4 1.7 4.7 4.5.1.3.1.7.1 1 .9-2 1.7-4.1 2.4-6.3 0-.9-.2-1.8-.9-2.3-1-.7-2.4-.2-3.6-.6-1-.3-1.7-1.3-2-2.4-.1-.3-.1-.6-.1-.9 0-.5-.2-.9-.4-1.2-.6 2-1.1 4.1-1.6 6.1.4.9.8 1.6 1.4 2.1z" fill="#003a60"/><path d="M163 240.7c.2-.3.5-.5.7-.8.4-.4.8-.8 1.3-1.2-.1-2.4-.3-4.8-.4-7.3-.9 1.9-1.5 4.6-1.6 9.3z" fill="#01294d"/><path d="M167.7 234.9c.4-1.5-.1-3-.3-4.5-.1-.7-.1-1.4-.1-2.1-1 .8-2 1.7-2.7 3.2.1 2.4.3 4.9.4 7.3 1.2-1.2 2.4-2.3 2.7-3.9z" fill="#003a60"/><path d="M157.1 248c.1-.1.3-.2.4-.3-1.6-1.5-4.5-1.6-6.5-5.8-1.3.8-2.8 1.2-3.4 1.9-.6.7-.5 1.9 0 2.7 1.2 2 6.4 3.7 9.5 1.5z" fill="#01294d"/><path d="M191.5 165.2l1.2.6c.3-.3.5-.7.8-1 0 0-.7.4-2.3.4.2-.1.3-.1.3 0zM185.7 164c-1.5-.5-2.8-1.3-4-2.4-.6.5-1.4.9-2.2.8-1.1-.1-1.9-.8-2.7-1.6-.2.2-.3.4-.5.5l-1.9 1.9c.1.8.3 1.6.5 2.4 1.8 7.2 7.3-.4 13.3-1-.7 0-1.6-.2-2.5-.6z" fill="#003a60"/><path d="M190.5 168.2c-4.6-.4-9 3.2-13.6 3.6-1.2.1-1.8-.1-2.5-1.1-1.3-1.9-1.2-4.3-1.7-5.4-3.3 3.6-6.3 7.6-8.9 11.7-.9 1.5-1.7 2.7-2.3 4 .1.1.2.1.4.1.8.2 1.6 0 2.5-.1 2-.4 4.4-.3 5.8 1.2.8.9 1.1 2 1.6 3.1.7-.4 1.4-.8 2-1.4-2.5-2.2-3.8-7.7.1-8.1.6-.1 1.2.1 1.7.4.1-.7.2-1.3.5-2 1.7-3.6 5.7-1.5 10.2-3.3 1.6-.7 2.9-1.6 4.2-2.7zM162.3 215.2c.6-5.2 4.8-10 3.7-15.2l-.3-1.2c-.3 1.4-.9 3-2.8 4-1.1.6-2.3.8-3.4 1.5-.8.5-1.4 1.3-1.8 2.1-.1 3.3-.2 6.6-.2 10 0 2 .2 4.3 1.7 5.4.7-.3 1.4-.7 1.9-1.3.5-.5.9-1.2 1.2-1.8-.1-1.2-.1-2.4 0-3.5zM161.5 191.6c-.8-.7-1.7-1.5-2.7-1.8-.2 1.2-.3 2.5-.4 3.9l-.3 3.9c.4.5 1 .9 1.7 1.1 1.8.5 2.6-1.4 2.9-3.3.3-2.1-.1-2.8-1.2-3.8zM165.9 183.8c-.6 0-1.3 0-1.9.4-1 .7-1.9 2.7-1.2 4.8.2.9 1 2.8 1.9 3 .7-2.2 2.4-4.1 4.4-5.4.2-1.5-.8-2.7-3.2-2.8z" fill="#003a60"/><path d="M173.8 138.8c-.2-.3-.3-.4 0-.8 3.9-4.7 8.9-8.4 9.4-8.5.3 0 .5.2.7.4.4.5.8 1.1 1.2 1.6.4.6.3.9-.1 1.4-3.3 3.9-8.8 8.7-9.2 8.8-.3.1-.5.1-.6 0-.1-.1 0 0 .2-.3.2-.6-.4-1.1-1.6-2.6z" fill="#012143"/><path d="M185 132.9c.4-.5.5-.8.1-1.4-.4-.6-.7-1.1-1.2-1.6-.2-.2-.4-.4-.7-.4-.2 0-1.1.6-2.3 1.6-1.1 3.2-3.8 6.1-2.2 8.2 2-1.9 4.5-4.3 6.3-6.4z" fill="#003a60"/><path d="M152.9 137.9c-.8 1.2-.7 1.3-1 1.2-.5 0-.9-.2-1.3-.5-.8-.5-1.2-.9-4.2-3.4-.5-.5-.4-.6-.3-1.1.3-.9.6-1.8 1.1-2.6.1-.3.3-.6.6-.6s.6.3.8.6c1.6 2 4.9 3.5 5.8 4.7.1.1.3.5.2.7-.2-.1-.3-.1-.5-.1-.5.1-.8.6-1.2 1.1z" fill="#01294d"/><path d="M152.1 137.2c.8-.3 1.7-.6 2.6-.5 0-.2-.2-.3-.2-.4-.6-.9-2.5-1.9-4.1-3.1-.4 1.6-.8 4.2.8 4.3.3 0 .6-.2.9-.3z" fill="#003a60"/><path d="M154.2 136.8c.2 0 .3 0 .5.1.1-.2-.1-.5-.2-.7-.3-.3-.7-.7-1.3-1.1v.3c-.3 1.2-.6 2.3-.9 3.5.1-.2.3-.5.7-1.1.3-.4.6-.9 1.2-1z" fill="#01294d"/><path d="M154.3 136l-.1-.1-.1-.1-.1-.1-.1-.1c-.1 0-.1-.1-.2-.1l-.1-.1c-.1 0-.1-.1-.2-.1l-.1-.1-.1-.1-.1-.1v.3c-.1.5-.2 1-.4 1.5.6-.2 1.3-.3 1.9-.2 0-.1-.1-.3-.2-.4 0 0 0-.1-.1-.1.1.1.1 0 0-.1 0 .1 0 .1 0 0z" fill="#003a60"/><path d="M152.1 140.6c-.1-.1-.2-.1-.3-.2-.6 2.1-1.3 4.1-2 6.2.3.4.6.9.7 1.5.1.3.1.7.1 1 .9-2 1.7-4.1 2.4-6.3 0-.8-.2-1.7-.9-2.2z" fill="#7cb7da"/><circle cx="176.4" cy="137.7" r=".7" fill="#6fabce"/><ellipse transform="rotate(-73.896 151.0632 137.0516)" cx="151.1" cy="137.1" rx=".7" ry=".5" fill="#6fabce"/><ellipse transform="rotate(-73.896 147.387 134.3066)" cx="147.4" cy="134.3" rx=".7" ry=".5" fill="#6fabce"/><circle cx="182.5" cy="132" r=".7" fill="#6fabce"/><g><path d="M120.8 80.4c.5-.1.9-.2 1.2-.2 1.8 0 6.5 5.3 9 5.3.8 0 1.3-.8 1.3-1.5 0-2.4-8.6-6.5-11.1-6.5-1.2 0-1.8.7-1.8 1.6 0 .7.4 1.3 1 1.3.1.1.2.1.4 0z" fill="#bfe9ff"/></g><g><path d="M124.1 25.1c-.5-.3-1.2 1.9-2.4 2.6-.2.1-.4.2-.5.4-.2.4-.8.7-.1 1.1.5.2 1.8.7 2.3.6.2 0 .4-.1.5-.2.3-.4-.3-2.1.2-4.2v-.3z" fill="#195378"/></g><g><path d="M105.4 22c-.2-9.2 5.7-13.3 10.9-14.1 4-.6 7.4 1.9 8.8 4.4 1 1.7 1.6 3.6 1.4 5.6-.3 3.9-3.2 9.3-5.4 12.5-1.4 2-4.1 4.8-6.4 5-5 .6-9-3.7-9.3-13.4z" fill="#195378"/></g><g><path d="M121.4 8.7c-1.5-.8-3.2-1.1-5-.9-5.2.8-11.2 4.9-10.9 14.1.1 4.7 1.1 8.1 2.7 10.3 2.2-1.5 3.9-3.7 4.6-6.3.5-2.1.4-4.3.4-6.5.2-8.4 4.7-11.1 8.2-10.7z" fill="#003a60"/></g><g><path d="M125.2 12.3c-1.5-2.6-4.8-5.1-8.8-4.4-5.2.8-11.2 4.9-10.9 14.1 0 .9.1 1.7.2 2.5.6.2 1.3.2 1.9-.1 1.4-.6 2.9-2.5 3.8-3.8.6-.9 1.1-1.9 1.9-2.7 1.4-1.4 3-1.4 3.6-1 .9.7.1 1.6 1.1 3.6.4-1 1.1-2.2 2.1-2.7 1.3-.8 3.2-.2 4.2-2 .2-.4.2-1.2.4-1.4.2-.2.9-.2 1.6-.2-.5-.7-.7-1.3-1.1-1.9z" fill="#003a60"/></g><g><path d="M113.1 17.9l.1-.1c.8-7.2 4.9-9.5 8.2-9.1-1.5-.8-3.2-1.1-5-.9-5.2.8-11.2 4.9-10.9 14.1 0 .9.1 1.7.2 2.5.6.2 1.3.2 1.9-.1 1.4-.6 2.9-2.5 3.8-3.8.4-.8 1-1.8 1.7-2.6z" fill="#01294d"/></g><g><path d="M104.7 22.8c-.1-2.6-.1-6 .5-8.5 1.3-4.9 4.7-8.1 9.7-8.2 2.9 0 6 1.2 7.9 2.7 3 2.3 3.2 5.4 3.2 5.4-5.8-1.4-4.7-.5-6.9.6-2.3 1.2-4.8 0-7 .4-2 .3-3.6 1.8-4.4 3.6-.5 1.2-1.1 3.7-3 4" fill="#01294d"/></g><g><path d="M123.5 9.4c-.2-.2-.4-.4-.7-.6-1.9-1.5-4.9-2.7-7.9-2.7-5.1 0-8.4 3.3-9.7 8.2-.7 2.5-.6 5.9-.5 8.5 1.9-.3 2.5-2.8 3-4.1.8-1.8 2.5-3.3 4.4-3.6.5-.1 1.1-.1 1.6 0 1.9-6.4 6.8-7.4 9.8-5.7z" fill="#01183a"/></g><path d="M104.4 8.9c1.3 1.4 2.7 2 4 2 2.7 0 4.9-2.5 4.9-5.3 0-3-2.6-5.6-5-5.6-2.7 0-5.1 2.9-5.1 5.8 0 1.1.4 2.2 1.2 3.1z" fill="#01294d"/><g opacity=".44"><path d="M95.7 45.8c4.1.1 5.7.4 9.5-1.7 9.1-5.1 11.5-13.5 8.7-19.5-1.3-2.7-3.7-4.8-6.3-6.3-6.2-3.6-13.7-4.1-20.7-3C78 16.6 69 21.2 61.5 26c-7.8 4.9-14.6 11.4-19.3 19.4-1.6 2.8-3 5.8-3.4 9.1-.3 3.2.5 6.7 2.7 9.1 2 2.1 5 3.1 7.8 3.6 6.1 1.1 14 .8 18.3-3.7 1.5-1.5 5.9-8.2 7.1-10 .9-1.4 2-2.9 6-4.8 4.6-2.3 9.9-3 15-2.9z" fill="#fc2222"/></g><g><path d="M105.7 103.8c3.4-9.1 8.7-17.9 9.6-27.7.4-3.6-.1-5.4-3.6-8.7-12.1-11.1-29-17.1-45-20.3-2.5-.5-12.6 0-14.9.7-4.8 1.4-7.9 4.6-8.4 9.7-.1 1.7.1 3.5.8 5.1 1.9 4.1 5.9 5.7 9.8 6.7 27 7 38.4 5.7 42.3 7.4 1.3.5 1 .9.8 2.4-1.9 10.4-4.5 23.9-7.2 36.4l9.9 2.7c1.9-4.8 4.1-9.6 5.9-14.4z" fill="#fff"/><path d="M101.9 73.7c-5.8-4.1-10.9-1.6-15.5-3.9-4.1-2.1-5.4-6.8-13-8.9-2.3-.7-4.8-.8-7.1-1.5-5.2-1.5-7.5-5-5.9-10.5.2-.6.4-1.3.6-1.9-3.7.1-7.9.5-9.4.9-4.8 1.4-7.9 4.6-8.4 9.7-.1 1.7.1 3.5.8 5.1 1.9 4.1 5.9 5.7 9.8 6.7 27 7 38.4 5.7 42.3 7.4 1.3.5 1 .9.8 2.4-1.9 10.4-4.5 23.9-7.2 36.4l4.8 1.3c1.6-3 3.3-6 4.6-9.1.8-1.9 1.4-3.9 1.5-6 .1-3.6-1.5-7.2-.9-10.8 1.2-6.4 9.3-12.4 2.2-17.3z" fill="#88c4e7"/><path d="M86 131.8c-.2.8-.5 1.5-.7 2.3-.4 1.3-.7 2.3.1 3.5 1.8 2.6 5.2 3.1 7.8 4.4 3.8 2 6.5 6.1 10.7 7.3 1.2.4 4 .7 5.1.4.6-.2 1.1-.6 1.3-1.1.3-1-.5-2-1.3-2.7-4.4-4.3-8.6-9.5-11-15.1-1.2-2.8-1.2-6 0-8.9.5-1.2 1-2.5 1.6-3.7l-9.9-2.7c-.9 4.2-1.8 8.3-2.7 12.2-.2 1.3-.6 2.7-1 4.1z" fill="#195378"/><path d="M94.6 116.8l-4.8-1.3c-.9 4.2-1.8 8.3-2.7 12.2-.3 1.4-.7 2.8-1.1 4.1-.2.8-.5 1.5-.7 2.3-.4 1.3-.7 2.3.1 3.5 1.4 2 3.8 2.8 6.1 3.7-.4-.7-.7-1.3-1-2-2.3-5.2-1.2-11.3 1-16.5.9-2.1 2-4.1 3.1-6z" fill="#003a60"/></g><g><path d="M109 145.8c-4.3-4.2-8.4-9.2-10.8-14.7-1.1.5-2.1 1.5-3.2 2-2.2 1-4.9 0-5.8-2.3-.5-1.1-.5-2.5-1-3.6-.2-.3-.5-.7-.8-.8l-.3 1.2c-.3 1.4-.7 2.8-1.1 4.1-.2.8-.5 1.5-.7 2.3-.4 1.3-.7 2.3.1 3.5 1.8 2.6 5.2 3.1 7.8 4.4 3.8 2 6.5 6.1 10.7 7.3 1.2.4 4 .7 5.1.4.6-.2 1.1-.6 1.3-1.1.4-1-.5-1.9-1.3-2.7z" fill="#e6e6e6"/></g><g><path d="M90.5 139.2c-1.2-2.6-1.5-5.4-1.2-8.2 0-.1-.1-.1-.1-.2-.5-1.1-.5-2.5-1-3.6-.2-.3-.5-.7-.8-.8l-.3 1.2c-.3 1.4-.7 2.8-1.1 4.1-.2.8-.5 1.5-.7 2.3-.4 1.3-.7 2.3.1 3.5 1.4 2 3.8 2.8 6.1 3.7-.3-.6-.7-1.3-1-2z" fill="#88c4e7"/></g><path d="M89.2 117.5c6.8.9 9.1 3 9.8 3 .9 0 1.4-1.6 1.4-2.7 0-2.8-7.7-3.9-10.1-3.9-2 0-1.6 2.5-1.1 3.6z" fill="#ff8895"/><g><path d="M90.4 113.9c-2.1 0-1.7 2.5-1.2 3.6 1.8.3 3.3.6 4.5.9.7-1.3 1.4-2.5 2-3.8-2-.5-4.2-.7-5.3-.7z" fill="#e32426"/></g><g><path d="M107.6 18.4c-6.2-3.6-13.7-4.1-20.7-3C78 16.6 69 21.2 61.5 26c-7.8 4.9-14.6 11.4-19.3 19.4-1 1.8-2 3.6-2.6 5.5-1.4 3.6-2.6 7.6-3.4 11.6 3.2 2.4 7 3.5 10.9 3.5 15.1 0 16.8-18.1 31.1-16h.1-.2c.7-.4 1.5-.9 2.5-1.3 4.7-2.2 9.9-3 15-2.8 4.1.1 5.7.4 9.5-1.7 9.1-5.1 11.5-13.5 8.7-19.5-1.3-2.7-3.6-4.8-6.2-6.3z" fill="#e32426"/></g><g><circle cx="73.4" cy="31.3" r="3.4" fill="#88c4e7"/><circle cx="76.9" cy="41.4" r="3.4" fill="#fff"/><path d="M78.3 50h-.2c.6-.4 1.3-.7 2.1-1.1-.9.1-1.7.5-2.3 1.1h.4z" fill="#fff"/><circle cx="93.1" cy="26.3" r="3.4" fill="#88c4e7"/><path d="M91.9 45.1c.5-1.8-.7-3.7-2.5-4.2s-3.7.7-4.2 2.5c-.3 1.2.1 2.4.9 3.3 1.8-.4 3.6-.7 5.5-.8.1-.2.2-.5.3-.8z" fill="#fff"/><ellipse transform="rotate(-40.392 96.6322 37.195)" cx="96.6" cy="37.2" rx="3.4" ry="3.4" fill="#fff"/><path d="M69.7 46c-1.8-.5-3.7.7-4.2 2.5s.6 3.6 2.4 4.1c1.3-.9 2.7-1.7 4.2-2.2 0-.1.1-.2.1-.3.4-1.8-.7-3.6-2.5-4.1z" fill="#fff"/><path d="M68.9 23.8c1.8.5 3.7-.7 4.2-2.5.1-.6.1-1.2 0-1.7-2 .9-4.1 1.9-6 3 .5.6 1.1 1 1.8 1.2zM53.5 61.1c-1.8-.5-3.7.7-4.2 2.5-.2.8-.1 1.6.2 2.3 2.5-.3 4.6-1.2 6.4-2.4-.3-1.2-1.2-2.1-2.4-2.4z" fill="#88c4e7"/><path d="M102.9 45.2c-.5-.6-1.1-1.1-1.9-1.3-1.7-.4-3.4.5-4 2 2.4.1 3.9.1 5.9-.7z" fill="#fff"/><circle cx="85" cy="34.3" r="3.4" fill="#fff"/><circle cx="81.4" cy="23.4" r="3.4" fill="#88c4e7"/><circle cx="65.2" cy="38.4" r="3.4" fill="#fff"/><circle cx="49.1" cy="53.5" r="3.4" fill="#88c4e7"/><path d="M111.5 38.9c-.4-1-1.2-1.8-2.4-2.1-1.8-.5-3.7.7-4.2 2.5-.4 1.6.4 3.2 1.8 3.9 2-1.3 3.6-2.7 4.8-4.3zM56.9 36.3c.5-1.8-.7-3.7-2.5-4.2-.4-.1-.8-.1-1.1-.1-1.1 1-2.1 2-3.1 3-.3 1.7.8 3.4 2.6 3.8 1.8.5 3.7-.6 4.1-2.5zM40.8 51.4c.2-.9.1-1.8-.4-2.6-.3.7-.6 1.4-.8 2-.4 1-.7 1.9-1.1 3 1.1-.3 2-1.2 2.3-2.4z" fill="#88c4e7"/><circle cx="57.2" cy="46.4" r="3.4" fill="#88c4e7"/><path d="M44.3 62.3c.5-1.8-.7-3.7-2.5-4.2s-3.7.7-4.2 2.5c-.3 1.3.1 2.6 1.1 3.5.6.3 1.2.6 1.8.8 1.8.2 3.4-.9 3.8-2.6z" fill="#88c4e7"/><path d="M64.1 56c-.2-1.4-1.2-2.5-2.6-2.9-1.8-.5-3.7.7-4.2 2.5s.7 3.7 2.5 4.2c.2 0 .3.1.5.1 1.3-1.3 2.6-2.6 3.8-3.9z" fill="#fff"/><path d="M44.7 46.8c1.8.5 3.7-.7 4.2-2.5s-.7-3.7-2.5-4.2c-.2 0-.4-.1-.6-.1-1.2 1.6-2.3 3.2-3.4 4.9.5.9 1.3 1.6 2.3 1.9zM58.3 28.1c-.1 1.6.9 3.2 2.6 3.6 1.8.5 3.7-.7 4.2-2.5.4-1.8-.6-3.5-2.2-4.1-.4.3-.9.6-1.3.8-1.2.8-2.3 1.5-3.3 2.2zM113 31.3c-.3 1.3.1 2.5 1 3.4.7-1.9 1.1-3.8 1-5.7-1 .4-1.7 1.3-2 2.3z" fill="#88c4e7"/><circle cx="104.7" cy="29.2" r="3.4" fill="#88c4e7"/><path d="M97.8 18.4c-.5 1.8.7 3.7 2.5 4.2s3.7-.7 4.2-2.5c.4-1.4-.2-2.8-1.3-3.6-.8-.3-1.5-.5-2.3-.7-1.4.1-2.7 1.1-3.1 2.6zM86.9 15.3c-.2 0-.4.1-.7.1-.5 1.8.7 3.7 2.5 4.2s3.7-.7 4.2-2.5c.2-.8.1-1.6-.2-2.2-2 0-3.9.2-5.8.4z" fill="#88c4e7"/></g><g><path d="M107 20.8c1.8.2 3.5.6 5.2 1.3-1.3-1.5-2.9-2.7-4.6-3.7-6.2-3.6-13.7-4.1-20.7-3C78 16.6 69 21.2 61.5 26c-7.8 4.9-14.6 11.4-19.3 19.4-1 1.8-2 3.6-2.6 5.5-1.4 3.6-2.6 7.6-3.4 11.6 3.2 2.4 7 3.5 10.9 3.5 7.3 0 11.5-4.3 15.5-8.5-2.5-1.9-3.3-4.8-2.2-8.7 1.6-5.7 6.1-10.4 11.7-12.1 1.8-.6 3.7-.8 5.6-1.1h.4c3.8-.5 7.5-.6 11.2.8 2.7 1 5.5 2.7 9.5 1.3 2.3-.8 4-2.3 7.6-2.2l-9-11c2.3-2.5 4.8-4.2 9.6-3.7z" fill="#195378"/></g><g><path d="M56.9 36.3c.5-1.8-.7-3.7-2.5-4.2-.4-.1-.8-.1-1.1-.1-1.1 1-2.1 2-3.1 3-.3 1.7.8 3.4 2.6 3.8 1.8.5 3.7-.6 4.1-2.5z" fill="#e32426"/><circle cx="49.1" cy="53.5" r="3.4" fill="#e32426"/><path d="M68.7 38.2c-.1-1.5-1.1-2.7-2.6-3.1-1.8-.5-3.7.7-4.2 2.5s.6 3.7 2.4 4.2c1.3-1.4 2.8-2.6 4.4-3.6zM44.7 46.8c1.8.5 3.7-.7 4.2-2.5s-.7-3.7-2.5-4.2c-.2 0-.4-.1-.6-.1-1.2 1.6-2.3 3.2-3.4 4.9.5.9 1.3 1.6 2.3 1.9z" fill="#e32426"/><circle cx="57.2" cy="46.4" r="3.4" fill="#e32426"/><path d="M53.5 61.1c-1.8-.5-3.7.7-4.2 2.5-.2.8-.1 1.6.2 2.3 2.5-.3 4.6-1.2 6.4-2.4-.3-1.2-1.2-2.1-2.4-2.4zM60 53.1c-1.2.3-2.3 1.2-2.6 2.5-.5 1.8.7 3.7 2.5 4.2.2 0 .3.1.5.1l2.3-2.3c-1.6-1.2-2.4-2.7-2.7-4.5zM68.9 23.8c1.8.5 3.7-.7 4.2-2.5.1-.6.1-1.2 0-1.7-2 .9-4.1 1.9-6 3 .5.6 1.1 1 1.8 1.2z" fill="#e32426"/><circle cx="73.4" cy="31.3" r="3.4" fill="#e32426"/><path d="M97.8 18.4c-.4 1.7.5 3.4 2 4 1.2-.8 2.6-1.4 4.4-1.6.1-.2.2-.5.3-.8.4-1.4-.2-2.8-1.3-3.6-.8-.3-1.5-.5-2.3-.7-1.4.2-2.7 1.2-3.1 2.7zM86.9 15.3c-.2 0-.4.1-.7.1-.5 1.8.7 3.7 2.5 4.2s3.7-.7 4.2-2.5c.2-.8.1-1.6-.2-2.2-2 0-3.9.2-5.8.4zM58.3 28.1c-.1 1.6.9 3.2 2.6 3.6 1.8.5 3.7-.7 4.2-2.5.4-1.8-.6-3.5-2.2-4.1-.4.3-.9.6-1.3.8-1.2.8-2.3 1.5-3.3 2.2zM40.8 51.4c.2-.9.1-1.8-.4-2.6-.3.7-.6 1.4-.8 2-.4 1-.7 1.9-1.1 3 1.1-.3 2-1.2 2.3-2.4zM44.3 62.3c.5-1.8-.7-3.7-2.5-4.2s-3.7.7-4.2 2.5c-.3 1.3.1 2.6 1.1 3.5.6.3 1.2.6 1.8.8 1.8.2 3.4-.9 3.8-2.6zM85.8 30.9c-1.8-.5-3.7.7-4.2 2.5-.2.6-.1 1.3.1 1.9 2.1-.1 4.2.1 6.3.6.1-.3.3-.5.3-.8.5-1.8-.6-3.7-2.5-4.2z" fill="#e32426"/><path d="M103.9 32.6c.1 0 .2 0 .3.1l-2.9-3.5c-.1 1.5 1 3 2.6 3.4z" fill="#01294d"/><path d="M98.8 37.7c.4-.1.8-.3 1.2-.5 0-1.5-1-2.9-2.6-3.3-1.8-.5-3.7.7-4.2 2.5-.1.5-.1 1-.1 1.4 1.8.4 3.6.6 5.7-.1z" fill="#e32426"/><circle cx="81.4" cy="23.4" r="3.4" fill="#e32426"/><circle cx="93.1" cy="26.3" r="3.4" fill="#e32426"/></g><g><path d="M128.9 60.6C121 50.3 121 35.8 114 24.8c-7.4-11.5-15.3-8-16.7-3-.7 2.6-.7 6 2.6 11.4 5 7.7 10 15.5 15 23.2 3.4 5.4 4.8 8 7.9 11.5l7.5-5.8c-.6-.5-1-1-1.4-1.5z" fill="#e32426"/><path d="M116.2 57.7c-.2-.1-.4-.1-.6-.1 1.2 1.9 2.1 3.4 3 4.7.1-.1.1-.3.2-.5.4-1.7-.7-3.6-2.6-4.1z" fill="#4a85a9"/><circle cx="104.7" cy="29.2" r="3.4" fill="#fff"/><path d="M115.1 51c.5-1.8-.7-3.7-2.5-4.2-1.3-.3-2.5.1-3.4 1 1.2 1.9 2.4 3.7 3.6 5.6 1.2-.3 2-1.2 2.3-2.4z" fill="#195378"/><path d="M111.6 41c.5-1.8-.7-3.7-2.5-4.2s-3.7.7-4.2 2.5c-.2.6-.1 1.3.1 1.9.3.5.7 1 1 1.5.4.4.9.6 1.5.8 1.8.4 3.6-.7 4.1-2.5zM123.2 49.7c-1.5.1-2.8 1.1-3.1 2.6-.5 1.8.7 3.7 2.5 4.2 1.2.3 2.4 0 3.2-.8-1-2-1.8-4-2.6-6zM97.9 20.3c.4 1.1 1.2 1.9 2.4 2.2 1.8.5 3.7-.7 4.2-2.5.3-1 0-2.1-.6-2.9-2.7-.1-4.8 1.3-6 3.2zM127.9 60.7c-1.8-.5-3.7.7-4.2 2.5-.3 1.3.1 2.5 1 3.3l5.4-4.2c-.5-.8-1.3-1.4-2.2-1.6zM113 31.3c-.5 1.8.7 3.7 2.5 4.2 1.1.3 2.3 0 3.1-.7-.7-2.1-1.5-4.1-2.4-6.1-1.5.1-2.8 1.1-3.2 2.6zM116.6 42.2c-.5 1.8.7 3.7 2.5 4.2 1 .3 2.1 0 2.9-.6-.6-2.1-1.2-4.1-1.9-6.2-1.6-.1-3.1 1-3.5 2.6zM110.1 20.1c-.3.4-.5.8-.6 1.2-.5 1.8.7 3.7 2.5 4.2.8.2 1.6.1 2.3-.2-.1-.1-.2-.3-.3-.4-1.3-2.1-2.7-3.7-3.9-4.8z" fill="#fff"/><g><path d="M114.9 56.5c3.4 5.4 4.8 8 7.9 11.5l3.3-2.5c-2.6-2.4-5.6-4.3-7.8-7.1-3.7-4.7-4.2-11.1-6.4-16.8-3.8-9.9-9.3-11.6-11.9-16.4-1.3-2.5-1.4-5.7.8-7.4l-1 .5c-1.3.9-2.2 2.2-2.5 3.6-.7 2.6-.7 6 2.6 11.4 5 7.7 10 15.4 15 23.2z" fill="#195378"/></g><g><path d="M99 21.9c-.1-1.6.5-3.1 1.8-4.1l-1 .5c-.8.5-1.4 1.2-1.9 2 .2.6.6 1.1 1.1 1.6zM109.3 47.8c1.2 1.9 2.4 3.7 3.6 5.6.9-.3 1.6-.9 2-1.7-.5-1.5-.9-3-1.3-4.5-.3-.2-.6-.3-.9-.4-1.3-.3-2.6.1-3.4 1zM116.2 57.7c-.2-.1-.4-.1-.6-.1 1.2 1.9 2.1 3.4 3 4.7.1-.1.1-.3.2-.5.4-1.7-.7-3.6-2.6-4.1z" fill="#e32426"/><path d="M124.7 66.5l1.3-1c-.8-.7-1.6-1.4-2.4-2-.2 1.1.2 2.2 1.1 3z" fill="#4a85a9"/><path d="M104.9 39.3c-.2.6-.1 1.3.1 1.9.3.5.7 1 1 1.5.4.4.9.6 1.5.8 1.8.5 3.7-.6 4.2-2.5-.6-1.5-1.3-2.8-1.9-4-.2-.1-.4-.1-.6-.2-1.9-.5-3.8.6-4.3 2.5zM101.7 27.6c-.1.2-.2.5-.3.8-.5 1.8.7 3.7 2.5 4.2.8.2 1.7.1 2.4-.3-1.7-1.8-3.3-3.2-4.6-4.7z" fill="#e32426"/></g><path d="M163.2 87.6c-1.3.2-2.1 0-2.8-.1-2.5-.2-5 .7-7.4.3-.7-.4-1.3-.9-2-1.3-.3-.2-.7-.4-1-.5-8.5-13.2-15.6-19.1-19.7-23.8l-7.5 5.8c3.3 3.7 8.5 8.5 20.5 18.6 1.7 1.4 3.1 3 4.4 4.8 0 .1.1.1.1.2 5.9 7.1 4.9 6.2 8.4 6.4 1.9.1 4.2 1.2 6.1.1.2-.1.3-.3.3-.5.1-.5-.4-.7-.8-.9-.8-.5-2.3-2.5-2.9-4.9 0-.2-.1-.4-.1-.6v-.1c.1-.8.7-1.5 1.4-1.8 1.1-.5 2.9 0 3.7-1.1.2-.4 0-.7-.7-.6z" fill="#195378"/><g><path d="M156.1 98c1.8.1 3.9 1.1 5.6.3-2.7-1.7-3.9-5.4-6.8-6.8-1.2-.6-2.6-.8-3.9-1.3-1.7-.8-2.9-2.3-4.3-3.6-3.4-3.3-7.8-5.5-11.1-8.9-3.4-3.5-5.6-8-9-11.5l-.7-.7-3.3 2.5c3.3 3.7 8.5 8.5 20.5 18.6 1.7 1.4 3.1 3 4.4 4.8 0 .1.1.1.1.2 6 7 5 6.2 8.5 6.4z" fill="#003a60"/></g></g><g><path d="M124.9 69.7c1.7-2.2 4.1-4.3 6.6-5.7.5-.3.6-1 .2-1.4l-2.1-1.9c-.3-.3-.8-.4-1.2-.1-2.4 1.4-4.9 3.5-6.8 5.6-.5.5-.5 1.3 0 1.8l1.6 1.7c.5.6 1.3.5 1.7 0z" fill="#88c4e7"/></g><g><path d="M126.7 66.1c-.8-.8-1.7-1.6-2.7-2.4-.9.8-1.7 1.6-2.5 2.5-.5.5-.5 1.3 0 1.8l1.6 1.7c.5.5 1.2.5 1.7-.1.7-1 1.6-1.9 2.6-2.7-.2-.2-.4-.5-.7-.8z" fill="#3e799d"/></g><g><path d="M111.3 9.9c1.2-2.3.2-4.3-1.3-4.9-1.4-.5-3.1.3-4-.5-1.3-1.1.2-4.2 1.8-4.5-2.5.3-4.7 3.1-4.7 5.8 0 1.1.4 2.2 1.2 3.1 1.3 1.4 2.7 2 4 2 1.2 0 2.2-.4 3-1z" fill="#01183a"/></g><g><path d="M114.6 22.6c-1.6 0-.8-5.4.6-6.3 1-.6 2.2.4 1.8 1.4l-2.4 4.9z" fill="#195378"/></g><g><path d="M99.1 132.6c-1.3 1.1-2.5 2.2-3.6 3.5-.4.4.2 1 .6.6 1.1-1.2 2.3-2.4 3.6-3.5.4-.3-.2-1-.6-.6z" fill="#003a60"/></g><g><path d="M100.1 134.4c-1.2 1.1-2.3 2.1-3.4 3.3-.4.4.2 1 .6.6 1.1-1.1 2.2-2.2 3.4-3.3.4-.4-.2-1-.6-.6z" fill="#003a60"/></g><g><path d="M101.1 136.1c-1.1 1-2.2 2-3.2 3.1-.4.4.2 1 .6.6 1-1.1 2.1-2.1 3.2-3.1.5-.3-.1-1-.6-.6z" fill="#003a60"/></g><g><path d="M102.2 137.5l-3 3c-.4.4.2 1 .6.6 1-1 2-2.1 3-3 .5-.3-.1-.9-.6-.6z" fill="#003a60"/></g><g><path d="M103.2 139.1c-.9.9-1.7 1.8-2.6 2.6.2.2.5.3.7.5 0 0 0-.1.1-.1.3-.4-.4-.9-.7-.4 0 0 0 .1-.1.1-.3.4.3.9.7.5.9-.9 1.7-1.8 2.6-2.6.4-.4-.3-1-.7-.6z" fill="#003a60"/></g></svg>