<?xml version="1.0" encoding="utf-8"?>
<!-- Generator: Adobe Illustrator 27.7.0, SVG Export Plug-In . SVG Version: 6.00 Build 0)  -->
<svg version="1.1" id="Layer_1" xmlns="http://www.w3.org/2000/svg" xmlns:xlink="http://www.w3.org/1999/xlink" x="0px" y="0px"
	 viewBox="0 0 903.4 686.2" style="enable-background:new 0 0 903.4 686.2;" xml:space="preserve">
<style type="text/css">
	.st0{fill:#FFFFFF;}
</style>
<g>
	<g>
		<g>
			<path d="M420.9,0H299.2c-85.3,0-126.5,49-126.5,49c-49.9,49.9-46.7,115.9-46.7,115.9c0,90.1,73.1,160.7,163.2,160.7h131.5v-140
				H287.3V140h133.5V0L420.9,0z"/>
			<path d="M470.5,0v140H604v45.5H470.5v140H602c90.2,0,163.2-70.6,163.2-160.7c0,0,3.2-66-46.7-115.9c0,0-41.1-49-126.5-49L470.5,0
				L470.5,0z"/>
		</g>
		<g>
			<path class="st0" d="M369.3,92.2V47.8H303c-57.5,0-86.6,28.5-90.1,32.2l-1.6,2.1l-1,0.7c-32.3,32.3-32.7,76.3-32.7,80l0.1,1.4
				l-0.1,0.7c0,30.5,11.9,58.9,33.4,80c21.7,21.2,50.8,32.9,82,32.9h76.2v-44.4h-71.7c-39,0-70.6-31.6-70.6-70.6v0
				c0-39,31.6-70.6,70.6-70.6H369.3z"/>
			<path class="st0" d="M593.8,92.2c39,0,70.6,31.6,70.6,70.6v0c0,39-31.6,70.6-70.6,70.6h-71.7v44.4h76.2c31.2,0,60.3-11.7,82-32.9
				c21.6-21.1,33.4-49.5,33.4-80l-0.1-0.7l0.1-1.4c0-3.7-0.4-47.7-32.7-80l-1-0.7l-1.6-2.1c-3.5-3.7-32.6-32.2-90.1-32.2h-66.3v44.4
				H593.8z"/>
		</g>
	</g>
	<g>
		<path d="M116.3,389.8c-12-7.8-26-12.7-40.4-12.7c-30.1,0-51.1,22.5-51.1,54.7c0,32.7,21.8,61.9,55.4,61.9c16.4,0,32.7-6,46.5-14
			h0.7l-11.1,25.8c-10.3,4.9-21.6,6.7-33,6.7c-51.5,0-83.4-29.4-83.4-77c0-46.1,31.9-76.6,76.6-76.6c13.3,0,26.8,2.4,39.7,5.6V389.8
			z"/>
		<path d="M274.6,433.9c0,45.4-36.9,78.3-80.3,78.3c-43.2,0-79.7-31.6-79.7-77.2c0-42.3,36-77.7,81.8-76.6
			C242.3,358.2,274.6,393.8,274.6,433.9z M139.5,433c0,31.2,21.6,63.2,55.9,63.2c33.2,0,54.3-24.7,54.3-57.9
			c0-32.5-20.3-63.9-54.8-63.9C161.1,374.5,139.5,399.4,139.5,433z"/>
		<path d="M305.2,479.8c0,12.5-0.2,21.4,11.4,28.3v0.7H278V508c11.6-6.9,11.6-15.8,11.6-28.3V391c0-12.5,0-21.4-11.4-28v-0.7H310
			v0.2c0.9,2.7,1.7,3.8,3.3,5.6l3.1,4.5l79.9,102.8V391c0-12.5,0.2-21.4-11.4-28v-0.7h38.4v0.7c-11.4,6.7-11.4,15.6-11.4,28v124.9
			c-15.5-5.3-22.3-12.7-31.9-25.4l-74.9-96.8V479.8z"/>
		<path d="M486.6,479.8c0,12.7-0.2,21.4,11.4,28.3v0.7h-43.2V508c10.9-4.2,9.6-20.5,9.6-30.5v-99.3h-19.2c-9.4,0-19.2,2.4-26,8.9
			h-0.7l7.6-26.5h0.7c2.6,1.1,5.5,1.1,8.3,1.6H522c3.7,0,7.2-0.2,10-1.6h0.7l-7,26.5H525c-2.8-7.8-11.6-8.9-18.8-8.9h-19.6V479.8z"
			/>
		<path d="M579.6,362.2c29.2,0,45.2,15.6,45.2,35.8c0,19.6-16.8,34.9-34.7,39.2l61.7,81.5c9.2,11.6,22.9,23.1,35.4,31.2h-20.1
			c-11.6,0-18.8-2.9-25.3-11.1L584.9,464l-20.1-31.4c17.5-2.7,37.8-10.9,37.8-31.8c0-16-13.5-25.4-28.2-24.7
			c-5,0.2-9.8,0.9-14.8,1.8v99.7c0,10.2-1.3,26.5,9.8,30.5v0.7h-41.7V508c11.1-4,9.6-20.5,9.6-30.5v-83.9c0-10.2,1.5-26.5-9.6-30.7
			v-0.7H579.6z"/>
		<path d="M792.9,433.9c0,45.4-36.9,78.3-80.3,78.3c-43.2,0-79.7-31.6-79.7-77.2c0-42.3,36-77.7,81.8-76.6
			C760.6,358.2,792.9,393.8,792.9,433.9z M657.8,433c0,31.2,21.6,63.2,55.9,63.2c33.2,0,54.3-24.7,54.3-57.9
			c0-32.5-20.3-63.9-54.8-63.9C679.4,374.5,657.8,399.4,657.8,433z"/>
		<path d="M864.1,492.7c14.8,0.9,27.7-4.2,38.6-13.6h0.7L892,508.7h-89.7V508c11.1-4,9.8-20.5,9.8-30.5v-83.9
			c0-10.2,1.3-26.5-9.8-30.7v-0.7H844v0.7c-11.1,4.2-9.6,20.7-9.6,30.7v97L864.1,492.7z"/>
	</g>
	<g>
		<path d="M223.7,570.2c0-10.2,1.5-26.5-9.6-29.8v-0.7h53.5c49.8,0,80.8,27.6,80.8,71.9c0,43.8-33,74.6-81.8,74.6h-52.4v-0.7
			c10.9-7.6,9.6-18.2,9.6-31.4V570.2z M246,668.6c5.2,1.1,10.5,1.6,15.9,1.6c32.5,0,61.5-17.4,61.5-55.9c0-38.9-21.4-58.5-57.8-58.5
			c-6.5,0-13.1,0.9-19.6,2.4V668.6z"/>
		<path d="M382,631.2l-11.4,31.4c-4.6,12.5-6.1,18.9,4.4,22.9v0.7h-40.2v-0.7c12.7-6.5,16.4-18.9,21.2-31.6l36.4-92.8
			c3.1-8,7.2-17.4-3.3-20.7v-0.7h34.5l45.4,114.2c5,12.7,8.9,25.1,21.4,31.6v0.7h-44.7v-0.7c10.7-4.9,8.9-7.3,3.1-22.9L437,631.2
			H382z M409.3,558.6l-21.6,56.1h43L409.3,558.6z"/>
		<path d="M522.9,657.2c0,12.7-0.2,21.4,11.4,28.3v0.7H491v-0.7c10.9-4.2,9.6-20.5,9.6-30.5v-99.3h-19.2c-9.4,0-19.2,2.4-26,8.9
			h-0.7l7.6-26.5h0.7c2.6,1.1,5.5,1.1,8.3,1.6h86.9c3.7,0,7.2-0.2,10-1.6h0.7l-7,26.5h-0.7c-2.8-7.8-11.6-8.9-18.8-8.9h-19.6V657.2z
			"/>
		<path d="M580.8,631.2l-11.3,31.4c-4.6,12.5-6.1,18.9,4.4,22.9v0.7h-40.2v-0.7c12.7-6.5,16.4-18.9,21.2-31.6l36.4-92.8
			c3.1-8,7.2-17.4-3.3-20.7v-0.7h34.5l45.4,114.2c5,12.7,8.9,25.1,21.4,31.6v0.7h-44.7v-0.7c10.7-4.9,8.9-7.3,3.1-22.9l-11.8-31.4
			H580.8z M608.1,558.6l-21.6,56.1h43L608.1,558.6z"/>
	</g>
</g>
</svg>
