<?xml version="1.0" encoding="utf-8"?>
<!-- Generator: Adobe Illustrator 28.0.0, SVG Export Plug-In . SVG Version: 6.00 Build 0)  -->
<svg version="1.1" id="Layer_1" xmlns="http://www.w3.org/2000/svg" xmlns:xlink="http://www.w3.org/1999/xlink" x="0px" y="0px"
	 viewBox="0 0 338.8 53" style="enable-background:new 0 0 338.8 53;" xml:space="preserve">
<style type="text/css">
	.st0{fill:#032252;}
</style>
<path class="st0" d="M82.7,2.1c0,0.3-0.2,0.5-0.3,0.8s-0.3,0.3-0.6,0.3C80,3.4,78.5,4,77.3,5c-1.1,1-2.4,2.9-3.5,5.7L54.9,52.2
	c-0.2,0.3-0.5,0.6-1,0.6s-0.8-0.2-1-0.6L42.5,30.6L30.3,52.2c-0.3,0.3-0.6,0.6-1,0.6c-0.5,0-1-0.2-1.1-0.6L9.7,10.7
	C8.6,8.1,7.3,6.1,6.1,5.2S3,3.6,0.8,3.2C0.6,3.2,0.5,3,0.3,2.9S0,2.6,0,2.3c0-0.6,0.2-1,0.6-1c1.6,0,3.4,0,5.1,0.2
	c1.6,0.2,3.2,0.2,4.8,0.2c1.4,0,3.2,0,5.3-0.2s4-0.2,5.6-0.2c0.3,0,0.6,0.3,0.6,1s-0.2,1-0.3,1c-1.6,0.2-2.9,0.5-3.8,1.3
	c-1,0.6-1.4,1.6-1.4,2.7c0,0.6,0.2,1.3,0.6,2.3l15,33.9l8.8-16.2l-8.1-16.7c-1.4-2.9-2.7-4.8-3.5-5.8c-1-0.8-2.4-1.5-4.2-1.6
	c-0.2,0-0.3-0.2-0.5-0.3c-0.2-0.2-0.3-0.5-0.3-0.6c0-0.6,0.2-1,0.5-1c1.6,0,3.2,0,4.5,0.2s2.7,0.2,4.3,0.2c1.4,0,3,0,4.6-0.2
	c1.8-0.2,3.4-0.2,4.9-0.2c0.3,0,0.6,0.3,0.6,1s-0.2,1-0.3,1C40,3.5,38.5,4.4,38.5,6c0,0.8,0.3,1.9,1.1,3.4L44.9,20l5.3-9.7
	c0.8-1.5,1.1-2.6,1.1-3.6c0-2.3-1.6-3.4-4.9-3.6c-0.3,0-0.5-0.3-0.5-1c0-0.2,0-0.5,0.2-0.6c0.2-0.2,0.3-0.3,0.5-0.3
	c1.1,0,2.6,0,4.3,0.2c1.6,0.2,3,0.2,4,0.2c0.8,0,1.9,0,3.4-0.2c1.9-0.2,3.4-0.3,4.6-0.3c0.3,0,0.5,0.3,0.5,0.8
	c0,0.8-0.3,1.1-0.8,1.1c-1.9,0.2-3.5,0.6-4.6,1.6c-1.1,0.8-2.6,2.7-4.3,5.8l-7,12.9L56,42.7l14.2-32.3C70.7,9.2,71,8.1,71,7.1
	c0-2.4-1.6-3.7-4.9-3.7c-0.3,0-0.5-0.3-0.5-1s0.2-1,0.6-1c1.3,0,2.6,0,4.3,0.2c1.6,0.2,2.9,0.2,3.8,0.2c1.1,0,2.4,0,3.7-0.2
	c1.4-0.2,2.9-0.2,4-0.2C82.5,1.3,82.7,1.5,82.7,2.1z"/>
<path class="st0" d="M143.7,50.6c0,0.6-0.2,1-0.7,1c-1.6,0-3.6,0-5.9-0.2c-2.1-0.2-3.9-0.2-5.5-0.2c-1.5,0-3.3,0-5.2,0.2
	c-2.1,0.2-3.9,0.2-5.5,0.2c-0.3,0-0.7-0.3-0.7-1s0.2-1,0.7-1c2.1-0.2,3.6-0.6,4.6-1c1-0.5,1.6-1,2-1.6c0.3-0.6,0.5-1.8,0.5-3.4V27.5
	h-28v16.2c0,1.6,0.2,2.7,0.5,3.4c0.3,0.6,1,1.3,2,1.6c1,0.5,2.6,0.8,4.6,1c0.3,0,0.7,0.3,0.7,1s-0.2,1-0.7,1c-1.6,0-3.4,0-5.5-0.2
	c-2-0.2-3.7-0.2-5.2-0.2s-3.3,0-5.5,0.2s-4.2,0.2-5.9,0.2c-0.3,0-0.7-0.3-0.7-1s0.2-1,0.7-1c2.9-0.3,5-0.8,6-1.6
	c1.1-0.8,1.6-2.3,1.6-4.5V9.4c0-1.6-0.2-2.9-0.7-3.6s-1.1-1.3-2.3-1.6s-2.6-0.6-4.7-1c-0.3,0-0.7-0.3-0.7-1s0.2-1,0.7-1
	c1.6,0,3.6,0,5.9,0.2c2.1,0.2,4.1,0.2,5.5,0.2c1.5,0,3.3,0,5.2-0.2c2.1-0.2,3.9-0.2,5.5-0.2c0.3,0,0.7,0.3,0.7,1s-0.2,1-0.7,1
	c-2,0.2-3.4,0.5-4.4,0.8s-1.6,0.8-2.1,1.5c-0.3,0.6-0.7,1.9-0.7,3.9v15.7h28V9.4c0-1.6-0.2-2.7-0.5-3.6c-0.3-0.8-1-1.3-2-1.6
	c-1-0.5-2.6-0.8-4.7-1c-0.3,0-0.7-0.3-0.7-1s0.2-1,0.7-1c1.6,0,3.4,0,5.5,0.2c2,0.2,3.7,0.2,5.2,0.2s3.3,0,5.5-0.2s4.2-0.2,5.9-0.2
	c0.3,0,0.7,0.3,0.7,1s-0.2,1-0.7,1c-2.1,0.2-3.6,0.5-4.7,1c-1.1,0.3-1.8,1-2.3,1.6S135,7.7,135,9.4v34.1c0,2.3,0.5,3.7,1.6,4.5
	s3.1,1.3,6,1.6C143.5,49.8,143.7,50.1,143.7,50.6z"/>
<path class="st0" d="M160.9,48.2c0,1.1-0.5,2.1-1.3,3.1c-0.8,0.8-1.8,1.3-2.9,1.3c-1.1,0-2.1-0.5-3.1-1.3s-1.3-1.8-1.3-3.1
	c0-1.1,0.5-2.1,1.3-2.9c0.8-0.8,2-1.3,3.1-1.3s2.1,0.5,2.9,1.3C160.4,46.1,160.9,47,160.9,48.2z"/>
<path class="st0" d="M220.3,29.4c0,0.6-0.2,1-0.5,1c-2.8,0.3-4.8,0.8-5.7,1.6c-1,0.8-1.5,2.3-1.5,4.5v4.2c0,3.7,0.3,6.3,0.8,7.8
	c-3.1,1.3-6.6,2.3-10.2,3.1c-3.6,0.8-6.9,1.3-9.7,1.3c-5.4,0-10.2-1.1-14.3-3.2c-4.1-2.1-7.2-5.3-9.5-9.4c-2.3-4-3.4-8.6-3.4-13.6
	c0-4.8,1.3-9.4,3.8-13.6c2.5-4,5.9-7.3,10.2-9.5c4.3-2.3,9.2-3.4,14.8-3.4c2.1,0,4.9,0.3,8.5,1.1c3.1,0.6,5.6,1,7.2,1
	c0.3,3.4,0.8,7.4,1.6,12.3c0,0.3-0.3,0.6-1.1,0.6c-0.5,0-0.8-0.2-0.8-0.6c-2.1-8.1-7.7-12.1-16.6-12.1c-5.6,0-10.2,2.4-14.1,7.1
	c-3.8,4.7-5.7,10.5-5.7,17.3c0,6.6,1.8,12.3,5.6,16.8c3.8,4.7,8.4,7,13.8,7c7.9,0,12-1.9,12-6v-9.5c0-1.3-0.7-2.3-1.8-2.9
	c-1.3-0.6-4.3-1.1-9-1.6c-0.3,0-0.5-0.3-0.5-1.1c0-0.6,0.2-1,0.5-1c1.6,0,3.9,0,7.1,0.2c3,0.2,5.2,0.2,6.6,0.2c1.5,0,3.3,0,5.6-0.2
	c2.5-0.2,4.6-0.2,6.1-0.2C220.1,28.5,220.3,28.8,220.3,29.4z"/>
<path class="st0" d="M280.3,26.7c0,7.6-2.5,13.9-7.4,18.8s-11.3,7.3-19.3,7.3s-14.3-2.4-19.2-7.3c-4.9-4.8-7.4-11.2-7.4-18.8
	c0-7.8,2.5-14.1,7.4-19.1S245.7,0,253.6,0c7.9,0,14.3,2.6,19.2,7.6C277.8,12.8,280.3,19.1,280.3,26.7z M272.3,26.7
	c0-7.1-1.6-12.9-5.1-17.5c-3.4-4.5-7.9-6.8-13.6-6.8c-5.6,0-10.2,2.3-13.6,6.8c-3.4,4.5-5.1,10.3-5.1,17.5s1.6,12.8,5.1,17.1
	c3.4,4.4,7.9,6.6,13.6,6.6c5.6,0,10.2-2.3,13.6-6.6C270.6,39.6,272.3,33.8,272.3,26.7z"/>
<path class="st0" d="M338.8,2.1c0,0.8-0.3,1.1-0.8,1.1c-2.1,0.2-3.8,0.6-4.9,1.6c-1.1,0.8-2.3,2.7-3.6,5.8L311,52.3
	c-0.2,0.3-0.5,0.6-1,0.6s-0.8-0.2-1-0.6l-16.7-41.7c-1-2.4-1.6-3.9-2.3-4.7c-0.7-0.8-1.5-1.3-2.5-1.8c-1-0.3-2.6-0.6-4.9-1
	c-0.2,0-0.3-0.2-0.5-0.3c-0.2-0.2-0.2-0.5-0.2-0.6c0-0.6,0.2-1,0.5-1c1.6,0,3.4,0,5.4,0.2s3.6,0.2,5.1,0.2s3.4,0,5.6-0.2
	c2.3-0.2,4.3-0.2,5.9-0.2c0.3,0,0.7,0.3,0.7,1s-0.2,1-0.3,1C302.7,3.4,301,3.5,300,4s-1.5,1.1-1.5,2.1c0,0.6,0.3,1.6,0.8,3.2
	l12.8,33l13.3-32c0.5-1.5,0.7-2.4,0.7-3.2c0-2.4-2.1-3.7-6.4-4c-0.3,0-0.5-0.3-0.5-1s0.2-1,0.7-1c1.1,0,2.6,0,4.6,0.2
	c2.1,0.2,3.8,0.2,5.1,0.2c1.1,0,2.5,0,4.3-0.2s3.3-0.2,4.4-0.2C338.6,1.3,338.8,1.5,338.8,2.1z"/>
</svg>
