<svg id="Layer_1" data-name="Layer 1" xmlns="http://www.w3.org/2000/svg" viewBox="0 0 168.3182 248.0667"><defs><style>.cls-1,.cls-2,.cls-3,.cls-4{fill:none;stroke-linecap:round;}.cls-1{stroke:#380812;}.cls-1,.cls-3,.cls-4{stroke-linejoin:round;}.cls-1,.cls-4{stroke-width:2.1334px;}.cls-2,.cls-3,.cls-4{stroke:#ff090c;}.cls-2{stroke-miterlimit:10;}.cls-2,.cls-3{stroke-width:2.183px;}.cls-5{fill:#951223;}.cls-6{fill:#38080e;}.cls-7{fill:#ff1f09;}.cls-8{fill:#ffb3a2;}.cls-9{fill:#cc1400;}.cls-10{fill:#fff;}.cls-11{fill:#6f211e;}.cls-12{fill:#ffdbc7;}</style></defs><title>target-thumb-layer1</title><ellipse class="cls-1" cx="62.0569" cy="195.0659" rx="26.5638" ry="40.0184" transform="translate(-69.289 13.5811) rotate(-10.7986)"/><path class="cls-2" d="M77.913,105.6282,72.8,162.283c-1.8839,22.6063-9.9576,32.833-9.9576,32.833" transform="translate(-33.8409 -1.5)"/><polyline class="cls-3" points="114.044 153.786 140.418 207.387 96.07 195.231"/><ellipse class="cls-1" cx="173.9431" cy="208.8708" rx="26.5638" ry="40.0184" transform="translate(-69.8942 34.7882) rotate(-10.7986)"/><polyline class="cls-4" points="41.994 127.149 96.07 195.231 99.349 134.977 43.138 114.478"/><path class="cls-3" d="M93.1945,96.67,60.2316,114.5862l-3.3943,2.0826a8.3257,8.3257,0,0,0-2.9528,11.0876h0a8.3258,8.3258,0,0,0,7.3069,4.3347h3.7833" transform="translate(-33.8409 -1.5)"/><path class="cls-3" d="M93.1945,96.67,89.8,98.7526A8.3259,8.3259,0,0,0,86.8475,109.84h0a8.3258,8.3258,0,0,0,7.3068,4.3346h3.7833" transform="translate(-33.8409 -1.5)"/><path class="cls-5" d="M134.07,8.8577c1.2143-.9082,2.8755-1.6838,3.0154-3.1939-6.31-.7224-12.4742,1.8773-18.294,4.4209-15.864,6.9337-25.8163,10.9161-25.59,16.6127A10.2131,10.2131,0,0,0,93.32,28.389c1.2125,8.1539,5.72,15.3575,10.4144,22.1791a13.4493,13.4493,0,0,1,5.2178-7.9043,23.0263,23.0263,0,0,1-2.8843-2.5592C102.6323,36.5214,99.32,32.31,98.9936,27.357c-.124-1.8808.4586-2.53,2.11-3.4854a91.6468,91.6468,0,0,1,27.8578-10.8752,3.7377,3.7377,0,0,1,1.5893-.0661A19.3219,19.3219,0,0,1,134.07,8.8577Z" transform="translate(-33.8409 -1.5)"/><path class="cls-6" d="M128.9618,12.9964A91.6468,91.6468,0,0,0,101.104,23.8716c-1.6518.9549-2.2344,1.6046-2.11,3.4854.3261,4.9531,3.6387,9.1644,7.0738,12.7476a23.0263,23.0263,0,0,0,2.8843,2.5592,15.2353,15.2353,0,0,1,4.6918-2.2762A47.5907,47.5907,0,0,1,102.062,28.2765q4.7034-2.88,9.4063-5.76c11.5394-7.0667,12.754-4.37,16.5968-7.03a11.2376,11.2376,0,0,0,2.486-2.5562A3.7377,3.7377,0,0,0,128.9618,12.9964Z" transform="translate(-33.8409 -1.5)"/><path class="cls-7" d="M130.9121,4.2033c-7.027-2.5179-11.2648.56-11.1632,3.7657a5.7494,5.7494,0,0,0,2.2193,4.3191c1.5553,1.19,11.3812,5.1232,17.59,5.5754a11.073,11.073,0,0,0,4.0975-.3247,5.2366,5.2366,0,0,0,3.1649-2.4869" transform="translate(-33.8409 -1.5)"/><path class="cls-5" d="M137.744,38.651c-.89-4.8338-1.1629-5.1414-4.0371-4.0164-1.07.4187-3.56.9626-4.3659.364-.3392-.2521-.3986-.484-2.6418-4.8523-2.8017-5.4555.0815-5.6253.5415-8.8984a15.2005,15.2005,0,0,0-.3827-3.6518,10.868,10.868,0,0,1,.2135-2.954c-1.3324-.5073-2.5156-1.0036-3.4184-1.4289-.6217,3.3035-.0407,6.04-.0773,7.4612-.0325,1.2559-.3072,2.4947-.364,3.75-.1934,4.2762,2.8564,10.2877,3.5711,10.9743,1.1533,1.1084,3.2851.89,5.39.1177a2.8493,2.8493,0,0,1,.9585,1.4986c1.1752,3.6176.3469,9.5943,2.3287,12.844A13.8172,13.8172,0,0,0,137.744,38.651Z" transform="translate(-33.8409 -1.5)"/><path class="cls-6" d="M145.4681,20.8728c.2185-.6293.4013-1.2592.5646-1.8884.032-.099.0619-.1993.0946-.298l-.0128-.0241a22.5287,22.5287,0,0,0,.5575-3.39,5.3171,5.3171,0,0,1-3.0162,2.2665,11.0738,11.0738,0,0,1-4.0976.3248,49.979,49.979,0,0,1-12.4867-3.2214,10.868,10.868,0,0,0-.2135,2.954,15.2005,15.2005,0,0,1,.3827,3.6518c-.46,3.2731-3.3432,3.4429-.5415,8.8984,2.2432,4.3683,2.3026,4.6,2.6418,4.8523.8056.5986,3.2963.0547,4.3659-.364,2.8742-1.125,3.1471-.8174,4.0371,4.0164A13.8172,13.8172,0,0,1,135.46,49.8588a4.55,4.55,0,0,0,1.4664,1.5378c3.1487,1.9633,13.51-.9826,13.2809-7.4813-.088-2.5-4.8184-11.7766-5.393-16.1245A17.7815,17.7815,0,0,1,145.4681,20.8728Z" transform="translate(-33.8409 -1.5)"/><path class="cls-8" d="M129.8521,7.0735a17.9368,17.9368,0,0,1,7.7395-5.5151,14.3327,14.3327,0,0,0-3.69.1492c-3.3693.5478-5.484,2.55-7.7107,5.4935a15.3978,15.3978,0,0,0-2.5382,6.0121c.9028.4253,2.086.9216,3.4184,1.4289A23.3475,23.3475,0,0,1,129.8521,7.0735Z" transform="translate(-33.8409 -1.5)"/><path class="cls-7" d="M137.5916,1.5584a17.9368,17.9368,0,0,0-7.7395,5.5151,23.3475,23.3475,0,0,0-2.7806,7.5686,49.979,49.979,0,0,0,12.4867,3.2214,11.0738,11.0738,0,0,0,4.0976-.3248,5.3171,5.3171,0,0,0,3.0162-2.2665C147.2876,8.2591,144.2849,2.2094,137.5916,1.5584Z" transform="translate(-33.8409 -1.5)"/><path class="cls-9" d="M141.836,161.4735c.3989-1.3248.7963-2.6491,1.1616-3.9772,1.6644-6.052,2.6591-12.6653.3094-18.4857l1.2727-18.9022a75.7233,75.7233,0,0,1-10.4765,1.2452c-.9606,2.1948-1.8437,4.4276-2.665,6.6732-4.4208,12.0894-3.6619,3.5825-1.1347,31.2839.0781.8562.1618,1.6988.24,2.5533q1.5581.1072,3.12.1212A61.7849,61.7849,0,0,0,141.836,161.4735Z" transform="translate(-33.8409 -1.5)"/><path class="cls-6" d="M142.9976,157.4963c-.3653,1.3281-.7627,2.6524-1.1616,3.9772.6859-.0855,1.3716-.1739,2.0548-.2772,2.4137-.3648,4.8086-.8469,7.1818-1.4189,1.4661-6.55,3.9078-12.86,4.9825-19.5018,1.2543-7.7524.5692-15.6525.4837-23.5191a73.7514,73.7514,0,0,1-11.9591,3.3519l-1.2727,18.9022C145.6567,144.831,144.662,151.4443,142.9976,157.4963Z" transform="translate(-33.8409 -1.5)"/><path class="cls-10" d="M129.3352,85.6218c-2.5723-7.2837-7.9007-14.6566-5.4036-21.9664,3.0772-9.0076,16.1166-11.4608,13.8529-24.7392-1.4016.4794-2.7841,1.0241-4.1394,1.6054-10.97,5.609-16.4084,19.3412-17.5777,31.606s.8013,24.6522-.1535,36.9355a87.663,87.663,0,0,1-1.7017,11.4406c2.7948.3092,5.4867.55,8.1072.714,1.278-4.13,3.9766-7.7929,5.8347-11.7554A31.8432,31.8432,0,0,0,129.3352,85.6218Z" transform="translate(-33.8409 -1.5)"/><path class="cls-9" d="M122.57,139.53c.348-5.38-1.72-10.78-.8506-16.1006a16.447,16.447,0,0,1,.54-2.2087l.0584.0032.0008-.0032c-2.6206-.1654-5.3122-.4083-8.1062-.7173-2.4119,11.3326-6.721,22.1862-10.68,31.7569a57.1669,57.1669,0,0,0,9.7181,5.3851C117.9205,152.1369,122.1217,146.4574,122.57,139.53Z" transform="translate(-33.8409 -1.5)"/><path class="cls-6" d="M122.6291,139.53c-.4488,6.9346-4.6585,12.6187-9.3346,18.1333a53.47,53.47,0,0,0,7.9484,2.7134c.2973.0755.5995.1294.898.2,13.12-20.3767,18.1746-17.3,25.2351-23.7082,5.3748-4.8778,6.9819-12.5577,8.2184-19.71l.0152-.0881c-11.1712,4.0086-21.4838,4.894-33.292,4.1539a16.3917,16.3917,0,0,0-.5391,2.2055C120.9087,128.75,122.9771,134.15,122.6291,139.53Z" transform="translate(-33.8409 -1.5)"/><path class="cls-11" d="M121.7193,123.43c-.87,5.3206,1.1986,10.72.8506,16.1006-.4482,6.9271-4.6494,12.6066-9.3194,18.1154.0146.0064.03.0115.044.0179,4.6761-5.5146,8.8858-11.1987,9.3346-18.1333.348-5.38-1.72-10.78-.8506-16.1006a16.3917,16.3917,0,0,1,.5391-2.2055l-.0584-.0032A16.447,16.447,0,0,0,121.7193,123.43Z" transform="translate(-33.8409 -1.5)"/><path class="cls-10" d="M141.28,43.15c-1.19-7.3828-6.7138-2.813-12.7124-.342h0c-8.536,3.9-14.3915,3.7416-19.6163-.1447a13.4493,13.4493,0,0,0-5.2178,7.9043q.5117.7437,1.0248,1.4818c5.0471,7.2608,9.3309,14.8825,11.0579,23.5548l1.2983-.0869c1.1973,1.4992,3.5273,1.3105,5.3479.7052,5.0491-1.6787,9.2059-5.4092,12.3719-9.6858C139.4154,60.35,142.5062,50.7508,141.28,43.15Z" transform="translate(-33.8409 -1.5)"/><path class="cls-6" d="M128.568,42.8085h0a14.3834,14.3834,0,0,1-5.3394,1.2795c-3.1076.0022-6.4343-1.4945-9.5851-3.7a15.2353,15.2353,0,0,0-4.6918,2.2762C114.1765,46.55,120.032,46.7083,128.568,42.8085Z" transform="translate(-33.8409 -1.5)"/><path class="cls-12" d="M134.1077,121.3439l-.0045.01c.2209-.011.4391-.0316.66-.0443q.7659-.0444,1.5285-.1024.5983-.0459,1.1949-.1005c.4855-.0447.97-.0957,1.4541-.15.4117-.0458.8243-.092,1.2354-.1447.4656-.06.9306-.1281,1.3953-.1967.4242-.0625.8487-.1229,1.2727-.193.4466-.0741.8935-.16,1.34-.2424.4387-.0812.8778-.1574,1.3167-.2472.4122-.0844.8253-.1828,1.238-.2749q1.4714-.3282,2.951-.7241c.316-.0846.6307-.1611.9476-.2505.5174-.146,1.0384-.31,1.5583-.4691.3675-.1126.7341-.22,1.1032-.339.5124-.1654,1.0289-.346,1.5445-.5245.2755-.0955.5489-.1811.8255-.28l.0016-.01c.29-.1041.5772-.1959.8685-.3043-.0192-1.7713-.003-3.5407.0669-5.3066,2.9336-18.1676,8.6343-59.1855,1.9415-68.6855-2.604-3.6964-7.3158-5.4834-11.8374-5.5086a27.174,27.174,0,0,0-8.9253,1.66c2.2637,13.2784-10.7757,15.7316-13.8529,24.7392-2.4971,7.31,2.8313,14.6827,5.4036,21.9664a31.8432,31.8432,0,0,1-1.1811,23.8405c-1.8581,3.9625-4.5567,7.6252-5.8347,11.7554A104.6535,104.6535,0,0,0,134.1077,121.3439Z" transform="translate(-33.8409 -1.5)"/><path class="cls-5" d="M106.3842,231.9438c-1.0717-4.6917-2.819-9.3135-3.3019-12.9156-.9382-6.9987.9791-14.1482.0262-21.1449-.7715-5.6646-3.4061-11.071-3.2628-16.7859.2305-9.1781,7.2282-16.1656,13.4048-23.4517a57.1669,57.1669,0,0,1-9.7181-5.3851c-4.319,10.4416-8.2213,19.3556-8.7835,25.6825-.4712,5.2986-.036,6.3813,6.3637,49.8662.08.5413.1737,1.09.3016,1.625a14.7992,14.7992,0,0,1-.49,1.834C102.9169,230.6121,104.7731,231.9621,106.3842,231.9438Z" transform="translate(-33.8409 -1.5)"/><path class="cls-6" d="M122.1409,160.5766c-.2985-.07-.6007-.1241-.898-.2a53.47,53.47,0,0,1-7.9484-2.7134c-.0144-.0064-.0294-.0115-.044-.0179-6.1766,7.2861-13.1743,14.2736-13.4048,23.4517-.1433,5.7149,2.4913,11.1213,3.2628,16.7859.9529,6.9967-.9644,14.1462-.0262,21.1449.4829,3.6021,2.23,8.2239,3.3019,12.9156a2.1763,2.1763,0,0,0,1.4379-.5225,4.9238,4.9238,0,0,0,1.1328-2.5916,9.05,9.05,0,0,1,1.2005-2.3959,38.8807,38.8807,0,0,1-.4541-5.6575c1.0179-6.5188.8072-13.32.5114-19.9531-.7472-16.7428.3173-20.6881,7.7309-33.384C119.4314,164.8916,120.8256,162.62,122.1409,160.5766Z" transform="translate(-33.8409 -1.5)"/><path class="cls-7" d="M93.866,239.84c-1.2916.7-2.8169,1.3429-3.3354,2.7175a1.3017,1.3017,0,0,0-.0168,1.031,1.6162,1.6162,0,0,0,1.1949.69,14.4691,14.4691,0,0,0,9.5454-1.753,34.4174,34.4174,0,0,0,6.0484-4.3023c0-.0164-.0019-.0329-.0021-.0493l-.0571.0493a30.7065,30.7065,0,0,0-.8591-6.279c-1.6111.0183-3.4673-1.3317-5.46-.6755A15.2116,15.2116,0,0,1,93.866,239.84Z" transform="translate(-33.8409 -1.5)"/><path class="cls-11" d="M107.8221,231.4213a2.1763,2.1763,0,0,1-1.4379.5225,30.7065,30.7065,0,0,1,.8591,6.279l.0571-.0493c.607-.5168,1.2076-1.041,1.8061-1.5648a4.2394,4.2394,0,0,0,1.9405-5.07c-.3238-1.6942-.6438-3.3964-.8916-5.1049a9.05,9.05,0,0,0-1.2005,2.3959A4.9238,4.9238,0,0,1,107.8221,231.4213Z" transform="translate(-33.8409 -1.5)"/><path class="cls-5" d="M138.2506,234.7451c.2921,1.1744,1.3433,2.6739,1.8864,2.7526.4509.0654,1.5469-.7452,2.0209-1.2563.1495-.1609.2894-.3264.4259-.4914-.217-1.6507-.7-3.2768-1.0172-4.9188-1.8168-9.3894,1.8075-19.0021,1.3505-28.5545-.4277-8.9436-4.42-17.5294-4.1133-26.4779.1679-4.8965,1.6138-9.6129,3.0322-14.3253a61.7849,61.7849,0,0,1-8.1717.5117q-1.5612-.0135-3.12-.1212c2.1766,23.6433,4.5567,46.73,7.2052,69.9323-.0765.0933-.1562.1718-.2348.2543a2.5116,2.5116,0,0,1,.2692.5143A18.5345,18.5345,0,0,1,138.2506,234.7451Z" transform="translate(-33.8409 -1.5)"/><path class="cls-6" d="M142.9171,202.2767c.457,9.5524-3.1673,19.1651-1.3505,28.5545.3177,1.642.8,3.2681,1.0172,4.9188.79-.9572,1.4213-1.9015,2.5837-1.95a49.0478,49.0478,0,0,1,.7728-8.2529l-.0051-.0032c2.7085-17.2048.1636-37.609,3.506-54.6939.614-3.1368.6705-6.376,1.2972-9.5546.1-.5087.2209-1.0124.3342-1.518-2.3732.572-4.7681,1.0541-7.1818,1.4189-.6832.1033-1.3689.1917-2.0548.2772-1.4184,4.7124-2.8643,9.4288-3.0322,14.3253C138.4968,184.7473,142.4894,193.3331,142.9171,202.2767Z" transform="translate(-33.8409 -1.5)"/><path class="cls-7" d="M130.2183,234.3329c-4.22,2.0428-2.8916,7.4117,2.5363,8.0537,1.687.2,3.4513-.0653,5.0515.5047a7.6915,7.6915,0,0,1,.9828.4485,5.7559,5.7559,0,0,0,.8327-.28c2.0575-.9084,3.05-3.3429,3.0746-5.5919a12.1559,12.1559,0,0,0-.1124-1.7175c-.1365.165-.2764.3305-.4259.4914-.474.5111-1.57,1.3217-2.0209,1.2563-.5431-.0787-1.5943-1.5782-1.8864-2.7526a18.5345,18.5345,0,0,0-.4671-2.18,2.5116,2.5116,0,0,0-.2692-.5143C135.5979,234.0567,133.0269,232.9728,130.2183,234.3329Z" transform="translate(-33.8409 -1.5)"/><path class="cls-11" d="M142.5838,235.75a12.1559,12.1559,0,0,1,.1124,1.7175c-.0245,2.249-1.0171,4.6835-3.0746,5.5919a5.7559,5.7559,0,0,1-.8327.28c.5247.2744,1.0382.575,1.585.8015,1.9162.7941,4.4874.3656,5.5-1.4451.9779-1.75.1953-3.9009-.2963-5.844a14.4883,14.4883,0,0,1-.41-3.0522C144.0051,233.8485,143.3733,234.7928,142.5838,235.75Z" transform="translate(-33.8409 -1.5)"/></svg>