<svg id="Layer_1" data-name="Layer 1" xmlns="http://www.w3.org/2000/svg" viewBox="0 0 164.4239 250"><defs><style>.cls-1,.cls-2{fill:none;stroke-linecap:round;stroke-linejoin:round;stroke-width:2.084px;}.cls-1{stroke:#ff090c;}.cls-2{stroke:#380812;}.cls-3{fill:#ffb3a2;}.cls-4{fill:#ff1f09;}.cls-5{fill:#38080e;}.cls-6{fill:#ffdbc7;}.cls-7{fill:#d90067;}.cls-8{fill:#cc1400;}.cls-9{fill:#951223;}.cls-10{fill:#6f211e;}</style></defs><title>target-thumb-layer2</title><path class="cls-1" d="M148.16,91.12l4.995,54.96c1.84,21.9418,9.7271,31.3255,9.7271,31.3255" transform="translate(-26.7881 0)"/><polyline class="cls-1" points="62.948 125.407 27.255 199.226 66.15 184.02"/><ellipse class="cls-2" cx="163.6488" cy="177.2979" rx="39.7201" ry="25.5393" transform="translate(-73.9322 294.6939) rotate(-76.4071)"/><ellipse class="cls-2" cx="54.3512" cy="199.1863" rx="39.7201" ry="25.5393" transform="translate(-178.8177 205.2018) rotate(-76.4071)"/><polyline class="cls-1" points="123.401 113.453 66.15 184.02 62.948 125.407 122.284 101.161"/><path class="cls-1" d="M133.2316,83.5171l32.2,15.026,3.3158,1.7795a7.7571,7.7571,0,0,1,2.8844,10.6093h0a8.9428,8.9428,0,0,1-7.1378,4.7832l-3.6957.2841" transform="translate(-26.7881 0)"/><path class="cls-1" d="M133.2316,83.5171l3.3157,1.7794a7.7572,7.7572,0,0,1,2.8844,10.6094h0a8.9429,8.9429,0,0,1-7.1377,4.7831l-3.6958.2842" transform="translate(-26.7881 0)"/><line class="cls-1" x1="61.7238" y1="104.4321" x2="62.9475" y2="125.4071"/><path class="cls-3" d="M128.3472,32.2773c-1.1-1.2195-2.7944-1.8186-3.7729-3.1375-1.4809-1.9963-.8093-4.769-.5058-7.236.5591-4.5432-.3775-9.211.5253-13.6986.7119-3.5385,3.2487-7.0971,6.5-8.0706a13.4885,13.4885,0,0,0-4.2136.067c-3.2914.5352-5.357,2.4909-7.5324,5.3665-3.9358,5.6723-2.4987,10.989-2.5549,13.1615-.0318,1.2269-.3,2.4371-.3556,3.663-.189,4.1773,2.79,10.05,3.4884,10.7205,1.1266,1.0828,3.2091.869,5.265.115a2.781,2.781,0,0,1,.9364,1.4639c.6448,1.9846.6713,4.6975.9113,7.2588.0411-.0468.0864-.0939.126-.1406C129.4329,39.1427,130.6928,34.8773,128.3472,32.2773Z" transform="translate(-26.7881 0)"/><path class="cls-4" d="M129.8346,48.7411c3.0761,1.9178,13.1969-.96,12.9736-7.3083-.0859-2.4421-4.7069-11.5041-5.2682-15.7514a20.2352,20.2352,0,0,1,1.2828-8.8937l-.0125-.0235c1.9427-7.9351-.6049-15.5409-7.7163-16.63-3.2515.9735-5.7883,4.5321-6.5,8.0706-.9028,4.4876.0338,9.1554-.5253,13.6986-.3035,2.467-.9751,5.24.5058,7.236.9785,1.3189,2.6731,1.918,3.7729,3.1375,2.3456,2.6,1.0857,6.8654-1.1826,9.5329-.04.0467-.0849.0938-.126.1406C127.3075,44.8212,127.8451,47.5006,129.8346,48.7411Z" transform="translate(-26.7881 0)"/><path class="cls-3" d="M71.8642,96.3c-.8073,1.5478-2.02,5.1618-.367,5.8517.6513.2718,3.9946-.15,5.1232-1.7326a10.4963,10.4963,0,0,0,1.107-5.2189,1.1029,1.1029,0,0,0-1.1823-.8116" transform="translate(-26.7881 0)"/><path class="cls-5" d="M72.8467,101.9015a3.8511,3.8511,0,0,0,2.515,2.4167l7.7484,2.3589a8.3289,8.3289,0,0,0,6.2016-.5441l16.962-8.6278a1.977,1.977,0,0,0,1.0807-1.7622h0a1.9769,1.9769,0,0,0-1.2872-1.8527l-1.8177-.6769a1.9774,1.9774,0,0,0-1.0094-.0982l-29.0616,4.76a2.2034,2.2034,0,0,0-1.7245,2.9Z" transform="translate(-26.7881 0)"/><path class="cls-6" d="M85.753,91.9044c-1.2511-.2037-2.3175-1.0057-3.5173-1.4146-2.9615-1.0092-7.0441.1713-10.1869,5.4274a3.5141,3.5141,0,0,0-.6164,1.6677,1.342,1.342,0,0,0,.9277,1.3737,3,3,0,0,0,1.5479-.3922c1.6019-.566,3.347.2958,5.0447.23,2.4945-.0964,7.3176-2.3852,7.3678-6.123" transform="translate(-26.7881 0)"/><path class="cls-7" d="M127.1646,41.81a9.5227,9.5227,0,0,0,2.4047-6.7032c-8.308.7494-11.9547,3.446-17.2481,12.077-13.97,22.78-13.86,31.0605-19.7692,36.2468-4.3247,3.7955-15.0008,6.0044-14.6286,13.5805a2.9714,2.9714,0,0,0,.7417,2,3.8719,3.8719,0,0,0,2.92.7073c13.9362-.4869,16.9758-2.9354,28.7423-18.5844a90.0782,90.0782,0,0,1,11.7233-13.34C112.435,51.1528,123.3412,46.3062,127.1646,41.81Z" transform="translate(-26.7881 0)"/><path class="cls-5" d="M152.6466,47.2228c.7754-2.0382.3113-4.8249-.3887-7.1873a6.8507,6.8507,0,0,0-6.2846-4.903c-3.9606-.1657-9.66-.35-13.2154-.2234-1.142.04-2.1918.1081-3.1886.1979a9.5227,9.5227,0,0,1-2.4047,6.7032c-3.8234,4.496-14.73,9.3426-5.1135,25.9843,7.34-6.5068,12.1252-6.458,21.2274-11.4647C147.1655,54.1917,151.0691,51.3692,152.6466,47.2228Z" transform="translate(-26.7881 0)"/><path class="cls-4" d="M148.062,35.5515a6.8456,6.8456,0,0,0-2.0887-.419c-.86-.036-1.8118-.0724-2.7965-.1068,1.5478.282,4.2006,1.5751,5.85,6.8964H151.86S150.8731,37.5085,148.062,35.5515Z" transform="translate(-26.7881 0)"/><path class="cls-4" d="M130.6486,36.7429a15.2265,15.2265,0,0,0-2.903-1.4294,18.89,18.89,0,0,0-6.26,1.8629,10.4819,10.4819,0,0,1,6.9016,2.525,22.54,22.54,0,0,1,5.1987,6.8043,28.9793,28.9793,0,0,0,3.5-1.2647A15.5612,15.5612,0,0,0,130.6486,36.7429Z" transform="translate(-26.7881 0)"/><path class="cls-5" d="M161.0184,94.6418a130.9412,130.9412,0,0,1-1.8316-15.7943,222.6869,222.6869,0,0,0-6.0129-35.5006l-2.6254.915c-1.5536-1.38-4.0075-.6965-5.8239.3133-6.179,3.4352-10.4265,9.7041-12.6344,16.42s-2.5643,13.8964-2.4513,20.965c.1944,12.1519,1.7188,24.2387,3.2411,36.2965q.1136.8989.227,1.7981a60.0979,60.0979,0,0,0,31.41-12.4005C163.453,103.2966,161.9477,99.0357,161.0184,94.6418Z" transform="translate(-26.7881 0)"/><path class="cls-8" d="M168.4382,225.715a4.63,4.63,0,0,0,4.1028-2.5289c-1.1238-1.8851-2.3613-3.73-3.4569-5.6092-3.8245-6.5615-6.0025-13.9393-7.8557-21.3045-.892-3.5455-1.7818-7.2414-4.0928-10.0742-2.178-2.67-5.4334-4.3245-7.4834-7.0936-3.1284-4.226-2.78-10.104-1.3234-15.1564s3.8765-9.8657,4.5047-15.0859a22.7837,22.7837,0,0,0-4.3764-16.25l-2.3748-15.2235a61.1237,61.1237,0,0,1-12.9753,2.6659q2.2248,17.6233,4.45,35.2469c.853,6.7563,1.7235,13.5853,4.1191,19.96a87.4338,87.4338,0,0,0,6.2386,12.4149q8.51,14.9071,17.02,29.8146a20.4239,20.4239,0,0,1,.4524,8.3049,3.5215,3.5215,0,0,1,.9467-.2375A17.4652,17.4652,0,0,1,168.4382,225.715Z" transform="translate(-26.7881 0)"/><path class="cls-9" d="M160.1476,237.4975a2.5279,2.5279,0,0,0,1.6559,2.4341,4.6025,4.6025,0,0,0,3.0937-.046c4.1275-1.3293,6.3847-5.6029,8.8532-9.1679.4711-.68.967-1.361,1.4327-2.0565a28.26,28.26,0,0,0-2.6421-5.4751,4.63,4.63,0,0,1-4.1028,2.5289,17.4652,17.4652,0,0,0-2.1041-.1563,3.5215,3.5215,0,0,0-.9467.2375,20.1781,20.1781,0,0,1-4.0455,9.511A4.478,4.478,0,0,0,160.1476,237.4975Z" transform="translate(-26.7881 0)"/><path class="cls-10" d="M172.8117,217.7456a4.871,4.871,0,0,1,1.0329-1.9057c-.0476-.0622-.094-.1274-.1419-.189l-.0489-.0627a27.4244,27.4244,0,0,1-5.03-10.2258,157.8867,157.8867,0,0,0-7.292-22.2471c-1.5525-3.7651-3.2654-7.5182-3.9409-11.5343a37.6211,37.6211,0,0,1,.6331-13.2528c2.998-15.68,9.8668-31.241,7.2645-46.991-.2046-1.2392-.4738-2.4641-.7713-3.6828a59,59,0,0,1-18.4344,9.7346l2.3748,15.2235a22.7837,22.7837,0,0,1,4.3764,16.25c-.6282,5.22-3.048,10.0337-4.5047,15.0859s-1.805,10.93,1.3234,15.1564c2.05,2.7691,5.3054,4.4241,7.4834,7.0936,2.311,2.8328,3.2008,6.5287,4.0928,10.0742,1.8532,7.3652,4.0312,14.743,7.8557,21.3045,1.0956,1.88,2.3331,3.7241,3.4569,5.6092a4.152,4.152,0,0,0,.5195-2.0384C173.0335,220.0051,172.57,218.8626,172.8117,217.7456Z" transform="translate(-26.7881 0)"/><path class="cls-5" d="M177.0854,224.3379c.4392-3.0871-1.3333-6.0134-3.2408-8.498a4.871,4.871,0,0,0-1.0329,1.9057c-.2418,1.117.2218,2.26.2488,3.4021a4.152,4.152,0,0,1-.5195,2.0384,28.26,28.26,0,0,1,2.6421,5.4751A10.5706,10.5706,0,0,0,177.0854,224.3379Z" transform="translate(-26.7881 0)"/><path class="cls-7" d="M136.22,119.6722c-.02-.0435-.0352-.0867-.0558-.13-2.1064-4.4407-6.4239-7.7856-7.5226-12.5762-1.3549-5.9076,2.6359-11.721,2.9136-17.7757.33-7.2036-4.5052-13.4494-8.3773-19.5329a34.336,34.336,0,0,1-4.3411-9.2184c-.5592,1.0012-1.1012,2.0068-1.6293,3.0023-1.4185,2.674-3.14,4.9-2.8673,7.86a40.3255,40.3255,0,0,0,2.78,9.565,64.6139,64.6139,0,0,1,2.7915,13.4022c.536,8.4181-2.2144,16.6231-3.61,24.9641A59.331,59.331,0,0,0,136.22,119.6722Z" transform="translate(-26.7881 0)"/><path class="cls-8" d="M118.6478,151.5011c2.9006,13.9056,5.2226,28.1237,8.7417,41.8811,3.2305,12.6289,3.95,26.1245,6.6788,38.9865.3485,1.6431.8908,3.5153,2.4315,4.184a2.9061,2.9061,0,0,0,3.0175-.4977,18.7467,18.7467,0,0,0-.0971-6.7139c-1.1128-5.6405-4.0285-10.8133-5.0356-16.4734-1.5817-8.8891,1.6784-18.0836.26-27-1.3409-8.4317-6.7777-16.0028-6.9469-24.5389-.2858-14.4237,15.0214-27.6727,8.5226-41.6565a59.331,59.331,0,0,1-19.9179-.44c-.2509,1.5015-.4633,3.0069-.5992,4.5192C114.8676,133.052,116.7413,142.36,118.6478,151.5011Z" transform="translate(-26.7881 0)"/><path class="cls-8" d="M135.873,243.3a2.4744,2.4744,0,0,0,1.1347.8444c.84.2136,1.63-.4831,2.1306-1.1909.1474-.2082.2809-.426.4142-.6437a10.3,10.3,0,0,1-.6308-2.3756,7.1653,7.1653,0,0,1,.9127-4.421l1.3463-6.52-1.38-7.1124a2.2751,2.2751,0,0,0,.4391-1.2672l-2.0718-.6074a2.5187,2.5187,0,0,0-2.8894,1.6126,7.3334,7.3334,0,0,0-.23,3.5958c.7989,7.7491-1.0717,5.9033-.9811,7.154.2335,3.2255-.403,5.2471-2.0635,5.6735-.0458.0117-.0911.0151-.1369.0258a4.7538,4.7538,0,0,0,1.17,2.1046Q134.455,241.7364,135.873,243.3Z" transform="translate(-26.7881 0)"/><path class="cls-9" d="M120.546,238.1945a3.2171,3.2171,0,0,0-.2822,3.21,5.9072,5.9072,0,0,0,2.2441,2.4686c3.3953,2.2544,7.8171,2.329,11.4271,4.22a17.9446,17.9446,0,0,0,3.4241,1.7071,7.3308,7.3308,0,0,0,3.719-.0952,7.4875,7.4875,0,0,0-.4948-4.8324c-.3282-.8571-.7088-1.7028-1.0308-2.563-.1333.2177-.2668.4355-.4142.6437-.5006.7078-1.2906,1.4045-2.1306,1.1909a2.4744,2.4744,0,0,1-1.1347-.8444q-1.4178-1.5639-2.8353-3.1276a4.7538,4.7538,0,0,1-1.17-2.1046C127.3854,239.1154,122.946,235.1486,120.546,238.1945Z" transform="translate(-26.7881 0)"/><path class="cls-10" d="M144.5265,237.8719l.0138.0026a55.9213,55.9213,0,0,1,.0942-15.9727l-4.3943-1.2881a2.2751,2.2751,0,0,1-.4391,1.2672l1.38,7.1124-1.3463,6.52a7.1653,7.1653,0,0,0-.9127,4.421,10.3,10.3,0,0,0,.6308,2.3756,28.1836,28.1836,0,0,1,1.661-2.6752A3.9841,3.9841,0,0,1,144.5265,237.8719Z" transform="translate(-26.7881 0)"/><path class="cls-5" d="M141.0781,249.7054a19.0006,19.0006,0,0,0,1.8678-.5775c1.4069-.5073,2.9953-1.3445,3.17-2.83a4.4366,4.4366,0,0,0-.2311-1.64,55.53,55.53,0,0,1-1.3445-6.7832l-.0138-.0026a3.9841,3.9841,0,0,0-3.313,1.7629,28.1836,28.1836,0,0,0-1.661,2.6752c.322.86.7026,1.7059,1.0308,2.563A7.4875,7.4875,0,0,1,141.0781,249.7054Z" transform="translate(-26.7881 0)"/><path class="cls-5" d="M155.4683,105.0682c-7.9647-15.5366-7.0853-33.9928-11.4986-50.8849-.7471-2.8608-1.8438-5.9371-4.3961-7.43-2.3558-1.3777-5.377-1.0088-7.8944.0448-5.8862,2.4633-9.6763,7.9712-12.8421,13.64a34.336,34.336,0,0,0,4.3411,9.2184c3.8721,6.0835,8.7076,12.3293,8.3773,19.5329-.2777,6.0547-4.2685,11.8681-2.9136,17.7757,1.0987,4.7906,5.4162,8.1355,7.5226,12.5762.0206.0436.0355.0868.0558.13a60.5838,60.5838,0,0,0,22.7088-8.1437C157.853,109.3464,156.5785,107.2337,155.4683,105.0682Z" transform="translate(-26.7881 0)"/><path class="cls-10" d="M127.6977,161.3287c.1692,8.5361,5.606,16.1072,6.9469,24.5389,1.4184,8.9165-1.8417,18.111-.26,27,1.0071,5.66,3.9228,10.8329,5.0356,16.4734a18.7467,18.7467,0,0,1,.0971,6.7139,8.8577,8.8577,0,0,0,2.7276-4.0982c5.5979-16.7076.4529-34.8563-.1523-52.4663-.3527-10.2648.8639-20.5117,2.0783-30.71.4482-3.7633,1.0191-7.8011,3.6071-10.5693,1.8373-1.9647,4.4377-2.9975,6.6319-4.5534a16.7073,16.7073,0,0,0,6.54-16.6024,23.0677,23.0677,0,0,0-2.02-5.5264,60.5838,60.5838,0,0,1-22.7088,8.1437C142.7191,133.656,127.4119,146.905,127.6977,161.3287Z" transform="translate(-26.7881 0)"/><path class="cls-4" d="M129.1156,95.76q-4.5757,2.3614-9.3136,4.39a67.6977,67.6977,0,0,1-1.0066,6.7923c.2957-.0759.59-.1614.8767-.2547a79.292,79.292,0,0,0,8.7493-3.4407,42.6446,42.6446,0,0,1,1.9817-8.1691Q129.7616,95.4264,129.1156,95.76Z" transform="translate(-26.7881 0)"/><path class="cls-10" d="M136.1666,90.664a18.3923,18.3923,0,0,1-5.7635,4.4138,42.6446,42.6446,0,0,0-1.9817,8.1691,79.3741,79.3741,0,0,0,11.7451-6.68Z" transform="translate(-26.7881 0)"/><path class="cls-4" d="M148.0909,82.2256c-.2608-3.0332.3657-6.0929.0807-9.124-.4563-4.8544-3.2159-9.3237-3.3169-14.1984-.13-6.27-4.1834-18.5411-12.0187-18.0134-.2393.0739-.4717.145-.718.2219-1.736.5423-2.1834.9742-2.7233,2.56a34.2376,34.2376,0,0,0-1.414,12.3346q3.0176,19.8781,6.5475,39.674c.2718,1.5239.5785,1.9654,2.2335,2.6057,5.8312,2.2555,8.5387,2.7883,12.4868,1.9259C152.7416,94.9935,148.5423,87.473,148.0909,82.2256Z" transform="translate(-26.7881 0)"/><path class="cls-10" d="M167.4574,89.9106a195.5958,195.5958,0,0,0-5.2812-36.09c-1.3093-5.6581-2.2647-7.9047-9.59-13.3693-3.8794-2.894-5.1367-4.077-19.75.4387,7.8353-.5277,11.8888,11.7439,12.0187,18.0134.101,4.8747,2.8606,9.344,3.3169,14.1984.285,3.0311-.3415,6.0908-.0807,9.124.4514,5.2474,4.6507,12.7679,1.1576,17.9867a44.44,44.44,0,0,0,4.4687-1.2966C166.1673,94.765,167.6714,95.1867,167.4574,89.9106Z" transform="translate(-26.7881 0)"/><path class="cls-9" d="M130.2613,41.4935a2.3554,2.3554,0,0,0-.6774,1.7034l.08.2264c.8832-1.4825,3.1063-1.3555,4.6705-.6265,3.6943,1.7218,6.7532,6.2477,8.9343,8.0879C141.1076,44.7362,136.7528,38.9317,130.2613,41.4935Z" transform="translate(-26.7881 0)"/><path class="cls-5" d="M159.0791,47.8883c.696-.7975.3009-2.0512-.2765-2.9382-1.704-2.6167-6.4275-5.8629-7.9163-6.5047-3.9733-1.713-10.2306-.1243-17.1759,1.4774a6.9643,6.9643,0,0,0-3.4491,1.5707c6.4915-2.5618,10.8463,3.2427,13.0071,9.3912a3.9957,3.9957,0,0,0,1.0941.71C146.7758,52.4935,158.0188,49.1031,159.0791,47.8883Z" transform="translate(-26.7881 0)"/><path class="cls-9" d="M131.094.1346a13.4885,13.4885,0,0,0-4.2136.067c-3.2914.5352-5.357,2.4909-7.5324,5.3665-.1429.2058-.2639.41-.393.6148,1.649,2.18,2.6286,2.47,2.5768,3.5161-.0557,1.1276-.4381,2.39.2353,3.2956.2954.3978.7554.6506,1.0438,1.0535.7143.9986.112,2.3979.3423,3.6039a1.2754,1.2754,0,0,1,.8135.3152c.6487-1.0162.6047-3.0993,2.0486-3.4315,1.6233-.3735,2.7971,2.2926,2.725,3.5184-.1026,1.7477-2.8627,4.255-2.34,5.3044,2.1031,4.2279,7.4706,5.415,11.3282,3.3242-.08-.3542-.1474-.6934-.188-1.0013a20.2352,20.2352,0,0,1,1.2828-8.8937l-.0125-.0235C140.753,8.8291,138.2054,1.2233,131.094.1346Z" transform="translate(-26.7881 0)"/><path class="cls-5" d="M110.3278,81.1342c2.3144-3.0779,4.3727-5.6193,6.25-7.7563.0188-.114.0531-.2246.0669-.34.2767-2.3118-.519-4.6025-1.3028-6.795a2.0825,2.0825,0,0,0-.669-1.085c-.8778-.5971-1.9633.3669-2.5781,1.232q-7.6821,10.8051-14.64,22.101a21.8215,21.8215,0,0,1-2.6828,3.7514,16.271,16.271,0,0,1-4.2136,2.9966A34.7719,34.7719,0,0,1,78.6338,98.971c.012.0123.019.0282.0313.04a3.8719,3.8719,0,0,0,2.92.7073C95.5217,99.2317,98.5613,96.7832,110.3278,81.1342Z" transform="translate(-26.7881 0)"/></svg>