<svg xmlns="http://www.w3.org/2000/svg" xmlns:xlink="http://www.w3.org/1999/xlink" viewBox="0 0 1000 500"><defs><path id="a" d="M1000 0H0v276.5c16.1 35 55.5 53.5 93.2 55.6 75.5 4.2 147.4-45.5 222.7-32.8 78 13.1 135.3 90.7 235.8 120 57.1 16.6 118.3 12.6 175.9-1.7C797.3 400.3 858 371 1000 307.8V0z"/></defs><clipPath id="b"><use xlink:href="#a" overflow="visible"/></clipPath><path clip-path="url(#b)" fill="#cdebff" d="M-.2.1H999.9v228H-.2z"/><g clip-path="url(#b)"><path d="M183.3 200.9c74.6 11.3 150-10.3 221.8-33.6s145.1-48.8 220.5-45.4c76.8 3.4 148.8 36.6 223.6 54.3 53.7 12.8 109.2 17.7 164.3 14.4v13.7H181.8l1.5-3.4" fill="#b4e1ff"/></g><path d="M753.3 88.3c-6.3.2-11.9 4.8-18.2 4.9-5 .1-9.6-2.7-13-6.3-3.3-3.7-5.6-8.2-7.8-12.6-1.7-3.3-3.7-6.9-7.2-8.1-3.2-1-6.6.4-9.5 2-10.4 5.8-18.4 15-27.6 22.6-3.3 2.8-7.4 5.5-11.7 4.8-4.9-.8-8-5.5-10.1-10-1.2-2.5-2.6-5.3-5.3-5.9-1.9-.4-3.7.5-5.3 1.5-11.3 6.6-20.7 18-33.8 19h175c-8.7-3.7-15.5-12.2-25.5-11.9zM431.9 86.5c-3.2-2.1-6.6-4.2-10.5-4.6-6.4-.7-13.4 3.5-19.1.4-1.9-1-3.4-2.8-5.4-3.7-1.9-.8-4.1-.6-6.1-.2-4.5.9-8.8 2.9-13.3 3.5-4.6.6-9.8-.4-12.4-4.2-1.5-2.2-1.9-5-2.8-7.5-.9-2.5-2.8-5-5.4-5.2-1.6-.1-3.1.6-4.4 1.4-8.3 4.8-15.2 11.9-23.9 16.1-2.4 1.2-5.9 1.8-7.4-.4-.9-1.4-.7-3.4-1.9-4.6-1.6-1.7-4.5-.5-6.6.8-4.3 2.7-8.7 5.5-13 8.2h132.2zM253.3 61.9c-2.7-1.3-5-3.3-7.3-5.3-1-.8-2-1.6-3.2-2-.9-.3-1.8-.3-2.7-.1-1 .2-1.9.7-2.8 1.2-2.3 1.3-4.3 3-6.6 4.4-1.2.7-2.4 1.4-3.7 1.9h26.3zM211.2 61.9c-3.5-2.6-7.7-4.2-12-4.5-4.4-.3-8.9.6-13-1.1-5.3-2.2-7.8-8.2-10-13.6-2.1-5.4-5-11.3-10.4-13.1-4.6-1.5-9.6.3-13.8 2.7-9.3 5.2-17 12.9-25.3 19.6-2.4 1.9-5.3 3.8-8.2 2.9-3.7-1.2-5-6.5-8.8-7.6-2.6-.7-5.2.9-7.3 2.5-5.1 3.8-10.1 7.9-14.8 12.2h123.6zM587.4 100.2c-.9-.4-1.8-.8-2.5-1.5s-1.1-1.7-1.7-2.5c-1.1-1.7-3.1-2.8-5.1-2.8-1.7 0-3.3.8-4.6 1.8-2.2 1.7-4.6 4.5-7.7 4.9h21.6z" clip-path="url(#b)" fill="#fff"/><path clip-path="url(#b)" fill="#0071bf" d="M-.2 205.1h1000.4v230.7H-.2z"/><path clip-path="url(#b)" fill="#38adff" d="M729.5 204.5h35.8v-84.6l-35.8 7.5z"/><path clip-path="url(#b)" fill="#cdebff" d="M678.1 204.6h-47.2v-56.5L655 134l23.1 14.1z"/><path clip-path="url(#b)" fill="#9bd6ff" d="M616.9 204.4l14 .1v-56.4l-14 2.9zM747.6 144l11.6-1.8V130l-11.6 2.2zM732.8 146.4l10.6-1.7V133l-10.6 1.9zM747.6 163.2l11.6-1.2v-12.3l-11.6 1.6zM843.6 204h-78.7v-83.8l38.9-36.8 39.8 36.8z"/><path clip-path="url(#b)" fill="#fff" d="M795.2 116.2h18.1v18.1h-18.1z"/><path clip-path="url(#b)" fill="#6ac2ff" d="M729.5 127.4l34.9-32.9 39.4-11.1-38.9 36.8z"/><g opacity=".98" clip-path="url(#b)"><path d="M1003.8 7.9c-13.7 9.2-25.1 21.8-32.3 36.7-.9 1.9-1.9 3.9-3.7 5-2.3 1.3-5.1.6-7.7 0-17.9-4.2-37.9-1.6-52.5 9.6-22.4 17.2-28.5 50.3-51.8 66.2-2.8 1.9-6.1 3.6-9.5 3.3-4.3-.4-7.7-3.8-11.5-5.8-7.2-3.9-16.2-3-23.6.5-7.4 3.6-13.3 9.5-18.7 15.6-6.5 7.4-13.2 15.8-22.9 17.9-10.6 2.3-21.3-3.8-32.1-3.1-19.7 1.1-31.5 22.8-49.6 30.8-13.1 5.7-28 3.7-42.3 4.8-12.2.9-25.7 5.8-31.7 15.8h389.8V7.9z" fill="#6ac2ff"/></g><path clip-path="url(#b)" fill="#6ac2ff" d="M616.9 151l16.9-10.7L655 134l-24.1 14.1z"/><g clip-path="url(#b)"><path d="M89 206.6c4.9-10.5 15.5-18.1 27-19.5 2.6-.3 5.3-.3 7.7-1.4 3.2-1.4 5.3-4.4 7.3-7.3 9-12.6 22.9-25.5 37.8-21.4 5.9-11.6 17.4-20.3 30.2-22.6 12.8-2.3 26.6 1.6 36.2 10.5 6.3-6 16.8-5 24.3-.6s13.1 11.4 19.6 17.2c1.1.9 2.2 1.9 3.6 2.1 1.8.3 3.5-.6 5.1-1.4 14.9-7.2 34.4-2.9 45 9.8 13.6-10.1 34.5-8.2 46.1 4 1.7 1.8 3.3 3.8 5.6 4.8 1.8.7 3.8.7 5.8.8 9.3.5 18.4 4.7 24.8 11.4 8.3-5.6 19.6-6.3 28.5-1.8 5 2.6 5.2 3.6 13.6 4.4 38.6 3.7 55.2 3.9 78.9 16.1L89 206.6z" fill="#6ac2ff"/></g><g clip-path="url(#b)"><path d="M300.5 150.6c-2 1-2.7 2.8-3.3 5-1.3 4.7.1 11.3-4.6 22.5-1.6 3.8-3.3 7.3-.1 11.1 4.7 5.6 15.2 4.6 18.4-1.5 3.2-6.2-1.5-11.1-4.5-30.7-.3-1.7-.5-3.4-1.5-4.8s-2.9-2.3-4.4-1.6" fill="#38adff"/></g><g clip-path="url(#b)"><path d="M310.8 187.9c-.7.7-1.6 1.4-2.5 2-1.9 1.3-4.2 2.4-6.5 1.8-1.1-.3-2.2-1.2-2.3-2.4 0-.4.1-.8.2-1.2.4-1.2 1.3-2.2 1.9-3.3.6-1.1 1-2.5.4-3.7-.7-1.6-2.8-2.1-3.9-3.5-1.2-1.5-.9-3.7-.2-5.4.8-1.7 2-3.3 2.6-5 .7-1.8.7-3.7.3-5.5-.5-1.7-1.4-3.3-1.7-5-.4-2.3.5-4.8 2.3-6.3-.3 0-.6.1-.9.2-2 1-2.7 2.8-3.3 5-1.3 4.7.1 11.3-4.6 22.5-1.6 3.8-3.3 7.3-.1 11.1 4.6 5.5 14.9 4.7 18.3-1.3z" fill="#0096ff"/></g><path clip-path="url(#b)" fill="none" d="M134.4 161.6l-66.8-12.4V28.5l66.8 39.8z"/><path clip-path="url(#b)" fill="#38adff" d="M125.5 68.3l48.1 43-55.2-27.2-60.1-55.2z"/><path clip-path="url(#b)" fill="#9bd6ff" d="M173.6 204.5l-55.2.1V84.1l55.2 27.2z"/><path clip-path="url(#b)" fill="#fff" d="M146.5 131.2l-20.2-6.8v-22.9l20.2 8.7zM169 138.8l-16-5.4V113l16 7zM146.5 173.8l-20.2-2.8v-22.9l20.2 4.8z"/><path clip-path="url(#b)" fill="#6ac2ff" d="M118.3 209.8H0V83.9l58.4-55.3 59.9 55.3z"/><path clip-path="url(#b)" fill="#9bd6ff" d="M38.2 90.1H80v26.4H38.2z"/><path clip-path="url(#b)" fill="#40b1ff" d="M38.2 116.5H80v2.4H38.2z"/><path d="M189.3 190.7v19.8h4v-19.8l-1.8-2-2.2 2zm14 0v19.8h4v-19.8l-1.8-2-2.2 2zm-7 0v19.8h4v-19.8l-1.8-2-2.2 2zm35.2 0v19.8h4v-19.8l-1.8-2-2.2 2zm-14.1 0v19.8h4v-19.8l-1.8-2-2.2 2zm7.1 0v19.8h4v-19.8l-1.8-2-2.2 2zm-14.1 0v19.8h4v-19.8l-1.8-2-2.2 2zm-56.3 0v19.8h4v-19.8l-1.8-2-2.2 2zm7 0v19.8h4v-19.8l-1.8-2-2.2 2zm14.1 0v19.8h4v-19.8l-1.8-2-2.2 2zm7 0v19.8h4v-19.8l-1.8-2-2.2 2zm-14.1 0v19.8h4v-19.8l-1.8-2-2.2 2zm140.8 0v19.8h4v-19.8l-1.8-2-2.2 2zm-28.1 0v19.8h4v-19.8l-1.8-2-2.2 2zm14 0v19.8h4v-19.8l-1.8-2-2.2 2zm-7 0v19.8h4v-19.8l-1.8-2-2.2 2zm30.3-2l-2.1 2v19.8h4v-19.8l-1.9-2zm-16.2 2v19.8h4v-19.8l-1.8-2-2.2 2zm-56.3 0v19.8h4v-19.8l-1.8-2-2.2 2zm-7.1 0v19.8h4v-19.8l-1.8-2-2.2 2zm14.1 0v19.8h4v-19.8l-1.8-2-2.2 2zm14.1 0v19.8h4v-19.8l-1.8-2-2.2 2zm-7.1 0v19.8h4v-19.8l-1.8-2-2.2 2zm14.1 0v19.8h4v-19.8l-1.8-2-2.2 2zM894.9 184.6v19.8h4v-19.8l-1.8-2-2.2 2zm14.1 0v19.8h4v-19.8l-1.8-2-2.2 2zm-7 0v19.8h4v-19.8l-1.8-2-2.2 2zm35.2 0v19.8h4v-19.8l-1.8-2-2.2 2zm-14.1 0v19.8h4v-19.8l-1.8-2-2.2 2zm7 0v19.8h4v-19.8l-1.8-2-2.2 2zm-14.1 0v19.8h4v-19.8l-1.8-2-2.2 2zm-56.3 0v19.8h4v-19.8l-1.8-2-2.2 2zm7.1 0v19.8h4v-19.8l-1.8-2-2.2 2zm14.1 0v19.8h4v-19.8l-1.8-2-2.2 2zm7 0v19.8h4v-19.8l-1.8-2-2.2 2zm-14.1 0v19.8h4v-19.8l-1.8-2-2.2 2zm140.8 0v19.8h4v-19.8l-1.8-2-2.2 2zm-28.2 0v19.8h4v-19.8l-1.8-2-2.2 2zm14.1 0v19.8h4v-19.8l-1.8-2-2.2 2zm-7 0v19.8h4v-19.8l-1.8-2-2.2 2zm30.3-2l-2.1 2v19.8h4v-19.8l-1.9-2zm-16.3 2v19.8h4v-19.8l-1.8-2-2.2 2zm-56.3 0v19.8h4v-19.8l-1.8-2-2.2 2zm-7 0v19.8h4v-19.8l-1.8-2-2.2 2zm14.1 0v19.8h4v-19.8l-1.8-2-2.2 2zm14 0v19.8h4v-19.8l-1.8-2-2.2 2zm-7 0v19.8h4v-19.8l-1.8-2-2.2 2zm14.1 0v19.8h4v-19.8l-1.8-2-2.2 2z" clip-path="url(#b)" fill="#cdebff"/><path d="M814 187.7v16.7h1.1v-16.8l-.5-1.6-.6 1.7zm4-.3v17h1.1v-17.1l-.5-1.7-.6 1.8zm-2 .2v16.8h1.1v-16.9l-.5-1.7-.6 1.8zm10.3-.8v17.6h1.2v-17.7l-.5-1.7-.7 1.8zm-4.2.3v17.3h1.2V187l-.5-1.7-.7 1.8zm2.1-.1v17.4h1.2v-17.5l-.6-1.7-.6 1.8zm-4.2.3v17.1h1.2v-17.2l-.5-1.7-.7 1.8zm-15.3 1.1v16h1v-16.1l-.5-1.6-.5 1.7zm1.8-.1v16.1h1v-16.2l-.5-1.6-.5 1.7zm3.7-.3v16.4h1.1v-16.5l-.5-1.6-.6 1.7zm1.9-.1v16.5h1.1v-16.6l-.5-1.6-.6 1.7zm-3.8.2v16.3h1v-16.3l-.5-1.6-.5 1.6zm44.4-3.2v19.5h1.5v-19.6l-.7-1.9-.8 2zm-10.2.7v18.8h1.4v-18.9l-.6-1.8-.8 1.9zm5-.3v19.1h1.5v-19.2l-.7-1.9-.8 2zm-2.5.1v18.9h1.4v-19.1l-.7-1.9-.7 2.1zm11.3-2.8l-.8 2.1v19.7h1.5v-19.8l-.7-2zm-6.2 2.5v19.3h1.5V185l-.7-1.9-.8 2zm-19.4 1.4v17.9h1.3v-18l-.6-1.8-.7 1.9zm-2.2.2v17.7h1.2v-17.8l-.6-1.7-.6 1.8zm4.5-.4v18.1h1.3v-18.2l-.6-1.8-.7 1.9zm4.7-.3v18.4h1.3v-18.5l-.6-1.8-.7 1.9zm-2.4.2v18.2h1.3v-18.3l-.6-1.8-.7 1.9zm4.8-.4v18.6h1.4v-18.7l-.6-1.8-.8 1.9z" clip-path="url(#b)" fill="#38adff"/><g clip-path="url(#b)"><path d="M838.4 85.8c-4.8 2.4-6.5 6.6-7.9 11.7-3 11 .1 26.5-10.9 53-3.7 8.9-7.8 17.2-.2 26.2 11.1 13.1 35.7 10.9 43.3-3.6 7.6-14.6-3.5-26.2-10.6-72.3-.6-3.9-1.2-8-3.5-11.3-2.2-3.2-6.6-5.4-10.2-3.7" fill="#38adff"/></g><g clip-path="url(#b)"><path d="M862.5 173.7c-1.8 1.7-3.8 3.3-5.8 4.6-4.5 3.1-10 5.7-15.2 4.3-2.7-.7-5.2-2.8-5.3-5.6-.1-1 .2-1.9.5-2.9 1.1-2.8 3-5.2 4.4-7.8 1.4-2.6 2.3-5.9 1-8.6-1.7-3.8-6.7-4.9-9.3-8.2-2.8-3.5-2.2-8.6-.4-12.7 1.8-4.1 4.6-7.7 6.2-11.9 1.5-4.1 1.8-8.7.6-13-1.1-4-3.3-7.7-4-11.8-.9-5.5 1.3-11.3 5.4-14.9-.8.1-1.5.2-2.2.6-4.8 2.4-6.5 6.6-7.9 11.7-3 11 .1 26.5-10.9 53-3.7 8.9-7.8 17.2-.2 26.2 11 13 35.1 11 43.1-3z" fill="#0096ff"/></g><path d="M842.1 204.3H839v-24c0-.6.7-1.1 1.6-1.1.9 0 1.6.5 1.6 1.1v24z" clip-path="url(#b)" fill="#0071bf"/><g clip-path="url(#b)"><path d="M-39.7 149c2.3-4.2 4.8-8.5 8.4-11.6 3.7-3.1 8.9-4.9 13.4-3.3 1.7.6 3.3 1.7 5.2 1.7 1.6 0 3.1-.9 4.4-1.8 10.6-7.3 18.9-17.9 30.3-24 3.1-1.6 6.5-2.9 10-2.5 6.2.8 10.3 6.9 12.8 12.7 2.5 5.8 4.8 12.2 10.1 15.6 11.1 7.1 27.2-4.1 38.7 2.5 10.8 6.2 11.2 24.6 23.1 28.1 4 1.2 8.3.2 12.4-.7 10.1-2.1 22.2-2.5 28.8 5.3 2.5 3 3.9 6.8 5.8 10.2 2 3.4 5.1 6.6 9 6.8 2.6.2 5-1 7.6-1.1 4.1-.2 8.2 2.3 9.7 6.1 1 2.5 1.4 5.9 3.9 7 1.5.6 3.2.1 4.8-.3 6.7-1.8 14.8-1.7 19.6 3.3 2.6 2.7 4.5 6.9 8.2 7.4 2.3.3 5.5-.5 6.1 1.7H-35.6l-4.1-63.1z" fill="#38adff"/></g><g clip-path="url(#b)"><path d="M444.6 126.6c-3.1 1.6-4.2 4.3-5.1 7.6-1.9 7.1.1 17.2-7.1 34.3-2.4 5.7-5 11.1-.1 16.9 7.2 8.5 23.1 7.1 28.1-2.3 4.9-9.4-2.3-17-6.9-46.8-.4-2.5-.8-5.2-2.2-7.3-1.5-2.2-4.4-3.5-6.7-2.4" fill="#38adff"/></g><g clip-path="url(#b)"><path d="M460.3 183.3c-3.3 2.6-7.4 4.8-10.7 4.5-2.1-.2-4.2-1.4-4.9-3.4-.9-2.6.9-5.6-.2-8.2-.9-2.2-3.6-3.1-5.1-5-2.1-2.7-1.3-6.7.3-9.8 1.6-3.1 3.9-5.9 5.5-9.1s2.5-6.9 1.2-10.2c-.8-2.1-2.5-3.8-3.3-5.8-1.4-3.6.1-8 3.2-10.1-.6 0-1.2.1-1.7.4-3.1 1.6-4.2 4.3-5.1 7.6-1.9 7.1.1 17.2-7.1 34.3-2.4 5.7-5 11.1-.1 16.9 7.1 8.5 22.9 7.1 28-2.1z" fill="#0096ff"/></g><path clip-path="url(#b)" fill="none" stroke="#38adff" stroke-width=".9981" stroke-miterlimit="10" d="M445.5 203v-14.6"/><g clip-path="url(#b)"><path d="M583.9 240.6c-1.2-.1-1.2.3-2.4.3s-1.2-.9-2.4-.9-1.2 1.1-2.4 1.1-1.2-.3-2.4-.3-1.2.8-2.4.8-1.2-.9-2.4-.9-1.2-.9-2.4-.9h-2.4c-1.2 0-1.2.8-2.4.8s-1.2.9-2.4.9-1.2-1.1-2.4-1.1-1.2 1.1-2.4 1.1-1.2-1.7-2.4-1.7-1.2 1.4-2.4 1.4-1.2-1.3-2.4-1.3-1.2 1-2.4 1-1.2.2-2.4.2-1.2-.8-2.4-.8-1.2-.5-2.4-.5h-2.4c-1.2 0-1.2.7-2.4.7s-1.2-.3-2.4-.3-1.2 1.3-2.4 1.3-1.2-1.4-2.4-1.4-1.2 1.5-2.4 1.5h-2.4c-1.2 0-1.2-.8-2.4-.8s-1.2-.3-2.4-.3-1.2-.5-2.4-.5-1.2 1.5-2.4 1.5-1.2-.7-2.4-.7-1.2-.5-2.4-.5h-2.4c-1.2 0-1.2 1.2-2.4 1.2s-1.2-.5-2.4-.5-1.2-.4-2.4-.4-1.2.2-2.4.2-1.2.2-2.4.2-1.2-.6-2.4-.6-1.2-.1-2.4-.1-1.2-.4-2.4-.4-1.2.6-2.4.6-1.2 1-2.4 1h-2.4c-1.2 0-1.2-.1-2.4-.1s-1.2-.5-2.4-.5-1.2-.3-2.4-.3-1.2-.6-2.4-.6-1.2 1.3-2.4 1.3-1.2.3-2.4.3-1.2-.1-2.4-.1-1.2-1.2-2.4-1.2-1.2-.4-2.4-.4-1.2.3-2.4.3-1.2.1-2.4.1-1.2-.2-2.4-.2-1.2-.2-2.4-.2-1.2.2-2.4.2-1.2.1-2.4.1-1.2.4-2.4.4-1.2-.2-2.4-.2-1.2.8-2.4.8-1.2-.7-2.4-.7-1.2 1.1-2.4 1.1-1.2-.3-2.4-.3-1.2-1.2-2.4-1.2-1.2 1.3-2.4 1.3-1.2-1.4-2.4-1.4-1.2.9-2.4.9-1.2-.3-2.4-.3-1.2-.6-2.4-.6h-2.4c-1.2 0-1.2.6-2.4.6s-1.2.8-2.4.8-1.2-.5-2.4-.5-1.2-.3-2.4-.3-1.2-1-2.4-1-1.2.2-2.4.2-1.2.7-2.4.7-1.2.4-2.4.4-1.2.5-2.4.5-1.2-.5-2.4-.5-1.2-1-2.4-1-1.2.5-2.4.5-1.2-.4-2.4-.4-1.2.9-2.4.9h-2.4c-1.2 0-1.2-.9-2.4-.9s-1.2 1.4-2.4 1.4-1.2-1.6-2.4-1.6-1.2.5-2.4.5-1.2.2-2.4.2-1.2.1-2.4.1-1.2.7-2.4.7-1.2.2-2.4.2-1.2-.9-2.4-.9-1.2-1-2.4-1-1.2-.1-2.4-.1-1.2 1.9-2.4 1.9-1.2-1.4-2.4-1.4-1.2 1.1-2.4 1.1-1.2-1.4-2.4-1.4h-2.4c-1.2 0-1.2 1.2-2.4 1.2s-1.2-.4-2.4-.4-1.2-.8-2.4-.8-1.2 1.7-2.4 1.7-1.2-.9-2.4-.9-1.2-.9-2.4-.9-1.2 1-2.4 1-1.2-.7-2.4-.7-1.2.7-2.4.7-1.2.2-2.4.2-1.2.2-2.4.2-1.2-.1-2.4-.1-1.2-.7-2.4-.7-1.2-.1-2.4-.1-1.2.1-2.4.1-1.2-.3-2.4-.3-1.2 1.4-2.4 1.4-1.2-.7-2.4-.7-1.2-.5-2.4-.5-1.2-.2-2.4-.2-1.2.6-2.4.6-1.2.8-2.4.8-1.2.2-2.4.2-1.2-.7-2.4-.7-1.2.7-2.4.7-1.2-.8-2.4-.8-1.2-.8-2.4-.8-1.2.4-2.4.4h-2.4c-1.2 0-1.2.6-2.4.6s-1.2.7-2.4.7-1.2-.7-2.4-.7-1.2.7-2.4.7-1.2-1.4-2.4-1.4h-2.4c-1.2 0-1.2.7-2.4.7s-1.2-.1-2.4-.1-1.2-.5-2.4-.5-1.2.6-2.4.6-1.2-1.2-2.4-1.2-1.2 1.9-2.4 1.9-1.2-1.3-2.4-1.3-1.2.3-2.4.3-1.2-.2-2.4-.2-1.2.1-2.4.1-1.2 1-2.4 1-1.2-1.2-2.4-1.2-1.2 1.3-2.4 1.3-1.2-1.4-2.4-1.4-1.2.2-2.4.2-1.2-.7-2.4-.7-1.2.8-2.4.8-1.2-.5-2.4-.5-1.2.1-2.4.1-1.2 1.1-2.4 1.1h-2.4c-1.2 0-1.2-.3-2.4-.3s-1.2-.5-2.4-.5h-2.4c-1.2 0-1.2-.1-2.4-.1s-1.2.1-2.4.1-1.2 1-2.4 1-1.2-1.5-2.4-1.5-1.2 1.6-2.4 1.6-1.2-1.4-2.4-1.4-1.2 1-2.4 1-1.2.5-2.4.5-1.2-.5-2.4-.5-1.2.6-2.4.6-1.2-.8-2.4-.8h-2.4c-1.2 0-1.2.2-2.4.2s-1.2.4-2.4.4-1.2-.1-2.4-.1-1.2-1.2-2.4-1.2-1.2 1.4-2.4 1.4-1.2-1.5-2.4-1.5-1.2 1.4-2.4 1.4-1.2-1-2.4-1-1.2.8-2.4.8-1.2-1-2.4-1-1.2.6-2.4.6-1.2.3-2.4.3-1.2-1.6-2.4-1.6-1.2 1.8-2.4 1.8-1.2-.1-2.4-.1-1.2.1-2.4.1-1.2-1-2.4-1-1.2.8-2.4.8-1.2-1.3-2.4-1.3-1.2.5-2.4.5-1.2.8-2.4.8-1.2-1.1-2.4-1.1-1.2-.4-2.4-.4-1.2 1.3-2.4 1.3-1.2-1.2-2.4-1.2-1.2-.1-2.4-.1-1.2.3-2.4.3-1.2.3-2.4.3-1.2.5-2.4.5-1.2.4-2.4.4-1.2-1-2.4-1-1.2 1.3-2.4 1.3-1.2-1.5-2.4-1.5-1.2 1.1-2.4 1.1-1.2-.3-2.4-.3-1.2-.9-2.4-.9-1.2 1.3-2.4 1.3-1.2-1-2.4-1-1.2 1.5-2.4 1.5-1.2-.7-2.4-.7-1.2.1-2.4.1h-2.4c-1.2 0-1.2.5-2.4.5s-1.2-.3-2.4-.3-1.2-1-2.4-1-1.2 1.1-2.4 1.1-1.2-.2-2.4-.2-1.2.3-2.4.3-1.2-.9-2.4-.9-1.2-.4-2.4-.4-1.2 1.4-2.4 1.4-1.2-.4-2.4-.4-1.2-.2-2.4-.2-1.2-.7-2.4-.7-1.2-.5-2.4-.5-1.2 1-2.4 1-1.2.5-2.4.5-1.2.1-2.4.1-1.2-.6-2.4-.6-1.2.2-2.4.2-1.2.2-2.4.2-1.2-.7-2.4-.7-1.2-.7-2.4-.7-1.2 1.1-2.4 1.1-1.2.1-2.4.1-1.2-.1-2.4-.1-1.2-.5-2.4-.5-1.2-.6-2.4-.6-1.2-.2-2.4-.2-1.8-.2-2.7.7c-.8.8.9 1.5.9 2.6 0 1.2-.8 1.2-.8 2.4s.6 1.2.6 2.4-.5 1.2-.5 2.4v2.4c0 1.2-.6 1.2-.6 2.4s.8 1.2.8 2.4-.3 1.2-.3 2.4-.8 1.2-.8 2.4v2.4c0 1.2.8 1.2.8 2.4s.1 1.2.1 2.4.1 1.2.1 2.4-1 1.2-1 2.4.9 1.2.9 2.4.6 1.2.6 2.4-.5 1.2-.5 2.4.5 1.2.5 2.4.1 1.2.1 2.4-.5 1.2-.5 2.4-.8 1.2-.8 2.4 1.5 1.2 1.5 2.4-1.3 1.2-1.3 2.4-.1 1.2-.1 2.4.6 1.2.6 2.4-1.2 1.2-1.2 2.4 1.5 1.2 1.5 2.4-.7 1.2-.7 2.4.6 1.2.6 2.4-1 1.2-1 2.4 1 1.2 1 2.4-.8 1.2-.8 2.4-.2 1.2-.2 2.4.6 1.2.6 2.4-.4 1.2-.4 2.4.2 1.2.2 2.4.8 1.2.8 2.4.2 1.2.2 2.4-.1 1.2-.1 2.4-1.3 1.2-1.3 2.4 1.4 1.2 1.4 2.4-.1 1.2-.1 2.4-1.7 1.2-1.7 2.4 1.3 1.2 1.3 2.4-1.1 1.2-1.1 2.4 1.1 1.2 1.1 2.4v2.4c0 1.2-.7 1.2-.7 2.4s.4 1.2.4 2.4-.9 1.2-.9 2.4.8 1.2.8 2.4-.6 1.2-.6 2.4.2 1.2.2 2.4.2 1.2.2 2.4-.2 1.2-.2 2.4-.2 1.2-.2 2.4.8 1.2.8 2.4.7 1.2.7 2.4-1.4 1.2-1.4 2.4.7 1.2.7 2.4v2.4c0 1.2-.5 1.2-.5 2.4s.5 1.2.5 2.4-.4 1.2-.4 2.4 1.2 1.2 1.2 2.4-1.4 1.2-1.4 2.4.1 1.2.1 2.4-.3 1.2-.3 2.4.2 1.2.2 2.4-.4 1.2-.4 2.4-.1 1.2-.1 2.4v2.4c0 1.2 1.1 1.2 1.1 2.4s-.5 1.2-.5 2.4-.5 1.2-.5 2.4.8 1.2.8 2.4-.5 1.2-.5 2.4 1.1 1.2 1.1 2.4-1.1 1.2-1.1 2.4.2 1.2.2 2.4.3 1.2.3 2.4-1.3 2-.5 2.9c.8.8 1.7-1.1 2.9-1.1s1.2.4 2.4.4 1.2 1.2 2.4 1.2 1.2-1.3 2.4-1.3 1.2.9 2.4.9 1.2-1.1 2.4-1.1 1.2.3 2.4.3 1.2.3 2.4.3 1.2.7 2.4.7H22c1.2 0 1.2-.4 2.4-.4s1.2.6 2.4.6 1.2-.1 2.4-.1 1.2-1.1 2.4-1.1 1.2-.6 2.4-.6 1.2 1.3 2.4 1.3 1.2-.9 2.4-.9 1.2-.2 2.4-.2 1.2.6 2.4.6 1.2.2 2.4.2 1.2-.4 2.4-.4 1.2-.1 2.4-.1 1.2.9 2.4.9 1.2-1.3 2.4-1.3 1.2-.2 2.4-.2 1.2.8 2.4.8 1.2.2 2.4.2 1.2-.8 2.4-.8 1.2 1.1 2.4 1.1 1.2-1.3 2.4-1.3 1.2.6 2.4.6 1.2.1 2.4.1 1.2-.5 2.4-.5 1.2 1.4 2.4 1.4 1.2-1 2.4-1 1.2-.3 2.4-.3 1.2-.1 2.4-.1 1.2 1.2 2.4 1.2 1.2-.9 2.4-.9 1.2.5 2.4.5 1.2-1.2 2.4-1.2 1.2 1.8 2.4 1.8 1.2-.3 2.4-.3 1.2-.1 2.4-.1 1.2-.9 2.4-.9 1.2.2 2.4.2 1.2 1.1 2.4 1.1 1.2-1.3 2.4-1.3 1.2-.4 2.4-.4 1.2 1.3 2.4 1.3 1.2-1.5 2.4-1.5 1.2.3 2.4.3 1.2 1.4 2.4 1.4 1.2-.3 2.4-.3 1.2.3 2.4.3 1.2-.2 2.4-.2 1.2.3 2.4.3 1.2-1.5 2.4-1.5 1.2 1.1 2.4 1.1 1.2-1 2.4-1 1.2.8 2.4.8 1.2-.9 2.4-.9 1.2.4 2.4.4 1.2-.8 2.4-.8 1.2 1.5 2.4 1.5h2.4c1.2 0 1.2-.6 2.4-.6s1.2.4 2.4.4 1.2.3 2.4.3 1.2-.6 2.4-.6 1.2.4 2.4.4 1.2-.5 2.4-.5 1.2.4 2.4.4 1.2-.7 2.4-.7 1.2.1 2.4.1 1.2.4 2.4.4h2.4c1.2 0 1.2-.7 2.4-.7s1.2 1.2 2.4 1.2 1.2-1.5 2.4-1.5 1.2 1 2.4 1 1.2-.9 2.4-.9 1.2 1 2.4 1 1.2-1.1 2.4-1.1 1.2.6 2.4.6 1.2-.8 2.4-.8 1.2.9 2.4.9 1.2-.1 2.4-.1 1.2.8 2.4.8 1.2.3 2.4.3 1.2-.1 2.4-.1 1.2-1 2.4-1 1.2 1.2 2.4 1.2 1.2-.5 2.4-.5 1.2-.3 2.4-.3 1.2-.4 2.4-.4 1.2.3 2.4.3 1.2.4 2.4.4 1.2-1.1 2.4-1.1 1.2-.2 2.4-.2 1.2 1.1 2.4 1.1 1.2-.9 2.4-.9 1.2 1.2 2.4 1.2 1.2.1 2.4.1 1.2.4 2.4.4 1.2-1.8 2.4-1.8 1.2.6 2.4.6 1.2-.6 2.4-.6 1.2 1.8 2.4 1.8 1.2-1.4 2.4-1.4 1.2 1.2 2.4 1.2 1.2-1.3 2.4-1.3 1.2 1.3 2.4 1.3 1.2-1.3 2.4-1.3 1.2-.4 2.4-.4 1.2 1.5 2.4 1.5 1.2-1.6 2.4-1.6 1.2 1.6 2.4 1.6 1.2-1.3 2.4-1.3 1.2.5 2.4.5 1.2.1 2.4.1 1.2-.5 2.4-.5 1.2-.2 2.4-.2 1.2 1 2.4 1 1.2-.3 2.4-.3 1.2.1 2.4.1 1.2.9 2.4.9h2.4c1.2 0 1.2-1.8 2.4-1.8s1.2 1.4 2.4 1.4h2.4c1.2 0 1.2-.1 2.4-.1s1.2-.2 2.4-.2 1.2-1.1 2.4-1.1 1.2.7 2.4.7 1.2.2 2.4.2h2.4c1.2 0 1.2-.6 2.4-.6s1.2-.3 2.4-.3 1.2 1.2 2.4 1.2 1.2-.1 2.4-.1 1.2-.3 2.4-.3 1.2.9 2.4.9 1.2-1.3 2.4-1.3 1.2.8 2.4.8 1.2-1.1 2.4-1.1 1.2.1 2.4.1 1.2 1 2.4 1 1.2.3 2.4.3 1.2-.6 2.4-.6 1.2.2 2.4.2 1.2.1 2.4.1 1.2-.2 2.4-.2 1.2.7 2.4.7 1.2-1.8 2.4-1.8 1.2.1 2.4.1 1.2-.1 2.4-.1h2.4c1.2 0 1.2 1.2 2.4 1.2s1.2.3 2.4.3 1.2-.5 2.4-.5 1.2-.4 2.4-.4 1.2-.2 2.4-.2 1.2.2 2.4.2 1.2-.1 2.4-.1 1.2 1 2.4 1 1.2.3 2.4.3 1.2-.6 2.4-.6 1.2.6 2.4.6 1.2-.9 2.4-.9 1.2-.3 2.4-.3 1.2-.4 2.4-.4 1.2.1 2.4.1 1.2 1.5 2.4 1.5 1.2-1.6 2.4-1.6 1.2 1.2 2.4 1.2h2.4c1.2 0 1.2-.4 2.4-.4s1.2.5 2.4.5 1.2-.7 2.4-.7 1.2.2 2.4.2 1.2.2 2.4.2 1.2-.1 2.4-.1 1.2-1.1 2.4-1.1 1.2 1.3 2.4 1.3 1.2-.2 2.4-.2 1.2.6 2.4.6 1.2-1.5 2.4-1.5 1.2 1.5 2.4 1.5 1.2-.3 2.4-.3 1.2-.5 2.4-.5 1.2-.1 2.4-.1 1.2.7 2.4.7 1.2-1.3 2.4-1.3 1.2 1.5 2.4 1.5 1.2-.7 2.4-.7 1.2-.6 2.4-.6 1.2.7 2.4.7 1.2-.2 2.4-.2h2.4c1.2 0 1.2-.1 2.4-.1s1.2.7 2.4.7 1.2-.5 2.4-.5 1.2-.5 2.4-.5 1.2.3 2.4.3h2.4c1.2 0 1.2-.1 2.4-.1s1.2.1 2.4.1 1.2-.5 2.4-.5 1.2.1 2.4.1 1.2 1.2 2.4 1.2 1.2-.3 2.4-.3 1.2-.1 2.4-.1 1.2-1.1 2.4-1.1 1.2.7 2.4.7 1.2-.2 2.4-.2 1.2.4 2.4.4 1.2-.3 2.4-.3 1.2 1 2.4 1h2.4c1.2 0 1.2-1.2 2.4-1.2s1.2.9 2.4.9 1.2-.7 2.4-.7 1.2-.7 2.4-.7 1.2.8 2.4.8 1.2-.7 2.4-.7 1.2.4 2.4.4 1.2 1.1 2.4 1.1 1.2-1.5 2.4-1.5 1.2.5 2.4.5 1.2-.8 2.4-.8 1.2 1.9 2.4 1.9 1.2-.2 2.4-.2 1.2-1 2.4-1 1.2.1 2.4.1 1.2-.7 2.4-.7 1.2.7 2.4.7 1.2.7 2.4.7h2.4c1.2 0 1.2.4 2.4.4s1.2-1.5 2.4-1.5 1.2 1 2.4 1 1.2-1.2 2.4-1.2 1.2.7 2.4.7 1.2-.2 2.4-.2 1.2-.3 2.4-.3 1.2 1.6 2.4 1.6 1.2-.5 2.4-.5 1.2-.9 2.4-.9 1.2.8 2.4.8 1.2-.5 2.4-.5 1.2-.6 2.4-.6h2.4c1.2 0 1.2.7 2.4.7s1.2.3 2.4.3 1.2.1 2.4.1 1.2-1.1 2.4-1.1 1.2 1.8 2.4 1.8 1.2-1.7 2.4-1.7 1.2.9 2.4.9 1.2-.6 2.4-.6 1.2.2 2.4.2 1.2.6 2.4.6 1.2.2 2.4.2 1.2.5 2.4.5 1.2-.1 2.4-.1 1.2-1.4 2.4-1.4 1.2.2 2.4.2 1.2-.2 2.4-.2 1.2.1 2.4.1 1.2 1.4 2.4 1.4 1.2-1.5 2.4-1.5h2.4c1.2 0 1.2-.1 2.4-.1h2.4c1.2 0 1.2.2 2.4.2s1.2.4 2.4.4h2.4c1.2 0 1.2.1 2.4.1s1.2-.5 2.4-.5 1.2-.1 2.4-.1 1.2.7 2.4.7 1.2.4 2.4.4 1.2-1.4 2.4-1.4 1.2 1.6 2.4 1.6 1.2-.8 2.4-.8 1.2.4 2.4.4 1.2-.6 2.4-.6 1.2.3 2.4.3 1.2-.5 2.4-.5 1.2 1.1 2.4 1.1 1.2-1.1 2.4-1.1 1.2.9 2.4.9 1.2-1.2 2.4-1.2 1.2.5 2.4.5 1.2 1.1 2.4 1.1 1.2-1.6 2.4-1.6 1.2.5 2.4.5 1.2.6 2.4.6 1.2-.8 2.4-.8 1.2.2 2.4.2h2.4c1.2 0 1.2 1.2 2.4 1.2h2.4c1.2 0 1.2-.3 2.4-.3s1.2-.1 2.4-.1h2.4c1.2 0 1.2-.9 2.4-.9s1.2.5 2.4.5 1.2.5 2.4.5 1.2-.4 2.4-.4 1.2.7 2.4.7 1.2-.9 2.4-.9 1.2.2 2.4.2 1.2.5 2.4.5 1.2-.8 2.4-.8 1.2.6 2.4.6 1.2-.1 2.4-.1 1.2-.3 2.4-.3 1.2-.6 2.4-.6 1.2.7 2.4.7 1.2-1.1 2.4-1.1 1.2 1 2.4 1 1.2-1.2 2.4-1.2 1.2 1.8 2.4 1.8 1.2-1.4 2.4-1.4 1.2-.3 2.4-.3 1.2.3 2.4.3 1.2.2 2.4.2 1.2-.6 2.4-.6 1.2 1.9 2.4 1.9h2.4c1.2 0 1.2-1 2.4-1s1.2-.3 2.4-.3 1.2.6 2.4.6 1.2-.2 2.4-.2 1.2-.8 2.4-.8 1.2 1.3 2.4 1.3h2.4c1.2 0 1.2-.2 2.4-.2s1.2-1 2.4-1 1.2 1.1 2.4 1.1 1.2.2 2.4.2 1.2-.5 2.4-.5 1.2-.3 2.4-.3 1.2-.5 2.4-.5 1.2.5 2.4.5 1.2-.4 2.4-.4h2.4c1.2 0 1.2 1.5 2.4 1.5s1.2-1.3 2.4-1.3 1.2-.4 2.4-.4 1.2 1.8 2.4 1.8 1.2-1.9 2.4-1.9 1.2.5 2.4.5 1.2-.5 2.4-.5 1.2 1.3 2.4 1.3 1.2-.8 2.4-.8 1.2 1.1 2.4 1.1 1.2-1.5 2.4-1.5 1.2.8 2.4.8 1.2.3 2.4.3 1.2.5 2.4.5 1.2-.1 2.4-.1 1.2-.7 2.4-.7 1.2-.6 2.4-.6 1.2 1.3 2.4 1.3 1.2.1 2.4.1 1.2-1.5 2.4-1.5 1.2 1.6 2.4 1.6 1.2-.4 2.4-.4 1.2-.3 2.4-.3 1.2-.7 2.4-.7 1.2.9 2.4.9 1.2-.3 2.4-.3 1.2 1.1 2.4 1.1 1.2-1.4 2.4-1.4 1.2-.3 2.4-.3 1.2 1.6 2.4 1.6 1.2-.3 2.4-.3 1.2-.9 2.4-.9 1.2.1 2.4.1 1.2-.1 2.4-.1 1.2.8 2.4.8 1.2-.1 2.4-.1 1.2.2 2.4.2 1.2.2 2.4.2 1.2-.8 2.4-.8 1.2.8 2.4.8 1.2-.6 2.4-.6 1.2-.1 2.4-.1 1.2-.2 2.4-.2 1.2-.6 2.4-.6h2.4c1.2 0 1.2.5 2.4.5s1.2 1.4 2.4 1.4 1.2-1.4 2.4-1.4 1.2.7 2.4.7 1.2-1.1 2.4-1.1 1.2.2 2.4.2 1.2-.1 2.4-.1 1.2 1.5 2.4 1.5 1.2-1.4 2.4-1.4 1.2 1.6 2.4 1.6 1.2-1.1 2.4-1.1 1.2.4 2.4.4 1.2.7 2.4.7 1.2-1.7 2.4-1.7 1.2 1.2 2.4 1.2 1.2-.6 2.4-.6 1.2-.8 2.4-.8 1.2.6 2.4.6 1.2-.5 2.4-.5 1.2.8 2.4.8 1.2.4 2.4.4 1.2-1.1 2.4-1.1 1.9 2 2.7 1.1c.8-.8-.5-1.5-.5-2.7 0-1.2 1-1.2 1-2.4s-.7-1.2-.7-2.4-.1-1.2-.1-2.4-.9-1.2-.9-2.4 1.7-1.2 1.7-2.4-.6-1.2-.6-2.4-.7-1.2-.7-2.4.8-1.2.8-2.4.5-1.2.5-2.4-1.7-1.2-1.7-2.4.6-1.2.6-2.4.5-1.2.5-2.4-.5-1.2-.5-2.4.6-1.2.6-2.4-.1-1.2-.1-2.4-1-1.2-1-2.4 1.1-1.2 1.1-2.4-.5-1.2-.5-2.4-.5-1.2-.5-2.4 1.2-1.2 1.2-2.4-.3-1.2-.3-2.4-.9-1.2-.9-2.4 1-1.2 1-2.4-1.4-1.2-1.4-2.4.9-1.2.9-2.4.6-1.2.6-2.4-1-1.2-1-2.4.2-1.2.2-2.4 1.2-1.2 1.2-2.4-.8-1.2-.8-2.4.5-1.2.5-2.4-.5-1.2-.5-2.4.3-1.2.3-2.4.5-1.2.5-2.4-1.5-1.2-1.5-2.4-.3-1.2-.3-2.4.1-1.2.1-2.4v-2.4c0-1.2.4-1.2.4-2.4s.1-1.2.1-2.4-.6-1.2-.6-2.4 1.3-1.2 1.3-2.4-.8-1.2-.8-2.4.8-1.2.8-2.4-.6-1.2-.6-2.4-.6-1.2-.6-2.4 1.1-1.2 1.1-2.4-.6-1.2-.6-2.4-.6-1.2-.6-2.4.8-1.2.8-2.4-.8-1.2-.8-2.4 1.2-1.1.4-2.1c-.8-.9-.6-1.5-1.8-1.7-1.2-.2-1.4 1.3-2.6 1.1s-1.2 0-2.4-.2-1.1-.5-2.3-.6c-1.2-.2-1.1-.8-2.3-1-1.2-.2-1.3.5-2.5.3s-1.2 0-2.4-.2l-2.4-.4c-1.2-.2-1.2 0-2.4-.2s-1.2-.4-2.3-.5c-1.2-.2-1.1-.6-2.3-.8-1.2-.2-1.3.4-2.5.2s-1-1.5-2.2-1.7c-1.2-.2-1.1-.7-2.3-.9-1.2-.2-1.4 1-2.6.8-1.2-.2-1.2 0-2.4-.2s-1-1.2-2.2-1.4c-1.2-.2-1.3.4-2.5.2s-1.1-.7-2.3-.9c-1.2-.2-1.1-.9-2.3-1.1-1.2-.2-1.2-.1-2.4-.3-1.2-.2-1.4.9-2.5.7-1.2-.2-1.1-.9-2.2-1.1-1.2-.2-1.3.6-2.5.4-1.2-.2-1-1.3-2.2-1.5-1.2-.2-1.3.3-2.4.1-1.2-.2-1.1-.8-2.3-1-1.2-.2-1.3.5-2.5.3l-2.4-.4c-1.2-.2-1.2-.1-2.4-.3-1.2-.2-1.2-.3-2.3-.5-1.2-.2-1.2 0-2.4-.2s-1.3.6-2.5.4c-1.2-.2-1-1.2-2.2-1.4-1.2-.2-1.2.1-2.4-.1s-1.1-.9-2.3-1.1c-1.2-.2-1.5 1.4-2.6 1.2-1.2-.2-.9-1.7-2.1-1.9-1.2-.2-1.2-.3-2.3-.5-1.2-.2-1.3.7-2.5.6-1.2-.2-1.2-.1-2.4-.3-1.2-.2-1.3.2-2.4 0-1.2-.2-1.1-.5-2.3-.7-1.2-.2-1-1.3-2.2-1.5-1.2-.2-1.2 0-2.4-.2s-1.4 1.1-2.6.9c-1.2-.2-1-1.2-2.2-1.4-1.2-.2-1.3.7-2.5.5-1.2-.2-1-1.1-2.2-1.3-1.2-.2-1.1-.7-2.3-.9s-1.2.1-2.4-.1-1.1-.6-2.3-.8c-1.2-.2-1.3.3-2.5.1-1.2-.2-1.1-.6-2.3-.8-1.2-.2-1.3.3-2.4.1-1.2-.2-1.2-.3-2.4-.5s-1.3.3-2.5.1c-1.2-.2-1.3.4-2.5.2s-.9-1.8-2.1-2c-1.2-.2-1.5 1.5-2.7 1.3-1.2-.2-1.2-.1-2.4-.3-1.2-.2-1.1-.9-2.3-1.1-1.2-.2-1-1.1-2.2-1.3-1.2-.2-1.3.7-2.5.5-1.2-.2-1.1-.4-2.3-.6-1.2-.2-1.1-.6-2.3-.8-1.2-.2-1.4.9-2.5.7s-.9-1.7-2.1-1.9c-1.2-.2-1.4 1.2-2.6 1-1.2-.2-.9-1.6-2.1-1.8-1.2-.2-1.4 1.2-2.6 1-1.2-.2-1.2.1-2.4-.1s-1-1.5-2.2-1.7c-1.2-.2-1.1-.6-2.3-.8-1.2-.2-1.3.4-2.5.2s-1.2-.3-2.3-.5c-1.2-.2-1.2.1-2.4-.1s-1.3.5-2.5.3-1.2-.3-2.4-.5-1.1-.8-2.3-1l-2.4-.4c-1.2-.2-1.2 0-2.4-.2s-1.1-.7-2.3-.9c-1.2-.2-1.1-.7-2.3-.9-1.2-.2-1.3.2-2.4 0-1.2-.2-1.4 1.2-2.6 1-1.2-.2-1.1-.6-2.3-.8-1.2-.2-1-1.5-2.2-1.7-1.2-.2-1.3.3-2.5.1-1.2-.2-1.4 1-2.6.8-1.2-.2-.9-1.8-2.1-2-1.2-.2-1.3.4-2.5.2s-1.2-.1-2.4-.3c-1.2-.2-1.2-.3-2.4-.5s-1.1-.6-2.3-.8c-1.2-.2-1.4.9-2.5.7-1.2-.2-1.2-.3-2.3-.5-1.2-.2-1.3.3-2.4.1l-2.4-.4c-1.2-.2-.9-1.7-2.1-1.9l-2.4-.4c-1.2-.2-1.1-.5-2.3-.7l-2.4-.4c-1.2-.2-1.3.4-2.5.2s-1.2-.4-2.3-.6c-1.2-.2-1.4.9-2.5.7-1.2-.2-1-1.4-2.2-1.6-1.2-.2-1.3.8-2.5.6-1.2-.2-1-1.4-2.2-1.6l-2.4-.4c-1.2-.2-1.4 1.1-2.6.9-1.2-.2-1.1-.9-2.3-1.1-1.2-.2-1.3.7-2.5.5-1.2-.2-1.1-1-2.2-1.2-1.2-.2-1.2.1-2.4-.1s-1.3.4-2.5.2-1.2-.1-2.4-.3c-1.2-.2-1-1.5-2.2-1.7-1.2-.2-1.2-.4-2.3-.5-1.2-.2-1.2-.3-2.3-.5-1.2-.2-1.4 1.4-2.6 1.2-1.2-.2-1.1-.5-2.3-.7-1.2-.2-1.1-.6-2.3-.8s-1-1.2-2.2-1.4c-1.2-.2-1.3.2-2.4 0-1.2-.2-1.1-.6-2.3-.8-1.2-.2-1.3.4-2.5.2s-1.3.6-2.5.5c-1.2-.2-1.1-1-2.2-1.1-1.2-.2-1.1-.7-2.3-.9-1.2-.2-1.2-.1-2.4-.3-1.2-.2-1.4 1-2.6.9-1.2-.2-1-1.5-2.2-1.7-1.2-.2-1.4 1-2.6.8-1.2-.2-1.3.3-2.5.1-1.2-.2-1-1.1-2.2-1.2-1.2-.2-1-1.2-2.2-1.4-1.2-.2-1.4 1.2-2.6 1-1.2-.2-1.2 0-2.4-.2s-.9-1.9-2.1-2.1c-1.2-.2-1.4.9-2.6.7-1.2-.2-1.2 0-2.4-.2l-2.4-.4c-1.2-.2-1-1.1-2.2-1.3-1.2-.2-1.3.5-2.5.3s-1.1-.4-2.3-.6l-2.4-.4c-1.2-.2-1.1-1-2.2-1.2-1.2-.2-1.4 1.2-2.6 1-1.2-.2-1.2-.1-2.4-.3-1.2-.2-1.2-.3-2.4-.5s-1.1-1-2.2-1.2c-1.2-.2-1.2 0-2.4-.2s-1.1-.5-2.3-.6c-1.2-.2-1.2 0-2.4-.2s-1.1-.8-2.3-1c-1.2-.2-1.1-.5-2.3-.7-1.2-.2-1.3.7-2.5.5-1.2-.2-1.3.4-2.5.3-1.2-.2-1-1.1-2.2-1.3-1.2-.2-1.2-.4-2.3-.6-1.2-.2-1.4.9-2.5.7-1.2-.2-1-1.6-2.1-1.8-1.2-.2-1.4 1.2-2.6 1-1.2-.2-1.2 0-2.4-.2s-1.1-.8-2.3-1c-1.2-.2-1.1-.5-2.3-.7-1.2-.2-1.2-.3-2.4-.5s-1.1-.6-2.3-.8c-1.2-.2-1.2-.3-2.4-.5s-1.3.6-2.5.4c-1.2-.2-1.3.5-2.5.3s-1-1.4-2.2-1.6c-1.2-.2-1.5 1.1-2.6.9-.9-1.2-.8-2-2-2.1z" fill="#0096ff"/></g><g clip-path="url(#b)"><path d="M793.3 333.3c-13.6.9-22.6 2.4-24.2 4.3-1.6 2 .5 4.2-5.4 6.1-5.6 1.8-17.9 3-30.8 4-10.5.9-22.4 2-20 3.9 1.5 1.2 8.4 2.4 16.2 3.4 28.5 3.5 68.5 4.7 99.5 8.5 18.9 2.3 32.8 5.4 52.7 7.9 21.6 2.8 48.6 4.6 73 5.2 24.6.6 46.1.2 63.6-.9 6.3-.4 12.3-.9 14.2-1.8 3-1.4-4.3-3.5-7.8-5.3-5.2-2.6-2.2-4.8-5.9-7.2-9.2-6.1-56.2-12.2-80.8-17.8-8.2-1.8-14.1-3.7-24.6-5.4-15.2-2.4-39-4.3-61.1-5.1-22-.8-42.7-.7-58.6.2" fill="#0071bf"/></g><g clip-path="url(#b)"><path d="M514.2 307.7c-2.3-1.7-4.7-3.4-7.1-5-1.5-1-3.4-2.1-6.6-2.6-3.7-.6-6.6 0-9.8.1-6.6.4-15.1-1.2-21.8-2.7-6.5-1.5-12.7-3.2-19.7-3.9-6.3-.6-12.3-.3-18.6-.6-5.9-.3-11.6-1-17.4-1.3-12.3-.6-23.6 1.2-33.5 3.3-10.3 2.2-20.7 5-33.8 6.1-7.6.7-16 .8-22.6 2.4-1.1.3-2.1.6-2.9.9-2.8 1.4-1.5 3.2 2 4.2 7.4 2 19 .5 27.9.7 10.7.2 20.7 2.4 31.7 2.7 15.1.3 28-3.2 42.9-2.4 6.3.3 12.6 1.4 19 1.9 11.4.8 21.1-.5 30.9-1.3 9.7-.7 21.7-.8 33.1 1.8 2.4.6 4.8 1.2 7.4 1.6 2.6.4 5.5.4 6-.2.3-.3-.1-.7-.5-1.1-1.5-1.5-4.1-3.4-6.6-4.6z" fill="#0071bf"/></g><g clip-path="url(#b)"><path d="M386.9 279.5c-.1-.7-.3-1.4-.5-2.1-.1-.4-.5-.9-2.5-1.1-2.2-.3-5 0-7.5.1-5.3.2-10.3-.5-14-1.2-3.7-.7-7-1.4-11.8-1.8-4.4-.3-9.3-.1-13.9-.3-4.4-.1-8.3-.5-12.6-.6-9.2-.3-19.2.5-28.1 1.5-9.1 1-18.4 2.2-28.8 2.7-6 .3-12.3.3-17.8 1-.9.1-1.7.2-2.4.4-2.5.6-2.2 1.3 0 1.7 4.7.8 13.6.2 19.9.3 7.7.1 13.8 1 21.6 1 10.7.1 22-1.3 32.2-.9 4.3.1 8.1.6 12.4.7 7.6.3 15.5-.2 23.1-.5 7.6-.3 16.4-.3 22.2.7 1.2.2 2.3.5 3.8.6 1.5.2 3.5.2 4.5-.1.5-.1.6-.3.7-.4.3-.4.1-1.1-.5-1.7z" fill="#0071bf"/></g><path clip-path="url(#b)" fill="#0096ff" d="M-1.4 226.4h498.2L401 210.6H-1.4zM999.5 249.1v-8.3H881zM999.9 204.6H373.2l281.1 22.8h345.6v-22.8z"/><path d="M409.4 198.4l-2.7 10.6-5.4 11.7 2.7.4 5.8-9c.7-1.1 1.4-2.3 1.9-3.6l4-9.4-6.3-.7z" clip-path="url(#b)" fill="#38adff"/><g clip-path="url(#b)"><path d="M404.4 221.1c.3.6.9 1 1.6 1.2 1.4.5 2.4.3 2.6.8.1.2 0 .4-.2.6l-.6.3c-1.3.3-2.6-.1-4-.2-.9 0-2.5.1-3-.2-.1-.1-.1-.1-.1-.3 0-.6.2-1.1.4-1.6.2-.4.3-.6.9-.8.7-.2 1.5-.1 2.2.2" fill="#fff"/></g><g clip-path="url(#b)"><path d="M416.8 195.3c.5-3.1.1-6.3.6-9.4.2-1.5.7-3.1.5-4.6-.2-1-.8-2.1-1.7-2.6-.4-.3-1-.3-1.5-.4-1.3-.2-3.4 0-4.5.8-.6.4-2.2 2-2.5 2.7-.6 1.3 1.2 1.3 1.5 2.6 1.3 6-.7 9.3-.7 13l7.7 2.8c-.1-1.7.3-2.9.6-4.9z" fill="#fff"/><path d="M409.6 202.2c2.8 7.1 5.9 14.1 9.1 21l2.7-1.9c-2-5.3-3.2-10.3-4.6-15.6-.6-2.5-.8-4.2-.8-5.5l-7.7-2.8c0 .4 0 .8.1 1.2.2 1.2.7 2.5 1.2 3.6z" fill="#6ac2ff"/></g><path clip-path="url(#b)" fill="#0071bf" d="M380.9 223.5h82v1.4h-78.6z"/><g clip-path="url(#b)"><path d="M418.8 223.2c.1.4.3.7.4 1.1 0 0 0 .1.1.1.1.1.2.1.3.1.5-.1 1-.4 1.6-.6.4-.1.8-.2 1.1-.3.5-.1.9-.2 1.4-.4.7-.2 1.5-.5 2-1.1.1-.2.3-.4.1-.6-.1-.1-.3-.1-.4-.1-.7 0-1.4.2-2.1.3-.7.1-1.5 0-2.1-.4l-2.4 1.9z" fill="#fff"/></g><g clip-path="url(#b)"><path d="M405.1 198.6c-.1.6-.4 1.2-.6 1.7-.1.5-.2 1.6-.1 1.9.1.3.9.9 1.8 1.1.1 0 .1 0 .2-.1.2-.3.6-1.8.6-2.2.1-.7-.3-1.5-.5-2.2-.1-.3-.1-.4-.4-.6-.3.1-.7.1-1 .4" fill="#9bd6ff"/></g><g clip-path="url(#b)"><path d="M426.6 193.6c.2.4.5.7.8 1.1.1.1.2.3.4.3h.2c.2-.1.4-.2.6-.4.2-.2.4-.5.5-.8v-.2c0-.3-.2-.5-.5-.6-.2-.1-.5-.2-.8-.3-.2-.1-.3-.1-.5-.1s-.5.1-.7.2c-.1.1-.2.2-.2.3-.1.2 0 .4.1.6" fill="#9bd6ff"/></g><g clip-path="url(#b)"><path d="M427.9 193.5c-.2.1-.3.2-.4.3-.1 0-.1.1-.1.2v.2c0 .3.2.6.5.9 0 .1.1.1.2.1.1.1.3 0 .4-.1.2-.1.4-.2.6-.4.3-.2.5-.5.6-.8v-.2c0-.1-.1-.1-.1-.2-.6-.2-1.2-.3-1.7 0" fill="#9bd6ff"/></g><g clip-path="url(#b)"><path d="M414.9 179.8c-.1-.5-.1-1.1-.1-1.6 0-.3.1-.5.3-.7.3-.3.8-.2 1-.5.2-.2.2-.4.2-.6v-1c0-.1 0-.2.1-.2.1-.1.3-.1.4-.2.1-.1.1-.3.1-.5-.1-.2-.2-.3-.3-.4-.4-.6-.3-1.3-.6-2-.2-.7-.9-1.3-1.6-1.6s-1.5-.3-2.3-.2c-.3.1-.6.1-.9.3-.3.2-.6.5-.8.9-.3.7-.4 1.4-.3 2.2.2.9.8 1.6 1 2.5.3 1 0 2-.3 3" fill="#9bd6ff"/></g><g clip-path="url(#b)"><path d="M412.2 173.6c.3.4.5.9.6 1.5.1.5.1 1.1.2 1.6 0 .1 0 .2.1.3 0 .1.1.1.2.1.8.6 1.9.9 2.9.9.1 0 .3 0 .4-.1.1-.1.1-.2.1-.2.1-.7.1-1.4 0-2 0-.1 0-.1-.1-.2h-.1c-.3 0-.5.1-.7.3-.1.1-.1.2-.2.3-.1.1-.2.1-.3.1h-1c-.1 0-.1-.1-.2-.2-.4-.6-.6-1.3-.7-2 0-.2 0-.4-.1-.5-.1-.2-.2-.3-.4-.3-.3 0-.4.3-.6.5" fill="#38adff"/></g><g clip-path="url(#b)"><path d="M413 173.5c.2-.2.4-.5.6-.7.1-.1.1-.2.1-.3 0-.1-.1-.2-.1-.3 0-.1-.1-.2-.1-.3v-.1h.1c.7-.4 1.6-.3 2.2-.8.3-.2.4-.5.4-.9v-.1c-.1-.1-.2 0-.3 0-.5.2-1 0-1.5-.1-1.1-.3-2.3-.3-3.3.2-.3.2-.6.4-.8.7-.2.3-.2.7 0 1l.3.3c.4.3.8.4 1.2.6.4.2.8.5 1.2.8l-.1.1" fill="#38adff"/></g><g clip-path="url(#b)"><path d="M410.2 171.3c-.5.2-.8.7-.9 1.1-.1.5 0 1 .1 1.5.1.2.1.5.3.7.1.2.3.4.4.7.3.4.7.9 1.1 1.3.2-.3.3-.6.3-1s-.1-.7-.3-1l-.3-.6c-.1-.2 0-.5.2-.6h.3c.4 0 .7.3 1 .5l.1.1c.1 0 .2-.1.2-.3.1-.6-.3-1.2-.8-1.6-.5-.4-1.1-.6-1.7-.8" fill="#38adff"/></g><g clip-path="url(#b)"><path d="M411.1 184.3c.4-1.5-.2-3-1.3-3.3-1.1-.3-2.4.7-2.8 2.2l-1 4.2 3 1 2.1-4.1z" fill="#fff"/><path d="M405.3 191.6l-.3 7.1.8.8.7-.4.9-7.4 1.6-3.3-3-1-.5 1.9c0 .8-.1 1.6-.2 2.3z" fill="#9bd6ff"/></g><g clip-path="url(#b)"><path d="M419.1 182.5c-1.8-3.2-2.7-3.2-2.7-3.2l.2 5.8 1.6 1.9 2.2-2.2-1.3-2.3z" fill="#fff"/><path d="M423 191.6l3.7 2.1.8-1.3-5.6-4.9-1.6-2.8-2.2 2.2 1.6 1.9c1 1.2 2.1 2.1 3.3 2.8z" fill="#9bd6ff"/></g><g clip-path="url(#b)"><path d="M426.8 195.1c3.8-4 12.3 2.5 16.1 4.2 7.3 3.4 14.7 6.5 22.4 9 .2.1.3-.3.1-.4-9.9-3.2-19.4-7.5-28.8-12-3.5-1.7-6.8-4.5-10-1.1-.2.2.1.5.2.3z" fill="#38adff"/></g><path d="M542.5 254.7c3.1.9 12 1.6 19.7 1.6s11-.7 7.3-1.6c-3.5-.8-12.1-1.5-19.4-1.5-7.1-.1-10.6.6-7.6 1.5zM293.7 254.7c-1.2.9 4 1.6 11.8 1.6 7.7 0 14.6-.7 15.3-1.6.7-.8-4.6-1.5-11.9-1.5s-14.1.6-15.2 1.5zM166.6 254.7c-3.4.9 0 1.6 7.7 1.6s16.4-.7 19.4-1.6c2.9-.8-.8-1.5-8-1.5-7.3-.1-15.7.6-19.1 1.5z" clip-path="url(#b)" fill="#0071bf"/><circle cx="189.5" cy="244.4" r="10.9" clip-path="url(#b)" fill="#6ac2ff"/><path d="M530.8 309.2c13.1 8.2-26.1 15.8-89.6 15.8s-112.7-7.6-110.2-15.8c2.1-7.1 43.2-12.2 92-12.2s96.5 5.1 107.8 12.2zM958.4 349.8c66.5 16.2 56.6 32.3-36.9 32.3S716.9 366 681.3 349.8c-29.1-13.3 3.5-22.4 68.2-22.4s154.5 9.1 208.9 22.4z" clip-path="url(#b)" fill="none"/><g clip-path="url(#b)"><path d="M512.7 306.2c-8.4-1.9-15.7-2.4-22.6-1.9-7.1.5-13.2 1.6-21 1.8-11.4.3-24.9-1.6-34-4.7-3.8-1.3-7.2-2.8-11.9-3.3-5.2-.6-10 .2-14.1 1-53.6 10.4-52.3 10.1-55.1 11-5.5 1.8-7.2 5.1-3.7 7.6 3.7 2.6 12.5 4 20 3 3.5-.5 6.6-1.3 10.2-1.3 3.2 0 6.3.7 9.2 1.4 7.3 1.7 15 3.6 21.2 6.3 10.3 4.6 15.4 11.3 24.7 17.7 5.1 3.5 14.8 7.5 21.3 5.9 6.8-1.7 1.7-7.2-3.7-10.7-7.8-5.1-16-9.6-24.6-13.5-3.1-1.4-6.3-2.8-8-4.4-1.6-1.6-1.3-3.4 1.9-4.1 3.3-.7 8 0 12.2.5 29.2 3.3 46.5-6.1 74.1-4.7 5.9.3 13.3 1 15.6-.4 3-1.9-5-5.1-11.7-7.2" fill="none"/></g><path clip-path="url(#b)" fill="#0071bf" d="M373.5 356.9h441.9l-18.1-6.1H373.1z"/><path clip-path="url(#b)" fill="none" stroke="#0071bf" stroke-width="1.6634" stroke-miterlimit="10" d="M513.6 353.5l-158.5-74.7M413.7 353.5l-94.8-74.7"/><path clip-path="url(#b)" fill="none" stroke="#0071bf" stroke-width="1.9961" stroke-miterlimit="10" d="M608.3 353.5L767 435.3M726 353.5l137.9 81.8"/><g clip-path="url(#b)"><path d="M527.3 314.1c-7-4-13.5-7.7-19.6-11.2-2.1-1.2-5.2-2.6-7.9-2.8-.9 0-1.6.1-2.3.2-8.3 1.9-13.7 5.4-23.7 7.1-6.4 1-10.1.5-18.1-1.3-8-1.8-15.7-3.5-23.2-5.2-3.8-.8-7.6-1.7-11.3-2-4.6-.4-8.9.1-13 .6-17.2 2.1-35.3 4.7-51.2 10.3-6.2 2.2-12.5 5-14.9 9-2.6 4.3 1.3 10 9.8 10.6 6.8.5 12.8-2.2 18.9-3.6 11.6-2.6 25.4-.6 37.7-1.8 11.7-1.1 21.2-4.8 33.7-3.5 6.3.7 13 2.6 19.5 3.3 14.5 1.7 23.2-2.3 30.1-6 3.6-1.9 7.1-3.8 10.5-5.6 2.1-1.1 4.8-2.2 9.7-1.4 5 .8 8 2.1 11.9 1.8" fill="none"/></g><path d="M189.5 233.5h-.9c1.5.4 6.4 3.9 6.4 14 0 8.2-5.1 7.7-5.1 7.7 5.8-.2 10.5-5 10.5-10.9s-4.9-10.8-10.9-10.8z" clip-path="url(#b)" fill="#bfe6ff"/><path d="M174.1 232.2c-.1 0-.1 0 0 0-.1 0-.1 0 0 0z" clip-path="url(#b)" fill="#bac1cf"/><path clip-path="url(#b)" fill="#0071bf" d="M58.7 206.6l-14.5.1V230l14.5-1.7zM156.7 219.5l-8.8 1.4v9.4l8.8-2.1z"/><g clip-path="url(#b)"><path fill="#0071bf" d="M147.9 230.3l24.8-17.2-5.4-5.6h-26.6z"/><circle cx="181.6" cy="220.8" r="9.9" fill="none"/><circle cx="95.9" cy="220.8" r="9.9" fill="none"/><circle cx="95.9" cy="220.8" r="8.1" fill="#424d63"/><path d="M167.5 208.3h4c.3 0 .4.3.3.5l-.6.9c-.3.4-.9.6-1.3.3l-2.4-1.3c-.3-.1-.2-.4 0-.4z" fill="#424d63"/></g><g clip-path="url(#b)"><circle cx="167.9" cy="223.3" r="10.6" fill="#0071bf"/><path fill="#0071bf" d="M58.7 209.6h25.5v20.7H58.7z"/><path d="M190.1 214.1s.3-2.3-14.2-6.8c-12-3.7-25.6-4.9-25.6-4.9-12.9-9.3-28-15.1-43.7-17-23.2-2.8-46.8.9-68.1 10.6-3.4 1.6-7.1 2.5-10.9 2.7 0 0 2.3 1.6 1.6 4.2-.8 2.6-3.7 12.6-3.7 12.6s.2 2.2 1 6.3c1.1 5.5 6.9 7.4 17.6 8.1l.6-6.4c.7-7.5 6.4-13.6 13.9-13.6s13.6 6.1 13.6 13.6c0 2.2-.1 4.5-.3 6.7h75.9l.6-6.7c.7-7.5 6.4-13.6 13.9-13.6s13.6 6.1 13.6 13.6c0 2.2-.1 4.5-.3 6.7 6.8 0 13-2.1 13.2-3 .5-.9 1.3-13.1 1.3-13.1z" fill="#bac1cf"/><path d="M190.1 214.1s.3-2.3-14.2-6.8c-12-3.7-25.6-4.9-25.6-4.9-12.9-9.3-28-15.1-43.7-17-23.2-2.8-46.8.9-68.1 10.6-3.4 1.6-7.1 2.5-10.9 2.7 0 0 2.3 1.6 1.6 4.2-.8 2.6-3.7 12.6-3.7 12.6s.2 2.2 1 6.3c1.1 5.5 6.9 7.4 17.6 8.1l.6-6.4c.7-7.5 6.4-13.6 13.9-13.6s13.6 6.1 13.6 13.6c0 2.2-.1 4.5-.3 6.7h75.9l.6-6.7c.7-7.5 6.4-13.6 13.9-13.6s13.6 6.1 13.6 13.6c0 2.2-.1 4.5-.3 6.7 6.8 0 13-2.1 13.2-3 .5-.9 1.3-13.1 1.3-13.1z" fill="#6ac2ff"/><path d="M27.4 212.4c1.6 0 3.1-.5 4.4-1.4l5.7-3.9c.9-.6.5-2-.6-2h-8.3c-.6 2.1-1.5 5-2.1 7.2h.9zM169.3 205.5c-.1.9 1 1.5 1.5 1.7 4.2 2.4 5.9 4.8 11.3 5.6 2.6.4 5.5.1 5.5-1-2-1.1-5.5-2.6-11.7-4.6-2.2-.6-4.4-1.2-6.6-1.7z" fill="#fff"/><path fill="#0071bf" d="M170.9 231.7l-4.3 1.5v1.7l4.3-1.5z"/><circle cx="162.5" cy="223.6" r="12" fill="#38adff"/><path d="M65.9 193.7c3.6-.9 7.5-1.4 10.9 0 1.9.8 3.5 2.1 5.4 2.9 8.5 3.7 18.3-3.6 27.4-1.8 2.8.6 5.3 1.9 8 2.8 5.5 1.9 11.4 1.7 17.2 1.3-9.5-5.8-20-9.6-31-10.9-17.2-2.1-34.6.1-50.7 6.4.6.7 1.2 1.2 2 1.7 3.7-.2 7.2-1.5 10.8-2.4z" fill="#38adff"/><path d="M139.7 202.3c-1.6-1.2-3.3-2.3-5-3.3-5.8.4-11.7.6-17.2-1.3-2.7-.9-5.2-2.3-8-2.8-9.1-1.8-18.9 5.5-27.4 1.8-1.9-.8-3.5-2.1-5.4-2.9-3.4-1.4-7.3-.9-10.9 0-3.6.9-7.1 2.2-10.8 2.4 4.8 3 14.4 3.1 37.4 4.4 26.4 1.4 42.5 1.6 47.3 1.7z" fill="#38adff"/><path d="M130.5 202.1c4.4.1 7.5.2 9.2.2-3.5-2.5-7.2-4.8-11-6.7.6 2.2 1.2 4.3 1.8 6.5z" fill="#38adff"/><g fill="#9bd6ff"><path d="M66.3 198.9c1 .1 2 .2 3.1.3l-2.1-9.2-2.4.6 1.4 8.3zM95.8 200.7c2 .1 3.9.2 5.7.3l-5.3-13.6c-1.1-.1-2.2-.1-3.4-.1l3 13.4z"/></g><path d="M145.4 208.4h4.8c.3 0 .5.4.3.6l-.8 1.1c-.4.5-1.1.7-1.6.4l-2.9-1.5c-.2-.1-.1-.6.2-.6zM180.2 219.5l.3 1.7h5c.9 0 1.1-1 1.1-1s-2.7-.7-6.4-.7z" fill="#fff"/><circle cx="162.5" cy="223.6" r="9.8" fill="#cdebff"/><path d="M162.2 214.6c5.4 0 9.8 4.4 9.8 9.8 0 1.2-.2 2.4-.6 3.4.6-1.3.9-2.7.9-4.2 0-5.4-4.4-9.8-9.8-9.8-4.2 0-7.8 2.7-9.2 6.4 1.6-3.3 5-5.6 8.9-5.6z" fill="#9bd6ff"/><circle cx="162.5" cy="223.6" r="2.4" fill="#6ac2ff"/></g><path d="M134.8 202.2s-.4-.6-1.3-2-2.2-2-4.1-1.7c-1.9.4-2 .8-2.3 1.7-.3.9-.8 2.1.4 2.8.8.5 1.7.4 3.3.4s3.3-.1 4-1.2z" clip-path="url(#b)" fill="#9bd6ff"/><path d="M127.5 203c.8.5 1.7.4 3.3.4s3.3-.2 4-1.3c0 0-.1-.1-.2-.3h-7.8c0 .5.2.9.7 1.2z" clip-path="url(#b)" fill="#6ac2ff"/><path clip-path="url(#b)" fill="#bac1cf" d="M121.3 188.4h-8.6"/><g clip-path="url(#b)"><path d="M112.7 188.7c.5 0 .5-.7 0-.7s-.5.7 0 .7z" fill="#bac1cf"/></g><path d="M121.1 188.4h-5.4c4.3 1.2 12.9 4.1 23.4 10.3 7 4.1 11.2 3.8 11.2 3.8-8.9-6.4-18.7-11.2-29.2-14.1z" clip-path="url(#b)" fill="#fff"/><g clip-path="url(#b)"><path d="M94.5 187.4c3 11.6 6.2 23.1 9.7 34.5.7 2.3 1.3 3 3.8 3 13.4 0 27.2.4 32.1.4.8 0 1.6.2 2.3 0 1.2-.4 1.9-1.6 2-2.8.2-1.6 0-1.8-4-19" fill="none"/></g><path d="M110 207h-6c-.3 0-.7-.2-.8-.5-.2-.6.2-1.2.8-1.2h6.1c.3 0 .7.2.8.5.1.6-.3 1.2-.9 1.2z" clip-path="url(#b)" fill="#38adff"/><g clip-path="url(#b)"><path d="M143.5 208.6h-8.8c-23.9 0-71.8-.4-71.8-.4" fill="none"/></g><g clip-path="url(#b)" fill="none" stroke="#fff" stroke-width=".2813" stroke-linecap="round" stroke-miterlimit="10"><path d="M101.4 196l6-5.9M108.8 191.5l1.2-1.1M103.8 199.5l8.6-8.6M105.9 200.3l3-3M109.7 196.5l.8-.8"/></g><g clip-path="url(#b)" fill="none" stroke="#fff" stroke-width=".2813" stroke-linecap="round" stroke-miterlimit="10"><path d="M77.9 194.3l5.5-5.5M82.3 192.8l1.9-1.9M85.1 192.9l3.8-3.7M82.5 195.5l1.7-1.7"/></g><circle cx="58.7" cy="223.6" r="12" clip-path="url(#b)" fill="#38adff"/><circle cx="58.7" cy="223.6" r="9.8" clip-path="url(#b)" fill="#cdebff"/><path d="M58.4 214.6c5.4 0 9.8 4.4 9.8 9.8 0 1.2-.2 2.4-.6 3.4.6-1.3.9-2.7.9-4.2 0-5.4-4.4-9.8-9.8-9.8-4.2 0-7.8 2.7-9.2 6.4 1.6-3.3 5-5.6 8.9-5.6z" clip-path="url(#b)" fill="#9bd6ff"/><circle cx="58.7" cy="223.6" r="2.4" clip-path="url(#b)" fill="#6ac2ff"/><g clip-path="url(#b)"><path d="M215.6 377.9c6.9-15.5 5.9-34.4-2.8-49.1-6.1-10.4-29-15.1-40.2-14-2 .2-4 .5-5.9-.1-3.3-1-5.2-4.5-7.3-7.3-6.9-9.3-20.2-13.3-31.1-9.3.3-10.3-4.1-20.6-11.6-27.6s-18.1-10.6-28.3-9.6c-6.4.6-13.8 2.7-18.8-1.4-2.5-2.1-3.8-5.3-4.8-8.4-4.2-12.2-7.4-25-14.6-35.7-7.2-10.7-19.9-18.9-32.6-16.4.6-7.3-4.6-14.3-11.4-17.1-6.8-2.8-14.6-1.8-21.3 1.2v194.6h230.7z" fill="#054d90"/></g><g><path d="M468 215.6c.2 1.1.4 2.2.9 3.2.2.4.5.8.7 1.1.4.6.8 1.1 1.2 1.7.3.4.6.8.9 1.1.4.3.8.4 1.2.7.1 0 .2.1.2.2.1.2-.1.3-.3.4-.5.3-1.1.5-1.6.1-.2-.2-.4-.5-.6-.7-.3-.4-.8-.6-1.3-.9-.8-.5-1.3-1.4-1.7-2.2-.7-1.4-1.5-2.7-2.2-4.1" fill="#38adff"/></g><g><path d="M450.5 214.4c-.3 2.1-.7 4.2-1 6.3 0 .2-.1.3 0 .5 0 .2.1.4.2.5.4.7 1 1.3 1.5 2 .3.3.5.6.9.7.2.1.4 0 .7 0 .4 0 .8-.1 1.2-.1.1 0 .2 0 .3-.1.1-.1.1-.2.1-.3 0-.6-.6-1-1.2-.9-.2 0-.3.1-.5 0-.1 0-.2-.1-.3-.2-.3-.4-.6-.7-.9-1.1-.2-.2-.4-.5-.4-.7 0-.2 0-.4.1-.6.1-.3.2-.7.2-1 0-.1.1-.2.1-.3l.3-.3c1.3-.8 2.2-2.1 2.7-3.5.3-.7.4-1.5.2-2.3s-.6-1.5-1.2-1.8-1.6-.3-2.1.2c-.4.4-.6.9-.7 1.5-.1.5-.2 1-.2 1.5" fill="#38adff"/></g><g><path d="M446.9 213.2c1 .5 2.1.4 3.2.6 3.3.6 5.7 3.3 8.9 4.4 3 1 6.6.3 8.9-1.8 1.2-1.1 2.1-2.5 3.4-3.4.4-.3.9-.6 1.5-.5.5.1.9.4 1.3.6.5.2 1.1.1 1.2-.4-.4-.1-.8-.3-1.1-.6-.1-.1-.2-.2-.1-.3 0-.3.5-.2.8 0 .5.3 1.1.4 1.7.3.2 0 .5-.1.7-.3.3-.4 0-1-.3-1.3-.3-.3-.8-.6-1-1.1-.1-.3-.1-.7-.1-1.1-.1-1-1-1.7-1.9-2.1-1.1-.5-2.4-.2-3.6.1-2.9.7-5.8 1.1-8.7 1.2-.9 0-1.7 0-2.6-.2-.7-.1-1.4-.4-2-.6-3.3-.9-6.9-.7-9.9 1-1 .5-2.2 1.4-2.2 2.6 0 1.2.8 2.4 1.9 2.9z" fill="#6ac2ff"/></g><g><path d="M463.2 214.2c-.4.6-.7 1.3-1.1 2-.2.4-.4.9-.5 1.4-.1.5-.1.9-.2 1.4 0 .7-.1 1.4-.2 2.1 0 .3-.1.5-.1.8 0 .2.1.4.1.6.3.9.6 1.9.9 2.8 0 .1.1.2.1.3.1.1.2.1.3.1.6.1 1.3 0 1.9-.1.1 0 .2 0 .2-.1v-.2c-.1-.5-.7-.9-1.2-.8-.2-.3-.3-.7-.4-1.1-.1-.3-.2-.6-.2-1 0-.2.1-.5.1-.7.2-.7.4-1.3.7-1.9.1-.3.2-.6.4-.9.3-.4.9-.7 1.3-1 1-.5 1.9-1.1 2.5-2s.7-2.2 0-3c-.6-.7-1.7-.8-2.6-.5s-1.6 1-2.1 1.8" fill="#6ac2ff"/></g><g><path d="M445.2 209.4c-.6.9-.6 2-.4 3s.6 2 .8 2.9c0 .1.1.3 0 .4 0 .2-.2.3-.3.5-.3.4-.7.7-1.1 1-.4.3-.8.6-1 1-.3.5-.4 1.1-.4 1.6-.1 1.2-.2 2.3-.3 3.5 0 .5-.1 1 .3 1.4.4.3.9.3 1.4.2.1 0 .2 0 .3-.1.1-.1.1-.1.1-.2.1-.3 0-.7-.2-.9-.2-.2-.4-.3-.5-.5-.1-.1-.1-.3-.1-.4-.1-.8.1-1.7.6-2.4.8-1.1 2.1-1.6 3.3-2.1 1.4-.6 2.8-1.4 3.6-2.7.3-.5.4-1 .5-1.5.2-1 .3-2.1 0-3-.3-1-1-1.9-1.9-2.3-.6-.2-1.4-.2-2-.2-.9.1-1.9.2-2.7.8" fill="#6ac2ff"/></g><g><path d="M448.2 207c-1.1.7-2.5.9-3.8.7-2.2-.2-4.4-1-6.2-2.3-.6-.4-1.2-.9-1.8-1.3-.1.3 0 .6.1.9.5 1.1 1.2 2.1 2.1 2.8.8.6 1.6 1 2.5 1.4.7.3 1.4.6 2.1.7 1.2.2 2.5-.1 3.7-.5" fill="#6ac2ff"/></g><g><path d="M466.8 206.9c-.5.1-1.1.2-1.6.2l4.7 7.2.9-.9-4-6.5z" fill="#38adff"/></g><g><circle cx="20.7" cy="236.7" r="5.6" fill="#003d75"/></g><g><circle cx="31.4" cy="286.3" r="5" fill="#003d75"/></g><g><circle cx="86.6" cy="281.9" r="3.8" fill="#003d75"/></g><g><circle cx="152.2" cy="318" r="1.3" fill="#003d75"/></g><g><circle cx="49.1" cy="255.8" r="2" fill="#003d75"/></g><g><path fill="none" stroke="#6ac2ff" stroke-width="1.6634" stroke-miterlimit="10" d="M36.8 96.4h46.4"/></g><g><path fill="none" stroke="#6ac2ff" stroke-width="1.6634" stroke-miterlimit="10" d="M59.5 85.9v10.5"/></g></svg>