<svg xmlns="http://www.w3.org/2000/svg" viewBox="0 0 250 250"><path fill="#001c36" d="M138.3 110.9l-26.8-22.2-5.1 15.4 29.7 18.4z"/><path fill="#003d75" d="M121 94l15.1 28.5 9-7.2L126.3 92zM134.2 149.1c-1.6-3.6-4.3-6.6-6.5-9.8-4.2-6-7-13.1-7.6-20.4-.7-8.6.6-4.1-5.3-23.6-1.1-3.7-1.9-5.7-5-8.4-4.5-3.8-11.7-6.4-17.5-4.8-5.9 1.7-12.1 6.5-16.9 10.1-4.7 3.5-9.7 8.1-10.1 13.9-.4 6.5 4.8 12 7.8 17.8 5.3 10.3 8.5 39.2 25.3 49.4 1.3.8 2.7 1.5 4.2 1.7 4.4.8 8.5-2.1 12-4.8l19.6-21.1z"/><path d="M96.2 99.7l2.6 4.8-.7-6.1s3.9-5.8.8-11l-13.3 8.7c.1 0 5.6 6.2 10.6 3.6z" fill="#0096ff"/><path d="M97.7 86.2c3.9 4.3.5 12.1.5 12.1l4 3.4s1.9-5.2-3.7-16.1l-.8.6z" fill="#fff"/><path d="M100.1 141.2c-4.8-12.9 20.5-29.7-1.3-36.2-8.4-2.5-11.6-4.1-11.8-13.7-.1-2.3 0-4.6.1-6.9-4.2 2.2-8.3 5.4-11.7 8-4.7 3.5-9.7 8.1-10.1 13.9-.4 6.5 4.8 12 7.8 17.8 5.3 10.3 8.5 39.2 25.3 49.4 1.3.8 2.7 1.5 4.2 1.7 4.4.8 8.5-2.1 12-4.8l10-10.9c-11.4-11.2-21.6-10.6-24.5-18.3z" fill="#001c36"/><path d="M115.5 141c-1.6-.3 1.9-1.5-35 4.8.2-9-.2-18.2-.7-27.1-.3-5.6-.3-11.8-4.1-16-1.6-1.7-4.3-2.7-6.6-2-1.5.3-2.9 1.9-3.5 3.3-.5 1.4-.6 3-.6 4.5 0 12.2 1.2 25 3.7 37 .7 3.6 1.7 7.5 4.4 10 .6.8 1.5 1.4 2.4 1.7 1.8.6 3.8.3 5.7-.2 10.9-2.4 21.6-5.7 32.2-9.1 1.2-.4 2.5-.8 3.4-1.6 2.3-1.8 1.7-4.8-1.3-5.3z" fill="#003d75"/><path d="M73.1 155.6c.6.8 1.5 1.4 2.4 1.7 1.8.6 3.8.3 5.7-.2 10.9-2.4 21.6-5.7 32.2-9.1 1.2-.4 2.5-.8 3.4-1.6 1.4-1.2 1.7-2.9.8-4.1-6 1.6-9.9 2.6-13.9 3.2-5 .7-10.1.8-14.9 2.3-3.1 1-6 2.6-9.2 3.3-1.7.4-2.3-.3-2.4-2.1-.2-4.9.2-10-2.2-14.2-.6-1.1-1.4-2-1.9-3.1-3.6-7.2 2.7-15.2 2.6-22.7 0-3.3-1.7-6.9-4.6-8.3-.8-.1-1.6 0-2.3.2-1.5.3-2.9 1.9-3.5 3.3-.5 1.4-.6 3-.6 4.5 0 12.2 1.2 25 3.7 37 1.1 3.5 2.1 7.3 4.7 9.9z" fill="#001c36"/><path d="M81.9 75.6c.9 2.2.5 4.3.5 6.5 0 6.3-.8 5.6-1.7 7.7-.6 1.5.3 3.1 1.5 4.2 3.6 3.4 9 4 11.8 2.7 2.9-1.2 5.9-5.8 4.7-9-.5-1.4-.9-1.3-.5-4.3.3-2.1.3-4.2-.6-6.3l-15.7-1.5z" fill="#7fcbff"/><path d="M82.3 94c1.6 1.5 3.6 2.5 5.5 3-.5-1.5-.7-3.4-.8-5.8-.1-2.3 0-4.6.1-6.9 0 0-1-4.2-2.3-8.5l-2.8-.3c.9 2.2.5 4.3.5 6.5 0 6.3-.8 5.6-1.7 7.7-.7 1.6.3 3.2 1.5 4.3z" fill="#40b1ff"/><path d="M87.2 94.6c.1-2.8.6-3.4 2.2-4.3 1.9-1.2 3.9-2.4 6.1-2.6-1.6-.8-3.2-1.7-4.9-2.5-1.9-1-3.7-1.9-5.8-2.4.1 2.9.4 5.8.8 8.7l1.6 3.1z" fill="#40b1ff"/><path d="M126.2 94.6c-1.3 2.4-4.5 1.7-5.9-.2-2.6-3.6 1-7.5-.7-11.3-.2-.4-2.3-3.5-2-3.7 1.5-1.2 7.4-.2 9.1 4.5 1 3.1.1 9.4-.5 10.7z" fill="#7fcbff"/><path d="M123.6 84.7c-1.2-.5-2.6-.4-3.6.2.2 2.6-1.2 5.3-.5 7.9.6.5 1.3.6 1.9.3 1.4-.6 2.8-5 3.1-6.7.1-.9 0-1.4-.9-1.7z" fill="#40b1ff"/><path d="M190.1 166.9c-41.3-37.4-73.4-79.8-93-128.9" fill="none" stroke="#40b1ff" stroke-width="2" stroke-miterlimit="10"/><path d="M132 101.9c-4.4-6.2-8.5-12.5-12.4-18.9" fill="none" stroke="#0071bf" stroke-width="2" stroke-miterlimit="10"/><path d="M122.5 79.2c-.9-.4-1.9-.8-2.9-.9-1-.1-2.1.2-2.8 1.1-.6.8-1.4 4.3-1.3 5.1.3 1.9 4.6 6 5.5 6.1 1.3.3 1.6-2.4 2.9-2.7.4-.1 1.8.2 2.4-1.4.8-2-.6-5.9-3.9-7.3M159.4 145.9h-42.9c-.8 0-1.3-.7-1.1-1.5l5.8-31c.2-.8.9-1.5 1.7-1.5h42.9c.8 0 1.3.7 1.1 1.5l-5.8 31c-.1.8-.9 1.5-1.7 1.5z" fill="#7fcbff"/><path d="M161 145.9h-43c-.8 0-1.3-.7-1.1-1.5l5.8-31c.2-.8.9-1.5 1.7-1.5h42.9c.8 0 1.3.7 1.1 1.5l-5.8 31c-.1.8-.9 1.5-1.6 1.5z" fill="#bfe6ff"/><ellipse transform="rotate(-42.564 145.1664 130.219)" cx="145.2" cy="130.2" rx="3" ry="2.5" fill="#fff"/><path d="M159.4 141.5c-3.5-3.6-5.9-5-13-2.8-7.7 2.4-14.9 6.3-21.8 10.4-5.3 3.1-11.6 7.3-12.6 13.5-.6 3.7 1.2 7.7 4.2 9.9s7.1 2.9 10.8 1.8c5.5-1.6 13.4-8.2 17.7-12.1 6-5.3 11.9-11.1 14.4-18.7l.3-2z" fill="#fff"/><path d="M116.2 172.6c3 2.3 7.1 2.9 10.8 1.8 5.5-1.6 13.4-8.2 17.7-12.1 4.4-3.9 8.8-8 11.8-13-.2-1-.4-2-.8-2.9-1.5-3.2-5.1-5.1-8.6-5.6-2.5-.3-5.1 0-7.6.5-5.1 2.2-10 4.9-14.8 7.8-5.3 3.1-11.6 7.3-12.6 13.5-.7 3.8 1.1 7.8 4.1 10z" fill="#bfe6ff"/><path d="M145.1 146.9c-6-9.1-10.5-11.7-39.7 6.4-2.9 1.8-5.7 3.6-7.9 6.2s-3.5 6-2.8 9.3c.6 2.6 3 6.1 5 7.7 3.1 2.4 7.6 2.6 11.4 1.5 3.8-1.2 7.1-3.5 10.3-5.9 8.1-6 16.2-12.3 22.6-20.1.6-.7 1.2-1.5 1.5-2.4.4-1 .2-1.9-.4-2.7" fill="#fff"/><path d="M99.6 176.4c3.1 2.4 7.6 2.6 11.4 1.5 3.8-1.2 7.1-3.5 10.3-5.9 5.1-3.8 10.2-7.7 14.9-12-2.2-1.3-4-3.4-4.1-5.9-.1-2.7 1.9-7.1-3.9-7-9.7.2-18.6 4.5-27.2 9.1-1.3 1-2.5 2-3.5 3.3-2.2 2.6-3.5 6-2.8 9.3.5 2.6 2.9 6.1 4.9 7.6z" fill="#bfe6ff"/><path fill="#054d90" d="M187.6 184.1H78.1l7-18.5h112.1z"/><path fill="#7fcbff" d="M198.2 167.6l-1-2H85.1l.9 2z"/><path d="M83.2 174.6C53.3 141.2 33 100 23.9 51.2" fill="none" stroke="#40b1ff" stroke-width="2" stroke-miterlimit="10"/><path fill="#002c56" d="M188.5 186H79l7-18.4h112.2z"/><ellipse transform="rotate(-40.665 92.384 177.797)" cx="92.4" cy="177.8" rx="1.9" ry="1.3" fill="#0071bf"/><path d="M224.7 164.7c-1.4-.9-3.3-.4-4.5.7-2.5 2.2-4.1 9.1-9.8 17.1-3.2 4.4-5.4 4.5-7.9 4l-43.4-45.2-12.1 16.8 51.5 41.3c1.8 2.2 3.7 4.3 5.7 6.2 2.1 2.1 4.5 4.1 7.4 4.4.9.1 1.4-.1 1.8-1.3 4.7-12.4 8.1-25.2 11.2-38.1.5-1.8.9-4.2.1-5.9z" fill="#fff"/><path d="M224.7 164.7c-1.4-.9-3.3-.4-4.5.7-2.5 2.2-4.1 9.1-9.8 17.1-.9 1.2-1.7 2.1-2.5 2.8-.8 4.6.6 6.1.8 8.6.1 1.6-.6 3.3-1.7 4.5-2.3 2.5-5 2.2-6.5 3.3 1.2 1.4 2.5 2.8 3.8 4.1 2.1 2.1 4.5 4.1 7.4 4.4.9.1 1.4-.1 1.8-1.3 4.7-12.4 8.1-25.2 11.2-38.1.4-2 .8-4.4 0-6.1z" fill="#003d75"/><path d="M198.6 199.4c1.8 2.2 3.7 4.3 5.7 6.2 2.1 2.1 4.5 4.1 7.4 4.4.9.1 1.4-.1 1.8-1.3 4.7-12.4 8.1-25.2 11.2-38.1.4-1.8.8-4.2 0-5.9-.7.2-1.4.5-1.9.9-6.9 5-6.5 16.2-11.9 22.4-1.3 1.6-3.2 2.8-5.3 2.8-3.8-.1-6-4.1-8.7-6.7-3.7-3.4-9.2-4.4-12.6-8.1-2.6-2.9-3.5-6.9-6-9.9-6-7.2-16-4.3-19.8-9.7-2-2.9-1.3-6.9-2.8-10.1 0-.1-.1-.1-.1-.2l-8.5 11.8 51.5 41.5z" fill="#bfe6ff"/><path d="M224.7 164.7c-.7.2-1.4.5-1.9.9-6.9 5-6.5 16.2-11.9 22.4-.8 1-1.8 1.8-3 2.3.3 1.3.7 2.2.7 3.5.1 1.6-.6 3.3-1.7 4.5-2.3 2.5-5 2.2-6.5 3.3 1.2 1.4 2.5 2.8 3.8 4.1 2.1 2.1 4.5 4.1 7.4 4.4.9.1 1.4-.1 1.8-1.3 4.7-12.4 8.1-25.2 11.2-38.1.5-1.9.9-4.3.1-6z" fill="#001c36"/><path d="M210.6 209.6c-1.5-1.4-1.1-4-.4-6 1.6-5.1 5.8-9.4 6.5-14.7.6-3.9-1.4-12 4.5-22 .5-.8 1.1-1.7 2-2.1 1.5-.6 3.2.4 4 1.7.8 1.4.9 3 1 4.6.3 5.2.5 10.8-1.8 15.4-1.2 2.5-3.2 4.6-4.3 7.2-2.1 4.7-1.5 10.6-4.9 14.4-2.1 2.6-4.9 2.8-6.6 1.5" fill="#ff0028"/><path d="M179.3 206.8c2.2-.7 4-3.3 3.4-7.5-.3-1.9-.9-3.8-.6-5.7.1-.4.2-.9.4-1.5-1.3.9-3 1.4-4.5.9l-33.2-46.7-25.5 12.1 56.3 49.6c.9-.9 2.6-.8 3.7-1.2z" fill="#fff"/><path d="M176.5 208.9c3.4 3.8 7.4 8.9 13 9l13.4-46.7c-2.2-.8-4.7-.1-6.6 1.2-1.9 1.4-3.2 3.3-4.5 5.3-6 9.3-6.4 11.8-8.8 13.9-.2.2-.4.3-.6.5-.2.6-.4 1.1-.4 1.5-.3 1.9.3 3.8.6 5.7.6 4.2-1.2 6.8-3.4 7.5-1.1.4-2.8.3-3.7 1.3l1 .8z" fill="#003d75"/><path d="M179.3 206.8c2.2-.7 4-3.3 3.4-7.5-.1-.6-.2-1.2-.3-1.9-.2.2-.5.3-.8.5-2.8 1.5-4.2.5-5.9-1.7-12.7-16.1-17.6-16.1-19.6-22.4-.6-1.9-.6-4-1.4-5.8-1.3-2.8-4.4-4.4-7.5-5.1-3-.7-6.3-.9-9.2-2-2.9-1.1-5.7-3.6-5.7-6.8 0-.5 0-1.1.1-1.8l-13.1 6.2 56.3 49.6c.9-1 2.6-.9 3.7-1.3z" fill="#bfe6ff"/><path d="M176.5 208.9c3.4 3.8 7.4 8.9 13 9l13.4-46.7c-4-.2-7.6 2.6-9.8 6-3.9 6.2-4.3 15.8-10.8 20.1.1.6.3 1.2.3 1.9.6 4.2-1.2 6.8-3.4 7.5-1.1.4-2.8.3-3.7 1.3l1 .9z" fill="#001c36"/><path d="M189.4 217.9c-1.4-.1-2.8-.8-3.2-2-1.2-3.4 3.2-10.3 4.8-16.1 1.8-6.5 1.2-21.8 8.5-27.3 2.8-2.2 5.3-1.2 6.2 1.4.4 1.1.4 2.3.4 3.4.1 3.6.2 7.2-.8 10.6-1.8 6.1-6.8 11-8.2 17.2-.6 2.7-.5 5.6-1.5 8.3s-3.5 5.1-6.2 4.5" fill="#ff0028"/><path d="M198.7 200.6c-3.2.7-6.2 1.4-8.7 1.9-.3.7-.6 1.5-.9 2.3l8.6-1.9c.3-.8.6-1.5 1-2.3z" fill="#bd081c"/><path d="M94.7 163.3c.5 0 .5-.8 0-.8-.5.1-.5.8 0 .8z" fill="#8a10e2"/><path d="M102.4 60c.3-2.2-.1-4.7-1.8-6.2-.9-.8-2-1.3-3.2-1.7-.9-.3-1.9-.6-2.9-.7-1.1-.1-2.2.1-3.2.3-1.8.2-3.6.3-5.2 1-.7.3-1.4.8-2 1.2-.8.5-1.5 1.1-2.2 1.8-1.5 1.7-2.1 4.1-2.1 6.4 0 2.3.5 4.6.6 6.9 0 .5.1 1 .3 1.4.5.9 1.9 1 2.9.5s1.5-1.6 2-2.5l16.8-8.4z" fill="#ff0028"/><path d="M98.6 61c.1-.5 0-1.1-.2-1.6-.8-1.9-2.8-3-4.8-3.1-2-.1-4 .6-5.7 1.5-.8.4-1.5.8-2.3 1-.8.2-1.7.2-2.5-.2-.8-.5-1.2-1.5-1.3-2.5-1.4 1.7-1.9 4-1.9 6.2 0 2.3.5 4.6.6 6.9 0 .5.1 1 .3 1.4.5.9 1.9 1 2.9.5.9-.6 1.5-1.6 2-2.5L98 62.2c.3-.3.5-.8.6-1.2z" fill="#e00e26"/><path d="M97.3 57.8c1.2-1.3 2.6-2.4 4.3-2.6 1.6-.1 3.2.8 4.1 2.2s1.1 3.1.8 4.7c-.1.6-.3 1.2-.5 1.8-.5 1.9-.4 4-1.1 5.9-.1.4-.3.8-.6 1-.3.3-.7.5-1.1.5-.4 0-.7-.3-1-.7-.2-.3-.3-.7-.5-1.1-.3-1-.8-1.9-1.2-2.9-.7-1.5-1.5-3-2.4-4.4-.4-.6-.8-1.3-1.1-2s-.3-1.5-.1-2.2" fill="#ff0028"/><path d="M82.3 74.8c0 5.4 2.7 10.8 7 14.1 1.7 1.3 2.9 1.7 5 1.8 2.7.1 3.5-.7 4.6-2.3 6.9-10.5 5.4-13.2 5.3-17.6 0-1.7.2-3.5.2-5.2 0-3.7-1.1-5.2-3.4-7-.8-.6-1.6-1.2-2.5-1.7-2.1-1-6.6-1.4-9.6-.5-3.2.9-5.9 3.4-7 6.6-1.3 3.7-.5 7.8.5 11.7" fill="#7fcbff"/><path d="M80.4 63.6c0 .2 0 0 0 0 .3-1.8 1.4-3.4 2.5-4.8 1.8-2.3 3.4-3.5 7.1-4.1 4.2-.6 8.4.3 10.4 1.5 1.7 1 3.9 3.7 4.2 4.6.2.5.3 1.1.3 1.7 0 .6 0 1.1-.1 1.7 0 .3-.2.7-.5.6.1-1.5-1.7-4-2.8-4.8-3.1-2.2-11.7-2.8-14.6-.4-1 .9-1.2 1.9-1.1 3.2.1 1.5.3 3 .7 4.5-2.9 2-2.5 1.2-2.7 5.4-.2 0-1.1-.1-1.3-.2-.1-.1-.1-.2-.1-.3-.1-1-.5-3.5-1.4-3.9l-.6-4.7z" fill="#ff0028"/><path d="M80.4 63.7zM80.4 63.7zM80.4 63.7z" fill="#bd081c"/><path d="M85.7 63c-.3-1.2.5-2.6 1.7-3.1 2.6-1 6.5 1.4 9.6.7.6-.2 2.4-.8 2.8-1.4.4-.5.5-1.8.5-2.3 0-.8-.5-1.6-1.1-2.1-3.5-3.1-13.2-1.3-14.4 3.8-.1.5-.1 1-.1 1.5.2.9.5 2.1 1 2.9" fill="#ff0028"/><path d="M97.9 58.6c-.9-1.4-2.7-2.2-4.4-2.3-2-.1-4 .6-5.7 1.5-.8.4-1.5.8-2.3 1-.8.2-1.7.2-2.4-.2l-.2.2c-1.2 1.4-2.3 3-2.5 4.8L81 68c.9.4 1.3 2.9 1.4 3.9 0 .1 0 .3.1.3.2.2 1 .2 1.3.2.2-4.2-.2-3.3 2.7-5.4-.4-1.5-.5-2.9-.7-4.5-.1-1.3 0-2.3 1.1-3.2 2.1-1.4 7.2-1.6 11-.7z" fill="#e00e26"/><path d="M97 60.6c.3-.1 1-.3 1.6-.6 0-.2-.1-.5-.2-.7-.8-1.9-2.8-3-4.8-3.1-3-.2-5.1 1.2-6.9 2.1-1.3.6-2 2.1-1.5 3.5.1.4.3.8.5 1.2-.3-1.2.5-2.6 1.7-3.1 2.6-1 6.5 1.5 9.6.7z" fill="#bd081c"/><path d="M82.8 75.7c0 .3-.4.5-.7.5-.3 0-.6-.2-.8-.4-1.5-1.3-2.5-4.4-2.3-5.7.1-1.3 1.1-2 1.6-1.9.3 0 .7.5.9.7l1.3 6.8z" fill="#7fcbff"/><path fill="#0071bf" d="M88.2 72.1l-7.3-3.7v-.6l7.3 3.2z"/><path d="M97.7 72.5c-.4 0-.8.2-1 .4-.2.4-.2 1.4-.7 2.3-1.5 2.6-5.9 2-6.7.1-.2-.6-.5-2.9-.7-3.2-.1-.1-.3-.2-.4-.1l.1-1.1c1.7-.2 1.7-.6 4.7-.4 2.7.2 2.8.5 3.7 1 .4.2 1 .2 1.4.2.8 0 1.2 0 1.6-.1 2.1-.7 3.8-.6 5.2-.4 1.4.2 2.1.2 2.1.2v1.3s-.4.1-.7.8c-1.1 2.9-1.8 3.6-4.3 3.6-1.9 0-3.2-.8-3.4-2.8 0-1.2-.1-1.8-.9-1.8z" fill="#0071bf"/><path d="M94.7 79.8c1 .1 1.9.7 2.8.7.9.1 1.3-.6 2.1-.8.5-.1.3-.9-.2-.7-.3.1-.4.2-.6.3-.7.4-1 .6-1.8.4-.8-.2-1.5-.5-2.3-.6-.5-.1-.5.7 0 .7z" fill="#40b1ff"/><path d="M82.2 86c.2 6.5 5.8 13.3 14 13.7-.4.9-1.4 3.5-1.7 4.3-.1.4-.3 1.1-.5 1.4-.4.5-1.6-.2-2.2-.5-6.7-3.1-11.5-9.2-11.9-16.2l2.3-2.7zM90.1 75.4c.4.6 1.4 1 2.5 1s2.5-.6 2.9-1.6c.2-.6.6-2.3.3-2.7-.3-.4-1.6-.7-2.8-.8-1.4-.1-2.8-.1-3.6.6 0 .6.3 2.8.7 3.5zM102 71.8c1.1-.1 3 .1 3.5.3.2.1.3.1.2.3-.1 1.4-.5 3.2-1.7 3.8-1.3.7-4 .2-4.5-1.2-.2-.5-.6-2.1-.3-2.5.4-.3 1.6-.6 2.8-.7" fill="#fff"/><path fill="#001c36" d="M86 167.6l-.9-2-7 18.5.9 1.9z"/><path d="M211.9 199.8l9-2c.2-.8.4-1.6.6-2.3-2.1.5-5 1.1-8.2 1.8-.5.9-1 1.7-1.4 2.5z" fill="#bd081c"/></svg>