<svg xmlns="http://www.w3.org/2000/svg" viewBox="0 0 250 250"><path d="M154.6 98.9c1.6 1.9 5 4.4 6.6 4.4.6 0 1.1-.3 1.6-.6 5.4-3 6.8-6.9 5.7-8.3-.9-1.3-6.4-2.7-11.2-1.4-.6.2-.7.3-1 .8-.7 1.5-1.3 3.3-1.8 4.9l.1.2z" fill="#001c36"/><path d="M96.6 78.6l23 11.2c5.8 2.8 11.9 4.8 18.2 6l16.9 3.1 2.3-5.8-27.1-9.4-21.5-14.6c-3.5-2.5-15-5.5-19.3-6.1-2-.3-4.2-.4-5.6 1-3.6 3.3 8 12.1 13 14.6" fill="#fff"/><path d="M137.8 95.8l16.9 3.1 1.3-3.3h-.2c-4.6-1.1-9.4-1.7-13.8-3.4-2.6-1-5.1-2.4-7.8-3-3-.7-6.1-.6-9-1.6-5-1.7-8.3-6.4-12.6-9.6-4.9-3.6-11-5.1-17-6.5l-3.9 4.2c1.8 1.2 3.4 2.3 4.7 2.9l.2.1 23 11.2c5.8 2.8 11.9 4.8 18.2 5.9z" fill="#bfe6ff"/><path fill="#002c56" d="M127.6 164.7l.9-2.1H56.4l-1 2.1z"/><path fill="#001c36" d="M56.4 162.6l-1 2.1-7.6-12.1 1-2 7.6 12"/><path fill="#054d90" d="M128.5 162.6H56.4l-7.6-12h70.8z"/><path d="M87.2 133.1c-.7 3.8-.9 7.5-.8 10.8.2 5.8 2 11.4 3.8 16.9 1.9 5.9 3.8 11.7 6.3 17.4 1.1 2.5 2.4 5.1 4.6 6.6 2.3 1.5 5.8 1.5 7.3-.7.9-1.3 1-2.9 1-4.5.5-22.3.6-34.9-1-44.6-6.2-2.8-13.5-3.5-21.2-1.9z" fill="#0071bf"/><path d="M100.8 110.4l-1.5-.4c-7 6.8-10.5 15.2-12 23.2 7.7-1.6 15-.9 21.2 1.8-.6-3.3-1.3-6.3-2.3-9.1-1.9-5.3-5.4-10-5.4-15.5z" fill="#fff"/><path d="M101.3 175.9c-3.8-6-4.4-14.5-6.6-21.3-1.7-5.3-5.2-8.7-5.9-14.2l-2.1 7.6c.7 4.3 2 8.6 3.4 12.7 1.9 5.9 3.8 11.7 6.3 17.4 1.1 2.5 2.4 5.1 4.6 6.6.8.5 1.8.9 2.7 1 .4-1 .5-2.1.5-3.2-.1-2.4-1.6-4.5-2.9-6.6z" fill="#001c36"/><path d="M82.5 216.7c.8 1.1.8 2.3 2.4 5.2 1.8 3.5 4.2 2.5 4.6-.2.4-2.5-.1-5 .2-7.5.2-1.6.8-3.2 1.8-4.5.4-13.2 5.6-27.6 1.3-34.7-1.8-3-5.9-4.8-8.9-3.1-2 1.1-3 3.3-3.9 5.4l-.3 1.1c-4.4 9.6-2.8 15.1 1.9 37.5.4.1.7.4.9.8z" fill="#0071bf"/><path d="M84.5 224.7c.8 8.2.8 9.1 1.6 10.2 1.5 2.1 9.3 4 8.4-3.6-.8-6.8-3.4-5.7-3.1-20.6v-.9c-.9 1.3-1.6 2.9-1.8 4.5-.3 2.5.2 5-.2 7.5-.5 2.7-2.8 3.7-4.6.2-1.5-2.9-1.6-4.1-2.4-5.2-.2-.3-.5-.6-.9-.8.4 1.9.8 4 1.3 6.2.4 1 .6 1.9 1.7 2.5z" fill="#ff0028"/><path d="M82.5 216.7c.8 1.1.8 2.3 2.4 5.2.7 1.3 1.5 2 2.2 2.2-1.8-9.7.3-10.8.8-18.6.3-3.8-.3-7.6-.4-11.4-.2-4.2.5-8.2 1-12.3.3-2.8-1.3-6.4-3.2-10.4-.5.1-.9.3-1.3.5-2 1.1-3 3.3-3.9 5.4l-.3 1.1c-4.4 9.6-2.8 15.1 1.9 37.5.3.1.6.4.8.8z" fill="#001c36"/><path d="M63.5 145c1.5 6.3 4.7 14.3 10.6 27.7 2 4.6 4.2 10.2 8 13.7 4.2 3.8 9.8 2.9 11.7-2.8.7-2.1.7-4.4.7-6.6-.5-14.2-5-28.9-5.3-35.5 4.2-1.4 8-4.8 10.5-9-11-1.3-23.8 2.5-36.2 12.5z" fill="#0071bf"/><path d="M102.1 118.1c-4.3-11.2 3.3-23.1 1.7-35-.5-3.9-2.8-11-5.2-14.2-2.6-3.4-6.7-5.5-11-6-4.3-.6-8.6.2-12.7 1.5-4.8 1.5-10.4 5-13.2 9-1 1.5-1.1 2.4-1.4 4.1-.6 2.7-.2 5.5.3 8.3 1.9 9.1 6.1 17 6.3 26.5-3.5 16.7-5.8 22.5-3.5 32.7 12.4-10 25.2-13.8 36.2-12.5 2.9-4.6 4.1-10 2.5-14.4z" fill="#fff"/><path d="M74.1 172.6c2 4.6 4.2 10.2 8 13.7 1.7 1.6 3.7 2.3 5.6 2.3.2-2.3.5-4.5.8-6.8.7-6.7-9.6-18.4-8.7-29.2.1-1 .3-2 .5-2.9 1.4-4.3 4.5-6.5 6.9-5.4 3.2 1.5 4.7 9.3 6.3 15.1 2.4 8.8 2.4 12.8 8.1 23.5 1 2 2.4 1.4 2.5-.5.7-8.3-6.2-13.9-5-26 .2-1.7.5-3.4.5-5.1 0-7.2-4.8-10.5-7.3-12.9-1.6-1.6-2.9-3.4-3.9-5.4-8 1.4-16.6 5.4-24.9 12.1 1.4 6.2 4.7 14.2 10.6 27.5z" fill="#001c36"/><path d="M90.5 103.5c1.3-2.6 2.7-5.4 2.4-8.3-.4-5.1-5.3-8.4-8-12.7-3.9-6-3.5-13.1-2-19.8-2.7.2-5.4.8-8 1.6-4.8 1.5-10.4 5-13.2 9-1 1.5-1.1 2.4-1.4 4.1-.6 2.7-.2 5.5.3 8.3 1.9 9.1 6.1 17 6.3 26.5-3.5 16.7-5.8 22.5-3.5 32.7 8.4-6.7 16.9-10.6 24.9-12.1-2-4-3-8.6-3.3-13.2.4-5.6 3-11 5.5-16.1z" fill="#bfe6ff"/><path d="M82.4 117.7c-3.7 2.2-5.4 4-7.5 3.1-2.4-1.1-7-9.4-8.2-11.6-5.4-9.8-6.2-17.5-6.8-28.7-.1-2.1 0-4.3 1.1-6.1 1.1-1.8 3.4-3 5.3-2.1 2.1.9 4.3 5.6 5.2 7.7l6.9 27.9L101 99l3.5 3.8-22.1 14.9z" fill="#fff"/><path d="M102.5 97.4c.4-1.4.6-2.8.9-4.3 1.1-5.4 3.4-5.2 5.6-7.9.2 0 .3.2.4.4.6 1.7-1.6 2.9-2 4.5-.3.9-.1 2.8-.6 4.6-.9 3.1-3.5 4-4.1 2.6" fill="#003d75"/><path d="M122.1 74.8h-8.7c-.9 0-1.8.7-2 1.5l-5.6 19.1c-.2.8.3 1.5 1.1 1.5h8.7c.9 0 1.8-.7 2-1.5l5.6-19.1c.3-.9-.2-1.5-1.1-1.5z" fill="#ff0028"/><path d="M106.5 96l5.6-19.1c.2-.8 1.1-1.5 2-1.5h8.7c.2 0 .3 0 .4.1-.2-.4-.6-.7-1.1-.7h-8.7c-.9 0-1.8.7-2 1.5l-5.6 19.1c-.2.7.1 1.3.7 1.4-.1-.2-.1-.5 0-.8z" fill="#e00e26"/><path d="M103.2 95.5c1.3-1.9 2.7-3.6 4.7-4.8.8-.5 1.7-.9 2.6-1.2.5-.2 5.6-2.2 6.1-1.9.9.5.5 7.1-4.5 10.5-1.2.8-2.6 1.4-3.9 2.1-3 1.6-4.1 3.2-5.1 3.6-1.8.6-6-3.1-4.4-3.8 1.9-.9 3.4-1.2 4.5-4.5" fill="#003d75"/><path d="M101.5 103.4c-.8.7-1.6 1.4-2.3 1.9-3.2 2.4-7.1 4.1-10.6 5.9-3.4 1.8-6.7 3.5-10.4 4.4-.3.1-.6.1-.9.1-3.8-.5-16-30.3-12.5-41.1.2-.7.5-1.3 1.1-1.7.4-.2.8-.3 1.2-.2-.2-.2-.5-.4-.7-.5-1.9-.9-4.2.3-5.3 2.1-1.1 1.8-1.2 4-1.1 6.1.6 11.2 1.3 18.8 6.8 28.7 1.2 2.2 5.8 10.5 8.2 11.6 2 1 3.8-.8 7.5-3.1l20.8-14.1h-.1c-.5.3-1.1.2-1.7-.1z" fill="#bfe6ff"/><path d="M104.1 103l.3-.2c.8-.7 1.9-1.7 3.8-2.7l2.4-1.2c-.5-.7-1.1-1.3-1.4-2-.4-.9-.4-3.5-2.1-3.6-1.3 0-.6 2.1-3.9 8.1-.4.7-1 1.4-1.7 2.1.6.3 1.2.4 1.6.2h.2c.3-.3.5-.5.8-.7z" fill="#001c36"/><path d="M79.6 37.7c-1.5-.4-3-.5-4.5-.3s-3 .8-4.1 1.8c-.5.4-.9 1-1.5 1.1-.5.1-1-.1-1.5-.4-.2-.2-.4-.4-.7-.5-.5-.2-1 .1-1.4.5-1.2.9-2.2 2.5-3.8 2.9-.7.2-1.3-.2-2-.2-1-.1-1.8.9-2.8 1.3-1 .3-2.2-.1-2.7-1-.4-.8-.5-1.9-1.4-2.2-.9-.4-2.2.7-2.8-.2-.3-.4-.1-.9.1-1.3.5-.7 2-1.5 1.1-4.3-.4-1.2-2.5-4.8-.3-6.3.8-.6 1.9-.5 2.6-1.2.4-.4.6-1 .8-1.6 1.1-3.1 3.7-3.9 5.3-3 .5.3.9.7 1.5.9 2.2.8 3.9-2.4 7-2.6 2.6-.2 3.3 1.8 3.5 2.1.6.7 1.6.4 2.5.4 1.5 0 2.9.7 3.8 1.9.5.7.8 1.5 1.4 2 1.2.9 3 .3 4.2 3.2.4.9 1.1 3.7.8 4.6-.3.9-1.3 1.4-2.3 1.8" fill="#ff0028"/><path d="M83.7 29.7c-.3-.4-.5-.7-.8-1-1.5 0-2.9.8-4.1 1.8-1.4 1.2-2.6 2.6-4 3.7-1.5 1.1-3.5 1.7-5.1 1-.6-.3-1.1-.7-1.8-.7-.6 0-1.1.4-1.6.8-1 .8-1.8 1.8-2.9 2.5-1.1.6-2.7.7-3.5-.3-.9-1-.8-2.6-1.9-3.3-1.5-1-3.6 1-5.2.2-.7-.3-1.1-1.1-1.3-1.9-.3-1-.5-2-.5-3l-.1-.1c-.8 1.8.7 4.4 1 5.4.9 2.8-.6 3.6-1.1 4.3-.3.4-.4.9-.1 1.3.7.9 1.9-.2 2.8.2.8.3.9 1.5 1.4 2.2.5.9 1.7 1.4 2.7 1 1-.3 1.8-1.4 2.8-1.3.7.1 1.3.4 2 .2 1.6-.4 2.5-1.9 3.8-2.9.4-.3.9-.6 1.4-.5.3.1.5.3.7.5.4.3 1 .5 1.5.4.6-.1 1.1-.7 1.5-1.1 1.1-1 2.6-1.6 4.1-1.8 1.5-.2 3 0 4.5.3l2.9-.8c.5-2.1.7-4.7.9-7.1z" fill="#e00e26"/><path d="M76 41.9c.2 4 1.3 8.4 3.8 11.5.8 1 1.7 1.9 2.6 2.7 1.4 1.3 2.9 2.6 4.7 3.3 1.8.7 4 .5 5.4-.8.9-.8 1.4-2.1 1.8-3.2 2-5.3 3.1-8.5 2.6-16.4-.1-1.1-.2-2.2-.4-3.3-.6-2.7-2-5.6-4.4-7-3.3-2-11.7-2.5-15.3 4.7-1.3 2.6-1.2 5.2-.8 8.5" fill="#ff0028"/><path d="M157.6 94c1.9-2.6 5.6-1.2 9.8-4.8.3.2.3.7.1 1-.7 1.9-3 2.7-4 4.4-.3.5-1.3 3.6-3.6 4.6-2.3 1.2-5.3-1.1-2.3-5.2" fill="#001c36"/><path d="M57.6 155.9C86.5 103 108.7 55.5 129.2 3M119.2 155.7c38.3-43.9 73-89.1 105.4-134.6" fill="none" stroke="#40b1ff" stroke-width="2" stroke-linecap="round" stroke-miterlimit="10"/><path d="M171 95.4c.6 1.2.5 2.6.1 3.9-.5 1.3-1.3 2.4-2.1 3.4-.9 1.1-1.8 2.2-2.9 3.1-.7.6-1.5 1.1-2.4 1.4-.9.2-1.9.1-2.7-.4-.5-.4-.9-1-1-1.6-.1-.2-.1-.4-.1-.7 0-.4.2-.7.4-1.1 1-1.8 2.3-3.6 3.7-5.2.2-.2.4-.5.7-.6.3-.1.6-.2.9-.2 1.2-.1 2.3-.1 3.5-.2l1.9-1.8z" fill="#003d75"/><path d="M99.4 173.5c.1.3.1.1 0 0z" fill="none"/><path d="M107.2 173.1c-.7-.5-2.5-1.4-3.3-1.3-1.8.2-3.2.5-4.5 1.7.1.1.1.2 0 0l-2.9 3.4c.9 6.5-5.4 11.2-8 16.4-1.7 3.4-2.2 7.3-2.8 11.1-1.3 4.4-2.7 9.8-6.4 13.3.6 1.7-.2 3.6-.7 5.4-.4 1.6-.6 3.2-.5 4.8 0 .7.1 1.4.4 2 .5 1.2 1.7 2 3 2.1 1.9-6.2 5.4-11.9 9.1-17.3 3.1-4.7 6.4-9.3 9.7-13.9 2.9-3.9 5.8-7.8 7.6-12.3 3.3-7.7 1-14.1-.7-15.4z" fill="#0071bf"/><path d="M99.4 173.5c-.1-.1-.1-.2 0 0z" fill="#e50e38"/><path d="M78.5 230c-.3-.6-.4-1.3-.4-2-.1-1.6.1-3.2.5-4.8.5-1.8 1.3-3.7.7-5.4-.5.4-.9.8-1.5 1.2-.9.6-2 1.2-2.6 2.1-1 1.7-.2 3.9.1 5.8.6 3.5-.6 7-1.2 10.5s-.4 7.6 2.3 9.9c.4.3.9.6 1.4.6 1.2 0 1.6-1.5 1.8-2.7.3-3.2.4-6.5 1-9.7.2-1.2.5-2.3.9-3.5-1.3 0-2.5-.8-3-2z" fill="#ff0028"/><path d="M99.4 173.5c-.1-.1-.1-.2 0 0z" fill="#172dfc" opacity=".48"/><path d="M104.3 182.5c-.2-2.4-1.6-4.6-2.9-6.7-.5-.9-1.1-1.7-1.6-2.6l-.3.3c.1.1.1.2 0 0l-2.9 3.4c.9 6.5-5.4 11.2-8 16.4-1.7 3.4-2.2 7.3-2.8 11.1-1.3 4.4-2.7 9.8-6.4 13.3.6 1.7-.2 3.6-.7 5.4-.4 1.6-.6 3.2-.5 4.8 0 .7.1 1.4.4 2 .1.2.2.4.3.5.2-2.2.4-4.5 1.1-6.6 1.1-3.3 3.6-5.8 5.2-8.9 3.4-6.1 3.4-11.4 13.3-21.8 2.7-3 6.1-6.4 5.8-10.6z" fill="#001c36"/><path d="M78.1 228c-.1-1.6.1-3.2.5-4.8.5-1.8 1.3-3.7.7-5.4-.5.4-.9.8-1.5 1.2-.9.6-2 1.2-2.6 2.1-1 1.7-.2 3.9.1 5.8.6 3.5-.6 7-1.2 10.5s-.4 7.6 2.3 9.9c.4.3.9.6 1.4.6.2 0 .4-.1.6-.2-.2-.4-.5-.9-.7-1.3-1-2-1.4-4.3-1.1-6.5.3-2 1-3.8 1.5-5.7.3-1.3.5-2.6.6-3.8-.1-.2-.2-.3-.3-.5-.2-.5-.3-1.2-.3-1.9z" fill="#e00e26"/><path d="M101.5 182.9c1 2 2.4 1.4 2.5-.5.5-6.4-3.4-11.1-4.7-18.4l-4.5 1.1c1.4 5.4 2.4 9.6 6.7 17.8z" fill="#001c36"/><ellipse transform="rotate(-40.164 117.0264 82.2124)" cx="117" cy="82.2" rx="1.3" ry="1" fill="#0096ff"/><ellipse transform="rotate(-40.164 113.77 77.509)" cx="113.8" cy="77.5" rx=".7" ry=".5" fill="#0096ff"/><path d="M77.6 233.1c1.2.7 2.5 1.1 3.9 1.1.5 0 .5-.7 0-.7-1.3 0-2.4-.4-3.5-1-.5-.3-.8.4-.4.6zM77 234.7c1.4.6 2.8.9 4.2 1 .5 0 .5-.7 0-.7-1.3 0-2.6-.3-3.9-.9-.4-.2-.8.4-.3.6zM76.7 236.3c1.3.4 2.7.6 4.1.6.5 0 .5-.7 0-.7-1.3-.1-2.6-.2-3.9-.6-.4-.1-.6.6-.2.7zM76.4 237.9c1.4.4 2.8.5 4.3.4.5 0 .5-.7 0-.7-1.4.1-2.8 0-4.1-.4-.4-.1-.6.5-.2.7zM76 239.4c1.2.7 2.9.6 4.2.6.5 0 .5-.7 0-.7-1.2 0-2.8.2-3.8-.5-.4-.2-.7.4-.4.6zM85.7 225.8c1.5-.1 3-.4 4.3-1.1.4-.2.1-.8-.4-.6-1.3.6-2.6.9-4 1-.3 0-.3.7.1.7zM85.9 227.3c1.6-.1 3.1-.4 4.6-1.1.4-.2.1-.8-.4-.6-1.4.6-2.8.9-4.3 1-.4 0-.4.7.1.7zM86.1 228.8c1.6-.1 3.2-.3 4.8-.8.4-.1.2-.8-.2-.7-1.5.5-3 .8-4.6.8-.5 0-.5.7 0 .7zM86.1 230.3c1.7 0 3.4-.3 5-1 .4-.2.2-.9-.2-.7-1.5.6-3.1.9-4.8.9-.5.1-.5.8 0 .8zM79.1 231.6c-.5-.6-1.2-.7-1.9-.9-1.8-.3-3-.7-3.7-2.5-.7-1.9-.7-3.9-2.7-4.9-.4-.2-.8.4-.4.6 2.3 1.2 1.7 4.2 3.1 6 .4.6 1 .9 1.6 1.2 1.1.4 2.5.1 3.4 1 .4.4.9-.2.6-.5zM90.7 222.3c.3-2.6 3.1-4.7 4.5-6.9 1.1-1.8 1.8-3.8 2.2-5.9.1-.5-.6-.6-.7-.2-.5 3.2-2 5.9-4 8.4-1.2 1.5-2.4 2.7-2.6 4.7-.2.4.6.4.6-.1z" fill="#fff"/><path d="M77.5 44.6C74.1 32.3 86.4 26.9 93.2 33c3 2.7 3.6 7 3.2 7.6-.2.4-5.6 4.7-12.4 5.6-2.4.4-4.9.2-6.5-1.6" fill="#ff0028"/><path d="M78.1 48.7c.2 3.4.1 6.9-.4 10.3-.3 1.9-.7 3.9-2.4 5-1.3.9-3.6 1.3-2.7 3.9.8 2.2 2.9 3.9 5.4 4.8 3.9 1.3 13 1.2 13.7-2.9.3-1.7-1.1-3.2-1.7-4.8-.7-1.9-.3-4 .1-6l-12-10.3z" fill="#003d75"/><path d="M84.8 55.5l-.1-1.1-6.7-5.7c.2 3.4.1 6.9-.4 10.3-.3 1.9-.7 3.9-2.4 5-1.3.9-3.6 1.3-2.7 3.9.8 2.2 2.9 3.9 5.4 4.8 1.1.4 2.5.6 4 .7-.4-6 1.4-12.4 2.9-17.9z" fill="#002c56"/><path d="M77.9 43.8c.4 4.5.5 6.9 1.5 8.9 1.3 2.8 3.9 4.7 6.4 6.4.8.5 1.6 1 2.4 1.3.9.3 1.9.4 2.7.1 1.1-.4 1.9-1.4 2.6-2.3 1.3-1.7 2.6-3.4 3-5.4.5-2.1-.1-4.3.3-6.4.2-.9.5-1.8.5-2.8 0-.7-.1-1.5-.3-2.2-.3-1.2-.7-2.4-1.1-3.6-.3-.9-.7-1.8-1.3-2.6-.6-.8-1.4-1.5-2.3-2.1-2.3-1.4-5.1-1.9-7.7-1.3-2.6.6-4.9 2.4-6 4.9-.9 2.1-.8 4.8-.7 7.1" fill="#003d75"/><path d="M78.9 44.1c-2-2.7-3.2 2.4-.7 5.5.8 1 1.6.6 1.6.1" fill="#003d75"/><path d="M95.9 37.8c-.3-.9-.5-2.9-1.1-3.6-3.6-4.9-14.1-4.9-17 1.7-.8 1.9-.1 5.3 0 7.4.4.1.9.4 1 .9.2.5.2 1.1.4 1.6h.6c.2-4.5 1.5-4.2 1.5-5.7 0-.5-.2-1.1-.3-1.6-.1-1 .6-1.9 1.4-2.4.8-.5 1.8-.7 2.8-.8 7.3-1.2 9.3 1 10.7 2.5z" fill="#ff0028"/><path fill="none" stroke="#002c56" stroke-width=".4785" stroke-linecap="round" stroke-miterlimit="10" d="M91.1 50.8h3"/></svg>