<svg id="Layer_1" data-name="Layer 1" xmlns="http://www.w3.org/2000/svg" viewBox="0 0 250 169.5496"><defs><style>.cls-1{fill:#0d1f33;}.cls-2{opacity:0.57;}.cls-3{fill:#ff6c1a;}.cls-4{fill:#245ae4;}.cls-5{fill:#e9edf1;}.cls-6{fill:#acb9f5;}.cls-7{fill:#889bf0;}</style></defs><title>Untitled-2</title><path class="cls-1" d="M10.5181,163.9586c23.8245-12.08,81.275-21.2555,129.82-21.2555s74.9009,9.1758,57.7908,21.2555c-18.4292,13.011-79.4694,24.3185-135.0093,24.3185S-15.1432,176.97,10.5181,163.9586Z" transform="translate(0 -21.2252)"/><g class="cls-2"><path class="cls-3" d="M246.14,145.7482c-16.8666,12.523-83.4043,23.4194-147.3792,23.4194S4.966,158.2712,30.2976,145.7482c23.4892-11.6121,86.5406-20.4236,142.3316-20.4236S261.78,134.1361,246.14,145.7482Z" transform="translate(0 -21.2252)"/></g><path class="cls-4" d="M234.4989,149.9307C210.75,160.1187,154.528,168.2545,100.3,168.2545c-28.3846,0-49.7991-2.23-62.2535-5.8154a72.6134,72.6134,0,0,0-7.7485,3.44c-25.3317,13.3124,4.4887,24.8959,68.4636,24.8959S229.2738,179.1913,246.14,165.8789C254.277,159.4567,249.1459,153.8414,234.4989,149.9307Z" transform="translate(0 -21.2252)"/><polygon class="cls-4" points="21.328 132.759 21.328 153.83 72.58 153.83 72.58 138.303 21.328 132.759"/><polygon class="cls-4" points="250 119.187 250 138.392 204.098 138.392 204.098 127.574 250 119.187"/><path class="cls-5" d="M246.14,145.7482c-16.8666,12.523-83.4043,23.4194-147.3792,23.4194S4.966,158.2712,30.2976,145.7482c23.4892-11.6121,86.5406-20.4236,142.3316-20.4236S261.78,134.1361,246.14,145.7482Z" transform="translate(0 -21.2252)"/><path class="cls-1" d="M242.21,145.7483c11.8985-8.7544-5.0971-15.8711-38.8021-18.5646v18.075c12.7027.9786,23.26,2.581,31.0914,4.672A39.5614,39.5614,0,0,0,242.21,145.7483Z" transform="translate(0 -21.2252)"/><path class="cls-6" d="M234.4989,149.9307c-13.5066-3.6062-35.1041-5.763-61.87-5.763-50.4782,0-106.8977,7.6681-134.5831,18.2714,12.4544,3.5854,33.8689,5.8154,62.2535,5.8154C154.528,168.2545,210.75,160.1187,234.4989,149.9307Z" transform="translate(0 -21.2252)"/><path class="cls-1" d="M124.9743,162.4046h21.1862l-10.5111-5.0714H133.295l.006-.0037H54.4348a157.163,157.163,0,0,0-16.3886,5.11c2.63.7569,5.6633,1.4527,9.0731,2.0807h74.3844Z" transform="translate(0 -21.2252)"/><path class="cls-4" d="M171.4534,126.0225a578.9083,578.9083,0,0,0-90.6643,7.25v18.5057a568.6207,568.6207,0,0,1,91.84-7.61c11.2455,0,21.574.3821,30.7782,1.091v-18.075C193.9756,126.43,183.2353,126.0225,171.4534,126.0225Z" transform="translate(0 -21.2252)"/><path class="cls-7" d="M34.2284,145.7483c-13.0412,6.4864-10.7038,12.51,3.8178,16.6908,10.65-4.079,25.5622-7.72,42.7429-10.6613V133.2721C60.6037,136.63,43.8914,140.9419,34.2284,145.7483Z" transform="translate(0 -21.2252)"/><path class="cls-1" d="M145.7213,48.9733c1.96,2.5285,2.6224,5.8258,2.8562,9.0168s.101,6.4239.7289,9.5612c.2489,1.2434.6153,2.46.8909,3.6979a34.79,34.79,0,0,1,.3219,11.9045,6.8992,6.8992,0,0,1-1.104,3.4072.7128.7128,0,0,1-.31.263c-.3932.1355-.6932-.3559-.82-.752l-3.2723-10.2276a35.4927,35.4927,0,0,1-.9981-3.5359,27.1562,27.1562,0,0,1-.4846-4.3094,57.8475,57.8475,0,0,1,2.2165-18.7168" transform="translate(0 -21.2252)"/><path class="cls-6" d="M150.2,84.4658c-.8714,4.4412.2579,4.9661-1.1419,7.5315a14.8473,14.8473,0,0,1-1.9744,2.7947c-.2948.329-.5644.3792-.7419-.0217-.8437-1.9057-1.2494-4.8-.3457-6.604.2953-.5893.7368-1.093,1.0647-1.6648,1.0355-1.8056.4781-3.1328.624-4.0433.2292-1.43,1.7612-1.523,2.3495.0493a3.7458,3.7458,0,0,1,.195,1.8593" transform="translate(0 -21.2252)"/><path class="cls-1" d="M139.626,155.7806a2.1286,2.1286,0,0,1-4.0308.209,8.1484,8.1484,0,0,0-1.5932-2.0767,1.546,1.546,0,0,0-.1953-.1242c-.0291.2274-.0591.4547-.0957.6813a17.3277,17.3277,0,0,0-.3492,4.7769,1.449,1.449,0,0,0,.4181.83,1.4735,1.4735,0,0,0,.6758.2537c1.9128.3536,3.9058.2254,5.78.7459.7194.2,1.4093.4923,2.1175.7289a9.9441,9.9441,0,0,0,5.3423.4064c.9835-.2268,2.053-.8065,2.1246-1.8562a1.4573,1.4573,0,0,0-.2631-.9313c-.4626-.6563-1.2374-.6934-1.9413-.84a5.9815,5.9815,0,0,1-1.7069-.6388,11.9572,11.9572,0,0,1-2.1153-1.646l-1.537-1.3928a4.5814,4.5814,0,0,1-.6063-.6238,2.76,2.76,0,0,1-.4236-.8754,2.726,2.726,0,0,0-.2591.2009A7.779,7.779,0,0,0,139.626,155.7806Z" transform="translate(0 -21.2252)"/><path class="cls-1" d="M137.8657,122.9906a48.6711,48.6711,0,0,1-.3841-8.3668c.34-3.4481,1.7711-6.68,3.1682-9.8511a27.6015,27.6015,0,0,0,2.2225-6.467c.3928-2.3428-1.4775-11.6872-2.7544-17.8332a10.8543,10.8543,0,0,0-5.5267,2.6492,15.7183,15.7183,0,0,0-4.6375,10.663,38.7024,38.7024,0,0,0,1.5093,11.7744,79.5805,79.5805,0,0,1,2.4452,11.6531c.7747,8.2518-1.7247,16.5334-1.1032,24.7981a46.093,46.093,0,0,0,.8123,5.584,19.167,19.167,0,0,1,.1894,6.1944,1.5431,1.5431,0,0,1,.1954.1242,8.1515,8.1515,0,0,1,1.5931,2.0766,2.673,2.673,0,0,0,2.0291,1.34c-.0364-.1963-.076-.3924-.11-.5889C135.5941,145.6305,138.7035,134.2344,137.8657,122.9906Z" transform="translate(0 -21.2252)"/><path class="cls-7" d="M146.3187,80.3119l-.6929.9786a8.7522,8.7522,0,0,0-5.5079-.818c1.2769,6.146,3.1472,15.49,2.7544,17.8332a27.6015,27.6015,0,0,1-2.2225,6.467c-1.3971,3.1707-2.8285,6.403-3.1682,9.8511a48.6711,48.6711,0,0,0,.3841,8.3668c.8378,11.2438-2.2716,22.64-.3513,33.75.0339.1965.0735.3926.11.5889.0321,0,.063.0055.0953.0032a2.6137,2.6137,0,0,0,1.9064-1.5522,7.7819,7.7819,0,0,1,1.3415-2.1718,2.74,2.74,0,0,1,.2592-.2009,16.333,16.333,0,0,1-.3423-2.22,317.3715,317.3715,0,0,1,4.6774-44.7088c.614-3.47,1.2866-6.9351,1.6142-10.4434A53.64,53.64,0,0,0,146.3187,80.3119Z" transform="translate(0 -21.2252)"/><path class="cls-1" d="M119.7989,157.1718c-.4109.4253-.6646.98-1.0609,1.4192a.7289.7289,0,0,1-.35.2454c-.3053.0733-.5789-.2065-.7292-.4822a3.6518,3.6518,0,0,1-.391-1.3037,15.2619,15.2619,0,0,0-.4559,3.3387,1.9056,1.9056,0,0,0,.5764,1.46c.1238.0973.2676.1685.3832.2753.2948.2725.3483.7122.5341,1.0679a2.396,2.396,0,0,0,1.2622,1.0126,7.6014,7.6014,0,0,0,4.9413.0569,2.4016,2.4016,0,0,0,1.029-.5,1.9933,1.9933,0,0,0,.4308-.6643,2.0584,2.0584,0,0,0,.085-1.6889,4.5384,4.5384,0,0,0-.7762-.9345,5.2665,5.2665,0,0,1-.9881-1.9044c-.119-.3708-.2138-.7488-.2955-1.13-.159-.1511-.316-.3059-.4862-.4414A2.86,2.86,0,0,0,119.7989,157.1718Z" transform="translate(0 -21.2252)"/><path class="cls-7" d="M135.0441,85.05c-4.84,5.57-9.3089,12.1421-9.4144,19.5206-.054,3.77,1.05,7.5134.74,11.2712-.3551,4.2969-2.5131,8.2-3.9539,12.2638-2.8564,8.0557-2.8977,16.8466-2.002,25.3466.1093,1.0379.23,2.08.3375,3.1234a2.9288,2.9288,0,0,1,2.7566.4235c.17.1355.3272.29.4862.4414a11.7671,11.7671,0,0,1-.2494-1.8132,19.9964,19.9964,0,0,0-.1578-2.5178c.203-2.2245.1367-4.4666.2369-5.4656a124.3257,124.3257,0,0,1,2.48-16.0224c1.8824-8.0225,4.9914-15.8028,5.7582-24.0075a26.2947,26.2947,0,0,1,.4215-3.4015c.7174-3.154,2.8967-5.7615,5.1954-8.0368s4.82-4.3947,6.5387-7.1349a13.082,13.082,0,0,0,1.9431-6.1415H136.852C136.2782,83.6381,135.655,84.347,135.0441,85.05Z" transform="translate(0 -21.2252)"/><path class="cls-1" d="M122.4156,128.1056c1.4408-4.0635,3.5988-7.9669,3.9539-12.2638.3106-3.7578-.7938-7.5007-.74-11.2712.1055-7.3785,4.5742-13.95,9.4144-19.5206.6109-.703,1.2341-1.4119,1.8079-2.1507H121.0333c-.4451,2.3654-.9635,4.7283-1.2848,7.1071-1.35,9.9934.844,20.23-.662,30.2012-.4049,2.6813-1.0741,5.3148-1.5908,7.9769a71.3012,71.3012,0,0,0-.0557,26.7923,8.2905,8.2905,0,0,1-.1724,2.0737,3.6513,3.6513,0,0,0,.391,1.3036c.15.2758.4239.5556.7293.4823a.73.73,0,0,0,.35-.2454c.3962-.439.65-.9939,1.0608-1.4193a2.4635,2.4635,0,0,1,.9522-.5961c-.1071-1.0433-.2282-2.0855-.3375-3.1234C119.5179,144.9522,119.5592,136.1613,122.4156,128.1056Z" transform="translate(0 -21.2252)"/><path class="cls-4" d="M144.4861,63.778c.3942-2.7947,1.5376-5.4378,1.9808-8.2251s.014-5.9873-2.1494-7.8c-1.5578-1.3049-3.8362-1.635-5.229-3.1438-1.5558-1.6853-1.6691-4.1464-1.3754-6.3014.2558-1.8769.6443-3.8547-.0628-5.612a5.5805,5.5805,0,0,0-5.8425-3.1709c-.0495.0067-.0976.0218-.1471.03a19.1172,19.1172,0,0,1,2.7622,14.793c-1.0185,4.1892-3.4928,8.1184-3.3029,12.4255.1812,4.1085,2.7429,7.66,4.8994,11.1612s4.0416,7.7122,2.7422,11.6141a11.3973,11.3973,0,0,1-1.91,3.35h9.3085C146.6175,76.6709,143.609,69.9947,144.4861,63.778Z" transform="translate(0 -21.2252)"/><path class="cls-1" d="M138.7616,79.5488c1.2994-3.9019-.5858-8.1124-2.7422-11.6141s-4.7182-7.0527-4.8994-11.1612c-.19-4.3071,2.2844-8.2363,3.3029-12.4255a19.1172,19.1172,0,0,0-2.7622-14.793,4.28,4.28,0,0,0-1.2373.37,4.4586,4.4586,0,0,0-2.2269,3.4683c-.4568,3.5428,1.9763,6.31-1.2813,9.2248a47.2462,47.2462,0,0,1-7.0238,4.3464c-4.3729,2.4025-1.982,8.0128-1.121,12.9275s2.8258,9.6429,3.069,14.6264a35.8659,35.8659,0,0,1-.8061,8.38H136.852A11.3973,11.3973,0,0,0,138.7616,79.5488Z" transform="translate(0 -21.2252)"/><path class="cls-6" d="M123.4378,89.0709a2.1952,2.1952,0,0,1,2.1205.31c.3447.271.6038.6449.9726.882a1.682,1.682,0,0,0,1.8125-.0246c-2.2782-4.75-5.4839-2.7945-7.5764-4.0147-.4264-.2486-.7814-.6109-1.2225-.8322a1.1935,1.1935,0,0,0-1.3771.097c-.7823.8282.3779,3.265,1.5469,4.3629a1.6307,1.6307,0,0,0,2.0762.46,7.5275,7.5275,0,0,0,1.6473-1.24" transform="translate(0 -21.2252)"/><path class="cls-6" d="M120.7692,94.6217a15.1892,15.1892,0,0,0,4.1484-5.5819l-2.4987-.583-1.9,1.9467Z" transform="translate(0 -21.2252)"/><path class="cls-1" d="M134.5222,25.25c-.1387-1.568-1.1237-3.977-2.6948-4.0243-1.153-.0347-5.6718,2.7117-6.8763,3.9126a6.935,6.935,0,0,0-1.9893,5.3657c.3194,4.1511,2.2047,5.0336,3.8842,7.023a10.3824,10.3824,0,0,1,1.6815,2.7828,3.0666,3.0666,0,0,0,1.0644-1.6216c2.8458-7.4633,3.1378-8.2767,3.7475-9.639a8.368,8.368,0,0,0,1.134-4.0595" transform="translate(0 -21.2252)"/><path class="cls-6" d="M134.617,43.3554a5.7634,5.7634,0,0,0,1.7057-.7866l1.3536-1.7891a7.7437,7.7437,0,0,1,1.9978-4.7221c.6278-.6863,1.4382-1.3905,1.4014-2.32a3.7874,3.7874,0,0,0-.657-1.5842c-1.127-2.058-1.1421-4.7576-2.86-6.3558A7.37,7.37,0,0,0,135.74,24.652a11.1762,11.1762,0,0,0-4.4825-1.3669A7.564,7.564,0,0,0,126.92,24.6,19.4,19.4,0,0,1,134.617,43.3554Z" transform="translate(0 -21.2252)"/><path class="cls-4" d="M124.9015,26.4642a6.721,6.721,0,0,0-.3683,7.2349,29.0391,29.0391,0,0,0,2.5045,3.09,5.036,5.036,0,0,1,1.3276,3.64,1.6067,1.6067,0,0,0-.0211.6161,1.1517,1.1517,0,0,0,.2458.42,5.7313,5.7313,0,0,0,6.027,1.8905A19.4,19.4,0,0,0,126.92,24.6c-.0875.0575-.177.112-.2623.1725A7.71,7.71,0,0,0,124.9015,26.4642Z" transform="translate(0 -21.2252)"/><path class="cls-1" d="M128.3685,40.3942a6.32,6.32,0,0,0,.4346-4.3276c-.4423-1.5107-1.7363-3.0541-1.4089-4.5411.3432-1.5592,2.1345-1.5658,2.3684-.4911l.06-.0771c.7954-.4758.8092-.4715.84-.5328a.2463.2463,0,0,0-.0235-.2063c-.7949-1.78-.86-.73-.3746-4.0458.0487-.3322.0814-.23-1.8655-1.1116-.2124-.0962-.2129-.1871-.1375-.321.3622-.6435.5361-.8486,1.8521-1.3861a8.0219,8.0219,0,0,0-3.4561,1.4188,7.712,7.712,0,0,0-1.7564,1.6917,6.7214,6.7214,0,0,0-.3684,7.235,29.039,29.039,0,0,0,2.5046,3.09A5.064,5.064,0,0,1,128.3685,40.3942Z" transform="translate(0 -21.2252)"/><path class="cls-3" d="M117.3363,82.8992" transform="translate(0 -21.2252)"/><path class="cls-1" d="M114.997,51.2438a79.4227,79.4227,0,0,0-7.4578,15.4643,7.7984,7.7984,0,0,0-.5886,2.6573,7.7579,7.7579,0,0,0,.6961,2.7338,70.9515,70.9515,0,0,0,8.2361,15.0817,48.5258,48.5258,0,0,1,4.8864,7.4408,4.7744,4.7744,0,0,0,1.2652-4.8688,19.3789,19.3789,0,0,0-2.316-4.7644c-1.0923-1.9174-1.9934-3.9366-2.8925-5.9519l-2.623-5.8794a4.9278,4.9278,0,0,1-.6206-3.2663,5.0487,5.0487,0,0,1,1.0153-1.6743,75.79,75.79,0,0,0,6.2839-9.2326,24.5466,24.5466,0,0,0,3.1133-7.4575c.3938-2.0238.2835-4.32-1.0735-5.8726-3.1666,1.2819-5.709,2.2645-7.9243,5.59" transform="translate(0 -21.2252)"/></svg>