<svg id="Layer_1" data-name="Layer 1" xmlns="http://www.w3.org/2000/svg" viewBox="0 0 250 163.2306"><defs><style>.cls-1{fill:#245ae4;}.cls-2{fill:#e9edf1;}.cls-3{fill:#889bf0;}.cls-4{fill:#0d1f33;}.cls-5{fill:#acb9f5;}.cls-6{fill:#cdcef9;}.cls-7{fill:#273b66;}.cls-8{fill:#fff;}.cls-9{fill:#d03027;}</style></defs><title>Untitled-1</title><rect class="cls-1" x="0.0102" y="121.787" width="41.2881" height="22.9379"/><rect class="cls-1" x="201.1389" y="96.9471" width="48.8214" height="21.2299"/><path class="cls-1" d="M238.3733,130.5349c-23.1519,16.8161-96.6566,31.7156-162.2913,31.7156-30.6368,0-52.04-3.2474-62.75-8.42C-17.7639,171.89,6.845,187.6153,73.6058,187.6153c68.84,0,145.7919-16.72,169.5157-35.4779C254.1589,143.41,251.4314,135.8355,238.3733,130.5349Z" transform="translate(0 -24.3847)"/><path class="cls-2" d="M243.1216,130.4048C219.3977,148.0191,142.4457,163.72,73.6058,163.72s-92.8644-15.7005-57.2092-33.3148c32.26-15.937,102.7821-27.7841,160.1934-27.7841S264.5863,114.4678,243.1216,130.4048Z" transform="translate(0 -24.3847)"/><path class="cls-1" d="M174.855,103.65c-42.6317,0-92.7,6.7978-127.5158,16.936v19.6584c36.1086-10.6467,86.34-17.6951,129.2508-17.6951,27.89,0,49.4467,2.9779,61.7833,7.9855.06-.0434.1243-.0866.1835-.13C259.4058,115.08,230.1394,103.65,174.855,103.65Z" transform="translate(0 -24.3847)"/><path class="cls-3" d="M20.9614,130.4047c-18.1261,9.0154-19.9237,17.4891-7.63,23.4262q1.4525-.8436,3.0649-1.6935c8.1483-4.2868,18.74-8.295,30.9426-11.8929V120.5861A163.191,163.191,0,0,0,20.9614,130.4047Z" transform="translate(0 -24.3847)"/><path class="cls-4" d="M208.3333,105.3465v18.7287c12.7148,1.3555,22.917,3.5683,30.04,6.46.06-.0434.1243-.0866.1835-.13C254.65,118.5756,240.8776,109.0688,208.3333,105.3465Z" transform="translate(0 -24.3847)"/><path class="cls-5" d="M238.3733,130.5349c-12.3366-5.0076-33.8933-7.9855-61.7833-7.9855-57.4113,0-127.9334,12.6162-160.1934,29.588q-1.6153.85-3.0649,1.6935c10.71,5.1722,32.1135,8.42,62.75,8.42C141.7167,162.2505,215.2214,147.351,238.3733,130.5349Z" transform="translate(0 -24.3847)"/><path class="cls-4" d="M132.5947,151.45l-.5586-4.1192H83.34l6.2143-3.4736,52.348-.2476-3.0969-3.3037H47.1285A178.9652,178.9652,0,0,0,17.7324,151.45Z" transform="translate(0 -24.3847)"/><path class="cls-4" d="M135.6524,51.9932c3.9071,5.3634,7.2952,12.2458,7.6116,14.1383.3216,1.9227-.9438,3.0769-2.6541,2.7057-2.5516-.5538-5.2365-4.7037-6.5351-6.8735-1.8584-3.105-3.6536-5.8731-2.1557-8.574,1.0941-1.973,3.4463-2.1258,3.5063-1.5881" transform="translate(0 -24.3847)"/><path class="cls-4" d="M137.516,71.6137c1.7189-.7955,4.4072-1.1851,5.3369-3.2226.8937-1.9589.0767-5.1656-2.1915-5.1257a3.9315,3.9315,0,0,0-1.9776.81c-5.2373,3.3838-5.7557,3.29-5.1687,5.2938.6341,2.1649,1.6663,2.5011,3.7885,2.2581" transform="translate(0 -24.3847)"/><path class="cls-4" d="M122.3087,36.3792a3.8973,3.8973,0,0,0-1.7913,3.2477c.0053,2.3019,2.3092,4.7527,2.6823,8.6654.8488,8.9-9.3407,12.8514-11.4715,10.1566,6.2379-8.781,2.7508-16.6815,5.439-20.2892,1.199-1.6091,3.2819-2.2336,5.22-2.7531" transform="translate(0 -24.3847)"/><path class="cls-6" d="M138.4207,34.7707c-.6362-1.175-1.857-2.1366-1.4279-2.8981.1629-.2892.5664-.5179.4605-.8324-.1137-.3375-.8364-.3824-1.948-1.3135-2.7742-2.3239-2.8135-5.196-8.2323-4.1037a14.8119,14.8119,0,0,0-2.0064.52A13.1247,13.1247,0,0,1,128.594,28.62c1.855,1.842,3.8044,3.86,4.2413,6.4375a10.0558,10.0558,0,0,1-.4473,4.434c-1.4294,4.95-4.4377,9.4953-6.5231,14.1949.07.0046.1406.011.2107.0138a5.3979,5.3979,0,0,0,1.7264-.1689,5.0292,5.0292,0,0,0,2.974-2.8081c.6506-1.3946.6761-2.89,1.1186-4.3314a28.2855,28.2855,0,0,1,1.1977-2.9629c.4668-1.0676.9564-2.13,1.5226-3.1494a4.4813,4.4813,0,0,1,1.3772-1.8363,3.3468,3.3468,0,0,1,.8379-.2382A2.1759,2.1759,0,0,0,138.4207,34.7707Z" transform="translate(0 -24.3847)"/><path class="cls-3" d="M132.8353,35.057c-.4369-2.5774-2.3863-4.5955-4.2413-6.4375a13.1247,13.1247,0,0,0-3.3274-2.4764,4.4825,4.4825,0,0,0-2.325,1.6343,7.8569,7.8569,0,0,0-1.7265,5.1089,7.1257,7.1257,0,0,0,1.63,4.051c.444.5343,1.11.8777,1.5177,1.3981a4.1956,4.1956,0,0,1,.624,2.4914,10.2645,10.2645,0,0,1-1.6321,4.4442q-.7631,1.407-1.4627,2.8473a5.19,5.19,0,0,0-.5476,1.531,3.3525,3.3525,0,0,0,1.4223,3.0315,5.7923,5.7923,0,0,0,3.098,1.0051c2.0854-4.7,5.0937-9.2454,6.5231-14.1949A10.0558,10.0558,0,0,0,132.8353,35.057Z" transform="translate(0 -24.3847)"/><path class="cls-7" d="M117.8264,49.278c-1.9885,1.6351-6.7605,5.5265-7.8508,7.2805-2.1133,3.4-3.1652,15.5572-1.24,21.9291,1.4393,4.7631,4.5782,7.3921,5.764,7.6105a3.311,3.311,0,0,0,1.7976-.357c3.2231-1.3034,4.6-2.33,5.0536-7.5966,1.1818-13.72-1.5132-16.7876-1.8184-21.3144-.2986-4.4288,1.9188-8.752,5.0871-11.8608-1.8767.578-2.6794,1.7631-6.7935,4.3087" transform="translate(0 -24.3847)"/><path class="cls-4" d="M131.6954,25.6706c-4.428,2.3629-.991,8.0327-1.8061,8.9694-.5372.6175-1.4524-.1844-2.1019-.1674a1.2329,1.2329,0,0,0-1.0839.9405c-.2759,1.0392.5218,1.83.7749,2.4258a2.8634,2.8634,0,0,1-.9132,3.18,4.096,4.096,0,0,1-2.7375-.0049c-2.1324-.8572-.8764-2.6711-1.4113-3.7658-.5506-1.1267-2.5028-1.0535-1.9778-5.866a6.4559,6.4559,0,0,1,1.8408-4.4338,8.2887,8.2887,0,0,1,4.3726-2.435c1.6647-.32,3.9142-.0866,5.0434,1.1568" transform="translate(0 -24.3847)"/><path class="cls-4" d="M134.1585,121.2383c-.0425-9.0568,2.3763-13.1959,1.7428-26.0343l-.3578-7.25-.1553.0652c-1.0717-3.2647-6.51-2.5149-8.673-.6948a7.26,7.26,0,0,0-2.1428,4.1431c-1.8068,8.4677,2.8781,16.6672,3.185,25.16.07,1.9417-.0879,3.8854-.0443,5.8279a43.2858,43.2858,0,0,0,2.3646,12.1521,15.3088,15.3088,0,0,1,.7,4.0578,3.0316,3.0316,0,0,1,1.08.491c.3318.2431.66.5712,1.0714.5566a1.179,1.179,0,0,0,.519-.1734c.7-.3878,1.2427-1.0076,1.9158-1.44a4.6277,4.6277,0,0,1,.9616-.4589,4.3392,4.3392,0,0,1-1.1018-1.699C134.3412,125.3679,134.17,123.6892,134.1585,121.2383Z" transform="translate(0 -24.3847)"/><path class="cls-8" d="M133.448,139.5393a1.179,1.179,0,0,1-.519.1734c-.4111.0146-.74-.3135-1.0714-.5566a3.0316,3.0316,0,0,0-1.08-.491c.0141.3552.0241.7107.0146,1.067A19.4238,19.4238,0,0,0,131,142.933c.054.3936.1512.5977.7.75,2.17.6008,4.4638-.4819,6.7069-.2854.3136.0275,4.8228,1.0859,6.4739-.2212a1.4442,1.4442,0,0,0,.4448-1.8226c-.96-1.4738-6.4015-1.2068-8.9993-3.7126a4.6277,4.6277,0,0,0-.9616.4589C134.6907,138.5317,134.1475,139.1515,133.448,139.5393Z" transform="translate(0 -24.3847)"/><path class="cls-4" d="M122.8976,127.5119c.4312-1.2265,1.24-2.2992,1.6167-3.5437.928-3.0694-.9488-6.4091-.2467-9.538.4776-2.1284,2.0787-3.8325,2.7991-5.8914,1.7056-4.8747-1.8233-9.8175-3.4743-14.8093a20.497,20.497,0,0,1-3.76,1.148,22.69,22.69,0,0,1,1.0011,2.2962c1.1674,3.14.5349,5.4464.0827,18.6884-.058,1.6986-.8394,3.4838-1.1564,5.1754-1.6543,8.83,1.1794,15.2476,1.181,21.825,0,.3236-.0176.6459-.0479.9667.3177.3167.6033.6766.9034,1.0114a3.2,3.2,0,0,0,1.3625.9649l-.6451-13.5567A12.4624,12.4624,0,0,1,122.8976,127.5119Z" transform="translate(0 -24.3847)"/><path class="cls-3" d="M123.5924,93.73c1.651,4.9918,5.18,9.9346,3.4743,14.8093-.72,2.0589-2.3215,3.763-2.7991,5.8914-.7021,3.1289,1.1747,6.4686.2467,9.538-.3763,1.2445-1.1855,2.3172-1.6167,3.5437a12.4624,12.4624,0,0,0-.3835,4.7369l.6451,13.5567a1.5648,1.5648,0,0,0,.6564.0662c.8726-.1093,1.4345-.9487,2.1531-1.4556a6.1829,6.1829,0,0,1,1.7961-.7641c.0467-.0142.094-.0282.141-.0423-.0361-.04-.0788-.0722-.1135-.1134a5.9852,5.9852,0,0,1-1.1722-2.9029,87.1906,87.1906,0,0,1,.3225-11.2162c1.2423-13.5738,2.2376-13.297,5.7034-25.274a92.5087,92.5087,0,0,0,3.1668-15.692l-3.7767-1.3536A19.3212,19.3212,0,0,1,123.5924,93.73Z" transform="translate(0 -24.3847)"/><path class="cls-4" d="M123.0275,87.4343c.5555-2.3845,2.1577-4.4014,2.872-6.7433,1.7186-5.635-1.9753-11.447-2.2363-17.3325-.2838-6.4012,3.4214-11.9936,6.2963-17.8514-.1816-.0643-.3639-.1276-.547-.1859-1.3581-.433-3.87-1.4553-5.0351-.3392a18.66,18.66,0,0,0-3.1381,4.3414,23.3749,23.3749,0,0,0-2.9548,10.0893c-.3521,6.4061,1.9541,12.7749,1.3209,19.1594-.3341,3.3685-1.4649,6.62-1.625,10.0108-.1436,3.0441.7334,4.0554,1.8524,6.2946a20.497,20.497,0,0,0,3.76-1.148A11.5172,11.5172,0,0,1,123.0275,87.4343Z" transform="translate(0 -24.3847)"/><path class="cls-9" d="M137.1566,54.7149a28.1592,28.1592,0,0,0-3.3754-6.3244,8.5184,8.5184,0,0,0-1.7637-1.858,7.9249,7.9249,0,0,0-2.058-1.0254c-2.8749,5.8578-6.58,11.45-6.2963,17.8514.261,5.8855,3.9549,11.6975,2.2363,17.3325-.7143,2.3419-2.3165,4.3588-2.872,6.7433a11.5172,11.5172,0,0,0,.5649,6.2952,19.3212,19.3212,0,0,0,8.4437-6.6719l3.7767,1.3536c.7336-6.5767.5847-11.7637.8921-16.4424C137.321,62.59,139.6822,61.0194,137.1566,54.7149Z" transform="translate(0 -24.3847)"/><path class="cls-6" d="M129.53,67.5661a31.0893,31.0893,0,0,0-.4766,3.7236,2.7226,2.7226,0,0,0,1.5755,2.6251,2.8708,2.8708,0,0,0,1.6871-.9915,3.2705,3.2705,0,0,0,.9722-2.6417c-.251-3.2027-2.9667-3.743-3.56-2.8709" transform="translate(0 -24.3847)"/><path class="cls-8" d="M136.5246,148.3941a1.4271,1.4271,0,0,0-.8024-.5621,57.27,57.27,0,0,1-5.5844-2.6681,8.0091,8.0091,0,0,1-2.232-1.5542c-.047.0141-.0943.0281-.141.0423a6.1829,6.1829,0,0,0-1.7961.7641c-.7186.5069-1.2805,1.3463-2.1531,1.4556a1.5648,1.5648,0,0,1-.6564-.0662v4.2905c1.2741.1681,2.5937.191,3.8586.4251,1.3308.2462,2.6107.7352,3.95.929a9.16,9.16,0,0,0,4.149-.36,2.3069,2.3069,0,0,0,1.0184-.57,2.3339,2.3339,0,0,0,.4747-1.43A1.2966,1.2966,0,0,0,136.5246,148.3941Z" transform="translate(0 -24.3847)"/><path class="cls-3" d="M121.7967,144.8406c-.3-.3348-.5857-.6947-.9034-1.0114a13.2629,13.2629,0,0,1-.5525,2.6728q-.1035.3345-.1886.6745a3.7243,3.7243,0,0,0-.1353,1.515.9192.9192,0,0,0,.1951.4654,1.0637,1.0637,0,0,0,.335.2267,8.3493,8.3493,0,0,0,2.6122.7124v-4.2905A3.2012,3.2012,0,0,1,121.7967,144.8406Z" transform="translate(0 -24.3847)"/><path class="cls-9" d="M138.7388,68.7809c-1.2472-3.6785-5.611-16.948-8.2222-19.0224a4.4525,4.4525,0,0,0-2.7856-.9888,10.17,10.17,0,0,0,.403,9.9472c1.0727,1.6919,2.6408,3.0379,3.6315,4.7792,1.02,1.7932,1.3647,3.8932,2.25,5.7566a20.0466,20.0466,0,0,0,4.407,5.5346,3.64,3.64,0,0,0,1.05-2.76A10.665,10.665,0,0,0,138.7388,68.7809Z" transform="translate(0 -24.3847)"/><path class="cls-4" d="M134.0157,69.2527c-.8855-1.8634-1.23-3.9634-2.25-5.7566-.9907-1.7413-2.5588-3.0873-3.6315-4.7792a10.17,10.17,0,0,1-.403-9.9472c-3.6122-.0162-7.1617,4.2446-4.5593,9.2q3.2952,5.5824,6.9067,10.97c1.6181,2.4138,3.3984,4.8978,6.0165,6.1589a2.4209,2.4209,0,0,0,.9919.29,1.9865,1.9865,0,0,0,1.3359-.6016A20.0466,20.0466,0,0,1,134.0157,69.2527Z" transform="translate(0 -24.3847)"/></svg>