<?xml version="1.0" encoding="utf-8"?>
<!-- Generator: Adobe Illustrator 23.0.1, SVG Export Plug-In . SVG Version: 6.00 Build 0)  -->
<svg version="1.1" id="Layer_1" xmlns="http://www.w3.org/2000/svg" xmlns:xlink="http://www.w3.org/1999/xlink" x="0px" y="0px"
	 viewBox="0 0 246 191" style="enable-background:new 0 0 246 191;" xml:space="preserve">
<style type="text/css">
	.st0{fill-rule:evenodd;clip-rule:evenodd;fill:#BED2FB;}
	.st1{fill-rule:evenodd;clip-rule:evenodd;fill:#FFFFFF;}
	.st2{fill-rule:evenodd;clip-rule:evenodd;fill:#3D60F7;}
	.st3{fill-rule:evenodd;clip-rule:evenodd;fill:#172B4D;}
	.st4{fill-rule:evenodd;clip-rule:evenodd;fill:#FF8B00;}
	.st5{fill-rule:evenodd;clip-rule:evenodd;fill:#96B3FA;}
	.st6{filter:url(#Adobe_OpacityMaskFilter);}
	.st7{mask:url(#mask-2_1_);fill-rule:evenodd;clip-rule:evenodd;fill:#2A44A1;}
	.st8{fill-rule:evenodd;clip-rule:evenodd;fill:#304EC6;}
	.st9{filter:url(#Adobe_OpacityMaskFilter_1_);}
	.st10{mask:url(#mask-4_1_);fill-rule:evenodd;clip-rule:evenodd;fill:#FFFFFF;}
	.st11{fill-rule:evenodd;clip-rule:evenodd;fill:#2A44A1;}
	.st12{fill-rule:evenodd;clip-rule:evenodd;fill:#6E95F9;}
	.st13{fill-rule:evenodd;clip-rule:evenodd;fill:#5680F9;}
	.st14{fill-rule:evenodd;clip-rule:evenodd;fill:#0845A2;}
	.st15{fill-rule:evenodd;clip-rule:evenodd;fill:#0052CC;}
	.st16{fill-rule:evenodd;clip-rule:evenodd;fill:#E2EBFD;}
	.st17{fill-rule:evenodd;clip-rule:evenodd;fill:#36B37E;}
	.st18{fill-rule:evenodd;clip-rule:evenodd;fill:#FFAB00;}
	.st19{fill:none;stroke:#E9B13B;stroke-width:0.582;}
	.st20{fill:none;stroke:#6E95F9;stroke-width:0.582;}
	.st21{fill-rule:evenodd;clip-rule:evenodd;fill:#0F3877;}
	.st22{fill:none;stroke:#E2EBFD;stroke-width:1.455;stroke-linecap:round;}
	.st23{fill-rule:evenodd;clip-rule:evenodd;fill:#FFC400;}
	.st24{filter:url(#Adobe_OpacityMaskFilter_2_);}
	.st25{mask:url(#mask-6_1_);fill-rule:evenodd;clip-rule:evenodd;fill:#57D9A3;}
	.st26{fill-rule:evenodd;clip-rule:evenodd;fill:#79F2C0;}
	.st27{filter:url(#Adobe_OpacityMaskFilter_3_);}
	.st28{mask:url(#mask-8_1_);fill-rule:evenodd;clip-rule:evenodd;fill:#FFAB00;}
	.st29{filter:url(#Adobe_OpacityMaskFilter_4_);}
	.st30{mask:url(#mask-10_1_);fill-rule:evenodd;clip-rule:evenodd;fill:#EEC83F;}
	.st31{fill-rule:evenodd;clip-rule:evenodd;fill:#FFE380;}
</style>
<title>Group 334</title>
<desc>Created with Sketch.</desc>
<g id="Page-1">
	<g id="Atlassian" transform="translate(-291.000000, -815.000000)">
		<g id="Group-334" transform="translate(291.000000, 769.000000)">
			<path id="Fill-1" class="st0" d="M74,89.3c0.3,0.3,1,0.5,1.4,0.2c0.4-0.3,0.6-1.4,0.7-1.9c0.4-1.4,0.8-2.8,1.2-4.3
				c0.3-1.3,0.6-2.7,0.5-4.1c0-1-0.2-2-0.7-2.9c-0.3-0.7-1-1.6-1.7-1.8c-0.5-0.1-1,0-1.3,0.3c-0.4,0.3-0.6,0.8-0.6,1.3
				c-0.1,0.5-0.1,1-0.1,1.5c-0.1,1.2-0.6,2.4-0.8,3.6c-0.4,2.1,0,4.3,0.6,6.4C73.3,88.3,73.5,88.9,74,89.3"/>
			<path id="Fill-3" class="st0" d="M114.8,94.8c-0.4,0.2-1.1,0.3-1.5-0.1c-0.3-0.4-0.2-1.5-0.2-2c-0.1-1.5-0.1-3-0.1-4.4
				c0-1.4,0.1-2.8,0.5-4.1c0.3-1,0.7-1.9,1.4-2.6c0.5-0.6,1.3-1.3,2.1-1.3c0.5,0,0.9,0.3,1.2,0.6c0.3,0.4,0.3,0.9,0.3,1.4
				c-0.1,0.5-0.2,1-0.3,1.5c-0.2,1.2,0,2.5-0.1,3.7c-0.2,2.1-1.1,4.1-2.2,6C115.6,93.9,115.3,94.5,114.8,94.8"/>
			<path id="Fill-5" class="st1" d="M77.9,79.3c0-1-0.2-2-0.7-2.9c-0.3-0.7-1-1.6-1.7-1.8c-0.5-0.1-1,0-1.3,0.3
				c-0.4,0.3-0.6,0.8-0.6,1.3c-0.1,0.5-0.1,1-0.1,1.4c0.1-0.1,0.1-0.2,0.2-0.3c0.4-0.3,0.9-0.4,1.3-0.3c0.8,0.2,1.4,1.2,1.7,1.8
				c0.4,0.9,0.6,1.9,0.7,2.9c0,0.6,0,1.1-0.1,1.7c0,0,0-0.1,0-0.1C77.7,82.1,77.9,80.7,77.9,79.3"/>
			<path id="Fill-7" class="st1" d="M114.5,84c0.5-0.5,1.5-1.3,2.4-1.3c0.5,0,1,0.3,1.3,0.6c0.1-0.4,0.2-0.8,0.2-1.2
				c0.1-0.5,0-1-0.3-1.4c-0.3-0.4-0.7-0.6-1.2-0.6c-0.8,0-1.6,0.8-2.1,1.3c-0.7,0.8-1.1,1.7-1.4,2.6c-0.2,0.7-0.3,1.5-0.4,2.3
				C113.4,85.5,113.9,84.7,114.5,84"/>
			<path id="Fill-9" class="st0" d="M44.7,111.8c-4.9,1.5-8.6,5.7-10.9,10.3c-2.3,4.6-3.5,9.6-5.5,14.4
				c-4.2,10.2-11.5,19.1-14.5,29.6c-1,3.3-1.5,6.7-2.8,9.9c-1,2.5-2.4,4.7-3.4,7.2c-1,2.4-1.5,4.9-1.6,7.5c-0.1,3,0.5,6.1,2.4,8.4
				c7.2,8.7,16.1-5,19.8-10.2c4.8-6.8,9.4-13.7,13.9-20.7c1.9-3.1,3.9-6.1,5.3-9.4c2.4-5.3,3.6-11,5.8-16.4
				c1.5-3.6,3.5-7.1,5.6-10.4c1.6-2.6,3.3-5.2,4.1-8.1c1.1-4.4-0.3-7.9-4.3-9.9C54.4,111.8,49.4,110.4,44.7,111.8"/>
			<path id="Fill-11" class="st1" d="M42.1,168.1c1.9-3.1,3.9-6.1,5.3-9.4c2.4-5.3,3.6-11,5.8-16.4c0.2-0.5,0.4-1,0.7-1.5
				c-9.3,5.6-8.8,10.3-11.7,17.9c-4.5,11.4-16.4,20.5-16.2,24.1c0.1,1.1,0.8,2,1.8,2.5c0.7,0.4,1.6,0.6,2.4,0.8
				C34.3,180.2,38.3,174.2,42.1,168.1"/>
			<path id="Fill-13" class="st1" d="M78.7,83.7c-1.8-2.8-1.7-6.3-1.5-9.6c0.1-2.6,0.2-5.2,0.6-7.7c0.3-2.7,0.9-5.5,2.3-7.9
				c2.9-5.3,9-8.1,15-8.8c4.8-0.6,9.8,0.1,14.1,2.4c4.3,2.3,7.7,6.3,8.8,11c1.5,6.3-0.6,11.5-2,17.8c-0.2,0.9-1,2.9-1.4,3.7
				c-0.7,1.2-2.1,2-3.5,2.5c-8.5,3.6-19.4,3-28.1-0.2C79.9,85.8,78.7,83.7,78.7,83.7"/>
			<path id="Fill-15" class="st0" d="M134.7,119.7c4.4,0.2,8.7,2.7,11.1,6.4c2.9,4.5,2.9,10.3,4.8,15.3c1.5,3.8,4,7.1,6.1,10.5
				c6.7,10.8,9.6,23.5,11.1,36.1c0.2,2.1,0.4,4.2,0,6.3c-0.5,2.1-1.7,4-3.7,4.8c-1.7,0.7-3.6,0.4-5.3-0.4c-3.1-1.4-5.4-4.1-7.7-6.5
				c-2.5-2.6-4.9-5.3-7.1-8.1c-4.3-5.5-8.1-11.5-10.2-18.2c-1.8-5.5-2.5-11.4-4.7-16.8c-1.6-3.9-4-7.5-5.6-11.5
				c-1.6-3.8-2.6-9.2-0.2-12.9C125.5,121.4,130.7,119.5,134.7,119.7"/>
			<path id="Fill-17" class="st1" d="M148.7,184.3c-8.1-10.5-13.1-24.6-14.2-37.8c-0.2-0.8-1.1-1.3-1.9-1.2
				c-0.8,0.1-1.5,0.6-2.1,1.2c-0.7,0.8-1.2,1.7-1.6,2.6c0,0.1,0.1,0.2,0.1,0.2c2.2,5.4,2.9,11.3,4.7,16.8
				c2.2,6.7,5.9,12.7,10.2,18.2c0,0,0,0,0,0l3.9,0.3C148.3,184.6,148.6,184.6,148.7,184.3"/>
			<path id="Fill-19" class="st2" d="M156.7,151.9c-2.1-3.5-4.7-6.7-6.1-10.5c-1.9-5-1.9-10.8-4.8-15.3c-2.4-3.7-6.7-6.2-11.1-6.4
				c-0.1,0-0.3,0-0.4,0c0.8,0.5,1.5,1,2.3,1.6c1.7,1.2,3.3,2.6,4.3,4.4c2.7,4.5,1.5,10.6,4.2,15.2c1,1.7,2.4,3.1,3.8,4.5
				c10.8,11.4,15.3,27.6,15.9,43.3c0.1,2.7,0.1,5.5-1,8c-0.5,1.1-1.2,2.2-2.1,3c0.8,0,1.6-0.1,2.3-0.4c2-0.8,3.2-2.8,3.7-4.8
				c0.5-2.1,0.3-4.2,0-6.3C166.3,175.4,163.4,162.7,156.7,151.9"/>
			<path id="Fill-21" class="st3" d="M155.7,150.3c-1.9-2.9-3.9-5.7-5.1-8.9c-1.9-5-1.9-10.8-4.8-15.3c-2.4-3.7-6.7-6.2-11.1-6.4
				c-4-0.2-9.1,1.7-11.4,5.2c-2.4,3.7-1.4,9.1,0.2,12.9c1.6,3.9,4,7.5,5.6,11.5c2,4.9,2.8,10.3,4.3,15.4c3.6-1.7,6.9-3.9,10.2-6.1
				C147.6,155.9,151.7,153.2,155.7,150.3"/>
			<path id="Fill-23" class="st2" d="M134.6,146.5c-0.2-0.8-1.1-1.3-1.9-1.2c-0.8,0.1-1.5,0.6-2.1,1.2c-0.7,0.8-1.2,1.7-1.6,2.6
				c0,0.1,0.1,0.2,0.1,0.2c2,4.9,2.8,10.3,4.3,15.4c1.5-0.7,2.9-1.5,4.3-2.3C136,157.1,135,151.7,134.6,146.5"/>
			<path id="Fill-25" class="st2" d="M150.6,141.4c-1.9-5-1.9-10.8-4.8-15.3c-2.4-3.7-6.7-6.2-11.1-6.4c-0.1,0-0.3,0-0.4,0
				c0.8,0.5,1.5,1,2.3,1.6c1.7,1.2,3.3,2.6,4.3,4.4c2.7,4.5,1.5,10.6,4.2,15.2c1,1.7,2.4,3.1,3.8,4.5c1.9,2,3.6,4.1,5.1,6.3
				c0.6-0.4,1.2-0.8,1.8-1.2C153.8,147.5,151.8,144.6,150.6,141.4"/>
			<path id="Fill-27" class="st3" d="M140.1,118.8c3,2.9,5.1,7.1,4.4,11.2c-0.7,4.1-3.9,7.4-7.4,9.6c-12.7,8.2-24.4,5.4-33.6,3.7
				c-29.9-5.5-42.5-3.9-54.1-6.8c-6.5-2.1-13.3-5.1-14.7-12c-0.5-2.7,0.2-4.5,1.7-6.7c2.9-4.2,6.8-7.6,11.4-9.9
				c4.9-2.5,10.3-3.5,15.5-5.1c4.1-1.2,8.1-2.7,12.1-4.2c3.3-1.3,6.5-3.3,10-4c4.6-0.9,9.4-0.8,13.9,0.4c4.8,1.2,8.6,3.8,12.7,6.5
				c6,4,12.2,7.5,18.5,10.9C133.9,114.3,137.3,116.1,140.1,118.8"/>
			<path id="Fill-29" class="st2" d="M130.5,112.5c-6.3-3.4-12.5-7-18.5-10.9c-3.5-2.3-6.7-4.5-10.6-5.9c-0.2,0.6-0.3,1.2-0.3,1.7
				c-0.2,2.4,0.1,3.6,1.8,5.1c9.3,8.6,23.2,11.1,33.5,18.7c1.7,1.2,3.3,2.6,4.3,4.4c1.5,2.4,1.8,5.3,2.2,8.2
				c0.7-1.2,1.2-2.5,1.5-3.8c0.7-4.1-1.4-8.3-4.4-11.2C137.3,116.1,133.9,114.3,130.5,112.5"/>
			<path id="Fill-31" class="st4" d="M130.5,112.5c-6.3-3.4-12.5-7-18.5-10.9c-3.5-2.3-6.7-4.5-10.6-5.9c-0.2,0.6-0.3,1.2-0.3,1.7
				c-0.2,2.4,0.1,3.6,1.8,5.1c9.3,8.6,23.2,11.1,33.5,18.7c1.7,1.2,3.3,2.6,4.3,4.4c1.5,2.4,1.8,5.3,2.2,8.2
				c0.7-1.2,1.2-2.5,1.5-3.8c0.7-4.1-1.4-8.3-4.4-11.2C137.3,116.1,133.9,114.3,130.5,112.5"/>
			<path id="Fill-33" class="st1" d="M101.1,98.7c0.1-0.6,0.2-1.2,0.3-1.7c3.9,1.4,7.1,3.6,10.6,5.9c6,4,12.2,7.5,18.5,10.9
				c3.4,1.8,6.8,3.6,9.6,6.3c2.4,2.4,4.3,5.6,4.5,8.9c0.3-3.8-1.8-7.6-4.5-10.3c-2.8-2.7-6.2-4.5-9.6-6.3c-6.3-3.4-12.5-7-18.5-10.9
				c-3.5-2.3-6.7-4.5-10.6-5.9c-0.2,0.6-0.3,1.2-0.3,1.7c-0.1,0.7-0.1,1.3,0,1.8C101.1,99,101.1,98.9,101.1,98.7"/>
			<path id="Fill-35" class="st3" d="M48.6,155.9c1.7-4.5,2.8-9.1,4.6-13.6c1.5-3.6,3.5-7.1,5.6-10.4c1.6-2.6,3.3-5.2,4.1-8.1
				c1.1-4.4-0.3-7.9-4.3-9.9c-4.3-2.1-9.3-3.5-14-2.2c-4.9,1.5-8.6,5.7-10.9,10.3c-2.3,4.6-3.5,9.6-5.5,14.4c-0.7,1.7-1.5,3.3-2.3,5
				C33.3,146.6,40.9,151.4,48.6,155.9"/>
			<path id="Fill-37" class="st4" d="M85.4,94.6c-3.5,0.7-6.7,2.7-10,4c-4,1.6-8,3-12.1,4.2c-5.2,1.5-10.6,2.6-15.5,5.1
				c-6.2,3.1-11.1,8.4-14,14.2c-2.3,4.6-3.5,9.6-5.5,14.4c-0.7,1.7-1.5,3.3-2.3,5c1.7,1.2,3.4,2.4,5.1,3.5
				c7.7-11.6,6.2-14.9,7.9-22.1c3.2-13.7,20.1-14.4,29.2-16.9c7.9-2.2,15.2-6.3,21.2-11.9C88.1,94.2,86.7,94.3,85.4,94.6"/>
			<path id="Fill-39" class="st1" d="M45.4,110.3c4.9-2.5,10.3-3.5,15.5-5.1C65,104,69,102.6,73,101c3.3-1.3,6.5-3.3,10-4
				c1.2-0.2,2.4-0.4,3.5-0.5c1-0.8,2-1.6,2.9-2.5c-1.4,0.1-2.7,0.3-4,0.5c-3.5,0.7-6.7,2.7-10,4c-4,1.6-8,3-12.1,4.2
				c-5.2,1.5-10.6,2.6-15.5,5.1c-3.6,1.8-6.7,4.3-9.2,7.2C40.6,113.2,42.9,111.6,45.4,110.3"/>
			<path id="Fill-41" class="st1" d="M109.1,105.3c-0.9,1.6-1.9,3.2-3.1,4.6c-1.2,1.4-2.6,2.7-4,3.8c-0.3,0.2-0.6,0.5-0.9,0.7
				c-1.6,1.2-3.8,2.1-5.9,2.3c-1.5,0.1-3.1-0.1-4.6-0.3c-1.3-0.2-2.6-0.4-3.8-0.9c-2.9-1.1-4.2-3.8-5.5-6.5c-1-2.1-2.1-4.3-3.1-6.4
				c-0.6-1.3-1.3-2.7-1.8-4.1c-1.2-3.4-1.5-7.1-1.3-10.7c0.2-3.8,1-7.5,1.7-11.3c0.6-3.1,2.1-5.7,4.4-7.7c0.9-0.8,1.9-1.5,3-2.1
				c3.9-2.1,8.5-2.6,13-2.5c1.6,0,3.3,0.1,4.9,0.5c4,0.9,7.6,3.6,9.6,7.3c0.8,1.5,1.4,3.2,1.8,4.8c0.4,1.4,0.7,2.8,0.8,4.2
				c0.8,7.2-0.6,14.3-3.7,20.8C110.4,103.1,109.8,104.2,109.1,105.3"/>
			<path id="Fill-43" class="st0" d="M114.6,59.5c0.4,1.9,0.4,3.8,0.1,5.7c-0.3,1.9-0.9,3.8-1.1,5.7c-0.2,2.9,0.8,5.8,0.1,8.6
				c-0.3,1.1-0.8,2.2-1.2,3.3c-0.1,0.3-0.2,0.7-0.3,1c-0.3,1.1,0,2.1,0,3.2c0,1.1-0.2,2.3-0.3,3.4c-0.2,1.4-0.4,2.9-1,4.3
				c-0.8,2.2-2.4,4.1-3.5,6.2c-1.8,3.5-2.5,7.7-5.1,10.8c-1.8,2.1-5.3,3.5-8,3.5c-3.1-0.1-6.6-0.3-8.7-2.9c-0.8-1-1.3-2.3-1.7-3.6
				c-0.8-2.8-1.3-5.6-2.1-8.4c-0.8-2.8-2.1-5.4-2.6-8.3C79,90.6,79,89.2,79,87.8c0.1-2.1,0.8-4.3,0.8-6.4c0-1.2-0.6-2.3-0.4-3.5
				c0.1-0.9,0.8-1.7,1.3-2.5c1.2-1.7,2-3.6,2.3-5.7c0.4-2.6,0.1-5.3,0.1-8c0.1-2,0.4-4.1,1.4-5.8c1.1-1.9,2.9-3,4.9-3.8
				c5.8-2.5,12.5-2.6,18.3-0.2C111.1,53.4,113.9,55.9,114.6,59.5"/>
			<path id="Fill-45" class="st1" d="M93.3,79c0.5,0.5,0.8,1.3,0.9,2c0.1,0.7,0.1,1.5,0,2.2c-0.2,2.6-0.7,5.1-1.4,7.6
				c-0.5,1.7-1,1.7-1.6,2c-1.1,0.7-1,2.4,0.2,2.9c0.2,0.1,0.4,0.1,0.6,0.2c1,0.2,2,0.4,3,0.6c-0.7-1.1-0.5-2.5-0.3-3.7
				c0.4-3.1,0.6-6.2,0.8-9.3c0.1-1.2,0.2-2.6-0.6-3.4C94,79.2,93.3,79,93.3,79"/>
			<path id="Fill-47" class="st5" d="M88.1,103c0,0,1.4,2.6,5.1,3.2c3.7,0.7,6.3-1,7.3-2.1L88.1,103z"/>
			<path id="Fill-49" class="st0" d="M86.3,101.6c0,0,6.9,7.5,15.8,1.7L86.3,101.6z"/>
			<path id="Fill-51" class="st5" d="M85.8,101.2c2.2,0.3,4.4,0.3,6.5,0c0.3,0,0.5-0.1,0.8,0c0.5,0.1,0.9,0.4,1.3,0.5
				c0.7,0.1,1.5-0.3,2.2-0.2c0.3,0,0.6,0.2,0.8,0.3c1.6,0.8,3.4,1.3,5.3,1.5c-1.7,0.4-3.7,0.6-5.5,0.6c-0.6,0-1.2,0.1-1.8,0
				c-0.6,0-1.2-0.1-1.8-0.3c-2.7-0.6-5.3-1.4-7.9-2.4C85.8,101.3,85.8,101.3,85.8,101.2"/>
			<path id="Fill-53" class="st0" d="M88.2,108.7c0.1-0.5,0.5-1,0.9-1.3c2.6-1.9,6.5-1.3,8.3,0.6c1,1,1.3,2.7,0.5,2.3
				c-1.2-0.6-1.3-1.2-3.9-1.7c-4-0.8-4.7,0.5-5.3,0.5C88.4,109.1,88.2,108.9,88.2,108.7C88.2,108.7,88.2,108.7,88.2,108.7"/>
			<g id="Group-57" transform="translate(81.322314, 46.057764)">
				<g id="Clip-56">
				</g>
				<defs>
					<filter id="Adobe_OpacityMaskFilter" filterUnits="userSpaceOnUse" x="0.1" y="0.2" width="39.5" height="21.8">
						<feColorMatrix  type="matrix" values="1 0 0 0 0  0 1 0 0 0  0 0 1 0 0  0 0 0 1 0"/>
					</filter>
				</defs>
				<mask maskUnits="userSpaceOnUse" x="0.1" y="0.2" width="39.5" height="21.8" id="mask-2_1_">
					<g class="st6">
						<polygon id="path-1_1_" class="st1" points="0.1,0.2 39.6,0.2 39.6,22 0.1,22 						"/>
					</g>
				</mask>
				<path id="Fill-55" class="st7" d="M33,16.3c1.2,0.1,2.4,0.8,2.9,2c0.5,1,0,2.5,0.6,3.3c0.4,0.5,1.2,0.5,1.6,0.1
					c0.5-0.4,0.8-1,0.9-1.5c1-3.1,0.4-6.6-1.3-9.4c-1.6-2.8-4.2-5-7.1-6.6c-2.9-1.5-6-2.5-9.2-3.2c-1.9-0.4-3.9-0.8-5.9-0.8
					c-3.8,0-7.6,1.1-11.2,2.6C2.6,3.6,1,4.6,0.6,6.7c-0.4,2.5-0.6,5-0.5,7.5c1.6-1.5,3.6-2.7,5.8-3.4c0.7-0.2,1.5-0.4,2.3-0.4
					c2.1,0.1,3.7,1.8,5.1,3.3c2,2.1,4.2,4.3,7.1,4.5c1.1,0.1,2.2-0.1,3.2-0.3c1.7-0.3,3.4-0.6,5-1C30,16.6,31.5,16.1,33,16.3"/>
			</g>
			<path id="Fill-58" class="st8" d="M104.1,59.4c-2.3,0.5-4.8,1.4-6.9,0.3c-2-1-2.9-3.5-4.8-4.7c-1.5-0.9-3.1-0.8-2.6-1.6
				c0.7-1,1.8-1.4,2.6-2.3c0.1-0.1,0.2-0.2,0.2-0.4c0-0.3-0.4-0.5-0.8-0.5c-2.9-0.3-3-0.2-3.1-0.4c-0.1-0.2,0-0.4,0.2-0.6
				c1-1.2,1.7-2,3.7-2.5c-2.2,0.5-4.4,1.2-6.5,2.1c-1.9,0.8-3.5,1.7-3.9,3.9c-0.3,1.6-0.5,3.3-0.5,5l0,2.5c1.5-1.3,3.9-2.8,5.8-3.4
				c0.7-0.2,1.5-0.4,2.3-0.4c2.1,0.1,3.7,1.8,5.1,3.3c2,2.1,4.2,4.3,7.1,4.5c1.1,0.1,2.2-0.1,3.2-0.3c1.7-0.3,3.4-0.6,5-1
				c0.4-0.1,0.7-0.2,1.1-0.3c1.1-0.9,2.2-1.7,3.5-2.3C111.4,58.8,107.5,58.6,104.1,59.4"/>
			<g id="Group-62" transform="translate(81.322314, 46.057764)">
				<g id="Clip-61">
				</g>
				<defs>
					<filter id="Adobe_OpacityMaskFilter_1_" filterUnits="userSpaceOnUse" x="0.1" y="0.2" width="39.5" height="17.2">
						<feColorMatrix  type="matrix" values="1 0 0 0 0  0 1 0 0 0  0 0 1 0 0  0 0 0 1 0"/>
					</filter>
				</defs>
				<mask maskUnits="userSpaceOnUse" x="0.1" y="0.2" width="39.5" height="17.2" id="mask-4_1_">
					<g class="st9">
						<polygon id="path-3_1_" class="st1" points="0.1,0.2 39.6,0.2 39.6,17.4 0.1,17.4 						"/>
					</g>
				</mask>
				<path id="Fill-60" class="st10" d="M0.6,7.6c0.4-2.1,2-3.1,3.9-3.9c3.6-1.5,7.3-2.6,11.2-2.6c2,0,4,0.4,5.9,0.8
					c3.2,0.7,6.3,1.6,9.2,3.2s5.4,3.7,7.1,6.6c1,1.8,1.6,3.8,1.7,5.8c0.1-2.3-0.6-4.6-1.7-6.7c-1.6-2.8-4.2-5-7.1-6.6
					c-2.9-1.5-6-2.5-9.2-3.2c-1.9-0.4-3.9-0.8-5.9-0.8c-3.8,0-7.6,1.1-11.2,2.6C2.6,3.6,1,4.6,0.6,6.7c-0.4,2-0.5,4.1-0.5,6.1
					C0.1,11.1,0.3,9.3,0.6,7.6"/>
			</g>
			<path id="Fill-63" class="st11" d="M117.6,65.8c-2.2,9.6-1.9,7.8-1.5,11.1c0.2,1.9,0,3.9-0.8,5.7c-0.1,0.3-0.3,0.6-0.2,0.9
				c0.1,0.3,0.4,0.6,0.7,0.5c0.8-3.3,2.4-6.4,4-9.4c1.5-2.8,2.6-5.2,1.9-10.3c-0.1-1.2-0.4-2.3-1-3.4c-0.2-0.3-0.3-0.4-0.7-0.2
				C118.6,61.6,117.6,64.1,117.6,65.8"/>
			<path id="Fill-65" class="st3" d="M117.5,68.2c0.3-1.3,0.4-2.7,0.2-4c-0.2-1.3-0.7-2.6-1.7-3.6c-1.4-1.4-3.5-1.9-5.5-1.9
				c-2.7-0.1-5.4,0.6-8,1.5c-1.2,0.4-2.5,0.9-3.8,1.1c-1.1,0.1-2.2,0.1-3.2-0.3c1.7,1.7,3.7,3.2,6,3.4c1.1,0.1,2.2-0.1,3.2-0.3
				c1.7-0.3,3.4-0.6,5-1c1.5-0.4,2.9-0.9,4.4-0.7c1.2,0.1,2.4,0.8,2.9,2c0.3,0.6,0.2,1.3,0.3,2c-0.2,0.7-0.3,1.3-0.4,1.9
				C117.4,68.2,117.5,68.2,117.5,68.2"/>
			<path id="Fill-67" class="st3" d="M94.2,80.1c-2.6-0.9-5.2-1.8-7.8-2.4c-1.2-0.3-2.5-0.5-3.7-0.1c-0.7,0.2-1.3,0.7-1.9,1.1
				l-1-0.3c0.9-1.3,1.9-2.4,3.2-3.3c0.4-0.3,0.9-0.6,1.5-0.8c0.9-0.2,1.9,0,2.8,0.3c0.9,0.3,1.8,0.6,2.6,0.9c1.3,0.5,2.6,1,3.8,1.8
				c0.2,0.1,0.4,0.2,0.4,0.4c0.1,0.1,0.1,0.3,0.1,0.4C94.2,78.8,94.2,79.6,94.2,80.1"/>
			<path id="Fill-69" class="st3" d="M113.5,83.3c-0.2-0.4-0.5-0.7-0.9-1c-1.2-1-1.7-1-5.8-1c-1.9,0-4.6,0-6.4,0
				c1-1.9,1.1-2.3,2.8-2.5c3.2-0.4,7.7,0,8.9,0.7c0.9,0.5,1.3,1.5,2.4,3.7L113.5,83.3z"/>
			<path id="Fill-71" class="st0" d="M142.7,195.3c4.2,2.8,9.1,4.5,14.1,5.1c1.8,0.2,3.8,0.3,5.5-0.5c1.7-0.8,3.2-4.5,2.9-6.3
				c0.7-2.7-0.2-5.6-1.7-7.9c-1.9-2.9-3.5-3.5-6.2-4.1c-6.6-1.3-13.4-2-19.8-4.2c-1.4-0.5-4.1-1.6-5.7-1.8c-1.8-0.2-5.3,0.3-7.2,1.6
				c-2.7,1.9-2.9,5.8-0.2,7.7c0.6,0.4,1.2,0.5,1.8,0.8C135.2,189.5,140.2,193.6,142.7,195.3"/>
			<path id="Fill-73" class="st2" d="M44.1,153.2c1.5,0.9,3,1.8,4.6,2.7c1.7-4.5,2.8-9.1,4.6-13.6c0.2-0.5,0.4-1,0.7-1.5
				C47.2,144.9,45.6,148.6,44.1,153.2"/>
			<path id="Fill-75" class="st3" d="M129.1,204.7c-1.4-27.9-2.2-35.5-0.1-44.4c1.9-8,2.8-6.3,4.6-21.9c0.4-3.9-1.8-7.3-5.2-9.1
				c-5.4-2.7-10.3-1.2-24.4-3.2c-17.2-2.4-37.9-9-48.9-6.7c-3.8,0.8-10.2,3.2-10.9,7.6c-1,5.5,0,11.1,1.5,16.5
				c1.5,5.4,3.4,10.7,4,16.2c0.3,2.7,0.4,5.5,0.4,8.3c0,12.2-0.4,24.3-0.8,36.5"/>
			<path id="Fill-77" class="st0" d="M12.9,177.2c1.7-3.7,7-5.5,11.1-5.3c4,0.2,7.9,1.6,11.9,2c10.1,1.2,25.7-4.5,29.7-0.1
				c1.2,1.3,1.3,3.3,0.7,4.9c-2.3,6.1-14.3,9.6-19.2,11.5c-10.2,3.9-19.8,9.6-30.5,11.7c-1.2,0.2-2.4,0.4-3.6,0.1
				c-2.6-0.7-3.9-3.6-4.4-6.3C7.7,189.4,9.8,182.9,12.9,177.2"/>
			<path id="Fill-79" class="st1" d="M66.3,174.8c-0.2-0.4-0.4-0.7-0.6-1c-3.1-3.3-12.8-0.9-21.7,0c-0.8,0.2-1.7,0.5-2.6,0.6
				c-2.4,0.5-4.8,0.6-7.2,0.4c-0.8-0.1-1.6-0.2-2.4-0.2c-2.7,0-5.2,1.5-7.1,3.4c-0.8,0.8-1.5,2-1.1,3c0.3,0.6,1,1,1.7,1.1
				c0.7,0.1,1.4-0.1,2.1-0.2c3.2-0.7,6.4-1.6,9.6-2c3.3-0.4,6.6-0.5,9.8,0.4c1.5,0.4,2.9,1,4.5,0.9c1.8-0.1,3.4-1.3,4.9-2.2
				c2.5-1.5,5.2-2.7,8.1-3.4C65,175.5,65.8,175.3,66.3,174.8"/>
			<path id="Fill-81" class="st0" d="M73.6,181.8c0.4,1,0.8,1.9,1.4,2.8c0.8,1.3,1.7,2.6,2.6,3.8c0.2,0.3,0.4,0.6,0.7,0.9
				c0.2,0.3,0.4,0.6,0.4,0.9c0,0.3-0.1,0.6-0.4,0.8c-0.2,0.2-0.5,0.3-0.8,0.4c-0.8,0.2-1.7,0-2.4-0.4c-0.7-0.4-1.3-1-1.8-1.7
				c-0.9-1.2-1.4-2.6-1.5-4.1c0-0.6,0-1.2,0.1-1.8c0.1-0.7,0.3-1.4,0.6-2c0.2-0.2,0.4-0.5,0.7-0.3c0.2,0.1,0.2,0.4,0.4,0.5"/>
			<path id="Fill-83" class="st12" d="M78.3,190.9c-0.7-0.1-1.3-0.6-1.7-1.2c-0.5-0.7-0.7-1.5-0.9-2.3c-0.2-0.8-0.3-1.6-0.4-2.4
				c-0.1-0.2-0.2-0.3-0.3-0.5c-0.2-0.4-0.4-0.7-0.6-1.1l-2.2,0c0.1,1,0.2,2,0.3,3c0.1,0.7,0.2,1.4,0.3,2.1c0.1,0.2,0.2,0.4,0.4,0.6
				c0.5,0.7,1.1,1.3,1.8,1.7c0.7,0.4,1.6,0.6,2.4,0.4C77.7,191.3,78,191.2,78.3,190.9C78.2,190.9,78.3,190.9,78.3,190.9"/>
			<path id="Fill-85" class="st0" d="M73.5,177.7c-0.5-1.7-1.9-3.1-3.5-3.8c-1.6-0.8-6.4-1.5-8.2-1.6c-6.3-0.6-9.9,1.9-15.9,5.1
				c-0.9,0.5-2,1.1-2.3,2.1c-0.3,0.9,0,2,0.7,2.7c0.8,0.9,1.9,1.5,4,2.8c2.1,1.2,3,1.6,5.6,1.6c6.9,0,10.6-2,15.1-3.1
				c0.9-0.2,1.7-0.4,2.5-0.8c1.6-0.9,2.5-2.8,2.1-4.6"/>
			<path id="Fill-87" class="st0" d="M70.1,175.7c0.8-0.1,1.6-0.1,2.3,0.3c0.7,0.5,1,1.3,1.2,2.1c1.1,4.1,1.3,8.3,1.2,12.6
				c0,0.7,0,1.3-0.3,1.9c-0.3,0.6-0.9,1-1.6,0.9c-0.7-0.2-1.1-1-1.3-1.7c-0.3-1-0.5-1.9-0.7-2.9c-0.1-0.7-0.2-1.4-0.4-2.1
				c-0.6-2.9-2.1-5.7-2.1-8.7c0-0.5,0-0.9,0.2-1.4C68.9,176.3,69.6,175.7,70.1,175.7"/>
			<path id="Fill-89" class="st12" d="M74.2,191.5c-0.2,0.2-0.4,0.3-0.7,0.3c-0.3-0.1-0.5-0.3-0.6-0.6c-0.6-1.3-0.7-2.7-1.1-4.1
				c-0.5-1.6-1.3-3.2-2.5-4.4c0.4,1.4,0.9,2.7,1.2,4.1c0.2,0.7,0.3,1.4,0.4,2.1c0.2,1,0.4,1.9,0.7,2.9c0.2,0.7,0.6,1.5,1.3,1.7
				c0.6,0.1,1.3-0.3,1.6-0.9c0.3-0.6,0.3-1.2,0.3-1.8C74.6,191,74.4,191.3,74.2,191.5"/>
			<path id="Fill-91" class="st0" d="M68.3,179.4c0.4,2.2,1.4,4.2,1.9,6.4c0.2,1,0.4,2.1,0.5,3.1c0.1,1,0.3,2,0.4,2.9
				c0.1,0.7,0.2,1.5-0.2,2c-0.4,0.5-1.2,0.7-1.8,0.5c-0.6-0.2-1.1-0.7-1.5-1.3c-0.3-0.6-0.5-1.2-0.7-1.9c-0.2-0.6-0.3-1.3-0.5-1.9
				c-0.2-0.8-0.4-1.6-0.7-2.4c-0.7-1.9-1.6-3.7-2.4-5.6c-0.3-0.7-0.5-1.5-0.6-2.3c0-0.8,0.2-1.6,0.7-2.2c0.7-0.7,1.9-0.9,2.8-0.5
				C67.3,176.8,68,178,68.3,179.4"/>
			<path id="Fill-93" class="st0" d="M63.1,180.1c1.7,3.8,2.7,7.7,3.8,11.7c0.2,0.7,0.3,1.6-0.2,2.2c-0.4,0.4-1.1,0.5-1.7,0.5
				c-0.5,0-1-0.1-1.5-0.4c-0.7-0.4-1.1-1.2-1.5-1.9c-1.5-2.8-2.9-5.6-4.4-8.4c-0.5-0.9-0.9-1.8-1.1-2.8c-0.2-1-0.1-2.1,0.5-2.9
				c0.7-0.9,2-1.4,3.2-1c1.1,0.3,2.3,2.1,2.6,3.2"/>
			<path id="Fill-95" class="st0" d="M56,180.5c2.3,3.5,3.7,7.4,5.1,11.3c0.2,0.6,0.4,1.3,0.1,1.8c-0.3,0.6-1.2,0.9-1.9,0.7
				c-0.7-0.2-1.2-0.7-1.7-1.3c-0.6-0.8-1.1-1.6-1.6-2.4c-0.3-0.5-0.6-0.9-1-1.3c-1-1-2.4-1.5-3.6-2.3c-0.9-0.6-1.7-1.3-2.3-2.1
				c-0.5-0.6-0.9-1.3-1.1-2c-0.2-0.7-0.1-1.6,0.3-2.2c0.3-0.5,0.8-0.9,1.3-1.1c1.8-0.9,4.8-1,5.9,1.1"/>
			<path id="Fill-97" class="st1" d="M45.8,177.3c-0.9,0.5-2,1.1-2.3,2.1c0,0.1-0.1,0.3-0.1,0.4c1.1,0.1,2.3,0.3,3.4,0.6
				c1.5,0.4,2.9,1,4.5,0.9c1.8-0.1,3.4-1.3,4.9-2.2c2.5-1.5,5.2-2.7,8.1-3.4c1.1-0.3,2.4-0.7,2.6-1.7c-0.5-0.5-1.1-0.9-1.7-1.2
				c-1.4-0.2-2.7-0.4-3.4-0.5C55.4,171.7,51.8,174.2,45.8,177.3"/>
			<path id="Fill-99" class="st13" d="M48.5,111.3C48.5,111.3,48.4,111.3,48.5,111.3C48.4,111.3,48.5,111.3,48.5,111.3"/>
			<path id="Fill-101" class="st13" d="M45.7,111.5c0.1,0,0.1,0,0.2,0C45.8,111.5,45.7,111.5,45.7,111.5"/>
			<path id="Fill-103" class="st13" d="M46.8,111.4C46.8,111.4,46.8,111.4,46.8,111.4C46.8,111.4,46.8,111.4,46.8,111.4"/>
			<path id="Fill-105" class="st13" d="M47.9,111.3C47.9,111.3,47.9,111.3,47.9,111.3C47.9,111.3,47.9,111.3,47.9,111.3"/>
			<path id="Fill-107" class="st13" d="M46.2,111.4c0,0,0.1,0,0.1,0C46.3,111.4,46.2,111.4,46.2,111.4"/>
			<path id="Fill-109" class="st13" d="M27.7,137.9c0-0.1,0.1-0.2,0.1-0.3C27.8,137.7,27.8,137.8,27.7,137.9"/>
			<path id="Fill-111" class="st13" d="M27.2,139.1c0-0.1,0.1-0.2,0.1-0.2C27.3,138.9,27.2,139,27.2,139.1"/>
			<path id="Fill-113" class="st13" d="M45.2,111.7c0,0,0.1,0,0.1,0C45.3,111.6,45.2,111.7,45.2,111.7"/>
			<path id="Fill-115" class="st1" d="M26.1,141.4C26.1,141.4,26.1,141.4,26.1,141.4c-4.2,8.2-9.7,15.8-12.2,24.7
				c-1,3.3-1.5,6.7-2.8,9.9c-1,2.5-2.4,4.7-3.4,7.2c-1,2.4-1.5,4.9-1.6,7.5c-0.1,3,0.5,6.1,2.4,8.4c2.3,2.8,4.8,3.3,7.2,2.5
				c-2.5-0.6-5-2.3-5.8-4.6c-0.7-1.9-0.6-4-0.3-5.9c1.5-8.4,5.3-11.2,7.1-15.7c1-2.5,1.2-5.3,1.9-8c2-8.3,7.8-15.1,12.6-22.3
				C29.5,143.8,27.7,142.6,26.1,141.4"/>
			<path id="Fill-117" class="st0" d="M109.3,181.8c-0.4,1-0.8,1.9-1.4,2.8c-0.8,1.3-1.7,2.6-2.6,3.8c-0.2,0.3-0.4,0.6-0.7,0.9
				c-0.2,0.3-0.4,0.6-0.4,0.9c0,0.3,0.1,0.6,0.4,0.8c0.2,0.2,0.5,0.3,0.8,0.4c0.8,0.2,1.7,0,2.4-0.4c0.7-0.4,1.3-1,1.8-1.7
				c0.9-1.2,1.4-2.6,1.5-4.1c0-0.6,0-1.2-0.1-1.8c-0.1-0.7-0.3-1.4-0.6-2c-0.2-0.2-0.4-0.5-0.7-0.3c-0.2,0.1-0.2,0.4-0.4,0.5"/>
			<path id="Fill-119" class="st12" d="M107.9,188.6c-0.6,0.5-1.2,0.9-1.9,1.2c-0.5,0.2-1.1,0.2-1.6,0c-0.1,0.1-0.1,0.3-0.1,0.4
				c0,0.3,0.1,0.6,0.4,0.8c0.2,0.2,0.5,0.3,0.8,0.4c0.8,0.2,1.7,0,2.4-0.4c0.7-0.4,1.3-1,1.8-1.7c0.8-1.1,1.4-2.5,1.5-3.8
				C110.2,186.5,109.1,187.6,107.9,188.6"/>
			<path id="Fill-121" class="st0" d="M109.5,177.7c0.5-1.7,1.9-3.1,3.5-3.8c1.6-0.8,3.4-1.1,5.2-1.2c4.4-0.4,9,0,13.1,1.7
				c1,0.4,1.9,0.9,2.9,1.4c1,0.5,1.9,1,2.9,1.5c0.9,0.5,2,1.1,2.3,2.1c0.3,0.9,0,2-0.7,2.7c-0.6,0.8-1.5,1.3-2.3,1.8
				c-0.6,0.3-1.1,0.7-1.7,1c-0.8,0.5-1.6,1-2.5,1.2c-1,0.3-2,0.4-3.1,0.4c-2.7,0-5.3-0.3-7.9-1c-2.4-0.6-4.7-1.5-7.2-2.1
				c-0.9-0.2-1.7-0.4-2.5-0.8c-1.6-0.9-2.5-2.8-2.1-4.6"/>
			<path id="Fill-123" class="st0" d="M112.8,175.7c-0.8-0.1-1.6-0.1-2.3,0.3c-0.7,0.5-1,1.3-1.2,2.1c-1.1,4.1-1.3,8.3-1.2,12.6
				c0,0.7,0,1.3,0.3,1.9c0.3,0.6,0.9,1,1.6,0.9c0.7-0.2,1.1-1,1.3-1.7c0.3-1,0.5-1.9,0.7-2.9c0.1-0.7,0.2-1.4,0.4-2.1
				c0.6-2.9,2.1-5.7,2.1-8.7c0-0.5,0-0.9-0.2-1.4C114,176.3,113.3,175.7,112.8,175.7"/>
			<path id="Fill-125" class="st0" d="M114.6,179.4c-0.4,2.2-1.4,4.2-1.9,6.4c-0.2,1-0.4,2.1-0.5,3.1c-0.1,1-0.3,2-0.4,2.9
				c-0.1,0.7-0.2,1.5,0.2,2c0.4,0.5,1.2,0.7,1.8,0.5c0.6-0.2,1.1-0.7,1.5-1.3c0.3-0.6,0.5-1.2,0.7-1.9c0.2-0.6,0.3-1.3,0.5-1.9
				c0.2-0.8,0.4-1.6,0.7-2.4c0.7-1.9,1.6-3.7,2.4-5.6c0.3-0.7,0.5-1.5,0.6-2.3c0-0.8-0.2-1.6-0.7-2.2c-0.7-0.7-1.9-0.9-2.8-0.5
				C115.7,176.8,114.9,178,114.6,179.4"/>
			<path id="Fill-127" class="st0" d="M119.6,179.8c-1.7,3.8-2.5,8-3.5,12c-0.2,0.7-0.3,1.6,0.2,2.2c0.4,0.4,1.1,0.5,1.7,0.5
				c0.5,0,1-0.1,1.5-0.4c0.7-0.4,1.1-1.2,1.5-1.9c1.5-2.8,2.9-5.6,4.4-8.4c0.5-0.9,0.9-1.8,1.1-2.8c0.2-1,0.1-2.1-0.5-2.9
				c-0.7-0.9-2-1.4-3.2-1c-1.1,0.3-2.3,2.1-2.6,3.2"/>
			<path id="Fill-129" class="st0" d="M126.8,180.6c-2.3,3.5-3.5,7.3-4.9,11.2c-0.2,0.6-0.4,1.3-0.1,1.8c0.3,0.6,1.2,0.9,1.9,0.7
				c0.7-0.2,1.2-0.7,1.7-1.3c0.6-0.8,1.1-1.6,1.6-2.4c0.3-0.5,0.6-0.9,1-1.3c1-1,2.4-1.5,3.6-2.3c0.9-0.6,1.7-1.3,2.3-2.1
				c0.5-0.6,0.9-1.3,1.1-2c0.2-0.7,0.1-1.6-0.3-2.2c-0.3-0.5-0.8-0.9-1.3-1.1c-1.8-0.9-4.8-1-5.9,1.1"/>
			<path id="Fill-131" class="st11" d="M75.3,82.5c0.3,0.1,0.6-0.1,0.8-0.4c0.2-0.3,0.2-0.6,0.3-0.9c0.2-0.9,0.3-1.7,0.5-2.5
				c0.3-1.4,0.7-2.9,1.7-4c0.5-0.6,1.2-1.1,1.6-1.8c0.3-0.6,0.3-1.2,0.4-1.9c0.1-3.2-0.5-6.5,0.5-9.6c0.3-0.8,0.7-1.6,0.9-2.4
				c0.2-0.8,0.2-1.6,0.2-2.3c0-1.2,0.1-2.3,0.1-3.5c0-0.6,0.6-2.1-0.5-2.1c-0.4,0-0.8,0.2-1.1,0.5c-4.5,3.1-6.2,4.9-6.1,13.9
				c0,6,0,6.3,0.2,7.1c0.4,2,1.1,1.9,0.8,6.3C75.4,80,75.3,81.2,75.3,82.5"/>
			<path id="Fill-133" class="st1" d="M81.7,51.1c-0.4,0-0.8,0.2-1.1,0.5c-1.6,1.1-2.8,2-3.8,3.2c0.5-0.4,1.1-0.8,1.7-1.2
				c0.4-0.3,0.9-0.6,1.5-0.7c1.6-0.2,1,1.3,1.1,2c0.1,1.1,0.2,2.3,0.4,3.4c0.1,0.6,0.1,1.1,0.1,1.7c0.1-0.3,0.2-0.7,0.3-1
				c0.2-0.8,0.2-1.6,0.2-2.3c0-1.2,0.1-2.3,0.1-3.5C82.2,52.5,82.8,51.1,81.7,51.1"/>
			<path id="Fill-135" class="st5" d="M86.8,89.3c-3.1-0.5-5.2-3.4-4.7-6.4c0.5-3,3.4-5,6.5-4.5c3.1,0.5,5.2,3.4,4.7,6.4
				C92.8,87.7,89.9,89.8,86.8,89.3"/>
			<path id="Fill-137" class="st5" d="M105.1,92.2c-3.1-0.5-5.2-3.4-4.7-6.4c0.5-3,3.4-5,6.5-4.5c3.1,0.5,5.2,3.4,4.7,6.4
				C111,90.7,108.1,92.7,105.1,92.2"/>
			<path id="Fill-139" class="st14" d="M105.1,92.2c-3.1-0.5-5.2-3.4-4.7-6.4c0.5-3,3.4-5,6.5-4.5c3.1,0.5,5.2,3.4,4.7,6.4
				C111,90.7,108.1,92.7,105.1,92.2z M99.6,85.6c0,0,0.1,0,0.1,0c0,0.1,0,0.1,0,0.2L99.6,85.6z M86.8,89.3c-3.1-0.5-5.2-3.4-4.7-6.4
				c0.5-3,3.4-5,6.5-4.5c3.1,0.5,5.2,3.4,4.7,6.4C92.8,87.7,89.9,89.8,86.8,89.3z M112.6,87.5l-0.3-0.1c0.3-3.2-2-6.2-5.3-6.8
				c-3-0.5-5.9,1.2-6.9,3.9c0-0.3-0.1-0.7-0.3-1C99.5,83.3,99,83,98.5,83c-0.2,0-0.4,0-0.6,0c-0.2,0-0.4,0-0.6,0
				c-0.2,0-0.5-0.1-0.7-0.2c-0.2-0.1-0.5-0.2-0.8-0.2c-0.6-0.1-1.3,0-1.7,0.6c-0.1,0.1-0.1,0.3-0.2,0.4c-0.1-2.9-2.3-5.4-5.3-5.9
				c-3.3-0.5-6.5,1.6-7.2,4.8l-0.4-0.1c-0.2,0-0.4,0.1-0.5,0.3c0,0.2,0.1,0.4,0.3,0.5l0.4,0.1c-0.3,3.2,2,6.1,5.3,6.7
				c3.3,0.5,6.4-1.5,7.2-4.7c0.2,0,0.3-0.1,0.4-0.2c0.1-0.2,0.2-0.3,0.2-0.5c0-0.1,0-0.2,0.1-0.4c0-0.2,0.1-0.5,0.2-0.6
				c0.2-0.3,0.7-0.4,1-0.3c0.2,0,0.4,0.1,0.7,0.2c0.3,0.1,0.5,0.2,0.8,0.2c0.2,0,0.4,0,0.7,0c0.2,0,0.3,0,0.5,0
				c0.3,0,0.6,0.1,0.8,0.3c0.2,0.3,0.2,0.7,0,1.3c0,0.1-0.1,0.3,0,0.5c0.1,0.2,0.2,0.3,0.3,0.4c0,0,0,0,0.1,0
				c-0.3,3.2,2,6.1,5.3,6.7c3.3,0.5,6.4-1.5,7.1-4.6l0.3,0.1c0.2,0,0.4-0.1,0.5-0.3C112.9,87.8,112.8,87.5,112.6,87.5z"/>
			<path id="Fill-141" class="st15" d="M48,185.5c-0.9-1.4-1.2-3.1-0.9-4.8c0.3-1.6,1.2-3.1,2.3-4.3l-3.5,0
				c-3.2,3.7-2.5,9.4,0.2,11.6c1.2,1,2.6,1.3,4,1.2c0.7-0.3,1.5-0.5,2.3-0.8C50.4,188.1,49,187,48,185.5"/>
			<path id="Fill-143" class="st11" d="M49.9,177.2c4.9-4.1,6.5-4.4,6-5.3c-0.2-0.3-0.6-0.4-1-0.4c-2-0.1-3.5,0.1-4.5,0.5
				c-1.6,0.6-4.9,3.5-5.5,4.2c-0.2,0.3-0.4,0.6-0.6,1c0,0.1-0.1,0.3,0,0.4c0.1,0.1,0.2,0.1,0.3,0.1C48,177.9,49.2,177.9,49.9,177.2"
				/>
			<path id="Fill-145" class="st16" d="M49.4,176.1c3.5-3,5.3-3.9,5.9-4.6c-0.1,0-0.3,0-0.4,0c-2-0.1-3.5,0.1-4.5,0.5
				c-1.6,0.6-4.9,3.5-5.5,4.2c-0.1,0.1-0.2,0.3-0.3,0.4C47.6,176.8,48.8,176.8,49.4,176.1"/>
			<path id="Fill-147" class="st12" d="M66.6,191c-0.2,0.6-0.5,1.3-1.1,1.5c-2.3,0.9-4.5-4.9-8.1-9.3l-0.1,0
				c0.1,0.2,0.2,0.4,0.3,0.6c1.5,2.8,2.9,5.6,4.4,8.4c0.4,0.7,0.8,1.5,1.5,1.9c0.4,0.3,1,0.4,1.5,0.4c0.6,0,1.3,0,1.7-0.5
				c0.5-0.6,0.4-1.5,0.2-2.2C66.8,191.5,66.7,191.3,66.6,191"/>
			<path id="Fill-149" class="st12" d="M71,190.7c-0.1,0.4-0.1,0.7-0.3,1c-0.3,0.5-1.1,0.9-1.6,0.6c-0.3-0.2-0.5-0.5-0.7-0.8
				c-1.4-2.5-2.2-5.3-3.8-7.6c0.4,1,0.9,1.9,1.2,2.9c0.3,0.8,0.5,1.6,0.7,2.4c0.2,0.6,0.3,1.3,0.5,1.9c0.2,0.7,0.4,1.3,0.7,1.9
				c0.3,0.6,0.8,1.1,1.5,1.3c0.6,0.2,1.4,0,1.8-0.5c0.4-0.6,0.3-1.3,0.2-2L71,190.7z"/>
			<path id="Fill-151" class="st12" d="M61,191.7c0,0.5-0.2,1-0.7,1.1c-0.3,0.1-0.7-0.1-1-0.3c-1.7-1.2-2.3-3.4-3.9-4.7
				c-1.4-1.2-3.3-1.6-5.2-1.7c0.4,0.3,0.7,0.6,1.2,0.9c1.2,0.8,2.6,1.3,3.6,2.3c0.4,0.4,0.7,0.8,1,1.3c0.5,0.8,1,1.7,1.6,2.4
				c0.4,0.6,1,1.1,1.7,1.3c0.7,0.2,1.6,0,1.9-0.7C61.5,193.1,61.3,192.4,61,191.7C61.1,191.8,61,191.7,61,191.7"/>
			<path id="Fill-153" class="st12" d="M110,193.5c0.7-0.2,1.1-1,1.3-1.7c0.3-1,0.5-1.9,0.7-2.9c0.1-0.7,0.2-1.4,0.4-2.1
				c0.4-1.8,1.1-3.6,1.6-5.3c-1.6,2.1-2.5,4.7-3.3,7.3c-0.3,0.9-0.5,1.7-1,2.5c-0.1,0.2-0.3,0.4-0.6,0.4c-0.1,0-0.2-0.1-0.3-0.3
				c-0.3-0.4-0.5-0.8-0.7-1.2c0,0.2,0,0.4,0,0.6c0,0.7,0,1.3,0.3,1.9C108.7,193.2,109.4,193.6,110,193.5"/>
			<path id="Fill-155" class="st12" d="M119,182.7c-2.1,2.4-3.4,5.5-4.6,8.5c-0.3,0.7-0.9,1.6-1.7,1.5c-0.5-0.1-0.8-0.6-0.9-1.2
				c0,0.1,0,0.2,0,0.3c-0.1,0.7-0.2,1.5,0.2,2c0.4,0.5,1.2,0.7,1.8,0.5c0.6-0.2,1.1-0.7,1.5-1.3c0.3-0.6,0.5-1.2,0.7-1.9
				c0.2-0.6,0.3-1.3,0.5-1.9c0.2-0.8,0.4-1.6,0.7-2.4C117.7,185.4,118.4,184.1,119,182.7"/>
			<path id="Fill-157" class="st12" d="M124.1,186.1c-2.1,2-3.4,4.8-5.7,6.5c-0.2,0.2-0.5,0.3-0.7,0.4c-0.5,0.1-0.9-0.3-1.2-0.7
				c-0.1-0.3-0.2-0.6-0.3-0.9c0,0.2-0.1,0.3-0.1,0.5c-0.2,0.7-0.3,1.6,0.2,2.2c0.4,0.4,1.1,0.5,1.7,0.5c0.5,0,1-0.1,1.5-0.4
				c0.7-0.4,1.1-1.2,1.5-1.9C121.9,190.1,123,188.1,124.1,186.1"/>
			<path id="Fill-159" class="st12" d="M127.7,187.9c-1.2,1.1-2.1,2.4-3.2,3.6c-0.5,0.5-1,1-1.6,1.1c-0.4,0.1-0.8-0.1-1.1-0.3
				c-0.1,0.5-0.2,0.9,0,1.3c0.3,0.6,1.2,0.9,1.9,0.7c0.7-0.2,1.2-0.7,1.7-1.3c0.6-0.8,1.1-1.6,1.6-2.4c0.3-0.5,0.6-0.9,1-1.3
				c0.9-0.9,2.2-1.4,3.3-2.1c0.3-0.4,0.5-0.7,0.8-1C130.4,186,128.8,186.8,127.7,187.9"/>
			<path id="Fill-161" class="st1" d="M137.2,177.4c0,0-0.1,0-0.1-0.1c-1-0.5-1.9-1-2.9-1.5c-0.9-0.5-1.9-1-2.9-1.4
				c-4.1-1.7-8.7-2.1-13.1-1.7c-0.4,0-0.8,0.1-1.2,0.1c-0.8,0.2-1.6,0.5-2.3,1c-0.3,0.2-0.6,0.5-0.4,0.8c0.1,0.1,0.2,0.2,0.3,0.3
				c1.5,0.9,3.4,0.9,4.9,1.6c0.9,0.4,1.7,1.1,2.7,1.5c0.9,0.3,1.8,0.4,2.7,0.6c1.4,0.4,2.6,1.4,3.6,2.5c0.4,0.5,0.8,0.9,1.3,1.3
				c0.5,0.3,1.2,0.5,1.7,0.3c0.6-0.2,1-0.9,1.6-1.2c0.5-0.2,1-0.2,1.5-0.1c4.3,0.6,8,3.5,12.1,5.1c0.5,0.2,1.2,0.4,1.7,0.2
				c1-0.3,1.3-1.7,0.9-2.7c-0.5-1-1.5-1.6-2.4-2.1c-2.1-1.2-4.3-2.4-6.4-3.6c-1-0.3-2-0.6-3-0.9
				C137.4,177.4,137.3,177.4,137.2,177.4"/>
			<path id="Fill-163" class="st17" d="M205.6,204.9H60.3c-1.3,0-2.2-1.2-1.9-2.4l1.7-6.5c0.2-0.8,1-1.4,1.8-1.4h138.6
				c1.1,0,2.1,0.6,2.7,1.5l3.9,6.2C207.7,203.5,206.9,204.9,205.6,204.9"/>
			<path id="Fill-165" class="st8" d="M207.3,203.2v2.8c0.1,0.9-0.6,1.8-1.7,1.8H60.3c-1.3,0-2.2-1.2-1.9-2.4v-2.7L207.3,203.2z"/>
			<polygon id="Fill-167" class="st3" points="130.2,218.8 70,218.8 74.2,194.6 126.5,194.6 			"/>
			<polygon id="Fill-169" class="st1" points="128.5,217 70.3,217 74.2,194.6 125.2,194.6 			"/>
			<path id="Fill-171" class="st18" d="M97,196.3c-0.2,0-0.4-0.1-0.4-0.2c0-0.1,0.1-0.2,0.4-0.2c0.9,0,1.9-0.1,2.8-0.1h0
				c0.3,0,0.5,0.1,0.5,0.2c0,0.1-0.2,0.2-0.5,0.2C98.8,196.2,97.9,196.2,97,196.3C97,196.3,97,196.3,97,196.3 M105.2,196.4
				c0,0-0.1,0-0.1,0c-0.9-0.1-1.8-0.1-2.6-0.2c-0.3,0-0.4-0.1-0.4-0.2c0-0.1,0.3-0.2,0.5-0.2c0.9,0,1.9,0.1,2.8,0.2
				c0.2,0,0.4,0.1,0.3,0.2C105.6,196.4,105.4,196.4,105.2,196.4 M91.7,196.8c-0.2,0-0.3,0-0.4-0.1c-0.1-0.1,0-0.2,0.3-0.2
				c0.9-0.1,1.8-0.3,2.7-0.4c0.2,0,0.5,0,0.6,0.1c0.1,0.1-0.1,0.2-0.3,0.2c-0.9,0.1-1.7,0.2-2.6,0.3
				C91.8,196.8,91.7,196.8,91.7,196.8 M110.3,197.2c-0.1,0-0.2,0-0.2,0c-0.8-0.2-1.6-0.3-2.5-0.5c-0.2,0-0.4-0.1-0.3-0.2
				c0.1-0.1,0.4-0.1,0.6-0.1c0.9,0.1,1.7,0.3,2.6,0.5c0.2,0,0.3,0.2,0.2,0.2C110.6,197.2,110.5,197.2,110.3,197.2 M86.8,197.9
				c-0.1,0-0.3,0-0.4-0.1c-0.1-0.1-0.1-0.2,0.1-0.3c0.8-0.2,1.6-0.4,2.4-0.6c0.2-0.1,0.5,0,0.6,0.1c0.1,0.1,0,0.2-0.2,0.3
				c-0.8,0.2-1.6,0.4-2.3,0.6C87,197.9,86.9,197.9,86.8,197.9 M114.9,198.5c-0.1,0-0.2,0-0.3-0.1c-0.7-0.2-1.4-0.5-2.1-0.7
				c-0.2-0.1-0.3-0.2-0.1-0.3c0.1-0.1,0.4-0.1,0.6,0c0.8,0.2,1.5,0.5,2.2,0.7c0.2,0.1,0.2,0.2,0,0.3
				C115.1,198.5,115,198.5,114.9,198.5 M82.6,199.5c-0.1,0-0.2,0-0.3,0c-0.2-0.1-0.2-0.2,0-0.3c0.6-0.3,1.3-0.6,2-0.9
				c0.2-0.1,0.5-0.1,0.7,0c0.2,0.1,0.2,0.2,0,0.3c-0.7,0.3-1.3,0.5-1.9,0.8C82.9,199.5,82.8,199.5,82.6,199.5 M118.6,200.3
				c-0.2,0-0.3,0-0.4-0.1c-0.5-0.3-1.1-0.6-1.7-0.9c-0.2-0.1-0.2-0.2,0-0.3c0.2-0.1,0.5-0.1,0.7,0c0.6,0.3,1.2,0.6,1.8,0.9
				c0.1,0.1,0.1,0.2-0.1,0.3C118.8,200.3,118.7,200.3,118.6,200.3 M79.5,201.4c-0.1,0-0.1,0-0.2,0c-0.2,0-0.3-0.2-0.2-0.3
				c0.4-0.4,0.9-0.7,1.5-1c0.1-0.1,0.4-0.1,0.7-0.1c0.2,0.1,0.3,0.2,0.1,0.3c-0.5,0.3-1,0.7-1.4,1C79.8,201.4,79.7,201.4,79.5,201.4
				 M121.2,202.4c-0.2,0-0.4-0.1-0.5-0.1c-0.3-0.4-0.7-0.7-1.1-1.1c-0.1-0.1,0-0.2,0.2-0.3c0.2,0,0.5,0,0.6,0.1
				c0.4,0.4,0.8,0.7,1.2,1.1c0.1,0.1,0,0.2-0.3,0.2C121.3,202.4,121.3,202.4,121.2,202.4 M77.6,203.7
				C77.5,203.7,77.5,203.7,77.6,203.7c-0.3,0-0.5-0.1-0.4-0.2c0.2-0.4,0.5-0.8,0.8-1.2c0.1-0.1,0.4-0.2,0.6-0.1
				c0.2,0,0.4,0.1,0.3,0.2c-0.3,0.4-0.6,0.7-0.8,1.1C78,203.6,77.8,203.7,77.6,203.7 M122.5,204.7c-0.3,0-0.5-0.1-0.5-0.2
				c-0.1-0.4-0.3-0.8-0.5-1.2c-0.1-0.1,0.1-0.2,0.4-0.2c0.3,0,0.5,0.1,0.6,0.2c0.2,0.4,0.4,0.8,0.5,1.2
				C123,204.6,122.8,204.7,122.5,204.7C122.5,204.7,122.5,204.7,122.5,204.7 M77,206.1c-0.2,0-0.4-0.1-0.5-0.2c0-0.3,0-0.6,0-0.9
				c0-0.1,0-0.2,0.1-0.3c0-0.1,0.3-0.2,0.5-0.2c0.3,0,0.5,0.1,0.4,0.2c0,0.1,0,0.2-0.1,0.3c0,0.3-0.1,0.6,0,0.9
				C77.5,206,77.3,206.1,77,206.1C77,206.1,77,206.1,77,206.1 M122.6,206.4C122.6,206.4,122.6,206.4,122.6,206.4
				c-0.3,0-0.5-0.1-0.5-0.2c0.1-0.4,0.1-0.8,0-1.2c0-0.1,0.2-0.2,0.5-0.2c0.3,0,0.5,0.1,0.5,0.2c0.1,0.4,0,0.8,0,1.2
				C123,206.4,122.8,206.4,122.6,206.4 M77.9,208.5c-0.2,0-0.4-0.1-0.4-0.1c-0.3-0.4-0.5-0.8-0.7-1.2c0-0.1,0.1-0.2,0.4-0.2
				c0.3,0,0.5,0,0.6,0.2c0.2,0.4,0.4,0.8,0.6,1.2c0.1,0.1-0.1,0.2-0.3,0.3C78,208.5,78,208.5,77.9,208.5 M121.4,208.9
				c-0.1,0-0.1,0-0.2,0c-0.3,0-0.4-0.2-0.3-0.3c0.3-0.4,0.6-0.8,0.8-1.2c0.1-0.1,0.3-0.2,0.6-0.1c0.3,0,0.4,0.1,0.4,0.3
				c-0.2,0.4-0.5,0.8-0.8,1.2C121.8,208.8,121.6,208.9,121.4,208.9 M80.3,210.8c-0.2,0-0.3,0-0.4-0.1c-0.5-0.4-1-0.7-1.4-1.1
				c-0.1-0.1,0-0.2,0.3-0.3c0.3-0.1,0.5,0,0.7,0.1c0.4,0.4,0.8,0.7,1.4,1.1c0.1,0.1,0.1,0.2-0.2,0.3
				C80.5,210.8,80.4,210.8,80.3,210.8 M118.7,211.1c-0.1,0-0.2,0-0.3,0c-0.2-0.1-0.3-0.2-0.1-0.3c0.5-0.3,1-0.7,1.5-1.1
				c0.1-0.1,0.4-0.1,0.7-0.1c0.2,0.1,0.3,0.2,0.2,0.3c-0.5,0.4-1,0.8-1.5,1.1C119,211.1,118.9,211.1,118.7,211.1 M84.1,212.7
				c-0.1,0-0.2,0-0.3-0.1c-0.7-0.3-1.4-0.6-2.1-0.9c-0.2-0.1-0.1-0.2,0.1-0.3c0.2-0.1,0.5-0.1,0.7,0c0.6,0.3,1.3,0.6,2,0.9
				c0.2,0.1,0.2,0.2,0,0.3C84.4,212.7,84.2,212.7,84.1,212.7 M114.7,213c-0.1,0-0.3,0-0.4-0.1c-0.2-0.1-0.2-0.2,0.1-0.3
				c0.7-0.3,1.5-0.6,2.1-0.9c0.2-0.1,0.5-0.1,0.7,0c0.2,0.1,0.2,0.2,0,0.3c-0.7,0.3-1.4,0.6-2.2,0.9C115,213,114.9,213,114.7,213
				 M89,214.2c-0.1,0-0.2,0-0.2,0c-0.9-0.2-1.8-0.4-2.6-0.7c-0.2-0.1-0.3-0.2-0.1-0.3c0.2-0.1,0.5-0.1,0.7-0.1
				c0.8,0.2,1.6,0.5,2.5,0.7c0.2,0.1,0.3,0.2,0.2,0.3C89.4,214.2,89.2,214.2,89,214.2 M109.7,214.4c-0.2,0-0.4,0-0.5-0.1
				c-0.1-0.1,0-0.2,0.2-0.3c0.9-0.2,1.8-0.4,2.6-0.6c0.2-0.1,0.5,0,0.7,0.1c0.2,0.1,0.1,0.2-0.1,0.3c-0.9,0.2-1.8,0.5-2.7,0.6
				C109.8,214.4,109.7,214.4,109.7,214.4 M94.7,215.1c0,0-0.1,0-0.1,0c-1-0.1-2-0.2-3-0.4c-0.3,0-0.4-0.2-0.3-0.3
				c0.1-0.1,0.4-0.2,0.7-0.1c0.9,0.1,1.9,0.3,2.9,0.4c0.3,0,0.4,0.1,0.4,0.3C95.2,215,95,215.1,94.7,215.1 M103.9,215.2
				c-0.2,0-0.5-0.1-0.5-0.2c0-0.1,0.1-0.2,0.4-0.3c1-0.1,2-0.2,2.9-0.3c0.3,0,0.6,0,0.6,0.1c0.1,0.1-0.1,0.2-0.3,0.3
				C106,215,105,215.1,103.9,215.2C103.9,215.2,103.9,215.2,103.9,215.2 M99.7,215.3c-0.7,0-1.3,0-2,0c-0.3,0-0.5-0.1-0.5-0.2
				c0-0.1,0.3-0.2,0.6-0.2c1,0,2,0,3,0c0.3,0,0.5,0.1,0.5,0.2c0,0.1-0.2,0.2-0.5,0.2C100.5,215.3,100.1,215.3,99.7,215.3"/>
			<path id="Fill-173" class="st18" d="M102.5,198.2c-0.1,0-0.1,0-0.2,0c-0.8-0.1-1.6-0.2-2.4-0.2c-0.1,0-0.1,0-0.1,0
				c-0.3,0-0.5-0.1-0.5-0.2c0-0.1,0.2-0.2,0.5-0.2c0.1,0,0.1,0,0.2,0c0.9,0,1.9,0.1,2.7,0.2c0.2,0,0.4,0.1,0.3,0.2
				C102.8,198.2,102.7,198.2,102.5,198.2z M94.8,198.9c-0.1,0-0.2,0-0.3-0.1c-0.2-0.1-0.2-0.2,0-0.3c0.7-0.3,1.5-0.5,2.4-0.7
				c0.2,0,0.5,0,0.6,0.1c0.1,0.1,0,0.2-0.2,0.2c-0.8,0.1-1.5,0.3-2.1,0.6C95,198.9,94.9,198.9,94.8,198.9z M106.5,199.7
				c-0.2,0-0.4,0-0.4-0.1c-0.4-0.3-0.9-0.6-1.5-0.9c-0.2-0.1-0.2-0.2,0-0.3c0.2-0.1,0.5-0.1,0.7,0c0.7,0.3,1.3,0.6,1.7,1
				c0.1,0.1,0,0.2-0.2,0.2C106.6,199.7,106.5,199.7,106.5,199.7z M92.7,201c-0.3,0-0.5-0.1-0.5-0.2l0,0c0-0.4,0.2-0.8,0.6-1.1
				c0.1-0.1,0.4-0.1,0.6-0.1s0.4,0.1,0.3,0.2c-0.3,0.3-0.5,0.7-0.5,1l0,0C93.1,200.9,92.9,201,92.7,201L92.7,201z M106.6,202.1
				c-0.1,0-0.1,0-0.2,0c-0.2,0-0.4-0.2-0.3-0.3c0.3-0.3,0.5-0.7,0.5-1.1c0,0,0-0.1,0-0.1c0-0.1,0.2-0.2,0.5-0.2
				c0.3,0,0.5,0.1,0.5,0.2c0,0,0,0.1,0,0.1c0,0.4-0.2,0.8-0.5,1.2C107,202,106.8,202.1,106.6,202.1z M94.7,203.1
				c-0.1,0-0.2,0-0.3-0.1c-0.7-0.3-1.3-0.6-1.7-1c-0.1-0.1,0-0.2,0.3-0.3c0.2,0,0.5,0,0.6,0.1c0.3,0.3,0.8,0.6,1.5,0.9
				c0.2,0.1,0.2,0.2,0,0.3C95,203.1,94.9,203.1,94.7,203.1z M102.7,203.7c-0.2,0-0.4,0-0.4-0.1c-0.1-0.1,0-0.2,0.3-0.3
				c0.8-0.1,1.6-0.4,2.2-0.6c0.2-0.1,0.5-0.1,0.7,0c0.2,0.1,0.2,0.2,0,0.3c-0.7,0.3-1.6,0.5-2.5,0.7
				C102.8,203.7,102.8,203.7,102.7,203.7z M99.8,203.9c-1,0-2-0.1-2.9-0.2c-0.2,0-0.4-0.2-0.3-0.3c0.1-0.1,0.4-0.2,0.6-0.1
				c0.8,0.1,1.7,0.2,2.6,0.2h0c0.3,0,0.5,0.1,0.5,0.2C100.4,203.8,100.2,203.9,99.8,203.9L99.8,203.9z"/>
			<path id="Fill-175" class="st18" d="M98.3,205.4h-2.9c-0.3,0-0.5-0.1-0.5-0.2s0.2-0.2,0.5-0.2h2.9c0.3,0,0.5,0.1,0.5,0.2
				C98.8,205.3,98.6,205.4,98.3,205.4 M104.1,205.4h-2.9c-0.3,0-0.5-0.1-0.5-0.2c0-0.1,0.2-0.2,0.5-0.2h2.9c0.3,0,0.5,0.1,0.5,0.2
				C104.6,205.3,104.4,205.4,104.1,205.4 M109.7,206c-0.1,0-0.2,0-0.3,0c-0.7-0.2-1.6-0.4-2.5-0.5c-0.3,0-0.4-0.1-0.4-0.2
				c0.1-0.1,0.3-0.2,0.6-0.2c1,0.1,2,0.3,2.8,0.5c0.2,0.1,0.3,0.2,0.1,0.3C110,205.9,109.8,206,109.7,206 M89.9,206
				c-0.1,0-0.3,0-0.4-0.1c-0.2-0.1-0.1-0.2,0.1-0.3c0.9-0.3,1.8-0.5,2.8-0.6c0.3,0,0.5,0,0.6,0.1c0.1,0.1-0.1,0.2-0.4,0.2
				c-0.9,0.1-1.7,0.3-2.5,0.5C90.1,206,90,206,89.9,206 M112.6,208c-0.2,0-0.5-0.1-0.5-0.2c-0.1-0.4-0.4-0.8-0.9-1.1
				c-0.1-0.1-0.1-0.2,0.2-0.3c0.2-0.1,0.5,0,0.7,0.1c0.5,0.4,0.9,0.8,1,1.3C113.1,207.9,112.9,208,112.6,208
				C112.7,208,112.6,208,112.6,208 M87,208.1C86.9,208.1,86.9,208.1,87,208.1c-0.3,0-0.5-0.1-0.5-0.2l0,0c0.1-0.4,0.5-0.9,1-1.2
				c0.1-0.1,0.4-0.1,0.7-0.1c0.2,0.1,0.3,0.2,0.2,0.3c-0.5,0.3-0.8,0.7-0.9,1.1l0,0C87.4,208,87.2,208.1,87,208.1 M113.4,210.6
				c-0.3,0-0.5-0.1-0.5-0.2l-0.4-1.3c0-0.1,0.2-0.2,0.4-0.2c0.3,0,0.5,0.1,0.6,0.2l0.4,1.3C113.9,210.4,113.7,210.6,113.4,210.6
				C113.4,210.6,113.4,210.6,113.4,210.6 M86.1,210.6C86.1,210.6,86.1,210.6,86.1,210.6c-0.3,0-0.5-0.1-0.5-0.2l0.4-1.3
				c0-0.1,0.3-0.2,0.6-0.2c0.3,0,0.5,0.1,0.4,0.2l-0.4,1.3C86.6,210.5,86.4,210.6,86.1,210.6 M85.3,213.2
				C85.3,213.2,85.2,213.2,85.3,213.2c-0.3,0-0.5-0.1-0.5-0.2l0.4-1.3c0-0.1,0.3-0.2,0.6-0.2c0.3,0,0.5,0.1,0.4,0.2l-0.4,1.3
				C85.8,213.1,85.5,213.2,85.3,213.2 M114.2,213.2c-0.3,0-0.5-0.1-0.5-0.2l-0.4-1.3c0-0.1,0.2-0.2,0.4-0.2c0.3,0,0.5,0.1,0.6,0.2
				l0.4,1.3C114.7,213.1,114.5,213.2,114.2,213.2C114.2,213.2,114.2,213.2,114.2,213.2"/>
			<path id="Fill-177" class="st17" d="M200.5,195.8L190,127.6l1.2-0.3l-2.2-4.8c-1.2-3.1-4.3-5.3-7.7-5.3H84.5
				c-4.4,0-7.8,3.7-7.5,8.1l3,38.9c0,0.2,0,0.3,0.1,0.5l0,0l1,5.8l1.4-3.1c0.4,0.1,0.8,0.2,1.2,0.2h15.6c1.6,0,3.1-1.1,3.6-2.6
				l1.8-5.6c1.2-3.7,4.6-6.2,8.5-6.2h34.8c3.3,0,6.1,2.6,6.4,5.9l3.1,36.7h0v0l2.1,6.1v-6.1L200.5,195.8z"/>
			<path id="Fill-179" class="st1" d="M77.1,125.6c0.4-3.7,3.6-6.7,7.4-6.7h96.7c3.5,0,6.5,2.2,7.7,5.3l1.5,3.2l0.7-0.2l-2.2-4.8
				c-1.2-3.1-4.3-5.3-7.7-5.3H84.5c-4.4,0-7.8,3.7-7.5,8.1L77.1,125.6z"/>
			<path id="Stroke-181" class="st19" d="M93.2,176.9V189"/>
			<path id="Stroke-183" class="st20" d="M89.9,173.5v10.7c0,1.1,0.9,2,2,2h4.7"/>
			<path id="Fill-185" class="st8" d="M85.6,122.5h98c4.1,0,7.7,3,8.3,7.1l11.3,72.4h-43.6l-3.1-37.2c-0.3-3.4-3.1-6-6.5-6h-35.2
				c-3.9,0-7.4,2.5-8.6,6.3l-1.8,5.7c-0.5,1.6-2,2.6-3.6,2.6H84.8c-2,0-3.6-1.5-3.8-3.5l-3-39.4C77.6,126.2,81.1,122.5,85.6,122.5"
				/>
			<polygon id="Fill-187" class="st21" points="159.5,202 203.1,202 202.1,195.8 159,195.8 			"/>
			<path id="Fill-189" class="st12" d="M86,169.5c0,0.6-0.5,1.1-1.1,1.1s-1.1-0.5-1.1-1.1c0-0.6,0.5-1.1,1.1-1.1S86,168.8,86,169.5"
				/>
			<path id="Fill-191" class="st12" d="M102.2,169.5c0,0.6-0.5,1.1-1.1,1.1c-0.6,0-1.1-0.5-1.1-1.1c0-0.6,0.5-1.1,1.1-1.1
				C101.7,168.3,102.2,168.8,102.2,169.5"/>
			<path id="Fill-193" class="st12" d="M84.3,127.8c0,0.6-0.5,1.1-1.1,1.1c-0.6,0-1.1-0.5-1.1-1.1c0-0.6,0.5-1.1,1.1-1.1
				C83.8,126.6,84.3,127.1,84.3,127.8"/>
			<path id="Fill-195" class="st12" d="M187.3,127.8c0,0.6-0.5,1.1-1.1,1.1c-0.6,0-1.1-0.5-1.1-1.1c0-0.6,0.5-1.1,1.1-1.1
				C186.8,126.6,187.3,127.1,187.3,127.8"/>
			<path id="Fill-197" class="st12" d="M164.4,198.1c0,0.6-0.5,1.1-1.1,1.1c-0.6,0-1.1-0.5-1.1-1.1c0-0.6,0.5-1.1,1.1-1.1
				C163.9,197,164.4,197.5,164.4,198.1"/>
			<path id="Fill-199" class="st12" d="M200,198.1c0,0.6-0.5,1.1-1.1,1.1s-1.1-0.5-1.1-1.1c0-0.6,0.5-1.1,1.1-1.1
				S200,197.5,200,198.1"/>
			<path id="Fill-201" class="st14" d="M176.6,154.3c0,3.7-3,6.6-6.6,6.6c-3.7,0-6.6-3-6.6-6.6s3-6.6,6.6-6.6
				C173.6,147.6,176.6,150.6,176.6,154.3"/>
			<path id="Fill-203" class="st21" d="M154.8,132.6c-0.2-0.5-0.8-0.7-1.3-0.5l-8,3.5c-0.5,0.2-0.7,0.8-0.5,1.3l3.5,8
				c0.2,0.5,0.8,0.7,1.3,0.5l8-3.5c0.5-0.2,0.7-0.8,0.5-1.3C157.5,138.8,155.5,134.2,154.8,132.6"/>
			<path id="Fill-205" class="st1" d="M149.2,137.7c0.3-0.1,0.5-0.5,0.3-0.9c-0.1-0.3-0.5-0.5-0.9-0.3c-0.3,0.1-0.5,0.5-0.3,0.9
				C148.5,137.7,148.9,137.8,149.2,137.7"/>
			<path id="Fill-207" class="st1" d="M149.4,141.4c0,0.2,0.1,0.3,0.1,0.5c0.2,0.5,0.7,0.7,1.3,0.5c0.5-0.2,0.8-0.7,0.8-1.3l0.1,0.8
				l1-0.4l-0.4-2.5c-0.1-0.6,0-1,0.4-1.2c0.3-0.1,0.6,0,0.8,0.3c0,0.1,0.1,0.2,0.1,0.3l0.2,1.2c0,0.2,0.1,0.3,0.1,0.5
				c0.2,0.5,0.7,0.7,1.3,0.5c0.5-0.2,0.8-0.7,0.7-1.6l-0.5,0c0,0.6-0.1,0.8-0.2,0.8c-0.1,0.1-0.2,0-0.3-0.2c0-0.1-0.1-0.2-0.1-0.3
				l-0.2-1.1c0-0.3-0.1-0.5-0.2-0.7c-0.3-0.8-1-0.9-1.5-0.7c-0.5,0.2-0.8,0.9-0.9,1.5l-0.2-1l-1.5,0.7l0.1,0.9l0.7-0.3l0.3,1.9
				c0,0.9-0.6,1.2-0.7,1.2c-0.1,0-0.2,0-0.3-0.2c0-0.1-0.1-0.2-0.1-0.4l-0.5-2.9l-1.7,0.7l0.1,0.9l0.7-0.3L149.4,141.4z"/>
			<polygon id="Fill-209" class="st13" points="129.7,137 127.3,151.5 141.1,146.3 			"/>
			<path id="Stroke-211" class="st22" d="M149,119.7v-7.5"/>
			<path id="Fill-213" class="st18" d="M154.3,116c0.8,1.2-1.1,2.2-4.1,2.2c-3,0-6-1-6.6-2.2c-0.6-1.1,1.3-2.1,4.2-2.1
				C150.6,114,153.6,114.9,154.3,116"/>
			<path id="Fill-215" class="st18" d="M143.5,116c-1.3-8.2-1.3-16.4,0-24.5h10.8c1.5,8.2,1.4,16.4,0,24.5H143.5z"/>
			<path id="Fill-217" class="st3" d="M154.3,91.5c0.8,0.8-1.1,1.5-4.1,1.5c-3,0-6-0.7-6.6-1.5c-0.6-0.8,1.3-1.4,4.2-1.4
				C150.6,90,153.6,90.7,154.3,91.5"/>
			<path id="Stroke-219" class="st22" d="M149,91.3v-7.5"/>
			<path id="Fill-221" class="st23" d="M142.6,94.9c1.3,1,2.7,1.6,4.4,1.7c0.6,0,0.6-0.8,0-0.9c-1.4-0.1-2.7-0.6-3.8-1.4
				C142.8,93.9,142.2,94.5,142.6,94.9"/>
			<path id="Fill-223" class="st23" d="M143.8,97.8c1,0.4,2,0.7,3.1,0.8c0.6,0.1,0.5-0.8,0-0.9c-0.9-0.1-1.8-0.4-2.7-0.7
				C143.7,96.9,143.3,97.6,143.8,97.8"/>
			<path id="Fill-225" class="st23" d="M144.7,100.1c0.2,0.1,0.4,0.2,0.7,0.2c0.2,0,0.4-0.2,0.4-0.4c0-0.2-0.2-0.4-0.4-0.4
				c-0.1,0-0.2,0-0.2,0c-0.2-0.1-0.5-0.1-0.6,0.2C144.4,99.7,144.5,100,144.7,100.1"/>
			<path id="Fill-227" class="st23" d="M146.3,109.8c2.6,0.4,5.2,0.3,7.8-0.4c0.5-0.2,0.3-1-0.2-0.8c-2.4,0.7-4.8,0.8-7.3,0.4
				C146,108.9,145.8,109.7,146.3,109.8"/>
			<path id="Fill-229" class="st23" d="M151.9,111.8c0.6-0.1,1.1-0.2,1.7-0.4c0.5-0.2,0.3-1-0.2-0.8c-0.5,0.2-1.1,0.4-1.7,0.4
				c-0.2,0-0.4,0.3-0.3,0.5C151.4,111.8,151.7,111.9,151.9,111.8"/>
			<path id="Fill-231" class="st23" d="M152.9,113.8c0.1-0.1,0.3-0.1,0.4-0.2c0.2-0.1,0.4-0.3,0.3-0.5c-0.1-0.2-0.3-0.4-0.5-0.3
				c-0.1,0.1-0.3,0.1-0.4,0.2c-0.2,0.1-0.4,0.3-0.3,0.5C152.4,113.7,152.7,113.9,152.9,113.8"/>
			<path id="Fill-233" class="st11" d="M96.4,178.7c-2.1,0.5-4.2,0.5-6.3,0c-0.8-0.2-1.3-0.9-1.3-1.7v-3.5l8.9,0v3.5
				C97.7,177.8,97.1,178.5,96.4,178.7"/>
			<path id="Fill-235" class="st8" d="M96.4,178.1c-2.1,0.5-4.2,0.5-6.3,0c-0.8-0.2-1.3-0.9-1.3-1.7v0.6c0,0.8,0.5,1.5,1.3,1.7
				c2.1,0.5,4.2,0.5,6.3,0c0.8-0.2,1.3-0.9,1.3-1.7v-0.6C97.7,177.2,97.1,177.9,96.4,178.1"/>
			<path id="Fill-237" class="st21" d="M88.7,173.7c0,0.8,0.5,1.5,1.3,1.7c2.1,0.5,4.2,0.5,6.3,0c0.8-0.2,1.3-0.9,1.3-1.7v-0.2
				l-8.9,0V173.7z"/>
			<g id="Group-241" transform="translate(0.000000, 191.484816)">
				<g id="Clip-240">
				</g>
				<defs>
					<filter id="Adobe_OpacityMaskFilter_2_" filterUnits="userSpaceOnUse" x="0" y="0.1" width="24.8" height="37.9">
						<feColorMatrix  type="matrix" values="1 0 0 0 0  0 1 0 0 0  0 0 1 0 0  0 0 0 1 0"/>
					</filter>
				</defs>
				<mask maskUnits="userSpaceOnUse" x="0" y="0.1" width="24.8" height="37.9" id="mask-6_1_">
					<g class="st24">
						<polygon id="path-5_1_" class="st1" points="0,0.1 24.8,0.1 24.8,38.1 0,38.1 						"/>
					</g>
				</mask>
				<path id="Fill-239" class="st25" d="M24.8,35.2c0.2-14-0.7-22.3-3.1-35H3.2C1.1,13.1-0.1,21.5,0,35.6l0,0l0,0
					c-0.7,1.4,4.3,2.5,11.2,2.5c6.9,0,13-1.1,13.5-2.5C24.8,35.5,24.8,35.3,24.8,35.2"/>
			</g>
			<path id="Fill-242" class="st26" d="M18.2,206.2c1.1,0,2.1,0,3.2,0.1c0.6,0,1.3,0,1.9,0.2c0.9,0.4,1.6,1.6,0.7,2.3
				c-1.7,1.2-3.7,2.2-5.6,3.1c-0.5,0.2-0.1,1,0.4,0.8c1.7-0.8,3.4-1.7,4.9-2.7c0.9-0.6,2-1.2,1.8-2.4c-0.5-2.7-5.4-2.2-7.3-2.1
				C17.7,205.4,17.7,206.2,18.2,206.2"/>
			<path id="Fill-244" class="st0" d="M47.2,194.5H31.4c-1,12.1-1.6,20.3,0,33.3h0.1c1.3,1.9,13.2,1.9,15.7,0
				C48,215.2,48.3,207.6,47.2,194.5"/>
			<g id="Group-248" transform="translate(178.618654, 230.671746)">
				<g id="Clip-247">
				</g>
				<defs>
					<filter id="Adobe_OpacityMaskFilter_3_" filterUnits="userSpaceOnUse" x="0" y="0.2" width="23.2" height="5.9">
						<feColorMatrix  type="matrix" values="1 0 0 0 0  0 1 0 0 0  0 0 1 0 0  0 0 0 1 0"/>
					</filter>
				</defs>
				<mask maskUnits="userSpaceOnUse" x="0" y="0.2" width="23.2" height="5.9" id="mask-8_1_">
					<g class="st27">
						<polygon id="path-7_1_" class="st1" points="0,0.2 23.2,0.2 23.2,6.1 0,6.1 						"/>
					</g>
				</mask>
				<path id="Fill-246" class="st28" d="M23.1,3.1c0.8,1.6-3.8,3-10.2,3S0.7,4.8,0.1,3.1c-0.6-1.6,4-2.9,10.3-2.9
					C16.6,0.2,22.3,1.5,23.1,3.1"/>
			</g>
			<path id="Fill-249" class="st3" d="M227.1,226.8c-7.6,1.2-15.3,1.6-23,1.3c-0.6,0-0.6,0.8,0,0.9c7.8,0.3,15.6-0.2,23.3-1.3
				C227.9,227.5,227.6,226.7,227.1,226.8"/>
			<path id="Fill-251" class="st3" d="M218.7,213.4c-1.5-1.4,0.8-2.6,1.9-3c1-0.3,2.1-0.5,3.2-0.7c1-0.1,2-0.1,2.9,0.2
				c0.5,0.1,0.9,0.2,1.5,0.1c0.6-0.1,0.3-0.9-0.2-0.8c-1,0.2-2.1-0.4-3.1-0.4c-1.4,0-3,0.3-4.3,0.7c-1.8,0.6-4.6,2.6-2.4,4.5
				C218.5,214.4,219.1,213.8,218.7,213.4"/>
			<g id="Group-255" transform="translate(197.787485, 207.159588)">
				<g id="Clip-254">
				</g>
				<defs>
					<filter id="Adobe_OpacityMaskFilter_4_" filterUnits="userSpaceOnUse" x="0.1" y="0.2" width="47.9" height="20.6">
						<feColorMatrix  type="matrix" values="1 0 0 0 0  0 1 0 0 0  0 0 1 0 0  0 0 0 1 0"/>
					</filter>
				</defs>
				<mask maskUnits="userSpaceOnUse" x="0.1" y="0.2" width="47.9" height="20.6" id="mask-10_1_">
					<g class="st29">
						<polygon id="path-9_1_" class="st1" points="0.1,0.2 48.1,0.2 48.1,20.8 0.1,20.8 						"/>
					</g>
				</mask>
				<path id="Fill-253" class="st30" d="M0.1,7.4c0.3,2.5,2.6,4.9,4.4,6.5c2,1.9,4.4,3.3,6.9,4.4c3.2,1.3,6.6,2.1,10,2.3
					c3.2,0.2,6.5,0.3,9.6-0.5c2.1-0.6,5.4-1.9,5.7-4.4c0.2-2.4-1.7-4.5-3.6-5.6c-2.7-1.6-6-1.7-8.9-2.5c-1.5-0.4-4.7-1.3-4.8-3.3
					c-0.1-3,4.3-2.7,6.2-2.4c3.3,0.6,6.6,2,10.1,1.4c1.7-0.3,3.3-1.2,5-1.7C43,0.8,45.3,1,47.4,1.9c0.5,0.2,1-0.5,0.4-0.8
					c-2.6-1.2-5.3-1.2-7.9-0.3c-1.4,0.5-2.8,1.2-4.3,1.5c-1.9,0.3-3.8,0-5.7-0.5c-2.7-0.6-5.8-1.7-8.6-0.9c-1.9,0.6-3.5,2.7-2.3,4.6
					c1.4,2.2,5,2.8,7.4,3.3c3.1,0.6,6.9,1.2,8.8,4.2c0.4,0.7,0.8,1.6,0.7,2.4c-0.1,1.1-1,1.8-1.9,2.4c-1.4,0.9-3.1,1.4-4.8,1.7
					c-3.4,0.5-7.1,0.4-10.5-0.2c-3.7-0.6-7.3-1.8-10.5-3.8c-1.5-0.9-2.8-2-4.1-3.3c-1.2-1.3-3-3.2-3.2-5C1,6.8,0.1,6.8,0.1,7.4"/>
			</g>
			<path id="Fill-256" class="st18" d="M178.7,233.3c-0.9-14.9,0.2-23.8,2-39.2l19.1,0.5c1.9,15.2,2.8,24.2,2.1,39.4L178.7,233.3z"
				/>
			<path id="Fill-258" class="st3" d="M21.6,191.6c-0.4,0.8-4.9,1.5-10.1,1.5s-8.9-0.7-8.4-1.5c0.5-0.8,5-1.5,10-1.5
				S22,190.8,21.6,191.6"/>
			<path id="Fill-260" class="st11" d="M17.3,191.5v-5.9l-9.7,0.2v5.8c-0.3,0.4,1.7,0.8,4.4,0.8c2.7,0,5.1-0.4,5.3-0.8h0v0
				C17.3,191.6,17.3,191.5,17.3,191.5"/>
			<path id="Fill-262" class="st3" d="M17.3,185.6c-0.2,0.4-2.6,0.8-5.3,0.8s-4.7-0.3-4.4-0.8c0.3-0.4,2.6-0.8,5.3-0.8
				S17.5,185.2,17.3,185.6"/>
			<path id="Fill-264" class="st3" d="M47.2,194.4c-0.3,0.8-4.1,1.5-8.5,1.5c-4.4,0-7.7-0.7-7.3-1.5c0.4-0.8,4.2-1.5,8.5-1.5
				C44.2,192.9,47.5,193.6,47.2,194.4"/>
			<path id="Fill-266" class="st11" d="M43.9,194.3v-6.2l-9.1,0.2v6.2c0,0,0,0,0,0c-0.2,0.5,1.7,0.9,4.2,0.9c2.5,0,4.7-0.4,4.9-0.9
				C43.9,194.4,43.9,194.3,43.9,194.3"/>
			<path id="Fill-268" class="st21" d="M41.2,188.1l-4.6,0.2v6.9c0.7,0.1,1.5,0.1,2.3,0.1c1.3,0,2.6-0.1,3.5-0.3v-6.9L41.2,188.1z"
				/>
			<path id="Fill-270" class="st3" d="M43.9,188.1c-0.2,0.5-2.4,0.9-4.9,0.9c-2.5,0-4.4-0.4-4.2-0.9c0.2-0.5,2.4-0.8,4.9-0.8
				C42.2,187.3,44.1,187.7,43.9,188.1"/>
			<path id="Fill-272" class="st3" d="M199.7,194.3c0.7,1.1-3.1,2-8.4,2s-10.1-0.9-10.6-2c-0.5-1.1,3.3-1.9,8.4-1.9
				C194.3,192.4,199.1,193.3,199.7,194.3"/>
			<path id="Fill-274" class="st11" d="M194.6,194.3C194.6,194.3,194.6,194.3,194.6,194.3l0-9.6l-8.8-0.2v9.7c0,0,0,0,0,0.1v0l0,0
				c0,0,0,0,0,0c0.3,0.5,2.5,0.9,4.9,0.9C193.2,195.2,194.9,194.8,194.6,194.3"/>
			<path id="Fill-276" class="st21" d="M188.5,195.1c0.7,0.1,1.4,0.1,2.2,0.1c0.9,0,1.7-0.1,2.4-0.2v-10.3l-2.5-0.1l-2.1,0V195.1z"
				/>
			<path id="Fill-278" class="st3" d="M194.6,184.7c0.3,0.5-1.5,0.9-3.9,0.9c-2.5,0-4.7-0.4-4.9-0.9c-0.3-0.5,1.5-0.8,3.9-0.8
				C192.1,183.8,194.3,184.2,194.6,184.7"/>
			<path id="Fill-280" class="st0" d="M44.7,219.8c1.3,0.7,2.6,0.8,4,1c0.9,0.1,1.9,0.3,2.6,1.1c0.7,0.8,0.9,1.8,1.2,2.7
				c0.9,2.6,3.1,4.3,5.8,4.6c0.6,0.1,0.6-0.8,0-0.9c-1.8-0.2-3.5-1.2-4.4-2.8c-0.7-1.2-0.9-2.7-1.7-3.9c-1.7-2.4-4.8-1.3-7.1-2.6
				C44.7,218.8,44.2,219.6,44.7,219.8"/>
			<path id="Fill-282" class="st18" d="M190.8,206.9c3.7-1.3,7.6-2.6,10.6-5.2c0.8-0.7,2.1-1.9,1.1-3c-0.9-1.1-3.3-0.6-4.5-0.4
				c-0.6,0.1-0.3,0.9,0.2,0.8c0.8-0.1,1.7-0.2,2.5-0.1c1.4,0.2,0.9,1.3,0.2,2c-1,0.9-2.1,1.6-3.2,2.2c-2.3,1.3-4.7,2.1-7.2,2.9
				C190,206.2,190.2,207,190.8,206.9"/>
			<path id="Fill-284" class="st18" d="M200.5,206.8c0.3-0.2,0.6-0.4,1-0.6c0.3-0.2,0.6-0.4,0.6-0.7c0.1-0.3-0.1-0.6-0.3-0.8
				c-0.3-0.2-0.7-0.2-1-0.2c-0.2,0-0.4,0.2-0.4,0.4c0,0.2,0.2,0.5,0.4,0.4c0.1,0,0.2,0,0.3,0c0,0,0.2,0,0.2,0c0,0,0-0.1,0-0.1
				c0,0-0.2,0.1-0.2,0.1c-0.3,0.2-0.6,0.4-1,0.6C199.6,206.3,200,207,200.5,206.8"/>
			<path id="Fill-286" class="st18" d="M183.4,199.7c-1.8,0.1-3.9-0.1-5-1.7c-1.1-1.6-0.1-3.1-0.2-4.7c-0.1-2.5-2.8-3.1-4.9-2.9
				c-0.6,0-0.6,0.9,0,0.9c0.9-0.1,1.9-0.1,2.7,0.3c1.5,0.7,1.3,2,1.1,3.3c-0.2,1.1-0.3,2.1,0.2,3.1c1.1,2.3,3.7,2.8,6,2.7
				C183.9,200.6,183.9,199.7,183.4,199.7"/>
			<path id="Fill-288" class="st26" d="M12.8,197.3c3,0,5.9-0.3,8.8-0.8c0.6-0.1,0.3-0.9-0.2-0.8c-2.8,0.5-5.7,0.8-8.5,0.8
				C12.2,196.4,12.2,197.3,12.8,197.3"/>
			<path id="Fill-290" class="st26" d="M16.5,199.3c1.2,0,2.4-0.1,3.5-0.3c0.5-0.1,0.3-0.9-0.2-0.8c-1.1,0.2-2.2,0.3-3.3,0.3
				C16,198.4,16,199.3,16.5,199.3"/>
			<path id="Fill-292" class="st26" d="M13.2,216.5c3-0.2,5.9-0.5,8.9-0.9c0.6-0.1,0.3-0.9-0.2-0.8c-2.9,0.4-5.8,0.7-8.7,0.8
				C12.7,215.7,12.7,216.5,13.2,216.5"/>
			<path id="Fill-294" class="st26" d="M17.9,217.7c0.8-0.1,1.6-0.2,2.4-0.3c0.6-0.1,0.6-0.9,0-0.9c-0.8,0.1-1.6,0.2-2.4,0.3
				C17.4,216.9,17.4,217.8,17.9,217.7"/>
			<path id="Fill-296" class="st26" d="M15.7,220.6c2.5-0.3,4.9-0.7,7.3-1.2c0.5-0.1,0.3-1-0.2-0.8c-2.3,0.5-4.7,0.9-7.1,1.2
				C15.2,219.8,15.2,220.7,15.7,220.6"/>
			<path id="Fill-298" class="st26" d="M20.6,221.6l0.9-0.1c0.2,0,0.4-0.3,0.3-0.5c-0.1-0.2-0.3-0.3-0.5-0.3c-0.3,0-0.6,0.1-0.9,0.1
				c-0.2,0-0.4,0.3-0.3,0.5C20.1,221.5,20.4,221.6,20.6,221.6"/>
			<path id="Fill-300" class="st26" d="M22.1,223c0.3,0,0.7-0.1,1-0.1c0.5-0.1,0.3-1-0.2-0.8c-0.3,0.1-0.5,0.1-0.8,0.1
				C21.5,222.1,21.5,223,22.1,223"/>
			<path id="Fill-302" class="st16" d="M41.9,198.3c1.1,0,2.2-0.1,3.3-0.4c0.5-0.1,0.3-1-0.2-0.8c-1,0.2-2,0.4-3.1,0.3
				C41.4,197.5,41.4,198.3,41.9,198.3"/>
			<path id="Fill-304" class="st16" d="M43.4,200.4c0.4,0,0.9,0,1.3-0.1c0.2,0,0.4-0.3,0.3-0.5c-0.1-0.3-0.3-0.3-0.5-0.3
				c-0.4,0-0.7,0.1-1.1,0C42.8,199.5,42.8,200.4,43.4,200.4"/>
			<path id="Fill-306" class="st16" d="M39.9,208.3c2.4,0,4.9-0.2,7.3-0.5c0.6-0.1,0.3-0.9-0.2-0.8c-2.3,0.3-4.7,0.5-7,0.5
				C39.3,207.4,39.3,208.3,39.9,208.3"/>
			<path id="Fill-308" class="st16" d="M44.4,209.6c0.6,0,1.2-0.1,1.8-0.1c0.6,0,0.6-0.9,0-0.9c-0.6,0-1.2,0.1-1.8,0.1
				C43.8,208.8,43.8,209.7,44.4,209.6"/>
			<path id="Fill-310" class="st16" d="M46.1,211.1c0.1,0,0.2,0,0.2-0.1c0.2-0.1,0.4-0.3,0.3-0.5c-0.1-0.2-0.3-0.4-0.5-0.3
				c-0.1,0-0.2,0-0.2,0.1c-0.2,0.1-0.4,0.3-0.3,0.5C45.6,211,45.8,211.1,46.1,211.1"/>
			<path id="Fill-312" class="st16" d="M43.2,225c0.3-0.1,0.7-0.1,1-0.2c0.2,0,0.4-0.3,0.3-0.5c-0.1-0.2-0.3-0.3-0.5-0.3
				c-0.3,0.1-0.7,0.1-1,0.2c-0.2,0-0.4,0.3-0.3,0.5C42.7,224.9,43,225,43.2,225"/>
			<path id="Fill-314" class="st31" d="M190.5,205.4c2.1-0.2,4.2-0.5,6.3-1c0.5-0.1,0.3-1-0.2-0.8c-2,0.4-4,0.8-6,0.9
				C189.9,204.5,189.9,205.4,190.5,205.4"/>
			<path id="Fill-316" class="st31" d="M195.1,207.7c0.4,0,0.7,0,1.1-0.1c0.2,0,0.4-0.3,0.3-0.5c-0.1-0.2-0.3-0.3-0.5-0.3
				c-0.3,0-0.6,0.1-0.9,0.1C194.5,206.8,194.5,207.7,195.1,207.7"/>
			<path id="Fill-318" class="st31" d="M179.4,230.6c1.5,0.5,3.1,0.9,4.7,1c0.6,0.1,0.6-0.8,0-0.9c-1.5-0.2-3-0.5-4.5-1
				C179.1,229.6,178.9,230.4,179.4,230.6"/>
			<path id="Fill-320" class="st31" d="M179.5,229c0.3,0.1,0.6,0.1,0.9,0.2c0.2,0.1,0.5-0.1,0.5-0.3c0.1-0.2-0.1-0.5-0.3-0.5
				c-0.3-0.1-0.6-0.1-0.9-0.2c-0.2-0.1-0.5,0.1-0.5,0.3C179.1,228.7,179.2,229,179.5,229"/>
			<path id="Fill-322" class="st31" d="M195.2,226.2c2.1,0.1,4.4-0.7,6.4-1.2c0.5-0.2,0.3-1-0.2-0.8c-1.9,0.6-4.2,1.4-6.2,1.2
				C194.6,225.3,194.6,226.2,195.2,226.2"/>
			<path id="Fill-324" class="st31" d="M199.2,223.8c0.5-0.1,0.9-0.2,1.4-0.4c0.2-0.1,0.3-0.4,0.2-0.6c-0.1-0.2-0.4-0.2-0.6-0.2
				c-0.4,0.2-0.8,0.3-1.2,0.3c-0.2,0-0.4,0.3-0.3,0.5C198.8,223.8,199,223.9,199.2,223.8"/>
			<path id="Fill-326" class="st16" d="M31.7,201.5c1,0.2,2.1,0.3,3.1,0.4c0.6,0,0.6-0.8,0-0.9c-1-0.1-1.9-0.2-2.9-0.3
				C31.4,200.5,31.1,201.4,31.7,201.5"/>
			<path id="Fill-328" class="st16" d="M31.7,203.3c0.2,0.1,0.4,0.1,0.6,0.1c0.2,0,0.4-0.2,0.4-0.4c0-0.2-0.2-0.5-0.4-0.4
				c-0.2,0-0.3,0-0.4,0c-0.2-0.1-0.5,0.1-0.5,0.3C31.4,203,31.5,203.2,31.7,203.3"/>
			<path id="Fill-330" class="st16" d="M31.9,220.7c0.6,0.2,1.3,0.3,2,0.3c0.6,0,0.6-0.8,0-0.9c-0.6,0-1.2-0.2-1.8-0.3
				C31.6,219.7,31.4,220.6,31.9,220.7"/>
			<path id="Fill-332" class="st16" d="M32.2,222.5c0.3,0,0.5,0,0.8,0c0.2-0.1,0.4-0.3,0.3-0.5c-0.1-0.2-0.3-0.4-0.5-0.3
				c-0.2,0-0.4,0-0.6,0c-0.2,0-0.4,0.2-0.4,0.4C31.8,222.4,31.9,222.5,32.2,222.5"/>
		</g>
	</g>
</g>
</svg>
