<svg xmlns="http://www.w3.org/2000/svg" enable-background="new 0 0 245.9 190.5" viewBox="0 0 245.9 190.5">
  <path fill="#BED2FB" fill-rule="evenodd" d="M74 43c.3.3 1 .5 1.4.2.4-.3.6-1.4.7-1.9.4-1.4.8-2.8 1.2-4.3.3-1.3.6-2.7.5-4.1 0-1-.2-2-.7-2.9-.3-.7-1-1.6-1.7-1.8-.5-.1-1 0-1.3.3-.4.3-.6.8-.6 1.3-.1.5-.1 1-.1 1.5-.1 1.2-.6 2.4-.8 3.6-.4 2.1 0 4.3.6 6.4.1.7.3 1.3.8 1.7M114.8 48.5c-.4.2-1.1.3-1.5-.1-.3-.4-.2-1.5-.2-2-.1-1.5-.1-3-.1-4.4 0-1.4.1-2.8.5-4.1.3-1 .7-1.9 1.4-2.6.5-.6 1.3-1.3 2.1-1.3.5 0 .9.3 1.2.6.3.4.3.9.3 1.4l-.3 1.5c-.2 1.2 0 2.5-.1 3.7-.2 2.1-1.1 4.1-2.2 6-.3.4-.6 1-1.1 1.3" clip-rule="evenodd"/>
  <path fill="#FFF" fill-rule="evenodd" d="M77.9 33c0-1-.2-2-.7-2.9-.3-.7-1-1.6-1.7-1.8-.5-.1-1 0-1.3.3-.4.3-.6.8-.6 1.3-.1.5-.1 1-.1 1.4.1-.1.1-.2.2-.3.4-.3.9-.4 1.3-.3.8.2 1.4 1.2 1.7 1.8.4.9.6 1.9.7 2.9 0 .6 0 1.1-.1 1.7V37c.4-1.2.6-2.6.6-4M114.5 37.7c.5-.5 1.5-1.3 2.4-1.3.5 0 1 .3 1.3.6.1-.4.2-.8.2-1.2.1-.5 0-1-.3-1.4-.3-.4-.7-.6-1.2-.6-.8 0-1.6.8-2.1 1.3-.7.8-1.1 1.7-1.4 2.6-.2.7-.3 1.5-.4 2.3.4-.8.9-1.6 1.5-2.3" clip-rule="evenodd"/>
  <path fill="#BED2FB" fill-rule="evenodd" d="M44.7 65.5c-4.9 1.5-8.6 5.7-10.9 10.3-2.3 4.6-3.5 9.6-5.5 14.4-4.2 10.2-11.5 19.1-14.5 29.6-1 3.3-1.5 6.7-2.8 9.9-1 2.5-2.4 4.7-3.4 7.2-1 2.4-1.5 4.9-1.6 7.5-.1 3 .5 6.1 2.4 8.4 7.2 8.7 16.1-5 19.8-10.2 4.8-6.8 9.4-13.7 13.9-20.7 1.9-3.1 3.9-6.1 5.3-9.4 2.4-5.3 3.6-11 5.8-16.4 1.5-3.6 3.5-7.1 5.6-10.4 1.6-2.6 3.3-5.2 4.1-8.1 1.1-4.4-.3-7.9-4.3-9.9-4.2-2.2-9.2-3.6-13.9-2.2" clip-rule="evenodd"/>
  <path fill="#FFF" fill-rule="evenodd" d="M42.1 121.8c1.9-3.1 3.9-6.1 5.3-9.4 2.4-5.3 3.6-11 5.8-16.4.2-.5.4-1 .7-1.5-9.3 5.6-8.8 10.3-11.7 17.9-4.5 11.4-16.4 20.5-16.2 24.1.1 1.1.8 2 1.8 2.5.7.4 1.6.6 2.4.8 4.1-5.9 8.1-11.9 11.9-18M78.7 37.4c-1.8-2.8-1.7-6.3-1.5-9.6.1-2.6.2-5.2.6-7.7.3-2.7.9-5.5 2.3-7.9 2.9-5.3 9-8.1 15-8.8 4.8-.6 9.8.1 14.1 2.4 4.3 2.3 7.7 6.3 8.8 11 1.5 6.3-.6 11.5-2 17.8-.2.9-1 2.9-1.4 3.7-.7 1.2-2.1 2-3.5 2.5-8.5 3.6-19.4 3-28.1-.2-3.1-1.1-4.3-3.2-4.3-3.2" clip-rule="evenodd"/>
  <path fill="#BED2FB" fill-rule="evenodd" d="M134.7 73.4c4.4.2 8.7 2.7 11.1 6.4 2.9 4.5 2.9 10.3 4.8 15.3 1.5 3.8 4 7.1 6.1 10.5 6.7 10.8 9.6 23.5 11.1 36.1.2 2.1.4 4.2 0 6.3-.5 2.1-1.7 4-3.7 4.8-1.7.7-3.6.4-5.3-.4-3.1-1.4-5.4-4.1-7.7-6.5-2.5-2.6-4.9-5.3-7.1-8.1-4.3-5.5-8.1-11.5-10.2-18.2-1.8-5.5-2.5-11.4-4.7-16.8-1.6-3.9-4-7.5-5.6-11.5-1.6-3.8-2.6-9.2-.2-12.9 2.2-3.3 7.4-5.2 11.4-5" clip-rule="evenodd"/>
  <path fill="#FFF" fill-rule="evenodd" d="M148.7 138c-8.1-10.5-13.1-24.6-14.2-37.8-.2-.8-1.1-1.3-1.9-1.2-.8.1-1.5.6-2.1 1.2-.7.8-1.2 1.7-1.6 2.6 0 .1.1.2.1.2 2.2 5.4 2.9 11.3 4.7 16.8 2.2 6.7 5.9 12.7 10.2 18.2l3.9.3c.5 0 .8 0 .9-.3" clip-rule="evenodd"/>
  <path fill="#3D60F7" fill-rule="evenodd" d="M156.7 105.6c-2.1-3.5-4.7-6.7-6.1-10.5-1.9-5-1.9-10.8-4.8-15.3-2.4-3.7-6.7-6.2-11.1-6.4h-.4c.8.5 1.5 1 2.3 1.6 1.7 1.2 3.3 2.6 4.3 4.4 2.7 4.5 1.5 10.6 4.2 15.2 1 1.7 2.4 3.1 3.8 4.5 10.8 11.4 15.3 27.6 15.9 43.3.1 2.7.1 5.5-1 8-.5 1.1-1.2 2.2-2.1 3 .8 0 1.6-.1 2.3-.4 2-.8 3.2-2.8 3.7-4.8.5-2.1.3-4.2 0-6.3-1.4-12.8-4.3-25.5-11-36.3" clip-rule="evenodd"/>
  <path fill="#172B4D" fill-rule="evenodd" d="M155.7 104.1c-1.9-2.9-3.9-5.7-5.1-8.9-1.9-5-1.9-10.8-4.8-15.3-2.4-3.7-6.7-6.2-11.1-6.4-4-.2-9.1 1.7-11.4 5.2-2.4 3.7-1.4 9.1.2 12.9 1.6 3.9 4 7.5 5.6 11.5 2 4.9 2.8 10.3 4.3 15.4 3.6-1.7 6.9-3.9 10.2-6.1 4-2.8 8.1-5.5 12.1-8.3" clip-rule="evenodd"/>
  <path fill="#3D60F7" fill-rule="evenodd" d="M134.6 100.2c-.2-.8-1.1-1.3-1.9-1.2-.8.1-1.5.6-2.1 1.2-.7.8-1.2 1.7-1.6 2.6 0 .1.1.2.1.2 2 4.9 2.8 10.3 4.3 15.4 1.5-.7 2.9-1.5 4.3-2.3-1.7-5.3-2.7-10.7-3.1-15.9M150.6 95.1c-1.9-5-1.9-10.8-4.8-15.3-2.4-3.7-6.7-6.2-11.1-6.4h-.4c.8.5 1.5 1 2.3 1.6 1.7 1.2 3.3 2.6 4.3 4.4 2.7 4.5 1.5 10.6 4.2 15.2 1 1.7 2.4 3.1 3.8 4.5 1.9 2 3.6 4.1 5.1 6.3l1.8-1.2c-2-3-4-5.9-5.2-9.1" clip-rule="evenodd"/>
  <path fill="#172B4D" fill-rule="evenodd" d="M140.1 72.5c3 2.9 5.1 7.1 4.4 11.2-.7 4.1-3.9 7.4-7.4 9.6-12.7 8.2-24.4 5.4-33.6 3.7-29.9-5.5-42.5-3.9-54.1-6.8-6.5-2.1-13.3-5.1-14.7-12-.5-2.7.2-4.5 1.7-6.7 2.9-4.2 6.8-7.6 11.4-9.9 4.9-2.5 10.3-3.5 15.5-5.1 4.1-1.2 8.1-2.7 12.1-4.2 3.3-1.3 6.5-3.3 10-4 4.6-.9 9.4-.8 13.9.4 4.8 1.2 8.6 3.8 12.7 6.5 6 4 12.2 7.5 18.5 10.9 3.4 1.9 6.8 3.7 9.6 6.4" clip-rule="evenodd"/>
  <path fill="#3D60F7" fill-rule="evenodd" d="M130.5 66.2c-6.3-3.4-12.5-7-18.5-10.9-3.5-2.3-6.7-4.5-10.6-5.9-.2.6-.3 1.2-.3 1.7-.2 2.4.1 3.6 1.8 5.1 9.3 8.6 23.2 11.1 33.5 18.7 1.7 1.2 3.3 2.6 4.3 4.4 1.5 2.4 1.8 5.3 2.2 8.2.7-1.2 1.2-2.5 1.5-3.8.7-4.1-1.4-8.3-4.4-11.2-2.7-2.7-6.1-4.5-9.5-6.3" clip-rule="evenodd"/>
  <path fill="#FF8B00" fill-rule="evenodd" d="M130.5 66.2c-6.3-3.4-12.5-7-18.5-10.9-3.5-2.3-6.7-4.5-10.6-5.9-.2.6-.3 1.2-.3 1.7-.2 2.4.1 3.6 1.8 5.1 9.3 8.6 23.2 11.1 33.5 18.7 1.7 1.2 3.3 2.6 4.3 4.4 1.5 2.4 1.8 5.3 2.2 8.2.7-1.2 1.2-2.5 1.5-3.8.7-4.1-1.4-8.3-4.4-11.2-2.7-2.7-6.1-4.5-9.5-6.3" clip-rule="evenodd"/>
  <path fill="#FFF" fill-rule="evenodd" d="M101.1 52.4c.1-.6.2-1.2.3-1.7 3.9 1.4 7.1 3.6 10.6 5.9 6 4 12.2 7.5 18.5 10.9 3.4 1.8 6.8 3.6 9.6 6.3 2.4 2.4 4.3 5.6 4.5 8.9.3-3.8-1.8-7.6-4.5-10.3-2.8-2.7-6.2-4.5-9.6-6.3-6.3-3.4-12.5-7-18.5-10.9-3.5-2.3-6.7-4.5-10.6-5.9-.2.6-.3 1.2-.3 1.7-.1.7-.1 1.3 0 1.8v-.4" clip-rule="evenodd"/>
  <path fill="#172B4D" fill-rule="evenodd" d="M48.6 109.6c1.7-4.5 2.8-9.1 4.6-13.6 1.5-3.6 3.5-7.1 5.6-10.4 1.6-2.6 3.3-5.2 4.1-8.1 1.1-4.4-.3-7.9-4.3-9.9-4.3-2.1-9.3-3.5-14-2.2-4.9 1.5-8.6 5.7-10.9 10.3-2.3 4.6-3.5 9.6-5.5 14.4-.7 1.7-1.5 3.3-2.3 5 7.4 5.2 15 10 22.7 14.5" clip-rule="evenodd"/>
  <path fill="#FF8B00" fill-rule="evenodd" d="M85.4 48.3c-3.5.7-6.7 2.7-10 4-4 1.6-8 3-12.1 4.2-5.2 1.5-10.6 2.6-15.5 5.1-6.2 3.1-11.1 8.4-14 14.2-2.3 4.6-3.5 9.6-5.5 14.4-.7 1.7-1.5 3.3-2.3 5 1.7 1.2 3.4 2.4 5.1 3.5 7.7-11.6 6.2-14.9 7.9-22.1 3.2-13.7 20.1-14.4 29.2-16.9 7.9-2.2 15.2-6.3 21.2-11.9-1.3.1-2.7.2-4 .5" clip-rule="evenodd"/>
  <path fill="#FFF" fill-rule="evenodd" d="M45.4 64c4.9-2.5 10.3-3.5 15.5-5.1C65 57.7 69 56.2 73 54.7c3.3-1.3 6.5-3.3 10-4 1.2-.2 2.4-.4 3.5-.5 1-.8 2-1.6 2.9-2.5-1.4.1-2.7.3-4 .5-3.5.7-6.7 2.7-10 4-4 1.6-8 3-12.1 4.2-5.2 1.5-10.6 2.6-15.5 5.1-3.6 1.8-6.7 4.3-9.2 7.2 2-1.8 4.3-3.4 6.8-4.7" clip-rule="evenodd"/>
  <path fill="#FFF" fill-rule="evenodd" d="M109.1 59c-.9 1.6-1.9 3.2-3.1 4.6-1.2 1.4-2.6 2.7-4 3.8-.3.2-.6.5-.9.7-1.6 1.2-3.8 2.1-5.9 2.3-1.5.1-3.1-.1-4.6-.3-1.3-.2-2.6-.4-3.8-.9-2.9-1.1-4.2-3.8-5.5-6.5-1-2.1-2.1-4.3-3.1-6.4-.6-1.3-1.3-2.7-1.8-4.1-1.2-3.4-1.5-7.1-1.3-10.7.2-3.8 1-7.5 1.7-11.3.6-3.1 2.1-5.7 4.4-7.7.9-.8 1.9-1.5 3-2.1 3.9-2.1 8.5-2.6 13-2.5 1.6 0 3.3.1 4.9.5 4 .9 7.6 3.6 9.6 7.3.8 1.5 1.4 3.2 1.8 4.8.4 1.4.7 2.8.8 4.2.8 7.2-.6 14.3-3.7 20.8-.2 1.3-.8 2.4-1.5 3.5" clip-rule="evenodd"/>
  <path fill="#BED2FB" fill-rule="evenodd" d="M114.6 13.2c.4 1.9.4 3.8.1 5.7-.3 1.9-.9 3.8-1.1 5.7-.2 2.9.8 5.8.1 8.6-.3 1.1-.8 2.2-1.2 3.3-.1.3-.2.7-.3 1-.3 1.1 0 2.1 0 3.2s-.2 2.3-.3 3.4c-.2 1.4-.4 2.9-1 4.3-.8 2.2-2.4 4.1-3.5 6.2-1.8 3.5-2.5 7.7-5.1 10.8-1.8 2.1-5.3 3.5-8 3.5-3.1-.1-6.6-.3-8.7-2.9-.8-1-1.3-2.3-1.7-3.6-.8-2.8-1.3-5.6-2.1-8.4-.8-2.8-2.1-5.4-2.6-8.3-.3-1.4-.3-2.8-.2-4.2.1-2.1.8-4.3.8-6.4 0-1.2-.6-2.3-.4-3.5.1-.9.8-1.7 1.3-2.5 1.2-1.7 2-3.6 2.3-5.7.4-2.6.1-5.3.1-8 .1-2 .4-4.1 1.4-5.8 1.1-1.9 2.9-3 4.9-3.8 5.8-2.5 12.5-2.6 18.3-.2 3.4 1.5 6.2 4 6.9 7.6" clip-rule="evenodd"/>
  <path fill="#FFF" fill-rule="evenodd" d="M93.3 32.8c.5.5.8 1.3.9 2 .1.7.1 1.5 0 2.2-.2 2.6-.7 5.1-1.4 7.6-.5 1.7-1 1.7-1.6 2-1.1.7-1 2.4.2 2.9.2.1.4.1.6.2l3 .6c-.7-1.1-.5-2.5-.3-3.7.4-3.1.6-6.2.8-9.3.1-1.2.2-2.6-.6-3.4-.9-1-1.6-1.1-1.6-1.1" clip-rule="evenodd"/>
  <path fill="#96B3FA" fill-rule="evenodd" d="M88.1 56.8s1.4 2.6 5.1 3.2c3.7.7 6.3-1 7.3-2.1l-12.4-1.1z" clip-rule="evenodd"/>
  <path fill="#BED2FB" fill-rule="evenodd" d="M86.3 55.3s6.9 7.5 15.8 1.7l-15.8-1.7z" clip-rule="evenodd"/>
  <path fill="#96B3FA" fill-rule="evenodd" d="M85.8 54.9c2.2.3 4.4.3 6.5 0 .3 0 .5-.1.8 0 .5.1.9.4 1.3.5.7.1 1.5-.3 2.2-.2.3 0 .6.2.8.3 1.6.8 3.4 1.3 5.3 1.5-1.7.4-3.7.6-5.5.6-.6 0-1.2.1-1.8 0-.6 0-1.2-.1-1.8-.3-2.7-.6-5.3-1.4-7.9-2.4.1.1.1.1.1 0" clip-rule="evenodd"/>
  <path fill="#BED2FB" fill-rule="evenodd" d="M88.2 62.4c.1-.5.5-1 .9-1.3 2.6-1.9 6.5-1.3 8.3.6 1 1 1.3 2.7.5 2.3-1.2-.6-1.3-1.2-3.9-1.7-4-.8-4.7.5-5.3.5-.3 0-.5-.2-.5-.4" clip-rule="evenodd"/>
  <g transform="translate(81.322314 .057764)">
    <defs>
      <filter id="__atlassian_svg_right_a" width="39.5" height="21.8" x=".1" y="-.1" filterUnits="userSpaceOnUse">
        <feColorMatrix values="1 0 0 0 0 0 1 0 0 0 0 0 1 0 0 0 0 0 1 0"/>
      </filter>
    </defs>
    <mask id="__atlassian_svg_right_b" width="39.5" height="21.8" x=".1" y="-.1" maskUnits="userSpaceOnUse">
      <path fill="#FFF" fill-rule="evenodd" d="M.1-.1h39.5v21.8H.1z" clip-rule="evenodd" filter="url(#__atlassian_svg_right_a)"/>
    </mask>
    <path fill="#2A44A1" fill-rule="evenodd" d="M33 16c1.2.1 2.4.8 2.9 2 .5 1 0 2.5.6 3.3.4.5 1.2.5 1.6.1.5-.4.8-1 .9-1.5 1-3.1.4-6.6-1.3-9.4-1.6-2.8-4.2-5-7.1-6.6-2.9-1.5-6-2.5-9.2-3.2-1.9-.4-3.9-.8-5.9-.8C11.7-.1 7.9 1 4.3 2.5 2.6 3.3 1 4.3.6 6.4c-.4 2.5-.6 5-.5 7.5 1.6-1.5 3.6-2.7 5.8-3.4.7-.2 1.5-.4 2.3-.4 2.1.1 3.7 1.8 5.1 3.3 2 2.1 4.2 4.3 7.1 4.5 1.1.1 2.2-.1 3.2-.3 1.7-.3 3.4-.6 5-1 1.4-.3 2.9-.8 4.4-.6" clip-rule="evenodd" mask="url(#__atlassian_svg_right_b)"/>
  </g>
  <path fill="#304EC6" fill-rule="evenodd" d="M104.1 13.1c-2.3.5-4.8 1.4-6.9.3-2-1-2.9-3.5-4.8-4.7-1.5-.9-3.1-.8-2.6-1.6.7-1 1.8-1.4 2.6-2.3.1-.1.2-.2.2-.4 0-.3-.4-.5-.8-.5-2.9-.3-3-.2-3.1-.4-.1-.2 0-.4.2-.6 1-1.2 1.7-2 3.7-2.5-2.2.5-4.4 1.2-6.5 2.1-1.9.8-3.5 1.7-3.9 3.9-.3 1.6-.5 3.3-.5 5v2.5c1.5-1.3 3.9-2.8 5.8-3.4.7-.2 1.5-.4 2.3-.4 2.1.1 3.7 1.8 5.1 3.3 2 2.1 4.2 4.3 7.1 4.5 1.1.1 2.2-.1 3.2-.3 1.7-.3 3.4-.6 5-1 .4-.1.7-.2 1.1-.3 1.1-.9 2.2-1.7 3.5-2.3-3.4-1.5-7.3-1.7-10.7-.9" clip-rule="evenodd"/>
  <g transform="translate(81.322314 .057764)">
    <defs>
      <filter id="__atlassian_svg_right_c" width="39.5" height="17.2" x=".1" y="-.1" filterUnits="userSpaceOnUse">
        <feColorMatrix values="1 0 0 0 0 0 1 0 0 0 0 0 1 0 0 0 0 0 1 0"/>
      </filter>
    </defs>
    <mask id="__atlassian_svg_right_d" width="39.5" height="17.2" x=".1" y="-.1" maskUnits="userSpaceOnUse">
      <path fill="#FFF" fill-rule="evenodd" d="M.1-.1h39.5v17.2H.1z" clip-rule="evenodd" filter="url(#__atlassian_svg_right_c)"/>
    </mask>
    <path fill="#FFF" fill-rule="evenodd" d="M.6 7.3c.4-2.1 2-3.1 3.9-3.9C8.1 1.9 11.8.8 15.7.8c2 0 4 .4 5.9.8 3.2.7 6.3 1.6 9.2 3.2s5.4 3.7 7.1 6.6c1 1.8 1.6 3.8 1.7 5.8.1-2.3-.6-4.6-1.7-6.7-1.6-2.8-4.2-5-7.1-6.6-2.9-1.5-6-2.5-9.2-3.2-1.9-.4-3.9-.8-5.9-.8C11.9-.1 8.1 1 4.5 2.5 2.6 3.3 1 4.3.6 6.4c-.4 2-.5 4.1-.5 6.1 0-1.7.2-3.5.5-5.2" clip-rule="evenodd" mask="url(#__atlassian_svg_right_d)"/>
  </g>
  <path fill="#2A44A1" fill-rule="evenodd" d="M117.6 19.6c-2.2 9.6-1.9 7.8-1.5 11.1.2 1.9 0 3.9-.8 5.7-.1.3-.3.6-.2.9.1.3.4.6.7.5.8-3.3 2.4-6.4 4-9.4 1.5-2.8 2.6-5.2 1.9-10.3-.1-1.2-.4-2.3-1-3.4-.2-.3-.3-.4-.7-.2-1.4.8-2.4 3.3-2.4 5.1" clip-rule="evenodd"/>
  <path fill="#172B4D" fill-rule="evenodd" d="M117.5 21.9c.3-1.3.4-2.7.2-4-.2-1.3-.7-2.6-1.7-3.6-1.4-1.4-3.5-1.9-5.5-1.9-2.7-.1-5.4.6-8 1.5-1.2.4-2.5.9-3.8 1.1-1.1.1-2.2.1-3.2-.3 1.7 1.7 3.7 3.2 6 3.4 1.1.1 2.2-.1 3.2-.3 1.7-.3 3.4-.6 5-1 1.5-.4 2.9-.9 4.4-.7 1.2.1 2.4.8 2.9 2 .3.6.2 1.3.3 2-.2.7-.3 1.3-.4 1.9.5 0 .6-.1.6-.1M94.2 33.8c-2.6-.9-5.2-1.8-7.8-2.4-1.2-.3-2.5-.5-3.7-.1-.7.2-1.3.7-1.9 1.1l-1-.3c.9-1.3 1.9-2.4 3.2-3.3.4-.3.9-.6 1.5-.8.9-.2 1.9 0 2.8.3.9.3 1.8.6 2.6.9 1.3.5 2.6 1 3.8 1.8.2.1.4.2.4.4.1.1.1.3.1.4v2M113.5 37c-.2-.4-.5-.7-.9-1-1.2-1-1.7-1-5.8-1h-6.4c1-1.9 1.1-2.3 2.8-2.5 3.2-.4 7.7 0 8.9.7.9.5 1.3 1.5 2.4 3.7l-1 .1z" clip-rule="evenodd"/>
  <path fill="#BED2FB" fill-rule="evenodd" d="M142.7 149c4.2 2.8 9.1 4.5 14.1 5.1 1.8.2 3.8.3 5.5-.5 1.7-.8 3.2-4.5 2.9-6.3.7-2.7-.2-5.6-1.7-7.9-1.9-2.9-3.5-3.5-6.2-4.1-6.6-1.3-13.4-2-19.8-4.2-1.4-.5-4.1-1.6-5.7-1.8-1.8-.2-5.3.3-7.2 1.6-2.7 1.9-2.9 5.8-.2 7.7.6.4 1.2.5 1.8.8 9 3.8 14 8 16.5 9.6" clip-rule="evenodd"/>
  <path fill="#3D60F7" fill-rule="evenodd" d="M44.1 106.9c1.5.9 3 1.8 4.6 2.7 1.7-4.5 2.8-9.1 4.6-13.6.2-.5.4-1 .7-1.5-6.8 4.1-8.4 7.8-9.9 12.4" clip-rule="evenodd"/>
  <path fill="#172B4D" fill-rule="evenodd" d="M129.1 158.5c-1.4-27.9-2.2-35.5-.1-44.4 1.9-8 2.8-6.3 4.6-21.9.4-3.9-1.8-7.3-5.2-9.1-5.4-2.7-10.3-1.2-24.4-3.2-17.2-2.4-37.9-9-48.9-6.7-3.8.8-10.2 3.2-10.9 7.6-1 5.5 0 11.1 1.5 16.5s3.4 10.7 4 16.2c.3 2.7.4 5.5.4 8.3 0 12.2-.4 24.3-.8 36.5" clip-rule="evenodd"/>
  <path fill="#BED2FB" fill-rule="evenodd" d="M12.9 130.9c1.7-3.7 7-5.5 11.1-5.3 4 .2 7.9 1.6 11.9 2 10.1 1.2 25.7-4.5 29.7-.1 1.2 1.3 1.3 3.3.7 4.9-2.3 6.1-14.3 9.6-19.2 11.5-10.2 3.9-19.8 9.6-30.5 11.7-1.2.2-2.4.4-3.6.1-2.6-.7-3.9-3.6-4.4-6.3-.9-6.3 1.2-12.8 4.3-18.5" clip-rule="evenodd"/>
  <path fill="#FFF" fill-rule="evenodd" d="M66.3 128.5c-.2-.4-.4-.7-.6-1-3.1-3.3-12.8-.9-21.7 0-.8.2-1.7.5-2.6.6-2.4.5-4.8.6-7.2.4-.8-.1-1.6-.2-2.4-.2-2.7 0-5.2 1.5-7.1 3.4-.8.8-1.5 2-1.1 3 .3.6 1 1 1.7 1.1.7.1 1.4-.1 2.1-.2 3.2-.7 6.4-1.6 9.6-2 3.3-.4 6.6-.5 9.8.4 1.5.4 2.9 1 4.5.9 1.8-.1 3.4-1.3 4.9-2.2 2.5-1.5 5.2-2.7 8.1-3.4.7-.1 1.5-.3 2-.8" clip-rule="evenodd"/>
  <path fill="#BED2FB" fill-rule="evenodd" d="M73.6 135.5c.4 1 .8 1.9 1.4 2.8.8 1.3 1.7 2.6 2.6 3.8.2.3.4.6.7.9.2.3.4.6.4.9 0 .3-.1.6-.4.8-.2.2-.5.3-.8.4-.8.2-1.7 0-2.4-.4s-1.3-1-1.8-1.7c-.9-1.2-1.4-2.6-1.5-4.1 0-.6 0-1.2.1-1.8.1-.7.3-1.4.6-2 .2-.2.4-.5.7-.3.2.1.2.4.4.5" clip-rule="evenodd"/>
  <path fill="#6E95F9" fill-rule="evenodd" d="M78.3 144.6c-.7-.1-1.3-.6-1.7-1.2-.5-.7-.7-1.5-.9-2.3-.2-.8-.3-1.6-.4-2.4-.1-.2-.2-.3-.3-.5-.2-.4-.4-.7-.6-1.1h-2.2l.3 3 .3 2.1c.1.2.2.4.4.6.5.7 1.1 1.3 1.8 1.7.7.4 1.6.6 2.4.4.3.1.6 0 .9-.3-.1.1 0 0 0 0" clip-rule="evenodd"/>
  <path fill="#BED2FB" fill-rule="evenodd" d="M73.5 131.4c-.5-1.7-1.9-3.1-3.5-3.8-1.6-.8-6.4-1.5-8.2-1.6-6.3-.6-9.9 1.9-15.9 5.1-.9.5-2 1.1-2.3 2.1-.3.9 0 2 .7 2.7.8.9 1.9 1.5 4 2.8 2.1 1.2 3 1.6 5.6 1.6 6.9 0 10.6-2 15.1-3.1.9-.2 1.7-.4 2.5-.8 1.6-.9 2.5-2.8 2.1-4.6" clip-rule="evenodd"/>
  <path fill="#BED2FB" fill-rule="evenodd" d="M70.1 129.4c.8-.1 1.6-.1 2.3.3.7.5 1 1.3 1.2 2.1 1.1 4.1 1.3 8.3 1.2 12.6 0 .7 0 1.3-.3 1.9-.3.6-.9 1-1.6.9-.7-.2-1.1-1-1.3-1.7-.3-1-.5-1.9-.7-2.9-.1-.7-.2-1.4-.4-2.1-.6-2.9-2.1-5.7-2.1-8.7 0-.5 0-.9.2-1.4.3-.4 1-1 1.5-1" clip-rule="evenodd"/>
  <path fill="#6E95F9" fill-rule="evenodd" d="M74.2 145.2c-.2.2-.4.3-.7.3-.3-.1-.5-.3-.6-.6-.6-1.3-.7-2.7-1.1-4.1-.5-1.6-1.3-3.2-2.5-4.4.4 1.4.9 2.7 1.2 4.1.2.7.3 1.4.4 2.1.2 1 .4 1.9.7 2.9.2.7.6 1.5 1.3 1.7.6.1 1.3-.3 1.6-.9.3-.6.3-1.2.3-1.8-.2.2-.4.5-.6.7" clip-rule="evenodd"/>
  <path fill="#BED2FB" fill-rule="evenodd" d="M68.3 133.1c.4 2.2 1.4 4.2 1.9 6.4.2 1 .4 2.1.5 3.1.1 1 .3 2 .4 2.9.1.7.2 1.5-.2 2s-1.2.7-1.8.5c-.6-.2-1.1-.7-1.5-1.3-.3-.6-.5-1.2-.7-1.9-.2-.6-.3-1.3-.5-1.9-.2-.8-.4-1.6-.7-2.4-.7-1.9-1.6-3.7-2.4-5.6-.3-.7-.5-1.5-.6-2.3 0-.8.2-1.6.7-2.2.7-.7 1.9-.9 2.8-.5 1.1.6 1.8 1.8 2.1 3.2" clip-rule="evenodd"/>
  <path fill="#BED2FB" fill-rule="evenodd" d="M63.1 133.8c1.7 3.8 2.7 7.7 3.8 11.7.2.7.3 1.6-.2 2.2-.4.4-1.1.5-1.7.5-.5 0-1-.1-1.5-.4-.7-.4-1.1-1.2-1.5-1.9-1.5-2.8-2.9-5.6-4.4-8.4-.5-.9-.9-1.8-1.1-2.8-.2-1-.1-2.1.5-2.9.7-.9 2-1.4 3.2-1 1.1.3 2.3 2.1 2.6 3.2" clip-rule="evenodd"/>
  <path fill="#BED2FB" fill-rule="evenodd" d="M56 134.2c2.3 3.5 3.7 7.4 5.1 11.3.2.6.4 1.3.1 1.8-.3.6-1.2.9-1.9.7-.7-.2-1.2-.7-1.7-1.3-.6-.8-1.1-1.6-1.6-2.4-.3-.5-.6-.9-1-1.3-1-1-2.4-1.5-3.6-2.3-.9-.6-1.7-1.3-2.3-2.1-.5-.6-.9-1.3-1.1-2-.2-.7-.1-1.6.3-2.2.3-.5.8-.9 1.3-1.1 1.8-.9 4.8-1 5.9 1.1" clip-rule="evenodd"/>
  <path fill="#FFF" fill-rule="evenodd" d="M45.8 131c-.9.5-2 1.1-2.3 2.1 0 .1-.1.3-.1.4 1.1.1 2.3.3 3.4.6 1.5.4 2.9 1 4.5.9 1.8-.1 3.4-1.3 4.9-2.2 2.5-1.5 5.2-2.7 8.1-3.4 1.1-.3 2.4-.7 2.6-1.7-.5-.5-1.1-.9-1.7-1.2-1.4-.2-2.7-.4-3.4-.5-6.4-.6-10 1.9-16 5" clip-rule="evenodd"/>
  <path fill="#5680F9" fill-rule="evenodd" d="M48.5 65s-.1 0 0 0c-.1 0 0 0 0 0M45.7 65.3h.2c-.1-.1-.2-.1-.2 0M46.2 65.2h.1c0-.1-.1 0-.1 0M27.7 91.6c0-.1.1-.2.1-.3 0 .1 0 .2-.1.3M27.2 92.8c0-.1.1-.2.1-.2s-.1.1-.1.2M45.2 65.4h0" clip-rule="evenodd"/>
  <path fill="#FFF" fill-rule="evenodd" d="M26.1 95.1c-4.2 8.2-9.7 15.8-12.2 24.7-1 3.3-1.5 6.7-2.8 9.9-1 2.5-2.4 4.7-3.4 7.2-1 2.4-1.5 4.9-1.6 7.5-.1 3 .5 6.1 2.4 8.4 2.3 2.8 4.8 3.3 7.2 2.5-2.5-.6-5-2.3-5.8-4.6-.7-1.9-.6-4-.3-5.9 1.5-8.4 5.3-11.2 7.1-15.7 1-2.5 1.2-5.3 1.9-8 2-8.3 7.8-15.1 12.6-22.3-1.7-1.3-3.5-2.5-5.1-3.7" clip-rule="evenodd"/>
  <path fill="#BED2FB" fill-rule="evenodd" d="M109.3 135.5c-.4 1-.8 1.9-1.4 2.8-.8 1.3-1.7 2.6-2.6 3.8-.2.3-.4.6-.7.9-.2.3-.4.6-.4.9 0 .3.1.6.4.8.2.2.5.3.8.4.8.2 1.7 0 2.4-.4s1.3-1 1.8-1.7c.9-1.2 1.4-2.6 1.5-4.1 0-.6 0-1.2-.1-1.8-.1-.7-.3-1.4-.6-2-.2-.2-.4-.5-.7-.3-.2.1-.2.4-.4.5" clip-rule="evenodd"/>
  <path fill="#6E95F9" fill-rule="evenodd" d="M107.9 142.3c-.6.5-1.2.9-1.9 1.2-.5.2-1.1.2-1.6 0-.1.1-.1.3-.1.4 0 .3.1.6.4.8.2.2.5.3.8.4.8.2 1.7 0 2.4-.4s1.3-1 1.8-1.7c.8-1.1 1.4-2.5 1.5-3.8-1 1-2.1 2.1-3.3 3.1" clip-rule="evenodd"/>
  <path fill="#BED2FB" fill-rule="evenodd" d="M109.5 131.4c.5-1.7 1.9-3.1 3.5-3.8 1.6-.8 3.4-1.1 5.2-1.2 4.4-.4 9 0 13.1 1.7 1 .4 1.9.9 2.9 1.4 1 .5 1.9 1 2.9 1.5.9.5 2 1.1 2.3 2.1.3.9 0 2-.7 2.7-.6.8-1.5 1.3-2.3 1.8-.6.3-1.1.7-1.7 1-.8.5-1.6 1-2.5 1.2-1 .3-2 .4-3.1.4-2.7 0-5.3-.3-7.9-1-2.4-.6-4.7-1.5-7.2-2.1-.9-.2-1.7-.4-2.5-.8-1.6-.9-2.5-2.8-2.1-4.6" clip-rule="evenodd"/>
  <path fill="#BED2FB" fill-rule="evenodd" d="M112.8 129.4c-.8-.1-1.6-.1-2.3.3-.7.5-1 1.3-1.2 2.1-1.1 4.1-1.3 8.3-1.2 12.6 0 .7 0 1.3.3 1.9.3.6.9 1 1.6.9.7-.2 1.1-1 1.3-1.7.3-1 .5-1.9.7-2.9.1-.7.2-1.4.4-2.1.6-2.9 2.1-5.7 2.1-8.7 0-.5 0-.9-.2-1.4-.3-.4-1-1-1.5-1" clip-rule="evenodd"/>
  <path fill="#BED2FB" fill-rule="evenodd" d="M114.6 133.1c-.4 2.2-1.4 4.2-1.9 6.4-.2 1-.4 2.1-.5 3.1-.1 1-.3 2-.4 2.9-.1.7-.2 1.5.2 2s1.2.7 1.8.5c.6-.2 1.1-.7 1.5-1.3.3-.6.5-1.2.7-1.9.2-.6.3-1.3.5-1.9.2-.8.4-1.6.7-2.4.7-1.9 1.6-3.7 2.4-5.6.3-.7.5-1.5.6-2.3 0-.8-.2-1.6-.7-2.2-.7-.7-1.9-.9-2.8-.5-1 .6-1.8 1.8-2.1 3.2" clip-rule="evenodd"/>
  <path fill="#BED2FB" fill-rule="evenodd" d="M119.6 133.5c-1.7 3.8-2.5 8-3.5 12-.2.7-.3 1.6.2 2.2.4.4 1.1.5 1.7.5.5 0 1-.1 1.5-.4.7-.4 1.1-1.2 1.5-1.9 1.5-2.8 2.9-5.6 4.4-8.4.5-.9.9-1.8 1.1-2.8.2-1 .1-2.1-.5-2.9-.7-.9-2-1.4-3.2-1-1.1.3-2.3 2.1-2.6 3.2" clip-rule="evenodd"/>
  <path fill="#BED2FB" fill-rule="evenodd" d="M126.8 134.3c-2.3 3.5-3.5 7.3-4.9 11.2-.2.6-.4 1.3-.1 1.8.3.6 1.2.9 1.9.7.7-.2 1.2-.7 1.7-1.3.6-.8 1.1-1.6 1.6-2.4.3-.5.6-.9 1-1.3 1-1 2.4-1.5 3.6-2.3.9-.6 1.7-1.3 2.3-2.1.5-.6.9-1.3 1.1-2 .2-.7.1-1.6-.3-2.2-.3-.5-.8-.9-1.3-1.1-1.8-.9-4.8-1-5.9 1.1" clip-rule="evenodd"/>
  <path fill="#2A44A1" fill-rule="evenodd" d="M75.3 36.2c.3.1.6-.1.8-.4.2-.3.2-.6.3-.9.2-.9.3-1.7.5-2.5.3-1.4.7-2.9 1.7-4 .5-.6 1.2-1.1 1.6-1.8.3-.6.3-1.2.4-1.9.1-3.2-.5-6.5.5-9.6.3-.8.7-1.6.9-2.4.2-.8.2-1.6.2-2.3 0-1.2.1-2.3.1-3.5 0-.6.6-2.1-.5-2.1-.4 0-.8.2-1.1.5-4.5 3.1-6.2 4.9-6.1 13.9 0 6 0 6.3.2 7.1.4 2 1.1 1.9.8 6.3-.2 1.2-.3 2.4-.3 3.6" clip-rule="evenodd"/>
  <path fill="#FFF" fill-rule="evenodd" d="M81.7 4.8c-.4 0-.8.2-1.1.5-1.6 1.1-2.8 2-3.8 3.2.5-.4 1.1-.8 1.7-1.2.4-.3.9-.6 1.5-.7 1.6-.2 1 1.3 1.1 2 .1 1.1.2 2.3.4 3.4.1.6.1 1.1.1 1.7.1-.3.2-.7.3-1 .2-.8.2-1.6.2-2.3 0-1.2.1-2.3.1-3.5 0-.7.6-2.1-.5-2.1" clip-rule="evenodd"/>
  <path fill="#96B3FA" fill-rule="evenodd" d="M86.8 43c-3.1-.5-5.2-3.4-4.7-6.4.5-3 3.4-5 6.5-4.5s5.2 3.4 4.7 6.4c-.5 2.9-3.4 5-6.5 4.5M105.1 45.9c-3.1-.5-5.2-3.4-4.7-6.4.5-3 3.4-5 6.5-4.5s5.2 3.4 4.7 6.4c-.6 3-3.5 5.1-6.5 4.5" clip-rule="evenodd"/>
  <path fill="#0845A2" fill-rule="evenodd" d="M105.1 45.9c-3.1-.5-5.2-3.4-4.7-6.4.5-3 3.4-5 6.5-4.5s5.2 3.4 4.7 6.4c-.6 3-3.5 5.1-6.5 4.5zm-5.5-6.6h.1v.2l-.1-.2zM86.8 43c-3.1-.5-5.2-3.4-4.7-6.4.5-3 3.4-5 6.5-4.5s5.2 3.4 4.7 6.4c-.5 2.9-3.4 5-6.5 4.5zm25.8-1.8l-.3-.1c.3-3.2-2-6.2-5.3-6.8-3-.5-5.9 1.2-6.9 3.9 0-.3-.1-.7-.3-1-.3-.3-.7-.5-1.2-.6h-1.2c-.2 0-.5-.1-.7-.2-.2-.1-.5-.2-.8-.2-.6-.1-1.3 0-1.7.6-.1.2-.2.3-.2.5-.1-2.9-2.3-5.4-5.3-5.9-3.3-.5-6.5 1.6-7.2 4.8l-.4-.1c-.2 0-.4.1-.5.3 0 .2.1.4.3.5l.4.1c-.3 3.2 2 6.1 5.3 6.7 3.3.5 6.4-1.5 7.2-4.7.2 0 .3-.1.4-.2.1-.2.2-.3.2-.5 0-.1 0-.2.1-.4 0-.2.1-.5.2-.6.2-.3.7-.4 1-.3.2 0 .4.1.7.2.3.1.5.2.8.2h1.2c.3 0 .6.1.8.3.2.3.2.7 0 1.3 0 .1-.1.3 0 .5s.2.3.3.4h.1c-.3 3.2 2 6.1 5.3 6.7 3.3.5 6.4-1.5 7.1-4.6l.3.1c.2 0 .4-.1.5-.3.1-.3 0-.5-.2-.6z" clip-rule="evenodd"/>
  <path fill="#0052CC" fill-rule="evenodd" d="M48 139.2c-.9-1.4-1.2-3.1-.9-4.8.3-1.6 1.2-3.1 2.3-4.3h-3.5c-3.2 3.7-2.5 9.4.2 11.6 1.2 1 2.6 1.3 4 1.2.7-.3 1.5-.5 2.3-.8-2-.3-3.4-1.4-4.4-2.9" clip-rule="evenodd"/>
  <path fill="#2A44A1" fill-rule="evenodd" d="M49.9 130.9c4.9-4.1 6.5-4.4 6-5.3-.2-.3-.6-.4-1-.4-2-.1-3.5.1-4.5.5-1.6.6-4.9 3.5-5.5 4.2-.2.3-.4.6-.6 1 0 .1-.1.3 0 .4.1.1.2.1.3.1 3.4.2 4.6.2 5.3-.5" clip-rule="evenodd"/>
  <path fill="#E2EBFD" fill-rule="evenodd" d="M49.4 129.8c3.5-3 5.3-3.9 5.9-4.6h-.4c-2-.1-3.5.1-4.5.5-1.6.6-4.9 3.5-5.5 4.2-.1.1-.2.3-.3.4 3 .2 4.2.2 4.8-.5" clip-rule="evenodd"/>
  <path fill="#6E95F9" fill-rule="evenodd" d="M66.6 144.7c-.2.6-.5 1.3-1.1 1.5-2.3.9-4.5-4.9-8.1-9.3h-.1l.3.6c1.5 2.8 2.9 5.6 4.4 8.4.4.7.8 1.5 1.5 1.9.4.3 1 .4 1.5.4.6 0 1.3 0 1.7-.5.5-.6.4-1.5.2-2.2-.1-.3-.2-.5-.3-.8M71 144.5c-.1.4-.1.7-.3 1-.3.5-1.1.9-1.6.6-.3-.2-.5-.5-.7-.8-1.4-2.5-2.2-5.3-3.8-7.6.4 1 .9 1.9 1.2 2.9.3.8.5 1.6.7 2.4.2.6.3 1.3.5 1.9.2.7.4 1.3.7 1.9.3.6.8 1.1 1.5 1.3.6.2 1.4 0 1.8-.5.4-.6.3-1.3.2-2l-.2-1.1zM61 145.4c0 .5-.2 1-.7 1.1-.3.1-.7-.1-1-.3-1.7-1.2-2.3-3.4-3.9-4.7-1.4-1.2-3.3-1.6-5.2-1.7.4.3.7.6 1.2.9 1.2.8 2.6 1.3 3.6 2.3.4.4.7.8 1 1.3.5.8 1 1.7 1.6 2.4.4.6 1 1.1 1.7 1.3.7.2 1.6 0 1.9-.7.3-.5.1-1.2-.2-1.9.1.1 0 .1 0 0M110 147.2c.7-.2 1.1-1 1.3-1.7.3-1 .5-1.9.7-2.9.1-.7.2-1.4.4-2.1.4-1.8 1.1-3.6 1.6-5.3-1.6 2.1-2.5 4.7-3.3 7.3-.3.9-.5 1.7-1 2.5-.1.2-.3.4-.6.4-.1 0-.2-.1-.3-.3-.3-.4-.5-.8-.7-1.2v.6c0 .7 0 1.3.3 1.9.3.5 1 .9 1.6.8M119 136.4c-2.1 2.4-3.4 5.5-4.6 8.5-.3.7-.9 1.6-1.7 1.5-.5-.1-.8-.6-.9-1.2v.3c-.1.7-.2 1.5.2 2s1.2.7 1.8.5c.6-.2 1.1-.7 1.5-1.3.3-.6.5-1.2.7-1.9.2-.6.3-1.3.5-1.9.2-.8.4-1.6.7-2.4.5-1.3 1.2-2.7 1.8-4.1M124.1 139.8c-2.1 2-3.4 4.8-5.7 6.5-.2.2-.5.3-.7.4-.5.1-.9-.3-1.2-.7l-.3-.9c0 .2-.1.3-.1.5-.2.7-.3 1.6.2 2.2.4.4 1.1.5 1.7.5.5 0 1-.1 1.5-.4.7-.4 1.1-1.2 1.5-1.9.9-2.1 2-4.2 3.1-6.2M127.7 141.6c-1.2 1.1-2.1 2.4-3.2 3.6-.5.5-1 1-1.6 1.1-.4.1-.8-.1-1.1-.3-.1.5-.2.9 0 1.3.3.6 1.2.9 1.9.7.7-.2 1.2-.7 1.7-1.3.6-.8 1.1-1.6 1.6-2.4.3-.5.6-.9 1-1.3.9-.9 2.2-1.4 3.3-2.1.3-.4.5-.7.8-1-1.7-.2-3.3.6-4.4 1.7" clip-rule="evenodd"/>
  <path fill="#FFF" fill-rule="evenodd" d="M137.2 131.1s-.1 0-.1-.1c-1-.5-1.9-1-2.9-1.5-.9-.5-1.9-1-2.9-1.4-4.1-1.7-8.7-2.1-13.1-1.7-.4 0-.8.1-1.2.1-.8.2-1.6.5-2.3 1-.3.2-.6.5-.4.8l.3.3c1.5.9 3.4.9 4.9 1.6.9.4 1.7 1.1 2.7 1.5.9.3 1.8.4 2.7.6 1.4.4 2.6 1.4 3.6 2.5.4.5.8.9 1.3 1.3.5.3 1.2.5 1.7.3.6-.2 1-.9 1.6-1.2.5-.2 1-.2 1.5-.1 4.3.6 8 3.5 12.1 5.1.5.2 1.2.4 1.7.2 1-.3 1.3-1.7.9-2.7-.5-1-1.5-1.6-2.4-2.1-2.1-1.2-4.3-2.4-6.4-3.6l-3-.9h-.3" clip-rule="evenodd"/>
  <path fill="#36B37E" fill-rule="evenodd" d="M205.6 158.6H60.3c-1.3 0-2.2-1.2-1.9-2.4l1.7-6.5c.2-.8 1-1.4 1.8-1.4h138.6c1.1 0 2.1.6 2.7 1.5l3.9 6.2c.6 1.2-.2 2.6-1.5 2.6" clip-rule="evenodd"/>
  <path fill="#304EC6" fill-rule="evenodd" d="M207.3 156.9v2.8c.1.9-.6 1.8-1.7 1.8H60.3c-1.3 0-2.2-1.2-1.9-2.4v-2.7l148.9.5z" clip-rule="evenodd"/>
  <path fill="#172B4D" fill-rule="evenodd" d="M130.2 172.5H70l4.2-24.1h52.3z" clip-rule="evenodd"/>
  <path fill="#FFF" fill-rule="evenodd" d="M128.5 170.7H70.3l3.9-22.3h51z" clip-rule="evenodd"/>
  <path fill="#FFAB00" fill-rule="evenodd" d="M97 150c-.2 0-.4-.1-.4-.2s.1-.2.4-.2c.9 0 1.9-.1 2.8-.1.3 0 .5.1.5.2s-.2.2-.5.2c-1 0-1.9 0-2.8.1m8.2.1h-.1c-.9-.1-1.8-.1-2.6-.2-.3 0-.4-.1-.4-.2s.3-.2.5-.2c.9 0 1.9.1 2.8.2.2 0 .4.1.3.2-.1.2-.3.2-.5.2m-13.5.4c-.2 0-.3 0-.4-.1-.1-.1 0-.2.3-.2.9-.1 1.8-.3 2.7-.4.2 0 .5 0 .6.1.1.1-.1.2-.3.2-.9.1-1.7.2-2.6.3-.2.1-.3.1-.3.1m18.6.4h-.2c-.8-.2-1.6-.3-2.5-.5-.2 0-.4-.1-.3-.2.1-.1.4-.1.6-.1.9.1 1.7.3 2.6.5.2 0 .3.2.2.2-.1.1-.2.1-.4.1m-23.5.7c-.1 0-.3 0-.4-.1-.1-.1-.1-.2.1-.3l2.4-.6c.2-.1.5 0 .6.1.1.1 0 .2-.2.3-.8.2-1.6.4-2.3.6h-.2m28.1.6c-.1 0-.2 0-.3-.1-.7-.2-1.4-.5-2.1-.7-.2-.1-.3-.2-.1-.3.1-.1.4-.1.6 0 .8.2 1.5.5 2.2.7.2.1.2.2 0 .3-.1.1-.2.1-.3.1m-32.3 1h-.3c-.2-.1-.2-.2 0-.3.6-.3 1.3-.6 2-.9.2-.1.5-.1.7 0 .2.1.2.2 0 .3-.7.3-1.3.5-1.9.8-.2.1-.3.1-.5.1m36 .8c-.2 0-.3 0-.4-.1-.5-.3-1.1-.6-1.7-.9-.2-.1-.2-.2 0-.3.2-.1.5-.1.7 0l1.8.9c.1.1.1.2-.1.3-.1.1-.2.1-.3.1m-39.1 1.2h-.2c-.2 0-.3-.2-.2-.3.4-.4.9-.7 1.5-1 .1-.1.4-.1.7-.1.2.1.3.2.1.3-.5.3-1 .7-1.4 1-.2 0-.3.1-.5.1m41.7.9c-.2 0-.4-.1-.5-.1-.3-.4-.7-.7-1.1-1.1-.1-.1 0-.2.2-.3.2 0 .5 0 .6.1.4.4.8.7 1.2 1.1.1.1 0 .2-.3.2 0 .1 0 .1-.1.1m-43.6 1.3c-.1 0-.1 0 0 0-.3 0-.5-.1-.4-.2.2-.4.5-.8.8-1.2.1-.1.4-.2.6-.1.2 0 .4.1.3.2-.3.4-.6.7-.8 1.1-.1.1-.3.2-.5.2m44.9 1c-.3 0-.5-.1-.5-.2-.1-.4-.3-.8-.5-1.2-.1-.1.1-.2.4-.2.3 0 .5.1.6.2.2.4.4.8.5 1.2 0 .1-.2.2-.5.2M77 159.8c-.2 0-.4-.1-.5-.2v-.9c0-.1 0-.2.1-.3 0-.1.3-.2.5-.2.3 0 .5.1.4.2 0 .1 0 .2-.1.3 0 .3-.1.6 0 .9.1.1-.1.2-.4.2m45.6.4c-.3 0-.5-.1-.5-.2.1-.4.1-.8 0-1.2 0-.1.2-.2.5-.2s.5.1.5.2c.1.4 0 .8 0 1.2-.1.1-.3.2-.5.2m-44.7 2c-.2 0-.4-.1-.4-.1-.3-.4-.5-.8-.7-1.2 0-.1.1-.2.4-.2.3 0 .5 0 .6.2l.6 1.2c.1.1-.1.2-.3.3-.1-.2-.1-.2-.2-.2m43.5.4h-.2c-.3 0-.4-.2-.3-.3.3-.4.6-.8.8-1.2.1-.1.3-.2.6-.1.3 0 .4.1.4.3-.2.4-.5.8-.8 1.2-.1 0-.3.1-.5.1m-41.1 1.9c-.2 0-.3 0-.4-.1-.5-.4-1-.7-1.4-1.1-.1-.1 0-.2.3-.3.3-.1.5 0 .7.1.4.4.8.7 1.4 1.1.1.1.1.2-.2.3h-.4m38.4.3h-.3c-.2-.1-.3-.2-.1-.3.5-.3 1-.7 1.5-1.1.1-.1.4-.1.7-.1.2.1.3.2.2.3-.5.4-1 .8-1.5 1.1-.2.1-.3.1-.5.1m-34.6 1.7c-.1 0-.2 0-.3-.1l-2.1-.9c-.2-.1-.1-.2.1-.3.2-.1.5-.1.7 0 .6.3 1.3.6 2 .9.2.1.2.2 0 .3-.1 0-.3.1-.4.1m30.6.2c-.1 0-.3 0-.4-.1-.2-.1-.2-.2.1-.3.7-.3 1.5-.6 2.1-.9.2-.1.5-.1.7 0 .2.1.2.2 0 .3-.7.3-1.4.6-2.2.9 0 .1-.1.1-.3.1M89 167.9h-.2c-.9-.2-1.8-.4-2.6-.7-.2-.1-.3-.2-.1-.3.2-.1.5-.1.7-.1.8.2 1.6.5 2.5.7.2.1.3.2.2.3-.1.1-.3.1-.5.1m20.7.2c-.2 0-.4 0-.5-.1-.1-.1 0-.2.2-.3.9-.2 1.8-.4 2.6-.6.2-.1.5 0 .7.1.2.1.1.2-.1.3-.9.2-1.8.5-2.7.6h-.2m-15 .7h-.1c-1-.1-2-.2-3-.4-.3 0-.4-.2-.3-.3.1-.1.4-.2.7-.1.9.1 1.9.3 2.9.4.3 0 .4.1.4.3-.1 0-.3.1-.6.1m9.2.1c-.2 0-.5-.1-.5-.2s.1-.2.4-.3c1-.1 2-.2 2.9-.3.3 0 .6 0 .6.1.1.1-.1.2-.3.3-1 .2-2 .3-3.1.4m-4.2.1h-2c-.3 0-.5-.1-.5-.2s.3-.2.6-.2h3c.3 0 .5.1.5.2s-.2.2-.5.2h-1.1M102.5 151.9h-.2c-.8-.1-1.6-.2-2.4-.2h-.1c-.3 0-.5-.1-.5-.2s.2-.2.5-.2h.2c.9 0 1.9.1 2.7.2.2 0 .4.1.3.2-.2.2-.3.2-.5.2zm-7.7.7c-.1 0-.2 0-.3-.1-.2-.1-.2-.2 0-.3.7-.3 1.5-.5 2.4-.7.2 0 .5 0 .6.1.1.1 0 .2-.2.2-.8.1-1.5.3-2.1.6-.2.2-.3.2-.4.2zm11.7.8c-.2 0-.4 0-.4-.1-.4-.3-.9-.6-1.5-.9-.2-.1-.2-.2 0-.3.2-.1.5-.1.7 0 .7.3 1.3.6 1.7 1 .1.1 0 .2-.2.2-.2.1-.3.1-.3.1zm-13.8 1.3c-.3 0-.5-.1-.5-.2 0-.4.2-.8.6-1.1.1-.1.4-.1.6-.1s.4.1.3.2c-.3.3-.5.7-.5 1-.1.1-.3.2-.5.2zm13.9 1.1h-.2c-.2 0-.4-.2-.3-.3.3-.3.5-.7.5-1.1v-.1c0-.1.2-.2.5-.2s.5.1.5.2v.1c0 .4-.2.8-.5 1.2-.1.1-.3.2-.5.2zm-11.9 1c-.1 0-.2 0-.3-.1-.7-.3-1.3-.6-1.7-1-.1-.1 0-.2.3-.3.2 0 .5 0 .6.1.3.3.8.6 1.5.9.2.1.2.2 0 .3-.1.1-.2.1-.4.1zm8 .6c-.2 0-.4 0-.4-.1-.1-.1 0-.2.3-.3.8-.1 1.6-.4 2.2-.6.2-.1.5-.1.7 0 .2.1.2.2 0 .3-.7.3-1.6.5-2.5.7h-.3zm-2.9.2c-1 0-2-.1-2.9-.2-.2 0-.4-.2-.3-.3.1-.1.4-.2.6-.1.8.1 1.7.2 2.6.2.3 0 .5.1.5.2.1.2-.1.2-.5.2z" clip-rule="evenodd"/>
  <path fill="#FFAB00" fill-rule="evenodd" d="M98.3 159.1h-2.9c-.3 0-.5-.1-.5-.2s.2-.2.5-.2h2.9c.3 0 .5.1.5.2s-.2.2-.5.2m5.8 0h-2.9c-.3 0-.5-.1-.5-.2s.2-.2.5-.2h2.9c.3 0 .5.1.5.2s-.2.2-.5.2m5.6.6h-.3c-.7-.2-1.6-.4-2.5-.5-.3 0-.4-.1-.4-.2.1-.1.3-.2.6-.2 1 .1 2 .3 2.8.5.2.1.3.2.1.3 0 0-.2.1-.3.1m-19.8 0c-.1 0-.3 0-.4-.1-.2-.1-.1-.2.1-.3.9-.3 1.8-.5 2.8-.6.3 0 .5 0 .6.1.1.1-.1.2-.4.2-.9.1-1.7.3-2.5.5 0 .2-.1.2-.2.2m22.7 2c-.2 0-.5-.1-.5-.2-.1-.4-.4-.8-.9-1.1-.1-.1-.1-.2.2-.3.2-.1.5 0 .7.1.5.4.9.8 1 1.3 0 .1-.2.2-.5.2.1 0 0 0 0 0m-25.6.1c-.1 0-.1 0 0 0-.3 0-.5-.1-.5-.2.1-.4.5-.9 1-1.2.1-.1.4-.1.7-.1.2.1.3.2.2.3-.5.3-.8.7-.9 1.1-.1 0-.3.1-.5.1m26.4 2.5c-.3 0-.5-.1-.5-.2l-.4-1.3c0-.1.2-.2.4-.2.3 0 .5.1.6.2l.4 1.3c0 .1-.2.2-.5.2m-27.3 0c-.3 0-.5-.1-.5-.2l.4-1.3c0-.1.3-.2.6-.2s.5.1.4.2l-.4 1.3c0 .1-.2.2-.5.2m-.8 2.6s-.1 0 0 0c-.3 0-.5-.1-.5-.2l.4-1.3c0-.1.3-.2.6-.2s.5.1.4.2l-.4 1.3c0 .1-.3.2-.5.2m28.9 0c-.3 0-.5-.1-.5-.2l-.4-1.3c0-.1.2-.2.4-.2.3 0 .5.1.6.2l.4 1.3c0 .1-.2.2-.5.2" clip-rule="evenodd"/>
  <path fill="#36B37E" fill-rule="evenodd" d="M200.5 149.5L190 81.4l1.2-.3-2.2-4.8c-1.2-3.1-4.3-5.3-7.7-5.3H84.5c-4.4 0-7.8 3.7-7.5 8.1l3 38.9c0 .2 0 .3.1.5l1 5.8 1.4-3.1c.4.1.8.2 1.2.2h15.6c1.6 0 3.1-1.1 3.6-2.6l1.8-5.6c1.2-3.7 4.6-6.2 8.5-6.2H148c3.3 0 6.1 2.6 6.4 5.9l3.1 36.7 2.1 6.1v-6.1l40.9-.1z" clip-rule="evenodd"/>
  <path fill="#FFF" fill-rule="evenodd" d="M77.1 79.4c.4-3.7 3.6-6.7 7.4-6.7h96.7c3.5 0 6.5 2.2 7.7 5.3l1.5 3.2.7-.2-2.2-4.8c-1.2-3.1-4.3-5.3-7.7-5.3H84.5c-4.4 0-7.8 3.7-7.5 8.1l.1.4z" clip-rule="evenodd"/>
  <path fill="#E9B13B" d="M92.9 130.6h.6v12.1h-.6z"/>
  <path fill="#6E95F9" d="M96.6 140.2h-4.7c-1.3 0-2.3-1-2.3-2.3v-10.7h.6v10.7c0 .9.8 1.7 1.7 1.7h4.7v.6z"/>
  <path fill="#304EC6" fill-rule="evenodd" d="M85.6 76.2h98c4.1 0 7.7 3 8.3 7.1l11.3 72.4h-43.6l-3.1-37.2c-.3-3.4-3.1-6-6.5-6h-35.2c-3.9 0-7.4 2.5-8.6 6.3l-1.8 5.7c-.5 1.6-2 2.6-3.6 2.6h-16c-2 0-3.6-1.5-3.8-3.5l-3-39.4c-.4-4.3 3.1-8 7.6-8" clip-rule="evenodd"/>
  <path fill="#0F3877" fill-rule="evenodd" d="M159.5 155.7h43.6l-1-6.2H159z" clip-rule="evenodd"/>
  <path fill="#6E95F9" fill-rule="evenodd" d="M86 123.2c0 .6-.5 1.1-1.1 1.1s-1.1-.5-1.1-1.1c0-.6.5-1.1 1.1-1.1s1.1.5 1.1 1.1M102.2 123.2c0 .6-.5 1.1-1.1 1.1-.6 0-1.1-.5-1.1-1.1 0-.6.5-1.1 1.1-1.1.6-.1 1.1.5 1.1 1.1M84.3 81.5c0 .6-.5 1.1-1.1 1.1-.6 0-1.1-.5-1.1-1.1 0-.6.5-1.1 1.1-1.1.6-.1 1.1.4 1.1 1.1M187.3 81.5c0 .6-.5 1.1-1.1 1.1-.6 0-1.1-.5-1.1-1.1 0-.6.5-1.1 1.1-1.1.6-.1 1.1.4 1.1 1.1M164.4 151.8c0 .6-.5 1.1-1.1 1.1-.6 0-1.1-.5-1.1-1.1 0-.6.5-1.1 1.1-1.1.6 0 1.1.5 1.1 1.1M200 151.8c0 .6-.5 1.1-1.1 1.1s-1.1-.5-1.1-1.1c0-.6.5-1.1 1.1-1.1s1.1.5 1.1 1.1" clip-rule="evenodd"/>
  <path fill="#0845A2" fill-rule="evenodd" d="M176.6 108c0 3.7-3 6.6-6.6 6.6-3.7 0-6.6-3-6.6-6.6s3-6.6 6.6-6.6c3.6 0 6.6 2.9 6.6 6.6" clip-rule="evenodd"/>
  <path fill="#0F3877" fill-rule="evenodd" d="M154.8 86.4c-.2-.5-.8-.7-1.3-.5l-8 3.5c-.5.2-.7.8-.5 1.3l3.5 8c.2.5.8.7 1.3.5l8-3.5c.5-.2.7-.8.5-1.3-.8-1.9-2.8-6.5-3.5-8" clip-rule="evenodd"/>
  <path fill="#FFF" fill-rule="evenodd" d="M149.2 91.4c.3-.1.5-.5.3-.9-.1-.3-.5-.5-.9-.3-.3.1-.5.5-.3.9.2.3.6.5.9.3M149.4 95.1c0 .2.1.3.1.5.2.5.7.7 1.3.5.5-.2.8-.7.8-1.3l.1.8 1-.4-.4-2.5c-.1-.6 0-1 .4-1.2.3-.1.6 0 .8.3 0 .1.1.2.1.3l.2 1.2c0 .2.1.3.1.5.2.5.7.7 1.3.5.5-.2.8-.7.7-1.6h-.5c0 .6-.1.8-.2.8-.1.1-.2 0-.3-.2 0-.1-.1-.2-.1-.3l-.2-1.1c0-.3-.1-.5-.2-.7-.3-.8-1-.9-1.5-.7-.5.2-.8.9-.9 1.5l-.2-1-1.5.7.1.9.7-.3.3 1.9c0 .9-.6 1.2-.7 1.2-.1 0-.2 0-.3-.2 0-.1-.1-.2-.1-.4l-.5-2.9-1.7.7.1.9.7-.3.5 1.9z" clip-rule="evenodd"/>
  <path fill="#5680F9" fill-rule="evenodd" d="M129.7 90.7l-2.4 14.5 13.8-5.2z" clip-rule="evenodd"/>
  <path fill="#E2EBFD" d="M149 74.1c-.4 0-.7-.3-.7-.7v-7.5c0-.4.3-.7.7-.7s.7.3.7.7v7.5c0 .4-.3.7-.7.7z"/>
  <path fill="#FFAB00" fill-rule="evenodd" d="M154.3 69.7c.8 1.2-1.1 2.2-4.1 2.2-3 0-6-1-6.6-2.2-.6-1.1 1.3-2.1 4.2-2.1 2.8.1 5.8 1 6.5 2.1" clip-rule="evenodd"/>
  <path fill="#FFAB00" fill-rule="evenodd" d="M143.5 69.7c-1.3-8.2-1.3-16.4 0-24.5h10.8c1.5 8.2 1.4 16.4 0 24.5h-10.8z" clip-rule="evenodd"/>
  <path fill="#172B4D" fill-rule="evenodd" d="M154.3 45.2c.8.8-1.1 1.5-4.1 1.5-3 0-6-.7-6.6-1.5-.6-.8 1.3-1.4 4.2-1.4 2.8-.1 5.8.6 6.5 1.4" clip-rule="evenodd"/>
  <path fill="#E2EBFD" d="M149 45.7c-.4 0-.7-.3-.7-.7v-7.5c0-.4.3-.7.7-.7s.7.3.7.7V45c0 .4-.3.7-.7.7z"/>
  <path fill="#FFC400" fill-rule="evenodd" d="M142.6 48.6c1.3 1 2.7 1.6 4.4 1.7.6 0 .6-.8 0-.9-1.4-.1-2.7-.6-3.8-1.4-.4-.4-1 .2-.6.6M143.8 51.6c1 .4 2 .7 3.1.8.6.1.5-.8 0-.9-.9-.1-1.8-.4-2.7-.7-.5-.2-.9.5-.4.8M144.7 53.8c.2.1.4.2.7.2.2 0 .4-.2.4-.4s-.2-.4-.4-.4h-.2c-.2-.1-.5-.1-.6.2-.2 0-.1.3.1.4M146.3 63.5c2.6.4 5.2.3 7.8-.4.5-.2.3-1-.2-.8-2.4.7-4.8.8-7.3.4-.6-.1-.8.8-.3.8M151.9 65.5c.6-.1 1.1-.2 1.7-.4.5-.2.3-1-.2-.8-.5.2-1.1.4-1.7.4-.2 0-.4.3-.3.5 0 .3.3.4.5.3M152.9 67.5c.1-.1.3-.1.4-.2.2-.1.4-.3.3-.5-.1-.2-.3-.4-.5-.3-.1.1-.3.1-.4.2-.2.1-.4.3-.3.5 0 .2.3.4.5.3" clip-rule="evenodd"/>
  <path fill="#2A44A1" fill-rule="evenodd" d="M96.4 132.4c-2.1.5-4.2.5-6.3 0-.8-.2-1.3-.9-1.3-1.7v-3.5h8.9v3.5c0 .8-.6 1.5-1.3 1.7" clip-rule="evenodd"/>
  <path fill="#304EC6" fill-rule="evenodd" d="M96.4 131.8c-2.1.5-4.2.5-6.3 0-.8-.2-1.3-.9-1.3-1.7v.6c0 .8.5 1.5 1.3 1.7 2.1.5 4.2.5 6.3 0 .8-.2 1.3-.9 1.3-1.7v-.6c0 .8-.6 1.5-1.3 1.7" clip-rule="evenodd"/>
  <path fill="#0F3877" fill-rule="evenodd" d="M88.7 127.4c0 .8.5 1.5 1.3 1.7 2.1.5 4.2.5 6.3 0 .8-.2 1.3-.9 1.3-1.7v-.2h-8.9v.2z" clip-rule="evenodd"/>
  <g transform="translate(0 145.484816)">
    <defs>
      <filter id="__atlassian_svg_right_e" width="24.8" height="37.9" x="0" y="-.1" filterUnits="userSpaceOnUse">
        <feColorMatrix values="1 0 0 0 0 0 1 0 0 0 0 0 1 0 0 0 0 0 1 0"/>
      </filter>
    </defs>
    <mask id="__atlassian_svg_right_f" width="24.8" height="37.9" x="0" y="-.1" maskUnits="userSpaceOnUse">
      <path fill="#FFF" fill-rule="evenodd" d="M0-.1h24.8v37.9H0z" clip-rule="evenodd" filter="url(#__atlassian_svg_right_e)"/>
    </mask>
    <path fill="#57D9A3" fill-rule="evenodd" d="M24.8 34.9c.2-14-.7-22.3-3.1-35H3.2C1.1 12.9-.1 21.3 0 35.3c-.7 1.4 4.3 2.5 11.2 2.5 6.9 0 13-1.1 13.5-2.5.1-.1.1-.3.1-.4" clip-rule="evenodd" mask="url(#__atlassian_svg_right_f)"/>
  </g>
  <path fill="#79F2C0" fill-rule="evenodd" d="M18.2 159.9c1.1 0 2.1 0 3.2.1.6 0 1.3 0 1.9.2.9.4 1.6 1.6.7 2.3-1.7 1.2-3.7 2.2-5.6 3.1-.5.2-.1 1 .4.8 1.7-.8 3.4-1.7 4.9-2.7.9-.6 2-1.2 1.8-2.4-.5-2.7-5.4-2.2-7.3-2.1-.5-.1-.5.8 0 .7" clip-rule="evenodd"/>
  <path fill="#BED2FB" fill-rule="evenodd" d="M47.2 148.2H31.4c-1 12.1-1.6 20.3 0 33.3h.1c1.3 1.9 13.2 1.9 15.7 0 .8-12.6 1.1-20.2 0-33.3" clip-rule="evenodd"/>
  <g transform="translate(178.618654 184.671746)">
    <defs>
      <filter id="__atlassian_svg_right_g" width="23.2" height="5.9" x="0" y="-.1" filterUnits="userSpaceOnUse">
        <feColorMatrix values="1 0 0 0 0 0 1 0 0 0 0 0 1 0 0 0 0 0 1 0"/>
      </filter>
    </defs>
    <mask id="__atlassian_svg_right_h" width="23.2" height="5.9" x="0" y="-.1" maskUnits="userSpaceOnUse">
      <path fill="#FFF" fill-rule="evenodd" d="M0-.1h23.2v5.9H0z" clip-rule="evenodd" filter="url(#__atlassian_svg_right_g)"/>
    </mask>
    <path fill="#FFAB00" fill-rule="evenodd" d="M23.1 2.8c.8 1.6-3.8 3-10.2 3S.7 4.5.1 2.8c-.6-1.6 4-2.9 10.3-2.9 6.2 0 11.9 1.3 12.7 2.9" clip-rule="evenodd" mask="url(#__atlassian_svg_right_h)"/>
  </g>
  <path fill="#172B4D" fill-rule="evenodd" d="M227.1 180.5c-7.6 1.2-15.3 1.6-23 1.3-.6 0-.6.8 0 .9 7.8.3 15.6-.2 23.3-1.3.5-.1.2-1-.3-.9M218.7 167.1c-1.5-1.4.8-2.6 1.9-3 1-.3 2.1-.5 3.2-.7 1-.1 2-.1 2.9.2.5.1.9.2 1.5.1s.3-.9-.2-.8c-1 .2-2.1-.4-3.1-.4-1.4 0-3 .3-4.3.7-1.8.6-4.6 2.6-2.4 4.5.3.4.9-.2.5-.6" clip-rule="evenodd"/>
  <g transform="translate(197.787485 161.159588)">
    <defs>
      <filter id="__atlassian_svg_right_i" width="47.9" height="20.6" x=".1" y="-.1" filterUnits="userSpaceOnUse">
        <feColorMatrix values="1 0 0 0 0 0 1 0 0 0 0 0 1 0 0 0 0 0 1 0"/>
      </filter>
    </defs>
    <mask id="__atlassian_svg_right_j" width="47.9" height="20.6" x=".1" y="-.1" maskUnits="userSpaceOnUse">
      <path fill="#FFF" fill-rule="evenodd" d="M.1-.1h48v20.6H.1z" clip-rule="evenodd" filter="url(#__atlassian_svg_right_i)"/>
    </mask>
    <path fill="#EEC83F" fill-rule="evenodd" d="M.1 7.1c.3 2.5 2.6 4.9 4.4 6.5 2 1.9 4.4 3.3 6.9 4.4 3.2 1.3 6.6 2.1 10 2.3 3.2.2 6.5.3 9.6-.5 2.1-.6 5.4-1.9 5.7-4.4.2-2.4-1.7-4.5-3.6-5.6-2.7-1.6-6-1.7-8.9-2.5-1.5-.4-4.7-1.3-4.8-3.3-.1-3 4.3-2.7 6.2-2.4 3.3.6 6.6 2 10.1 1.4 1.7-.3 3.3-1.2 5-1.7 2.2-.7 4.5-.5 6.6.4.5.2 1-.5.4-.8-2.6-1.2-5.3-1.2-7.9-.3-1.4.5-2.8 1.2-4.3 1.5-1.9.3-3.8 0-5.7-.5C27.1 1 24-.1 21.2.7c-1.9.6-3.5 2.7-2.3 4.6 1.4 2.2 5 2.8 7.4 3.3 3.1.6 6.9 1.2 8.8 4.2.4.7.8 1.6.7 2.4-.1 1.1-1 1.8-1.9 2.4-1.4.9-3.1 1.4-4.8 1.7-3.4.5-7.1.4-10.5-.2-3.7-.6-7.3-1.8-10.5-3.8-1.5-.9-2.8-2-4.1-3.3C2.8 10.7 1 8.8.8 7c.2-.5-.7-.5-.7.1" clip-rule="evenodd" mask="url(#__atlassian_svg_right_j)"/>
  </g>
  <path fill="#FFAB00" fill-rule="evenodd" d="M178.7 187c-.9-14.9.2-23.8 2-39.2l19.1.5c1.9 15.2 2.8 24.2 2.1 39.4l-23.2-.7z" clip-rule="evenodd"/>
  <path fill="#172B4D" fill-rule="evenodd" d="M21.6 145.3c-.4.8-4.9 1.5-10.1 1.5s-8.9-.7-8.4-1.5 5-1.5 10-1.5 8.9.7 8.5 1.5" clip-rule="evenodd"/>
  <path fill="#2A44A1" fill-rule="evenodd" d="M17.3 145.2v-5.9l-9.7.2v5.8c-.3.4 1.7.8 4.4.8s5.1-.4 5.3-.8v-.1" clip-rule="evenodd"/>
  <path fill="#172B4D" fill-rule="evenodd" d="M17.3 139.3c-.2.4-2.6.8-5.3.8s-4.7-.3-4.4-.8c.3-.4 2.6-.8 5.3-.8s4.6.4 4.4.8M47.2 148.1c-.3.8-4.1 1.5-8.5 1.5s-7.7-.7-7.3-1.5c.4-.8 4.2-1.5 8.5-1.5s7.6.7 7.3 1.5" clip-rule="evenodd"/>
  <path fill="#2A44A1" fill-rule="evenodd" d="M43.9 148v-6.2l-9.1.2v6.2c-.2.5 1.7.9 4.2.9s4.7-.4 4.9-.9v-.2" clip-rule="evenodd"/>
  <path fill="#0F3877" fill-rule="evenodd" d="M41.2 141.8l-4.6.2v6.9c.7.1 1.5.1 2.3.1 1.3 0 2.6-.1 3.5-.3v-6.9h-1.2z" clip-rule="evenodd"/>
  <path fill="#172B4D" fill-rule="evenodd" d="M43.9 141.8c-.2.5-2.4.9-4.9.9-2.5 0-4.4-.4-4.2-.9.2-.5 2.4-.8 4.9-.8 2.5 0 4.4.4 4.2.8M199.7 148.1c.7 1.1-3.1 2-8.4 2s-10.1-.9-10.6-2 3.3-1.9 8.4-1.9c5.2-.1 10 .8 10.6 1.9" clip-rule="evenodd"/>
  <path fill="#2A44A1" fill-rule="evenodd" d="M194.6 148.1c0-.1 0-.1 0 0v-9.6l-8.8-.2V148.1c.3.5 2.5.9 4.9.9 2.5 0 4.2-.4 3.9-.9" clip-rule="evenodd"/>
  <path fill="#0F3877" fill-rule="evenodd" d="M188.5 148.8c.7.1 1.4.1 2.2.1.9 0 1.7-.1 2.4-.2v-10.3l-2.5-.1h-2.1v10.5z" clip-rule="evenodd"/>
  <path fill="#172B4D" fill-rule="evenodd" d="M194.6 138.4c.3.5-1.5.9-3.9.9-2.5 0-4.7-.4-4.9-.9-.3-.5 1.5-.8 3.9-.8 2.4-.1 4.6.3 4.9.8" clip-rule="evenodd"/>
  <path fill="#BED2FB" fill-rule="evenodd" d="M44.7 173.5c1.3.7 2.6.8 4 1 .9.1 1.9.3 2.6 1.1.7.8.9 1.8 1.2 2.7.9 2.6 3.1 4.3 5.8 4.6.6.1.6-.8 0-.9-1.8-.2-3.5-1.2-4.4-2.8-.7-1.2-.9-2.7-1.7-3.9-1.7-2.4-4.8-1.3-7.1-2.6-.4-.2-.9.6-.4.8" clip-rule="evenodd"/>
  <path fill="#FFAB00" fill-rule="evenodd" d="M190.8 160.6c3.7-1.3 7.6-2.6 10.6-5.2.8-.7 2.1-1.9 1.1-3-.9-1.1-3.3-.6-4.5-.4-.6.1-.3.9.2.8.8-.1 1.7-.2 2.5-.1 1.4.2.9 1.3.2 2-1 .9-2.1 1.6-3.2 2.2-2.3 1.3-4.7 2.1-7.2 2.9-.5.1-.3.9.3.8M200.5 160.5c.3-.2.6-.4 1-.6.3-.2.6-.4.6-.7.1-.3-.1-.6-.3-.8-.3-.2-.7-.2-1-.2-.2 0-.4.2-.4.4s.2.5.4.4h.5v-.1l-.2.1c-.3.2-.6.4-1 .6-.5.4-.1 1.1.4.9M183.4 153.4c-1.8.1-3.9-.1-5-1.7-1.1-1.6-.1-3.1-.2-4.7-.1-2.5-2.8-3.1-4.9-2.9-.6 0-.6.9 0 .9.9-.1 1.9-.1 2.7.3 1.5.7 1.3 2 1.1 3.3-.2 1.1-.3 2.1.2 3.1 1.1 2.3 3.7 2.8 6 2.7.6-.1.6-1 .1-1" clip-rule="evenodd"/>
  <path fill="#79F2C0" fill-rule="evenodd" d="M12.8 151c3 0 5.9-.3 8.8-.8.6-.1.3-.9-.2-.8-2.8.5-5.7.8-8.5.8-.7-.1-.7.8-.1.8M16.5 153c1.2 0 2.4-.1 3.5-.3.5-.1.3-.9-.2-.8-1.1.2-2.2.3-3.3.3-.5-.1-.5.8 0 .8M13.2 170.2c3-.2 5.9-.5 8.9-.9.6-.1.3-.9-.2-.8-2.9.4-5.8.7-8.7.8-.5.1-.5 1 0 .9M17.9 171.4l2.4-.3c.6-.1.6-.9 0-.9l-2.4.3c-.5.1-.5 1 0 .9M15.7 174.3c2.5-.3 4.9-.7 7.3-1.2.5-.1.3-1-.2-.8-2.3.5-4.7.9-7.1 1.2-.5 0-.5.9 0 .8M20.6 175.3l.9-.1c.2 0 .4-.3.3-.5-.1-.2-.3-.3-.5-.3-.3 0-.6.1-.9.1-.2 0-.4.3-.3.5 0 .2.3.3.5.3M22.1 176.7c.3 0 .7-.1 1-.1.5-.1.3-1-.2-.8-.3.1-.5.1-.8.1-.6-.1-.6.8 0 .8" clip-rule="evenodd"/>
  <path fill="#E2EBFD" fill-rule="evenodd" d="M41.9 152.1c1.1 0 2.2-.1 3.3-.4.5-.1.3-1-.2-.8-1 .2-2 .4-3.1.3-.5 0-.5.8 0 .9M43.4 154.1c.4 0 .9 0 1.3-.1.2 0 .4-.3.3-.5-.1-.3-.3-.3-.5-.3-.4 0-.7.1-1.1 0-.6 0-.6.9 0 .9M39.9 162c2.4 0 4.9-.2 7.3-.5.6-.1.3-.9-.2-.8-2.3.3-4.7.5-7 .5-.7-.1-.7.8-.1.8M44.4 163.3c.6 0 1.2-.1 1.8-.1.6 0 .6-.9 0-.9s-1.2.1-1.8.1c-.6.1-.6 1 0 .9M46.1 164.8c.1 0 .2 0 .2-.1.2-.1.4-.3.3-.5-.1-.2-.3-.4-.5-.3-.1 0-.2 0-.2.1-.2.1-.4.3-.3.5 0 .2.2.3.5.3M43.2 178.7c.3-.1.7-.1 1-.2.2 0 .4-.3.3-.5-.1-.2-.3-.3-.5-.3-.3.1-.7.1-1 .2-.2 0-.4.3-.3.5 0 .3.3.4.5.3" clip-rule="evenodd"/>
  <path fill="#FFE380" fill-rule="evenodd" d="M190.5 159.1c2.1-.2 4.2-.5 6.3-1 .5-.1.3-1-.2-.8-2 .4-4 .8-6 .9-.7 0-.7.9-.1.9M195.1 161.4c.4 0 .7 0 1.1-.1.2 0 .4-.3.3-.5-.1-.2-.3-.3-.5-.3-.3 0-.6.1-.9.1-.6 0-.6.8 0 .8M179.4 184.3c1.5.5 3.1.9 4.7 1 .6.1.6-.8 0-.9-1.5-.2-3-.5-4.5-1-.5-.1-.7.7-.2.9M179.5 182.7c.3.1.6.1.9.2.2.1.5-.1.5-.3.1-.2-.1-.5-.3-.5-.3-.1-.6-.1-.9-.2-.2-.1-.5.1-.5.3-.1.2 0 .5.3.5M195.2 179.9c2.1.1 4.4-.7 6.4-1.2.5-.2.3-1-.2-.8-1.9.6-4.2 1.4-6.2 1.2-.6-.1-.6.8 0 .8M199.2 177.6c.5-.1.9-.2 1.4-.4.2-.1.3-.4.2-.6-.1-.2-.4-.2-.6-.2-.4.2-.8.3-1.2.3-.2 0-.4.3-.3.5.1.3.3.4.5.4" clip-rule="evenodd"/>
  <path fill="#E2EBFD" fill-rule="evenodd" d="M31.7 155.2c1 .2 2.1.3 3.1.4.6 0 .6-.8 0-.9-1-.1-1.9-.2-2.9-.3-.5-.2-.8.7-.2.8M31.7 157c.2.1.4.1.6.1.2 0 .4-.2.4-.4s-.2-.5-.4-.4h-.4c-.2-.1-.5.1-.5.3 0 .1.1.3.3.4M31.9 174.4c.6.2 1.3.3 2 .3.6 0 .6-.8 0-.9-.6 0-1.2-.2-1.8-.3-.5 0-.7.8-.2.9M32.2 176.3h.8c.2-.1.4-.3.3-.5-.1-.2-.3-.4-.5-.3h-.6c-.2 0-.4.2-.4.4s.1.3.4.4" clip-rule="evenodd"/>
</svg>
