<svg id="Layer_1" data-name="Layer 1" xmlns="http://www.w3.org/2000/svg" viewBox="0 0 135.28 114.73"><defs><style>.cls-12,.cls-13{fill-rule:evenodd}.cls-2{fill:#36b37e}.cls-13{fill:#172b4d}.cls-4{fill:#bed2fb}.cls-5{fill:#6e95f9}.cls-6{fill:#ffab00}.cls-12{fill:#79f2c0}</style><mask id="mask" x="87.46" y="73.97" width="26.67" height="40.76" maskUnits="userSpaceOnUse"><g id="mask-6"><path id="path-5" fill-rule="evenodd" fill="#fff" d="M114.13 114.73H87.46V73.97h26.67v40.76z"/></g></mask></defs><path class="cls-2" d="M39.78 93.31a3.32 3.32 0 0 1 .16-2.73A5 5 0 0 1 43 88a12 12 0 0 1 5.88.23l.41.08a61.64 61.64 0 0 0 15.23 1.19c5.92-.29 10-1.57 13-4 2.17-1.81 3.55-5 2-7.1A6.22 6.22 0 0 0 77 76.61a27.64 27.64 0 0 0-12.11-2.31v-1a28.6 28.6 0 0 1 12.5 2.4 7.12 7.12 0 0 1 3 2.07c1.92 2.56.41 6.32-2.16 8.47-4.09 3.42-9.71 4.07-13.58 4.26a62.69 62.69 0 0 1-15.52-1.18l-.41-.08a11.27 11.27 0 0 0-5.47-.24 4 4 0 0 0-2.41 2 2.36 2.36 0 0 0-.13 1.93z"/><path class="cls-2" d="M45.44 102.5h-1c-5.13 0-12.42-.65-16.43-5.56-3.35-4.09-3-7.93-2.78-11 .27-3.3.45-5.48-3.4-6.82-4.75-1.66-8.37-.63-11.56.28-2.67.75-5.18 1.47-7.76.38A3.63 3.63 0 0 1 0 76.41c.05-1.83 1.67-3.49 4.34-4.41 7.44-2.7 15.5-2.09 23.29-1.5 6.22.47 12.64 1 18.73-.23l.19 1c-6.22 1.21-12.71.72-19 .25-7.69-.58-15.64-1.18-22.88 1.44C2.41 73.71 1 75 1 76.43a2.66 2.66 0 0 0 1.91 2.4c2.26 1 4.51.31 7.1-.42 3.34-1 7.12-2 12.17-.26 4.58 1.59 4.34 4.49 4.07 7.84-.26 3.06-.54 6.53 2.55 10.31 3.71 4.53 10.32 5.15 15.67 5.19h1c17 0 31.7-3.34 44.68-6.29 3.44-.78 6.7-1.52 9.82-2.16l.2 1c-3.11.63-6.36 1.37-9.8 2.16-13.06 2.95-27.8 6.3-44.93 6.3z"/><path d="M74.3 40.11c3.39 1.85-3.38 3.37-15.19 3.37S35.29 42 32.35 40.11s4.06-3.24 15.42-3.24S71 38.31 74.3 40.11z" fill="#172b4d"/><rect class="cls-4" x="61.21" y="5.65" width="3.2" height="60.57" rx="1.6" transform="rotate(12.18 62.798 35.957)"/><path class="cls-5" d="M61.28 50.6l2.25-10.42h-3.27l-2.21 10.24 3.23.18z"/><path class="cls-6" d="M68.49 77.86l6.66-36.68c-.35 1.34-6.57 2.32-16 2.32-11.82 0-23.82-1.52-26.76-3.37a2 2 0 0 1-.48-.4h-.21l6.43 36.13a1.71 1.71 0 0 0 .6 1.17c2.09 1.55 10.42 2.83 18.59 2.83 6.56 0 10.9-.82 11.17-2z"/><path d="M40 77.28l-6.54-36.64a6.44 6.44 0 0 1-1.11-.53 2 2 0 0 1-.48-.4h-.17l6.43 36.13a1.71 1.71 0 0 0 .6 1.17 5.82 5.82 0 0 0 1.33.67 1.91 1.91 0 0 1-.06-.4z" fill="#fff"/><path class="cls-6" d="M31.24 25.54a8.13 8.13 0 0 1-5.5-.08 11 11 0 0 1-5.69-4.8 11 11 0 0 1-1.5-7.3A7.66 7.66 0 0 1 29 7.14a10.93 10.93 0 0 1 5.69 4.8c2.83 4.77 1.85 10.59-2.2 13a7.74 7.74 0 0 1-1.25.6zM24.15 8.83a6.2 6.2 0 0 0-.94.44 6.08 6.08 0 0 0-2.81 4.38 9.11 9.11 0 0 0 1.26 6 9.14 9.14 0 0 0 4.71 4 6.07 6.07 0 0 0 5.19-.37c3.15-1.88 3.84-6.56 1.54-10.43a9.14 9.14 0 0 0-4.71-4 6.25 6.25 0 0 0-4.24-.02zM47.74 19.6a7.41 7.41 0 0 1-1.35.34c-4.64.73-9.12-3.14-10-8.61A11 11 0 0 1 37.74 4a7.67 7.67 0 0 1 12-1.88 11 11 0 0 1 3.5 6.58c.76 4.92-1.62 9.5-5.5 10.9zM42.57 2.2A6.26 6.26 0 0 0 39.35 5a9 9 0 0 0-1.08 6c.69 4.45 4.21 7.62 7.83 7.05a5.54 5.54 0 0 0 1-.26c3-1.1 4.94-4.82 4.31-8.84a9.07 9.07 0 0 0-2.89-5.46 6 6 0 0 0-5-1.59 5 5 0 0 0-.95.3z"/><path d="M43.06 35.26l1.58 2.11-.11-2.73-1-.37s-.19.39-.47.99z" fill="none"/><path class="cls-4" d="M44.53 34.64l.11 2.73-1.58-2.11c-.49 1-1.26 2.53-2 3.71l1 1.59S44.86 51.92 58 76.62c0 0-3.57-21.25-9.77-38.12l-.25-2.59z"/><path class="cls-5" d="M42.25 41c.24.88.88 3 2.17 6.44l6.87.44c-.71-2.39-1.47-4.78-2.28-7.12z"/><path class="cls-6" d="M43.89 19.31l.64 15.33 3.41 1.27-1.69-16.89-2.36.29zM33.81 22.94l-2.08 1.36L41.11 39c.69-1.18 1.46-2.73 2-3.71z"/><path d="M42.93 78.49a72.34 72.34 0 0 0 14.39 1.35 44.92 44.92 0 0 0 8.42-.64c1.52-8.47 4.88-27.22 6.44-36.66a70.37 70.37 0 0 1-13.07.94 118.71 118.71 0 0 1-22.25-1.9c1.3 8.32 4.46 27.32 6.07 36.91z" fill="#ff8b00"/><path class="cls-2" d="M124.78 108.39a35.89 35.89 0 0 1-7.69-1.13c-4.3-.94-8.35-1.84-12.25-.12l-.4-.91c4.2-1.86 8.6-.88 12.86.06 3.32.73 6.76 1.49 10 .88 3.51-.66 7.07-3.51 6.93-7.16-.16-4.52-5.25-8-10-8.92-5.73-1.15-16.25.48-24.2 2.39l-.23-1c2.78-.66 17-3.91 24.63-2.39 5.21 1 10.58 4.77 10.76 9.87.15 4.18-3.82 7.44-7.74 8.17a15 15 0 0 1-2.67.26z"/><g mask="url(#mask)" id="Group-241"><path id="Fill-239" d="M87.53 111.61a.52.52 0 0 0 0 .47c.58 1.46 7.08 2.65 14.51 2.65s12.81-1.19 12-2.65C114.28 97 113 87.94 110.69 74H90.91a159.75 159.75 0 0 0-3.38 37.64" fill="#36b37e" fill-rule="evenodd"/></g><path id="Fill-242" class="cls-12" d="M94.54 89.66a.47.47 0 0 0 0-.93c-2 0-7.33-.56-7.86 2.3-.25 1.35.95 2 1.93 2.63a48.51 48.51 0 0 0 5.31 2.87c.54.25 1-.56.47-.81a41.71 41.71 0 0 1-6-3.29c-1.06-.73-.3-2 .71-2.43a6.7 6.7 0 0 1 2-.25 29.87 29.87 0 0 1 3.41-.09"/><path id="Fill-258" class="cls-13" d="M90.89 74c-.45-.88 3.58-1.58 9-1.58s10.24.7 10.79 1.58-3.47 1.61-9 1.61-10.34-.76-10.79-1.61"/><path id="Fill-260" d="M95.54 73.84a.15.15 0 0 0 0 .13c.27.46 2.82.84 5.71.84s5-.38 4.75-.85v-6.27l-10.47-.2v6.35" fill="#2a44a1" fill-rule="evenodd"/><path id="Fill-262" class="cls-13" d="M95.54 67.49c-.25-.45 1.88-.81 4.76-.81s5.43.36 5.71.81-1.85.81-4.75.81-5.47-.37-5.72-.81"/><path id="Fill-288" class="cls-12" d="M100.42 80.06a.47.47 0 0 0 0-.94 49.59 49.59 0 0 1-9.18-.82c-.59-.11-.84.79-.25.9a50.59 50.59 0 0 0 9.43.86"/><path id="Fill-290" class="cls-12" d="M96.36 82.2a.47.47 0 0 0 0-.94A15.76 15.76 0 0 1 92.8 81c-.59-.12-.84.78-.25.9a17.42 17.42 0 0 0 3.81.33"/><path id="Fill-292" class="cls-12" d="M99.92 100.72c.6 0 .6-.91 0-.94q-4.68-.25-9.3-.91c-.59-.09-.85.82-.25.9 3.17.46 6.35.77 9.55 1"/><path id="Fill-294" class="cls-12" d="M94.86 102c.6.07.6-.86 0-.93l-2.62-.31c-.6-.07-.59.87 0 .94l2.62.3"/><path id="Fill-296" class="cls-12" d="M97.23 105.14c.6.06.59-.87 0-.94a72.79 72.79 0 0 1-7.61-1.28c-.59-.14-.83.77-.25.9a74.94 74.94 0 0 0 7.86 1.32"/><path id="Fill-298" class="cls-12" d="M92 106.15a.49.49 0 0 0 .58-.33.47.47 0 0 0-.33-.57l-.94-.14a.47.47 0 0 0-.24.9l.93.14"/><path id="Fill-300" class="cls-12" d="M90.43 107.66a.47.47 0 0 0 0-.93 3.69 3.69 0 0 1-.81-.12.47.47 0 0 0-.25.9 4.67 4.67 0 0 0 1.06.15"/></svg>