<svg xmlns="http://www.w3.org/2000/svg" enable-background="new 0 0 135.3 114.7" viewBox="0 0 135.3 114.7">
  <path fill="#36B37E" d="M39.8 93.3c-.3-.9-.3-1.8.2-2.7.6-1.2 1.7-2.2 3-2.5 1.9-.6 3.9-.2 5.9.2l.4.1c5 1 10.2 1.4 15.3 1.2 5.9-.3 10-1.6 13-4 2.2-1.8 3.6-5 2-7.1-.6-.8-1.6-1.3-2.6-1.8-3.8-1.7-8-2.5-12.1-2.3v-1c4.3-.1 8.6.7 12.5 2.4 1.1.5 2.2 1.1 3 2.1 1.9 2.6.4 6.3-2.2 8.5-4.1 3.4-9.7 4.1-13.6 4.3-5.2.3-10.4-.1-15.5-1.2l-.4-.1c-1.8-.4-3.7-.8-5.4-.2-1 .3-2 1.1-2.4 2-.2.5-.4 1.2-.1 1.9l-1 .2z"/>
  <path fill="#36B37E" d="M45.4 102.5h-1c-5.6 0-12.5-.7-16.4-5.6-3.3-4.1-3-7.9-2.8-11 .3-3.3.4-5.5-3.4-6.8-4.7-1.7-8.4-.6-11.6.3-2.7.8-5.2 1.5-7.8.4-1.5-.7-2.4-2-2.4-3.4 0-1.8 1.7-3.5 4.3-4.5 7.4-2.7 15.5-2.1 23.3-1.5 6.2.5 12.6 1 18.7-.2l.2 1c-6.2 1.2-12.7.7-19 .2-7.7-.6-15.6-1.2-22.9 1.4C2.4 73.7 1 75 1 76.4c0 1 .7 1.9 1.9 2.4 2.3 1 4.5.3 7.1-.4 3.3-.9 7.1-2 12.2-.3 4.6 1.6 4.3 4.5 4.1 7.8-.3 3.1-.5 6.5 2.6 10.3 3.7 4.5 10.3 5.2 15.7 5.2 17.4.1 32.4-3.3 45.6-6.3 3.4-.8 6.7-1.5 9.8-2.2l.2 1c-3.1.6-6.4 1.4-9.8 2.2-13.1 3-27.8 6.4-45 6.4z"/>
  <path fill="#172B4D" d="M74.3 40.1c3.4 1.8-3.4 3.4-15.2 3.4S35.3 42 32.4 40.1c-2.9-1.8 4.1-3.2 15.4-3.2s23.2 1.4 26.5 3.2z"/>
  <path fill="#BED2FB" d="M56.4 65.5c.9.2 1.7-.4 1.9-1.2L70.4 8.2c.2-.9-.4-1.7-1.2-1.9-.9-.2-1.7.4-1.9 1.2L55.2 63.6c-.2.9.4 1.8 1.2 1.9z"/>
  <path fill="#6E95F9" d="M61.3 50.6l2.2-10.4h-3.2L58 50.4z"/>
  <path fill="#FFAB00" d="M68.5 77.9s0-.1 0 0l6.7-36.7c-.3 1.3-6.6 2.3-16 2.3-11.8 0-23.8-1.5-26.8-3.4-.2-.1-.4-.3-.5-.4h-.2l6.4 36.1s0 .7.6 1.2c2.1 1.6 10.4 2.8 18.6 2.8 6.6 0 10.9-.8 11.2-1.9z"/>
  <path fill="#FFF" d="M40 77.3l-6.5-36.6c-.4-.2-.8-.3-1.1-.5-.2-.1-.4-.3-.5-.4h-.2l6.4 36.1s0 .7.6 1.2c.3.2.8.5 1.3.7v-.5z"/>
  <path fill="#FFAB00" d="M31.2 25.5c-1.7.6-3.6.6-5.5-.1-2.3-.8-4.3-2.5-5.7-4.8-1.4-2.3-1.9-4.9-1.5-7.3.4-2.5 1.7-4.5 3.7-5.7 2-1.2 4.4-1.4 6.8-.5 2.3.8 4.3 2.5 5.7 4.8 2.8 4.8 1.8 10.6-2.2 13-.4.3-.8.5-1.3.6zm-7-16.7c-.3.1-.6.3-.9.4-1.5.9-2.5 2.4-2.8 4.4-.3 2 .1 4.1 1.3 6 1.1 1.9 2.8 3.3 4.7 4 1.8.7 3.7.5 5.2-.4 3.2-1.9 3.8-6.6 1.5-10.4-1.1-1.9-2.8-3.3-4.7-4-1.6-.4-3-.4-4.3 0zM47.7 19.6c-.4.2-.9.3-1.3.3-4.6.7-9.1-3.1-10-8.6-.4-2.6.1-5.2 1.3-7.3C39 1.8 41 .4 43.3.1c2.3-.4 4.6.4 6.5 2 1.8 1.6 3.1 4 3.5 6.6.7 4.9-1.7 9.5-5.6 10.9zM42.6 2.2c-1.3.5-2.4 1.4-3.2 2.8-1 1.7-1.4 3.9-1.1 6.1.7 4.5 4.2 7.6 7.8 7 .3-.1.7-.1 1-.3 3-1.1 4.9-4.8 4.3-8.8-.3-2.2-1.4-4.1-2.9-5.5-1.5-1.3-3.2-1.9-5-1.6l-.9.3z"/>
  <path fill="none" d="M43.1 35.3l1.6 2.1-.1-2.7-1-.4c-.1 0-.3.4-.5 1z"/>
  <path fill="#BED2FB" d="M44.5 34.6l.1 2.7-1.6-2.1c-.5 1-1.3 2.5-1.9 3.7l1 1.6s2.7 11.4 15.8 36.1c0 0-3.6-21.3-9.8-38.1l-.3-2.6-3.3-1.3z"/>
  <path fill="#6E95F9" d="M42.2 41c.2.9.9 3 2.2 6.4l6.9.4c-.7-2.4-1.5-4.8-2.3-7.1-2.1.2-4.6.3-6.8.3z"/>
  <path fill="#FFAB00" d="M43.9 19.3l.6 15.3 3.4 1.3L46.2 19zM33.8 22.9l-2.1 1.4L41.1 39c.7-1.2 1.5-2.7 1.9-3.7l-9.2-12.4z"/>
  <path fill="#FF8B00" d="M42.9 78.5c3.7.8 9.1 1.4 14.4 1.4 3.6 0 6.5-.2 8.4-.6 1.5-8.5 4.9-27.2 6.4-36.7-2.8.6-7.3.9-13.1.9-8.4 0-17-.8-22.2-1.9 1.4 8.3 4.5 27.3 6.1 36.9z"/>
  <path fill="#36B37E" d="M124.8 108.4c-2.6 0-5.2-.6-7.7-1.1-4.3-.9-8.3-1.8-12.2-.1l-.4-.9c4.2-1.9 8.6-.9 12.9.1 3.3.7 6.8 1.5 10 .9 3.5-.7 7.1-3.5 6.9-7.2-.2-4.5-5.3-8-10-8.9-5.7-1.2-16.3.5-24.2 2.4l-.2-1c2.8-.7 17-3.9 24.6-2.4 5.2 1 10.6 4.8 10.8 9.9.2 4.2-3.8 7.4-7.7 8.2-1 0-1.9.1-2.8.1z"/>
  <g>
    <g transform="translate(0 191.484816)">
      <defs>
        <filter id="__atlassian_svg_left_a" width="26.7" height="40.8" x="87.5" y="-117.5" filterUnits="userSpaceOnUse">
          <feColorMatrix values="1 0 0 0 0 0 1 0 0 0 0 0 1 0 0 0 0 0 1 0"/>
        </filter>
      </defs>
      <mask id="__atlassian_svg_left_b" width="26.7" height="40.8" x="87.5" y="-117.5" maskUnits="userSpaceOnUse">
        <path fill="#FFF" fill-rule="evenodd" d="M114.1-76.7H87.5v-40.8h26.6z" clip-rule="evenodd" filter="url(#__atlassian_svg_left_a)"/>
      </mask>
      <path fill="#36B37E" fill-rule="evenodd" d="M87.5-79.9c-.1.2-.1.3 0 .5.6 1.5 7.1 2.7 14.5 2.7s12.8-1.2 12-2.7c.2-15.1-1.1-24.1-3.4-38.1H90.9c-2.7 13.7-3.6 22.6-3.4 37.6" clip-rule="evenodd" mask="url(#__atlassian_svg_left_b)"/>
    </g>
    <path fill="#79F2C0" fill-rule="evenodd" d="M94.5 89.7c.6 0 .6-.9 0-.9-2 0-7.3-.6-7.9 2.3-.2 1.3.9 2 1.9 2.6 1.7 1.1 3.5 2 5.3 2.9.5.3 1-.6.5-.8-2-1-4.1-2-6-3.3-1.1-.7-.3-2 .7-2.4.6-.3 1.4-.2 2-.3 1.3-.1 2.4-.2 3.5-.1" clip-rule="evenodd"/>
    <path fill="#172B4D" fill-rule="evenodd" d="M90.9 74c-.4-.9 3.6-1.6 9-1.6s10.2.7 10.8 1.6c.6.9-3.5 1.6-9 1.6s-10.4-.7-10.8-1.6" clip-rule="evenodd"/>
    <path fill="#2A44A1" fill-rule="evenodd" d="M95.5 73.8v.1c.3.5 2.8.8 5.7.8 2.9 0 5-.4 4.8-.8v-6.3l-10.5-.2v6.4" clip-rule="evenodd"/>
    <path fill="#172B4D" fill-rule="evenodd" d="M95.5 67.5c-.2-.4 1.9-.8 4.8-.8s5.4.4 5.7.8c.3.4-1.8.8-4.8.8s-5.4-.4-5.7-.8" clip-rule="evenodd"/>
    <path fill="#79F2C0" fill-rule="evenodd" d="M100.4 80.1c.6 0 .6-.9 0-.9-3.1 0-6.1-.3-9.2-.8-.6-.1-.8.8-.2.9 3.1.5 6.2.8 9.4.8M96.4 82.2c.6 0 .6-1 0-.9-1.2 0-2.4-.1-3.6-.3-.6-.1-.8.8-.2.9 1.2.2 2.5.3 3.8.3M99.9 100.7c.6 0 .6-.9 0-.9-3.1-.2-6.2-.5-9.3-.9-.6-.1-.8.8-.2.9 3.1.4 6.3.7 9.5.9M94.9 102c.6.1.6-.9 0-.9-.9-.1-1.7-.2-2.6-.3-.6-.1-.6.9 0 .9.8.1 1.7.2 2.6.3M97.2 105.1c.6.1.6-.9 0-.9-2.6-.3-5.1-.7-7.6-1.3-.6-.1-.8.8-.2.9 2.6.6 5.2 1 7.8 1.3M92 106.2c.3 0 .5-.1.6-.3.1-.2-.1-.5-.3-.6-.3 0-.6-.1-.9-.1-.3 0-.5.1-.6.3-.1.2.1.5.3.6l.9.1M90.4 107.7c.6 0 .6-.9 0-.9-.3 0-.5 0-.8-.1-.6-.2-.8.7-.2.9.3 0 .7.1 1 .1" clip-rule="evenodd"/>
  </g>
</svg>
