<svg id="Layer_1" data-name="Layer 1" xmlns="http://www.w3.org/2000/svg" viewBox="0 0 84.4439 200"><defs><style>.cls-1{fill:none;stroke:#263907;stroke-miterlimit:10;stroke-width:1.5172px;}.cls-2{fill:#b9ee00;}.cls-3{fill:#42711c;}.cls-4{fill:#829413;}.cls-5{fill:#0c2f00;}.cls-6{fill:#e4ffc7;}.cls-7{fill:#c7f73d;}.cls-8{fill:#96bf48;}.cls-9{fill:#6c8119;}</style></defs><title>shopify-thumb-layer2</title><line class="cls-1" x1="5.4034" y1="39.3471" x2="0.7582" y2="183.087"/><path class="cls-2" d="M139.2036,209.3486c1.2424.039,2.5315,1.1489,3.5847.4888.7421-.465.7944-1.5131.7119-2.385a31.2951,31.2951,0,0,0-.56-3.5006,3.016,3.016,0,0,1-.9538,1.1866c-1.5672,1.0727-4.1341-.3518-7.0371,2.7259a3.276,3.276,0,0,0-.3764,3.8526,5.7988,5.7988,0,0,0,1.0169,1.3577C136.589,211.33,137.353,209.2905,139.2036,209.3486Z" transform="translate(-76.5883 -21.6905)"/><path class="cls-3" d="M140.4757,217.4957c.3929.6605.6308,1.4051,1.0384,2.0566a4.5819,4.5819,0,0,0,7.53.32c1.9026-2.533,1.98-10.8608,1.8235-14.0325a10.06,10.06,0,0,0-.6042-3.3988c-1.3944-3.3411-5.0026-3.0291-6.4731-.3581-.3252.5908-.5455,1.267-.85,1.8685a31.2951,31.2951,0,0,1,.56,3.5006c.0825.8719.03,1.92-.7119,2.385-1.0532.66-2.3423-.45-3.5847-.4888-1.8506-.0581-2.6146,1.9809-3.6133,3.726C137.1155,214.63,139.3474,215.599,140.4757,217.4957Z" transform="translate(-76.5883 -21.6905)"/><path class="cls-4" d="M142.7883,209.8374c.7421-.465.7944-1.5131.7119-2.385-.4592-4.8583-2.4876-9.5193-2.4841-14.3993.002-2.8332.6922-5.622.8613-8.45a23.1588,23.1588,0,0,0-2.5357-11.9574c-1.3222-2.5544-3.158-4.96-3.53-7.8124-.6546-5.0193,3.41-9.69,3.0172-14.7369-.2572-3.3012-2.3746-6.1346-3.4076-9.2807a14.8585,14.8585,0,0,1,4.52-15.674l11.6042-10.5655c-.947-1.8124-2.33-2.68-4.5982-3.3445-12.3941-3.6308-21.2194,5.546-18.5868,13.1322.4272,20.7958,4.1721,41.364,7.9059,61.8263,2.4022,13.1649,3.3233,19.958,4.7734,23.6558A1.9847,1.9847,0,0,0,142.7883,209.8374Z" transform="translate(-76.5883 -21.6905)"/><path class="cls-5" d="M144.562,213.8254a3.9858,3.9858,0,0,0,3.7369-.1917c1.337-.9034,1.7583-2.6563,1.985-4.2539,1.91-13.4552-2.524-26.985-2.6649-40.5744-.0356-3.4388.2045-6.8745.2508-10.3132.0611-4.5441-.2147-9.1149.417-13.6153.67-4.7722,2.342-9.3377,3.52-14.01s1.8536-9.6459.5184-14.2762a10.7789,10.7789,0,0,0-.78-2.0143l-11.6042,10.5655a14.8585,14.8585,0,0,0-4.52,15.674c1.033,3.1461,3.15,5.98,3.4076,9.2807.3932,5.0465-3.6718,9.7176-3.0172,14.7369.3719,2.852,2.2077,5.258,3.53,7.8124a23.1588,23.1588,0,0,1,2.5357,11.9574c-.1691,2.8282-.8593,5.617-.8613,8.45-.0035,4.88,2.0249,9.541,2.4841,14.3993.0825.8719.03,1.92-.7119,2.385a1.9847,1.9847,0,0,1-1.7485.0084A6.2772,6.2772,0,0,0,144.562,213.8254Z" transform="translate(-76.5883 -21.6905)"/><path class="cls-3" d="M105.06,202.7424c-1.1259.8535-2.65.8743-4.0609.9476a33.9973,33.9973,0,0,0-6.8841,1.0875,6.5554,6.5554,0,0,0,2.53,2.1393,8.7652,8.7652,0,0,0,2.5477.8058c1.1542.1779,2.3423.1246,3.477.4006,1.5543.3779,2.9013,1.346,4.4205,1.8467s3.4843.3637,4.3366-.99a5.278,5.278,0,0,0,.5193-2.6639,24.4257,24.4257,0,0,1,.3691-3.425c.3945-2.1936,1.0642-4.5757.029-6.5494a4.1773,4.1773,0,0,0-5.9909-1.5594C106.4446,197.6116,107.3034,201.0417,105.06,202.7424Z" transform="translate(-76.5883 -21.6905)"/><path class="cls-2" d="M104.8088,197.5916A11.69,11.69,0,0,1,98.6,199.126a7.5578,7.5578,0,0,0-3.4476.2354,3.5239,3.5239,0,0,0-1.6612,4.1022,4.54,4.54,0,0,0,.6243,1.3139,33.9973,33.9973,0,0,1,6.8841-1.0875c1.411-.0733,2.935-.0941,4.0609-.9476,2.2434-1.7007,1.3846-5.1308,1.2935-7.96a4.0251,4.0251,0,0,0-.4882.3611Z" transform="translate(-76.5883 -21.6905)"/><path class="cls-5" d="M127.3114,123.6449a39.65,39.65,0,0,1-11.2193-1.7384c-.6586,3.0367-.9879,6.0378-.0479,8.9769,1.2283,3.84,4.4959,6.897,5.1538,10.8752.892,5.3931-3.2371,10.2225-7.2546,13.93a11.7345,11.7345,0,0,0-3.4865,4.4024,9.6828,9.6828,0,0,0-.3239,3.9458c.3763,4.9872,1.842,9.9966.9233,14.9129-1.0115,5.4135-4.8477,10.2232-4.7073,15.7286.07,2.7373.9037,6.0667-1.046,7.85,1.8318,2.3229,5.0042,2.2453,6.9971-.5422,3.7619-5.262,8.19-39.0238,8.9447-41.8665,1.53-5.76,7.6482-17.5456,11.6572-27.1747a25.2645,25.2645,0,0,0,11.0527-2.4293,12.7527,12.7527,0,0,0,6.7848-8.4052A118.7079,118.7079,0,0,1,127.3114,123.6449Z" transform="translate(-76.5883 -21.6905)"/><path class="cls-4" d="M106.349,194.6781c-.14-5.5054,3.6958-10.3151,4.7073-15.7286.9187-4.9163-.547-9.9257-.9233-14.9129a9.6828,9.6828,0,0,1,.3239-3.9458,11.7345,11.7345,0,0,1,3.4865-4.4024c4.0175-3.7073,8.1466-8.5367,7.2546-13.93-.6579-3.9782-3.9255-7.0348-5.1538-10.8752-.94-2.9391-.6107-5.94.0479-8.9769a20.49,20.49,0,0,1-3.2877-1.4266,26.3747,26.3747,0,0,1-.6738,4.3783c-8.0452,34.0123-9.53,71.399-7.702,76.1293a5.904,5.904,0,0,0,.8744,1.541C107.2527,200.7448,106.4189,197.4154,106.349,194.6781Z" transform="translate(-76.5883 -21.6905)"/><path class="cls-6" d="M82.0841,79.8242c1.777,1.2895,2.7925,3.4336,4.3568,6.2769.0185-.0081.0384-.0118.0567-.02a2.7668,2.7668,0,0,0,1.4179-2.2432,8.1642,8.1642,0,0,0-.3225-2.7406l-.1722-1.0744c-3.2192-5.14-3.1065-5.0022-3.4271-5.3462-1.3525-1.451-5.246-1.607-5.796-1.3591a3.5284,3.5284,0,0,0-.7146,1.9574C77.301,77.6662,80.955,79.0049,82.0841,79.8242Z" transform="translate(-76.5883 -21.6905)"/><path class="cls-7" d="M77.7253,79.2963a27.0378,27.0378,0,0,0,1.24,2.6193c.9155,1.36,2.7067,1.9,3.6843,3.2159a2.1649,2.1649,0,0,0,2.252,1.19,3.6275,3.6275,0,0,0,1.5391-.22c-1.5643-2.8433-2.58-4.9874-4.3568-6.2769-1.1291-.8193-4.7831-2.158-4.601-4.55A8.2657,8.2657,0,0,0,77.7253,79.2963Z" transform="translate(-76.5883 -21.6905)"/><path class="cls-6" d="M122.967,50.6508c-.4654-.6007-1.2116-.9206-1.7233-1.4823-1.1279-1.2375-.7766-3.2625.1539-4.6545,1.4614-2.1866,5.12-4.3659,4.2351-6.9826-.6136-1.8139-3.3342-2.3943-3.63-4.2862a4.4825,4.4825,0,0,1,1.5833-3.34c-3.9647,1.9937-7.27,10.4529-6.847,12.67.3734,1.96.6186.3158.6119,4.8992a41.478,41.478,0,0,0,1.4168,9.3261,6.1062,6.1062,0,0,0,1.2816,2.9735,3.9674,3.9674,0,0,0,1.6645.9761,6.576,6.576,0,0,0,1.4556.2873,6.004,6.004,0,0,1-.6046-2.2324C122.2687,55.2777,124.4474,52.562,122.967,50.6508Z" transform="translate(-76.5883 -21.6905)"/><path class="cls-7" d="M135.5433,49.7417l.3631-.4715a18.9323,18.9323,0,0,0,.0779-13.028,9.67,9.67,0,0,0-3.976-5.2939c-1.5433-.8734-5.6269-1.8839-7.623-1.3516a4.1748,4.1748,0,0,0-.7993.3084,4.4825,4.4825,0,0,0-1.5833,3.34c.2958,1.8919,3.0164,2.4723,3.63,4.2862.885,2.6167-2.7737,4.796-4.2351,6.9826-.93,1.392-1.2818,3.417-.1539,4.6545.5117.5617,1.2579.8816,1.7233,1.4823,1.48,1.9112-.6983,4.6269-.4022,8.1544a6.004,6.004,0,0,0,.6046,2.2324C128.5282,61.4857,132.6834,54.8533,135.5433,49.7417Z" transform="translate(-76.5883 -21.6905)"/><path class="cls-2" d="M125.6327,37.5314c-.6136-1.8139-3.3342-2.3943-3.63-4.2862-.1971-1.26,1.0767-3.2917,2.7393-4.2136-4.876,1.125-8.1825,6.8232-9.0665,11.9012a1.269,1.269,0,0,0,.6087,1.2857,15.948,15.948,0,0,0,2.4346,1.1846c.9144.3649,1.849.6734,2.7914.9559C123.0349,42.2242,126.4968,40.0863,125.6327,37.5314Z" transform="translate(-76.5883 -21.6905)"/><path class="cls-5" d="M136.6927,45.43a1.3437,1.3437,0,0,0,1.13-1.3672c-.1059-3.9717-1.2423-9.007-3.6471-11.6769a11.3617,11.3617,0,0,0-8.0545-3.5586,7.6668,7.6668,0,0,0-1.3794.2043c-1.6626.9219-2.9364,2.9537-2.7393,4.2136.2958,1.8919,3.0164,2.4723,3.63,4.2862.8641,2.5549-2.5978,4.6928-4.1225,6.8276A34.8249,34.8249,0,0,0,136.6927,45.43Z" transform="translate(-76.5883 -21.6905)"/><path class="cls-2" d="M128.7235,21.7274a4.1747,4.1747,0,0,0-3.7027,4.5594,4.1751,4.1751,0,0,0,3.8819,4.0879,4.6757,4.6757,0,0,0,4.7511-5.0445c-.2028-2.7271-2.1105-3.6605-4.3889-3.6394A3.7663,3.7663,0,0,0,128.7235,21.7274Z" transform="translate(-76.5883 -21.6905)"/><path class="cls-2" d="M139.6032,62.2641c-.5-6.1215-4.399-8.278-7.2321-7.3466l-.4645.0166c-5.987,1.3366-11.8753,2.6647-15,4.5579-7.0911,4.2958-17.5511,24.091-21.1036,31.509a66.0448,66.0448,0,0,1-7.111-9.4545,5.3622,5.3622,0,0,0-1.8266-2.071,3.1439,3.1439,0,0,0-3.8334,1.1854c2.947,3.0986,4.0067,9.2424,12.5055,17.3458,3.2163,3.0665,2.4545-2.4226,8.6565-8.3548,1.63-1.5592,3.475-2.9,4.9535-4.604,4.6125-5.3159,1.5066-15.0526,6.4341-20.0779,1.263-1.2881,6.6008-.74,8.3544-.3167,2.82.6808,4.8793,6.1215,5.0474,9.0577,1.2948-.3454,2.5947-.6743,3.8563-1.1238a10.56,10.56,0,0,0,5.4721-3.8561A10.2964,10.2964,0,0,0,139.6032,62.2641Z" transform="translate(-76.5883 -21.6905)"/><path class="cls-4" d="M150.2458,88.8664c1.7261-7.0319,4.87-14.2364,3.0167-21.236a17.4347,17.4347,0,0,0-10.559-11.4255c-10.4276-4.0461-21.2577,1.6845-27.1221,8.7651a15.2971,15.2971,0,0,0-.134,4.23c.4859,4.4726,2.2652,8.8416,1.8632,13.3225-.2875,3.2051-1.6809,6.2312-1.9823,9.435-.5806,6.174,2.926,12.081,2.9488,18.2821.0144,3.9113-1.35,7.8181-2.185,11.6674a39.65,39.65,0,0,0,11.2193,1.7384,118.7079,118.7079,0,0,0,23.4281-1.5343c.03-.15.0624-.299.0854-.4507.4282-2.837-.39-5.6914-.981-8.4989A54.8739,54.8739,0,0,1,150.2458,88.8664Z" transform="translate(-76.5883 -21.6905)"/><path class="cls-2" d="M115.3283,91.957c.3014-3.2038,1.6948-6.23,1.9823-9.435.402-4.4809-1.3773-8.85-1.8632-13.3225a15.2971,15.2971,0,0,1,.134-4.23c-3.1714,3.8292-4.8948,8.0521-4.3071,11.34l.1885.7846c-.0988,8.1537-.1972,16.3219.4705,24.4487.3132,3.8113,1.404,12.2116.8711,18.9367a20.49,20.49,0,0,0,3.2877,1.4266c.8349-3.8493,2.1994-7.7561,2.185-11.6674C118.2543,104.038,114.7477,98.131,115.3283,91.957Z" transform="translate(-76.5883 -21.6905)"/><path class="cls-4" d="M123.9358,64.6533c-1.7536-.4234-7.0914-.9714-8.3544.3167-4.9275,5.0253-1.8216,14.762-6.4341,20.0779-1.4785,1.7039-3.3233,3.0448-4.9535,4.604-6.202,5.9322-5.44,11.4213-8.6565,8.3548C87.0385,89.9033,85.9788,83.76,83.0318,80.6609a3.8625,3.8625,0,0,0-.7734,1.6412c-.3926,2.0591.5552,4.12,1.5766,5.9508a57.3588,57.3588,0,0,0,11.5783,14.5508c1.3066,1.1825,2.0054,1.0756,3.08.0252,9.4286-9.2128,14.7945-23.7745,27.8075-28.3228.8805-.3078,1.78-.5546,2.682-.7951C128.8151,70.7748,126.7563,65.3341,123.9358,64.6533Z" transform="translate(-76.5883 -21.6905)"/><path class="cls-5" d="M133.5746,66.4868a33.79,33.79,0,0,0-11.362-9.1538,28.9906,28.9906,0,0,0-4.3356,1.6357c3.9829,1.2665,8.97,6.6542,11.1881,9.4264Q131.32,67.4408,133.5746,66.4868Z" transform="translate(-76.5883 -21.6905)"/><path class="cls-5" d="M112.1285,103.6469c.183,1.8726.418,4.2271.59,6.7658a92.8954,92.8954,0,0,0,11.7447-7.3023l-2.2881-6.7559A58.5262,58.5262,0,0,1,112.1285,103.6469Z" transform="translate(-76.5883 -21.6905)"/><path class="cls-8" d="M131.4842,125.7121c2.449-3.9517.3787-9.3786.6762-14.2089a47.7637,47.7637,0,0,1,1.5416-7.4142,33.5832,33.5832,0,0,0,.5382-11.4316c-.5389-4.3-1.9021-8.7355-.7145-12.8619,1.2125-4.2129,4.9646-7.5393,4.6822-11.9625-.1558-2.4422-1.5639-4.5742-1.8807-6.9959-.3668-2.8042.7679-5.6412.4662-8.4555-.4425-4.1291-2.7112-7.1226-6.1836-4.6649-2.4359,2.3023-5.2611,6.0855-9.1757,12.2425a14.5029,14.5029,0,0,0-1.9832,7.08q-.042,23.8208-.0843,47.6413c-.0125,7.0506,1.0958,11.9925,7.9786,14.0366A7.1057,7.1057,0,0,0,131.4842,125.7121Z" transform="translate(-76.5883 -21.6905)"/><path class="cls-9" d="M157.5371,122.9342c.9781-2.4893,3.412-38.7341,3.4926-54.8462.0305-6.09-.1056-5.2125-7.171-19.8548-1.5274-3.1651-1.996-3.1621-11.4708-3.768-4.8906-.3126-7.8192-.49-11.7781,3.2515,3.4724-2.4577,5.7411.5358,6.1836,4.6649.3017,2.8143-.833,5.6513-.4662,8.4555.3168,2.4217,1.7249,4.5537,1.8807,6.9959.2824,4.4232-3.47,7.75-4.6822,11.9625-1.1876,4.1264.1756,8.562.7145,12.8619a33.5832,33.5832,0,0,1-.5382,11.4316,47.7637,47.7637,0,0,0-1.5416,7.4142c-.2975,4.83,1.7728,10.2572-.6762,14.2089a7.1057,7.1057,0,0,1-4.139,3.0051,28.4906,28.4906,0,0,0,6.8708,1.0059C141.887,130.0435,154.7888,129.9294,157.5371,122.9342Z" transform="translate(-76.5883 -21.6905)"/><path class="cls-3" d="M136.7934,52.3816c-.4425-4.1291-2.7113-7.1228-6.1837-4.6647-2.4359,2.3023-5.2611,6.0854-9.1756,12.2423-.0344.0539-.0639.115-.0974.17l.0309.1159c3.5489-4.8624,11.5128-4.6844,14.4131-1.8988a5.4181,5.4181,0,0,1,.5014.5611C136.41,56.7358,137.0261,54.552,136.7934,52.3816Z" transform="translate(-76.5883 -21.6905)"/><path class="cls-5" d="M156.0393,70.3787a2.0318,2.0318,0,0,0,1.0923-.2864c.6313-.4648,2.2686-4.4908,2.4852-9.9049-1.02-2.3419-2.7667-5.7549-5.7581-11.9542-1.5274-3.1651-1.996-3.1621-11.4708-3.768-4.8907-.3126-7.8193-.49-11.7782,3.2517,3.4724-2.4581,5.7412.5356,6.1837,4.6647.2327,2.17-.383,4.3542-.5113,6.5261,2.4364,3.1006,4.3941,10.9735,4.8268,11.331C142.0356,71.0048,154.4829,70.4811,156.0393,70.3787Z" transform="translate(-76.5883 -21.6905)"/><path class="cls-6" d="M86.8651,79.4756c-1.6107-5.2988-2.7514-8.6762-3.9826-8.2656-1.3264.4424-.8974,3.79-.4545,5.1308" transform="translate(-76.5883 -21.6905)"/><path class="cls-5" d="M130.75,21.8435a3.864,3.864,0,0,1-.3358,3.0959c-.3823.5085-1.1612.8176-1.1442,1.4536.0168.6251,1.0921,1.3732-.2246,2.3908a2.4582,2.4582,0,0,1-3.3426-.3028,4.1327,4.1327,0,0,0,3.2,1.8937,4.6756,4.6756,0,0,0,4.7512-5.0445A3.51,3.51,0,0,0,130.75,21.8435Z" transform="translate(-76.5883 -21.6905)"/></svg>