<svg id="Layer_1" data-name="Layer 1" xmlns="http://www.w3.org/2000/svg" viewBox="0 0 183.9761 250"><defs><style>.cls-1{fill:none;stroke:#263907;stroke-miterlimit:10;stroke-width:3.0114px;}.cls-2{fill:#b9ee00;}.cls-3{fill:#0c2f00;}.cls-4{fill:#42711c;}.cls-5{fill:#829413;}.cls-6{fill:#e4ffc7;}.cls-7{fill:#c7f73d;}.cls-8{fill:#96bf48;}</style></defs><title>shopify-thumb-layer1</title><line class="cls-1" x1="24.2736" y1="90.32" x2="5.3698" y2="240.7886"/><path class="cls-2" d="M65.2471,241.0675c-.9549-.6315-.6562-2.07-.3765-3.18.4474-1.7759.4807-3.8562-.74-5.2213a4.701,4.701,0,0,0-3.9961-1.3114,11.0037,11.0037,0,0,0-3.3521,1.03,61.7286,61.7286,0,0,0-7.1639,7.28,2.3939,2.3939,0,0,0-.5888,1.0189.8428.8428,0,0,0,.4774.9754l.0081-.3377q.09.2639.1789.5278c5.0757,1.5369,10.4541,1.6746,15.756,1.8a8.3778,8.3778,0,0,0,3.1-.3153,5.3714,5.3714,0,0,0,1.1915-.6387,7.48,7.48,0,0,0-3.2-1.2844A3.0832,3.0832,0,0,1,65.2471,241.0675Z" transform="translate(-49.012 -0.0008)"/><path class="cls-3" d="M75.66,237.6894a2.4815,2.4815,0,0,0,1.0027-1.3979c.1139-.7969-.5444-1.4739-1.15-2.0045a37.8093,37.8093,0,0,0-7.0892-5.21c-1.8495-.9773-4.0764-1.6756-6.0059-.8679a8.0136,8.0136,0,0,0-1.5754.9556c-1.3991,1.014-2.7512,2.092-4.06,3.22a11.0037,11.0037,0,0,1,3.3521-1.03,4.701,4.701,0,0,1,3.9961,1.3114c1.2209,1.3651,1.1876,3.4454.74,5.2213-.28,1.11-.5784,2.5489.3765,3.18a3.0832,3.0832,0,0,0,1.2951.3433,7.48,7.48,0,0,1,3.2,1.2844,15.4328,15.4328,0,0,0,1.2741-1.0149Z" transform="translate(-49.012 -0.0008)"/><path class="cls-2" d="M214.4425,203.5643a7.3921,7.3921,0,0,0-3.4352,1.0944,10.5231,10.5231,0,0,0-2.0656,1.9938q-3.2733,3.81-6.3888,7.7517c-.7334.9279-1.504,2.063-1.1748,3.1991l.7226.2583a6.8061,6.8061,0,0,1,3.6713-2.02c1.8291-.4079,3.73-.3309,5.5874-.5782a16.1187,16.1187,0,0,0,4.9445-1.4949,2.453,2.453,0,0,0,1.0075-.7531c.8069-1.1966-.6416-2.9219.0134-4.208.4482-.88,1.6051-1.0464,2.5848-1.1712a21.917,21.917,0,0,0,6.7487-2.0072,33.1451,33.1451,0,0,0-5.7758-1.4589A23.4136,23.4136,0,0,0,214.4425,203.5643Z" transform="translate(-49.012 -0.0008)"/><path class="cls-4" d="M217.3248,208.8075c-.655,1.2861.7935,3.0114-.0134,4.208a2.453,2.453,0,0,1-1.0075.7531,16.1187,16.1187,0,0,1-4.9445,1.4949c-1.8576.2473-3.7583.17-5.5874.5782a6.8061,6.8061,0,0,0-3.6713,2.02q.6216.222,1.2431.4443l.9259-.2182,8.6938-.54a36.8124,36.8124,0,0,1,8.3091.1116,12.1386,12.1386,0,0,0,3.3267.3423,9.1437,9.1437,0,0,0,3.34-1.3265l3.7588-2.1046a2.6446,2.6446,0,0,0,1.095-.91,2.1931,2.1931,0,0,0,.1464-1.4121,8.5715,8.5715,0,0,0-4.6447-5.8772,14.23,14.23,0,0,0-1.6362-.7419,21.917,21.917,0,0,1-6.7487,2.0072C218.93,207.7611,217.773,207.9274,217.3248,208.8075Z" transform="translate(-49.012 -0.0008)"/><path class="cls-2" d="M143.7317,39.0859a45.3216,45.3216,0,0,1,19.559,5.1318c7.4424,3.8985,8.8026,7.4732,9.2326,14.83.5721,9.7886.6443,19.5988.7162,29.4039.0579,7.8816-.2307,10.2082-2.615,16.544q-2.82,7.4937-6.1831,14.768c-.4895,1.0586-1.0548,1.492-2.0335.8343a8.3789,8.3789,0,0,1-2.77-4.2769,67.2327,67.2327,0,0,1-3.54-32.2358c.4876-3.5784,1.2587-7.27.2731-10.7447-1.6088-5.671-7.35-9.0989-10.3277-14.1863-3.3944-5.7994-2.9747-13.3815-2.3113-20.0685" transform="translate(-49.012 -0.0008)"/><path class="cls-3" d="M167.5884,216.81l.0528.24C167.6627,216.8846,167.6448,216.73,167.5884,216.81Z" transform="translate(-49.012 -0.0008)"/><path class="cls-5" d="M155.9333,202.9628c-1.3419-4.6315-4.8577-8.7263-4.7229-13.5464.1447-5.1742,4.5337-9.6731,4.0871-14.83-.4117-4.7542-4.7454-8.18-6.4245-12.6468-3.8022-10.1144,6.892-21.0423,4.1988-31.5067-1.1658-4.53-4.6991-8.0845-8.5365-10.7592v-5.4545q-3.6531.0177-7.3-.2552v8.279c5.9647,31.3859,11.95,63.0649,12.3055,94.9344a11.2719,11.2719,0,0,0,6.5182,2.6985C156.8566,208.3077,156.8675,206.1877,155.9333,202.9628Z" transform="translate(-49.012 -0.0008)"/><path class="cls-2" d="M144.5929,241.8951c2.1329-.7842,4.4742-.6726,6.7284-.96,2.7651-.3528,3.3828-1.531,3.5754-4.36.4848-7.1256.8747-12.5265,1.1624-16.6988a11.2719,11.2719,0,0,1-6.5182-2.6985q.0741,6.6322-.19,13.275a25.1348,25.1348,0,0,0,.13,4.223c-2.0155,2.3531-5.3445.6176-8.099,2.64a10.03,10.03,0,0,0-1.6379,2.06c-1.1925,2.1907-.1607,3.87,1.749,5.01A6.1892,6.1892,0,0,1,144.5929,241.8951Z" transform="translate(-49.012 -0.0008)"/><path class="cls-3" d="M153.0718,130.4329c2.6932,10.4644-8.001,21.3923-4.1988,31.5067,1.6791,4.4668,6.0128,7.8926,6.4245,12.6468.4466,5.1569-3.9424,9.6558-4.0871,14.83-.1348,4.82,3.381,8.9149,4.7229,13.5464.9342,3.2249.9233,5.3449.1258,16.9131a13.7085,13.7085,0,0,0,1.6048.06,22.0571,22.0571,0,0,0,6.8417-1.4051c.0671-.7914.1259-1.5835.1633-2.3773.58-12.2973-2.7555-24.4754-2.8141-36.7862-.1-21.0957,9.3944-41.9856,5.6531-62.7471-.3121-1.7315-.7174-3.4464-1.1607-5.154a91.0007,91.0007,0,0,1-21.8119,2.7525v5.4545C148.3727,122.3484,151.906,125.9029,153.0718,130.4329Z" transform="translate(-49.012 -0.0008)"/><path class="cls-4" d="M152.1153,247.2665c2.1124.9166,3.9765,2.6372,6.2774,2.7308a6.5475,6.5475,0,0,0,4.717-2.02,5.4907,5.4907,0,0,0,1.03-3.0207c.4463-4.9225-1.864-6.9723-1.7-12.4743.1976-.9039.354-1.82.5052-2.7253.6225-3.727,1.241-7.4632,1.5606-11.2256a22.0571,22.0571,0,0,1-6.8417,1.4051,13.7085,13.7085,0,0,1-1.6048-.06c-.2877,4.1723-.6776,9.5732-1.1624,16.6988-.1926,2.8291-.81,4.0073-3.5754,4.36-2.2542.2877-4.5955.1761-6.7284.96a6.1892,6.1892,0,0,0-3.1008,2.4892,13.4361,13.4361,0,0,0,4.5387,1.544A25.724,25.724,0,0,1,152.1153,247.2665Z" transform="translate(-49.012 -0.0008)"/><path class="cls-6" d="M132.0311,26.7247c-.1588-2.8312,2.1486-5.1013,3.5046-7.5917a4.644,4.644,0,0,0,.667-2.1024c.0195-1.2037-.7034-2.2722-1.165-3.384a8.26,8.26,0,0,1,.6873-7.53A7.97,7.97,0,0,1,137.4482,4.23a16.6088,16.6088,0,0,0-3.8054.7449,7.8791,7.8791,0,0,0-2.5741,1.3194,8.436,8.436,0,0,0-2.3752,3.7608c-1.284,3.5663-1.5229,7.4759-1.9987,12.4266-.55,5.7253,1.433,5.2155,2.4052,10.9267.2554,1.5009.4224,3.207,1.6185,4.1489,1.2182.9594,2.9355.6854,4.4813.9462a21.5964,21.5964,0,0,0-1.32-6.8482C133.195,30.0267,132.13,28.4889,132.0311,26.7247Z" transform="translate(-49.012 -0.0008)"/><path class="cls-7" d="M156.1052,43.72a49.1637,49.1637,0,0,1-3.9276-5.7019,13.7593,13.7593,0,0,1-1.7807-4.12c-.6-2.9.4365-5.85,1.1009-8.7365a35.1225,35.1225,0,0,0,.8917-8.2678,18.52,18.52,0,0,0-.89-5.938,9.5706,9.5706,0,0,0-3.4915-4.7933,12.3659,12.3659,0,0,0-5.3752-1.77,23.9969,23.9969,0,0,0-5.1846-.1632,7.97,7.97,0,0,0-1.7232,1.8863,8.26,8.26,0,0,0-.6873,7.53c.4616,1.1118,1.1845,2.18,1.165,3.384a4.644,4.644,0,0,1-.667,2.1024c-1.356,2.49-3.6634,4.7605-3.5046,7.5917.0988,1.7642,1.1639,3.302,1.8484,4.931a21.5964,21.5964,0,0,1,1.32,6.8482,5.354,5.354,0,0,1,.5954.1323Z" transform="translate(-49.012 -0.0008)"/><path class="cls-8" d="M132.2783,28.048,129.28,31.87a3.258,3.258,0,0,0-.5191.8175,3.1942,3.1942,0,0,0-.0688,1.5289q.3028,2.4841.7983,4.94a6.7339,6.7339,0,0,0,.4218,1.4722.8273.8273,0,0,0,.262.3592.9042.9042,0,0,0,.443.1167,13.2632,13.2632,0,0,0,3.4969-.1839,1.3107,1.3107,0,0,0,.5745-.21,1.3272,1.3272,0,0,0,.3946-.8088q.0912-.4269.1562-.8587a23.1061,23.1061,0,0,0-1.36-7.3868A39.33,39.33,0,0,1,132.2783,28.048Z" transform="translate(-49.012 -0.0008)"/><path class="cls-3" d="M135.3973,36.374a26.3113,26.3113,0,0,1-.095-3.3533,11.5457,11.5457,0,0,1,.929-3.2736,34.44,34.44,0,0,1,2.1947-4.3942l-3.9144-.1513-2.2333,2.8464a39.33,39.33,0,0,0,1.6012,3.6077,23.1061,23.1061,0,0,1,1.36,7.3868A14.627,14.627,0,0,0,135.3973,36.374Z" transform="translate(-49.012 -0.0008)"/><path class="cls-4" d="M151.1627,27.2822a1.244,1.244,0,0,0,.8327-.8555,23.4181,23.4181,0,0,0,.22-15.9027,7.196,7.196,0,0,0-3.2445-4.1975,16.3865,16.3865,0,0,0-9.6994-2.7242c-.3242.01-.6512.0225-.979.0373a8.1,8.1,0,0,0-2.5673,2.4771,8.26,8.26,0,0,0-.6873,7.53c.4616,1.1118,1.1845,2.18,1.165,3.384a4.644,4.644,0,0,1-.667,2.1024c-1.0315,1.8944-2.6107,3.662-3.2389,5.6454A17.6229,17.6229,0,0,0,151.1627,27.2822Z" transform="translate(-49.012 -0.0008)"/><path class="cls-2" d="M136.2027,17.0306c.0195-1.2037-.7034-2.2722-1.165-3.384a8.26,8.26,0,0,1,.6873-7.53A8.1,8.1,0,0,1,138.2923,3.64a16.7774,16.7774,0,0,0-4.1891.6131,10.3773,10.3773,0,0,0-6.427,5.8437,17.983,17.983,0,0,0-1.0485,4.2863,5.3894,5.3894,0,0,0,.2984,2.7257,18.7247,18.7247,0,0,0,5.3707,7.67c.6282-1.9834,2.2074-3.751,3.2389-5.6454A4.644,4.644,0,0,0,136.2027,17.0306Z" transform="translate(-49.012 -0.0008)"/><path class="cls-4" d="M158.1647,43.9562a19.6879,19.6879,0,0,0,2.6429-9.9788c-.13-16.3264-24.6688-.9726-33.9292,8.5355Z" transform="translate(-49.012 -0.0008)"/><path class="cls-2" d="M125.4183,90.8237c.4767-5.79,3.5517-11.1417,3.9218-16.94.3134-4.908-1.3238-9.6433-2.5548-14.4418l-6.452.2664.69,29.14a53.2011,53.2011,0,0,1-.5649,11.5381,40.5712,40.5712,0,0,1-3.4756,9.6966,88.8559,88.8559,0,0,0,11.2918,2.7556C128.4209,105.6814,124.8129,98.1809,125.4183,90.8237Z" transform="translate(-49.012 -0.0008)"/><path class="cls-6" d="M82.9131,226.55h.1057C82.9037,226.4274,82.8337,226.339,82.9131,226.55Z" transform="translate(-49.012 -0.0008)"/><path class="cls-6" d="M83.4639,226.6423c.0089-.0306.0128-.0613.0192-.092h-.4643C83.1648,226.7061,83.3836,226.9171,83.4639,226.6423Z" transform="translate(-49.012 -0.0008)"/><path class="cls-4" d="M148.7807,114.1022c.0232-.7124.0255-1.4256-.0079-2.138-.1794-3.8308-1.1453-7.5745-1.7922-11.3545-2.3773-13.8873-.44-28.1083,1.5-42.0634l-21.695.8958c1.231,4.7985,2.8682,9.5338,2.5548,14.4418-.37,5.7981-3.4451,11.15-3.9218,16.94-.6054,7.3572,3.0026,14.8577,2.8566,22.0146A91.3089,91.3089,0,0,0,148.7807,114.1022Z" transform="translate(-49.012 -0.0008)"/><path class="cls-6" d="M90.4125,187.2833l.4379-.2036c.0494-.0516.0967-.1049.1462-.1562Z" transform="translate(-49.012 -0.0008)"/><path class="cls-3" d="M135.4953,96.9194l-1.7394-6.3317c-1.1847.6584-8.1626,4.5-12.8712,6.807-.0957,1.0027-.2311,2.0008-.426,2.9914a29.5953,29.5953,0,0,1-.7849,3.0667Q127.6934,100.4579,135.4953,96.9194Z" transform="translate(-49.012 -0.0008)"/><path class="cls-2" d="M166.3472,111.4667c-1.57-6.0483-3.6435-11.9993-3.9769-18.2223a66.0177,66.0177,0,0,1,1.1034-13.3661q1.5105-9.9754,3.0209-19.9508l-29.2592-1.087V113.964A91.266,91.266,0,0,0,166.3472,111.4667Z" transform="translate(-49.012 -0.0008)"/><path class="cls-3" d="M165.8948,52.7741a13.5917,13.5917,0,0,0-4.31-9.3672c-.0242-.0223-.0493-.0441-.0737-.0662a45.1821,45.1821,0,0,0-5.1343-2.034,6.8386,6.8386,0,0,1,1.1.85,13.5913,13.5913,0,0,1,4.3095,9.3672Z" transform="translate(-49.012 -0.0008)"/><path class="cls-6" d="M83.4639,226.6423c.0089-.0306.0128-.0613.0192-.092h-.4643C83.1648,226.7061,83.3836,226.9171,83.4639,226.6423Z" transform="translate(-49.012 -0.0008)"/><path class="cls-6" d="M82.9131,226.55h.1057C82.9037,226.4274,82.8337,226.339,82.9131,226.55Z" transform="translate(-49.012 -0.0008)"/><path class="cls-4" d="M136.0577,63.1254a42.76,42.76,0,0,1,10.1715-.5643c2.6326.308,4.7587.2048,6.7368-1.9167,3.295-3.5338,4.0685-11.5911.58-16.7617-4.6448-6.8841-14.63-4.677-21.5488-3.4883-.8558.1471-1.6491.3071-2.3891.48-3.4231,3.1972-4.5436,9.077-3.7915,14.0124.6031,3.9572,1.9666,7.8232,2.8212,11.7252C130.9816,64.0932,132.8123,63.5516,136.0577,63.1254Z" transform="translate(-49.012 -0.0008)"/><path class="cls-3" d="M143.1,44.5681c-1.2265-2.8019-4.4189-4.832-8.65-4.6012-.8485.1458-1.6713.2931-2.4535.4275-.7327.126-1.4159.2622-2.0632.4066,4.4624-.4126,7.8448,1.6636,9.116,4.5678a12.8909,12.8909,0,0,1,.7431,2.6837l4.05-.8006A12.8962,12.8962,0,0,0,143.1,44.5681Z" transform="translate(-49.012 -0.0008)"/><path class="cls-5" d="M101.7465,186.706c-1.3305-5.5876-3.1-12.9927-5.4125-22.8882-.661-2.829-1.2779-5.9877.1977-8.49,1.9008-3.2236,6.4408-3.9363,8.694-6.9241,1.5305-2.03,1.73-4.7308,2.5516-7.1367,3.318-9.7222,16.178-13.5607,19.6029-23.2457a16.395,16.395,0,0,0,.8947-5.1829,88.8559,88.8559,0,0,1-11.2918-2.7556c-.5569,1.1569-1.1391,2.3025-1.725,3.4406-21.4191,41.6137-26.45,38.81-22.7881,52.7191,2.1778,8.2725,3.8679,14.7307,5.1962,19.8024A10.218,10.218,0,0,0,101.7465,186.706Z" transform="translate(-49.012 -0.0008)"/><path class="cls-6" d="M83.4639,226.6423c.0089-.0306.0128-.0613.0192-.092h-.4643C83.1648,226.7061,83.3836,226.9171,83.4639,226.6423Z" transform="translate(-49.012 -0.0008)"/><path class="cls-6" d="M82.9131,226.55h.1057C82.9037,226.4274,82.8337,226.339,82.9131,226.55Z" transform="translate(-49.012 -0.0008)"/><path class="cls-3" d="M107.7773,141.2669c-.8211,2.4059-1.0211,5.1068-2.5516,7.1367-2.2532,2.9878-6.7932,3.7-8.694,6.9241-1.4756,2.5024-.8587,5.6611-.1977,8.49,2.3123,9.8955,4.082,17.3006,5.4125,22.8882a21.5135,21.5135,0,0,0,5.3989-.9228c1.426-.4131,2.834-.8871,4.2235-1.4106q-.7966-9.994-1.5929-19.9881c-.23-2.8914.094-3.6944,2.1446-5.6481,7.0147-6.684,14.0375-13.3751,21.53-19.5183a65.0891,65.0891,0,0,0,8.7757-7.9723,28.2045,28.2045,0,0,0,6.554-17.1436,91.3089,91.3089,0,0,1-20.5058-1.2639,16.395,16.395,0,0,1-.8947,5.1829C123.9553,127.7062,111.0953,131.5447,107.7773,141.2669Z" transform="translate(-49.012 -0.0008)"/><path class="cls-2" d="M102,207.7763a5.6922,5.6922,0,0,0,2.6439-2.1c1.1221-1.8538,1.0158-2.5373-2.8971-18.9706a10.218,10.218,0,0,1-4.08-.6612c.9651,3.6851,1.7378,6.6328,2.3664,9.0084.0483.2753.103.5493.1658.8187,1.0055,4.3145,1.4338,5.9936-2.8289,8.3548-5.9028,3.27-8.8509,3.5183-10.39,4.68-1.4455,1.0916-1.6811,2.7265-.4626,3.9071a10.8522,10.8522,0,0,1,3.2163-2.154C93.6042,208.994,98.15,209.4913,102,207.7763Z" transform="translate(-49.012 -0.0008)"/><path class="cls-4" d="M88.2389,213.81a15.1538,15.1538,0,0,0,4.9921.6059c6.975-.0191,9.7373-1.005,12.0682-.6674,1.8434.2671,2.5539.9522,5.4094.429,3.1461-.5766,3.7671-2.0842,3.3592-5.21a77.6247,77.6247,0,0,0-1.3358-7.7231c-.0833-.3761-.1611-.72-.2367-1.0489a12.0944,12.0944,0,0,0-.0011-1.7q-.5625-7.0613-1.1253-14.1224c-1.3895.5235-2.7975.9975-4.2235,1.4106a21.5135,21.5135,0,0,1-5.3989.9228c3.9129,16.4333,4.0192,17.1168,2.8971,18.9706a5.6922,5.6922,0,0,1-2.6439,2.1c-3.8494,1.715-8.3955,1.2177-12.2663,2.8838a10.8522,10.8522,0,0,0-3.2163,2.154A4.5941,4.5941,0,0,0,88.2389,213.81Z" transform="translate(-49.012 -0.0008)"/><path class="cls-8" d="M142.1436,114.7314q.94-10.5309,1.8164-21.0674c1.0251-12.1051-.4674-11.9766-.9218-17.9134-.5838-7.6283,3.3193-17.2155-2.0717-23.8218-2.3734-3.2593-6.18-3.9962-6.8511-5.1707a6.7605,6.7605,0,0,0-1.1306,1.5861,97.629,97.629,0,0,0-.29,12.6074c.115,2.7592.3471,5.5148.3515,8.2764.0042,2.6682-.2041,5.3316-.3914,7.9933q-1.1508,16.3481-1.2489,32.7476a7.7019,7.7019,0,0,0,.5853,3.6652,7.7607,7.7607,0,0,0,2.6778,2.5577l3.5743,2.4506a7.8076,7.8076,0,0,0,1.7149.9662C140.9236,119.104,141.8552,117.9619,142.1436,114.7314Z" transform="translate(-49.012 -0.0008)"/><path class="cls-5" d="M142.4865,119.8709c7.23-.1674,14.5686-.3518,21.4771-2.4892a8.7184,8.7184,0,0,0,2.9542-1.3907c1.8451-1.4867,2.3571-4.0468,2.6567-6.3973q.462-3.6255.6381-7.28c.1392-2.8892.1434-5.7829.1476-8.6755l.0489-33.8134c.0041-2.8672-.0405-5.9115-1.58-8.33a14.76,14.76,0,0,0-3.3255-3.3667,21.851,21.851,0,0,0-3.8264-2.6562,20.9658,20.9658,0,0,0-7.5312-1.7554,55.4509,55.4509,0,0,0-12.6922-.02c-2.7509.3734-5.534,1.1676-7.3384,3.0611.6706,1.1745,4.4777,1.9114,6.8511,5.1707,5.391,6.6063,1.4879,16.1935,2.0717,23.8218.4544,5.9368,1.9469,5.8083.9218,17.9134q-.8922,10.5349-1.8164,21.0674c-.2884,3.2305-1.22,4.3726-2.1854,4.8772.0439.0158.0854.0371.13.0513A7.287,7.287,0,0,0,142.4865,119.8709Z" transform="translate(-49.012 -0.0008)"/><path class="cls-8" d="M144.2067.292c-2.7626.885-4.5766,2.9441-4.3978,5.9327.16,2.68,2.7416,4.7981,5.5562,4.8513a5.8475,5.8475,0,0,0,5.9646-6.39A4.7211,4.7211,0,0,0,146.8582.0384,6.5314,6.5314,0,0,0,144.2067.292Z" transform="translate(-49.012 -0.0008)"/><path class="cls-4" d="M139.2972,48.2983a16.6315,16.6315,0,0,1,3.69,5.1453c5.0516,9.38,4.9392,10.3293,9.0335,11.429,4.2028,1.1289,12.5708,1.52,15.29.6852a5.2726,5.2726,0,0,0,3.4481-2.886,7.3449,7.3449,0,0,0,.35-2.8341c-.088-5.2628-.9867-8.9559-4.8314-12.0161a21.5791,21.5791,0,0,0-11.957-4.5692,44.2826,44.2826,0,0,0-10.6318-.0609,31.36,31.36,0,0,0-5.119,1.1488c-.9055.2831-1.799.6041-2.68.9553a6.1116,6.1116,0,0,0-2.3768,1.1952c-.1029.1178-.34.5752-.1162.692.1093.0572.6-.2159.7321-.252a4.754,4.754,0,0,1,1.8-.1195A6.56,6.56,0,0,1,139.2972,48.2983Z" transform="translate(-49.012 -0.0008)"/><path class="cls-3" d="M153.3225,62.5832c.1085,1.9736.2667,4.0331.3752,6.0068a3.0739,3.0739,0,0,0,2.0158.0287,35.5458,35.5458,0,0,0-.388-5.89c-.0576-.047.0271-.0282-2.003-.1458" transform="translate(-49.012 -0.0008)"/><path class="cls-3" d="M166.2921,62.3143c.1084,1.9736.2666,4.0332.3751,6.0068a3.0739,3.0739,0,0,0,2.0158.0287,35.5242,35.5242,0,0,0-.388-5.89c-.0576-.047.0271-.0282-2.0029-.1458" transform="translate(-49.012 -0.0008)"/><path class="cls-7" d="M79.5451,96.4214C78.13,95.8279,77.28,94.3777,76.0286,93.49a5.0535,5.0535,0,0,0-7.5117,1.9693A4.74,4.74,0,0,0,69.7754,96.79c1.7693,1.2459,1.5586-1.8219,2.8709-2.4134,1.5177-.684,2.3216,1.218,5.7384,4.5245a2.0072,2.0072,0,0,0,1.5988.7193,8.216,8.216,0,0,0,4.0078-.8062c.1274-.061.2562-.1191.384-.1793a25.2347,25.2347,0,0,1-.5747-2.6418A5.3262,5.3262,0,0,1,79.5451,96.4214Z" transform="translate(-49.012 -0.0008)"/><path class="cls-6" d="M71.1221,92.95a5.1772,5.1772,0,0,1,4.9065.54c1.2517.8878,2.1013,2.338,3.5165,2.9315a5.3262,5.3262,0,0,0,4.2555-.4286,24.8521,24.8521,0,0,1-.2991-5.3051c.0017-.031.004-.0625.0059-.0937a2.587,2.587,0,0,1-2.0149-.02c-1.1305-.5473-1.29-1.6872-4.6848-5.83a1.663,1.663,0,0,0-1.6695-.8006,8.9012,8.9012,0,0,0-5.1189,2.8132,14.42,14.42,0,0,0-2.2677,5.6779,4.8866,4.8866,0,0,0,.7653,3.0245A5.1723,5.1723,0,0,1,71.1221,92.95Z" transform="translate(-49.012 -0.0008)"/><path class="cls-4" d="M122.4934,58.8827c-1.6066,3.0262-2.3694,6.4134-3.3653,9.6917-1.0015,3.2966-2.25,6.5119-3.4982,9.7234a16.3908,16.3908,0,0,1-2.8653,5.3152c-1.8748,2.0422-4.6551,2.9961-7.3794,3.5088s-5.5258.6658-8.1764,1.4774c-4.49,1.3749-8.1889,4.5143-12.2817,6.8174-.361.2032-.7389.3994-1.1265.5762a25.2347,25.2347,0,0,0,.5747,2.6418,30.4765,30.4765,0,0,1,3.99-1.6039q.1152-.0354.2287-.0716c24.4567-7.7761,24.3456-6.8264,27.7953-12.2466,6.4434-10.1242,9.6593-15.319,12.2488-18.101-.8546-3.902-2.2181-7.768-2.8212-11.7252-.0211-.1388-.0354-.2809-.0536-.4211A18.878,18.878,0,0,0,122.4934,58.8827Z" transform="translate(-49.012 -0.0008)"/><path class="cls-2" d="M129.608,40.8739c-7.4489,1.7346-9.32,4.7562-11.3279,9.1894-5.3767,11.874-9.52,26.17-10.9531,27.8247C105.83,79.6166,87.3106,87.9487,84.4516,90.1607a5.6222,5.6222,0,0,1-.9442.4333c-.0019.0312-.0042.0627-.0059.0937a24.8521,24.8521,0,0,0,.2991,5.3051c.3876-.1768.7655-.373,1.1265-.5762,4.0928-2.3031,7.7912-5.4425,12.2817-6.8174,2.6506-.8116,5.4521-.9648,8.1764-1.4774s5.5046-1.4666,7.3794-3.5088a16.3908,16.3908,0,0,0,2.8653-5.3152c1.2478-3.2115,2.4967-6.4268,3.4982-9.7234.9959-3.2783,1.7587-6.6655,3.3653-9.6917a18.878,18.878,0,0,1,3.27-4.4175C125.1348,49.62,126.2812,43.9812,129.608,40.8739Z" transform="translate(-49.012 -0.0008)"/><ellipse class="cls-6" cx="151.3797" cy="83.0466" rx="3.4854" ry="2.775" transform="translate(-55.6597 152.6149) rotate(-52.5098)"/><path class="cls-6" d="M165.1611,90.93l-7.0593-.8128a.6877.6877,0,0,1-.5867-.6742V86.7952a.5214.5214,0,0,1,.5867-.5391l7.0593.8128a.6877.6877,0,0,1,.5868.6742v2.6478A.5214.5214,0,0,1,165.1611,90.93Z" transform="translate(-49.012 -0.0008)"/><path class="cls-8" d="M148.3287,96.67a145.7477,145.7477,0,0,1-.8918,15.8169.9021.9021,0,0,0,.6742,1.2089l.7318.2936a.6941.6941,0,0,0,.3792.0737c.2768-.0527.3749-.392.4165-.6708a88.5542,88.5542,0,0,0,.9494-14.8852,1.6589,1.6589,0,0,0-.5223-1.4349c-.5094-.3235-1.26-.0322-1.737-.4022" transform="translate(-49.012 -0.0008)"/><path class="cls-4" d="M148.3281,96.5422c5.6689.3331,11.7189-.272,17.3564.4111a1.308,1.308,0,0,1,.503.1321,1.2594,1.2594,0,0,1,.4408,1.16,3.6218,3.6218,0,0,1-1.7045,3.3635,4.4222,4.4222,0,0,1-1.5886.2968q-4.5886.2724-9.1895.1452a3.2088,3.2088,0,0,1-2.21-.6321c-.73-.712-.63-1.9-1.02-2.8428a3.1008,3.1008,0,0,0-2.5879-1.8254Z" transform="translate(-49.012 -0.0008)"/></svg>