<svg xmlns="http://www.w3.org/2000/svg" enable-background="new 0 0 1000 437.4" viewBox="0 0 1000 437.4"><path fill="none" stroke="#96bf48" stroke-miterlimit="10" stroke-width="13.138" d="M737.3 203.7l-27.4 218.4"/><path fill="#b9ee00" d="M699.7 414.8c6.5-7.2 13-14.5 19.5-21.7 2-2.2 4-4.4 6.3-6.1 2.1-1.6 4.5-2.7 6.8-3.8 4.4-2.1 8.9-4.1 13.3-6.1 7.6-3.4 15.7-6.8 23.9-6 3.2.3 6.3 1.1 9.2 2.2 5.2 1.9 10.1 4.4 14.7 7.6 2.5 1.7 5 3.7 7.8 4.9 2 .9 4.2 1.4 6.3 2.2 3.5 1.5 6.6 4.2 8.5 7.6.2.4.4.8.3 1.3-.1.4-.4.6-.7.9-5.5 4.3-11.1 8.5-16.6 12.8-2.2 1.7-4.3 3.3-6.8 4.4-4.2 1.9-9 2-13.6 2.1-4.7.1-9.3.1-13.9-.6-3.6-.6-7.1-1.7-10.7-2.4-16.7-3.5-34 .5-51 2.6-1.6.2-4-.3-3.7-1.9"/><path fill="#0c2f00" d="M807.8 387.9c-2.1-.9-4.3-1.4-6.3-2.2-2.8-1.2-5.3-3.2-7.8-4.9-4.6-3.1-9.5-5.7-14.7-7.6-3-1.1-6.1-2-9.2-2.2-8.3-.7-16.3 2.7-23.9 6-3.2 1.4-6.3 2.8-9.4 4.3 4.9-1.5 10-2.7 15.1-3.4 1.7-.2 3.9-.1 4.5 1.5.2.6.1 1.2.1 1.8-.5 4.2-1 8.4-1.6 12.6-.2 1.3-.3 2.7.3 3.9.5 1 1.5 1.6 2.5 2.1 3.6 1.7 7.7 1.6 11.6 1.9 3.9.3 8.2 1.2 10.7 4.2 1.9 2.2 2.6 5.3 4.7 7.3 1.7 1.6 3.9 2.3 6.3 2.5.6-.2 1.3-.4 1.9-.7 2.5-1.1 4.7-2.8 6.8-4.4 5.5-4.3 11.1-8.5 16.6-12.8.3-.2.6-.5.7-.9.1-.4-.1-.9-.3-1.3-2.1-3.5-5.1-6.1-8.6-7.7z"/><path fill="#b9ee00" d="M725.7 422.5c-1.4-.9-1-3-.5-4.6.6-2.6.7-5.6-1.1-7.6-1.4-1.6-3.7-2.1-5.8-1.9-1.7.2-3.3.8-4.9 1.5-3.7 3.2-7.2 6.8-10.4 10.6-.4.4-.7.9-.9 1.5-.1.6.1 1.2.7 1.4v-.5c.1.3.2.5.3.8 7.4 2.2 15.2 2.4 22.9 2.6 1.5 0 3.1.1 4.5-.5.6-.2 1.2-.6 1.7-.9-1.4-1-3-1.6-4.6-1.9-.7-.1-1.4-.1-1.9-.5z"/><path fill="#0c2f00" d="M740.8 417.6c.6-.6 1.3-1.2 1.5-2 .2-1.2-.8-2.1-1.7-2.9-3.2-2.8-6.5-5.6-10.3-7.6-2.7-1.4-5.9-2.4-8.7-1.3-.8.3-1.6.9-2.3 1.4-2 1.5-4 3-5.9 4.7 1.6-.7 3.2-1.3 4.9-1.5 2.1-.2 4.4.3 5.8 1.9 1.8 2 1.7 5 1.1 7.6-.4 1.6-.8 3.7.5 4.6.5.4 1.2.4 1.9.5 1.7.2 3.3.9 4.6 1.9.6-.4 1.3-1 1.8-1.5 2.3-1.9 4.5-3.8 6.8-5.8z"/><path fill="#b9ee00" d="M942.2 368.1c-1.8.2-3.5.6-5 1.6-1.2.8-2.1 1.8-3 2.9-3.2 3.7-6.3 7.4-9.3 11.3-1.1 1.3-2.2 3-1.7 4.6.3.1.7.2 1 .4 1.3-1.5 3.3-2.5 5.3-2.9 2.7-.6 5.4-.5 8.1-.8 2.5-.3 4.9-1.1 7.2-2.2.6-.3 1.1-.6 1.5-1.1 1.2-1.7-.9-4.2 0-6.1.7-1.3 2.3-1.5 3.8-1.7 3.4-.4 6.7-1.4 9.8-2.9-2.7-1-5.5-1.6-8.4-2.1-3-.7-6.2-1.3-9.3-1z"/><path fill="#42711c" d="M946.4 375.7c-1 1.9 1.2 4.4 0 6.1-.3.5-.9.8-1.5 1.1-2.3 1.1-4.7 1.8-7.2 2.2-2.7.4-5.5.2-8.1.8-2 .4-4 1.4-5.3 2.9l1.8.6 1.3-.3c4.2-.3 8.4-.5 12.6-.8 4-.2 8.1-.5 12.1.2 1.6.3 3.2.7 4.8.5 1.7-.2 3.3-1.1 4.8-1.9 1.8-1 3.6-2 5.5-3.1.6-.3 1.2-.7 1.6-1.3.3-.6.3-1.4.2-2-.6-3.7-3.4-6.8-6.7-8.5-.8-.4-1.6-.8-2.4-1.1-3.1 1.5-6.4 2.5-9.8 2.9-1.4.2-3 .4-3.7 1.7z"/><path fill="#b9ee00" d="M839.6 129.4c9.9.3 19.6 2.9 28.4 7.4 10.8 5.7 12.8 10.8 13.4 21.5.8 14.2.9 28.4 1 42.7.1 11.4-.3 14.8-3.8 24-2.7 7.3-5.7 14.4-9 21.4-.7 1.5-1.5 2.2-3 1.2-2.1-1.4-3.2-3.9-4-6.2-5.5-14.9-7.3-31.1-5.1-46.8.7-5.2 1.8-10.6.4-15.6-2.3-8.2-10.7-13.2-15-20.6-4.9-8.3-4.3-19.3-3.3-29"/><path fill="#0c2f00" d="M874.2 387.3l.1.3c0-.2 0-.4-.1-.3z"/><path fill="#829413" d="M857.3 367.2c-1.9-6.7-7.1-12.7-6.9-19.7.2-7.5 6.6-14 5.9-21.5-.6-6.9-6.9-11.9-9.3-18.4-5.5-14.7 10-30.5 6.1-45.7-1.7-6.6-6.8-11.7-12.4-15.6v-7.9c-3.5 0-7.1-.1-10.6-.4v12c8.7 45.6 17.3 91.5 17.9 137.8 2.5 2.3 6 3.6 9.5 3.9 1.1-16.7 1.2-19.8-.2-24.5z"/><path fill="#b9ee00" d="M840.8 423.7c3.1-1.1 6.5-1 9.8-1.4 4-.5 4.9-2.2 5.2-6.3.7-10.3 1.3-18.2 1.7-24.2-3.5-.3-6.9-1.6-9.5-3.9.1 6.4 0 12.8-.3 19.3-.1 2-.1 4.1.2 6.1-2.9 3.4-7.8.9-11.8 3.8-.9.9-1.8 1.9-2.4 3-1.7 3.2-.2 5.6 2.5 7.3 1.1-1.7 2.8-3 4.6-3.7z"/><path fill="#0c2f00" d="M853.1 262c3.9 15.2-11.6 31-6.1 45.7 2.4 6.5 8.7 11.5 9.3 18.4.6 7.5-5.7 14-5.9 21.5-.2 7 4.9 12.9 6.9 19.7 1.4 4.7 1.3 7.8.2 24.5.8.1 1.6.1 2.3.1 3.4-.1 6.7-.9 9.9-2 .1-1.1.2-2.3.2-3.5.8-17.8-4-35.5-4.1-53.4-.1-30.6 13.6-60.9 8.2-91.1-.5-2.5-1-5-1.7-7.5-10.3 2.6-21 3.9-31.7 4v7.9c5.7 3.9 10.9 9.1 12.5 15.7z"/><path fill="#42711c" d="M851.8 431.5c3.1 1.3 5.8 3.8 9.1 4 2.6.1 5.6-1.4 6.8-2.9 1-1.2 1.4-2.8 1.5-4.4.6-7.1-2.7-10.1-2.5-18.1.3-1.3.5-2.6.7-4 .9-5.4 1.8-10.8 2.3-16.3-3.2 1.1-6.5 2-9.9 2-.8 0-1.6 0-2.3-.1-.4 6.1-1 13.9-1.7 24.2-.3 4.1-1.2 5.8-5.2 6.3-3.3.4-6.7.3-9.8 1.4-1.8.7-3.5 2-4.5 3.6 1.8 1.1 4.2 1.8 6.6 2.2 3 .7 6.1.9 8.9 2.1z"/><path fill="#e4ffc7" d="M822.6 111.4c-.2-4.1 3.1-7.4 5.1-11 .5-.9 1-2 1-3.1 0-1.7-1-3.3-1.7-4.9-1.5-3.5-1.1-7.7 1-10.9.7-1 1.5-2 2.5-2.7-1.9.2-3.7.5-5.5 1.1-1.3.4-2.6 1-3.7 1.9-1.7 1.4-2.7 3.4-3.4 5.5-1.9 5.2-2.2 10.9-2.9 18-.8 8.3 2.1 7.6 3.5 15.9.4 2.2.6 4.7 2.3 6 1.8 1.4 4.3 1 6.5 1.4-.3-3.4-.6-6.8-1.9-9.9-1.1-2.5-2.7-4.7-2.8-7.3z"/><path fill="#c7f73d" d="M857.5 136.1c-2.1-2.6-4-5.4-5.7-8.3-1.1-1.9-2.1-3.8-2.6-6-.9-4.2.6-8.5 1.6-12.7.9-3.9 1.3-8 1.3-12 0-2.9-.3-5.9-1.3-8.6-1-2.8-2.7-5.3-5.1-7-2.3-1.6-5.1-2.2-7.8-2.6-2.5-.3-5-.4-7.5-.2-1 .8-1.8 1.7-2.5 2.7-2.1 3.2-2.5 7.4-1 10.9.7 1.6 1.7 3.2 1.7 4.9 0 1.1-.5 2.1-1 3.1-2 3.6-5.3 6.9-5.1 11 .1 2.6 1.7 4.8 2.7 7.2 1.3 3.1 1.7 6.5 1.9 9.9.3 0 .6.1.9.2l29.5 7.5z"/><path fill="#96bf48" d="M823 113.4c-1.5 1.8-2.9 3.7-4.4 5.5-.3.4-.6.7-.8 1.2-.3.7-.2 1.5-.1 2.2.3 2.4.7 4.8 1.2 7.2.1.7.3 1.5.6 2.1.1.2.2.4.4.5.2.1.4.2.6.2 1.7.1 3.4 0 5.1-.3.3-.1.6-.1.8-.3.4-.3.5-.7.6-1.2.1-.4.2-.8.2-1.2-.3-3.7-.6-7.3-2-10.7-.6-1.8-1.7-3.4-2.2-5.2z"/><path fill="#0c2f00" d="M827.5 125.4c-.1-1.6-.3-3.2-.1-4.9.2-1.6.7-3.2 1.3-4.8.9-2.2 2-4.3 3.2-6.4l-5.7-.2c-1.1 1.4-2.2 2.8-3.2 4.1.5 1.8 1.6 3.5 2.3 5.2 1.4 3.4 1.7 7 2 10.7.2-1.1.2-2.4.2-3.7z"/><path fill="#42711c" d="M850.4 112.2c.8-.4 1-.6 1.2-1.2 2.8-7.3 2.9-15.7.3-23.1-.9-2.6-1.8-4.2-4.7-6.1-4.1-2.8-9.1-4.1-14.1-4-.5 0-.9 0-1.4.1-1.5.9-2.8 2.1-3.7 3.6-2.1 3.2-2.5 7.4-1 10.9.7 1.6 1.7 3.2 1.7 4.9 0 1.1-.5 2.1-1 3.1-1.5 2.7-3.8 5.3-4.7 8.2 7.6 6.5 18.3 7.9 27.4 3.6z"/><path fill="#b9ee00" d="M828.7 97.4c0-1.7-1-3.3-1.7-4.9-1.5-3.5-1.1-7.7 1-10.9.9-1.5 2.2-2.7 3.7-3.6-2 .1-4.1.3-6.1.9-4.1 1.3-7.7 4.5-9.3 8.5-.8 2-1.2 4.1-1.5 6.2-.2 1.3 0 2.7.4 4 1.8 4.6 4.5 8.3 7.8 11.1.9-2.9 3.2-5.4 4.7-8.2.5-1 .9-2.1 1-3.1z"/><path fill="#42711c" d="M860.5 136.4c2.5-4.4 3.9-9.4 3.8-14.5-.2-23.7-35.8-1.4-49.2 12.4l45.4 2.1z"/><path fill="#b9ee00" d="M813 204.5c.7-8.4 5.2-16.2 5.7-24.6.5-7.1-1.9-14-3.7-21l-9.4.4c.3 14.1.7 28.2 1 42.3.1 5.6.3 11.3-.8 16.7-1 4.9-2.9 9.6-5 14.1 5.4 1.7 10.8 3 16.4 4 .2-10.4-5.1-21.2-4.2-31.9z"/><path fill="#e4ffc7" d="M751.3 401.5h.2c-.2-.2-.3-.3-.2 0z"/><path fill="#e4ffc7" d="M752.1 401.6v-.1h-.7c.3.2.6.5.7.1z"/><path fill="#42711c" d="M846.9 238.3v-3.1c-.3-5.6-1.7-11-2.6-16.5-3.5-20.2-.6-40.8 2.2-61.1l-31.5 1.3c1.8 7 4.2 13.8 3.7 21-.5 8.4-5 16.2-5.7 24.6-.9 10.7 4.4 21.6 4.1 32 9.9 1.7 19.9 2.3 29.8 1.8z"/><path fill="#e4ffc7" d="M762.2 344.5l.6-.3c.1-.1.1-.2.2-.2-.2.1-.5.3-.8.5z"/><path fill="#0c2f00" d="M827.6 213.3l-2.5-9.2c-1.7 1-11.8 6.5-18.7 9.9-.1 1.5-.3 2.9-.6 4.3-.3 1.5-.7 3-1.1 4.5 7.7-2.9 15.4-6.1 22.9-9.5z"/><path fill="#b9ee00" d="M872.4 234.4c-2.3-8.8-5.3-17.4-5.8-26.4-.3-6.5.6-13 1.6-19.4 1.5-9.7 2.9-19.3 4.4-29l-42.5-1.6v80c14.2 1.1 28.5-.1 42.3-3.6z"/><path fill="#0c2f00" d="M871.8 149.2c-.2-5.1-2.5-10.1-6.3-13.6l-.1-.1c-2.4-1.1-4.9-2.1-7.5-3 .6.3 1.1.8 1.6 1.2 3.8 3.5 6.1 8.5 6.3 13.6l6 1.9z"/><path fill="#e4ffc7" d="M752.1 401.6v-.1h-.7c.3.2.6.5.7.1z"/><path fill="#e4ffc7" d="M751.3 401.5h.2c-.2-.2-.3-.3-.2 0z"/><path fill="#42711c" d="M828.4 164.3c4.7-.6 10-1.4 14.8-.8 3.8.4 6.9.3 9.8-2.8 4.8-5.1 5.9-16.8.8-24.3-6.7-10-21.2-6.8-31.3-5.1-1.2.2-2.4.4-3.5.7-5 4.6-6.6 13.2-5.5 20.3.9 5.7 2.9 11.4 4.1 17 3.5-3.6 6.1-4.4 10.8-5z"/><path fill="#0c2f00" d="M838.7 137.3c-1.8-4.1-6.4-7-12.6-6.7l-3.6.6c-1.1.2-2.1.4-3 .6 6.5-.6 11.4 2.4 13.2 6.6.5 1.2.8 2.6 1.1 3.9l5.9-1.2c-.2-1.2-.5-2.5-1-3.8z"/><path fill="#829413" d="M778.6 343.6c-1.9-8.1-4.5-18.9-7.9-33.2-1-4.1-1.9-8.7.3-12.3 2.8-4.7 9.3-5.7 12.6-10 2.2-2.9 2.5-6.9 3.7-10.4 4.8-14.1 23.5-19.7 28.5-33.7.9-2.5 1.2-5 1.3-7.5-5.5-1-11-2.3-16.4-4-.8 1.7-1.7 3.3-2.5 5-31.1 60.4-38.4 56.3-33.1 76.5 3.2 12 5.6 21.4 7.5 28.7 2 .7 4 1 6 .9z"/><path fill="#e4ffc7" d="M752.1 401.6v-.1h-.7c.3.2.6.5.7.1z"/><path fill="#e4ffc7" d="M751.3 401.5h.2c-.2-.2-.3-.3-.2 0z"/><path fill="#0c2f00" d="M787.4 277.7c-1.2 3.5-1.5 7.4-3.7 10.4-3.3 4.3-9.9 5.4-12.6 10-2.1 3.6-1.2 8.2-.3 12.3 3.4 14.4 5.9 25.1 7.9 33.2 2.6-.1 5.3-.6 7.8-1.3 2.1-.6 4.1-1.3 6.1-2-.8-9.7-1.5-19.3-2.3-29-.3-4.2.1-5.4 3.1-8.2 10.2-9.7 20.4-19.4 31.2-28.3 4.4-3.6 9-7.2 12.7-11.6 5.8-6.9 9.2-15.8 9.5-24.9-9.9.5-20-.1-29.8-1.8-.1 2.5-.4 5.1-1.3 7.5-4.8 14-23.5 19.6-28.3 33.7z"/><path fill="#b9ee00" d="M779 374.2c1.5-.7 3-1.6 3.8-3 1.6-2.7 1.5-3.7-4.2-27.5-2.1 0-4.1-.2-5.9-1 1.4 5.3 2.5 9.6 3.4 13.1.1.4.1.8.2 1.2 1.5 6.3 2.1 8.7-4.1 12.1-8.6 4.7-12.8 5.1-15.1 6.8-2.1 1.6-2.4 4-.7 5.7 1.4-1.3 2.9-2.4 4.7-3.1 5.7-2.5 12.3-1.8 17.9-4.3z"/><path fill="#42711c" d="M759 383c2.3.8 4.8.9 7.2.9 10.1 0 14.1-1.5 17.5-1 2.7.4 3.7 1.4 7.9.6 4.6-.8 5.5-3 4.9-7.6 0-1.8-1.6-9.7-1.9-11.2l-.3-1.5c.1-.9.1-1.7 0-2.5-.5-6.8-1.1-13.7-1.6-20.5-2 .8-4.1 1.4-6.1 2-2.5.7-5.2 1.3-7.8 1.3 5.7 23.9 5.8 24.8 4.2 27.5-.9 1.4-2.3 2.4-3.8 3-5.6 2.5-12.2 1.8-17.8 4.2-1.7.8-3.3 1.8-4.7 3.1.4.8 1.3 1.3 2.3 1.7z"/><path fill="#96bf48" d="M837.3 239.2c.9-10.2 1.8-20.4 2.6-30.6 1.5-17.6-.7-17.4-1.3-26-.8-11.1 4.8-25-3-34.6-3.4-4.7-9-5.8-9.9-7.5-.6.7-1.2 1.4-1.6 2.3-.5 6.1-.7 12.2-.4 18.3.2 4 .5 8 .5 12 0 3.9-.3 7.7-.6 11.6-1.1 15.8-1.7 31.7-1.8 47.5 0 1.8 0 3.7.8 5.3.8 1.6 2.4 2.7 3.9 3.7 1.7 1.2 3.5 2.4 5.2 3.6.8.5 1.6 1.1 2.5 1.4 1.3-.7 2.7-2.3 3.1-7z"/><path fill="#829413" d="M837.8 246.6c10.5-.2 21.1-.5 31.2-3.6 1.5-.5 3.1-1 4.3-2 2.7-2.2 3.4-5.9 3.9-9.3.4-3.5.8-7 .9-10.6.2-4.2.2-8.4.2-12.6 0-16.4 0-32.7.1-49.1 0-4.2-.1-8.6-2.3-12.1-1.2-1.9-3-3.4-4.8-4.9-1.8-1.4-3.5-2.8-5.6-3.9-3.4-1.7-7.2-2.2-10.9-2.5-6.1-.6-12.3-.9-18.4 0-4 .5-8 1.7-10.7 4.4 1 1.7 6.5 2.8 9.9 7.5 7.8 9.6 2.2 23.5 3 34.6.7 8.6 2.8 8.4 1.3 26-.9 10.2-1.7 20.4-2.6 30.6-.4 4.7-1.8 6.3-3.2 7.1.1 0 .1.1.2.1 1.1.4 2.3.4 3.5.3z"/><path fill="#96bf48" d="M840.3 73.1c-4 1.3-6.6 4.3-6.4 8.6.2 3.9 4 7 8.1 7 5 .1 9-4 8.7-9.3-.3-3.7-2.6-6.3-6.5-6.7-1.4-.1-2.7 0-3.9.4z"/><path fill="#42711c" d="M833.2 142.8c2.4 2 3.9 4.8 5.4 7.5 7.3 13.6 7.2 15 13.1 16.6 6.1 1.6 18.2 2.2 22.2 1 2.2-.7 4.2-2.1 5-4.2.5-1.3.5-2.7.5-4.1-.1-7.6-1.4-13-7-17.4-5.6-4.5-11.2-6-17.4-6.6-5.1-.5-10.3-.8-15.4-.1-2.5.3-5 .9-7.4 1.7-1.3.4-2.6.9-3.9 1.4-1.1.4-2.6.8-3.4 1.7-.1.2-.5.8-.2 1 .2.1.9-.3 1.1-.4.8-.2 1.7-.3 2.6-.2 1.7.1 3.4.9 4.8 2.1z"/><path fill="#0c2f00" d="M853.5 163.5c.2 2.9.4 5.9.5 8.7 1 .5 2.8.2 2.9 0 .3-.3-.4-8.4-.6-8.5 0-.1.2 0-2.8-.2"/><path fill="#0c2f00" d="M872.3 163.1c.2 2.9.4 5.9.5 8.7 1 .5 2.8.2 2.9 0 .3-.3-.4-8.4-.6-8.5.1-.1.2 0-2.8-.2"/><path fill="#c7f73d" d="M746.4 212.6c-2.1-.9-3.3-3-5.1-4.3-2-1.4-4.8-1.7-7.1-.8-1.7.7-3 2-3.8 3.6.5.8 1.1 1.4 1.8 1.9 2.6 1.8 2.3-2.6 4.2-3.5 2.2-1 3.4 1.8 8.3 6.6.8.7 1.1 1 2.3 1 2 .1 4-.3 5.8-1.2l.6-.3c-.3-1.3-.6-2.5-.8-3.8-2 1.1-4.2 1.6-6.2.8z"/><path fill="#e4ffc7" d="M734.2 207.6c2.3-1 5.1-.7 7.1.8 1.8 1.3 3 3.4 5.1 4.3 2 .8 4.2.3 6.2-.6-.4-2.5-.6-5.1-.4-7.7v-.1c-1 .3-2 .4-2.9 0-1.6-.8-1.9-2.4-6.8-8.5-.7-.9-1.2-1.2-2.4-1.2-2.6.2-6 2.4-7.4 4.1-1.6 1.9-3.1 6.6-3.3 8.2-.1 1.5.3 3.1 1.1 4.4.7-1.7 2-3 3.7-3.7z"/><path fill="#42711c" d="M808.8 158.1c-2.3 4.4-3.4 9.3-4.9 14.1-1.5 4.8-3.3 9.5-5.1 14.1-1.1 2.7-2.2 5.5-4.2 7.7-2.7 3-6.8 4.3-10.7 5.1s-8 1-11.9 2.1c-6.5 2-11.9 6.6-17.8 9.9-.5.3-1.1.6-1.6.8.2 1.3.5 2.6.8 3.8 1.9-.9 3.8-1.7 5.8-2.3.1 0 .2-.1.3-.1 35.5-11.3 35.3-9.9 40.3-17.8 9.4-14.7 14-22.2 17.8-26.3-1.2-5.7-3.2-11.3-4.1-17 0-.2-.1-.4-.1-.6-1.8 2-3.4 4.2-4.6 6.5z"/><path fill="#b9ee00" d="M819.1 132c-10.8 2.5-13.5 6.9-16.4 13.3-7.8 17.2-13.8 38-15.9 40.4-2.2 2.5-29.1 14.6-33.2 17.8-.4.2-.9.5-1.4.6v.1c-.1 2.6 0 5.2.4 7.7.6-.3 1.1-.5 1.6-.8 5.9-3.3 11.3-7.9 17.8-9.9 3.8-1.2 7.9-1.4 11.9-2.1s8-2.1 10.7-5.1c2-2.2 3.1-5 4.2-7.7 1.8-4.7 3.6-9.3 5.1-14.1 1.4-4.8 2.6-9.7 4.9-14.1 1.3-2.4 2.9-4.5 4.7-6.4-.9-7 .8-15.2 5.6-19.7z"/><path fill="#e4ffc7" d="M855.1 192.2c0 2.5-2 5-4.4 5.6-2.5.6-4.4-1-4.4-3.6 0-2.5 2-5 4.4-5.6s4.4 1 4.4 3.6z"/><path fill="#e4ffc7" d="M870.7 204.6l-10.2-1.2c-.5-.1-.9-.5-.9-1v-3.8c0-.5.4-.8.9-.8l10.2 1.2c.5.1.9.5.9 1v3.8c-.1.5-.4.9-.9.8z"/><path fill="#96bf48" d="M846.3 213c0 7.5-.4 15.5-1.3 23 0 .4-.1.9.1 1.2.2.3.5.4.8.5.4.1.7.3 1.1.4.2.1.4.1.6.1.4-.1.5-.6.6-1 1.1-7.1 1.5-14.4 1.4-21.6 0-.8-.1-1.7-.8-2.1-.8-.4-1.8 0-2.5-.5"/><path fill="#42711c" d="M846.3 212.8c8.2.5 17-.4 25.2.6.3 0 .5.1.7.2.5.3.6 1.1.6 1.7 0 1.9-.7 4.1-2.5 4.9-.7.3-1.5.4-2.3.4-4.4.3-8.9.3-13.3.2-1.1 0-2.4-.1-3.2-.9-1.1-1-.9-2.8-1.5-4.1-.6-1.4-2.2-2.6-3.8-2.6v-.4z"/><path fill="#21e700" d="M-2924-208.2h178.2V-30H-2924z"/></svg>