<svg xmlns="http://www.w3.org/2000/svg" xmlns:xlink="http://www.w3.org/1999/xlink" viewBox="0 0 1000 500"><defs><path id="a" d="M0 0h1000v500H0z"/></defs><clipPath id="b"><use xlink:href="#a" overflow="visible"/></clipPath><g clip-path="url(#b)"><defs><path id="c" d="M1000-5.2H0v276.1c16.1 35 55.5 53.5 93.2 55.6 75.5 4.2 147.4-45.5 222.7-32.8 78 13.1 135.3 90.7 235.8 120 57.1 16.6 118.3 12.6 175.9-1.7 41.9-10.4 80.5-25.2 135.5-49l136.8.9V-5.2z"/></defs><clipPath id="d"><use xlink:href="#c" overflow="visible"/></clipPath><path d="M1044.4 231.8C881 190.4 766.8 58.4 748.6-33.8h293.7l2.1 265.6z" clip-path="url(#d)" fill="#0052cc"/><path d="M923.2 114.8c.1.3.4.6.8.6h.2l4.3-1.3c.4-.1.7-.6.5-1-.1-.4-.6-.7-1-.5l-4.3 1.3c-.4.1-.6.5-.5.9zm6-64.4h.1c.4-.1.7-.5.6-.9-.2-1.2-.3-2.5-.3-3.7V45c0-.4-.3-.8-.8-.8-.4 0-.8.3-.8.8v.9c0 1.3.1 2.7.3 4 .2.2.5.5.9.5zm.1-9.4h.2c.4 0 .7-.2.8-.6 0-.2.1-.4.1-.6.3-1.3.8-2.5 1.3-3.7.2-.4 0-.9-.4-1-.4-.2-.9 0-1 .4-.6 1.3-1 2.6-1.4 4-.1.2-.1.4-.2.6 0 .4.2.8.6.9zm-62.2-53c1.3.7 2.6 1.5 3.9 2.4.1.1.3.1.5.1s.5-.1.6-.3c.3-.4.2-.8-.2-1.1-1.3-.9-2.6-1.8-4-2.5-.4-.2-.9-.1-1.1.3-.3.4-.1.9.3 1.1zm47.1 39c1.5.5 2.9 1.1 4.2 1.8.1.1.2.1.4.1.3 0 .5-.1.7-.4.2-.4.1-.9-.3-1.1-1.4-.8-2.9-1.4-4.4-1.9-.4-.1-.9.1-1 .5-.3.4 0 .9.4 1zm-28.7-14.2c.1.4.4.6.8.6h.2c.4-.1.7-.5.6-.9-.3-1.5-.7-3.1-1.2-4.6-.1-.4-.6-.6-1-.5-.4.1-.6.6-.5 1 .4 1.4.8 2.9 1.1 4.4zm46.3 46c.1.2.4.4.7.4.1 0 .3 0 .4-.1.4-.2.5-.7.3-1.1-.8-1.3-1.5-2.7-2-4.1-.2-.4-.6-.6-1-.5-.4.2-.6.6-.5 1 .5 1.5 1.2 3 2.1 4.4zm3.9 34.9c-.4 0-.8.3-.8.8v1.1c0 1.3.1 2.5.2 3.7 0 .4.4.7.8.7h.1c.4 0 .8-.4.7-.8-.1-1.2-.1-2.4-.1-3.6v-1.1c-.1-.4-.4-.8-.9-.8zm1.9-8.4c.1-.4-.2-.8-.6-.9-.4-.1-.8.2-.9.6-.3 1.6-.6 3.2-.8 4.7-.1.4.3.8.7.9h.1c.4 0 .7-.3.8-.7.1-1.5.4-3.1.7-4.6zm-4.7-52.9c.1.1.3.1.5.1s.5-.1.6-.3c.9-1.2 1.9-2.4 3-3.4.3-.3.3-.8 0-1.1-.3-.3-.8-.3-1.1 0-1.2 1.1-2.3 2.3-3.2 3.7-.2.2-.1.7.2 1zm-.3 80.5h.2l4.3-1.3c.4-.1.7-.6.5-1s-.6-.7-1-.5l-4.3 1.3c-.4.1-.7.6-.5 1 .1.3.4.5.8.5zm7.2-37.5c-.4-.2-.9 0-1 .4 0 .1-.7 1.8-1.6 4.5-.1.4.1.9.5 1h.2c.3 0 .7-.2.8-.6.8-2.7 1.5-4.3 1.5-4.4.2-.3 0-.7-.4-.9zm-.2 24.2c-.3-.3-.8-.3-1.1 0l-3.3 3.3c-.3.3-.3.8 0 1.1.2.2.4.2.6.2.2 0 .4-.1.6-.2l3.3-3.3c.2-.3.2-.8-.1-1.1zm-.8-33.6c.2 0 .5-.1.6-.3.3-.3.2-.8-.2-1.1-1.2-.9-2.4-1.9-3.4-3-.3-.3-.8-.3-1.1 0-.3.3-.3.8 0 1.1 1.1 1.2 2.3 2.3 3.6 3.2.2.1.3.1.5.1zm-69.9-30.2l.1-1.5v-.9c0-.9-.1-1.9-.3-2.8-.1-.4-.5-.7-.9-.6-.4.1-.7.5-.6.9.2.8.3 1.6.3 2.4v.8l-.1 1.5c0 .4.3.8.7.8h.1c.3.1.6-.2.7-.6zM814.4 9.7h.2c.3 0 .6-.2.7-.6.5-1.4 1-2.9 1.6-4.2.2-.4 0-.9-.4-1-.4-.2-.9 0-1 .4-.7 1.4-1.2 2.9-1.7 4.4-.1.4.2.8.6 1zM824.3-6c.2 0 .4-.1.5-.2 1.1-1 2.3-2 3.5-2.9.3-.3.4-.7.2-1.1-.3-.3-.7-.4-1.1-.2-1.3.9-2.5 2-3.6 3.1-.3.3-.3.8 0 1.1.1.2.3.2.5.2zm22.2 0c1.2-.9 2.6-1.4 4-1.8.4-.1.7-.5.6-.9-.1-.4-.5-.7-.9-.6-1.6.4-3.2 1-4.6 2-.4.2-.4.7-.2 1.1.2.2.4.3.6.3.3 0 .4-.1.5-.1zM795.8 6.3c1.3.9 2.6 1.8 4 2.6.1.1.3.1.4.1.3 0 .5-.1.7-.4.2-.4.1-.9-.3-1.1-1.4-.8-2.7-1.6-3.9-2.5-.4-.3-.8-.2-1.1.2-.2.3-.2.8.2 1.1zM785.1-9c-.2-.4-.7-.6-1-.4-.4.2-.6.7-.4 1 .7 1.5 1.5 2.9 2.3 4.2.1.2.4.4.7.4.1 0 .3 0 .4-.1.4-.2.5-.7.2-1.1-.8-1.3-1.6-2.6-2.2-4zm81.8 49.6l-.4 5c0 .4.3.8.7.8h.1c.4 0 .8-.3.8-.7l.4-5c0-.4-.3-.8-.7-.8-.5 0-.8.3-.9.7zm-84.7-58.4c-.1-.4-.5-.7-.9-.6-.4.1-.7.5-.6.9.3 1.6.7 3.1 1.2 4.6.1.3.4.5.7.5h.2c.4-.1.6-.6.5-1-.4-1.3-.8-2.8-1.1-4.4zm-1.4-3.7c.4 0 .8-.4.7-.8-.1-1-.1-1.9-.1-2.8 0-1.1.1-1.7.1-1.7 0-.4-.3-.8-.7-.9-.4 0-.8.3-.9.7 0 0-.1.7-.1 1.9 0 1 0 2 .1 3 .1.3.5.6.9.6zM846.1 14c1.4.9 3 1.5 4.6 1.8h.1c.4 0 .7-.3.8-.6.1-.4-.2-.8-.6-.9-1.5-.3-2.8-.8-4.1-1.6-.4-.2-.8-.1-1.1.2-.2.4-.1.8.3 1.1zM865 4.5c-.4-.1-.8.2-.9.6-.3 1.5-.8 2.8-1.6 4.1-.2.4-.1.8.2 1.1.1.1.3.1.4.1.3 0 .5-.1.7-.4.9-1.4 1.5-3 1.8-4.7.1-.3-.2-.7-.6-.8zm-2.6-8.9c-.4.2-.4.7-.2 1.1.9 1.2 1.4 2.6 1.8 4 .1.4.4.6.8.6h.2c.4-.1.7-.5.6-.9-.4-1.6-1-3.2-2-4.6-.4-.3-.8-.4-1.2-.2zm-3.8-10.8c1.5.4 2.9.8 4.3 1.4.1 0 .2.1.3.1.3 0 .6-.2.7-.5.2-.4 0-.9-.5-1-1.5-.6-3-1-4.5-1.4-.4-.1-.8.2-.9.6-.1.3.1.7.6.8zm-9.1-1.1h.4c1.4 0 2.8.1 4.2.2h.1c.4 0 .7-.3.8-.7 0-.4-.3-.8-.7-.9-1.4-.2-2.9-.3-4.4-.3h-.4c-.4 0-.8.4-.8.8.1.6.4.9.8.9zm4.8 7.5c-.1.4.2.8.6.9 1.5.3 2.8.8 4.1 1.6.1.1.3.1.4.1.3 0 .5-.1.7-.4.2-.4.1-.9-.2-1.1-1.4-.9-3-1.5-4.6-1.8h-.1c-.4 0-.8.3-.9.7zm5.1 21.2c-1.2.8-2.6 1.4-4 1.8-.4.1-.7.5-.6.9.1.4.4.6.8.6h.2c1.6-.4 3.2-1 4.6-2 .4-.2.4-.7.2-1.1-.4-.3-.8-.4-1.2-.2zm125.2 134.8h.2l2.3-.7c.4-.1.7-.6.5-1s-.6-.7-1-.5l-2.3.7c-.4.1-.7.6-.5 1 .1.3.4.5.8.5zm-8.9-46.8h.2l4.3-1.3c.4-.1.7-.6.5-1s-.6-.7-1-.5l-4.3 1.3c-.4.1-.7.6-.5 1 .1.3.4.5.8.5zM974 32.2c-.2-.4-.7-.5-1.1-.2-.4.2-.5.7-.2 1.1.8 1.3 1.5 2.6 2.1 4 .1.3.4.5.7.5.1 0 .2 0 .3-.1.4-.2.6-.6.4-1-.6-1.5-1.3-2.9-2.2-4.3zm2.9-14.4c.1.3.4.4.7.4.1 0 .3 0 .4-.1.4-.2.5-.7.3-1.1-.7-1.4-1.4-2.8-2-4.2-.2-.4-.6-.6-1-.4-.4.2-.6.6-.4 1 .5 1.6 1.2 3 2 4.4zM974.5 57c.1.1.2.1.3.1.3 0 .6-.2.7-.4.7-1.5 1.3-3 1.7-4.6l.3-1.2c.1-.4-.2-.8-.6-.9-.4-.1-.8.2-.9.6l-.3 1.2c-.4 1.5-.9 2.9-1.6 4.3-.2.2 0 .7.4.9zM971.8.4s.1 0 0 0c.5-.1.8-.4.8-.9-.2-1.5-.3-3.1-.3-4.6 0-.4-.4-.8-.8-.8s-.8.4-.8.8c0 1.6.1 3.2.3 4.8.1.4.4.7.8.7zm-.2-9.4s.1 0 0 0c.5 0 .8-.3.9-.7.3-2.8.8-4.5.8-4.5.1-.4-.1-.9-.5-1-.4-.1-.9.1-1 .5 0 .1-.5 1.8-.8 4.8-.1.5.2.9.6.9zm.8 12.5c-.4.1-.7.5-.6.9.3 1.5.8 3.1 1.3 4.6.1.3.4.5.7.5h.2c.4-.1.6-.6.5-1-.5-1.5-.9-3-1.2-4.5 0-.3-.5-.6-.9-.5zm-6 23.1c1.2.9 2.4 1.9 3.5 2.9.2.2.4.2.6.2.2 0 .4-.1.5-.2.3-.3.3-.8 0-1.1-1.1-1.2-2.4-2.2-3.7-3.1-.4-.2-.8-.2-1.1.2-.3.3-.2.8.2 1.1zm18.7 94.3c0 .4.3.8.8.8.4 0 .8-.3.8-.8l.1-5.5c0-.4-.3-.8-.8-.8-.4 0-.8.3-.8.8l-.1 5.5zm1.1-10.3c.4 0 .8-.3.8-.8l.1-5.5c0-.4-.3-.8-.8-.8-.4 0-.8.3-.8.8l-.1 5.5c0 .4.4.8.8.8zm-9-63.8c.4 0 .8-.3.8-.8v-.2c0-1.5-.1-3.1-.4-4.6-.1-.4-.5-.7-.9-.6-.4.1-.7.5-.6.9.3 1.4.4 2.9.4 4.3v.2c-.1.4.3.8.7.8zm7.3 51l1.2-.4v1.3c0 .4.3.8.8.8.4 0 .8-.3.8-.8l.1-2.4c0-.3-.1-.5-.3-.6-.2-.2-.5-.2-.7-.1l-2.3.7c-.4.1-.7.6-.5 1 .1.4.5.7.9.5zm.5 30.4l-1.7.5c-.4.1-.7.6-.5 1 .1.3.4.6.8.6h.2l2.3-.7c.3-.1.6-.4.6-.7l.1-2.4c0-.4-.3-.8-.8-.8-.4 0-.8.3-.8.8l-.2 1.7zm-2.9-102.4c.2.2.4.3.6.3.2 0 .3-.1.5-.2.3-.3.4-.8.1-1.1-1-1.2-1.9-2.5-2.7-3.8-.2-.4-.7-.5-1.1-.2-.4.2-.5.7-.2 1.1.9 1.3 1.8 2.6 2.8 3.9zM790-1.3c-.3-.3-.8-.4-1.1-.1-.3.3-.4.8-.1 1.1 1 1.2 2.1 2.4 3.3 3.5.2.1.3.2.5.2s.4-.1.6-.2c.3-.3.3-.8 0-1.1C792 1 791-.1 790-1.3zM929 97l3.1 3.5c.2.2.4.3.6.3.2 0 .4-.1.5-.2.3-.3.4-.8.1-1.1l-3.1-3.5c-.3-.3-.8-.4-1.1-.1-.4.2-.4.7-.1 1.1zm11.4 12.8c.1.3.4.6.8.6h.2l4.3-1.3c.4-.1.7-.6.5-1s-.6-.7-1-.5l-4.3 1.3c-.4.1-.6.5-.5.9zm2.5-12.5l.3-.3c.3-.3.3-.8 0-1.1-.3-.3-.8-.3-1.1 0l-.3.3c-.3.3-.3.8 0 1.1.2.2.4.2.6.2.2.1.4 0 .5-.2zm22.5-58.1c.2 0 .4-.1.5-.2l1.8-1.5c.3-.3.4-.8.1-1.1-.3-.3-.8-.4-1.1-.1l-1.8 1.5c-.3.3-.4.8-.1 1.1.1.2.4.3.6.3zm-26.6 10.7c.1.3.4.5.7.5.1 0 .2 0 .3-.1.4-.2.6-.6.4-1l-1-2.1c-.2-.4-.6-.6-1-.4-.4.2-.6.6-.4 1l1 2.1zm5.6 5.3l-1 .9-.6-1.2c-.2-.4-.6-.6-1-.4-.4.2-.6.6-.4 1l1 2.1c.1.2.3.4.5.4h.2c.2 0 .4-.1.5-.2l1.8-1.5c.3-.3.4-.8.1-1.1-.3-.3-.8-.3-1.1 0zm4.5-32.5h.1c1.3-.2 2.7-.3 4-.3h.5c.4 0 .8-.3.8-.8 0-.4-.3-.8-.8-.8h-.6c-1.4 0-2.9.1-4.3.4-.4.1-.7.5-.6.9.2.4.5.6.9.6zm-8.7 3.4c.1 0 .3 0 .4-.1 1.3-.8 2.7-1.5 4.1-2 .4-.2.6-.6.4-1-.2-.4-.6-.6-1-.4-1.5.6-3 1.3-4.3 2.2-.4.2-.5.7-.2 1.1.1.1.3.2.6.2zm1.9 41.2c-.2.4 0 .9.4 1 1.4.6 2.8 1.2 4.3 1.5.1 0 .2.1.3.1h.2c.4 0 .7-.2.8-.6.1-.4-.2-.8-.6-1l-.3-.1c-1.4-.4-2.7-.8-4-1.4-.4 0-.9.1-1.1.5zm16-44.4c.3.1.6.1.9.2 1.2.3 2.3.7 3.5 1.2.1 0 .2.1.3.1.3 0 .6-.2.7-.5.2-.4 0-.9-.4-1-1.2-.5-2.4-.9-3.7-1.3-.3-.1-.6-.2-.9-.2-.4-.1-.8.2-.9.6-.2.4.1.8.5.9zm-.9 23.2c.2 0 .4-.1.5-.2l4.1-3.5c.3-.3.4-.8.1-1.1-.3-.3-.8-.4-1.1-.1l-4.1 3.5c-.3.3-.4.8-.1 1.1.1.2.4.3.6.3zm-5.3 24.6h1.2c1.2 0 2.4-.1 3.6-.3.4-.1.7-.5.7-.9-.1-.4-.5-.7-.9-.7-1.1.2-2.3.3-3.4.3H952c-.4 0-.8.3-.8.7-.1.5.2.9.7.9zm13.1-4.8c-1.3.8-2.7 1.4-4.1 1.9-.4.1-.6.6-.5 1 .1.3.4.5.7.5h.3c1.5-.5 3-1.2 4.4-2.1.4-.2.5-.7.3-1.1-.3-.3-.7-.5-1.1-.2zm-13.1 71.9l-4.5 1.3c-.4.1-.7.6-.5 1 .1.3.4.6.8.6h.2l4.5-1.3c.4-.1.7-.6.5-1s-.6-.8-1-.6zm1.7-88.4c.3-.3.4-.8.1-1.1-.3-.3-.8-.4-1.1-.1l-4.1 3.5c-.3.3-.4.8-.1 1.1.2.2.4.3.6.3.2 0 .4-.1.5-.2l4.1-3.5zM952.2 155l-4.6 1.3c-.4.1-.7.6-.5 1 .1.3.4.6.8.6h.2l4.6-1.3c.4-.1.7-.6.5-1s-.6-.7-1-.6zM920.7 20.9c0 .4.4.7.8.7h.1c.4 0 .7-.4.7-.9l-.1-.9c0-.4-.4-.7-.9-.7-.4 0-.7.4-.7.9l.1.9zm22.7 121c.4-.1.7-.6.5-1s-.6-.7-1-.5l-4.5 1.3c-.4.1-.7.6-.5 1 .1.3.4.6.8.6h.2l4.5-1.4zm-8.4 1.6c-.1-.4-.6-.7-1-.5l-2.1.6-2.1-3.3c-.2-.4-.7-.5-1.1-.2-.4.2-.5.7-.2 1.1l2.6 4.1c.1.2.4.4.7.4.1 0 .3 0 .4-.1.2-.1.3-.3.3-.4l2-.6c.3-.3.6-.7.5-1.1zm18.9-38.4l-4.3 1.3c-.4.1-.7.6-.5 1 .1.3.4.6.8.6h.2l4.3-1.3c.4-.1.7-.6.5-1-.2-.5-.6-.7-1-.6zm-10 53.2c-.1-.4-.6-.7-1-.5l-1.7.5-1-1.5c-.2-.4-.7-.5-1.1-.2-.4.2-.5.7-.2 1.1l1.3 2c.1.2.4.4.7.4h.2l2.3-.7c.4-.3.6-.7.5-1.1zm10.5 8.5l-.8.2-.7.2c.1.4.2.8.2 1.1 0 1.1-.4 2.1-1.1 2.8-.3.3-.3.8 0 1.1.2.1.3.2.5.2s.4-.1.6-.2c1-1.1 1.6-2.4 1.6-3.9 0-.5-.1-1-.3-1.5.1 0 0 0 0 0zm-4-3.9c-1-.2-2-.2-2.9.1-1 .3-1.8.8-2.5 1.5-.3.3-.3.8 0 1.1.2.1.3.2.5.2s.4-.1.6-.2c.5-.5 1.1-.9 1.8-1.1.7-.2 1.4-.2 2.1 0 .4.1.8-.2.9-.6.1-.5-.1-.9-.5-1zm-2.4 9.4c-1.4-.3-2.5-1.4-3-2.8-.1-.4-.6-.7-1-.5-.4.1-.7.6-.5 1 .6 1.9 2.1 3.4 4.1 3.9h.2c.4 0 .7-.2.8-.6.1-.4-.1-.9-.6-1zm-13-23.8c-.2-.4-.7-.5-1.1-.2-.4.2-.5.7-.2 1.1l2.6 4.1c.1.2.4.4.7.4.1 0 .3 0 .4-.1.4-.2.5-.7.2-1.1l-2.6-4.2zM913.2 33.8h.3l4.5-1.5c.4-.1.6-.6.5-1-.1-.4-.6-.6-1-.5l-4.5 1.5c-.4.1-.6.6-.5 1 0 .3.3.5.7.5zm11.3 98.2c-.2-.4-.7-.5-1.1-.2-.4.2-.5.7-.2 1.1l2.6 4.1c.1.2.4.4.7.4.1 0 .3 0 .4-.1.4-.2.5-.7.2-1.1l-2.6-4.2zM910 109.5c-.2-.3-.5-.4-.9-.3l-2.3.7c-.4.1-.7.6-.5 1 .1.4.6.7 1 .5l1.7-.5 1 1.5c.1.2.4.4.7.4.1 0 .3 0 .4-.1.4-.2.5-.7.2-1.1l-1.3-2.1zm3.9 6.1c-.2-.4-.7-.5-1.1-.2-.4.2-.5.7-.2 1.1l2.6 4.1c.1.2.4.4.7.4.1 0 .3 0 .4-.1.4-.2.5-.7.2-1.1l-2.6-4.2zm9.3-85.9l-.5-4.3c0-.4-.4-.7-.9-.7-.4 0-.7.4-.7.9l.4 3.7c-.3.2-.4.6-.3.9.1.3.4.5.7.5h.3l.4-.1c.5-.2.7-.5.6-.9zm-2.8 86c-.1-.4-.6-.7-1-.5l-2.3.7c-.4.1-.7.6-.5 1 .1.3.4.6.8.6h.2l2.3-.7c.4-.3.6-.7.5-1.1zm-1.2 8.1c-.2-.4-.7-.5-1.1-.2-.4.2-.5.7-.2 1.1l2.6 4.1c.1.2.4.4.7.4.1 0 .3 0 .4-.1.4-.2.5-.7.2-1.1l-2.6-4.2zm37.6 14.2l4.5-1.3c.4-.1.7-.6.5-1s-.6-.7-1-.5l-4.5 1.3c-.4.1-.7.6-.5 1 .1.3.4.6.8.6.1-.1.1-.1.2-.1zM909.9 25.9c.4 0 .7-.3.8-.6.1-.4-.2-.8-.6-.9-1.5-.3-3.1-.4-4.8-.5-.4 0-.8.3-.8.7 0 .4.3.8.7.8 1.6.1 3.1.2 4.6.5h.1zm78.7 131l-.7.2c.1.4.2.8.2 1.1 0 1.1-.4 2.1-1.1 2.8-.3.3-.3.8 0 1.1.2.1.3.2.5.2s.4-.1.6-.2c1-1.1 1.6-2.4 1.6-3.9 0-.5-.1-1.1-.2-1.6l-.9.3zm-5.6 5.3c-1.4-.3-2.5-1.4-3-2.8-.1-.4-.6-.7-1-.5-.4.1-.7.6-.5 1 .6 1.9 2.1 3.4 4.1 3.9h.2c.4 0 .7-.2.8-.6.1-.5-.2-.9-.6-1zm21.3-119.1c-1.3-.8-2.7-1.7-3.9-2.6-.4-.2-.8-.2-1.1.2-.2.4-.2.8.2 1.1 1.3.9 2.6 1.8 4 2.6.1.1.3.1.4.1.3 0 .5-.1.7-.4.2-.3 0-.8-.3-1zm-18-14.7c-.3-.3-.8-.3-1.1-.1-.3.3-.3.8-.1 1.1 1 1.2 2.1 2.3 3.3 3.4.2.1.3.2.5.2s.4-.1.6-.2c.3-.3.3-.8 0-1.1-1.1-1-2.2-2.2-3.2-3.3zm-5.6 119.2c-.1-.4-.6-.7-1-.5l-4.6 1.3c-.4.1-.7.6-.5 1 .1.3.4.6.8.6h.2l4.6-1.3c.4-.3.7-.7.5-1.1zm15.9-109.8c-1.2-1-2.5-1.9-3.6-2.9-.3-.3-.8-.2-1.1.1-.3.3-.2.8.1 1.1 1.2 1 2.4 2 3.7 3 .1.1.3.2.5.2s.5-.1.6-.3c.2-.4.1-.9-.2-1.2zm-11.3 114.9c-1-.2-2-.2-2.9.1-1 .3-1.8.8-2.5 1.5-.3.3-.3.8 0 1.1.2.1.3.2.5.2s.4-.1.6-.2c.5-.5 1.1-.9 1.8-1.1.7-.2 1.4-.2 2.1 0 .4.1.8-.2.9-.6.2-.4-.1-.9-.5-1zm-22.8-50.1l-4.3 1.3c-.4.1-.7.6-.5 1 .1.3.4.6.8.6h.2l4.3-1.3c.4-.1.7-.6.5-1-.1-.5-.6-.7-1-.6zm3.3 32.8l4.5-1.3c.4-.1.7-.6.5-1-.1-.4-.6-.7-1-.5l-4.5 1.3c-.4.1-.7.6-.5 1 .1.3.4.6.8.6 0-.1.1-.1.2-.1zm-4.4 17l-4.6 1.3c-.4.1-.7.6-.5 1 .1.3.4.6.8.6h.2l4.6-1.3c.4-.1.7-.6.5-1s-.6-.7-1-.6zm9.7-52.3l-4.3 1.3c-.4.1-.7.6-.5 1 .1.3.4.6.8.6h.2l4.3-1.3c.4-.1.7-.6.5-1-.1-.5-.5-.7-1-.6zm1.7-40.4c-.3-.3-.8-.2-1.1.2-.9 1.2-1.9 2.3-3.1 3.3-.3.3-.4.8-.1 1.1.2.2.4.3.6.3.2 0 .4-.1.5-.2 1.2-1.1 2.3-2.3 3.3-3.6.3-.4.3-.9-.1-1.1zm-2.2 90L966 151c-.4.1-.7.6-.5 1 .1.3.4.6.8.6h.2l4.6-1.3c.4-.1.7-.6.5-1s-.6-.7-1-.6zm8.6-18.2c.4-.1.7-.6.5-1-.1-.4-.6-.7-1-.5l-4.5 1.3c-.4.1-.7.6-.5 1 .1.3.4.6.8.6h.2l4.5-1.4zM823.5 41.9c-.4-.1-.9.1-1 .5l-.3.9c-1-1.2-1.9-2.4-2.7-3.7-.2-.4-.7-.5-1.1-.2-.4.2-.5.7-.2 1.1.9 1.3 1.8 2.6 2.8 3.8.2.2.4.3.6.3h.3v.1c-.1.4.1.9.5 1h.2c.3 0 .7-.2.8-.6l.7-2.3c.1-.3-.2-.7-.6-.9zm8.7-53.5c1.3-.7 2.7-1.4 4.1-2 .4-.2.6-.6.4-1-.2-.4-.6-.6-1-.4-1.5.6-2.9 1.3-4.3 2.1-.4.2-.5.7-.3 1.1.1.3.4.4.7.4.1-.1.2-.1.4-.2zm-2.4 34.7c-.4-.2-.8-.1-1.1.2-.7 1-1.2 2.2-1.6 3.4l-.4 1.4c-.1.4.1.9.5 1h.2c.3 0 .7-.2.8-.6l.4-1.4c.3-1.1.8-2 1.4-3 .2-.2.1-.7-.2-1zm-.9 26.4c-1.2-.9-2.4-1.8-3.5-2.9-.3-.3-.8-.3-1.1 0-.3.3-.3.8 0 1.1 1.2 1.1 2.4 2.1 3.7 3 .1.1.3.1.5.1s.5-.1.6-.3c.3-.3.2-.7-.2-1zm8.6-31.5c-1.8.2-3.5.8-5 1.7-.4.2-.5.7-.3 1.1.1.2.4.4.7.4.1 0 .3 0 .4-.1 1.3-.8 2.8-1.3 4.4-1.5.4 0 .7-.4.7-.9-.1-.4-.5-.7-.9-.7zm3.1-33c1.5-.4 3-.7 4.5-.9.4-.1.7-.5.7-.9-.1-.4-.5-.7-.9-.7-1.6.2-3.1.5-4.6.9-.4.1-.7.5-.6 1 .1.3.4.6.8.6h.1zm-3.7 68.8c-1.4-.5-2.8-1.2-4.1-1.9-.4-.2-.9-.1-1.1.3-.2.4-.1.9.3 1.1 1.4.7 2.8 1.4 4.3 2 .1 0 .2.1.3.1.3 0 .6-.2.7-.5.3-.5 0-.9-.4-1.1zm-12.2-15.1c.3 0 .7-.2.8-.6l1.4-4.8c.1-.4-.1-.9-.5-1-.4-.1-.9.1-1 .5l-1.4 4.8c-.1.4.1.9.5 1 0 .1.1.1.2.1zm-9.1-7.2c-.1-.4-.6-.6-1-.5-.4.1-.6.6-.5 1 .5 1.5 1.1 3 1.8 4.4.1.3.4.4.7.4.1 0 .2 0 .3-.1.4-.2.6-.7.4-1-.6-1.3-1.2-2.7-1.7-4.2zm-13-29.8c-.4 0-.8.4-.8.8v2.4c0 .4.4.8.8.8s.8-.4.8-.8V2.5c0-.4-.4-.8-.8-.8zm0 5.4c-.4 0-.8.4-.8.8v1.7l-1.7.4c-.4.1-.7.5-.6.9.1.4.4.6.8.6h.2l2.3-.5c.4-.1.6-.4.6-.8V7.9c0-.4-.4-.8-.8-.8zm10.3 11.7s.1 0 0 0c.5 0 .8-.3.8-.7.1-1.5.3-3 .5-4.5.1-.4-.2-.8-.6-.9-.4-.1-.8.2-.9.6-.3 1.6-.5 3.1-.5 4.7 0 .4.3.8.7.8zM819.1.9c.8-1.3 1.7-2.5 2.6-3.7.3-.3.2-.8-.1-1.1-.3-.3-.8-.2-1.1.1-1 1.2-1.9 2.5-2.8 3.9-.2.4-.1.9.3 1.1.1.1.3.1.4.1.3-.1.6-.2.7-.4zm-21.6 9.8l-2.3.5c-.4.1-.7.5-.6.9.1.4.4.6.8.6h.2l2.3-.5c.4-.1.7-.5.6-.9-.2-.5-.6-.7-1-.6zm45-.2c.2.2.4.3.6.3.2 0 .3 0 .4-.1.4-.2.4-.7.2-1.1-.8-1.2-1.4-2.6-1.8-4-.1-.4-.5-.7-.9-.6-.4.1-.7.5-.6.9.4 1.7 1.1 3.2 2.1 4.6zm-28.1 16.6c-.3-1.5-.5-3-.6-4.5 0-.4-.4-.8-.8-.7-.4 0-.8.4-.7.8.1 1.6.3 3.2.6 4.7.1.4.4.6.8.6h.2c.3 0 .6-.4.5-.9zM845.8 56c-.8-.1-1.5-.2-2.3-.3-.7-.1-1.5-.3-2.2-.5-.4-.1-.8.2-.9.6-.1.4.2.8.6.9.8.2 1.5.3 2.3.5.8.1 1.6.3 2.4.4h.1c.4 0 .7-.3.8-.7-.1-.5-.4-.9-.8-.9zm-4.7-54.2c.4 0 .7-.3.8-.6.3-1.5.8-2.8 1.6-4.1.2-.4.1-.8-.2-1.1-.4-.2-.9-.1-1.1.2-.9 1.4-1.5 3-1.8 4.6-.1.4.2.8.6.9 0 .1.1.1.1.1zm42.2 2.8c.1 0 .2 0 .3-.1.4-.2.6-.7.4-1-.7-1.4-1.5-2.8-2.3-4.1-.2-.4-.7-.5-1.1-.2-.4.2-.5.7-.2 1.1.8 1.3 1.6 2.6 2.2 4 .1.2.4.3.7.3zm-4.1 38.1c-.3-.3-.8-.2-1.1.1-1 1.2-2 2.3-3.1 3.3-.3.3-.3.8 0 1.1.2.2.4.2.6.2.2 0 .4-.1.5-.2 1.1-1.1 2.2-2.3 3.2-3.5.3-.2.2-.7-.1-1zm4.7-8c-.4-.2-.9 0-1 .4-.6 1.4-1.4 2.7-2.2 4-.2.4-.1.9.3 1.1.1.1.3.1.4.1.3 0 .5-.1.7-.4.8-1.3 1.6-2.8 2.2-4.2.2-.4 0-.8-.4-1zm17.4-10.1c0-.4-.4-.8-.8-.7-2.9.2-4.7.6-4.8.6-.4.1-.7.5-.6.9.1.4.4.6.8.6h.2s1.8-.4 4.5-.6c.4 0 .7-.4.7-.8zm-14.5-8.1c-.4 0-.8.4-.7.8.1.9.1 1.8.1 2.6 0 .6 0 1.3-.1 1.9 0 .4.3.8.7.8.4 0 .8-.3.8-.7 0-.7.1-1.3.1-2 0-.9 0-1.8-.1-2.8 0-.4-.4-.7-.8-.6zm-.3 9.2c-.4-.1-.8.2-.9.6v.1c-.3 1.5-.6 3-1.1 4.4-.1.4.1.9.5 1h.2c.3 0 .6-.2.7-.6.5-1.5.9-3.1 1.1-4.6v-.1c.2-.3-.1-.7-.5-.8zm-8.9-29.1c.2.2.4.3.6.3.2 0 .4-.1.5-.2.3-.3.4-.8.1-1.1-1-1.2-2.1-2.4-3.3-3.4-.3-.3-.8-.3-1.1 0-.3.3-.3.8 0 1.1 1.2 1 2.2 2.1 3.2 3.3zm-30.1 22.7l-4.9-.9c-.4-.1-.8.2-.9.6-.1.4.2.8.6.9l4.9.9h.1c.4 0 .7-.3.8-.6.2-.4-.1-.8-.6-.9zm7.3 36.6c-1.5.2-3 .3-4.5.3-.4 0-.8.4-.8.8s.4.8.8.8c1.6 0 3.2-.1 4.7-.3.4-.1.7-.5.7-.9 0-.5-.4-.8-.9-.7zm45.8 55.7l-2.3.7c-.4.1-.7.6-.5 1 .1.3.4.6.8.6h.2l2.3-.7c.4-.1.7-.6.5-1s-.6-.7-1-.6zm-37-58.1c-1.4.6-2.9 1.1-4.3 1.5-.4.1-.7.5-.6 1 .1.4.4.6.8.6h.2c1.5-.4 3-.9 4.5-1.5.4-.2.6-.6.4-1-.1-.5-.6-.7-1-.6zm-6.3-32.4l-4.9-.9c-.4-.1-.8.2-.9.6-.1.4.2.8.6.9l4.9.9h.1c.4 0 .7-.3.8-.6.1-.4-.1-.8-.6-.9zm9.1 4.7c-1.1-1.4-2.5-2.5-4.1-3.3-.4-.2-.9 0-1.1.3-.2.4 0 .9.3 1.1 1.4.7 2.6 1.7 3.6 2.9.2.2.4.3.6.3.2 0 .3-.1.5-.2.4-.2.5-.7.2-1.1zm5.1 23.3c-1.2.9-2.5 1.7-3.8 2.5l.1-.9c0-.4-.3-.8-.7-.8-.4 0-.8.3-.8.7l-.2 2.3c0 .4.3.8.7.8h.1c.4 0 .8-.3.8-.7v-.2c.1.1.3.2.5.2.1 0 .3 0 .4-.1 1.4-.8 2.7-1.6 4-2.6.3-.3.4-.7.2-1.1-.4-.3-.9-.4-1.3-.1z" clip-path="url(#d)" fill="#5680f9"/><path d="M829.2-33.8H815c15.9 92.2 115.9 224.1 259 265.6C938.7 190.4 844.2 58.4 829.2-33.8zM1099 231.8C993.8 190.4 920.4 58.4 908.7-33.8h-14.5c12.6 92.2 91.6 224.2 204.8 265.6z" clip-path="url(#d)" fill="#2a44a1"/><path d="M922.8 25.4c0-.4-.4-.7-.9-.7-.4 0-.7.4-.7.9l.4 3.7c-.3.2-.4.6-.3.9.1.3.4.5.7.5h.3l.4-.1c.3-.1.6-.5.5-.8l-.4-4.4zM910 24.3c-.3-.1-.6-.1-1-.2.2.6.4 1.1.6 1.7h.2c.4 0 .7-.3.8-.6.1-.4-.2-.8-.6-.9zm-8.8 87.4c-.2-.1-.4-.1-.6-.1l-2.3.7c-.4.1-.7.6-.5 1 .1.3.4.6.8.6h.2l2.3-.7c.4-.1.6-.5.5-1-.2-.2-.3-.4-.4-.5zm20.4-90.1c-.2-.8-.4-1.5-.7-2.3-.2.2-.3.4-.3.7l.1.9c0 .4.4.7.9.7-.1 0-.1 0 0 0zm-2.5 5.8c-1.4-.8-2.9-1.4-4.4-1.9-.4-.1-.9.1-1 .5-.1.4.1.9.5 1 1.5.5 2.9 1.1 4.2 1.8.1.1.2.1.4.1.3 0 .5-.1.7-.4.1-.4 0-.9-.4-1.1zM859.3 55c-.4.1-.7.5-.6 1 .1.4.4.6.8.6h.2c1-.3 2-.6 2.9-.9-.3-.5-.5-.9-.8-1.4-.8.2-1.6.5-2.5.7zm58-24.3l-4.5 1.5c-.3.1-.5.4-.5.7.1.2.2.4.2.6.1.1.3.2.6.2h.3l4.5-1.5c.4-.1.6-.6.5-1-.2-.4-.6-.6-1.1-.5zm-89.9-41.1c-1.3.9-2.5 2-3.6 3.1-.3.3-.3.8 0 1.1.2.2.4.2.6.2.2 0 .4-.1.5-.2 1.1-1 2.3-2 3.5-2.9.3-.3.4-.7.2-1.1-.4-.4-.8-.4-1.2-.2zm110.9 76.3c.1.1.3.2.5.2s.4-.1.6-.3c-.3-.6-.5-1.1-.8-1.7-1-.8-1.9-1.6-2.7-2.5-.3-.3-.8-.3-1.1 0-.3.3-.3.8 0 1.1 1 1.2 2.2 2.2 3.5 3.2zM833.9-12.5c-.1-.5-.3-1-.4-1.5-.7.3-1.4.7-2.1 1.1-.4.2-.5.7-.3 1.1.1.3.4.4.7.4.1 0 .3 0 .4-.1.5-.4 1.1-.7 1.7-1zm20.9 68.4c-1.3.2-2.7.3-4.1.3l.9 1.5c1.1-.1 2.3-.2 3.4-.3.4-.1.7-.5.7-.9s-.4-.7-.9-.6zm-12.2-37.5c-.4-.1-.8.2-.9.6-.1.4.2.8.6.9l3 .5c-.2-.6-.5-1.2-.7-1.7l-2-.3zm-5.1-.4c-1.8.2-3.5.8-5 1.7-.3.2-.4.5-.4.8 0 .1.1.2.1.3.2.2.4.3.6.3.1 0 .3 0 .4-.1 1.3-.8 2.8-1.3 4.4-1.5.4 0 .7-.4.7-.9 0-.3-.4-.6-.8-.6zm93.6 127.2c.1.2.4.4.7.4.1 0 .3 0 .4-.1-.9-.8-1.7-1.7-2.5-2.5l1.4 2.2zm27.1-41.3c-.4.1-.7.6-.5 1 .1.3.4.6.8.6h.2l1.8-.5c-.3-.5-.6-.9-.8-1.4l-1.5.3zm11.6 28.7c.2.4.6.8.9 1.2.1-.2.2-.4.1-.7-.1-.4-.6-.7-1-.5zm-15.9-27.5l-3.3.9c.3.5.6.9.9 1.4l2.8-.8c.4-.1.7-.6.5-1-.1-.4-.5-.6-.9-.5zm.5 61.7l-.8.2-.7.2c.1.4.2.8.2 1.1 0 .5-.1.9-.2 1.4.4.3.9.7 1.3 1 .3-.7.5-1.5.5-2.4 0-.5-.1-1-.3-1.5.1 0 0 0 0 0zm33.2-21.2c-.1-.4-.6-.7-1-.5l-2.3.7c-.4.1-.7.6-.5 1 .1.3.4.6.8.6h.2l2.3-.7c.4-.3.6-.7.5-1.1zm-13.3-14.3c-.4.1-.7.6-.5 1 .1.3.4.6.8.6h.2l3.6-1c-.3-.4-.6-.9-1-1.4l-3.1.8zM935 148.5c-.2-.4-.7-.5-1.1-.2-.4.2-.5.7-.2 1.1l2.6 4.1c.1.2.4.4.7.4.1 0 .3 0 .4-.1.4-.2.5-.7.2-1.1l-2.6-4.2zm-5-99c-.2-1.2-.3-2.5-.3-3.7V45c0-.4-.3-.8-.8-.8-.4 0-.8.3-.8.8v.9c0 1.3.1 2.7.3 4 .1.4.4.7.8.7h.1c.4-.3.7-.7.7-1.1zm1.1 4.4c-.2-.4-.6-.6-1-.5-.4.2-.6.6-.5 1 .6 1.5 1.3 3 2.1 4.4.1.2.4.4.7.4.1 0 .3 0 .4-.1.4-.2.5-.7.3-1.1-.8-1.3-1.4-2.7-2-4.1zm6.5 31c0-.1-.1-.2-.2-.3 0 .1.1.2.2.3zm12.8 78c-1-.2-2-.2-2.9.1-.7.2-1.4.6-2 1 .4.3.8.7 1.3 1 .3-.2.7-.4 1.1-.5.7-.2 1.4-.2 2.1 0 .4.1.8-.2.9-.6.1-.5-.1-.9-.5-1zm-7.5-5.2l-1.7.5-1-1.5c-.2-.4-.7-.5-1.1-.2-.4.2-.5.7-.2 1.1l1.3 2c.1.2.4.4.7.4h.2l2.3-.7c.4-.1.7-.6.5-1-.1-.5-.5-.7-1-.6zm-3.1-82.3c-.4-.2-.9 0-1 .4 0 .1-.7 1.8-1.6 4.5-.1.4.1.9.5 1h.2c.3 0 .7-.2.8-.6.8-2.7 1.5-4.3 1.5-4.4.2-.3 0-.7-.4-.9z" clip-path="url(#d)" fill="#0052cc"/><path d="M755-33.8h-6.4c18.2 92.2 132.4 224.1 295.8 265.6v-1.7C884.4 186.9 773 57.2 755-33.8z" clip-path="url(#d)" fill="#ff8b00"/><path d="M-13.9 163.2c115-29.2 195.4-122 208.2-186.9H-12.4l-1.5 186.9z" clip-path="url(#d)" fill="#5680f9"/><path d="M-34.7 163.2C66 134 136.4 41.2 147.6-23.7h-10C127 41.2 60.5 134-34.7 163.2zM91.9-23.7H81.7c-8.3 64.9-60 157.7-134 186.9C27.4 134 83 41.2 91.9-23.7z" clip-path="url(#d)" fill="#3d60f7"/><path d="M189.8-23.7h4.5C181.5 41.2 101.2 134-13.9 163.2V162C98.8 131.6 177.2 40.4 189.8-23.7z" clip-path="url(#d)" fill="#ffab00"/><g><path fill="#2a44a1" d="M648.5-12h3v27h-3z"/><path d="M728.5 61.1c0-26-35.5-56.8-79.3-56.8s-79.3 30.8-79.3 56.8h158.6" fill="#0052cc"/><path d="M648.1 4.4c-.9 0-1.8 0-2.7.1-23.5 1.7-42.2 31.5-42.2 56.7h88.6c0-25.8-19.5-56.3-43.7-56.8z" fill="#2a44a1"/><path d="M727.3 65.2c-6.5 7.2-40.5 12.2-76.8 12.2-36.4 0-71.2-4.9-79-12.2-9.6-8.9 23.6-17.7 76.3-17.7 52.8 0 87.5 8.8 79.5 17.7z" fill="#ffab00"/><path d="M727.3 62c-6.5 7.2-40.5 12.2-76.8 12.2-36.4 0-71.2-4.9-79-12.2-.5-.5-.9-1-1.2-1.5-.9 1.5-.5 3.1 1.2 4.7 7.8 7.2 42.7 12.2 79 12.2 36.4 0 70.3-4.9 76.8-12.2 1.3-1.4 1.5-2.8.7-4.2-.2.3-.4.7-.7 1z" fill="#ffc400"/><defs><path id="e" d="M727.3 65.2c-6.5 7.2-40.5 12.2-76.8 12.2-36.4 0-71.2-4.9-79-12.2-9.6-8.9 23.6-17.7 76.3-17.7 52.8 0 87.5 8.8 79.5 17.7z"/></defs><clipPath id="f"><use xlink:href="#e" overflow="visible"/></clipPath><path d="M685 52.8c-1.3 4-16.9 7-35.1 7s-34.3-3-36.2-7c-2.1-4.4 13.5-8.3 35-8.3s37.7 3.9 36.3 8.3z" clip-path="url(#f)" fill="#fff"/></g><g><path fill="#172b4d" d="M637.9 381.3h-77.3l5.3-31.1h67.2z"/><path fill="#fff" d="M635.7 379h-74.8l5-28.8h65.6z"/><g fill="#ffab00"><path d="M598.7 376.8h-2.6c-.4 0-.6-.2-.6-.3 0-.2.4-.3.7-.3 1.3 0 2.6.1 3.8 0 .4 0 .7.1.7.3 0 .2-.3.3-.6.3h-1.4zm5.4-.2c-.3 0-.6-.1-.6-.2-.1-.2.2-.3.5-.3 1.3-.1 2.5-.2 3.7-.4.3 0 .7 0 .8.2.1.2-.1.3-.4.4-1.3.2-2.6.3-3.9.4 0-.1-.1-.1-.1-.1zm-11.8-.1h-.1c-1.3-.1-2.6-.3-3.8-.5-.3-.1-.5-.2-.4-.4.1-.2.5-.2.8-.2 1.2.2 2.4.3 3.7.5.4 0 .6.2.5.3-.1.2-.4.3-.7.3zm19.2-.9c-.2 0-.5-.1-.6-.2-.2-.1 0-.3.3-.4 1.1-.2 2.3-.5 3.3-.8.3-.1.7 0 .9.1.2.1.1.3-.2.4-1.1.3-2.3.6-3.5.8 0 .1-.1.1-.2.1zm-26.5-.2h-.3c-1.2-.3-2.3-.6-3.4-.9-.3-.1-.4-.3-.1-.4.2-.1.6-.2.9-.1 1 .3 2.1.6 3.2.8.3.1.4.2.3.4-.1.1-.4.2-.6.2zm33.1-1.6c-.2 0-.4 0-.5-.1-.2-.1-.2-.3.1-.4 1-.3 1.9-.7 2.7-1.1.2-.1.6-.1.9 0 .3.1.3.3.1.4-.9.4-1.8.8-2.8 1.2h-.5zm-39.4-.3c-.2 0-.3 0-.4-.1-1-.4-1.9-.8-2.7-1.2-.2-.1-.2-.3.1-.4.3-.1.7-.1.9 0 .8.4 1.7.8 2.6 1.2.3.1.3.3 0 .4-.2.1-.3.1-.5.1zm44.5-2.1c-.1 0-.3 0-.4-.1-.3-.1-.4-.3-.2-.4.7-.4 1.3-.9 1.9-1.4.2-.1.5-.2.9-.1.3.1.4.2.3.4-.6.5-1.2 1-2 1.4-.1.1-.3.2-.5.2zm-49.4-.4c-.2 0-.4 0-.5-.1-.7-.5-1.3-1-1.8-1.4-.1-.1 0-.3.3-.4.3-.1.7 0 .8.1.5.5 1.1.9 1.7 1.4.2.1.1.3-.2.4h-.3zm52.8-2.5h-.2c-.3-.1-.5-.2-.4-.4.4-.5.7-1 1-1.5.1-.1.4-.2.7-.2.3 0 .6.2.5.3-.3.5-.6 1.1-1 1.6-.1.1-.3.2-.6.2zm-55.9-.4c-.3 0-.5-.1-.6-.2-.4-.5-.6-1-.8-1.6-.1-.1.2-.3.5-.3s.7.1.7.2c.2.5.5 1 .8 1.5.1.1-.1.3-.4.3 0 .1-.1.1-.2.1zm57.5-2.7c-.1 0-.1 0 0 0-.4 0-.7-.2-.7-.3.1-.5.1-1 0-1.5 0-.1.2-.3.6-.3.3 0 .6.1.7.3.1.5.1 1.1 0 1.6-.1.1-.3.2-.6.2zm-58.6-.4c-.3 0-.6-.1-.6-.2v-1.2c0-.1 0-.3.1-.4 0-.1.3-.3.7-.2.3 0 .6.1.6.3 0 .1-.1.3-.1.4-.1.4-.1.7 0 1.1-.1 0-.3.1-.7.2zm58.5-1.9c-.3 0-.6-.1-.6-.2-.1-.5-.3-1-.6-1.5-.1-.1.1-.3.5-.3.3 0 .7.1.7.2.3.5.5 1 .6 1.6 0 .1-.2.2-.6.2zm-57.8-1.2c-.1 0-.1 0 0 0-.4 0-.6-.2-.6-.3.3-.5.6-1 1.1-1.5.1-.1.5-.2.8-.2.3 0 .5.2.4.3-.4.5-.7 1-1 1.4-.2.2-.4.3-.7.3zm56.1-1.8c-.3 0-.5-.1-.6-.2-.4-.5-.9-.9-1.5-1.4-.2-.1 0-.3.3-.3.3-.1.7 0 .8.1.6.5 1.1.9 1.5 1.4.1.1 0 .3-.4.3 0 .1 0 .1-.1.1zm-53.6-1.1h-.2c-.3-.1-.4-.2-.3-.3.6-.5 1.2-.9 1.9-1.3.2-.1.6-.2.8-.1.3.1.3.2.2.3-.7.4-1.3.8-1.8 1.3-.2 0-.4.1-.6.1zm50.2-1.5c-.2 0-.4 0-.5-.1-.7-.4-1.4-.8-2.2-1.2-.2-.1-.2-.3 0-.3.2-.1.6-.1.8 0 .8.4 1.6.8 2.3 1.2.2.1.1.3-.2.3 0 0-.1.1-.2.1zm-46.2-1c-.1 0-.3 0-.4-.1-.2-.1-.3-.2-.1-.3.8-.4 1.7-.8 2.6-1.1.2-.1.6-.1.8 0 .2.1.2.2 0 .3-.9.3-1.7.7-2.5 1.1 0 0-.2.1-.4.1zm41.4-1.3c-.1 0-.3 0-.4-.1-.9-.3-1.8-.6-2.8-.9-.3-.1-.3-.2-.2-.3.2-.1.6-.1.8-.1 1 .3 2 .6 2.9.9.2.1.3.2.1.3 0 .2-.2.2-.4.2zm-36.1-.8c-.2 0-.4 0-.5-.1-.2-.1-.1-.3.1-.3 1-.3 2-.6 3.1-.8.3-.1.6 0 .8.1.2.1 0 .3-.2.3-1 .2-2 .5-3 .8h-.3zm30.3-.9h-.3c-1-.2-2.1-.4-3.2-.6-.3 0-.5-.2-.3-.3.1-.1.5-.2.8-.1l3.3.6c.3.1.4.2.3.3-.2.1-.4.1-.6.1zm-24-.5c-.2 0-.4-.1-.5-.1-.1-.1 0-.3.3-.3 1.1-.2 2.3-.3 3.4-.5.3 0 .6 0 .7.2.1.1-.1.3-.4.3-1.1.1-2.2.3-3.3.4h-.2zm17.4-.5h-.1c-1.1-.1-2.3-.2-3.4-.2-.3 0-.6-.1-.5-.3 0-.1.3-.2.7-.2 1.2.1 2.4.1 3.5.3.3 0 .5.2.4.3-.1.1-.4.1-.6.1zm-10.6-.2c-.3 0-.5-.1-.6-.2 0-.1.2-.2.5-.3 1.2-.1 2.4-.1 3.6-.1.3 0 .6.1.6.2s-.3.2-.6.2c-1.1.1-2.2.1-3.5.2.1 0 .1 0 0 0zM598.9 362.2c-1.3 0-2.6-.1-3.8-.3-.3-.1-.5-.2-.3-.3.1-.1.5-.2.8-.1 1 .2 2.2.3 3.3.3h.1c.3 0 .6.1.6.3 0 0-.3.1-.7.1zm3.7-.3c-.2 0-.5-.1-.6-.2-.1-.1 0-.3.3-.3 1.1-.2 2-.5 2.8-.8.2-.1.6-.1.9 0 .2.1.2.3 0 .4-.9.4-2 .7-3.2.9h-.2zm-10.2-.8c-.2 0-.3 0-.4-.1-.9-.4-1.6-.8-2.1-1.3-.1-.1 0-.3.3-.3.3-.1.7 0 .8.1.4.4 1.1.8 1.9 1.2.2.1.2.3 0 .4-.2-.1-.4 0-.5 0zm15.2-1.3h-.2c-.3-.1-.5-.2-.3-.3.4-.4.6-.9.6-1.4v-.1c0-.1.2-.2.6-.3.3 0 .6.1.6.2v.1c0 .5-.2 1.1-.7 1.5-.1.2-.4.3-.6.3zm-17.9-1.4c-.3 0-.6-.1-.6-.2v-.1c0-.5.3-1 .8-1.5.1-.1.5-.2.8-.1.3 0 .5.2.3.3-.4.4-.6.8-.7 1.3v.1c0 .1-.3.2-.6.2zm17.7-1.6c-.2 0-.5-.1-.6-.1-.5-.4-1.1-.8-2-1.1-.2-.1-.3-.2 0-.3.2-.1.6-.1.8 0 .9.4 1.7.8 2.2 1.3.1.1 0 .3-.3.3.1-.1 0-.1-.1-.1zm-15-1.1c-.1 0-.3 0-.4-.1-.2-.1-.2-.2 0-.3.9-.4 2-.7 3.1-.9.3-.1.7 0 .8.1.1.1 0 .3-.3.3-1 .2-2 .4-2.8.8-.1.1-.2.1-.4.1zm9.9-.9h-.2c-1-.2-2-.2-3.1-.2h-.2c-.3 0-.6-.1-.6-.2s.3-.2.6-.2h.2c1.2 0 2.4.1 3.5.3.3 0 .5.2.3.3h-.5z"/><path d="M617.4 374.1c-.3 0-.6-.1-.7-.3l-.5-1.7c0-.2.2-.3.6-.3.4 0 .7.1.7.2l.5 1.7c0 .2-.2.3-.6.4zm-37.2 0c-.4 0-.7-.2-.6-.3l.5-1.6c.1-.2.4-.3.7-.2.4 0 .6.2.5.3l-.5 1.6s-.3.2-.6.2zm1.1-3.4s-.1 0 0 0c-.4 0-.7-.2-.6-.3l.5-1.6c0-.1.4-.3.7-.2.3 0 .6.1.5.3l-.5 1.6c0 .1-.3.2-.6.2zm35 0c-.3 0-.6-.1-.7-.2l-.5-1.6c0-.1.2-.3.5-.3s.7.1.7.2l.5 1.6c.2.1 0 .3-.5.3.1 0 .1 0 0 0zm-33.9-3.2c-.1 0-.1 0 0 0-.4 0-.7-.1-.6-.3.2-.6.6-1.1 1.3-1.6.2-.1.6-.2.9-.1.3.1.4.2.2.4-.6.4-1 .9-1.2 1.4 0 .1-.3.2-.6.2zm32.9-.1c-.3 0-.6-.1-.6-.2-.2-.5-.5-1-1.2-1.4-.2-.1-.1-.3.2-.4.3-.1.7 0 .9.1.7.5 1.2 1 1.3 1.6.1.2-.1.3-.6.3.1 0 .1 0 0 0zm-29.2-2.6c-.2 0-.4 0-.5-.1-.2-.1-.1-.3.1-.4 1.1-.3 2.3-.6 3.6-.7.3 0 .7.1.7.2.1.1-.1.3-.5.3-1.1.1-2.2.3-3.2.6.1.1 0 .1-.2.1zm25.5 0c-.1 0-.3 0-.4-.1-1-.3-2-.5-3.2-.6-.3 0-.5-.2-.5-.3.1-.1.4-.2.7-.2 1.3.1 2.5.4 3.6.7.3.1.3.2.1.4 0 0-.2.1-.3.1zm-7.2-.8h-3.7c-.3 0-.6-.1-.6-.3 0-.1.3-.3.6-.3h3.7c.3 0 .6.1.6.3.1.2-.2.3-.6.3zm-7.4 0h-3.7c-.3 0-.6-.1-.6-.3 0-.1.3-.3.6-.3h3.7c.3 0 .6.1.6.3 0 .2-.3.3-.6.3z"/></g><g><path d="M751.7 374.4c-1.9-1.8 1-3.4 2.4-3.9 1.3-.4 2.7-.7 4.1-.8 1.3-.1 2.5-.1 3.8.3.7.2 1.2.3 1.9.2.7-.1.4-1.2-.3-1.1-1.2.2-2.7-.6-4-.6-1.8 0-3.8.4-5.5.9-2.3.7-5.9 3.3-3.1 5.8.5.5 1.2-.3.7-.8z" fill="#172b4d"/><path d="M729.9 400.6c1 2.1-4.8 3.8-13.1 3.8s-15.7-1.7-16.5-3.8c-.8-2.1 5.1-3.7 13.2-3.7 8-.1 15.4 1.6 16.4 3.7z" fill="#ffab00"/><path d="M762.5 391.6c-9.8 1.5-19.7 2.1-29.6 1.7-.7 0-.7 1.1 0 1.1 10 .4 20-.2 29.9-1.7.7-.2.4-1.2-.3-1.1z" fill="#172b4d"/><path d="M725 375.8c.3 3.2 3.4 6.3 5.7 8.4 2.6 2.4 5.7 4.3 8.9 5.7 4.1 1.7 8.5 2.7 12.9 3 4.1.3 8.4.4 12.3-.7 2.7-.7 7-2.4 7.3-5.7.3-3-2.2-5.8-4.6-7.2-3.5-2.1-7.7-2.2-11.5-3.2-1.9-.5-6-1.7-6.1-4.3-.1-3.9 5.6-3.5 8-3.1 4.3.7 8.5 2.6 12.9 1.8 2.2-.4 4.3-1.5 6.4-2.2 2.8-.9 5.7-.7 8.5.5.7.3 1.2-.7.6-1-3.3-1.5-6.8-1.6-10.2-.3-1.8.7-3.6 1.6-5.5 1.9-2.4.4-4.9 0-7.3-.6-3.5-.8-7.4-2.2-11-1.1-2.4.7-4.5 3.4-2.9 5.9 1.8 2.9 6.4 3.7 9.5 4.2 4 .8 8.9 1.5 11.3 5.4.6.9 1 2.1.9 3.1-.2 1.4-1.3 2.3-2.5 3.1-1.8 1.2-4 1.8-6.1 2.1-4.4.7-9.1.5-13.5-.2-4.8-.8-9.4-2.3-13.5-4.9-1.9-1.2-3.7-2.6-5.2-4.3-1.6-1.6-3.9-4.1-4.1-6.4-.2-.6-1.3-.6-1.2.1z" fill="#eec83f"/><path d="M700.2 400c-1.2-19.2.2-30.7 2.6-50.4l24.6.6c2.5 19.5 3.6 31.1 2.7 50.7l-29.9-.9z" fill="#ffab00"/><path d="M727.3 349.8c.8 1.4-4 2.5-10.8 2.5s-12.9-1.1-13.6-2.5c-.7-1.4 4.2-2.5 10.9-2.5 6.6.1 12.7 1.2 13.5 2.5z" fill="#172b4d"/><path d="M720.8 349.8c-.1 0-.1 0 0 0v-12.3l-11.4-.3v12.6c.3.6 3.2 1.2 6.3 1.2 3.2 0 5.4-.5 5.1-1.2z" fill="#2a44a1"/><path d="M712.9 350.9c.9.1 1.9.1 2.9.1 1.2 0 2.2-.1 3-.2v-13.3l-3.2-.2-2.7-.1v13.7z" fill="#0f3877"/><path d="M720.8 337.4c.4.6-1.9 1.1-5 1.1s-6-.5-6.3-1.1c-.3-.6 1.9-1.1 5-1.1s5.9.5 6.3 1.1z" fill="#172b4d"/><path d="M715.8 365.9c4.8-1.6 9.7-3.3 13.6-6.7 1-.9 2.7-2.5 1.4-3.9-1.2-1.4-4.2-.8-5.8-.6-.7.1-.4 1.2.3 1.1 1.1-.2 2.2-.3 3.3-.1 1.8.2 1.2 1.7.2 2.5-1.2 1.1-2.6 2.1-4.1 2.9-2.9 1.6-6.1 2.7-9.2 3.8-.7.2-.4 1.3.3 1zM728.3 365.8c.4-.2.8-.5 1.2-.7.3-.2.7-.5.8-.9.1-.4-.1-.8-.4-1-.4-.3-.8-.3-1.3-.3-.3 0-.6.2-.6.6 0 .3.3.6.6.6h.6v-.1l-.3.2c-.4.3-.8.5-1.2.7-.6.3 0 1.3.6.9zM706.3 356.8c-2.3.1-5-.2-6.4-2.2-1.4-2-.1-3.9-.2-6.1-.2-3.3-3.6-4-6.3-3.7-.7.1-.7 1.2 0 1.1 1.2-.1 2.4-.2 3.5.4 1.9.9 1.7 2.6 1.4 4.3-.3 1.4-.4 2.7.3 4 1.4 2.9 4.7 3.6 7.7 3.5.7-.3.7-1.4 0-1.3z" fill="#ffab00"/><path d="M715.4 364c2.7-.3 5.4-.7 8.1-1.3.7-.2.4-1.2-.3-1.1-2.6.6-5.1 1-7.8 1.2-.7.1-.7 1.3 0 1.2zM721.3 367c.5 0 .9 0 1.4-.1.3-.1.5-.4.4-.7-.1-.3-.4-.4-.7-.4-.4.1-.7.1-1.1.1-.7 0-.7 1.1 0 1.1zM701.2 396.5c2 .7 4 1.1 6 1.3.7.1.7-1 0-1.1-2-.2-3.9-.7-5.7-1.3-.7-.2-1 .9-.3 1.1zM701.3 394.4l1.2.3c.3.1.6-.1.7-.4.1-.3-.1-.6-.4-.7l-1.2-.3c-.3-.1-.6.1-.7.4-.1.3.1.6.4.7zM721.4 390.8c2.7.2 5.7-.9 8.2-1.6.7-.2.4-1.3-.3-1.1-2.4.7-5.4 1.7-7.9 1.6-.7-.1-.7 1.1 0 1.1zM726.7 387.8c.6-.1 1.2-.3 1.8-.5.3-.1.3-.5.2-.8-.2-.3-.5-.3-.8-.2-.5.2-1 .3-1.5.4-.3 0-.5.4-.4.7.1.3.4.4.7.4z" fill="#ffe380"/></g><g><path d="M502.4 391.4c.3-18-.9-28.7-4-45.1h-23.7c-2.7 16.7-4.3 27.5-4.1 45.6-.9 1.7 5.5 3.2 14.4 3.2s16.7-1.4 17.4-3.2c.1-.1.1-.3 0-.5z" fill="#57d9a3"/><path d="M494 365.1c1.4 0 2.7 0 4.1.1.8.1 1.7 0 2.4.3 1.2.5 2.1 2 .9 2.9-2.2 1.5-4.7 2.8-7.1 3.9-.7.3-.1 1.3.6 1 2.2-1 4.3-2.1 6.4-3.4 1.2-.7 2.6-1.5 2.3-3.1-.6-3.4-7-2.8-9.4-2.8-.9 0-.9 1.1-.2 1.1zM472.1 376c-.3 1.1-.6 2.4-1.6 3.1-1 .8-2.4.6-3.6.9-1.7.3-3.4 1.1-4.5 2.5s-1.3 2.9-1.1 4.6c.2 1.5.4 2.7-.8 3.9-1 1-2.4 1.4-3.8 1.7-.7.2-.4 1.2.3 1.1 1.9-.4 3.9-1.1 5-2.8 1.4-2.2-.5-4.7.7-6.9.8-1.5 2.3-2.4 3.9-2.8 1.2-.3 2.5-.2 3.6-.6 1.8-.7 2.4-2.5 2.9-4.3.3-.8-.8-1.1-1-.4z" fill="#79f2c0"/><path d="M531.3 350.1H511c-1.3 15.6-2.1 26.1 0 42.8h.2c1.7 2.4 17 2.4 20.2 0 .9-16.2 1.3-26-.1-42.8z" fill="#bed2fb"/><path d="M498.4 346.3c-.5 1.1-6.3 1.9-12.9 1.9s-11.4-.9-10.7-1.9c.7-1 6.4-1.9 12.9-1.9s11.2.9 10.7 1.9z" fill="#172b4d"/><path d="M492.8 346.2v-7.6l-12.5.2v7.5c-.3.6 2.2 1 5.7 1s6.5-.5 6.8-1v-.1z" fill="#2a44a1"/><path d="M488.3 338.7l-4.9.3v8.3c.8.1 1.6.1 2.6.1 1.4 0 2.8-.1 3.9-.2v-8.5h-1.6z" fill="#0f3877"/><path d="M492.8 338.6c-.3.5-3.4 1-6.8 1s-6-.4-5.7-1c.3-.5 3.4-1 6.8-1s6 .4 5.7 1zM531.3 349.9c-.4 1.1-5.3 2-10.9 2s-9.8-.9-9.4-2c.5-1.1 5.4-1.9 10.9-1.9 5.6 0 9.8.8 9.4 1.9z" fill="#172b4d"/><path d="M527 349.8v-8l-11.7.2v7.9c-.3.6 2.2 1.1 5.4 1.1s6.1-.5 6.3-1.1v-.1z" fill="#2a44a1"/><path d="M523.6 341.8l-5.9.2v8.8c.8.1 1.9.2 3 .2 1.7 0 3.3-.1 4.5-.4v-8.9l-1.6.1z" fill="#0f3877"/><path d="M527 341.9c-.2.6-3 1.1-6.3 1.1-3.2 0-5.7-.5-5.4-1.1.3-.6 3.1-1.1 6.3-1.1s5.6.5 5.4 1.1z" fill="#172b4d"/><path d="M528 382.6c1.6.9 3.4 1 5.2 1.2 1.2.2 2.4.4 3.3 1.4.9 1 1.1 2.3 1.6 3.5 1.2 3.3 3.9 5.5 7.5 6 .7.1.7-1 0-1.1-2.3-.3-4.5-1.6-5.7-3.6-.9-1.6-1.1-3.5-2.2-5-2.1-3.1-6.2-1.6-9.1-3.3-.6-.4-1.2.6-.6.9z" fill="#bed2fb"/><path d="M487 353.6c3.8 0 7.6-.3 11.3-1 .7-.1.4-1.2-.3-1.1-3.6.7-7.3 1-11 1-.7 0-.7 1.1 0 1.1zM491.8 356.2c1.5 0 3-.1 4.6-.4.7-.1.4-1.2-.3-1.1-1.4.3-2.8.4-4.3.4-.7 0-.7 1.1 0 1.1zM487.6 378.4c3.8-.2 7.6-.6 11.4-1.1.7-.1.4-1.2-.3-1.1-3.7.5-7.4.9-11.1 1.1-.7 0-.7 1.1 0 1.1zM493.6 379.9c1-.1 2.1-.2 3.1-.4.7-.1.7-1.2 0-1.1-1 .1-2.1.2-3.1.4-.7.1-.7 1.2 0 1.1zM490.8 383.6c3.2-.4 6.3-.9 9.4-1.6.7-.2.4-1.2-.3-1.1-3 .7-6 1.2-9.1 1.5-.7.2-.7 1.3 0 1.2zM497.1 384.9c.4-.1.7-.1 1.1-.2.3 0 .5-.4.4-.7-.1-.3-.4-.4-.7-.4-.4.1-.7.1-1.1.2-.3 0-.5.4-.4.7.1.3.4.4.7.4zM498.9 386.7c.4 0 .9-.1 1.3-.2.7-.2.4-1.3-.3-1.1-.3.1-.6.1-1 .1-.7.1-.7 1.2 0 1.2z" fill="#79f2c0"/><path d="M524.5 355c1.4 0 2.9-.1 4.3-.5.7-.2.4-1.3-.3-1.1-1.3.3-2.6.5-4 .4-.8 0-.8 1.2 0 1.2zM526.3 357.6c.6 0 1.1 0 1.7-.1.3 0 .5-.4.4-.7-.1-.3-.4-.4-.7-.4-.5.1-.9.1-1.4.1-.7 0-.7 1.1 0 1.1zM521.9 367.8c3.1 0 6.2-.2 9.3-.7.7-.1.4-1.2-.3-1.1-3 .4-6 .7-9 .7-.8 0-.8 1.1 0 1.1zM527.6 369.5c.8-.1 1.5-.1 2.3-.2.7 0 .7-1.2 0-1.1-.8.1-1.5.1-2.3.2-.7 0-.7 1.1 0 1.1zM529.8 371.3c.1 0 .2 0 .3-.1.3-.1.5-.4.4-.7-.1-.3-.4-.5-.7-.4-.1 0-.2 0-.3.1-.3.1-.5.4-.4.7.1.3.4.5.7.4zM526.1 389.3c.4-.1.8-.2 1.3-.2.3-.1.5-.4.4-.7-.1-.3-.4-.4-.7-.4-.4.1-.8.2-1.3.2-.3.1-.5.4-.4.7.1.3.4.4.7.4z" fill="#e2ebfd"/><path d="M472.2 385.3c.6.3 1.2.4 1.8.2.7-.2.4-1.3-.3-1.1-.3.1-.7 0-.9-.1-.7-.3-1.2.7-.6 1zM473 377.6c.5-1.4 1.2-3 2.7-3.6.7-.2.4-1.3-.3-1.1-1.9.7-2.9 2.5-3.5 4.4-.2.7.9 1 1.1.3zM473.9 360.3c1.7.5 3.5.7 5.3.5.7-.1.7-1.2 0-1.1-1.7.1-3.4 0-5-.5-.7-.2-1 .9-.3 1.1zM474.4 357.3c.7.1 1.4.1 2.1-.1.7-.2.4-1.3-.3-1.1-.5.1-1 .2-1.5.1-.3 0-.6.1-.7.4 0 .3.1.7.4.7z" fill="#79f2c0"/><path d="M511.3 359c1.3.2 2.7.4 4 .5.7 0 .7-1.1 0-1.1-1.2-.1-2.5-.2-3.7-.4-.7-.2-1 .9-.3 1zM511.4 361.3c.3.1.5.1.8.1.3 0 .6-.2.6-.6 0-.3-.2-.6-.6-.6h-.5c-.3-.1-.6.1-.7.4-.1.3.1.6.4.7zM511.6 383.8c.8.2 1.7.4 2.5.4.7.1.7-1.1 0-1.1-.8-.1-1.5-.2-2.3-.4-.6-.2-.9.9-.2 1.1zM511.9 386.1c.3 0 .7 0 1-.1.3-.1.5-.4.4-.7-.1-.3-.4-.5-.7-.4-.2.1-.5.1-.7 0-.3 0-.6.3-.6.6.1.4.3.6.6.6z" fill="#e2ebfd"/></g></g></g></svg>