<svg xmlns="http://www.w3.org/2000/svg" viewBox="0 0 250 250"><path fill="#ed1c24" d="M175.3 164.1h-5l2.5-8h4.9zM194.5 148.4h-28.8c-1.3 0-2.3-1-2.3-2.3v-9.3c0-1.3 1-2.3 2.3-2.3h28.8c1.3 0 2.3 1 2.3 2.3v9.3c0 1.2-1.1 2.3-2.3 2.3z"/><path d="M170.7 45.7c-2.4-6-7.4-10.1-12.1-11.2-3.2-.8-9-.5-13 1-2.6 1-4.9 2.6-6.8 4.6-.1.3-.2.7-.3 1-3.6 11.9 1.7 17.7-.4 23.4-1.5 4-4.8 5.6-18.1 13.4l-15-2.4c-22.2 10.6-40.4 36.4-40.8 76.2h55.9c-.3-1-.5-2-.8-3.2-3.6-18.9 7.1-30 13.3-42 3.7-7.2 6-15.9 3.1-23.3 2-1.5 4.1-2.9 6.1-4.2 1.5 2.6 3.2 4.2 5.5 6.4.5.5 1.1 1.1 1.8 1.4 1.4.6 3.1 0 3.8-1.3.2-.4.6-1.5 1.4-1.4.5.1.8.7 1.4.9.6.2 1.2-.2 1.5-.7.3-.5.3-1.2.3-1.8.7.1 1.6.2 2.1-.3.7-.7.2-1.8.8-4 .5.3 1.1.6 1.7.6.8.1 1.7-.2 2.1-.9.7-1.2-.3-2.6.4-6.1.6-2.8 1.8-3.1 3.9-4.8 2.5-2 3.9-5.1 4.4-8.2.4-4.3-.6-9-2.2-13.1z" fill="#911a1d"/><path d="M137.9 64.4c2.1-5.7-3.2-11.5.4-23.4.1-.3.2-.7.3-1-2.3 2.4-4 5.5-4.8 8.7-.9 3.8-.8 7.8-2.2 11.4-.9 2.4-2.5 4.4-4.4 6.1-5.2 3.8-11.9 5.2-18.1 7.5-1.5.6-2.9 1.2-4.4 1.9l14.9 2.3c13.5-7.9 16.8-9.5 18.3-13.5z" fill="#321216"/><path d="M149.6 188c-5.4-7.6-10.8-15.3-17.8-21.5-5.4-4.8-9.5-7.3-11.7-14.8H95.4c-7.4 9-19 17-8.7 22.3 6 3.1 13 3.3 19.7 4.1 7.5.9 15 2.5 21.6 6.2 7.4 4.1 11.9 9.8 13.9 14.4 1.9.4 3.6.6 5.1.4 2.2-.2 4.4-1.5 5.1-3.6.7-2.6-.9-5.3-2.5-7.5z" fill="#f37473"/><path d="M127.9 184.3c-6.6-3.6-14.1-5.3-21.6-6.2-6.7-.8-13.7-1-19.7-4.1-10.3-5.3 1.4-13.3 8.7-22.3H64.2v1.6c0 5.8 1.6 15.2 4.8 20 10 15.2 33.4 11.8 51.4 17.9 7.7 2.6 15.4 6.1 21.4 7.3-2.1-4.4-6.5-10.2-13.9-14.2z" fill="#ed1c24"/><path d="M95.7 151.3c-1.6 2-3.4 3.9-5.2 5.8h31.9c-1.4-2.2-2.4-4.8-3.1-8.5-.4-1.9-.6-3.8-.7-5.6h-18.1c-.8 2.5-2.3 5.2-4.8 8.3zM97.3 125.2c.5 1.3 1.2 2.7 1.8 4.1h21.6c.1-.2.1-.4.2-.7-6.9.5-13.7-4-14.3-13.5H95.4c.1 3.6.8 7.1 1.9 10.1zM86.6 174c3.6 1.9 7.6 2.7 11.7 3.2 3.9-1.9 7.6-4 11.2-6.4H83c.6 1.2 1.8 2.3 3.6 3.2zM115.3 87.2h-7.6c-4.5 4.5-7.6 9.4-9.6 14.1h10.6c1.2-4.2 2.8-8.4 4.6-11.4.6-.9 1.2-1.8 2-2.7z" fill="#ed1473"/><path d="M100.5 143h18.1c-.3-5.1.6-9.6 2-13.7H99.1c1.7 3.8 3.3 8 1.4 13.7zM124.5 80.9c3.9-1.1 8.4-.4 11.6 2.1.6-.4 1.2-.8 1.8-1.3-3-2.5-7-3.4-10.9-3.8-2.1-.2-4.3-.3-6.4-.5-5.2 3-9.5 6.4-12.9 9.9h7.6c2.4-3 5.5-5.3 9.2-6.4zM95.4 115.1h11.2v-.8c-.1-3.1.7-8.1 2.1-13H98.1c-2 4.8-2.8 9.5-2.7 13.8zM83 170.8h26.4c.6-.4 1.2-.8 1.8-1.3 4.5-3.2 8.9-6.9 11.7-11.7-.2-.3-.3-.5-.5-.8H90.6c-4.9 5.3-9.4 10-7.6 13.8z" fill="#f19c9b"/><g><path d="M66.5 129.2h32.6c-.6-1.4-1.3-2.7-1.8-4.1-1.2-3-1.8-6.4-1.9-10.1H70.6c-1.7 4.5-3.1 9.2-4.1 14.2zM64.2 149.8v7.3h26.3c1.8-1.9 3.6-3.8 5.2-5.8 2.5-3.1 4-5.8 4.8-8.3h-36c-.1 2.2-.2 4.5-.3 6.8zM88.3 87.2c-4.1 4-7.9 8.7-11.2 14.1H98c1.9-4.8 5.1-9.6 9.6-14.1H88.3zM64.2 185.9s2.7 1.7 17.8-2.7c.1 0 .2.1.3.1 3.9-1.1 7.6-2.4 11.3-4 1.5-.7 3.1-1.3 4.6-2.1-4.1-.5-8-1.4-11.7-3.2-1.9-1-3-2-3.6-3.2H64.2v15.1z" fill="#610b15"/><path d="M120.6 77.4c-2-.2-4.1-.5-6-1.2-1.7-.6-3.4-1.5-4.8-2.7-.1.1-.3.1-.4.2-7.5 2.9-14.7 7.4-21 13.6h19.3c3.4-3.5 7.6-6.9 12.9-9.9zM64.6 143h36c1.9-5.6.3-9.9-1.4-13.7H66.5c-.9 4.3-1.5 8.9-1.9 13.7zM64.2 170.8H83c-1.9-3.8 2.6-8.5 7.5-13.7H64.2v13.7zM70.6 115.1h24.9c-.1-4.3.7-9 2.6-13.7H77.2c-2.6 4.2-4.8 8.7-6.6 13.7z" fill="#ed1473"/></g><g><path d="M62.4 178.2c6.1 2.3 8.9 4.1 10.9 5 3.4 1.4 6 1.3 13.6 2.8 4.9.9 9.8 1.9 14.6 2.8l-14.3 9.8c0 .3.7-.2-.1-.4-9.3-2.3-19.3-1.8-28.4 1.4-5.7 2-6.5 3.7-10.2 6.8-4.4 3.7-7.4 3.9-12.3 1.9" fill="#321216"/></g><g><path d="M61.9 177.8c.8.1 1.4.9 1.6 1.7.1.8-.1 1.6-.4 2.4-2 4.9-6.5 8.1-9.6 12.3-2.7 3.8-4.3 8.5-7.8 11.6-1.7 1.5-5.1 3.5-7.4 3.4-1.3-.1-2.7-.8-3.1-2.1-.3-1 0-2.1.5-3.1 2-4.3 5.7-7.5 9.4-10.4 3.5-2.8 6.2-4.6 11.2-11.9.7-1 1.4-2.1 2.4-2.8s2-1.3 3.2-1.1" fill="#911a1d"/></g><g><path d="M101 200.2c7.8.4 15.9-1.7 23.3.6 4.8 1.5 8.9 4.7 13.6 6.7 4.7 1.9 10.1 2.1 13.5-1.6 2-3.3 2.6-7.3 1.3-11.4l-.7-2-22-3.8-31.8-.8V200c.9.1 1.9.2 2.8.2z" fill="#f37473"/><path d="M80.3 198.4c3.1-1.5 11.1.7 17.8 1.6v-12.1l-21.4-.5c-2.8-.2-7.2 0-11.5 1.8l8.2 31.3 4.9 1c-.6-1.8-1.2-3.6-1.7-5.4-2.6-10.3.9-16.3 3.7-17.7z" fill="#610b15"/><path d="M137.8 207.5c-4.7-1.9-8.7-5.2-13.6-6.7-7.5-2.3-15.5-.1-23.3-.6-.9-.1-1.8-.1-2.8-.3v5.7l38.8 6.8c6.1 1.1 11.6-1.9 14.4-6.6-3.4 3.8-8.8 3.7-13.5 1.7z" fill="#ed1c24"/><path d="M89.8 221.1c1.7-3.3-4-6.1-6.3-9.8-1.9-3.1-1.3-5.9-.8-8.3l15.5 2.7V200c-6.8-.9-14.7-3.1-17.8-1.6-2.8 1.4-6.4 7.4-3.7 17.7.5 1.8 1.1 3.6 1.7 5.4l6.6 1.4c1.8 0 3.9 0 4.8-1.8z" fill="#321216"/></g><g><path d="M76.7 203.1c-.8-3.4-1.1-7-1.2-10.6 0-1.4-.1-2.8-.8-4-.3-.5-.7-.9-1.1-1.2-2.5.1-5.5.6-8.4 1.8l8.2 31.3 4.9 1c-.6-1.8-1.2-3.6-1.7-5.4-1.4-5.5-1-9.9.1-12.9z" fill="#ed1c24"/><path d="M89.8 221.1c1.3-2.6-2-4.9-4.5-7.6-.9.6-2.3.6-3.3 0-1.1-.6-1.8-1.7-2.4-2.8-1.4-2.4-2.3-5-2.9-7.6-1.1 3-1.5 7.4-.1 12.9.5 1.8 1.1 3.6 1.7 5.4l6.6 1.4c1.9.1 4 .1 4.9-1.7z" fill="#610b15"/></g><g><path d="M87.7 223c-5-.8-9.6-4.5-12.6-8.6-4.2-5.8-4.9-13.4-6.6-20.4-.3-1.3-1.8-6.3-4-4.2-.4.4-.6 1-.8 1.7-.8 4.3 1.2 8.6 2.3 12.9 1.8 7.1 1.2 16.1 5.9 18.4 1.3.6 2.9.6 4.3.6 3-.2 8.6-.2 11.5-.4z" fill="#f19c9b"/></g><g><path d="M173.5 157.1c-45.3-7-44.4-6.5-46-7.9-1.5-1.2-1.9-3.4-2.1-5.3-1.8-14.1-3.3-28.2-4.4-42.3-.3-3.7-.5-7.5.4-11 .9-3.3 3-6.5 6.1-7.9-8.2.6-12.5 10.1-12.3 19.9 0 2 3.1 24.5 6.9 45.6.6 3.1 1.2 4.7 4.5 6 9 3.7 11 2.6 42 4.3 2.9.4 5.7 1.3 8.6 1.5 2 .1 2.8-.7 4-2.6.1-.1.1-.2.2-.4-2.6.8-5.2.5-7.9.1z" fill="#321216"/><path d="M189 147.3c-1.4-1.2-7.4-2.6-12.7-2.3-4.4.3-6.3 3.3-9.6 2.7-4.8-1.1-13.7-2.3-28.8-8.2-.9-.4-.9-.5-.9-1.4V95c0-7.2-1.8-10.9-5.2-11.8-1.6-.4-3-.6-4.4-.5-3.1 1.4-5.2 4.6-6.1 7.9-.9 3.6-.7 7.4-.4 11 1.1 14.1 2.5 28.3 4.4 42.3.3 1.9.6 4.1 2.1 5.3 1.7 1.4.7.9 46 7.9 2.7.4 5.4.7 7.9-.1 1.2-2 2.4-4.1 3.5-6.3 2.3-.5 4.4-.2 4.8-1.6.3-.6-.1-1.4-.6-1.8z" fill="#911a1d"/></g><g><path d="M138.9 36.1c-.1-.5.5-1.2.6-1.8 0-.5-.5-1.2-.4-1.8.1-.5 1-.9 1.2-1.5.2-.5-.3-1.3 0-1.9.2-.5 1.1-.8 1.4-1.3.3-.5-.1-1.4.2-1.9.3-.5 1.2-.7 1.5-1.2.3-.5 0-1.4.3-1.9s1.2-.6 1.6-1.1c.4-.5.2-1.4.5-1.8.4-.5 1.3-.5 1.7-.8.5-.5.5-1.4.9-1.7.5-.3 1.4 0 2-.3.6-.3.9-1.1 1.5-1.3.6-.2 1.3.4 2 .3.6-.1 1.2-.8 1.8-.8.6 0 1.2.7 1.8.8.6.1 1.4-.5 1.9-.3.6.2 1 1 1.5 1.2.6.2 1.4-.1 2 .2.5.3.7 1.2 1.2 1.6.5.4 1.4.3 1.8.8.4.5.2 1.4.5 1.9s1.2.9 1.3 1.4c.1.4-.5.8-.5 1.2 0 .4.7.7.7 1.1 0 .4-.7.7-.8 1-.1.4.6.9.5 1.2-.1.4-.9.5-1 .9-.1.3.4.9.3 1.3-.1.3-.9.4-1.1.7-.2.3.3 1 .1 1.3-.2.3-1 .3-1.2.5-.2.3.1 1-.1 1.3-.2.3-1 .1-1.3.4-.3.3-.1 1-.3 1.3-.4.3-1.2.1-1.6.4-.4.3-.3 1.2-.7 1.5-.4.3-1.2 0-1.6.3-.4.3-.4 1.1-.8 1.4-.4.3-1.2-.1-1.6.1-.4.2-.6 1-1.1 1.2-.5.2-1.1-.4-1.6-.3-.5.1-.9.8-1.4.9-.5 0-.9-.7-1.4-.8-.5-.1-1.1.5-1.6.3-.4-.1-.6-1-1.1-1.2-.4-.2-1.2.1-1.6-.2" fill="#610b15"/><path d="M161.2 35.4c-3-1.9-6.8-3.1-8.9-5.9-4.3-5.8.4-13 3.7-14.1-.2-.1-.4-.2-.6-.2-.6 0-1.2.7-1.8.8-.6.1-1.4-.5-2-.3-.6.2-.9 1-1.5 1.3-.6.3-1.4 0-2 .3-.4.3-.4 1.2-.9 1.7-.4.4-1.3.4-1.7.8-.4.4-.2 1.3-.5 1.8s-1.2.6-1.6 1.1c-.3.5 0 1.4-.3 1.9s-1.2.7-1.5 1.2c-.3.5.1 1.4-.2 1.9-.3.5-1.1.8-1.4 1.3-.2.6.2 1.4 0 1.9-.2.6-1 1-1.2 1.5-.1.6.4 1.3.4 1.8 0 .7-.7 1.3-.6 1.8l8 2.5c.4.3 1.2-.1 1.6.2.5.2.6 1.1 1.1 1.2.5.2 1.1-.4 1.6-.3.2 0 .5.2.7.4 3.2-1.2 6.4-2.6 9.3-4.4.2-.1.3-.1.3-.2z" fill="#321216"/><path d="M170.7 45.7c-2.4-6-7.4-10.1-12.1-11.2-3.2-.8-9-.5-13 1-2.6 1-4.9 2.6-6.8 4.6-.1.3-.2.7-.3 1-2.6 8.5-.6 13.8-.1 18.3 1.3-1.1 2.5-2.4 3.3-3.9.6-1.2 1.1-2.6 2.1-3.5 1-1 2.7-1.4 3.7-.4 1.2 1.2.3 3.3 1.2 4.7 4.9-3.9 12.1-2.2 17.5-2.5 2.2-.1 4.4-.5 6.5-1.1-.4-2.5-1.1-4.8-2-7z" fill="#610b15"/><path d="M138.4 41c.1-.3.2-.7.3-1-2.3 2.4-4 5.5-4.8 8.7-.9 3.8-.8 7.8-2.2 11.4-.4 1-.9 1.9-1.5 2.8 1.3-.3 2.6-.6 3.8-1.1 1.5-.6 3-1.5 4.2-2.5-.5-4.5-2.4-9.8.2-18.3z" fill="#321216"/><path d="M147.6 52.4c-.3-1.1-1.2-2.2-2.4-2.3-1.2-.1-2.3.8-2.9 1.9-1.3 2.5-.5 5.6.1 9.8.1.4.1.7.3 1.1.5.8 1.9.9 2.5.2" fill="#911a1d"/><circle cx="140.4" cy="70.3" r="8.7" fill="none" stroke="#f2684d" stroke-width=".679" stroke-miterlimit="10"/><g><path d="M170.9 42.5c-.1-.5-1-.7-1.3-1.3-.2-.4.1-1.3-.2-1.8-.5-.7-1.7-.9-2.2-1.5-.6-.6-.6-1.8-1.2-2.4-.6-.6-1.8-.6-2.4-1.1-.5-.4-.8-1.2-1.2-1.8-2.9-.3-6.6-1-9.7-1-4.4-.1-9.2 1.1-11.9 4.6-1.1 1.4-1.8 3-2.3 4.7-.9 2.8-1.2 5.3-1.3 7.5.6.2 1.5 0 2.1.3.7.3 1.1 1.3 1.8 1.6.7.3 1.7-.2 2.5.1.7.2 1.3 1.2 2 1.4.7.2 1.7-.4 2.4-.2.8.2 1.4 1 2.2 1.2.8.1 1.6-.6 2.4-.5.8.1 1.5.9 2.3.9.8 0 1.5-.8 2.3-.8.8-.1 1.6.6 2.4.5.4-.1.8-.9 1.4-1.1.5-.1 1.2.4 1.8.2.5-.2.7-1.1 1.2-1.3.5-.2 1.3.2 1.8 0 .5-.3.5-1.2 1-1.5.5-.3 1.4 0 1.8-.4.4-.4.2-1.3.6-1.7.3-.4 1.3-.5 1.5-1 .2-.5-.4-1.2-.3-1.8-.1-.7.7-1.2.5-1.8z" fill="#610b15"/><path d="M140.6 36.3c2.7-3.5 7.5-4.7 11.9-4.6 3.2.1 6.8.7 9.7 1-.1-.1-.2-.3-.4-.4-.7-.5-1.9-.3-2.6-.7-.8-.4-1.2-1.5-1.9-1.8-.8-.4-1.9 0-2.7-.3-.8-.3-1.4-1.3-2.2-1.5-.8-.2-1.9.3-2.7.2-.9-.2-1.6-1-2.4-1.1-.9-.1-1.8.7-2.6.7-.9 0-1.9-.6-2.6-.5-.6.1-1 1-1.6 1.3-.6.2-1.5-.2-2 .1-.6.3-.7 1.3-1.2 1.7-.5.4-1.5.2-1.9.6-.5.4-.3 1.4-.7 1.9-.4.5-1.4.6-1.7 1.1-.3.5 0 1.5-.2 2-.3.6-1.2.9-1.4 1.5-.2.6.4 1.4.4 2-.1.7-.9 1.3-.8 1.9.1.7 1 1.1 1.2 1.6.3.6.1 1.5.5 2l.3.5c.4.5 1.5.5 2.2 1 .6.4.8 1.5 1.5 1.9.1.1.2.1.3.1.1-2.2.4-4.7 1.3-7.5.6-1.7 1.2-3.3 2.3-4.7z" fill="#321216"/></g></g><g><path d="M172.6 49l-1.2-4.7c-10.6-1.5-21.5-1.8-33.7-.6-1.4 6.7 0 11.4.6 15.2 16.2 1.7 24.9-3.3 34.3-9.9z" fill="#db98c3"/><path d="M137.7 43.6c-1.8.2-3.6.4-5.5.6l.2 13.8c2.1.4 4 .7 5.9.9-.6-3.9-2.1-8.5-.6-15.3z" fill="#ed1473"/></g><path d="M170.4 45.3c.1-.7.1-1.3.4-1.9.7-1.8 2.7-2.2 4.5.1.7.9 1.9 3 1.6 3.9-.1.3-.3.5-.5.8-.8.9-1.7 1.9-2.9 1.9-.5 0-1-.2-1.4-.5-.6-.4-1.2-.8-1.3-1.5" fill="#db98c3"/></svg>