<svg xmlns="http://www.w3.org/2000/svg" viewBox="0 0 250 250"><path d="M64.2 176.9c0 3.1.5 5.9 1 6.2.6.3 1.1-2 1.1-5.2s-.5-6-1.1-6.2c-.6-.2-1 2.1-1 5.2z" opacity=".43" fill="#c12026"/><path d="M118.8 110c-2.4 18.5-4.7 37-7.1 55.5-1.3 10.5-1 10.6 1.9 42.2.3 3.3 1.3 7.4 4.6 7.9 1.7.3 3.3-.6 4.4-1.9s1.7-2.9 2.2-4.5c4.8-15 3.1-28.2 5.1-37.2.7-3.3 1.9-6.5 3.2-9.6 12.1-30.1 19.8-37.3 22.3-48.5 1.4-6.1.6-13.1-3.6-17.8-3.8-4.2-10-5.9-15.7-4.9-8.4 1.4-15.6 8.6-16.9 17.1" fill="#610b15"/><path fill="#610b15" d="M114.3 102.8h9.9v8.9h-9.9z"/><path d="M206.2 210.2c-.6-2.6-1.3-5.3-1.9-7.9-1.4.7-2.9 1.4-4.3 2-1.5.6-3 1.2-4.5 1.7 2.6 4.6 4.1 8.8 2.4 12.7 0 .1-.1.1-.1.2.3.2.7.4 1 .7.4.3.8.5 1.3.6.6.1 1.2-.1 1.8-.3 1.1-.4 2.4-.7 3.1-1.7 1.3-1.5.9-3.9 1.1-5.9 0-.5.1-1 .3-1.4 0-.1-.1-.4-.2-.7z" fill="#f2c9be"/><path d="M195.5 206.1c-3.2 1.1-6.5 1.8-9.8 1.8.9 2.3 1.7 4.9 2.6 7.4 0 .3 0 .6-.1.9 1.6-.7 3.6-.5 5.3.2 1.5.6 2.9 1.6 4.3 2.5 0-.1.1-.1.1-.2 1.7-3.8.2-8-2.4-12.6z" fill="#f37473"/><path d="M70.1 55.2c-3.8 3.8-7 8.2-9.4 12.9-2.9 5.7-3.6 9.7.7 19.1 6.4 14.2 15 27.4 23.5 40.5.9 1.5 2 3 3.5 3.7 4 1.9 9.4-1.6 8.9-8.7-.5-7.8-14-35.7-21.4-59.1-1.1-3.3-2.2-8.8-5.8-8.4" fill="#f2c9be"/><path d="M102 49.6c4.3 2.4 9.5 1.9 14.3 2.3 17.6 1.2 33.7 14.4 38.4 31.4 1.2 4.5 1.8 9.2 4 13.3.3.5.6 1 .9 1.4 10.5-5 16.6-11.8 22.6-22.1-2.9-7.3-7.8-13.8-12.8-19.9-8-9.8-16.9-19.3-27.9-25.6-11-6.3-24.5-9.1-36.6-5.1-7.6 2.5-15.6 7.7-22.9 4.3l-2.7 6.6c3.6.4 7.3.7 10.4 2.4 4.9 2.6 7.5 8.3 12.3 11z" fill="#db98c3"/><path d="M68.8 72.2C71 79 75.9 84.6 81.2 89.4c9.4 8.7 24.8 12 36.6 17 1.1.5 2.2.9 3.2 1.3 2.8 0 5.6-.5 8.4-1 13.2-2.5 22.7-5.2 30.1-8.7-.3-.5-.6-.9-.9-1.4-2.2-4.1-2.8-8.8-4-13.3-4.7-17-20.8-30.2-38.4-31.4-4.9-.3-10.1.1-14.3-2.3-4.8-2.7-7.4-8.3-12.2-11-3.1-1.7-6.8-2-10.4-2.4l-6.6 16.3c-5.2 4.7-6.1 13-3.9 19.7z" fill="#ed1473"/><path d="M204.3 202.3c-3.9-15.8-8.4-31.5-15.9-45.9-2.3-4.6-5-9-6.2-14-4.1-16.6 7.7-42.1 1.1-63.4-.3-1.1-.7-2.2-1.2-3.2-6 10.3-12.1 17.1-22.6 22.1 4.1 6.1 11.4 10.1 13.5 17.2 1.9 6.3-1.1 12.9-3.7 18.9-10.3 23.7 6.5 23 11.4 33.3 1.8 3.9 1.4 8.4 1.9 12.6 1.2 10 8.5 18.6 12.8 26.1 1.5-.5 3-1.1 4.5-1.7 1.5-.6 3-1.3 4.4-2z" fill="#ed1c24"/><path d="M180.8 167.3c-4.9-10.3-21.7-9.6-11.4-33.3 2.6-6 5.5-12.6 3.7-18.9-2.1-7.1-9.4-11.1-13.5-17.2-7.4 3.6-16.9 6.2-30.1 8.7-2.8.5-5.6 1-8.4 1 12.8 4.8 17.9 2.9 28.5 6 4.2 1.2 3.8 9.1 4.3 12.6 3.4 21 5.6 28.5 20.9 58.7 3.5 7 7 13.9 10.1 21.1.3.6.5 1.2.7 1.8 3.3-.1 6.6-.8 9.8-1.8-4.3-7.5-11.5-16.1-12.8-26.1-.4-4.2.1-8.7-1.8-12.6z" fill="#610b15"/><circle cx="63.2" cy="8.9" r="8.9" fill="#610b15"/><path d="M70.1 33.4c5.7 3.9 13.7 1.8 19.7 5.2 2.9 1.6 5 4.3 7.3 6.8 0-1.1-.1-2.2-.3-3.3-.5-2.2-1.7-4.3-3.5-5.7-1.3-1-2.9-1.6-4.3-2.3-3.1-1.5-5.9-3.6-8.2-6.1-3.4-3.7-5.8-8.5-10-11.3l-5.3 11.4c1.2 2 2.6 3.9 4.6 5.3z" fill="#f19c9b"/><path d="M60.3 49.5c2.5 2.1 6 2.5 9.2 3.3 3.2.8 6.3 2.3 9.1 4.2 1.9 1.3 3.8 3 6.1 3.3 1 .1 2.1 0 3.1-.3 4.8-1.4 7.9-6.3 8.9-11.2.2-1.1.4-2.3.4-3.4-2.3-2.5-4.4-5.2-7.3-6.8-6-3.3-14.1-1.3-19.7-5.2-2-1.3-3.4-3.3-4.8-5.2l-8.1 17.2c.9 1.4 1.8 3 3.1 4.1z" fill="#ef4745"/><path d="M74.7 66.5c1.6-1.8 2.5-4.1 3-6.5.7-3.6.7-7.4.3-11.1-.2-2.1-.5-4.2-.5-6.3 0-2.2.5-4.5.8-6.7-2.9-.4-5.8-1-8.2-2.6-4.3-3-6.1-8.6-10.4-11.6-4.2-2.8-10.5-3-16.7 1.5-2.7 4.1-3.8 8.8-3.3 13.4.7 5.3 2.8 11.1 6.6 14.9 1.3 1.2 2.7 2.3 3.8 3.6 1.4 1.6 2.3 3.6 3.8 5.1 1.1 1.1 2.5 1.9 3.8 2.7 2.5 1.5 5.1 3 7.6 4.5.9.5 1.8 1 2.7 1.3 2.5.6 5-.4 6.7-2.2z" fill="#ef4745"/><path d="M66.2 36.2c1.5 2.6 3 5.3 3.4 8.3.3 2.5-.3 5.1-.8 7.6-.4 2.5-.6 5.2.4 7.5.3.7.8 1.4 1 2.2.5 1.6-.2 3.5-1.6 4.5-1.4 1-3.4 1-4.7 0-.3.4-.3 1-.1 1.4.2.5.6.8 1.1 1.1 1 .8 2 1.4 3.1 2.1.6.3 1.3.7 2 .7.6 0 1.2-.3 1.8-.6 2.4-1.4 4.1-3.9 5.1-6.5s1.4-5.4 1.6-8.2c.2-2.6.3-5.2-.2-7.7s-1.6-5-3.5-6.8c-1.7-1.6-4-2.6-5.5-4.3" fill="#321216"/><path d="M67.4 27.8c.9-.4 1.9 0 2.7.5.8.6 1.3 1.3 2 2 1.7 1.7 4.3 2.7 6.8 2.7 2 0 3.9-.6 5.4-1.7-1.3-1-2.5-2.1-3.6-3.3-3.2-3.6-5.6-8.1-9.5-10.9-.7-.7-1.5-1.4-2.4-2-.2-.1-.3-.2-.5-.3-2.3 2.8-4.6 5.7-6.8 8.5 1.7 1.7 3 3.9 4.5 5.9.3-.6.7-1.1 1.4-1.4z" fill="#ed1c24"/><path d="M57.8 28.6c-.4 1.5.6 4.1.9 5.7 1.7-.8 3.7-.4 5.3.5 1.6.9 2.7 2.3 3.9 3.7.6-.5.9-.8 1.6-1.3-1.6-1.4-2.5-3.5-3.1-5.5-.2-.8-.3-1.7-.1-2.5-1.5-2-2.8-4.1-4.5-5.9-1.3 1.6-3.5 3.6-4 5.3z" fill="#911a1d"/><path d="M66 31.1c-.1-.9 0-2 .6-2.7.6-.8 1.7-1.1 2.5-.7.5.3.8.7 1.1 1.2 1.6 2.5 3.2 5.2 2.9 8 0 .3-.2.7-.5.6" fill="#f19c9b"/><g><path d="M65.4 32.4c-.1-.9 0-2 .6-2.7s1.7-1.1 2.5-.7c.5.3.8.7 1.1 1.2 1.6 2.5 3.2 5.2 2.9 8 0 .3-.2.7-.5.6" fill="#ef4745"/></g><g><path d="M59.7 21.8c1.1.8 2.1 1.7 3 2.8 2.4-2 4.7-4.5 6-7.2.3-.6.5-1.3.3-2-.2-.6-.8-1-1.3-1.4-2.9-1.8-6.3-2.4-9.7-2.1-3.3.3-6.5 1.6-9.4 3.4-1.9 1.2-3.6 2.6-5.1 4.3-1.8 2-3.1 4.3-4 6.8 7.2-7.6 15.2-8 20.2-4.6z" fill="#911a1d"/><path d="M46 39.9c2-1.1 3.3-3.1 4.7-4.9 2.7-3.7 5.6-6.3 9.4-8.7.8-.5 1.7-1.1 2.5-1.8-.9-1-1.8-2-3-2.8-4.9-3.4-13-3-20.2 4.7-.8 2.3-1.2 4.8-1.2 7.3.2 4.2 3.1 8.8 7.8 6.2z" fill="#610b15"/></g><g><path d="M58.2 61.7c1.6-1.1 3.3-2 5.1-2.9 1.8-.9 3.8-1.6 5.7-1.1.4.1 1 .3 1.3 0 .2-.2.3-.5.3-.8.2-1.4.2-3.1-.9-4-.4.8-1 1.6-1.8 2.1-.6.4-1.4.6-2.1.8-3.2.9-6.2 2.5-8.8 4.7-.5.4-1 1-.7 1.5.2.4.8.5 1.2.3s.7-.6.9-1" fill="#321216"/></g><g><path d="M66.3 180c.7 3 1.9 5.6 2.5 5.8.6.2.5-2.2-.2-5.3-.8-3.1-1.9-5.7-2.5-5.8-.6-.1-.5 2.2.2 5.3z" opacity=".43" fill="#c12026"/></g><g><path d="M74.1 98.2c.6-.2 1.3-.4 1.9-.6 2.5-.8 2.7-.9 3.6-1.1 2.3-.7 2.3-.7 3.5-1 1.3-.3 1.7-.4 3.3-.8 1.3-.3 3.3-.7 4.6-.9.8-.1 1.9-.2 2.7-.3.4 0 1-.1 1.4-.1 1.1-.1 2.4 0 2.7 0 .6.1 1.4.1 1.9.2.4.1.9.2 1.3.3.8.2 1.8.5 2.5.9 1.1.5 1.8.8 2.8 1.5-2-1.2-11 .4-21.6 4-4-2.5-7.6-3.1-10.6-2.1z" fill="#ed1c24"/><path d="M68.8 100.1l5.3-1.8c3-1 6.6-.4 10.8 2.1l-5.3 1.8c-4.2-2.5-7.8-3.2-10.8-2.1z" fill="#ed1c24"/><path d="M106.5 96.3c.4.2.9.6 1.3.8.4.3 1 .7 1.3 1 .4.3.9.7 1.3 1 1.8 1.6 1.9 1.7 2.6 2.4l1.3 1.3c1.7 1.8 1.7 1.8 2.6 2.9.5.6 2.2 2.6 3.9 4.9 1.3 1.8 4 5.5 7.6 11.8 1.6 2.9 3.1 5.6 3.6 6.7.8 1.5.8 1.5 2.3 4.7.4.7.8 1.7 1.1 2.4.3.7.8 1.7 1.1 2.5.3.8.8 1.8 1.1 2.5.3.8.7 1.8 1.1 2.5.6 1.6 1.5 3.6 2 5.2.3.8.7 1.8 1 2.6.3.8.7 1.9.9 2.7.3.8.6 1.9.9 2.7 1.4 4.1 2.3 7.3 2.5 8.2.2.6 1.1 4 1.5 5.5.2.8.5 1.9.7 2.8.2.8.5 1.9.7 2.8.4 1.7.8 3.9 1.2 5.6.3 1.7.8 4.5 1 5.4.1.8.3 1.8.4 2.6.1.8.3 1.8.4 2.6.1.8.2 1.8.3 2.5.4 3.6.6 7.6.7 9.4.1 2.6.1 3.2 0 4.3 0 .6 0 1.4-.1 2-.1 1.2-.2 2.7-.3 3.8-.1.5-.1 1.3-.2 1.8s-.2 1.2-.3 1.7c-.1.5-.2 1.2-.3 1.7-.2.9-.3 1.4-.8 3.1 0 0-.4 1.3-1 2.8-.3.8-.8 1.8-1.2 2.5-.4.7-.9 1.5-1.4 2.2-.6.8-1.1 1.3-1.7 2-1.3 1.3-2.8 2.3-5 3.7-3 1.8-7 3.6-7 3.6-1 .4-2.2 1-3.2 1.4-.5.2-1.2.5-1.7.7-.7.3-2.7 1-5.4 2 3.3-1.1 5.9-4.3 7.6-9.2 3.2-9.3 3.3-24.8-.5-44.2-3.8-19.5-10.9-39.2-19.2-55.4s-17.8-28.9-26.6-34.2c10.8-3.8 19.8-5.5 21.9-4.3z" fill="#bd2026"/><path d="M123.5 243.4l-5.3 1.8c3.3-1.1 5.9-4.3 7.6-9.2 3.2-9.3 3.3-24.8-.5-44.2-3.8-19.5-10.9-39.2-19.2-55.4s-17.8-28.9-26.6-34.2l5.3-1.8c8.8 5.3 18.3 18 26.6 34.2s15.3 36 19.2 55.4c3.8 19.5 3.8 34.9.5 44.2-1.7 4.9-4.3 8-7.6 9.2z" fill="#bd2026"/><path d="M59.1 113.1c8.3 5 17.3 17 25.2 32.4 7.8 15.4 14.5 34.1 18.1 52.5 3.6 18.4 3.6 33.1.5 41.9-3.1 8.8-9.1 11.7-17.5 6.7-8.3-5-17.3-17-25.2-32.4-7.8-15.4-14.5-34.1-18.1-52.5-3.6-18.4-3.6-33.1-.5-41.9 3.1-8.7 9.1-11.7 17.5-6.7z" fill="#321216"/><path d="M66.4 150.2c3.7 2.2 7.7 7.6 11.2 14.4 3.5 6.8 6.4 15.1 8.1 23.3 1.6 8.2 1.6 14.7.2 18.6-1.4 3.9-4.1 5.2-7.8 3s-7.7-7.6-11.2-14.4c-3.5-6.8-6.4-15.1-8.1-23.3-1.6-8.2-1.6-14.7-.2-18.6 1.4-3.9 4.1-5.2 7.8-3z" fill="#911a1d"/><path d="M71 173.7c.8.5 1.6 1.6 2.3 3 .7 1.4 1.3 3.1 1.7 4.8.3 1.7.3 3 0 3.8-.3.8-.8 1.1-1.6.6-.8-.5-1.6-1.6-2.3-3-.7-1.4-1.3-3.1-1.7-4.8-.3-1.7-.3-3 0-3.8.3-.8.8-1 1.6-.6z" fill="#321216"/><path d="M118.2 245.2c-6.7 2.2-15.2 4.7-22.3 4.8-27.1.4-49.9-64.7-54.4-91.1-6.7-38.8.8-47.5 16.7-54.7 3.2-1.5 6.7-2.8 10.6-4.1 3-1 6.6-.4 10.8 2.1-11.7 4-20.9 8.9-20.5 11-8.3-5-14.4-2.1-17.5 6.7-3.1 8.8-3.2 23.4.5 41.9 3.6 18.4 10.3 37.1 18.1 52.5 7.8 15.4 16.9 27.3 25.2 32.4 8.3 5 14.4 2.1 17.5-6.7 3.1-8.8 3.2-23.4-.5-41.9-3.6-18.4-10.3-37.1-18.1-52.5-7.8-15.4-16.9-27.4-25.2-32.4-.4-2.1 8.8-7 20.5-11 8.8 5.3 18.3 18 26.6 34.2s15.3 36 19.2 55.4c3.8 19.5 3.8 34.9.5 44.2-1.8 4.9-4.4 8.1-7.7 9.2z" fill="#911a1d"/></g><g><path d="M84.3 31.3c-1.3-1-2.5-2.1-3.6-3.3-3.2-3.6-5.6-8.1-9.5-10.9-.7-.7-1.5-1.4-2.4-2-.2-.1-.3-.2-.5-.3-2.3 2.8-4.6 5.7-6.8 8.6-1.1 1.4-3.3 3.5-3.8 5.2-.4 1.5.6 4.1.9 5.7 1.7-.8 3.7-.4 5.3.5 1.6.9 2.6 2.5 3.7 3.9.6-.5 1.1-1 1.7-1.5-1.6-1.4-2.5-3.5-3.1-5.5-.4-1.4-.4-3.4 1.1-3.9.9-.4 1.9 0 2.7.5.8.6 1.3 1.3 2 2 1.7 1.7 4.3 2.7 6.8 2.7 2 0 3.9-.6 5.5-1.7z" fill="#ed1c24"/></g><g><path d="M206.5 211c-.1.5-.2.9-.3 1.4-.2 2 .2 4.3-1.1 5.9-.8.9-2 1.3-3.1 1.7-.6.2-1.2.4-1.8.3-.5-.1-.9-.3-1.3-.6-.3-.2-.7-.4-1-.7-.8 1.7-2.1 3.1-3.5 4.4-3.5 3.5-7 7-10.4 10.5-1.7 1.7-3.5 4.5-2 6.3 1.7.3 3.4.6 5.1.6 3.9 0 7.8-1.5 10.7-4.1 1.3-1.2 2.5-2.6 4-3.4 1.9-1 5.3-1.4 7.9-3.9 4.9-5-.2-10.1-3.2-18.4z" fill="#ef4745"/><path d="M183.9 233.8c3.5-3.5 7-7 10.4-10.5 1.3-1.3 2.7-2.7 3.5-4.4-1.4-.9-2.8-1.9-4.3-2.5-1.7-.7-3.7-.9-5.3-.2-.5 5.6-3.8 10.8-7.9 14.8-1 1-2.1 1.9-2.8 3.1-.7 1.2-.9 2.9-.1 4s2.2 1.5 3.5 1.8c.3.1.7.1 1 .2-1.5-1.8.3-4.6 2-6.3z" fill="#610b15"/></g><g><path d="M125.9 50.5c6.6.7 7.6 4.1 10.2 9.9 5.1 11.7 12.5 13.8 15.7 20l8.2-2c-6.3-13.5-12.8-24.1-21-36.5-4.6-5.1-12.6-5.5-17.9-.7-3.1 2.7-4.5 6.6-4.3 10.3 2.8-1 5.9-1.3 9.1-1z" fill="#fff"/><path d="M138.6 81.5c.5.6.9 1.2 1.3 1.8l11.7-2.9c-3.2-6.1-10.6-8.3-15.7-20-2.5-5.9-3.6-9.3-10.2-9.9-3.1-.3-6.3 0-9.3 1 .1 2.7 1.2 5.4 3.1 7.6 5.8 6.6 13.9 15.5 19.1 22.4z" fill="#f2c9be"/><path d="M141.9 88.8c-.1 1.5-.5 3.1-1 4.6-2.4 7.8-4.9 15.8-8.9 22.9h-.1c-1.6 2.2-4.1 3.5-6.7 4.5s-5.2 1.7-7.5 3.1c-2.4 1.4-4.3 3.4-6.8 4.7-.7.4-1.5.7-2.1 1.1-.1.1-.2.1-.2.2s.1.2.1.3c1 1.1 2.8 1 4.2.6 2.2-.5 4.3-1.5 6.5-2.1.1 0 .2 0 .2-.1.5.2 1 .6 1.3 1.1.4.8.4 1.8.3 2.7-.6 7.5-5.4 15-5.4 18.5 0 1.2.6 2.7 1.6 3.3 0 0 4.2-10.3 7.1-15 .1-.2.3-.4.4-.6-.2 7.3-.2 7.1-.3 7.7-.3 2.8-2.3 5.1-1.4 8.1.5 1.5 1.4 2 3.1 2.5.3.1 2.8.7 3 .6.1-.1 1.3-3 2.1-6v1.7c.1 2.1.9 2.6 1.3 1.6 4.1-12.8 1.8-5 2.6-19.5.2-.5.3-1.1.5-1.9.3-2 1-3.5 1.6-4.8 17.3-25.8 20.1-29.7 23.1-36.3.3-.6.5-1.2.7-1.8l-19.3-1.7z" fill="#f19c9b"/><path d="M129 126.4c.9-1.6 2.4-2.6 3.8-3.8 5.7-5.3 6.1-14.2 10.7-20.4 2.2-2.9 5.2-5.1 7.2-8.1.9-1.3 1.5-2.7 1.9-4.2l-10.7-1c-.1 1.5-.5 3.1-1 4.6-2.4 7.8-4.9 15.8-8.9 22.9h-.1c-1.6 2.2-4.1 3.5-6.7 4.5s-5.2 1.7-7.5 3.1c-2.4 1.4-4.3 3.4-6.8 4.7-.7.4-1.5.7-2.1 1.1-.1.1-.2.1-.2.2s.1.2.1.3c1 1.1 2.8 1 4.2.6 2.2-.5 4.3-1.5 6.5-2.1.1 0 .2 0 .2-.1.5.2 1 .6 1.3 1.1.4.8.4 1.8.3 2.7-.6 7.5-5.4 15-5.4 18.5 0 1.2.6 2.7 1.6 3.3 0 0 4.2-10.3 7.1-15 .1-.2.3-.4.4-.6-.2 7.3-.2 7.1-.3 7.7-.3 2.8-2.3 5.1-1.4 8.1.5 1.5 1.4 2 3.1 2.5.3.1 2.8.7 3 .6.1-.1 1.3-3 2.1-6v1.7c.1 2.1.9 2.6 1.3 1.6 1.3-4 2-6 2.3-7.3-.3-3-1.2-6-2.7-8.7-1.5-3.1-5.7-8.1-3.3-12.5z" fill="#ef4745"/><g><path d="M159.9 78.4l-8.2 2 .3.6c1.3 2.8 1.4 5.9.5 8.9l8.9.8c.4-1 .7-2 .8-3.1.3-3.2-1-6.3-2.3-9.2z" fill="#610b15"/><path d="M152 81l-.3-.6-11.7 2.9c.9 1.3 1.6 2.7 1.8 4.2.1.5.1.9.1 1.4l10.7 1c.8-3 .7-6.2-.6-8.9z" fill="#321216"/></g></g></svg>