<svg xmlns="http://www.w3.org/2000/svg" enable-background="new 0 0 1000 436.1" viewBox="0 0 1000 436.1"><path fill="#900818" d="M949,314.4c-13.2-5.3-59.6-9.3-104.6-9.3c-43.1,0-69.6,2.7-73.7,8.2c-2.3,3.1-3.3,11.8-3.3,25.8 s1.8,21.9,3.6,25.4c6.2,12.4,46.3,19.3,107.9,19.3c44.6,0,70-4.6,73.7-11.9h0c1.6-2.3,2.2-12.2,2.2-27.2c0-15-0.8-25.2-2-27.4 C952.2,316.1,951.6,315.4,949,314.4z"/><path fill="#350810" d="M842.9,305.1c-42.2,0.1-68.1,2.7-72.2,8.2c-2.3,3.1-3.3,11.8-3.3,25.8c0,14,1.8,21.9,3.6,25.4 c4.8,9.6,30.2,16,70.3,18.3C838.4,356.7,839.2,330.9,842.9,305.1z"/><path fill="#bd081c" d="M949,314.4c14.6,5.9-16.1,11.1-69.9,11.1c-53.8,0-102.2-5.2-107.7-11.1c-4.9-5.3,27.9-9.3,73-9.3 S935.8,309,949,314.4z"/><path fill="#350810" d="M903.9,314.4c5.9,2.8-9.7,5.2-35,5.2s-49.1-2.4-52.8-5.2c-3.5-2.7,12.5-4.8,35.8-4.8 C875.1,309.6,898.3,311.7,903.9,314.4z"/><path fill="#900818" d="M869.7,314.4c1.1,0.6-2.4,1.1-7.8,1.1c-5.4,0-10.6-0.5-11.6-1.1c-1-0.6,2.5-1.1,7.8-1.1 C863.5,313.3,868.6,313.8,869.7,314.4z"/></svg>
