<svg xmlns="http://www.w3.org/2000/svg" xmlns:xlink="http://www.w3.org/1999/xlink" enable-background="new 0 0 1000 436.1" viewBox="0 0 1000 436.1"><defs><path id="a" d="M1000,0H0l0,276.5c16.1,35,55.5,53.5,93.2,55.6c75.5,4.2,147.4-45.5,222.7-32.8 c78,13.1,135.3,90.7,235.8,120c57.1,16.6,118.3,12.6,175.9-1.7c69.6-17.3,130.3-46.6,272.3-109.8V0z"/></defs><clipPath id="b"><use overflow="visible" xlink:href="#a"/></clipPath><path fill="#ffc3d0" d="M0 -9.6H1000V350H0z" clip-path="url(#b)"/><g clip-path="url(#b)"><path fill="#ffacbe" d="M-7.6,130.9c37.4-22.7,90.4-32.2,138.7-24.9c34.1,5.1,66.4,18.1,101.3,16.9 c47.4-1.7,87.9-29.5,135.3-28.5c49.3,1.1,89.5,33.1,138.8,32.8c43.4-0.3,82.7-26,125.4-20.6c21.8,2.8,39.7,13.2,59.2,20.6 c28.4,10.8,61.6,15.2,93.7,12.5c38.3-3.2,73.3-16.1,109.7-25.2s77.9-14.2,112.5-2.4v92.5H-7.6V130.9z"/></g><g clip-path="url(#b)"><path fill="none" stroke="#ffa28e" stroke-linecap="round" stroke-miterlimit="10" stroke-width="2.994" d="M965.8,134.4 c-1.1,2.9-2.4,5.7-3.9,8.4"/><path fill="none" stroke="#ff94ab" stroke-linecap="round" stroke-miterlimit="10" stroke-width="2.994" d="M979 68.9c.1 2.9.2 5.9.2 8.9 0 12.6-2.8 24.2-6.5 35.6M974.7 41.5c.7 2.2 1.3 4.4 1.8 6.6M775 2.5c6.1-6.7 13-12.4 20.5-17.8 9.8-7.2 19.2-15.8 31-19.6 11.4-3.7 24-6.5 36.6-6.5 12.6 0 24.1 6.2 35.5 9.9 11.8 3.8 23.8 6.9 33.7 14.1 9.9 7.2 17.1 17.3 24.4 27.3 4.6 6.3 9.1 12.6 12.8 19.4M752.9 38.5c2.4-6.4 5.5-12.4 9-18.1M746.4 92.9c-.6-5-.8-10.1-.8-15.2 0-9.6 1.5-19 3.8-27.9M755.2 126.5c-1.6-4-3-8.2-4.4-12.2-.5-1.5-.9-3-1.3-4.5"/><path fill="#ff94ab" d="M896.9,77.4c0,3.7-0.8,7.2-1.9,10.5c-1.1,3.5-1.9,7.2-4.1,10.1c-2.1,2.9-5.3,5-8.2,7.1 c-2.9,2.1-6.1,3.6-9.6,4.8c-3.4,1.1-6.8,2.5-10.6,2.5c-3.7,0-7.2-1.3-10.6-2.4c-3.5-1.1-7.3-1.9-10.2-4c-2.9-2.1-5.7-4.9-7.8-7.8 c-2.1-2.9-3.5-6.5-4.6-10c-1.1-3.4-1.6-7-1.6-10.8c0-3.7,0.8-7.3,1.9-10.7c1.1-3.5,3-6.6,5.1-9.5c2.1-2.9,4.8-5.2,7.8-7.4 c2.9-2.1,5.7-4.7,9.2-5.8c3.4-1.1,7.1-1.9,10.8-1.9c3.7,0,7.1,1.8,10.5,2.9c3.5,1.1,7.1,2,10,4.2c2.9,2.1,5.1,5.1,7.2,8.1 c2.1,2.9,4.2,5.9,5.4,9.4C896.7,70.1,896.9,73.7,896.9,77.4z"/><path fill="none" stroke="#ff94ab" stroke-linecap="round" stroke-miterlimit="10" stroke-width="2.994" d="M834.5 42.6c2.1-1.7 4.4-3.2 6.8-4.5M818.3 71.3c.5-3.5 1.2-6.9 2.5-10.1M836.1 113.4c-2-1.5-3.8-3.1-5.6-4.9M889.9 112.8c-.6.4-1.1.9-1.7 1.3M907.4 79.8c-.2 3.1-.8 6-1.5 8.9-.8 3-1.8 5.8-3.1 8.5-2.2 4.4-4.8 8.6-8.3 12M898.3 50.4c.5.7 1 1.4 1.5 2.1M874.9 34.4c5.9 1.7 11.3 4.4 15.9 8.1"/><path fill="none" stroke="#ffacbe" stroke-linecap="round" stroke-miterlimit="10" stroke-width="2.662" d="M834.6 89.3c-1.5-3.6-2.6-7.7-2.6-11.9 0-4.1 1.3-8 2.7-11.5 1.5-3.7 3.5-7.2 6.3-10 2.8-2.8 6.3-4.7 10-6.3 3.6-1.5 7.4-2.2 11.5-2.2 3.2 0 6.1.7 9 1.6 3 .9 6.1 1.6 8.6 3.3M838.5 95.6c-.3-.4-.6-.9-.9-1.3M892.5 74.2c.1 1.1 0 2.1 0 3.2 0 4.1-.1 8.1-1.6 11.7-1.5 3.7-4.3 6.7-7.1 9.4-2.8 2.8-5.8 5.4-9.5 6.9-3.6 1.5-7.5 1.9-11.6 1.9-5 0-9.5-1.1-13.7-3.2M887.4 60.3c1.1 1.5 2 3.2 2.8 4.9"/><path fill="none" stroke="#ff94ab" stroke-linecap="round" stroke-miterlimit="10" stroke-width="2.994" d="M826.5 92.2c-1.9-4.6-2.8-9.6-2.8-14.8M844.9 112.1c-2.9-1.5-5.6-3.3-8-5.5-2.4-2.1-4.7-4.5-6.5-7.1M890.2 104.6c-2.4 2.4-5.1 4.5-8.1 6.3-2.9 1.7-5.9 3.5-9.3 4.4-3.2.9-6.7.7-10.3.7-4.3 0-8.3-.4-12.1-1.7M898.3 92.9c-.6 1.3-1.2 2.5-1.9 3.8M885.4 46.2c3.3 2.4 6.3 5.1 8.7 8.4 2.4 3.3 4.3 6.9 5.6 10.8 1.2 3.8 1.8 7.8 1.8 12 0 2.3-.4 4.6-.8 6.8M825.5 64.1c1.4-3.8 3.8-7.1 6.2-10.2 2.4-3.2 5.1-6.2 8.4-8.5 3.2-2.3 7-3.7 10.8-4.9 3.7-1.2 7.6-2.2 11.7-2.2 4.3 0 8.4.9 12.3 2.2"/><path fill="#fff" d="M830.7,92.9c-0.9-0.3-1.7-0.8-2.4-1.4c-0.7-0.7-1.1-1.6-1.6-2.4c-1.1-1.6-3-2.7-5-2.7 c-1.6,0-3.2,0.8-4.5,1.8c-2.2,1.6-4.5,4.4-7.5,4.8H830.7z"/></g><path fill="none" stroke="#ff94ab" stroke-linecap="round" stroke-miterlimit="10" stroke-width="2.994" d="M531.9 21.7c.4-2.6 1.8-5.1 2.3-7.7.5-2.6.3-5.4.9-8 .6-2.6 1.6-5.1 2.2-7.7.6-2.6 1.6-5.1 2.3-7.6.7-2.6 1.2-5.2 2-7.7.7-2.6 1.5-5.1 2.3-7.6.8-2.5 1.4-5.1 2.3-7.6.9-2.5 1.9-5 2.8-7.4.9-2.5 1.6-5.1 2.6-7.5 1-2.5 2-4.9 3-7.4 1-2.4 2.1-4.9 3.2-7.3M529.1 45.4c.2-2.6.6-5.3.9-7.9M531.8 132.9c-.4-2.6-.1-5.4-.4-8-.4-2.6-.8-5.2-1.1-7.9-.3-2.6-1.3-5.2-1.6-7.8-.2-2.6.8-5.4.6-8-.2-2.6-1.1-5.2-1.2-7.9-.1-2.6 0-5.3-.1-8-.1-2.6-.8-5.3-.8-8 0-2.7.3-5.3.4-8 .1-2.7.1-5.3.2-8M1081.1 329.7c-2 1.7-3.8 3.7-5.9 5.4-2 1.7-3.9 3.6-6 5.3-2.1 1.6-4.6 2.7-6.8 4.3-2.1 1.6-4.2 3.2-6.3 4.8-2.2 1.5-4.4 2.9-6.6 4.4-2.2 1.5-3.9 3.7-6.1 5.2-2.2 1.4-4.4 2.9-6.7 4.3-2.3 1.4-4.8 2.3-7.1 3.7-2.3 1.3-4.5 2.9-6.8 4.2-2.3 1.3-5 1.9-7.3 3.2-2.4 1.2-4.7 2.5-7.1 3.7-2.4 1.2-4.4 3.1-6.8 4.2-2.4 1.1-5.3 1.1-7.8 2.1-2.4 1-4.6 2.8-7 3.8-2.5 1-4.9 2.1-7.4 3-2.5.9-5 1.8-7.5 2.7-2.5.9-5 1.8-7.5 2.6-2.5.8-5 1.8-7.6 2.5-2.5.7-5.4.5-7.9 1.2-2.6.7-4.9 2.4-7.5 3-2.6.6-5.2.9-7.8 1.5-2.6.6-5.4.2-8 .7-2.6.5-5 2.2-7.6 2.6-2.6.4-5.4-.2-8 .2-2.6.4-5.3.6-7.9 1-2.6.3-5.2 1-7.9 1.2-2.6.2-5.3.6-7.9.8-2.6.2-5.3-.3-8-.2-2.6.1-5.3 1.4-7.9 1.5-2.6.1-5.3-1.1-8-1.1s-5.3.2-8 .1c-2.7-.1-5.3.3-8 .2-2.7-.1-5.3 0-8-.2-2.7-.2-5.3-.8-7.9-1.1-2.6-.2-5.2-1.1-7.9-1.4-2.6-.3-5.3-.5-7.9-.9-2.6-.4-5.2-.8-7.8-1.3-2.6-.4-5.3-.7-7.9-1.2-2.6-.5-5.4-.3-7.9-.9-2.6-.6-5.2-1-7.8-1.7-2.6-.6-5-1.8-7.6-2.5-2.6-.7-5.2-1-7.8-1.7-2.6-.7-4.9-2-7.5-2.8-2.5-.8-4.9-2-7.4-2.9-2.5-.9-5-1.6-7.5-2.6-2.5-.9-4.9-2-7.4-3-2.5-1-4.9-1.9-7.4-3-2.4-1-5-1.8-7.4-2.9-2.4-1.1-4.8-2.3-7.2-3.4-2.4-1.2-4.8-2.2-7.2-3.5-2.4-1.2-4.5-2.8-6.8-4.1-2.3-1.3-4.6-2.7-6.9-4-2.3-1.3-5-1.9-7.3-3.3-2.3-1.4-4.1-3.5-6.3-4.9-2.2-1.4-4.6-2.7-6.8-4.2-2.2-1.5-4.3-3.1-6.5-4.7-2.2-1.5-4.2-3.3-6.3-4.9-2.1-1.6-4.4-2.9-6.5-4.6-2.1-1.6-4.3-3.1-6.4-4.8-2-1.7-4.2-3.3-6.2-5-2-1.7-4.1-3.4-6.1-5.2-2-1.8-3.4-4.2-5.3-6-1.9-1.8-3.6-3.9-5.5-5.7s-4.4-3.1-6.3-5c-1.8-1.9-3.6-3.9-5.4-5.9-1.8-2-3.8-3.8-5.5-5.8-1.7-2-2.5-4.9-4.2-6.9-1.7-2-3.4-4.1-5-6.2-1.6-2.1-4.1-3.5-5.7-5.6-1.6-2.1-2.5-4.7-4.1-6.9-1.5-2.2-2.8-4.5-4.3-6.7-1.5-2.2-3-4.4-4.4-6.6-1.4-2.2-3.6-4-4.9-6.3-1.4-2.3-2.7-4.5-4.1-6.8-1.3-2.3-2.2-4.9-3.5-7.2-1.3-2.3-2.8-4.5-4-6.9-1.2-2.4-2.2-4.8-3.4-7.2-1.2-2.4-2.5-4.7-3.6-7.1-1.1-2.4-1.8-5-2.8-7.5-1-2.4-2.5-4.7-3.5-7.2-1-2.5-1.5-5.1-2.4-7.6-.9-2.5-1.8-5-2.7-7.5-.9-2.5-1.5-5.1-2.3-7.6-.8-2.5-2.2-4.9-3-7.4-.7-2.5-1-5.2-1.7-7.8-.7-2.6-1.1-5.2-1.7-7.8-.6-2.6-1.7-5-2.2-7.6M222.4 13.2c.3-2.7 2.4-5.1 2.7-7.8.3-2.7.8-5.3 1.1-7.9.3-2.7-1.4-5.6-1-8.2.4-2.6.4-5.4.8-8 .4-2.6 3.1-4.9 3.6-7.6.4-2.6-.9-5.6-.5-8.2.5-2.6 1.7-5.1 2.2-7.7.5-2.6-.1-5.5.4-8.1.5-2.6 2.8-4.9 3.4-7.5.6-2.6.9-5.3 1.5-7.9.6-2.6 1.2-5.2 1.9-7.8.6-2.6 1-5.3 1.7-7.8.7-2.6.9-5.3 1.6-7.9.7-2.6 2-5 2.7-7.6.7-2.6 0-5.6.8-8.1M220.9 61.3c.1-2.7-.1-5.3 0-8 .1-2.7.9-5.3 1.1-8 .1-2.7.3-5.3.5-8 .2-2.7-.1-5.3.1-8M219.7 101.3c-.1-2.7.3-5.4.2-8-.1-2.7.3-5.3.3-8 0-2.7.3-5.3.3-8M350.6 464.9c-1.6-2.1-4.3-3.5-5.9-5.6-1.6-2.1-3.2-4.3-4.8-6.4-1.6-2.2-3.1-4.4-4.6-6.6-1.5-2.2-2.3-4.9-3.8-7.1-1.5-2.2-2.1-5-3.6-7.2-1.5-2.2-4.7-3.3-6.1-5.6-1.5-2.2-2.8-4.5-4.3-6.8-1.4-2.3-1.7-5.2-3.1-7.5-1.4-2.3-2.9-4.5-4.3-6.8-1.4-2.3-2.1-5-3.4-7.3-1.3-2.3-3-4.4-4.3-6.8-1.3-2.3-2.1-4.9-3.3-7.3-1.3-2.3-3.6-4.1-4.8-6.5-1.2-2.4-3.4-4.2-4.7-6.6-1.2-2.4-2.1-4.9-3.3-7.3-1.2-2.4-1.9-5-3-7.4-1.2-2.4-2.2-4.9-3.3-7.3-1.1-2.4-2.5-4.7-3.6-7.2-1.1-2.4-1.3-5.3-2.3-7.7-1.1-2.4-3.6-4.3-4.6-6.7-1-2.5-1.1-5.3-2.1-7.8-1-2.5-1.8-5-2.8-7.5-1-2.5-2.7-4.7-3.7-7.2-.9-2.5-1-5.3-1.9-7.8-.9-2.5-2.6-4.7-3.5-7.3-.9-2.5-2.4-4.8-3.3-7.4-.8-2.5-.4-5.5-1.2-8-.8-2.5-2.4-4.9-3.2-7.4-.8-2.5-1.8-5.1-2.5-7.6-.8-2.6.2-5.6-.5-8.2-.7-2.6-1.5-5.1-2.2-7.7-.7-2.6-2-5-2.6-7.6-.7-2.6-2.8-4.8-3.5-7.4-.6-2.6.8-5.7.2-8.3-.6-2.6-2.4-4.9-2.9-7.6-.6-2.6-1.5-5.1-2.1-7.8-.5-2.6.9-5.6.4-8.2-.5-2.6-1.4-5.2-1.8-7.8-.5-2.6-1.3-5.2-1.7-7.8-.4-2.6-.8-5.3-1.2-7.9-.4-2.6-.1-5.4-.5-8-.4-2.6-1.2-5.2-1.5-7.9-.3-2.6-1.3-5.2-1.6-7.9-.3-2.7.7-5.4.4-8.1-.3-2.7-1.8-5.2-2-7.9-.2-2.7-.5-5.3-.7-8-.2-2.7-1.2-5.3-1.4-7.9" clip-path="url(#b)"/><path fill="#fff" d="M323.5 45.2c-3.2-2.1-6.6-4.2-10.5-4.6-6.4-.7-13.4 3.5-19.1.4-1.9-1-3.4-2.8-5.4-3.7-1.9-.8-4.1-.6-6.1-.2-4.5.9-8.8 2.9-13.3 3.5-4.6.6-9.8-.4-12.4-4.2-1.5-2.2-1.9-5-2.8-7.5-.9-2.5-2.8-5-5.4-5.2-1.6-.1-3.1.6-4.4 1.4-8.3 4.8-15.2 11.9-23.9 16.1-2.4 1.2-5.9 1.8-7.4-.4-.9-1.4-.7-3.4-1.9-4.6-1.6-1.7-4.5-.5-6.6.8-4.3 2.7-8.7 5.5-13 8.2H323.5zM619.9 65.4c-6.2.2-11.6 4.7-17.7 4.8-4.8.1-9.4-2.6-12.6-6.2-3.3-3.6-5.4-7.9-7.6-12.3-1.6-3.2-3.6-6.8-7-7.9-3.1-1-6.4.3-9.3 1.9-10.1 5.6-17.9 14.5-26.8 21.9-3.3 2.7-7.2 5.3-11.4 4.7-4.8-.7-7.8-5.4-9.9-9.7-1.1-2.4-2.6-5.2-5.2-5.7-1.8-.4-3.6.5-5.2 1.4C496.2 64.9 487 76 474.3 77h170.3C636.3 73.3 629.6 65 619.9 65.4z" clip-path="url(#b)"/><g clip-path="url(#b)"><path fill="#fff" d="M654.2,218.4c14.1-15.5,28.3-31,42.4-46.6c1.7-1.9,4.1-4,6.5-3.2c2.2,0.7,3.2,3.3,4.5,5.2 c3,4.4,9.2,5.6,14.4,4.2c18-5,34-41.4,59-55.9c4.8-2.8,11-4.8,15.7-1.9c7.1,4.5,4.9,15.9,10,22.6c6.5,8.6,20.2,4.7,29.2-1.1 c21-13.5,37.4-33.2,58-47.4c8.1-5.6,19.5-10.3,27.4-4.4c6,4.5,8.1,14,15.4,16.1c6.3,1.8,12.3-3.2,16.8-7.9 c31.1-32.2,65.1-76.3,114.3-87.6c4-0.9,9.4-0.8,10.7,3.1v204.8H654.2z"/><path fill="#fff" d="M675.8,218.4c-22.5-15.5-45.1-31-67.6-46.6c-2.8-1.9-6.5-4-10.4-3.2c-3.6,0.7-5,3.3-7.1,5.2 c-4.8,4.4-14.7,5.6-22.9,4.2c-28.7-5-54.2-41.4-93.9-55.9c-7.7-2.8-17.6-4.8-25.1-1.9c-11.4,4.5-7.8,15.9-15.9,22.6 c-10.4,8.6-32.1,4.7-46.6-1.1c-33.5-13.5-59.6-33.2-92.4-47.4c-13-5.6-31-10.3-43.7-4.4c-9.6,4.5-12.9,14-24.5,16.1 c-10,1.8-19.5-3.2-26.7-7.9C149.5,65.8,54.9,9.7,0,9.7l0,208.7H675.8z"/></g><path fill="#bd081c" d="M710.6 195.1L1070.9 169.7 1070.9 250 710.6 205.2z" clip-path="url(#b)"/><g clip-path="url(#b)"><path fill="#ffacbe" d="M732.7,196.9c11.7-0.6,21.3,10.1,32.9,11.4c10.9,1.2,21.2-6,32.2-6.4c11.4-0.4,21.7,6.6,32.9,8.6 c27.1,4.7,53-20,80-14.9c11.4,2.2,21.1,9.4,31.8,13.9c13.1,5.6,28,7,41.9,4c17.5-3.8,34.1-14.3,51.8-11.8 c9.3,1.3,17.7,6.1,26.7,8.9c2.6,0.8,5.3,1.5,7.9,2v-39.1l-360.3,23.4v3.3C717,201.9,725.3,197.3,732.7,196.9z"/><path fill="#ff94ab" d="M1070.9,250v-37.5c-2.7-0.5-5.3-1.1-7.9-2c-9-2.8-17.4-7.6-26.7-8.9 c-17.7-2.4-34.4,8.1-51.8,11.8c-13.9,3-28.8,1.6-41.9-4c-10.7-4.5-20.4-11.8-31.8-13.9c-27-5.1-52.9,19.6-80,14.9 c-11.2-2-21.5-8.9-32.9-8.6c-11,0.3-21.3,7.6-32.2,6.4c-11.7-1.3-21.2-11.9-32.9-11.4c-7.4,0.4-15.8,4.9-22.1,3.2v5.1 L1070.9,250z"/></g><path fill="#ef4645" d="M934.2 182.3L1070.9 173.4 1070.9 250 934.2 233z" clip-path="url(#b)"/><g clip-path="url(#b)"><path fill="#ff94ab" d="M878.1 200.2v-14.3l-44.6 2.9v22C848.5 212.4 863.3 205.4 878.1 200.2zM809.8 203.8v-13.4l-22 1.4v12c3.3-1 6.7-1.8 10.1-1.9C802 201.8 805.9 202.6 809.8 203.8zM753.5 194l-8.6.6v5.2c2.9 1.3 5.7 2.9 8.6 4.3V194zM984.4 213.5c17.5-3.8 34.1-14.3 51.8-11.8 9.3 1.3 17.7 6.1 26.7 8.9 2.6.8 5.3 1.5 7.9 2v-39.1l-136.7 8.9v23.2c2.7 1.4 5.5 2.8 8.3 4C955.6 215.1 970.5 216.5 984.4 213.5zM774.8 207.6v-15l-13 .8v14c1.3.4 2.6.6 4 .8C768.8 208.6 771.8 208.3 774.8 207.6zM739.2 197.7V195l-6.1.4v1.6C735.2 196.8 737.2 197.1 739.2 197.7z"/><path fill="#ff6687" d="M1070.9 250v-37.5c-2.7-.5-5.3-1.1-7.9-2-9-2.8-17.4-7.6-26.7-8.9-17.7-2.4-34.4 8.1-51.8 11.8-13.9 3-28.8 1.6-41.9-4-2.8-1.2-5.6-2.6-8.3-4V233L1070.9 250zM739.2 208.7v-11.1c-2-.5-4-.8-6.1-.8V208L739.2 208.7zM774.8 213.2v-5.5c-3 .7-6 1-9.1.6-1.3-.1-2.7-.4-4-.8v4.1L774.8 213.2zM809.8 217.5v-13.8c-3.9-1.2-7.8-2-11.9-1.9-3.4.1-6.8.9-10.1 1.9v11L809.8 217.5zM878.1 226v-25.8c-14.8 5.2-29.5 12.2-44.6 10.6v9.6L878.1 226zM753.5 210.5v-6.4c-2.9-1.5-5.7-3-8.6-4.3v9.7L753.5 210.5z"/></g><g clip-path="url(#b)"><path fill="none" d="M999.6 192.1c-9.3.2-13.8 9.2-13.8 16.6 0 1.5.1 3 .4 4.3 1.2-.3 2.3-.6 3.5-.9-.2-.8-.3-1.6-.3-2.6 0-6.7 3.6-12.7 9.6-12.7 5.1 0 8.1 3.9 8.5 9.4 1.7-.6 3.3-1.1 5-1.6C1011.3 197.6 1006.4 191.9 999.6 192.1zM848 208.8c.2-1.9.5-3.9.5-5.3 0-1.2-.3-2.2-.8-2.2-.6 0-1.1 1.6-1.1 3.8 0 1.4.2 2.3.2 2.3s-.1 1.3-.3 2.9c.5-.1 1-.2 1.5-.3C847.9 209.7 847.9 209.3 848 208.8zM899.5 195c1.5-.1 3.1-.2 4.6-.1-.7-.4-1.4-.6-2.2-.6C901 194.3 900.2 194.6 899.5 195z"/><path fill="none" d="M997 202.7c-2.1 0-3.8 2.9-3.8 6.9 0 .5 0 1 .1 1.5 2.1-.7 4.1-1.4 6.2-2.1.1-.8.2-1.5.2-2.2C999.7 204.5 998.8 202.7 997 202.7zM848.5 195.5c-2.8.1-4.2 5.1-4.2 9.2 0 2.5.4 4.8 1.2 5.6.1.1.3 0 .3-.3 0-.3.1-.9.1-1.2 0-.4 0-.5-.1-.8-.2-.7-.4-1.6-.4-2.9 0-3.7 1.1-7 2.9-7 1.6 0 2.5 2.5 2.5 5.8 0 2.2-.2 4.3-.6 5.7.6-.1 1.1-.3 1.7-.4.2-1.4.4-3.1.4-5C852.4 199.7 850.8 195.5 848.5 195.5z"/><path fill="#ca2027" d="M846.7 207.5c0 0-.2-.9-.2-2.3 0-2.2.5-3.8 1.1-3.8.5 0 .8 1 .8 2.2 0 1.4-.3 3.4-.5 5.3 0 .4 0 .9 0 1.2.8-.1 1.5-.3 2.3-.5.4-1.4.6-3.5.6-5.7 0-3.3-.9-5.8-2.5-5.8-1.8 0-2.9 3.3-2.9 7 0 1.3.1 2.2.4 2.9.1.3.1.5.1.8 0 .3-.1.9-.1 1.2 0 .4-.2.5-.3.3-.8-.9-1.2-3.1-1.2-5.6 0-4.1 1.4-9.1 4.2-9.2 2.3-.1 3.9 4.1 3.9 8.6 0 1.8-.1 3.5-.4 5 .8-.2 1.6-.4 2.3-.6.1-.9.1-1.9.1-2.9 0-8.5-2.8-15.2-6.2-15.1-3.2.2-5.8 6.7-5.8 14.7 0 2 .2 3.8.4 5.6 1.2-.1 2.4-.3 3.6-.5C846.6 208.8 846.7 207.5 846.7 207.5zM901.9 194.3c.8 0 1.5.2 2.2.6 1.9 0 3.8.2 5.7.5-1.9-4.8-5-7.7-8.3-7.6-3.2.2-6 3.3-7.8 7.9 1.9-.3 3.8-.6 5.7-.8C900.2 194.6 901 194.3 901.9 194.3zM999.1 196.8c-6 .1-9.6 6.1-9.6 12.7 0 1 .1 1.8.3 2.6 1.2-.3 2.4-.7 3.5-1.1 0-.5-.1-1-.1-1.5 0-4 1.7-6.9 3.8-6.9 1.8 0 2.7 1.9 2.7 4.1 0 .7-.1 1.4-.2 2.2 2.7-1 5.4-1.9 8.1-2.9C1007.2 200.6 1004.2 196.7 999.1 196.8z"/><path fill="#ca2027" d="M986.3 213c-.3-1.3-.4-2.8-.4-4.3 0-7.4 4.5-16.4 13.8-16.6 6.7-.2 11.6 5.5 12.9 12.4 2.2-.7 4.5-1.3 6.7-1.8-2.7-11.9-11-20.2-20.4-19.7-10.7.5-18.9 12.4-18.9 26.6 0 1.6.1 3.1.3 4.7 1.4-.2 2.8-.5 4.2-.8C985.1 213.3 985.7 213.2 986.3 213zM989.7 219c.4.3.8.1 1-.6.1-.5.3-1.6.4-2.1.1-.7.1-.9-.3-1.5-.4-.7-.8-1.6-1-2.6-1.2.3-2.3.6-3.5.9C986.8 215.7 987.9 217.9 989.7 219z"/><path fill="#900818" d="M1012.9,208c0,11.1-4.7,19.1-11.3,18.5c-2.2-0.2-4.2-1.9-4.9-3.8c0,0-1.1,6.1-1.4,7.3 c-0.4,2-1.2,4-2,5.5c1.8,0.9,3.6,1.5,5.6,1.7c11.4,1.3,21.3-10.5,21.3-26.5c0-2.9-0.3-5.6-0.9-8.2c-2.2,0.5-4.5,1.1-6.7,1.8 C1012.8,205.6,1012.9,206.8,1012.9,208z"/><path fill="#bd081c" d="M997.9,216.4c-0.5,2.8,1.1,5.3,3.2,5.4c3.9,0.3,6.6-6.4,6.6-14.4c0-0.4,0-0.9,0-1.3 c-2.7,0.9-5.4,1.9-8.1,2.9C999.1,211.2,998.4,213.8,997.9,216.4z"/><path fill="#900818" d="M846 215.4c.1-.7.3-3.1.5-5.1-1.2.2-2.4.4-3.6.5.6 3.5 1.6 6.3 3 8C845.9 217.8 845.9 216.5 846 215.4zM991 234.3c-.1-1.9 0-4.1.3-6.1.4-2.1 2.5-14.4 2.5-14.4s-.4-1.1-.5-2.7c-1.2.4-2.4.7-3.5 1.1.2 1 .6 1.9 1 2.6.4.6.4.8.3 1.5-.1.5-.3 1.6-.4 2.1-.1.7-.5.9-1 .6-1.7-1.1-2.9-3.3-3.4-5.9-.6.1-1.2.3-1.8.4-1.4.3-2.8.5-4.2.8C981.4 222.8 985.4 230.2 991 234.3zM849 214.3c-.7-.1-1.3-1-1.5-2 0 0-.3 3.4-.4 4-.1 1.1-.4 2.2-.6 3.1.5.5 1.1.7 1.7.8 3 .3 5.5-4.7 6.1-11.8-.8.2-1.6.4-2.3.6C851.5 212.4 850.4 214.4 849 214.3z"/><path fill="#ca2027" d="M848.9,211.7c0.6,0,1-0.8,1.4-2.2c-0.8,0.2-1.5,0.3-2.3,0.5C848.1,211,848.5,211.7,848.9,211.7z"/><path fill="#900818" d="M908.4,205.5c0,7.8-2.3,13.4-5.6,13.1c-1.1-0.1-2.1-1.3-2.4-2.6c0,0-0.6,4.4-0.7,5.2 c-0.2,1.5-0.6,2.9-1,4c0.9,0.6,1.8,1,2.8,1.1c5.7,0.6,10.5-7.8,10.5-18.9c0-4.5-0.8-8.7-2.1-12c-1.9-0.3-3.8-0.5-5.7-0.5 C906.7,196.4,908.4,200.8,908.4,205.5z"/><path fill="#900818" d="M897.6,224.3c0-1.3,0-2.9,0.2-4.3c0.2-1.5,1.3-10.3,1.3-10.3s-0.3-1.2-0.3-3 c0-2.8,0.8-4.9,1.9-4.9c0.9,0,1.3,1.3,1.3,2.9c0,1.8-0.6,4.4-0.9,6.8c-0.2,2,0.5,3.7,1.6,3.8c1.9,0.1,3.2-4.6,3.2-10.2 c0-4.3-1.5-7.5-4.2-7.5c-3,0-4.8,4.3-4.8,9.1c0,1.6,0.2,2.8,0.6,3.7c0.2,0.4,0.2,0.6,0.1,1.1c0,0.3-0.2,1.2-0.2,1.5 c-0.1,0.5-0.3,0.6-0.5,0.4c-1.3-1.1-2-4-2-7.3c0-4.3,1.5-9.3,4.5-11.1c-1.9,0.1-3.8,0.4-5.7,0.8c-1.2,3.1-1.8,6.9-1.8,11 C891.9,214.4,894.2,221.1,897.6,224.3z"/></g><path fill="#bd081c" d="M622.2 196.8L-239.5 140.8 -239.5 131.4 622.2 195.4z" clip-path="url(#b)"/><g clip-path="url(#b)"><path fill="#ffacbe" d="M-92.5,243.7c40.3-12.4,83.2-26.6,123.8-15.1c15.7,4.5,30.1,12.6,45.9,16.7 c64.9,16.8,127.7-38.1,194.8-38.7c38-0.4,74.8,16.9,112.7,14.9c22.3-1.2,43.6-9,65.5-13.3c25.2-5,36.6-5.2,172-9.8v-1.6 l-861.7-56v91.6c6.9,6.7,14.9,12.2,23.5,16.3C-177.8,266.7-132.8,256.2-92.5,243.7z"/><path fill="#ff94ab" d="M622.2,205.2v-6.8c-135.4,4.6-146.8,4.7-172,9.8c-21.9,4.4-43.2,12.1-65.5,13.3 c-38,2-74.7-15.2-112.7-14.9c-67.1,0.6-129.9,55.5-194.8,38.7c-15.8-4.1-30.2-12.2-45.9-16.7c-40.6-11.6-83.5,2.6-123.8,15.1 c-40.3,12.4-85.3,23-123.5,5c-8.7-4.1-16.6-9.7-23.5-16.3v80.2L622.2,205.2z"/></g><g clip-path="url(#b)"><path fill="#ff94ab" d="M384.7 221.5c5.1-.3 10.2-.9 15.2-1.7v-37.5l-136.1-8.9V207c2.7-.2 5.5-.3 8.2-.3C309.9 206.3 346.7 223.6 384.7 221.5zM574.7 193.7l-12.1-.8v7.5c3.9-.1 7.9-.3 12.1-.4V193.7zM549 192l-20.5-1.3v11c6.2-.2 13-.5 20.5-.7V192zM-92.5 243.7c40.3-12.4 83.2-26.6 123.8-15.1 9.1 2.6 17.8 6.5 26.6 10V160l-297.5-19.4v91.7c6.9 6.7 14.9 12.3 23.6 16.4C-177.8 266.7-132.8 256.2-92.5 243.7zM503.4 189.1l-42.4-2.8v20c9.9-1.5 20.9-2.5 42.4-3.5V189.1z"/><path fill="#ff6687" d="M574.7 211.1V200c-4.2.1-8.2.3-12.1.4v12.2L574.7 211.1zM503.4 220.1v-17.4c-21.6 1-32.6 2-42.4 3.5v19.1L503.4 220.1zM57.9 275.8v-37.1c-8.8-3.6-17.5-7.4-26.6-10-40.6-11.6-83.5 2.6-123.8 15.1-40.3 12.4-85.3 23-123.5 5-8.7-4.1-16.7-9.7-23.6-16.4V313L57.9 275.8zM399.8 233v-13.2c-5 .8-10.1 1.5-15.2 1.7-38 2-74.7-15.2-112.7-14.9-2.7 0-5.5.1-8.2.3v43L399.8 233zM549 214.4v-13.4c-7.5.3-14.3.5-20.5.7v15.3L549 214.4z"/></g><path fill="#ff94ab" d="M591.2 194.8L583.2 194.3 583.2 210.1 591.2 209.1z" clip-path="url(#b)"/><g clip-path="url(#b)"><path fill="none" d="M171.7 233.3c8.4-3 16.9-6.2 25.4-9.3 2-4.2 3.1-9.2 3.1-14.6 0-11-9.1-21.4-23.6-21.7-19.2-.4-29.4 13.3-29.4 24.9 0 7 2.8 13.1 8.8 15.2 1 .3 1.8-.1 2.1-1.1.2-.7.7-2.5.9-3.3.3-1 .2-1.4-.6-2.2-1.7-1.8-2.8-4.3-2.8-7.8 0-10.2 7.9-19.2 20-19.1 10.3.1 15.8 6.3 15.8 14.6 0 10.9-4.8 20.3-12 20.7-4.1.2-7.2-3-6.2-7.1 1.2-5 3.5-10.4 3.5-13.9 0-3.2-1.7-5.8-5.3-5.8-4.3 0-7.8 4.4-7.8 10.3 0 3.7 1.3 6.2 1.3 6.2s-2.7 11.4-4.3 17.9c3.2-1.1 6.4-2.2 9.6-3.3.3-1.2.5-1.9.5-1.9C170.9 232.4 171.2 232.9 171.7 233.3zM339.6 191.1c-9.2-.2-13.9 9.2-13.9 17.1 0 2.3.3 4.4.9 6.2 1.5.3 3.1.7 4.6 1 .1-.5 0-.7-.3-1.2-.8-1.3-1.3-3-1.3-5.4 0-7 3.7-13.2 9.5-13.1 5 0 7.7 4.4 7.7 10.2 0 5-1 9.6-2.7 12.1 1.5.3 3 .6 4.6.8 1.6-3.3 2.5-7.6 2.5-12.6C351.1 198.5 346.6 191.2 339.6 191.1z"/><path fill="none" d="M337.9 215.1c.6-3.4 1.7-7.2 1.7-9.6 0-2.2-.8-4-2.6-4-2 0-3.7 3.1-3.7 7.1 0 2.6.6 4.3.6 4.3s-.2 1.2-.5 2.9c1.5.3 2.9.6 4.4.9C337.8 216.2 337.8 215.7 337.9 215.1zM426.2 192.9c-5.3-.1-8.1 7-8.1 13 0 3.6.8 6.8 2.4 8 .3.2.5 0 .6-.6.1-.4.2-1.3.2-1.7.1-.5 0-.7-.2-1.2-.5-1-.8-2.3-.8-4.1 0-5.3 2.2-10 5.5-10 2.9 0 4.5 3.4 4.5 7.8 0 3.7-.5 7-1.5 9 1-.3 2.1-.5 3.1-.8.6-2.2.9-4.9.9-7.9C433 198.6 430.3 193 426.2 192.9z"/><path fill="none" d="M425.2 211.3c.3-2.6 1-5.5 1-7.3 0-1.7-.5-3.1-1.5-3.1-1.2 0-2.2 2.3-2.2 5.4 0 2 .4 3.3.4 3.3s-.3 2.6-.7 5.4c1.1-.3 2.2-.6 3.3-.8C425.2 213.4 425.1 212.4 425.2 211.3zM479 200.5c-.7 0-1.3 1.6-1.4 3.8.8-.1 1.5-.1 2.3-.2 0-.4.1-.8.1-1.1C479.9 201.6 479.6 200.5 479 200.5z"/><path fill="none" d="M479.9,194c-3.5-0.1-5.3,5.7-5.3,10.5c0,0,0,0,0,0c0.5,0,1-0.1,1.5-0.1c0.1-4.1,1.5-7.6,3.6-7.6 c1.9,0,3,2.7,3,6.3c0,0.2,0,0.5,0,0.7c0.6,0,1.1-0.1,1.7-0.1c0-0.1,0-0.2,0-0.3C484.4,198.6,482.6,194.1,479.9,194z"/><path fill="#ca2027" d="M422.9 209.6c0 0-.4-1.3-.4-3.3 0-3.1 1-5.4 2.2-5.4 1 0 1.5 1.4 1.5 3.1 0 1.9-.6 4.7-1 7.3-.1 1.1 0 2.1.3 2.8 1.1-.3 2.3-.6 3.4-.9.9-2 1.5-5.3 1.5-9 0-4.4-1.6-7.8-4.5-7.8-3.4 0-5.5 4.7-5.5 10 0 1.8.3 3.1.8 4.1.2.4.2.6.2 1.2-.1.4-.2 1.3-.2 1.7-.1.5-.3.7-.6.6-1.6-1.1-2.4-4.3-2.4-8 0-6 2.8-13.2 8.1-13 4.1.1 6.8 5.7 6.8 11.6 0 3-.3 5.7-.9 7.9 1.3-.3 2.6-.7 4-1 .2-1.7.4-3.4.4-5.2 0-11-4.7-20-10.6-20.3-6.2-.3-11.5 9.1-11.5 20.9 0 3.5.5 6.8 1.3 9.7 2.2-.5 4.4-1.1 6.7-1.6C422.6 212.2 422.9 209.6 422.9 209.6zM479.7 196.8c-2.1 0-3.5 3.5-3.6 7.6.5 0 1-.1 1.4-.1.1-2.2.7-3.8 1.4-3.8.7 0 1 1.1 1 2.5 0 .3 0 .7-.1 1.1.9-.1 1.8-.1 2.8-.2 0-.2 0-.5 0-.7C482.7 199.6 481.7 196.9 479.7 196.8z"/><path fill="#ca2027" d="M474.6 204.5c0-4.8 1.8-10.6 5.3-10.5 2.7.1 4.5 4.6 4.5 9.5 0 .1 0 .2 0 .3.7-.1 1.5-.1 2.2-.2-.3-8.4-3.3-15.1-7-15.2-4-.2-7.4 7.1-7.5 16.4C473 204.7 473.8 204.6 474.6 204.5 474.6 204.6 474.6 204.5 474.6 204.5zM170.6 231.9c0 0-.2.8-.5 1.9.5-.2 1-.4 1.6-.6C171.2 232.9 170.9 232.4 170.6 231.9z"/><path fill="#ca2027" d="M164.8 219.3c0 0-1.3-2.5-1.3-6.2 0-5.9 3.5-10.3 7.8-10.3 3.6 0 5.3 2.6 5.3 5.8 0 3.5-2.3 8.9-3.5 13.9-1 4.2 2.1 7.4 6.2 7.1 7.2-.4 12-9.9 12-20.7 0-8.3-5.5-14.5-15.8-14.6-12.2-.1-20 8.9-20 19.1 0 3.5 1.1 5.9 2.8 7.8.8.8.9 1.2.6 2.2-.2.7-.7 2.5-.9 3.3-.3 1-1.1 1.4-2.1 1.1-5.9-2-8.8-8.1-8.8-15.2 0-11.6 10.2-25.3 29.4-24.9 14.5.3 23.6 10.7 23.6 21.7 0 5.4-1.1 10.4-3.1 14.6 4.7-1.7 9.3-3.4 14-5 .4-2.2.6-4.4.6-6.6 0-20-15.7-36.9-36.6-37.8-22.6-1-42.4 16.8-42.4 40 0 11.1 4.6 20.8 11.9 27.6 5.3-1.5 10.6-3.1 15.9-4.9C162.1 230.6 164.8 219.3 164.8 219.3zM325.6 208.2c0-7.9 4.8-17.3 13.9-17.1 7 .1 11.5 7.4 11.5 15.2 0 4.9-.9 9.3-2.5 12.6 2.1.4 4.3.7 6.4 1 1.1-3.5 1.8-7.4 1.8-11.4 0-14.1-7.8-26-18-26.4-10.7-.5-19.9 11.8-19.9 27.5 0 1.1 0 2.2.1 3.3 2.5.5 4.9 1.1 7.4 1.6C325.9 212.6 325.6 210.4 325.6 208.2z"/><path fill="#ca2027" d="M339.1 195.6c-5.8 0-9.5 6.2-9.5 13.1 0 2.4.5 4.1 1.3 5.4.3.5.4.7.3 1.2.8.2 1.5.3 2.3.5.3-1.7.5-2.9.5-2.9s-.6-1.7-.6-4.3c0-4 1.7-7.1 3.7-7.1 1.7 0 2.6 1.8 2.6 4 0 2.5-1.1 6.2-1.7 9.6-.1.6-.1 1.1-.1 1.6 2 .4 4.1.8 6.2 1.2 1.7-2.6 2.7-7.1 2.7-12.1C346.7 200 344 195.7 339.1 195.6zM476.2 211c.2.1.3 0 .4-.4 0-.3.1-1.1.2-1.4 0-.4 0-.6-.1-.9-.3-.8-.5-1.8-.5-3.3 0-.2 0-.3 0-.5-.5 0-1 .1-1.5.1C474.6 207.5 475.1 210.1 476.2 211zM329.7 218.6c.5.2.9 0 1-.7.1-.5.3-1.7.4-2.2 0-.1 0-.2 0-.3-1.5-.3-3.1-.7-4.6-1C327.2 216.3 328.3 217.9 329.7 218.6z"/><path fill="#900818" d="M159.5 241.2c.2-.7.5-2.2 1-4-5.3 1.8-10.6 3.4-15.9 4.9 4 3.7 8.9 6.6 14.2 8.4C158.7 247.7 158.8 244.3 159.5 241.2zM480.6 214.9c-.8.1-1.5-.9-1.8-2 0 0-.4 3.9-.5 4.6-.2 1.3-.5 2.6-.7 3.7.7.4 1.4.6 2.1.5 3.9-.4 7-7.9 7-16.9 0-.4 0-.8 0-1.2-.8 0-1.5.1-2.2.2C484.4 210 482.8 214.8 480.6 214.9z"/><path fill="#ca2027" d="M479.3,208.9c-0.2,1.8,0.4,3.2,1.1,3.2c1.3-0.1,2.2-3.7,2.3-8.2c-1,0.1-1.9,0.1-2.8,0.2 C479.8,205.5,479.5,207.3,479.3,208.9z"/><path fill="#900818" d="M180.2,236.1c-3.4,0.2-6.6-1-8.5-2.8c-0.5,0.2-1,0.4-1.6,0.6c-0.7,2.8-2,7.8-2.3,9 c-0.9,3.1-2.5,6.3-4.1,8.8c3.7,0.7,7.5,0.9,11.4,0.5c18.5-1.9,33-16.1,36-33.2c-4.7,1.6-9.3,3.3-14,5 C193.7,230.9,187.8,235.6,180.2,236.1z"/><path fill="#ca2027" d="M427,215.2c0.8,0,1.4-0.8,2-2c-1.1,0.3-2.3,0.6-3.4,0.9C425.9,214.8,426.4,215.2,427,215.2z"/><path fill="#900818" d="M341.3 224.7c-2 .1-3.9-1.3-4.6-3.1 0 0-1.1 6.3-1.3 7.6-.4 2.1-1.2 4.3-1.9 6 1.7.6 3.6.8 5.4.6 7.3-.7 13.3-7.2 16.2-16-2.1-.3-4.3-.7-6.4-1C346.9 222.3 344.4 224.5 341.3 224.7zM476.7 220.6c0-1.2 0-2.6.1-3.9.1-1.4 1-9.2 1-9.2s-.2-1.1-.2-2.7c0-.2 0-.4 0-.5-.5 0-1 .1-1.4.1 0 .2 0 .3 0 .5 0 1.5.2 2.5.5 3.3.1.4.2.5.1.9 0 .3-.1 1.1-.2 1.4 0 .4-.2.6-.4.4-1-.9-1.5-3.5-1.5-6.4-.8.1-1.7.2-2.5.2 0 .2 0 .3 0 .5C472.2 212.3 474 218.2 476.7 220.6z"/><path fill="#ca2027" d="M340.9,220.1c1.2-0.1,2.2-0.9,3.1-2.2c-2.1-0.4-4.1-0.8-6.2-1.2 C338.1,218.8,339.3,220.2,340.9,220.1z"/><path fill="#900818" d="M421.3 225.8c0-1.5 0-3.2.2-4.8.1-.8.4-3.5.8-6.1-2.2.6-4.4 1.1-6.7 1.6C416.8 220.8 418.8 224.1 421.3 225.8zM331.1 234.3c-.1-1.9 0-4.2.3-6.3.3-1.6 1.4-8.2 2-12.1-.8-.2-1.5-.3-2.3-.5 0 .1 0 .2 0 .3-.1.5-.3 1.7-.4 2.2-.1.7-.5 1-1 .7-1.5-.8-2.5-2.3-3.2-4.3-2.5-.5-4.9-1.1-7.4-1.6C320 222.9 324.7 231 331.1 234.3zM427.2 218.7c-1.2.1-2.3-1-2.7-2.4 0 0-.6 4.8-.8 5.8-.2 1.6-.7 3.3-1.1 4.6 1 .5 2.1.6 3.2.5 5-.5 9.1-7.1 10.3-15.7-1.3.3-2.6.7-4 1C431.1 216.1 429.4 218.5 427.2 218.7z"/></g><path fill="#620814" d="M667 304.5L667 199.9 1070.9 250 1070.9 437.8 -239.6 437.8 -239.6 313 667 199.9 667 304.5" clip-path="url(#b)"/><path fill="#350810" d="M92.4 271.5L431.5 271.5 397.7 281.8 9.9 281.8zM-.8 304.4L439.6 304.4 412.3 316.9-81.2 316.9z" clip-path="url(#b)"/><path fill="#350810" d="M421.2 304.4L461.9 304.4 453.6 308.6 411.2 308.6zM805.7 309.8L481.4 309.8 435.1 337.2 840.6 337.2z" clip-path="url(#b)"/><path fill="#350810" d="M557.2 292.9c-13.3 11.3-61.6 22.7-104.6 22.7s-49.2-11.4-20.7-22.7c22.9-9.1 61.9-15.2 90.8-15.2S567.9 283.8 557.2 292.9zM830.4 292.9c20 11.3 5.3 22.7-37.8 22.7s-82.7-11.4-87.5-22.7c-3.8-9.1 17-15.2 45.9-15.2S814.3 283.8 830.4 292.9zM660.9 247.7L635.4 247.7 588.8 319.8 652.8 319.8z" clip-path="url(#b)"/><path fill="#350810" d="M618.2 287.7L550.2 287.7 556.7 282.8 620.9 282.8zM750 287.7L682 287.7 681.1 282.8 745.3 282.8zM812.4 290.8L870.6 290.8 868 302.5 831.3 302.5z" clip-path="url(#b)"/><path fill="#ef4645" d="M962.3 341.9L371.8 341.9 435.9 311 445.8 311 402.6 332.8 931.5 332.8 888 311 898 311z" clip-path="url(#b)"/><path fill="#620814" d="M435.1 337.2L840.6 337.2 835.1 332.8 442.5 332.8z" clip-path="url(#b)"/><path fill="#ef4645" d="M1637.3 342.1L1045.9 342.1 963.3 311.1 973.2 311.1 1033.5 333 1563.1 333 1416 311.1 1425.9 311.1zM286.9 342.1L-304.4 342.1-93.1 311.1-83.1 311.1-230.3 333 299.3 333 359.6 311.1 369.5 311.1zM1027.7 249L823.1 249 809.3 244.6 813.4 244.6 823.8 247.8 1015 247.8 991.9 244.6 995.9 244.6zM560.6 249L356 249 383.3 244.6 387.3 244.6 367.5 247.8 558.7 247.8 565.5 244.8 569.5 244.8z" clip-path="url(#b)"/><g clip-path="url(#b)"><path fill="#fff" d="M694.1,238.7c14-7.1,28.1-14.1,42.1-21.2c4.5-2.2,9-4.5,14-5c5-0.4,10.5,1.4,13,5.7 c1.2,2,1.6,4.5,2.9,6.4c2.4,3.7,7.5,4.9,11.8,4.1c4.4-0.8,8.2-3.2,12-5.5c17.9-10.8,36.5-20.2,55.8-28.2 c4.3-1.8,9.1-3.6,13.6-2.2c9.3,2.8,10.2,15.7,16.4,23.1c6.5,7.7,18.1,8.5,27.9,6.4s19.1-6.7,29-7.8c21.5-2.3,41,11.5,58.2,24.6"/></g><g clip-path="url(#b)"><path fill="#350810" d="M895.7,225.3c-1.2,6.9-1.2,14.4,0,22.3l0,0c0.1,0.8,11.1,1.5,26.6,1.9v-24.1L895.7,225.3z"/><path fill="#900818" d="M966.4,248.5c0,0,0-0.1,0-0.1c0.8-7.6,0.9-15.2,0-22.8l-44.1-0.2v24.1c5.5,0.1,11.5,0.2,17.8,0.2 C955.7,249.7,965.9,249.2,966.4,248.5z"/><path fill="#bd081c" d="M964.9,225.4c5.7,0.5-5.3,0.9-24.8,0.9c-19.5,0-39-0.4-43.5-0.9c-4.3-0.5,7.2-0.8,25.4-0.8 S959.4,225,964.9,225.4z"/><path fill="#350810" d="M944.5,225.4c2.1,0.2-2.4,0.4-10.1,0.4c-7.7,0-15.5-0.2-17.4-0.4c-1.9-0.2,2.7-0.3,10.2-0.3 S942.4,225.2,944.5,225.4z"/></g><g clip-path="url(#b)"><path fill="#fff" d="M637.7,239.5c-13.3-6.7-26.5-13.4-39.8-20c-4.5-2.2-9-4.5-14-5c-5-0.4-10.5,1.4-13,5.7 c-1.2,2-1.6,4.5-2.9,6.4c-2.4,3.7-7.5,4.9-11.8,4.1c-4.4-0.8-8.2-3.2-12-5.5c-17.9-10.8-36.5-20.2-55.8-28.2 c-4.3-1.8-9.1-3.6-13.6-2.2c-9.3,2.8-10.2,15.7-16.4,23.1c-6.5,7.7-18.1,8.5-27.9,6.4c-9.8-2.2-19.1-6.7-29-7.8 c-20.6-2.2-39.4,10.4-56.1,23H637.7z"/></g><g clip-path="url(#b)"><path fill="#ffdbc7" d="M386.4,105.3c-1.6-3.9-2.7-8.2-1.8-12.3c0.1-0.6,0.3-1.1,0.4-1.6c4.6-8.5-0.1-19.2-8.8-20.4 c-1.6-0.2-3.2,0-4.8,0.2c0,0-0.1,0-0.1,0c-0.1,0.1-0.1,0.1-0.2,0.2c-1.8,2.2-1.7,5.3-2,8.2c-0.8,10.7-5.8,13.7-4.2,17.1 c0.7,1.6,2.6,2.2,4.3,2.3c1.7,0.1,3.4-0.1,5.1,0.4c2.4,0.8,4.2,3.2,4.1,5.7l-0.9,8.9c2.5,0.5,5.2,0.2,7.4-1.1 c1.1-0.6,2.1-1.5,2.5-2.7C387.9,108.7,387.1,106.9,386.4,105.3z"/><path fill="#ff9179" d="M374.3,99.4c-1.6-0.5-3.4-0.3-5.1-0.4c-1.7-0.1-3.6-0.8-4.3-2.3c-1.5-3.4,3.4-6.4,4.2-17.1 c0.2-2.8,0.2-6,2-8.2c0.1-0.1,0.1-0.1,0.2-0.2c-3.4,0.4-7,1.3-8.9,4.1c-2.8,5.2-1.9,9.3-2.2,10.7c-0.2,1.1-1,2.1-1.3,3.2 c-0.6,2.5,1.3,4.5,0.8,8.6c-0.2,1.5-0.9,3.9,2.8,4.6c1.5,0.3,3,0.2,4.5,0c1.1,0.2,2.2,0.8,3,1.6c1.3,1.3,2.1,3.2,2.6,5 c0.4,1.2,0.7,2.6,1.5,3.5c0.8,0.9,2,1.3,3.1,1.5c0.1,0,0.2,0,0.3,0.1l0.9-8.9C378.5,102.6,376.7,100.2,374.3,99.4z"/><path fill="#ff9179" d="M376.3,71c-1.6-0.2-3.2,0-4.8,0.2c0,0-0.1,0-0.1,0c-0.1,0.1-0.1,0.1-0.2,0.2 c-1.8,2.2-1.7,5.3-2,8.2c-0.2,2.7-0.7,5-1.3,6.8c1.2-1,3.2-0.8,4,0.7c0.6,1.1,0.4,2.4,0.5,3.7c0.3,2.9,2.4,5.4,5.1,6.7 c2.1,1,4.5,1.4,7,1.5c-0.3-2-0.3-4,0.1-5.9c0.1-0.6,0.3-1.1,0.4-1.6C389.6,82.9,385,72.1,376.3,71z"/><path fill="#951223" d="M371.2,71.4c0.1-0.1,0.1-0.1,0.2-0.2c-2.2,0.3-4.5,0.7-6.4,1.8c-0.7,0.4-2.3,1.3-2.3,2.3 c0,1.2,2.7,2.9,2.7,3.6c0,0.3-0.2,0.4-2.1,2.3c2.6,3.2,2.7,2.8,1.9,6.8c0,0.1,0,0.1,0,0.2l1.7,0.5c0.1-0.6,0.3-1.3,0.6-1.8 c0.1-0.2,0.3-0.4,0.5-0.5c0.6-1.9,1-4.1,1.3-6.8C369.4,76.7,369.4,73.6,371.2,71.4z"/><path fill="#f20973" d="M378.4,71.5c-1.6-0.7-3.4-1.4-5.1-1.8c-0.8,0.4-1.6,1-2.1,1.7c-1.8,2.2-1.7,5.3-2,8.2 c0,0.6-0.1,1.2-0.2,1.8c0.2,0.1,0.5,0.1,0.7,0.2c2.2,0.6,4.3,1.9,5.6,3.8c1.4,2.1,3.1,8,8,9.9c0.3,0.1,0.7,0.2,1,0.3 c0-0.8,0.1-1.7,0.3-2.5c0.1-0.6,0.3-1.1,0.4-1.6C389.2,83.6,385.7,73.9,378.4,71.5z"/><path fill="#a00149" d="M371.2,71.4c0.6-0.7,1.3-1.3,2.1-1.7c-3-0.8-5.8-1.1-6.8-0.7c-1.7,0.6-4.9,3.5-3.8,6.5 c0,0.1,0.1,0.3,0.2,0.4c0,0,0,0,0,0h0c0.6,1.1,2.5,2.4,2.5,3c0,0.3-0.2,0.4-1.8,2c1.9,0,3.7,0.1,5.5,0.5 c0.1-0.6,0.1-1.2,0.2-1.8C369.4,76.7,369.4,73.6,371.2,71.4z"/><path fill="#ffdbc7" d="M373.6,80.4c0,0-1-0.7-4.3-1.5c0,0.2,0,0.3,0,0.5C370.5,79.6,372,79.9,373.6,80.4z"/><path fill="#ff9179" d="M364.7,79c0,0,1.8,0,4.5,0.4c0-0.2,0-0.3,0-0.5c-1.4-0.4-3.2-0.7-5.4-1.1L364.7,79z"/><path fill="#ffb3a2" d="M368.6,87.3c0.3-0.5,0.9-0.6,1.4-0.5c0.5,0.2,0.9,0.7,1.1,1.2s0.2,1.1,0.1,1.6 c-0.3,1.8-1.3,3.6-2.8,4.6c-0.5,0.3-1.1,0.6-1.6,0.2"/><path fill="#ff1f09" d="M135,299.1H0v-11.4h135c23.2,0,43-2.2,60.5-6.8c17.5-4.5,32.3-11.3,45.3-20.7 c12.9-9.3,23.8-21,33.2-35.8c9.3-14.6,17-31.9,23.6-52.8c8.7-27.9,21-50.1,36.6-66.3c14.4-15,31.2-24.3,49.8-27.6 c36.9-6.6,77.2,11.7,105.2,47.9c45.7,58.9,70.7,63.8,94.4,63.8v11.4c-12.6,0-28-1.4-46-12.1c-17.6-10.4-35.8-28.3-57.4-56.1 c-25.4-32.8-61.5-49.5-94.2-43.7c-16.2,2.9-30.9,11.1-43.6,24.3c-14.3,14.8-25.7,35.6-33.9,61.8c-6.9,21.9-15,40.1-24.9,55.5 c-10.2,16-22,28.7-36.1,38.9c-14.2,10.2-30.2,17.6-49.1,22.5C179.8,296.8,159.1,299.1,135,299.1z"/><path fill="#ff1f09" d="M62.5 287.7h2.4c4.9 0 9.7-1 14.1-3l2-.9c2.9-1.3 6.3-.9 8.9.9 2.7 1.9 6 3 9.3 3h6.6M481.5 116.5l1.3 1.6c3.2 3.9 7.4 7 12.1 9l2.2.9c3 1.3 4.9 4.3 4.8 7.5-.1 3.5 1.1 6.9 3.3 9.6l4.1 4.9-2 .7L480.3 118 481.5 116.5zM260.8 242l1.4-1.7c3.2-3.9 5.3-8.7 5.9-13.7l.3-2.6c.4-3.1 2.6-5.7 5.6-6.5 3.2-.9 5.8-3.1 7.4-6l2.9-5.6 1.5 1.4-11.5 22.2-12.2 14.1L260.8 242zM322.4 120.3l1.2-1.7c2.9-3.9 4.9-8.4 5.9-13.2l.4-1.7c.7-3.3 3.5-5.6 6.9-5.8 3.7-.2 7.3-1.4 10.2-3.7l5.4-4 1.6 2.3-27.3 27.2L322.4 120.3z"/><path fill="#951223" d="M384.7,84c-18.6,3.3-35.4,12.6-49.8,27.6c-15.5,16.1-27.8,38.4-36.6,66.3 c-6.6,20.9-14.3,38.2-23.6,52.8c-9.4,14.8-20.3,26.5-33.2,35.8c-13,9.4-27.8,16.2-45.3,20.7c-17.5,4.6-37.3,6.8-60.5,6.8H0.8v5.1 H135c24.1,0,44.9-2.3,63.3-7.1c18.9-4.9,34.9-12.3,49.1-22.5c14.1-10.2,25.9-22.9,36.1-38.9c9.9-15.5,18-33.6,24.9-55.5 c8.2-26.2,19.6-46.9,33.9-61.8c12.7-13.2,27.4-21.4,43.6-24.3c32.7-5.9,68.8,10.9,94.2,43.7c21.6,27.9,39.8,45.7,57.4,56.1 c18,10.7,33.3,12.1,46,12.1v-5.1c-23.5-0.1-48.5-5.5-93.7-63.8C461.9,95.8,421.6,77.4,384.7,84z"/></g><g clip-path="url(#b)" opacity=".21"><path fill="#82ab0a" d="M392.8,130.3c0.5,0,0.5-0.8,0-0.8C392.2,129.5,392.2,130.3,392.8,130.3L392.8,130.3z"/></g><g clip-path="url(#b)"><path fill="#f27473" d="M388.8,268.7c0.5,3.2,1,6.5,1.5,9.7c0.1,0.8,0.3,1.6,0.7,2.2c0.4,0.6,1.1,1,1.8,1.2 c3,0.9,6.2-0.7,9.4-1.2c1.6-0.2,3.2-0.2,4.8-0.4s3.2-0.9,4.1-2.3c0.4-0.6,0.7-1.6,0.1-2.1c-0.2-0.3-0.6-0.4-0.9-0.5 c-2.9-0.8-6.3-0.9-8.6-2.9c-1.3-1.2-2-2.9-2.4-4.7c-0.1-1.4-0.2-3-0.2-4.6l-11.2,1.6C388.3,266,388.6,267.3,388.8,268.7 L388.8,268.7z"/></g><g clip-path="url(#b)"><path fill="#620814" d="M389.3,124.6l32.4,9.6c3,0.9,6.3,0.3,8.8-1.7l18.1-14.4l-5.9-6.7l-18.1,10.3L399.2,111 c-12.7-5.2-24.7-6.9-24.7-6.9L389.3,124.6z"/><path fill="#620814" d="M395,113c-2.8-4.3-7.9-5.9-12.5-7.2c-1.6-0.5-3.1-0.8-4.4-1.1c0.3,0.7,0.5,1.3,0.7,2 c1.4,4.4,0.6,9.5-1.9,13.4c-3,4.5-8,7.2-11.1,11.6c-3.1,4.5-3.8,10.5-1.9,15.6c1.9,4.9,6,8.7,7.1,13.8c0.9,4.2-0.5,8.9-3.7,11.8 c-4.8,4.4-12.6,4.9-16.4,10.1c-1.2,1.6-1.8,3.4-2.1,5.3c2.6,0.2,5.3,0,7.8-0.5c9.9-2.3,18.7-10.8,28.6-15.4 c-2.4-8.7-2.1-11.6,0.7-19.4c1.9-5.4,3.9-10.7,5.9-16C394.4,130.4,399.9,120.5,395,113z"/></g><g clip-path="url(#b)"><path fill="#900818" d="M341.5,264.2c0.5-1.3,1-2.7,1.5-4l-6-0.7c-0.5,1.2-1.1,2.5-1.7,3.9L341.5,264.2z"/><path fill="#f2c8bd" d="M331.9,270.9c-0.8,1.9-1.7,3.8-3.1,5.2c2.2,1.7,2.9-1.6,5.5-2.4c0.8-0.2,1.8-0.2,2.5,0.4 c0.3,0.2,0.5,0.5,0.7,0.9c0.5-2,1.1-3.4,1.7-4.8c0.8-2,1.6-4,2.4-6l-6.3-0.9C334.2,265.6,333.1,268.1,331.9,270.9z"/><path fill="#f2091b" d="M336.7,274.2c-0.7-0.6-1.6-0.6-2.5-0.4c-2.5,0.8-3.3,4.1-5.5,2.4c0,0,0,0,0,0 c-1.4,1.3-3.1,2.1-5,2.5c0.2,0.1,0.5,0.3,0.7,0.4c3.9,2,4.9,3,8.4,2.3c0.6-0.1,1.2-0.3,1.7-0.6c1.7-0.9,2.3-2.7,2.6-4.6 c0.1-0.4,0.1-0.8,0.2-1.2C337.1,274.7,336.9,274.4,336.7,274.2z"/><path fill="#350810" d="M329.7,262.6l5.5,0.7c0.6-1.4,1.2-2.7,1.7-3.9l-6.5-0.8C330.2,260,329.9,261.3,329.7,262.6z"/><path fill="#f27473" d="M326,272.9c0.2,0.6,0.7,1.1,2,2.5c0.3,0.3,0.5,0.6,0.8,0.7c1.5-1.4,2.3-3.4,3.1-5.2 c1.2-2.8,2.3-5.3,3.3-7.6l-5.5-0.7c-0.3,1.8-0.6,3.6-1,5.4l0,0c-0.1,1.7-1.4,2.7-2.8,3.7C325.8,272.1,325.8,272.6,326,272.9z"/><path fill="#620814" d="M328.7,276.2c-0.2-0.2-0.5-0.4-0.8-0.7c-1.3-1.4-1.8-1.9-2-2.5c-0.1-0.4-0.2-0.8,0-1.2 c-1,0.7-2,1.3-2.7,2c-0.9,1-1.5,2.5-0.8,3.7c0.3,0.5,0.8,0.9,1.4,1.3C325.6,278.3,327.3,277.5,328.7,276.2 C328.7,276.2,328.7,276.2,328.7,276.2z"/></g><g clip-path="url(#b)"><path fill="#f2c8bd" d="M448.5,118.1c1.2-1.1,2.4-2.3,3.5-3.6c0.4-0.5,0.8-1,1.1-1.6c0.7-1.5,0.6-3.2,0.4-4.8 c-0.4-3,0.1-3,3.7-7c1.2-1.3,1.1-2,0.4-2.8c-0.4-0.5-2.1-2.5-2.6-2.7c-0.2-0.1-0.4-0.1-0.6,0c-2.4,0.2-4.4,1.9-6,3.7 c-0.3,0.4-0.7,0.8-0.9,1.2c-0.7,1.4-0.5,4.1-1.5,6.9c-1.2,3.3-3.1,4-3.4,4.4c-0.4,0.6-0.5,2.8,0.8,4.5c0.8,1.1,2.1,1.8,3.4,2.1 c0.4,0.1,0.9,0.1,1.3-0.1"/></g><g clip-path="url(#b)"><path fill="#f2c8bd" d="M446.4,113c-0.8,0.1-1.7-0.3-2.3-0.8c-0.2-0.2-0.9-0.6-0.9-0.9c0-0.2,0.7-0.9,0.9-1.1 c0.3-0.4,0.5-0.8,0.6-1.3c0.1-0.8-0.1-1.6-0.1-2.4c-0.1-0.9-0.1-1.7-0.2-2.6c-0.1-1.7-0.2-3.4-0.3-5.1c-0.1-1.3,0.1-1.7,0.9-2.6 c2.4-2.5,5.7-5.1,6.1-5.1c0.2,0,0.4,0.3,0.4,0.5c0.3,3-3.9,4.2-4.2,7.1c0,0.4,0,0.8,0.1,1.3c0.8,4.4,2.5,8.1,1.8,10.4 C448.7,111.7,447.7,112.8,446.4,113z"/></g><g clip-path="url(#b)"><path fill="#f2c8bd" d="M444,110.4c0.4-0.8,0.2-1.7-0.3-2.4c-0.5-0.7-1.2-1.2-1.9-1.6c-0.5-0.3-1-0.5-1.4-0.9 c-0.6-0.6-0.8-1.4-1.2-2.1c-0.5-1-1.2-1.8-2-2.5c-0.2-0.2-0.5-0.5-0.5-0.8c0.1-0.3,0.5-0.4,0.8-0.4c1.6,0,3,1.1,3.9,2.4 c0.3,0.4,0.5,0.9,0.9,1.2c0.7,0.5,1.6,0.5,2.5,0.7c1.4,0.4,2.4,1.7,2.5,3.1c0.1,1.4-0.8,2.9-2.1,3.4 C444.8,110.8,444.2,110.9,444,110.4"/></g><g clip-path="url(#b)"><path fill="#350810" d="M315,167.4c-0.9,0.8-2.7,3-3.8,3.4c-1.2,0.4-3.9-1.4-4.6-2.4c-2.9-3.8,11.2-14.1,17.5-23.2 c3.4-4.9,3.4-7.4,12.9-23c5.1-8.4,7.4-11.8,13.6-14.4c7.8-3.3,18.8-3.8,18.8-3.8c0.8,0.6,1.3,3.8,1.4,4.8c0.4,3-1.5,5.8-3.4,8.1 c-3.7,4.4-8.2,8.3-13.3,11.5c-1.4,0.9-3.2,1.5-4.3,2.8c-2.6,3.1-4.7,6.7-7.2,9.9C329.4,158.6,323.1,160.3,315,167.4z"/></g><g clip-path="url(#b)"><path fill="#f2c8bd" d="M312.2,172c-2.7,2.7-7.3,2-9.1-1.4c-0.5-0.9-0.7-2-1.5-2.8c-0.6-0.7-1.5-1-2.4-1.4 c-0.6-0.3-3-1.5-3-2.2c0-0.3,0.2-0.6,0.6-0.7c0.3-0.1,0.6-0.1,1,0c7.3,1,8.1,1.4,9.4,0.6c0.6-0.4,1.3-1.4,1.3-1.4l4.8,6.4"/></g><g clip-path="url(#b)"><path fill="#f2c8bd" d="M301.7,167c-2.5,2.5-5,5-7.4,7.5c-0.8,0.8-1.7,1.7-1.8,2.9c0,0.2,0,0.4,0.1,0.5 c0.2,0.2,0.5,0.1,0.7,0c0.8-0.3,1.4-0.8,2.1-1.2c3.2-2.3,6.2-4.7,9.2-7.3"/></g><g clip-path="url(#b)"><path fill="#f2c8bd" d="M303.2,169.8c-2.7,3.3-5.4,6.6-8.1,9.9c-0.2,0.2-0.4,0.5-0.5,0.7c-0.1,0.3-0.1,0.7,0.1,1 c0.4,1.1,1.5,1.9,2.6,2.3c0.7,0.3,1.5,0.5,2.3,0.3c0.6-0.1,1.1-0.5,1.5-0.8c3.5-2.5,6.7-5.6,9.6-8.9c0.7-0.8,1.4-1.6,1.5-2.7 c0.1-1.2-0.6-2.2-1.3-3.2"/></g><g clip-path="url(#b)"><path fill="#f2c8bd" d="M309.9,169.7c-2.7,3.8-4.9,8-6.5,12.4c-0.2,0.5-0.3,1.2,0.2,1.5c0.4,0.2,0.9-0.2,1.2-0.6 c2.6-3.1,5-6.5,6.8-10.1c1.6-3.1,1.6-3.9,1.6-3.9"/></g><g clip-path="url(#b)"><path fill="#350810" d="M378.9,106.6c-0.2-0.7-0.5-1.3-0.7-2c-3.8-0.8-6.9-0.9-12.6-0.4c-1.4,0.1-2.9,0.3-4.3,0.6 c-3.9,1-7.5,3.4-9.8,6.8c-2.3,3.3-3.1,8.3-3.6,12.2c-1.9,14.7,2.4,30.1-2.5,44.4c-1.4,4.1-3.5,7.9-4.8,12 c-0.5,1.7-0.9,3.5-1.2,5.2c3,1.5,6.2,2.4,9.5,2.7c2.6,0.2,5.3,0,7.8-0.5c3.8-0.9,7.4-2.7,11-4.8c-0.6-1.8-0.8-3.8-0.5-5.7 c0.3-2.6,1.3-5.1,2.5-7.4c-0.1,0.1-0.2,0.3-0.2,0.4c1.6-2.7,2.2-6,1.6-9.1c-1.1-5.1-5.2-9-7.1-13.8c-2-5.1-1.2-11.1,1.9-15.6 c3.1-4.4,8.2-7.1,11.1-11.6C379.5,116.1,380.2,111.1,378.9,106.6z M368.3,171.8c-0.3,0.4-0.6,0.7-1,1 C367.7,172.5,368,172.2,368.3,171.8z M369.3,170.4c-0.2,0.4-0.5,0.7-0.8,1.1C368.8,171.2,369.1,170.8,369.3,170.4z"/></g><g clip-path="url(#b)"><path fill="#f27473" d="M368.2,191.1c2.2-2.1,6.3-2.5,8,0c0.7,0.9,0.9,2.1,1.1,3.2c0.3,2.4,0.3,4.9,0,7.3 c-0.5,4-1.9,8.3-0.1,11.9c1.4,2.8,4.4,4.4,6.8,6.5c3,2.6,5,6.3,5.7,10.2c0.6,3.4,0.2,6.8,0,10.2c-0.4,6.3-0.4,12.7,0.1,19 l9.3-1.2c0-10.7,0.6-23.1-1-32c-3.2-17.4-7.3-34.7-12.2-51.8c-0.2-0.7-0.4-1.5-0.6-2.1c-9.8,4.5-18.7,13.1-28.6,15.4 c-2.6,0.6-5.2,0.8-7.8,0.5c-0.8,5.4,1.4,11.4,1.6,16.6c0.3,9.3-7.6,13.4-9.2,22c-1,5.4,0.9,11,0.6,16.5c-0.2,4.4-1.6,8.2-5,16.1 l6,0.7c6.7-18.9,11.1-38.7,18.2-57.5c0.8-2.1,1.7-4.3,3.3-5.9c0.3-0.3,0.5-0.5,0.8-0.7C365.9,194.2,366.8,192.5,368.2,191.1z"/><path fill="#900818" d="M390.4,264.4l8.8-1.3c0-1.6-0.1-3.2-0.1-4.8l-9.3,1.2C390,261.1,390.2,262.7,390.4,264.4z"/><path fill="#350810" d="M389.9,259.5l-2.8,0.4c0.3,1.6,0.6,3.2,0.9,4.8l2.3-0.3C390.2,262.7,390,261.1,389.9,259.5z"/><path fill="#f27473" d="M391.9,272.9c0.1,0,0.1,0.1,0.2,0.1c-0.6-1.8-1-3.8-1.3-5.6c-0.2-1-0.3-2-0.4-3.1l-2.3,0.3 c0.3,1.3,0.6,2.6,0.9,3.9c0.2,1.3,0.4,2.6,0.6,4C390.3,272.5,391.1,272.6,391.9,272.9z"/><path fill="#f2c8bd" d="M390.8,267.4c0.3,1.8,0.7,3.8,1.3,5.6c1.6,0.9,2.6,2.8,4.3,3.4c1.4,0.5,3.1,0.1,4.4-0.7 c0.4-0.3,0.8-0.6,1.1-1c0.4-0.7,0.4-1.6,0.1-2.3c0,0,0,0-0.1-0.1c-1.3-1.2-2-2.9-2.4-4.7c-0.1-1.4-0.2-3-0.2-4.6l-8.8,1.3 C390.5,265.4,390.6,266.4,390.8,267.4z"/><path fill="#620814" d="M392.1,273c-0.1,0-0.1-0.1-0.2-0.1c-0.7-0.3-1.6-0.4-2.4-0.3c0.3,1.9,0.5,3.9,0.8,5.8 c0.1,0.8,0.3,1.6,0.7,2.2c0.4,0.6,1.1,1,1.8,1.2c2.2,0.7,4.5,0,6.9-0.6c-0.2,0-0.4-0.1-0.6-0.1 C395.5,280.1,393.4,276.8,392.1,273z"/><path fill="#f2091b" d="M411.4,275.8c-0.2-0.3-0.6-0.4-0.9-0.5c-2.9-0.8-6.3-0.9-8.5-2.9c0.3,0.8,0.4,1.6-0.1,2.3 c-0.3,0.4-0.7,0.7-1.1,1c-1.3,0.8-2.9,1.3-4.4,0.7c-1.7-0.7-2.7-2.6-4.3-3.4c1.3,3.8,3.4,7,7.1,8c0.2,0,0.4,0.1,0.6,0.1 c0.8-0.2,1.7-0.4,2.5-0.5c1.6-0.2,3.2-0.2,4.8-0.4s3.2-0.9,4.1-2.3C411.7,277.3,411.9,276.3,411.4,275.8z"/></g><g clip-path="url(#b)"><path fill="#900818" d="M389.7,240.5c0.2-3.4,0.6-6.9,0-10.2c-0.7-3.9-2.8-7.6-5.7-10.2c-2.4-2.1-5.4-3.7-6.8-6.5 c-1.8-3.6-0.4-7.9,0.1-11.9c0.3-2.4,0.3-4.9,0-7.3c-0.2-1.1-0.4-2.3-1.1-3.2c-0.4-0.5-0.8-0.9-1.3-1.1c0,0,0.1,0,0.1,0 c-2.3-1.4-4.3-2.2-6.1-4.7c-0.5-0.7-0.9-1.5-1.2-2.4c-3.6,2.1-7.2,3.9-11,4.8c-2.6,0.6-5.2,0.8-7.8,0.5v0v0 c-3.3-0.3-6.6-1.2-9.5-2.7c-1,6.6-0.5,13.5-0.7,20.3c-0.3,9.1-1.5,14.8-8.3,52.9l6.5,0.8c3.4-7.9,4.8-11.7,5-16.1 c0.3-5.5-1.7-11.1-0.6-16.5c1.6-8.6,9.5-12.7,9.2-22c0-0.5-0.1-1-0.1-1.4c0,0,0,0,0,0c0-1.1,0.1-2.2,0.2-3.4c0.2-2,0.6-4,1.8-5.6 c2.7-3.5,8.8-3.6,12.9,1.5c0,0,0,0,0,0c0,0,0,0.1,0,0.1c0.1-0.1,0.3-0.2,0.4-0.3c1.2,2.5,2.5,4.9,3.8,7.4 c5,9.9,8.8,20.3,12.4,30.8c2.6,7.3,3.5,16.7,5.1,25.9l2.8-0.4C389.3,253.2,389.3,246.8,389.7,240.5z"/></g><g clip-path="url(#b)"><path fill="#350810" d="M427.7,130.6c-3.6,0.1-15.4-2.5-26.2-8.7c-1.8-1-2.4-0.7-3.1,0.2c-1,1.3-1.8,2.8-2.3,4.4l25.6,7.6 c3,0.9,6.3,0.3,8.8-1.7l8.1-6.4C435.1,128.1,431.7,130.5,427.7,130.6z"/></g><g clip-path="url(#b)"><path fill="#951223" d="M572.4,189.8c-4.4,3.1-10.4,3.8-15.4,1.8l-0.6,5.6c9.6,2.9,18.2,3.6,25.9,3.7 c0.6-1.6,0.9-3.5,1.1-5.3c0.1-1.9,0.2-3.8-0.1-5.7c0-0.1-0.1-0.3-0.1-0.4c-3.2,0-6.4-0.1-9.7-0.4 C573.1,189.2,572.8,189.5,572.4,189.8z"/></g><g clip-path="url(#b)"><path fill="#f2091b" d="M481.5 270.2L477.6 270.2 479.6 263.9 483.5 263.9zM496.7 257.7H474c-1 0-1.8-.8-1.8-1.8v-7.4c0-1 .8-1.8 1.8-1.8h22.7c1 0 1.8.8 1.8 1.8v7.4C498.5 256.9 497.7 257.7 496.7 257.7z"/><path fill="#900818" d="M477.9,176.6c-1.9-4.7-5.9-7.9-9.6-8.8c-2.5-0.6-7.1-0.4-10.3,0.8c-2.1,0.8-3.9,2-5.4,3.6 c-0.1,0.3-0.2,0.5-0.3,0.8c-2.9,9.4,1.4,14-0.3,18.5c-1.2,3.2-3.8,4.4-14.3,10.6l-11.8-1.8c-17.5,8.4-31.9,28.8-32.2,60.2 h44.2c-0.2-0.8-0.4-1.6-0.6-2.5c-2.8-15,5.6-23.7,10.5-33.2c2.9-5.7,4.8-12.5,2.4-18.4c1.6-1.1,3.2-2.3,4.8-3.4 c1.2,2,2.5,3.4,4.3,5.1c0.4,0.4,0.9,0.8,1.4,1.1c1.1,0.5,2.4,0,3-1c0.2-0.3,0.5-1.2,1.1-1.1c0.4,0,0.7,0.6,1.1,0.7 c0.4,0.2,1-0.1,1.2-0.6c0.2-0.4,0.2-0.9,0.2-1.4c0.6,0.1,1.3,0.2,1.7-0.3c0.6-0.6,0.2-1.4,0.6-3.1c0.4,0.2,0.8,0.4,1.3,0.5 c0.6,0.1,1.3-0.2,1.7-0.7c0.5-0.9-0.3-2,0.3-4.8c0.5-2.3,1.4-2.4,3.1-3.8c2-1.6,3.1-4,3.5-6.5 C480,183.6,479.2,179.8,477.9,176.6z"/><path fill="#350810" d="M452,191.4c1.7-4.5-2.5-9.1,0.3-18.5c0.1-0.3,0.2-0.5,0.3-0.8c-1.8,1.9-3.2,4.3-3.8,6.9 c-0.7,3-0.6,6.1-1.7,9c-0.7,1.9-2,3.5-3.4,4.8c-4.1,3-9.4,4.1-14.3,5.9c-1.2,0.4-2.3,0.9-3.4,1.5l11.8,1.8 C448.2,195.8,450.8,194.6,452,191.4z"/><path fill="#f27473" d="M461.2,289c-4.2-6-8.5-12.1-14-17c-4.3-3.8-7.5-5.8-9.2-11.7h-19.6c-5.8,7.1-15,13.5-6.9,17.6 c4.7,2.4,10.3,2.6,15.5,3.3c5.9,0.7,11.8,2,17.1,4.9c5.9,3.2,9.4,7.8,11,11.3c1.5,0.3,2.8,0.4,4,0.3c1.7-0.2,3.5-1.2,4.1-2.8 C463.8,292.9,462.5,290.8,461.2,289z"/><path fill="#620814" d="M430.4,150.4l1.3,0.4c0.1,0,0.1-0.1,0.2-0.1C431.3,150.6,430.9,150.5,430.4,150.4z"/><path fill="#f2091b" d="M444.1,286.1c-5.2-2.8-11.1-4.2-17.1-4.9c-5.3-0.6-10.8-0.8-15.5-3.3 c-8.1-4.2,1.1-10.5,6.9-17.6h-24.6c0,0.4,0,0.9,0,1.3c0,4.6,1.2,12,3.8,15.8c7.9,12,26.4,9.3,40.6,14.2 c6.1,2.1,12.1,4.8,16.9,5.8C453.4,293.9,449.9,289.3,444.1,286.1z"/><path fill="#f20973" d="M418.7 260.1c-1.3 1.6-2.7 3.1-4.1 4.6h25.2c-1.1-1.7-1.9-3.8-2.5-6.8-.3-1.5-.5-3-.5-4.4h-14.3C421.8 255.5 420.6 257.6 418.7 260.1zM419.9 239.4c.4 1 .9 2.1 1.4 3.2h17c.1-.2.1-.4.2-.5-5.5.4-10.8-3.2-11.3-10.6h-8.8C418.5 234.3 419 237 419.9 239.4zM411.5 278c2.9 1.5 6 2.1 9.2 2.5 3-1.5 6-3.2 8.8-5.1h-20.9C409.1 276.4 410 277.3 411.5 278zM434.1 209.5h-6c-3.6 3.6-6 7.4-7.6 11.2h8.4c.9-3.4 2.2-6.7 3.7-9C433 210.9 433.5 210.1 434.1 209.5z"/><path fill="#f29b9a" d="M422.5 253.5h14.3c-.2-4 .4-7.6 1.6-10.8h-17C422.7 245.7 423.9 249 422.5 253.5zM441.4 204.5c3.1-.9 6.7-.3 9.2 1.6.5-.3.9-.7 1.4-1-2.3-2-5.5-2.7-8.6-3-1.7-.2-3.4-.2-5-.4-4.1 2.4-7.5 5-10.2 7.8h6C436 207.1 438.5 205.3 441.4 204.5zM418.4 231.5h8.8c0-.2 0-.4 0-.6-.1-2.5.6-6.4 1.7-10.2h-8.4C419 224.3 418.4 228 418.4 231.5zM408.6 275.5h20.9c.5-.3 1-.7 1.5-1 3.6-2.5 7-5.5 9.2-9.2-.1-.2-.3-.4-.4-.6h-25.2C410.7 268.8 407.1 272.5 408.6 275.5z"/><path fill="#620814" d="M430.4 150.4l1.3.4c.1 0 .1-.1.2-.1C431.3 150.6 430.9 150.5 430.4 150.4zM395.6 242.6h25.8c-.5-1.1-1-2.2-1.4-3.2-.9-2.4-1.4-5.1-1.5-8h-19.7C397.5 234.9 396.4 238.7 395.6 242.6zM393.8 258.9L393.8 258.9c0 .9 0 1.9 0 2.8 0 .4 0 .8 0 1.2v1.7h20.8c1.4-1.5 2.8-3 4.1-4.6 2-2.4 3.1-4.6 3.8-6.6H394C393.9 255.3 393.8 257.1 393.8 258.9zM412.8 209.5c-3.3 3.2-6.2 6.9-8.8 11.2h16.5c1.5-3.8 4-7.6 7.6-11.2H412.8zM393.8 287.4c0 0 2.2 1.3 14.1-2.2.1 0 .2.1.3.1 3-.9 6-1.9 8.9-3.1 0 0 0 0 0 0l0 0c1.2-.5 2.4-1.1 3.6-1.6-3.2-.4-6.4-1.1-9.2-2.5-1.5-.8-2.4-1.6-2.9-2.5h-14.9V287.4z"/><path fill="#f20973" d="M438.3 201.7c-1.6-.2-3.2-.4-4.7-.9-1.4-.5-2.7-1.2-3.8-2.1-.1 0-.2.1-.4.1-5.9 2.3-11.6 5.8-16.6 10.7h15.3C430.8 206.7 434.2 204.1 438.3 201.7zM394 253.5h28.4c1.5-4.4.2-7.8-1.1-10.8h-25.8C394.9 246.1 394.3 249.7 394 253.5zM393.8 275.5h14.9c-1.5-3 2.1-6.7 5.9-10.8h-20.8V275.5zM398.8 231.5h19.7c-.1-3.4.6-7.1 2.1-10.8H404C402 223.9 400.2 227.5 398.8 231.5z"/><path fill="#350810" d="M392.3,281.3c4.8,1.8,7,3.3,8.7,4c2.7,1.1,4.8,1.1,10.7,2.2c3.9,0.7,7.7,1.5,11.6,2.2l-11.3,7.8 c0,0.2,0.5-0.1-0.1-0.3c-7.4-1.8-15.3-1.4-22.4,1.1c-4.5,1.6-5.1,2.9-8.1,5.4c-3.4,2.9-5.9,3.1-9.7,1.5"/><path fill="#900818" d="M392,281c0.6,0.1,1.1,0.7,1.2,1.3c0.1,0.6-0.1,1.3-0.3,1.9c-1.5,3.8-5.2,6.4-7.6,9.8 c-2.2,3-3.4,6.7-6.2,9.2c-1.3,1.2-4.1,2.8-5.9,2.7c-1,0-2.1-0.7-2.4-1.7c-0.3-0.8,0-1.7,0.4-2.5c1.6-3.4,4.5-5.9,7.4-8.2 c2.8-2.2,4.9-3.7,8.9-9.4c0.6-0.8,1.1-1.6,1.9-2.2C390.1,281.2,391,280.9,392,281"/><path fill="#f27473" d="M422.8,298.8c6.2,0.3,12.5-1.4,18.4,0.5c3.8,1.2,7,3.7,10.7,5.3c3.7,1.5,8,1.7,10.7-1.3 c1.5-2.6,2.1-5.8,1-9l-0.5-1.6l-17.4-3l-25.1-0.6v9.5C421.3,298.6,422.1,298.7,422.8,298.8z"/><path fill="#620814" d="M406.5,297.3c2.5-1.2,8.8,0.6,14.1,1.3V289l-16.9-0.4c-2.2-0.2-5.7,0-9.1,1.4l6.5,24.7l3.9,0.8 c-0.5-1.4-1-2.8-1.3-4.3C401.5,303.2,404.3,298.4,406.5,297.3z"/><path fill="#f2091b" d="M451.9,304.5c-3.7-1.5-6.9-4.1-10.7-5.3c-5.9-1.8-12.3-0.1-18.4-0.5c-0.7,0-1.4-0.1-2.2-0.2v4.5 l30.7,5.4c4.8,0.8,9.1-1.5,11.4-5.2C459.9,306.1,455.6,306,451.9,304.5z"/><path fill="#350810" d="M414,315.3c1.3-2.6-3.2-4.8-5-7.8c-1.5-2.5-1.1-4.7-0.7-6.6l12.2,2.2v-4.5 c-5.3-0.7-11.6-2.4-14.1-1.3c-2.2,1.1-5,5.9-2.9,14c0.4,1.4,0.9,2.9,1.3,4.3l5.2,1.1C411.6,316.7,413.3,316.6,414,315.3z"/><path fill="#f2091b" d="M403.6,301c-0.6-2.7-0.8-5.6-0.9-8.4c0-1.1-0.1-2.2-0.6-3.2c-0.2-0.4-0.5-0.7-0.9-0.9 c-2,0.1-4.3,0.5-6.7,1.4l6.5,24.7l3.9,0.8c-0.5-1.4-1-2.8-1.3-4.3C402.4,306.8,402.7,303.4,403.6,301z"/><path fill="#620814" d="M414,315.3c1-2.1-1.6-3.9-3.6-6c-0.7,0.5-1.8,0.4-2.6,0c-0.9-0.5-1.4-1.3-1.9-2.2 c-1.1-1.9-1.8-3.9-2.3-6c-0.9,2.4-1.2,5.8-0.1,10.2c0.4,1.4,0.9,2.9,1.3,4.3l5.2,1.1C411.6,316.7,413.3,316.6,414,315.3z"/><path fill="#f29b9a" d="M412.3,316.7c-3.9-0.6-7.6-3.6-9.9-6.8c-3.3-4.6-3.8-10.6-5.2-16.1c-0.2-1-1.4-5-3.1-3.4 c-0.4,0.3-0.5,0.8-0.6,1.3c-0.7,3.4,1,6.8,1.8,10.2c1.4,5.6,0.9,12.7,4.6,14.5c1,0.5,2.3,0.5,3.4,0.5 C405.6,316.9,410,316.9,412.3,316.7z"/><path fill="#350810" d="M480.1,264.7c-35.8-5.5-35.1-5.1-36.4-6.2c-1.2-1-1.5-2.7-1.7-4.2c-1.4-11.1-2.6-22.3-3.4-33.4 c-0.2-2.9-0.4-5.9,0.3-8.7c0.7-2.6,2.4-5.1,4.8-6.2c-6.5,0.5-9.9,8-9.8,15.7c0,1.6,2.4,19.3,5.5,36c0.5,2.5,1,3.7,3.6,4.8 c7.2,2.9,8.7,2,33.2,3.4c2.3,0.3,4.5,1,6.8,1.2c1.5,0.1,2.2-0.6,3.1-2.1c0.1-0.1,0.1-0.2,0.2-0.3 C484.3,265.2,482.2,265,480.1,264.7z"/><path fill="#900818" d="M492.4,256.9c-1.1-1-5.8-2.1-10-1.8c-3.5,0.2-5,2.6-7.6,2.1l0,0c-3.8-0.8-10.8-1.8-22.8-6.5 c-0.8-0.3-0.7-0.4-0.7-1.1v-34c0-5.7-1.4-8.6-4.1-9.4c-1.2-0.3-2.4-0.5-3.5-0.4c-2.4,1.1-4.1,3.6-4.8,6.2 c-0.7,2.8-0.6,5.8-0.3,8.7c0.9,11.2,2,22.3,3.4,33.4c0.2,1.5,0.5,3.2,1.7,4.2c1.3,1.1,0.6,0.7,36.4,6.2 c2.1,0.3,4.2,0.6,6.3-0.1c1-1.6,1.9-3.3,2.8-4.9c1.8-0.4,3.5-0.2,3.8-1.2C493.1,257.9,492.8,257.3,492.4,256.9z"/><path fill="#620814" d="M452.7,169c-0.1-0.4,0.4-0.9,0.4-1.4c0-0.4-0.4-1-0.3-1.5c0.1-0.4,0.8-0.7,0.9-1.2 c0.1-0.4-0.2-1.1,0-1.5c0.2-0.4,0.9-0.6,1.1-1.1c0.2-0.4-0.1-1.1,0.1-1.5c0.2-0.4,0.9-0.5,1.2-0.9c0.2-0.4,0-1.1,0.3-1.5 c0.3-0.4,1-0.5,1.2-0.8c0.3-0.4,0.1-1.1,0.4-1.4c0.3-0.4,1-0.4,1.3-0.7c0.4-0.4,0.4-1.1,0.7-1.3c0.4-0.3,1.1,0,1.5-0.2 c0.4-0.2,0.7-0.9,1.2-1c0.5-0.1,1.1,0.3,1.5,0.2c0.5-0.1,0.9-0.6,1.4-0.7c0.5,0,0.9,0.6,1.4,0.6c0.5,0.1,1.1-0.4,1.5-0.3 c0.5,0.1,0.8,0.8,1.2,1c0.5,0.2,1.1-0.1,1.6,0.1c0.4,0.2,0.5,1,0.9,1.3c0.4,0.3,1.1,0.2,1.4,0.6c0.3,0.4,0.2,1.1,0.4,1.5 c0.2,0.4,0.9,0.7,1.1,1.1c0.1,0.3-0.4,0.7-0.4,1c0,0.3,0.6,0.6,0.6,0.9c0,0.3-0.6,0.5-0.6,0.8c0,0.3,0.4,0.7,0.4,1 c-0.1,0.3-0.7,0.4-0.8,0.7c-0.1,0.3,0.3,0.7,0.2,1c-0.1,0.3-0.7,0.3-0.9,0.6c-0.1,0.3,0.2,0.8,0.1,1c-0.2,0.3-0.8,0.2-0.9,0.4 c-0.2,0.2,0.1,0.8-0.1,1c-0.2,0.2-0.8,0.1-1,0.3c-0.2,0.2-0.1,0.8-0.3,1c-0.3,0.2-0.9,0.1-1.2,0.3c-0.3,0.2-0.3,0.9-0.6,1.1 c-0.3,0.2-0.9,0-1.3,0.2c-0.3,0.2-0.3,0.9-0.7,1.1c-0.3,0.2-0.9-0.1-1.3,0.1c-0.3,0.2-0.5,0.8-0.8,1c-0.4,0.1-0.9-0.3-1.3-0.2 c-0.4,0.1-0.7,0.7-1.1,0.7c-0.4,0-0.7-0.6-1.1-0.6c-0.4-0.1-0.9,0.4-1.2,0.3c-0.3-0.1-0.5-0.8-0.8-1c-0.3-0.2-0.9,0.1-1.3-0.1"/><path fill="#350810" d="M470.4,168.5c-2.4-1.5-5.3-2.4-7.1-4.7c-3.4-4.6,0.3-10.3,2.9-11.1c-0.2-0.1-0.3-0.1-0.5-0.1 c-0.5,0-0.9,0.6-1.4,0.7c-0.5,0.1-1.1-0.4-1.5-0.2c-0.5,0.1-0.7,0.8-1.2,1c-0.4,0.2-1.1,0-1.5,0.2c-0.3,0.2-0.3,0.9-0.7,1.3 c-0.3,0.3-1,0.3-1.3,0.7c-0.3,0.3-0.1,1-0.4,1.4c-0.3,0.4-1,0.4-1.2,0.8c-0.3,0.4,0,1.1-0.3,1.5c-0.2,0.4-0.9,0.5-1.2,0.9 c-0.2,0.4,0.1,1.1-0.1,1.5c-0.2,0.4-0.9,0.6-1.1,1.1c-0.2,0.4,0.2,1.1,0,1.5c-0.2,0.5-0.8,0.8-0.9,1.2c-0.1,0.5,0.3,1,0.3,1.5 c0,0.5-0.5,1-0.4,1.4l6.3,2c0.3,0.2,0.9,0,1.3,0.1c0.4,0.2,0.5,0.8,0.8,1c0.4,0.1,0.9-0.3,1.2-0.3c0.2,0,0.4,0.2,0.6,0.3 c2.6-0.9,5-2.1,7.3-3.5C470.3,168.6,470.4,168.5,470.4,168.5z"/><path fill="#620814" d="M477.9,176.6c-1.9-4.7-5.9-7.9-9.6-8.8c-2.5-0.6-7.1-0.4-10.3,0.8c-2.1,0.8-3.9,2-5.4,3.6 c-0.1,0.3-0.2,0.5-0.3,0.8c-2,6.7-0.5,10.9,0,14.4c1-0.9,1.9-1.9,2.6-3.1c0.5-1,0.9-2,1.6-2.8c0.8-0.8,2.1-1.1,2.9-0.3 c0.9,0.9,0.3,2.6,1,3.7c3.9-3.1,9.5-1.8,13.9-2c1.8-0.1,3.5-0.4,5.2-0.9C479.1,180.2,478.6,178.3,477.9,176.6z"/><path fill="#350810" d="M452.4,172.9c0.1-0.3,0.2-0.5,0.3-0.8c-1.8,1.9-3.2,4.3-3.8,6.9c-0.7,3-0.6,6.1-1.7,9 c-0.3,0.8-0.7,1.5-1.2,2.2c1-0.2,2-0.5,3-0.9c1.2-0.5,2.4-1.2,3.4-2C451.9,183.8,450.3,179.6,452.4,172.9z"/><path fill="#900818" d="M459.6,181.9c-0.3-0.9-1-1.7-1.9-1.8c-1-0.1-1.8,0.7-2.3,1.5c-1,2-0.4,4.4,0.1,7.8 c0,0.3,0.1,0.6,0.2,0.8c0.4,0.7,1.5,0.7,2,0.1"/><ellipse cx="453.9" cy="196" fill="none" stroke="#fc6849" stroke-miterlimit="10" stroke-width=".537" rx="6.9" ry="6.9" transform="rotate(-71.021 453.953 196.033)"/><path fill="#620814" d="M478.1,174.1c-0.1-0.4-0.8-0.6-1-1c-0.2-0.4,0.1-1-0.2-1.4c-0.4-0.5-1.3-0.7-1.8-1.2 c-0.5-0.5-0.5-1.4-1-1.9c-0.5-0.5-1.4-0.4-1.9-0.9c-0.4-0.3-0.6-1-1-1.4c-2.3-0.3-5.2-0.8-7.7-0.8c-3.5-0.1-7.3,0.9-9.4,3.6 c-0.9,1.1-1.4,2.4-1.8,3.7c-0.7,2.2-1,4.2-1,5.9c0.5,0.1,1.2,0,1.7,0.2c0.5,0.3,0.9,1.1,1.5,1.3c0.6,0.2,1.3-0.2,1.9,0 c0.6,0.2,1,0.9,1.6,1.1c0.6,0.2,1.3-0.3,1.9-0.2c0.6,0.1,1.1,0.8,1.7,0.9c0.6,0.1,1.3-0.5,1.9-0.4c0.6,0,1.2,0.7,1.8,0.7 c0.6,0,1.2-0.6,1.8-0.7c0.6,0,1.3,0.5,1.9,0.4c0.3,0,0.6-0.7,1.1-0.9c0.4-0.1,1,0.3,1.4,0.2c0.4-0.1,0.5-0.9,1-1.1 c0.4-0.2,1,0.2,1.4,0c0.4-0.2,0.4-1,0.8-1.2c0.4-0.2,1.1,0,1.4-0.3c0.3-0.3,0.2-1,0.4-1.3c0.3-0.3,1-0.4,1.2-0.8 c0.2-0.4-0.3-1-0.3-1.4C477.6,175,478.2,174.5,478.1,174.1z"/><path fill="#350810" d="M454.1,169.2c2.1-2.8,5.9-3.7,9.4-3.6c2.5,0.1,5.4,0.5,7.7,0.8c-0.1-0.1-0.2-0.2-0.3-0.3 c-0.6-0.4-1.5-0.2-2-0.5c-0.6-0.3-0.9-1.2-1.5-1.5c-0.6-0.3-1.5,0-2.1-0.2c-0.6-0.2-1.1-1-1.7-1.2c-0.7-0.2-1.5,0.3-2.1,0.2 c-0.7-0.1-1.3-0.8-1.9-0.9c-0.7-0.1-1.4,0.5-2,0.6c-0.7,0-1.5-0.5-2.1-0.4c-0.5,0.1-0.8,0.8-1.3,1c-0.5,0.2-1.2-0.2-1.6,0.1 c-0.4,0.2-0.5,1-0.9,1.3c-0.4,0.3-1.2,0.2-1.5,0.5c-0.4,0.3-0.3,1.1-0.6,1.5c-0.3,0.4-1.1,0.4-1.4,0.9c-0.3,0.4,0,1.2-0.2,1.6 c-0.2,0.5-1,0.7-1.1,1.2c-0.2,0.5,0.3,1.1,0.3,1.6c-0.1,0.5-0.7,1-0.6,1.5c0.1,0.5,0.8,0.8,1,1.3c0.2,0.4,0,1.2,0.4,1.5 l0.2,0.4c0.3,0.4,1.2,0.4,1.8,0.8c0.5,0.3,0.6,1.2,1.2,1.5c0.1,0,0.2,0.1,0.3,0.1c0.1-1.7,0.3-3.7,1-5.9 C452.8,171.6,453.3,170.3,454.1,169.2z"/><path fill="#fa92f1" d="M479.4,179.2l-1-3.7c-8.4-1.2-17-1.4-26.6-0.5c-1.1,5.3,0,9,0.4,12 C465.1,188.4,472,184.4,479.4,179.2z"/><path fill="#f20973" d="M451.8,175c-1.4,0.1-2.9,0.3-4.3,0.5l0.1,10.9c1.6,0.3,3.2,0.5,4.6,0.7 C451.8,184,450.7,180.3,451.8,175z"/><path fill="#fa92f1" d="M477.7,176.3c0-0.5,0.1-1,0.3-1.5c0.6-1.4,2.1-1.8,3.5,0c0.5,0.7,1.5,2.3,1.3,3.1 c-0.1,0.2-0.2,0.4-0.4,0.6c-0.6,0.7-1.3,1.5-2.3,1.5c-0.4,0-0.8-0.2-1.1-0.4c-0.5-0.3-1-0.7-1.1-1.2"/></g><g clip-path="url(#b)"><path fill="#c20002" d="M773.3,252c0,2.5,0.4,4.7,0.8,4.9c0.5,0.2,0.8-1.6,0.8-4.1s-0.4-4.7-0.8-4.9 C773.7,247.7,773.3,249.6,773.3,252z" opacity=".43"/><path fill="#620814" d="M816.5,199.1c-1.9,14.6-3.7,29.3-5.6,43.9c-1.1,8.3-0.8,8.4,1.5,33.4c0.2,2.6,1.1,5.8,3.6,6.3 c1.3,0.2,2.6-0.5,3.5-1.5s1.3-2.3,1.7-3.5c3.8-11.8,2.4-22.3,4-29.4c0.6-2.6,1.5-5.1,2.5-7.6c9.6-23.8,15.7-29.5,17.6-38.4 c1.1-4.8,0.5-10.4-2.9-14c-3-3.3-7.9-4.7-12.4-3.9c-6.7,1.1-12.3,6.8-13.4,13.5"/><path fill="#620814" d="M813 193.5H820.8V200.6H813z"/><path fill="#f2c8bd" d="M885.6,278.4c-0.5-2.1-1-4.2-1.5-6.3c-1.1,0.6-2.3,1.1-3.4,1.6c-1.2,0.5-2.4,1-3.6,1.4 c2.1,3.7,3.3,7,1.9,10c0,0,0,0.1-0.1,0.1c0.3,0.2,0.5,0.3,0.8,0.5c0.3,0.2,0.7,0.4,1.1,0.5c0.5,0.1,1-0.1,1.4-0.2 c0.9-0.3,1.9-0.6,2.5-1.3c1.1-1.2,0.7-3,0.9-4.6c0-0.4,0.1-0.8,0.2-1.1C885.7,278.8,885.7,278.6,885.6,278.4z"/><path fill="#f27473" d="M877.1,275.1c-2.5,0.8-5.1,1.4-7.8,1.5c0.7,1.8,1.3,3.8,2.1,5.8c0,0.2,0,0.5-0.1,0.7 c1.3-0.6,2.9-0.4,4.2,0.2c1.2,0.5,2.3,1.3,3.4,2c0,0,0-0.1,0.1-0.1C880.3,282.1,879.2,278.7,877.1,275.1z"/><path fill="#f2c8bd" d="M778,155.8c-3,3-5.5,6.5-7.4,10.2c-2.3,4.5-2.8,7.6,0.5,15.1c5.1,11.3,11.8,21.7,18.6,32 c0.7,1.1,1.6,2.4,2.8,3c3.1,1.5,7.4-1.3,7-6.9c-0.4-6.1-11.1-28.2-16.9-46.7C781.7,159.9,780.9,155.5,778,155.8"/><path fill="#fa92f1" d="M803.2,151.4c3.4,1.9,7.5,1.5,11.3,1.8c13.9,1,26.6,11.4,30.4,24.8c1,3.5,1.4,7.3,3.2,10.5 c0.2,0.4,0.4,0.8,0.7,1.1c8.3-4,13.1-9.3,17.8-17.5c-2.3-5.8-6.1-10.9-10.1-15.7c-6.3-7.8-13.3-15.2-22-20.2 c-8.7-5-19.4-7.2-28.9-4c-6,2-12.4,6.1-18.1,3.4l-2.1,5.2c2.9,0.3,5.8,0.5,8.2,1.9C797.4,144.8,799.4,149.3,803.2,151.4z"/><path fill="#f20973" d="M777,169.3c1.8,5.4,5.6,9.8,9.8,13.6c7.4,6.8,19.6,9.5,28.9,13.4c0.9,0.4,1.7,0.7,2.6,1 c2.2,0,4.5-0.4,6.7-0.8c10.4-1.9,18-4.1,23.8-6.9c-0.2-0.4-0.5-0.7-0.7-1.1c-1.8-3.2-2.2-6.9-3.2-10.5 c-3.7-13.4-16.5-23.9-30.4-24.8c-3.8-0.3-7.9,0.1-11.3-1.8c-3.8-2.1-5.8-6.6-9.6-8.7c-2.5-1.4-5.4-1.6-8.2-1.9l-5.2,12.9 C776,157.4,775.2,163.9,777,169.3z"/><path fill="#f2091b" d="M884.1,272.1c-3.1-12.5-6.7-24.9-12.5-36.3c-1.8-3.6-3.9-7.1-4.9-11.1 c-3.3-13.1,6.1-33.3,0.8-50.1c-0.3-0.9-0.6-1.7-0.9-2.6c-4.7,8.2-9.6,13.5-17.8,17.5c3.2,4.8,9,8,10.7,13.6 c1.5,5-0.9,10.2-2.9,14.9c-8.1,18.8,5.1,18.2,9,26.3c1.5,3.1,1.1,6.6,1.5,10c1,7.9,6.7,14.7,10.1,20.7 c1.2-0.4,2.4-0.9,3.6-1.4C881.8,273.2,882.9,272.7,884.1,272.1z"/><path fill="#620814" d="M865.5,244.4c-3.9-8.1-17.1-7.6-9-26.3c2.1-4.8,4.4-10,2.9-14.9c-1.6-5.6-7.4-8.8-10.7-13.6 c-5.8,2.8-13.4,4.9-23.8,6.9c-2.2,0.4-4.4,0.8-6.7,0.8c10.1,3.8,14.1,2.3,22.5,4.8c3.3,1,3,7.2,3.4,10 c2.7,16.6,4.5,22.5,16.5,46.4c2.8,5.5,5.6,11,8,16.7c0.2,0.5,0.4,0.9,0.6,1.4c2.6-0.1,5.2-0.6,7.8-1.5 c-3.4-5.9-9.1-12.7-10.1-20.7C866.6,251.1,867,247.5,865.5,244.4z"/><circle cx="772.6" cy="119.3" r="7" fill="#620814"/><path fill="#f29b9a" d="M778,138.6c4.5,3.1,10.9,1.4,15.6,4.1c2.3,1.3,4,3.4,5.7,5.4c0-0.9-0.1-1.8-0.3-2.6 c-0.4-1.7-1.3-3.4-2.8-4.5c-1-0.8-2.3-1.2-3.4-1.8c-2.4-1.2-4.7-2.8-6.5-4.8c-2.7-3-4.6-6.7-7.9-8.9l-4.2,9 C775.3,136,776.4,137.5,778,138.6z"/><path fill="#ef4645" d="M770.3,151.3c2,1.7,4.8,2,7.3,2.6c2.6,0.7,5,1.8,7.2,3.3c1.5,1.1,3,2.3,4.8,2.6 c0.8,0.1,1.6,0,2.4-0.2c3.8-1.1,6.3-5,7-8.9c0.2-0.9,0.3-1.8,0.3-2.7c-1.8-2-3.4-4.1-5.7-5.4c-4.7-2.6-11.1-1-15.6-4.1 c-1.6-1.1-2.7-2.6-3.8-4.1l-6.4,13.6C768.5,149.2,769.2,150.4,770.3,151.3z"/><path fill="#ef4645" d="M781.6,164.8c1.3-1.4,2-3.3,2.4-5.1c0.6-2.9,0.5-5.8,0.2-8.7c-0.2-1.7-0.4-3.3-0.4-5 c0-1.8,0.4-3.5,0.6-5.3c-2.3-0.3-4.5-0.8-6.4-2.1c-3.4-2.3-4.8-6.8-8.2-9.2c-3.3-2.2-8.3-2.4-13.2,1.2c-2.1,3.3-3,7-2.6,10.6 c0.6,4.2,2.2,8.8,5.2,11.8c1,1,2.1,1.8,3,2.8c1.1,1.3,1.8,2.8,3,4c0.9,0.9,1.9,1.5,3,2.1c2,1.2,4,2.4,6,3.6 c0.7,0.4,1.4,0.8,2.2,1C778.3,167,780.3,166.2,781.6,164.8z"/><path fill="#350810" d="M774.9,140.8c1.2,2,2.4,4.2,2.7,6.5c0.2,2-0.3,4-0.6,6c-0.3,2-0.5,4.1,0.3,5.9 c0.3,0.6,0.6,1.1,0.8,1.8c0.4,1.3-0.2,2.8-1.2,3.5s-2.7,0.8-3.7,0c-0.3,0.3-0.2,0.8-0.1,1.1s0.5,0.6,0.8,0.9 c0.8,0.6,1.6,1.1,2.5,1.6c0.5,0.3,1,0.5,1.6,0.5c0.5,0,1-0.2,1.4-0.5c1.9-1.1,3.3-3.1,4.1-5.1c0.8-2.1,1.1-4.3,1.3-6.5 c0.2-2,0.2-4.1-0.2-6.1c-0.4-2-1.3-4-2.8-5.4c-1.4-1.3-3.2-2.1-4.4-3.4"/><path fill="#f2091b" d="M775.8,134.2c0.7-0.3,1.5,0,2.1,0.4c0.6,0.4,1,1,1.6,1.6c1.4,1.4,3.4,2.1,5.4,2.1 c1.5,0,3.1-0.5,4.3-1.4c-1-0.8-2-1.7-2.9-2.6c-2.6-2.8-4.4-6.4-7.5-8.6c-0.6-0.6-1.2-1.1-1.9-1.5c-0.1-0.1-0.3-0.2-0.4-0.3 c-1.8,2.2-3.6,4.5-5.3,6.7c1.4,1.4,2.4,3.1,3.6,4.7C775,134.9,775.3,134.4,775.8,134.2z"/><path fill="#900818" d="M768.2,134.8c-0.4,1.2,0.5,3.3,0.7,4.5c1.3-0.6,3-0.3,4.2,0.4c1.2,0.7,2.2,1.9,3,2.9 c0.5-0.4,0.7-0.6,1.2-1c-1.3-1.1-2-2.8-2.4-4.3c-0.2-0.6-0.3-1.3-0.1-1.9c-1.2-1.6-2.2-3.3-3.6-4.7c0,0,0,0,0,0 C770.4,131.9,768.6,133.5,768.2,134.8z"/><path fill="#f29b9a" d="M774.8,136.8c-0.1-0.7,0-1.6,0.5-2.2c0.5-0.6,1.3-0.9,2-0.5c0.4,0.2,0.6,0.6,0.8,0.9 c1.2,1.9,2.5,4.1,2.3,6.4c0,0.2-0.2,0.5-0.4,0.5"/><path fill="#ef4645" d="M774.3,137.8c-0.1-0.7,0-1.6,0.5-2.2c0.5-0.6,1.3-0.9,2-0.5c0.4,0.2,0.6,0.6,0.8,0.9 c1.2,1.9,2.5,4.1,2.3,6.4c0,0.2-0.2,0.5-0.4,0.5"/><path fill="#900818" d="M769.8,129.4c0.9,0.6,1.6,1.4,2.3,2.2c1.9-1.6,3.7-3.6,4.7-5.7c0.2-0.5,0.4-1.1,0.3-1.6 c-0.2-0.5-0.6-0.8-1-1.1c-2.3-1.4-5-1.9-7.6-1.7c-2.6,0.3-5.2,1.3-7.4,2.7c-1.5,0.9-2.9,2.1-4.1,3.4c-1.4,1.6-2.4,3.4-3.1,5.4 C759.5,127,765.9,126.7,769.8,129.4z"/><path fill="#620814" d="M759,143.8c1.6-0.9,2.6-2.4,3.7-3.9c2.1-2.9,4.4-5,7.5-6.9c0.7-0.4,1.3-0.9,2-1.4 c-0.7-0.8-1.4-1.6-2.3-2.2c-3.9-2.7-10.3-2.4-16,3.7c-0.6,1.9-1,3.8-0.9,5.8C752.9,142.2,755.3,145.8,759,143.8z"/><path fill="#350810" d="M768.6,161c1.3-0.8,2.6-1.6,4-2.3c1.4-0.7,3-1.3,4.5-0.8c0.3,0.1,0.8,0.2,1,0 c0.2-0.2,0.2-0.4,0.2-0.6c0.1-1.1,0.2-2.4-0.7-3.2c-0.3,0.7-0.8,1.3-1.4,1.7c-0.5,0.3-1.1,0.4-1.6,0.6c-2.5,0.7-4.9,2-7,3.7 c-0.4,0.3-0.8,0.8-0.5,1.2c0.2,0.3,0.6,0.4,1,0.2c0.3-0.2,0.5-0.5,0.7-0.8"/><path fill="#c20002" d="M775,254.4c0.6,2.4,1.5,4.5,2,4.6c0.5,0.1,0.4-1.7-0.2-4.2s-1.5-4.5-2-4.6 C774.3,250.2,774.4,252,775,254.4z" opacity=".43"/><g enable-background="new"><path fill="#f2091b" d="M781.1,189.9c0.4-0.1,1-0.3,1.5-0.5c2-0.6,2.2-0.7,2.9-0.9c1.8-0.5,1.8-0.5,2.8-0.8 c1-0.3,1.3-0.3,2.6-0.6c1.1-0.2,2.6-0.5,3.6-0.7c0.6-0.1,1.5-0.2,2.2-0.3c0.3,0,0.8-0.1,1.1-0.1c0.8,0,1.9,0,2.2,0 c0.5,0,1.1,0.1,1.5,0.2c0.3,0,0.7,0.1,1,0.2c0.6,0.2,1.4,0.4,2,0.7c0.8,0.4,1.4,0.7,2.2,1.2c-1.6-1-8.7,0.3-17.1,3.2 C786.4,189.5,783.5,189,781.1,189.9z"/><path fill="#f2091b" d="M776.9,191.3l4.2-1.4c2.4-0.8,5.2-0.3,8.5,1.7l-4.2,1.4C782.2,191,779.3,190.5,776.9,191.3z"/><path fill="#bd081c" d="M806.7,188.3c0.3,0.2,0.7,0.5,1,0.7c0.3,0.2,0.8,0.5,1.1,0.8c0.3,0.2,0.7,0.6,1,0.8 c1.4,1.2,1.5,1.3,2.1,1.9c0.3,0.3,0.7,0.7,1,1c1.4,1.4,1.4,1.4,2.1,2.3c0.4,0.4,1.7,2,3.1,3.9c1,1.4,3.1,4.3,6,9.3 c1.3,2.3,2.4,4.5,2.9,5.3c0.6,1.2,0.6,1.2,1.8,3.7c0.3,0.6,0.6,1.3,0.9,1.9c0.3,0.6,0.6,1.4,0.9,2c0,0,0,0,0,0 c0.3,0.6,0.6,1.4,0.9,2c0.3,0.6,0.6,1.4,0.8,2c0.5,1.2,1.2,2.9,1.6,4.1c0.2,0.6,0.5,1.5,0.8,2.1c0.2,0.6,0.5,1.5,0.8,2.1 c0.2,0.6,0.5,1.5,0.7,2.1c1.1,3.2,1.8,5.8,2,6.5c0.1,0.5,0.9,3.1,1.2,4.4c0.2,0.7,0.4,1.5,0.6,2.2c0.2,0.7,0.4,1.5,0.5,2.2 c0,0,0,0,0,0c0.3,1.3,0.7,3.1,0.9,4.4c0.3,1.3,0.7,3.5,0.8,4.3c0.1,0.6,0.2,1.5,0.3,2.1c0.1,0.6,0.2,1.4,0.3,2 c0.1,0.6,0.2,1.4,0.2,2c0.3,2.8,0.5,6,0.5,7.4c0,2,0,2.5,0,3.4c0,0.5,0,1.1,0,1.6c-0.1,0.9-0.1,2.1-0.2,3c0,0.4-0.1,1-0.2,1.4 c-0.1,0.4-0.1,1-0.2,1.4c-0.1,0.4-0.2,0.9-0.2,1.3c-0.1,0.7-0.3,1.1-0.6,2.4c0,0-0.3,1-0.8,2.2c-0.2,0.6-0.6,1.4-0.9,1.9 c-0.3,0.5-0.7,1.2-1.1,1.7c-0.5,0.6-0.9,1-1.4,1.5c-1.1,1-2.2,1.8-3.9,2.9c-2.4,1.5-5.5,2.8-5.5,2.8c-0.8,0.3-1.8,0.8-2.5,1.1 c-0.4,0.2-1,0.4-1.4,0.5c-0.6,0.2-2.1,0.8-4.3,1.6c2.6-0.9,4.7-3.4,6-7.3c2.6-7.3,2.6-19.6-0.4-34.9c-3-15.4-8.6-31-15.1-43.8 s-14.1-22.8-21-27C798,188.7,805.1,187.4,806.7,188.3z"/><path fill="#bd081c" d="M820.2,304.6L816,306c2.6-0.9,4.7-3.4,6-7.3c2.6-7.3,2.6-19.6-0.4-34.9 c-3-15.4-8.6-31-15.1-43.8c-6.5-12.8-14.1-22.8-21-27l4.2-1.4c7,4.2,14.5,14.2,21,27s12.1,28.4,15.1,43.8 c3,15.4,3,27.6,0.4,34.9C824.9,301.1,822.8,303.7,820.2,304.6z"/><path fill="#350810" d="M769.3,201.6c6.6,4,13.7,13.4,19.9,25.6c6.2,12.1,11.5,26.9,14.3,41.5 c2.9,14.6,2.8,26.1,0.4,33.1c-2.4,7-7.2,9.3-13.8,5.3c-6.6-4-13.7-13.4-19.9-25.6c-6.2-12.1-11.5-26.9-14.3-41.5 c-2.9-14.6-2.8-26.1-0.4-33.1C757.9,200,762.7,197.7,769.3,201.6z"/><path fill="#900818" d="M775.1,230.9c2.9,1.8,6.1,6,8.8,11.4c2.8,5.4,5.1,12,6.4,18.4c1.3,6.5,1.2,11.6,0.2,14.7 c-1.1,3.1-3.2,4.1-6.1,2.4c-2.9-1.8-6.1-6-8.8-11.4c-2.8-5.4-5.1-12-6.4-18.4c-1.3-6.5-1.2-11.6-0.2-14.7 C770,230.2,772.1,229.2,775.1,230.9z"/><path fill="#350810" d="M778.7,249.5c0.6,0.4,1.3,1.2,1.8,2.3c0.6,1.1,1.1,2.5,1.3,3.8c0.3,1.3,0.3,2.4,0,3 c-0.2,0.6-0.7,0.9-1.3,0.5c-0.6-0.4-1.3-1.2-1.8-2.3c-0.6-1.1-1.1-2.5-1.3-3.8c-0.3-1.3-0.3-2.4,0-3 C777.7,249.4,778.1,249.1,778.7,249.5z"/><path fill="#900818" d="M816,306c-5.3,1.8-12,3.7-17.6,3.8c-21.4,0.3-39.4-51.1-43-72c-5.3-30.7,0.6-37.5,13.2-43.2 c2.6-1.2,5.3-2.2,8.4-3.3c2.4-0.8,5.2-0.3,8.5,1.7c-9.3,3.2-16.5,7-16.2,8.7c-6.6-4-11.4-1.6-13.8,5.3 c-2.4,7-2.5,18.5,0.4,33.1c2.9,14.6,8.1,29.3,14.3,41.5c6.2,12.1,13.3,21.6,19.9,25.6c6.6,4,11.4,1.6,13.8-5.3 c2.4-7,2.5-18.5-0.4-33.1c-2.9-14.6-8.1-29.3-14.3-41.5c-6.2-12.1-13.3-21.6-19.9-25.6c-0.3-1.6,6.9-5.5,16.2-8.7 c7,4.2,14.5,14.2,21,27c6.5,12.8,12.1,28.4,15.1,43.8c3,15.4,3,27.6,0.4,34.9C820.7,302.6,818.7,305.1,816,306z"/></g><path fill="#f2091b" d="M789.2,136.9c-1-0.8-2-1.7-2.9-2.6c-2.6-2.8-4.4-6.4-7.5-8.6c-0.6-0.6-1.2-1.1-1.9-1.5 c-0.1-0.1-0.3-0.2-0.4-0.3c-1.8,2.2-3.6,4.5-5.4,6.8c-0.9,1.1-2.6,2.8-3,4.1c-0.4,1.2,0.5,3.3,0.7,4.5c1.3-0.6,3-0.3,4.2,0.4 c1.2,0.7,2,2,2.9,3.1c0.5-0.4,0.9-0.8,1.4-1.2c-1.3-1.1-2-2.8-2.4-4.3c-0.3-1.1-0.3-2.7,0.9-3.1c0.7-0.3,1.5,0,2.1,0.4 c0.6,0.4,1,1,1.6,1.6c1.4,1.4,3.4,2.1,5.4,2.1C786.5,138.3,788,137.8,789.2,136.9z"/><path fill="#ef4645" d="M885.8,279c-0.1,0.4-0.2,0.7-0.2,1.1c-0.2,1.6,0.1,3.4-0.9,4.6c-0.6,0.7-1.6,1-2.5,1.3 c-0.5,0.1-1,0.3-1.4,0.2c-0.4-0.1-0.7-0.3-1.1-0.5c-0.3-0.2-0.5-0.3-0.8-0.5c-0.6,1.3-1.7,2.4-2.7,3.5 c-2.7,2.8-5.5,5.5-8.2,8.3c-1.4,1.4-2.8,3.5-1.6,5c1.3,0.3,2.7,0.5,4,0.5c3.1,0,6.1-1.2,8.4-3.2c1-0.9,2-2,3.2-2.7 c1.5-0.8,4.2-1.1,6.3-3.1C892.2,289.6,888.2,285.5,885.8,279z"/><path fill="#620814" d="M867.9,297c2.7-2.8,5.5-5.5,8.2-8.3c1-1.1,2.1-2.1,2.7-3.5c-1.1-0.7-2.2-1.5-3.4-2 c-1.3-0.5-2.9-0.7-4.2-0.2c-0.4,4.4-3,8.6-6.3,11.7c-0.8,0.8-1.7,1.5-2.2,2.5c-0.5,1-0.7,2.3-0.1,3.2c0.6,0.9,1.7,1.2,2.8,1.4 c0.3,0.1,0.5,0.1,0.8,0.2C865.2,300.5,866.6,298.4,867.9,297z"/><path fill="#fff" d="M822.1,152.1c5.2,0.5,6,3.2,8,7.9c4,9.2,9.9,10.9,12.4,15.8l6.4-1.6c0,0,0,0,0,0 c-5-10.6-10.1-19-16.6-28.8c-3.6-4.1-10-4.3-14.2-0.6c-2.4,2.2-3.6,5.2-3.4,8.2C817.1,152.2,819.6,151.9,822.1,152.1z"/><path fill="#f2c8bd" d="M832.2,176.6c0.4,0.5,0.7,0.9,1.1,1.4l9.3-2.3c-2.5-4.9-8.4-6.6-12.4-15.8 c-2-4.6-2.8-7.3-8-7.9c-2.5-0.2-5,0-7.3,0.8c0.1,2.2,0.9,4.3,2.5,6C821.6,164.2,828,171.2,832.2,176.6z"/><path fill="#f29b9a" d="M834.7,182.4c0,1.2-0.4,2.4-0.8,3.6c-1.9,6.2-3.9,12.5-7,18.1l-0.1,0c-1.3,1.7-3.3,2.8-5.3,3.5 c-2,0.8-4.1,1.4-5.9,2.4c-1.9,1.1-3.4,2.7-5.3,3.7c-0.6,0.3-1.1,0.5-1.7,0.9c-0.1,0-0.2,0.1-0.2,0.2c0,0.1,0,0.2,0.1,0.3 c0.8,0.8,2.2,0.8,3.3,0.5c1.8-0.4,3.4-1.2,5.1-1.7c0.1,0,0.1,0,0.2-0.1c0.4,0.2,0.8,0.5,1,0.9c0.3,0.7,0.3,1.4,0.3,2.2 c-0.5,5.9-4.3,11.8-4.3,14.6c0,0.9,0.5,2.1,1.3,2.6c0,0,3.3-8.2,5.6-11.8c0.1-0.2,0.2-0.3,0.3-0.4c-0.2,5.7-0.2,5.7-0.2,6.1 c-0.3,2.2-1.8,4-1.1,6.4c0.4,1.2,1.1,1.6,2.4,2c0.2,0.1,2.2,0.6,2.4,0.5c0.1-0.1,1-2.3,1.7-4.7c0,0.4,0,0.8,0,1.3 c0.1,1.6,0.7,2.1,1,1.3c3.3-10.1,1.4-3.9,2-15.4c0.1-0.4,0.3-0.9,0.4-1.5c0.3-1.6,0.8-2.8,1.3-3.8 c13.7-20.4,15.9-23.5,18.3-28.7c0.2-0.5,0.4-0.9,0.6-1.4L834.7,182.4z"/><path fill="#ef4645" d="M824.5,212.1c0.7-1.2,1.9-2.1,3-3c4.5-4.2,4.8-11.2,8.5-16.2c1.7-2.3,4.1-4,5.7-6.4 c0.7-1,1.2-2.1,1.5-3.3l-8.4-0.8c0,1.2-0.4,2.4-0.8,3.6c-1.9,6.2-3.9,12.5-7,18.1l-0.1,0c-1.3,1.7-3.3,2.8-5.3,3.5 c-2,0.8-4.1,1.4-5.9,2.4c-1.9,1.1-3.4,2.7-5.3,3.7c-0.6,0.3-1.1,0.5-1.7,0.9c-0.1,0-0.2,0.1-0.2,0.2c0,0.1,0,0.2,0.1,0.3 c0.8,0.8,2.2,0.8,3.3,0.5c1.8-0.4,3.4-1.2,5.1-1.7c0.1,0,0.1,0,0.2-0.1c0.4,0.2,0.8,0.5,1,0.9c0.3,0.7,0.3,1.4,0.3,2.2 c-0.5,5.9-4.3,11.8-4.3,14.6c0,0.9,0.5,2.1,1.3,2.6c0,0,3.3-8.2,5.6-11.8c0.1-0.2,0.2-0.3,0.3-0.4c-0.2,5.7-0.2,5.7-0.2,6.1 c-0.3,2.2-1.8,4-1.1,6.4c0.4,1.2,1.1,1.6,2.4,2c0.2,0.1,2.2,0.6,2.4,0.5c0.1-0.1,1-2.3,1.7-4.7c0,0.4,0,0.8,0,1.3 c0.1,1.6,0.7,2.1,1,1.3c1-3.2,1.5-4.8,1.8-5.8c-0.3-2.4-1-4.7-2.1-6.8C826,219.5,822.6,215.6,824.5,212.1z"/><path fill="#620814" d="M848.9,174.2l-6.4,1.6c0.1,0.1,0.2,0.3,0.2,0.5c1,2.2,1.1,4.7,0.4,7l7,0.7 c0.3-0.8,0.5-1.6,0.6-2.5C851,178.9,850,176.5,848.9,174.2z"/><path fill="#350810" d="M842.7,176.2c-0.1-0.2-0.1-0.3-0.2-0.5l-9.3,2.3c0.7,1,1.3,2.1,1.4,3.3 c0.1,0.4,0.1,0.7,0.1,1.1l8.4,0.8C843.8,180.9,843.7,178.4,842.7,176.2z"/></g><g clip-path="url(#b)"><g enable-background="new"><path fill="#bd081c" d="M510.9,196.8c0.2-0.1,0.5-0.4,0.7-0.5c0.4-0.2,0.9-0.5,1.4-0.7c0.3-0.1,1.1-0.4,2.9-0.6 c0.8-0.1,2.8-0.3,7.1-0.6c3.8-0.2,7.6-0.3,10.1-0.3c-0.3,0-0.5,0-0.8,0.1c-0.3,0.1-0.5,0.1-0.8,0.3c-0.3,0.1-0.5,0.3-0.8,0.4 c-0.3,0.2-0.5,0.4-0.8,0.6c-2.5,0-4.9,0.1-7.1,0.2c-2.2,0.1-4.2,0.2-5.9,0.3c-1.7,0.1-3.1,0.2-4.1,0.4 C511.7,196.5,511.1,196.7,510.9,196.8z"/><path fill="#f2091b" d="M532.9,194.1l4.7-0.1c-0.3,0-0.5,0-0.8,0.1c-0.3,0.1-0.5,0.1-0.8,0.3c-0.3,0.1-0.5,0.3-0.8,0.4 c-0.3,0.2-0.5,0.4-0.8,0.6l-4.8,0.1c0.3-0.2,0.5-0.4,0.8-0.6c0.3-0.2,0.5-0.3,0.8-0.4c0.3-0.1,0.5-0.2,0.8-0.3 C532.4,194.2,532.7,194.2,532.9,194.1z"/><path fill="#f2091b" d="M537.7,194.1c2,0,6.6-0.1,11,0c1.3,0,5.2,0.1,7.4,0.4c0.8,0.1,1.2,0.2,1.2,0.2 c0.3,0.1,0.8,0.3,1.1,0.5c0.3,0.2,0.8,0.5,1,0.8c0.3,0.3,0.7,0.8,1,1.1c0.1,0.2,0.4,0.5,0.5,0.7c0.3,0.5,0.7,1.1,0.9,1.6 c0.3,0.6,0.6,1.3,0.9,1.9c0.3,0.6,0.6,1.5,0.8,2.1c0.2,0.5,0.4,1.1,0.5,1.5c0.4,1.3,0.4,1.4,0.8,2.5c0.4,1.6,0.9,3.7,1.1,4.3 c0.6,2.9,0.8,4,1.2,6.4c0,0,0.4,2.5,0.8,5.4c0.1,0.6,0.2,1.3,0.2,1.9c0,0,0,0,0,0c0.1,0.6,0.2,1.3,0.2,1.9 c0,0.1,0.2,1.6,0.4,4c0.1,0.9,0.3,3.1,0.5,6.3c-0.2-3.6-0.5-7-0.8-10.3c-0.3-3.3-0.8-6.3-1.2-9.1c-0.5-2.9-1-5.5-1.6-7.9 c-0.6-2.4-1.2-4.6-1.9-6.5c-0.7-1.9-1.4-3.6-2.1-4.9c-0.8-1.3-1.5-2.4-2.4-3.1c-0.8-0.7-1.7-1-2.5-1c-0.9,0-1.8,0.5-2.6,1.4 c0-0.1-0.6-0.3-1.6-0.4c-1-0.1-2.4-0.2-4.2-0.3c-1.8-0.1-3.9-0.1-6.2-0.1c-2.3,0-4.9,0-7.5,0.1c0.3-0.2,0.5-0.4,0.8-0.6 c0.3-0.2,0.5-0.3,0.8-0.4c0.3-0.1,0.5-0.2,0.8-0.3C537.2,194.1,537.4,194.1,537.7,194.1z"/><path fill="#900818" d="M532.6,311.9c-2.2-0.1-5.8-0.1-10.1-0.4c-4.3-0.2-6.2-0.5-7.1-0.6c-0.7-0.1-1.4-0.2-1.4-0.2 c-0.6-0.1-0.9-0.2-1.5-0.4c-0.9-0.3-1.6-0.9-1.9-1.1c-0.8-0.6-1.7-1.6-2.5-2.7c-0.6-0.8-0.8-1.2-1.4-2.2c-0.4-0.8-1-2-1.1-2.2 c-0.2-0.4-0.4-0.9-0.5-1.2c-0.2-0.4-0.4-0.9-0.5-1.3c-0.2-0.4-0.4-1-0.5-1.4c-0.3-0.8-0.5-1.6-1-3c0,0-0.4-1.4-0.9-3.3 c-0.3-1.1-0.6-2.5-0.9-3.6c-0.1-0.6-0.3-1.4-0.4-1.9c-0.1-0.6-0.3-1.4-0.4-2c-0.1-0.6-0.2-1.5-0.4-2.1 c-0.3-1.7-0.6-4.3-0.6-4.4c-0.2-1.4-0.7-5.8-1.1-11.9c-0.2-2.6-0.2-4.9-0.2-4.9c0-0.7-0.1-1.7-0.1-2.5c-0.1-3-0.1-3.3-0.1-4.9 c0-2.9,0.1-4.8,0.1-4.9c0-0.7,0-1.7,0.1-2.4c0.1-1.4,0.1-3.3,0.2-4.8v0c0.1-0.7,0.1-1.6,0.2-2.3c0.3-3.3,0.3-3.4,0.4-4.6 c0.3-2.9,0.3-2.9,0.5-4.4c0.1-0.6,0.3-2.2,0.6-4.3c0.5-3.4,1-6,1-6c0.5-2.5,0.5-2.5,0.8-3.7c0.2-1,0.6-2.4,0.9-3.5 c0-0.1,0.4-1.5,1-3.2c0.3-0.9,0.7-2,1-2.9c0.2-0.4,0.4-0.9,0.5-1.3c0.2-0.4,0.4-0.9,0.6-1.3c0.2-0.4,0.4-0.8,0.6-1.2 c0.3-0.5,1-1.9,1.8-3.1c0.4-0.5,0.9-1.1,1.3-1.6c0.2-0.2,0.5-0.5,0.7-0.7c0.2-0.2,0.5-0.4,0.7-0.6c0.2-0.1,0.8-0.3,1.8-0.4 c1-0.1,2.4-0.3,4.1-0.4c1.7-0.1,3.7-0.2,5.9-0.3c2.2-0.1,4.6-0.2,7.1-0.2c-1,0.9-2,2.2-3,3.8c-0.9,1.7-1.8,3.7-2.7,6.1 c-0.8,2.4-1.6,5.1-2.3,8c-0.7,3-1.3,6.2-1.8,9.7c-0.5,3.5-1,7.2-1.3,11c-0.3,3.9-0.6,7.9-0.7,12c-0.1,4.1-0.2,8.3-0.1,12.5 c0.1,4.2,0.3,8.4,0.6,12.6c0.3,4.2,0.8,8.1,1.3,11.7c0.5,3.6,1.2,6.9,1.8,9.9c0.7,3,1.4,5.6,2.3,8c0.8,2.3,1.7,4.3,2.6,5.9 c0.5,0.8,1,1.6,1.5,2.2c0.5,0.6,1,1.2,1.5,1.6c0.5,0.4,1,0.8,1.5,1C531.6,311.7,532.1,311.9,532.6,311.9z"/><path fill="#620814" d="M500.6,284.2c0.1,0.6,0.3,1.4,0.4,2c0.1,0.6,0.3,1.4,0.4,1.9c0.2,1.1,0.6,2.6,0.9,3.6 c0.5,1.9,0.9,3.3,0.9,3.3c0.5,1.5,0.7,2.3,1,3c0.2,0.4,0.3,1,0.5,1.4c0.2,0.4,0.4,0.9,0.5,1.3c0.2,0.4,0.4,0.9,0.5,1.2 c0.1,0.3,0.7,1.4,1.1,2.2c0.6,1,0.8,1.4,1.4,2.2c0.7,1,1.7,2.1,2.5,2.7c0.3,0.2,1,0.8,1.9,1.1c0.6,0.2,0.9,0.3,1.5,0.4 c0,0,0.7,0.1,1.4,0.2c0.8,0.1,2.8,0.3,7.1,0.6c4.3,0.2,7.9,0.3,10.1,0.4c-0.5,0-1-0.1-1.6-0.4c-0.5-0.2-1-0.6-1.5-1 c-0.5-0.4-1-1-1.5-1.6c-0.5-0.6-1-1.4-1.5-2.2c-0.9-1.6-1.8-3.6-2.6-5.9c-0.8-2.3-1.6-5-2.3-8c-0.6-2.7-1.2-5.7-1.7-9h-19.5 C500.6,283.9,500.6,284,500.6,284.2z"/><path fill="#bd081c" d="M537.4,312l-4.7-0.1c-0.5,0-1-0.1-1.6-0.4c-0.5-0.2-1-0.6-1.5-1c-0.5-0.4-1-1-1.5-1.6 c-0.5-0.6-1-1.4-1.5-2.2c-0.9-1.6-1.8-3.6-2.6-5.9c-0.8-2.3-1.6-5-2.3-8c-0.7-3-1.3-6.3-1.8-9.9c-0.5-3.6-1-7.5-1.3-11.7 c-0.3-4.2-0.5-8.4-0.6-12.6c-0.1-4.2-0.1-8.4,0.1-12.5c0.1-4.1,0.4-8.1,0.7-12c0.3-3.8,0.8-7.5,1.3-11 c0.5-3.5,1.1-6.7,1.8-9.7c0.7-3,1.5-5.6,2.3-8c0.8-2.4,1.7-4.4,2.7-6.1c0.9-1.7,1.9-2.9,3-3.8l4.8-0.1c-1,0.9-2,2.2-2.9,3.8 c-0.9,1.7-1.8,3.7-2.6,6.1c-0.8,2.4-1.6,5.1-2.2,8c-0.7,3-1.3,6.2-1.8,9.7c-0.5,3.5-1,7.2-1.3,11c-0.3,3.9-0.6,7.9-0.7,12 c-0.1,4.1-0.2,8.3-0.1,12.5c0.1,4.2,0.3,8.4,0.6,12.6c0.3,4.2,0.8,8.1,1.3,11.7c0.5,3.6,1.1,6.9,1.8,9.9c0.7,3,1.4,5.6,2.2,8 c0.8,2.3,1.6,4.3,2.5,5.9c0.5,0.9,0.9,1.6,1.4,2.3c0.5,0.6,1,1.2,1.5,1.6c0.5,0.4,1,0.8,1.5,1 C536.3,311.9,536.9,312,537.4,312z"/><path fill="#900818" d="M521.7,292.8c0.7,3,1.4,5.6,2.3,8c0.8,2.3,1.7,4.3,2.6,5.9c0.5,0.8,1,1.6,1.5,2.2 c0.5,0.6,1,1.2,1.5,1.6c0.5,0.4,1,0.8,1.5,1c0.5,0.2,1,0.3,1.6,0.4l4.7,0.1c-0.5,0-1-0.1-1.5-0.4c-0.5-0.2-1-0.6-1.5-1 c-0.5-0.4-1-1-1.5-1.6c-0.5-0.6-1-1.4-1.4-2.3c-0.9-1.6-1.7-3.6-2.5-5.9c-0.8-2.3-1.5-5-2.2-8c-0.6-2.8-1.2-5.8-1.7-9.1h-5 C520.5,287.1,521.1,290.1,521.7,292.8z"/><path fill="#bd081c" d="M567,278.9c-0.9,7.8-2.4,29.2-9.5,32.4c-0.6,0.3-1.6,0.4-2.4,0.5c-1.3,0.1-4.1,0.3-6.8,0.3 c-3.6,0-6.6,0-10.9-0.1c-0.5,0-1-0.1-1.5-0.4c-0.5-0.2-1-0.6-1.5-1c-0.5-0.4-1-1-1.5-1.6c-0.5-0.6-1-1.4-1.4-2.3 c-0.9-1.6-1.7-3.6-2.5-5.9c-0.8-2.3-1.5-5-2.2-8c-0.7-3-1.3-6.3-1.8-9.9c-0.5-3.6-1-7.5-1.3-11.7c-0.3-4.2-0.5-8.4-0.6-12.6 c-0.1-4.2-0.1-8.4,0.1-12.5c0.1-4.1,0.4-8.1,0.7-12c0.3-3.9,0.8-7.6,1.3-11c0.5-3.5,1.1-6.7,1.8-9.7c0.7-3,1.4-5.7,2.2-8 c0.8-2.4,1.7-4.4,2.6-6.1c0.9-1.7,1.9-2.9,2.9-3.8c2.7,0,5.2-0.1,7.5-0.1c2.3,0,4.4,0.1,6.2,0.1c1.8,0.1,3.2,0.2,4.2,0.3 c1,0.1,1.5,0.2,1.6,0.4c-0.9,0.9-1.8,2.2-2.6,3.8c-0.8,1.7-1.6,3.7-2.3,6c-0.7,2.3-1.4,5-2,7.9c-0.6,3-1.1,6.2-1.6,9.6 c-0.5,3.4-0.8,7.1-1.1,10.9c-0.3,3.8-0.5,7.8-0.6,11.9c-0.1,4.1-0.1,8.2-0.1,12.4c0.1,4.2,0.3,8.3,0.6,12.5 c0.3,4.1,0.7,8,1.1,11.6c0.5,3.6,1,6.8,1.6,9.8c0.6,2.9,1.3,5.6,2,7.9c0.7,2.3,1.5,4.2,2.2,5.8c0.8,1.6,1.6,2.8,2.4,3.7 c0.8,0.9,1.7,1.4,2.5,1.5C563.7,312.4,566.2,286.4,567,278.9z"/><path fill="#900818" d="M556.2,311.3c-0.9-0.1-1.7-0.6-2.5-1.5c-0.8-0.9-1.6-2.1-2.4-3.7c-0.8-1.6-1.5-3.5-2.2-5.8 c-0.7-2.3-1.4-4.9-2-7.9c-0.5-2.6-1-5.5-1.4-8.7H525c0.5,3.3,1.1,6.3,1.7,9.1c0.7,3,1.4,5.6,2.2,8c0.8,2.3,1.6,4.3,2.5,5.9 c0.5,0.9,0.9,1.6,1.4,2.3c0.5,0.6,1,1.2,1.5,1.6c0.5,0.4,1,0.8,1.5,1c0.5,0.2,1,0.3,1.5,0.4c4.3,0.1,7.3,0.1,10.9,0.1 c2.7,0,5.5-0.2,6.8-0.3c0.9-0.1,1.8-0.2,2.4-0.5c0.3-0.2,0.8-0.4,1.1-0.6c0.1-0.1,0.2-0.2,0.3-0.3c-0.1,0.1-0.2,0.1-0.2,0.2 C557.8,311.2,557,311.5,556.2,311.3z"/><path fill="#fff" d="M558.9 310.4c.2-.2.4-.3.6-.5C559.3 310 559.1 310.2 558.9 310.4zM567.7 283.8c-.2 1.4-.4 2.7-.6 4-.5 2.8-1 5.5-1.6 7.9-.6 2.5-1.2 4.7-2 6.7-.7 2-1.5 3.7-2.3 5.1-.6 1-1.1 1.7-1.7 2.3.1-.1.1-.1.2-.2.3-.4.8-.9 1-1.3.1-.2.4-.5.5-.8.6-1 .7-1.3 1-1.8.5-1.1.8-1.8 1.3-3.3.5-1.5 1-2.9 1.2-3.8.8-2.8 1.4-5.7 2-9.1.3-1.6.6-3.3.8-5.1C567.6 284.2 567.6 284 567.7 283.8L567.7 283.8z"/><path fill="#350810" d="M554,196.1c0.9-0.9,1.8-1.3,2.6-1.4c0.9,0,1.7,0.3,2.5,1c0.8,0.7,1.6,1.7,2.4,3.1 c6.2,11.1,7.9,36.7,8.1,49.5c0,15-1.1,54.8-11,62.3c-0.8,0.6-1.7,0.9-2.5,0.8c-0.9-0.1-1.7-0.6-2.5-1.5 c-0.8-0.9-1.6-2.1-2.4-3.7c-0.8-1.6-1.5-3.5-2.2-5.8c-0.7-2.3-1.4-4.9-2-7.9c-0.6-3-1.1-6.2-1.6-9.8 c-0.5-3.6-0.8-7.4-1.1-11.6c-0.3-4.1-0.5-8.3-0.6-12.5c-0.1-4.2-0.1-8.3,0.1-12.4c0.1-4.1,0.3-8,0.6-11.9 c0.3-3.8,0.7-7.5,1.1-10.9c0.5-3.4,1-6.6,1.6-9.6c0.6-2.9,1.3-5.6,2-7.9c0.7-2.3,1.5-4.3,2.3-6 C552.3,198.3,553.1,197,554,196.1z"/></g><path fill="#900818" d="M563.6,250.3c0,13.4-1.9,25.7-4.4,27.5c-2.6,1.9-4.8-8.3-4.8-22.9s2.2-27,4.8-27.7 C561.6,226.5,563.6,236.9,563.6,250.3z"/><path fill="#f2091b" d="M718.4,158.9H614.9v-11.1c0-2.4,1.9-4.3,4.3-4.3h95.3c2.2,0,4,1.8,4,4V158.9z"/><path fill="#900818" d="M718.4,158.9h-20.2l11.1-15.3h5.3c2.1,0,3.8,1.7,3.8,3.8V158.9z"/><path fill="#f27473" d="M618.2 184.4h-3.4V147c0-1.9 1.5-3.4 3.4-3.4l0 0V184.4zM718.4 184.4H715v-40.8l0 0c1.9 0 3.4 1.5 3.4 3.4V184.4z"/><path fill="#f2091b" d="M649.1,278.1v-94.8c-2.8,0-57.5,0-59.6,0c-4.8,0-8.8,3.1-10.6,7.2c-1.8,4.1-1.3,11.4-0.3,15.3 c1.9,7.3,13.8,25.4,13.6,46.9c0,3.2,2.5,5.8,5.7,5.8h7.2c16.1,0,31.4,8.6,38.9,23.1L649.1,278.1z"/><path fill="#900818" d="M603.9,258.5h1.1c16.1,0,31.4,8.6,38.9,23.1l5.1-3.5v-94.8c-1.1,0-10.1,0-20.7,0L603.9,258.5z"/><path fill="#f2091b" d="M684.2,278.1v-94.8c2.8,0,57.5,0,59.6,0c4.8,0,8.8,3.1,10.6,7.2c1.8,4.1,1.3,11.4,0.3,15.3 c-1.9,7.3-13.8,25.4-13.6,46.9c0,3.2-2.5,5.8-5.7,5.8h-7.2c-16.1,0-31.4,8.6-38.9,23.1L684.2,278.1z"/><path fill="#620814" d="M592.1,190.8c-12.3,0-12.7,26.8,25.2,37.2c17.4,4.8,30.1,4.4,30.1,4.4v-41.6H592.1z"/><path fill="#350810" d="M613.5,195c-6.7,0-6.9,14.5,13.7,20.2c9.4,2.6,16.3,2.4,16.3,2.4V195H613.5z"/><path fill="#620814" d="M740.4,190.8c12.3,0,12.7,26.8-25.2,37.2c-17.4,4.8-30.1,4.4-30.1,4.4v-41.6H740.4z"/><path fill="#350810" d="M720.7,195c6.7,0,6.9,14.5-13.7,20.2c-9.4,2.6-16.3,2.4-16.3,2.4V195H720.7z"/><path fill="#f2c8bd" d="M821.5 300.8L512.4 300.8 484.6 319.1 849.4 319.1z"/><path fill="#f29b9a" d="M821.5 300.8L777.2 300.8 797.2 319.1 849.4 319.1z"/><path fill="#fff" d="M833.9 274l15.1 6.7V319l-27.8-18.1V289C821.2 277.6 826.6 270.8 833.9 274zM499.7 274l-15 6.7V319l27.7-18.2V289C512.3 277.6 506.9 270.8 499.7 274z"/><path fill="none" stroke="#ffb3a2" stroke-miterlimit="10" stroke-width="4.293" d="M569 252.5L644 205.8M764.3 252.5L689.2 205.8"/><path fill="#f29b9a" d="M559.1,247.9L559.1,247.9c-0.5,0.2-0.8,2.4-0.8,4.9c0,2.5,0.4,4.3,0.8,4.1v0h88.3v-9.1H559.1z"/><path fill="#bd081c" d="M558.3,253.1c0,2.4,0.4,4.1,0.8,3.9v0h88.3v-3.9H558.3z"/><path fill="#f29b9a" d="M666.6,149.6c-13,0-21.1,11.4-19.2,23.9l2.1,13c0.2,1.3,0.9,2.5,2,3.3c2.5,1.9,7.7,4.9,15.1,4.9 c7.4,0,12.6-3,15.1-4.9c1.1-0.8,1.8-2,2-3.3l2.1-13C687.6,161,679.6,149.6,666.6,149.6z"/><path fill="#900818" d="M666.6,149.6c-7.1,0-11.5,11.4-10.5,23.9l1.1,13c0.1,1.3,0.5,2.5,1.1,3.3 c1.4,1.9,4.2,4.9,8.2,4.9s6.9-3,8.2-4.9c0.6-0.8,1-2,1.1-3.3l1.1-13C678.1,161,673.7,149.6,666.6,149.6z"/><path fill="#350810" d="M658.4,189.7c-0.6-0.8-1-2-1.1-3.3l-1.1-13c-1-12.5,3.4-23.9,10.5-23.9 c-13,0-21.1,11.4-19.1,23.9l2.1,13c0.2,1.3,0.9,2.5,2,3.3c2.5,1.9,7.7,4.9,15.1,4.9C662.6,194.6,659.8,191.6,658.4,189.7z"/><path fill="#f2091b" d="M666.6,149.6C666.6,149.6,666.6,149.6,666.6,149.6c7.1,0,11.4,11.5,10.5,23.9l-1.1,13 c-0.1,1.3-0.5,2.5-1.1,3.3c-1.4,1.9-4.2,4.9-8.2,4.9c0,0,0,0,0,0c7.4,0,12.6-3,15.1-4.9c1.1-0.8,1.8-2,2-3.3l2.1-13 C687.6,161,679.6,149.6,666.6,149.6z"/><path fill="#f2091b" d="M669.2 183.1l4.4-7.6h-14.1l4.4 7.6C665.2 185.1 668.1 185.1 669.2 183.1zM646 167.4H650V172.5H646zM683.2 167.4H687.2V172.5H683.2z"/><path fill="#ef4645" d="M656.6,163.2c-6.2,1.4-8.6,3.4-8.8,1.7c-0.6,2.7-0.7,5.6-0.2,8.6l0.1,0.9 c0.8,2.1,2.8,3.7,9,4.5l-0.5-5.4C655.9,169.9,656,166.4,656.6,163.2z"/><path fill="#fff" d="M685.5,164.9c-0.3,1.6-2.7-0.4-8.8-1.7c0.5,3.2,0.7,6.6,0.4,10.2l-0.5,5.4 c6.3-0.8,8.3-2.4,9.1-4.6l0.1-0.8C686.2,170.5,686.1,167.6,685.5,164.9z"/><path fill="#f29b9a" d="M676.7,163.2c-2.6-0.6-5.9-1-10.1-1c-4.1,0-7.4,0.5-10.1,1c-0.5,3.1-0.7,6.6-0.4,10.2l0.5,5.4 c2.5,0.3,5.8,0.5,10,0.5c4.2,0,7.4-0.2,10-0.5l0.5-5.4C677.4,169.9,677.2,166.4,676.7,163.2z"/><path fill="#f29b9a" d="M656.3,165.1l-7.6,10.9c1,1.1,2.7,1.9,5.6,2.5l2.1-2.9l-0.2-2.1 C655.9,170.6,656,167.7,656.3,165.1z"/><path fill="#fff" d="M656.4 178.8c.1 0 .1 0 .2 0l0-.3L656.4 178.8zM657.8 163l-1.5 2.1c-.3 2.6-.3 5.4-.1 8.3l.2 2.1 9.3-13.3C662.6 162.3 660 162.6 657.8 163z"/><path fill="#fff" d="M671.6,162.4c-1.1-0.1-2.3-0.2-3.5-0.2l-11.5,16.3l0,0.3c1,0.1,2.1,0.2,3.3,0.3L671.6,162.4z"/><path fill="#f29b9a" d="M774.3,248C774.2,247.9,774.2,247.9,774.3,248L774.3,248l-88.3,0v9.1h88.3v-0.1 c0,0,0.1,0.1,0.1,0.1c0.7,0.4,1.3-1.4,1.3-3.9S775,248.3,774.3,248z"/><path fill="#bd081c" d="M685.9,257h88.3v-0.1c0,0,0.1,0.1,0.1,0.1c0.7,0.4,1.3-1.4,1.3-3.9c0,0,0,0,0,0h-89.6V257z"/><path fill="#f2091b" d="M655.4 303.9c-4-3.7-9.5-8.6-10.4-17.7-.4-4.2-.3-3.7 4.4-51.2 1.3-12.9 2.5-26.7-.6-38.8-1.7-6.5-5-12.7-9.3-13h-17.6c7.1.4 12.7 6.5 15.4 13 5 12.1 3 25.8.9 38.8-7.7 47.5-8 47-7.2 51.2 1.6 9.1 10.5 14 17.2 17.7 5.7 3.2 12 6.1 18.3 6.3l0 0c0 0 .1 0 .1 0l0 0C662.6 310 658.8 307.1 655.4 303.9zM666.6 310.2L666.6 310.2 666.6 310.2z"/><path fill="#f2c8bd" d="M696,196.3c2.7-6.5,8.3-12.7,15.4-13h-17.6c-4.3,0.4-7.7,6.5-9.3,13 c-3.1,12.1-1.8,25.8-0.6,38.8c4.7,47.5,4.8,47,4.4,51.2c-1,9.1-6.4,14-10.4,17.7c-3.5,3.2-7.3,6.1-11.1,6.3l0,0 c0,0,0.1,0,0.1,0l0,0c6.3-0.1,12.6-3.1,18.3-6.3c6.6-3.7,15.6-8.6,17.2-17.7c0.7-4.2,0.5-3.7-7.2-51.2 C693,222.1,691,208.4,696,196.3z"/><path fill="#ef4645" d="M695.4,236.6c-3.3-3.9-7.5-7-12.2-9.2c0.2,2.6,0.5,5.2,0.7,7.7c0,0.3,0.1,0.6,0.1,0.8 c2.9,2.5,4.9,5.5,5.6,8.9c1.5,6.7,0.4,13.2-3,17.8c1.4,14.5,1.8,18.8,1.8,21.2c5.7-3.7,9.8-8.8,12.2-14.7 C699.6,262.2,697.9,252,695.4,236.6z"/><path fill="#f2091b" d="M666.5 310.2L666.5 310.2c0 0 .1 0 .1 0l0 0C666.6 310.2 666.5 310.2 666.5 310.2zM666.8 310.2L666.8 310.2c0 0-.1 0-.1 0C666.7 310.2 666.7 310.2 666.8 310.2z"/><path fill="#f29b9a" d="M677.9,303.9c4-3.7,9.5-8.6,10.4-17.7c0.4-4.2,0.3-3.7-4.4-51.2c-1.3-12.9-2.5-26.7,0.6-38.8 c1.7-6.5,5-12.7,9.3-13h-16h-4.4h-6.5h-0.1h-27.3c4.3,0.4,7.7,6.5,9.3,13c3.1,12.1,1.8,25.8,0.6,38.8 c-4.7,47.5-4.8,47-4.4,51.2c1,9.1,6.4,14,10.4,17.7c3.5,3.2,7.3,6.1,11.1,6.3l0,0c0,0,0.1,0,0.1,0l0,0l0,0c0,0,0,0,0,0 c0,0,0.1,0,0.1,0l0,0C670.6,310,674.4,307.1,677.9,303.9z"/><path fill="#f2091b" d="M649.1,237.4c4.1-4,10.6-7,18.9-7c6.4,0,12,2.2,16,5.5c0-0.3-0.1-0.6-0.1-0.8 c-0.3-2.5-0.5-5.1-0.7-7.7c-5.1-2.4-10.8-3.8-16.4-3.8c-5.8,0-11.6,1.4-16.8,4c-0.2,2.5-0.5,5-0.7,7.5 C649.3,235.8,649.2,236.6,649.1,237.4z"/><path fill="#f2091b" d="M657.2,247c0.3-4.3,3.3-7.3,6.8-7.3c2.9,0,4.4,1.8,4.4,4.1c0.1,2.7-1.9,6.9-3,11.2 c-1,3.8,2,7.1,6.1,7.1c7.4,0,11.1-8.8,9.8-17.8c-0.9-6-5.9-10-14.1-10c-9.2,0-15.7,5.7-16.7,12.8c-0.4,2.7,0.3,4.7,1.5,6.3 c0.6,0.7,0.6,1,0.3,1.9c-0.3,0.6-0.9,2.2-1.1,2.9c-0.4,0.9-1.2,1.3-2,0.9c-0.8-0.3-1.5-0.8-2.2-1.3 c-1.5,15.5-2.1,21.4-2.3,24.5c1.3,1,2.7,1.8,4.1,2.6c0.3-3.7,0.9-7.9,2.1-11.6c1.2-3.7,6.9-21.4,6.9-21.4S657,249.9,657.2,247 z"/><path fill="#f2091b" d="M688.5,283.8c0-2.4-0.4-6.7-1.8-21.2c-3,4.1-7.7,6.7-13.9,6.7c-4.4,0-8.6-2.5-9.9-5.2 c0,0-2.7,10-3.4,12.1c-1.1,3.8-3.2,7.9-5.2,11.2c4.1,1.5,8.6,2.4,13.3,2.4C675.8,289.7,682.9,287.5,688.5,283.8z"/><path fill="#620814" d="M644.8,282.3c0.1-3.1,0.7-9,2.3-24.5c-3.2-2.5-4-7-3.1-11.5c0.6-3.1,2.4-6.3,5.1-9 c0.1-0.8,0.2-1.5,0.2-2.3c0.2-2.5,0.5-5,0.7-7.5c-4.8,2.4-9.1,5.8-12.3,10c-2.1,13.1-3.7,22.3-4.7,28.9 C635.1,272.6,639.1,278.1,644.8,282.3z"/><path fill="#f2091b" d="M598.7 175.3H620v-3.2c0-2.8-2.3-5.1-5.1-5.1h-20.4c-1.1 0-2 .9-2 2l0 0C592.5 172.6 595.3 175.3 598.7 175.3zM734.5 175.3h-21.3v-3.2c0-2.8 2.3-5.1 5.1-5.1h20.4c1.1 0 2 .9 2 2l0 0C740.8 172.6 738 175.3 734.5 175.3z"/><path fill="#f27473" d="M848.9 280.7L848.9 319 484.6 319 484.6 280.7 482 280.7 482 319 482 321.7 484.6 321.7 848.9 321.7 851.6 321.7 851.6 280.7z"/><path fill="#f2c8bd" d="M851.6 280.7L849 280.7 833.6 273.9 836 273.9zM501.5 273.2L499 273.2 482 280.7 484.6 280.7z"/><path fill="none" d="M666.8,223.6c-14.9,0-29.8,9.3-34.2,23.9c-4.2,14.1,1.9,29.4,16.3,37.4c0.3-3.7,0.9-7.9,2.1-11.6 c1.2-3.7,6.9-21.4,6.9-21.4s-1-2.1-0.7-5c0.3-4.3,3.3-7.3,6.8-7.3c2.9,0,4.4,1.8,4.4,4.1c0.1,2.7-1.9,6.9-3,11.2 c-1,3.8,2,7.1,6.1,7.1c7.4,0,11.1-8.8,9.8-17.8c-0.9-6-5.9-10-14.1-10c-9.2,0-15.7,5.7-16.7,12.8c-0.4,2.7,0.3,4.7,1.5,6.3 c0.6,0.7,0.6,1,0.3,1.9c-0.3,0.6-0.9,2.2-1.1,2.9c-0.4,0.9-1.2,1.3-2,0.9c-4.9-2.1-6.3-7.4-5.2-12.7c1.6-7.9,10.2-16,24-16 c11.1,0,19.9,6.4,21.6,14.4c2.8,12.7-3.6,24.4-16.9,24.4c-4.4,0-8.6-2.5-9.9-5.2c0,0-2.7,10-3.4,12.1c-1.1,3.8-3.2,7.9-5.2,11.2 c4.1,1.5,8.6,2.4,13.3,2.4c26.3,0,40.4-22.3,34-42.2C696.8,232.9,681.7,223.6,666.8,223.6z"/></g></svg>
