<svg xmlns="http://www.w3.org/2000/svg" xmlns:xlink="http://www.w3.org/1999/xlink" viewBox="0 0 1000 436.1"><defs><path id="a" d="M1000 0H0v276.5c16.1 35 55.5 53.5 93.2 55.6 75.5 4.2 147.4-45.5 222.7-32.8 78 13.1 135.3 90.7 235.8 120 57.1 16.6 118.3 12.6 175.9-1.7 69.6-17.3 130.3-46.6 272.3-109.8V0z"/></defs><clipPath id="b"><use xlink:href="#a" overflow="visible"/></clipPath><path clip-path="url(#b)" fill="#a50218" d="M-.3-.4H1000v298.9H-.3z"/><path transform="rotate(-7.313 33.904 124.6553)" clip-path="url(#b)" fill="#fc7149" d="M27.1 117.8h13.7v13.7H27.1z"/><g clip-path="url(#b)"><path fill="#d21b0c" d="M-1.3 8.8h140.2V104H-1.3z"/><g fill="#ff1f09"><path d="M64.6 66.2c-2.1-.2-4.4.3-6.4-.4-2.2-.7-2.7-2.3-4.4-3.1-1.7-.7-3.1-.7-4.9-.3-1.2.3-3 .9-3.8 1.8-1 1-1.2 2.6-1.7 3.8-1.3 2.8-3.3 3.9-5.4 5.9-2.7 2.5-3.4 5.4-1.6 8.8.2.4.7.2.8-.1 3.4-1 6.8-2 10.2-2.9.1 1.5.1 3 .1 4.5-7.1.6-14.7 3.6-21.4 5.4-1.4-.3-1.4 2-1.4 2.9 0 .6.9.6.9 0 0-.2 0-2.1.4-2h.3c7.3-1.9 15.5-5.3 23.1-5.5.2.1.4.1.5 0 0 0 .1.1.2.1 3.7.7 7.4 1.6 11 2.5 2.6.7 9.8 1 9.9 4 0 .6.9.6.9 0-.2-3.3-1.8-2.7-5.1-3.5-5.5-1.3-11-2.8-16.5-3.8H50c-.2-1.7-.2-3.5-.2-5.2 7.5-2 15-3.9 22.5-5.8.1 0 .2-.1.2-.2.2.5 1 .2.8-.3-1.6-4-4.5-6.1-8.7-6.6zM48.9 84.1h-.7c0-1.6 0-3.1-.1-4.7.2 0 .3-.1.5-.1l.3 4.8zm-12.1-2.4c-2.5-5.5 3.2-7.2 5.9-10.8 2.9-3.8 2.9-8.4 9.1-7 2.9.6 4.5 2.6 7.5 3 5.2.8 10.2-.3 12.7 5.4h-.1c-11.8 3-23.5 6-35.1 9.4zM109.6 91c-4.2-1.2-9-3.5-13.5-3.1-4.7.4-9.6 2.5-14 3.9-.6.2-.3 1.1.2.9 3.9-1.3 8.2-3 12.3-3.6 5-.8 10 1.5 14.7 2.8.6.2.9-.7.3-.9z"/><path d="M47.2 88.2c-6.7.7-13.4 1.7-20.1 3-.6.1-.3 1 .2.9 6.6-1.3 13.2-2.3 19.8-2.9.7-.1.7-1.1.1-1z"/><path d="M49.2 92.2c.1.7.2 1.4.2 2-.1 0-.2-.1-.3-.1-.4.1-.8.1-1.2.1v-.7c0-.3 0-.8.3-1 .3.1.7 0 .6-.4-.2-2.1-.4-4.3-.7-6.4-.1-.6-1-.6-.9 0l.6 6c-.1 0-.1 0-.2.1-1 .6-.8 1.9-.9 3 0 .2.2.5.5.5.7 0 1.3 0 2-.2.2 0 .3-.1.3-.2.3.1.7 0 .7-.4 0-.8-.1-1.7-.3-2.5.1-.6-.8-.4-.7.2zM68.9 90.5c-6-1.2-12.4-1.8-18.5-2.3-.6 0-.6.9 0 .9 6.1.5 12.7 1.1 18.7 2.3v.2c.1.6 1 .6.9 0 0-.4-.1-.7-.2-1.1-.2-.4-.7-.3-.9 0z"/><path d="M49.6 90c0-1.4.1-2.7.1-4.1 0-.6-.9-.6-.9 0 0 1.4-.1 2.7-.1 4.1 0 .6.9.6.9 0zM73.3 21.7c14.2 0 28.4 0 42.6.1.6 0 .6-.9 0-.9-14.2 0-28.4 0-42.6-.1-.5 0-.5.9 0 .9zM73.5 24.5c-.6 0-.6.9 0 .9 6.8 0 13.5.2 20.3.5.6 0 .6-.9 0-.9-6.7-.3-13.5-.5-20.3-.5zM72.7 28.5c6.8-.1 13.7-.1 20.5-.2.6 0 .6-.9 0-.9-6.8.1-13.7.1-20.5.2-.5 0-.6.9 0 .9zM72.7 30.5c-.6 0-.6.9 0 .9 6.4-.4 12.8-.6 19.3-.7.6 0 .6-.9 0-.9-6.4.1-12.8.3-19.3.7zM72.7 34.4c6.2-.2 12.5-.4 18.7-.6.6 0 .6-.9 0-.9-6.2.2-12.5.4-18.7.6-.6 0-.6.9 0 .9zM72.5 37.1c4-.1 8-.2 11.9-.3 2.4-.1 5.9.6 8.1-.4.3-.1.3-.5.1-.7l-.1-.1c-.2-.2-.5-.1-.6 0l-.1.1c-.2.2-.2.4 0 .6-1.2-.1-3.7-.4-4.3-.4-1.7 0-3.5.1-5.2.1-3.2.1-6.5.2-9.7.2-.7 0-.7.9-.1.9zM115.1 25c.6 0 .6-.9 0-.9-6.1 0-12.2.2-18.3.7-.6 0-.6 1 0 .9 6.1-.5 12.2-.7 18.3-.7zM115.5 26.9c-6.4 0-12.8 0-19.2.1-.5 0-.6.6-.2.8l.1.1c.2.1.4.1.5 0 6.5-.1 13-.1 19.6-.1.6 0 .6-.9 0-.9h-.8zM113.2 29c-5.9.2-11.7.5-17.6.8-.6 0-.6.9 0 .9 5.5-.3 10.9-.5 16.4-.7.1 0 .2.1.3.1.3 0 .6-.1.9-.1.6-.2.6-1 0-1zM112.4 32.4c.2-.1.5-.1.7-.2.5-.1.4-.9-.1-.9-5.9.3-11.7.6-17.6.9-.6 0-.6.9 0 .9 5.5-.3 11.1-.6 16.6-.9.1.2.3.2.4.2zM103.2 35c-2.6.1-5.1.1-7.7.2-.6 0-.6.9 0 .9 2-.1 4-.1 6-.2.9 0 1.7 0 2.6-.1.1 0 1.5 0 2.3-.2 0 .1 0 .1.1.2 0 0 0 .1.1.1.2.2.5.1.6 0l.1-.1c.2-.2.2-.5 0-.6-.8-.8-3.1-.2-4.1-.2zM49.3 53.9c.1 0 .2.1.3.1.3.1.5 0 .6-.1.7-.1 1.3-.2 2-.4 1.2-.3 2.5-.8 3.1.5-.2.3-.1.8.3.7h.3c.3 0 .5-.3.4-.6-.3-.8-.8-1.8-1.7-2-1.6-.2-3.4.7-4.9.8h-.4c-.6.1-.6 1 0 1z"/><path d="M122.4 53c-.3-.2-.6-.5-.9-.7-.1-.1-.3-.1-.5 0-5 2.6-11.1 6.9-16.9 6.7-6-.2-12-1.7-17.9-2.6-10.2-1.4-19.7.1-29.8 1.3-.2-.2-.5-.2-1.2-.5-1-.5-4.5.5-5.6.6-2.1.3-4.2.6-6.4 1-2.5.4-8.4.6-10.3 2.5-.8.8-.7 1.1-.3 2.3-1.7-.3-1.8-.8-3.2-2.1-.9-.9-1.9-1.9-2.9-2.7-2-1.6-4.1-2.6-6.5-1.3-.5.3-.1 1.1.5.8.1 0 .1-.1.2-.1.6 1 1.3 2 1.9 3-3.5-.5-4.2-5-5-7.8-.8-2.5-2.5-6.4-1.8-9.2 1.3 3.5 2.6 7 3.9 10.4.1.3.4.4.6.3.1 0 .1 0 .2-.1 3.2-1.9 3.5-6.2 2.2-10.5.1-.1.1-.2.1-.3-.1-2.2.2-4.3.8-6.3.1-.1.2-.2.2-.4.1-3.2.5-6.3 1.2-9.4.6-2.4 1.1-4.5 3.8-5.6 2.2-.9 3.9-.4 4.8 2 .5 1.3.8 3.6.8 4.9-.2 3.6-.1.2-.8 2-.9 2.3-2.1 6.3-5.5 3.9-.5-.3-.9.4-.5.8l.9.6c0 3.2 2.7 4.6 4.9 6.7 3.2 3 5.8 6.5 7.8 10.4-.3 0-.5.1-.8.1-1.9.2-4.5.6-6.3 0-3-4.2-5.7-8.5-8-13.1-.3-.6-1.1-.1-.9.4 2.4 4.6 5.1 8.9 8.1 13.1 0 .1.1.1.1.1 0 .1.1.2.2.2 2.1.7 4.6.2 6.7 0 2.4-.2 4.7-.5 7.1-.8.6-.1.3-1-.2-.9-1.7.2-3.4.4-5.2.6V53c-1.4-2.6-3-5.1-4.9-7.4-2-2.4-7.2-5.5-7.6-8.8 2.1.6 3-1.3 4.3-3.7 1-1.8 1.7-1.9 1.5-4-.1-2.1-.3-5-1.4-6.9-1.5-2.6-6-1.3-7.7.5-1.4 1.4-1.8 3.6-2.2 5.5-.6 2.9-1 5.8-1.1 8.7l-.2.2c-.5 1.7-.8 3.3-.9 5.1-1.9-4.6-5.5-8.5-8.8-8.8-.2 0-.4.1-.4.3-.3 0-.6.2-.5.5 1.1 2.9 2.1 5.7 3.2 8.6-1.8 3.8.9 8.9 2 12.7 1.3 4 1.4 6.6 5.9 6.6 2.9 4.6 5.6 9.3 8.3 14 .1.2.4.3.6.2.1 0 .3 0 .4-.1 1.6-1.3 15.9-12 8-13.1-.3 0-.7-.1-1 0 5.7-.9 11.5-1.5 17.1-2.7.3-.1.4-.3.3-.6-.1-.5-.1-.9-.2-1.2 6.7-.8 13.4-2 20.2-2 7.4 0 14.7 1.6 21.9 2.6 2.7.4 5.8 1.2 8.5.7 2.7-.4 5.5-2.4 7.9-3.6 2.2-1.1 7.6-4.4 4 .1-2.2 2.7-4.5 5.5-6.8 8.1-.4-.2-.8-.4-1.3-.6-4.6-1.8-10.3-1.1-15.2-1-7.5.2-19.4-.7-19.2 9.8 0 .4.3.5.6.4h.1c5.7.7 11.7 0 17.5-.2 0 3.5.1 7 .1 10.6-.1.1-.1.2-.1.3-.1-.1-.3-.2-.5-.1-3.9 2.2-8 4.2-12.2 6-.6 0-1.4.1-1.6.7-.1.3-.1.8-.1 1.1 0 .5-.1.9-.1 1.4 0 .6.9.6.9 0 0-.5.1-1 .1-1.5v-.6c.1-.2.3-.2.5-.2.1.1.2.1.4 0 .1 0 .2 0 .3-.1 4.2-1.8 8.3-3.8 12.2-6 .1-.1.2-.2.2-.3.2.4.9.4.9-.1-.1-3.7-.1-7.5-.2-11.2h.3c0 3.7-.1 7.5-.1 11.2 0 .5.6.6.8.3 4.4 2.1 8.8 4.3 13.1 6.4.1 0 .2.1.3 0 .2 0 .5 0 .6.1.1.1.1.3.2.4.1.4.2.9.3 1.3.1.6 1 .6.9 0-.1-.7-.2-1.4-.4-2-.2-.6-.8-.7-1.4-.8h-.1c-4.4-2.1-8.8-4.3-13.1-6.4h-.2c0-3.5.1-7.1.1-10.6 6-.2 12-.2 18-.1h.2c.3.1.7 0 .7-.4 0-3.2-.5-5.7-2.7-7.4 3.2-3.7 6.3-7.5 9.4-11.4.1 0 0-.3-.2-.5zm-102.1.8c-2.4-6.5-4.8-13-7.2-19.4 5.9.5 12.8 15.3 7.2 19.4zm19.6 14.6c-1.5 2.5-5.4 5.1-7.8 7-3.3-6-6.8-11.8-10.5-17.6 5-1.4 7.3 7.5 12 7.4 2.3 0 9.8-2.9 6.3 3.2zm15.2-9.3c-1.5 2.2-7.7 1.7-10.5 2.1-3.7.5-7.4 1.2-11.1 2-.1-2.5 7.6-3.1 9-3.4l5.4-.9c1.8-.3 3.6-.5 5.4-.7 2.4-.5 3-.2 1.8.9zM114.8 72c-6.4-.2-12.8-.1-19.3.1-5.9.2-12.1.9-18 .3.2-9.1 11.6-8.3 18.3-8.5 7-.2 18.7-1.7 19 8.1z"/><path d="M77.7 65.9c.6-.1.6-1 0-.9-2.6.3-5.3.6-7.9.9-.6.1-.6 1 0 .9 2.7-.3 5.3-.6 7.9-.9z"/></g></g><path transform="rotate(-22.916 496.9903 89.6665)" clip-path="url(#b)" fill="#fc7149" d="M490.2 82.8h13.7v13.7h-13.7z"/><path d="M694.2 189.4l-11.6-98.6c-.4-3.4-3.5-6.2-7-6.2H503.4c-3.5 0-5.9 2.8-5.5 6.2l12.8 108.8c.1.8.4 1.7.8 2.4.2.4.4.7.7 1 .9 1.1 2.2 2 3.6 2.4.4.1.8.2 1.3.2h172.7c3.5 0 5.9-2.8 5.5-6.2l-1.1-10z" clip-path="url(#b)" fill="#70041d"/><path d="M497.9 90.8l.7 5.7 7.4-3.1-3.6-8.6c-2.9.4-4.9 3-4.5 6z" clip-path="url(#b)" fill="#ff1f09"/><g clip-path="url(#b)"><path fill="#d21b0c" d="M663.7 16.2h165.7v93.9H663.7z"/><path d="M681.4 71.2c-3.3-.1-6.5.2-9.7 1-.4.1-.3.8.2.7 3.1-.8 6.3-1.1 9.5-1 .5 0 .5-.7 0-.7zm59.2-33c7.9-.7 15.8-.8 23.7-.2.5 0 .4-.7 0-.7s-.8-.1-1.2-.1c-.2 0-.3.1-.3.3-.5-.5-1.2-.7-2.1-.4-.6 0-1.2-.1-1.8-.1-2.1-.1-4.3-.1-6.4-.1-4 0-7.9.3-11.9.6-.5 0-.5.7 0 .7zm-55.9 19.3c-4.1 1.3-7.4 4.2-9.1 8.2-.2.4.4.8.6.4 1.7-3.8 4.8-6.6 8.7-7.9.4-.2.2-.9-.2-.7zm-2.9 10.3c-3.7-.3-7.3-.2-11 .5-.4.1-.3.7.2.7 3.6-.6 7.2-.7 10.8-.4.4-.1.4-.8 0-.8zm-.4 1.7c-3.6 0-7.3.1-10.9.4-.4 0-.5.7 0 .7 3.6-.3 7.3-.4 10.9-.4.5 0 .5-.7 0-.7zM762.7 40c.4 0 .5-.5.2-.7-1-.7-1.5-.7-2.6-.2-.1 0-.1.1-.1.1-.9 0-2.1.1-2.3.1-1.9 0-3.8 0-5.6.1-3.5 0-7 .1-10.4.1-.5 0-.5.7 0 .7 6.9 0 13.8-.1 20.8-.2zm-21.8-4c8.4-.1 16.7-.1 25.1-.1.5 0 .5-.7 0-.7h-1.2c-.2 0-.3.1-.3.3-.6-.6-1.3-.7-2.3-.3h-8.6c-4.2 0-8.4.1-12.5.1-.6 0-.6.7-.2.7zm46.3-6.4c-.1-.1-.3-.1-.4-.1-3.9 2.2-6 7.8-7.2 11.8-1.1 3.8-3.5 9.8.1 12.9.3.3.8-.2.5-.5-3.4-2.9-.2-11.7 1.1-15.2.7-1.8 1.5-3.5 2.7-5.1 1.7-2.3 2.6-2.5 2.2.6-.5 3.3-2 6.4-2.5 9.7-.2 1.3-.8 10.5-2.1 9.9-.4-.2-.8.4-.4.6 3.3 1.5 2.6-5.6 2.7-7 .2-1.8.5-3.6.8-5.3 3 .9.9 9.4.6 11.7-.5 4-.6 8.2-1.8 12.1-1.1 3.8-5.2 4.7-8.6 4-1.8-.3-3.7-1.5-5.4-2.2-3.1-1.3-6.3-2.5-9.4-3.8 5.8 1.4 11.6 2.1 17.5 2.3.2 0 .3-.1.3-.2.2 0 .4-.1.4-.3 1.2-9.2-9.6-6.6-15.6-6.5-7.2.1-18.5-2-23.7 4.4-.3.3.2.8.5.5 4-5 11.5-4 17.3-4.1 4.4-.1 21.7-2.7 20.8 5.6h-.1c-8.4-.3-16.1-2-24.1-4.2-2.4-.7-4.3-1-6.7-.2-2.6.9-3.7 2.7-6.7 2.7-.5 0-.5.7 0 .7 2.4.1 2.1 0 3.7-.8 3-1.4 4.3-2.4 7.2-2.2-1.3 1.5-1.6 3.1-1.9 5.1-.8 4.1-1.4 8.3-2.1 12.5-1.2 7.7-2.3 15.5-3.4 23.2-.1.4.6.4.7 0 .9-7 1.9-14.1 3-21.1.5-2.9.9-5.8 1.4-8.6.5-3.2.6-8.3 2.9-10.8 0-.1.1-.1.1-.2l1.5.3c1.1.3 2.2.6 3.2.9 0 .1.1.3.2.4 3.6 1.5 7.2 2.9 10.7 4.4 3.1 1.2 6.5 3.2 9.7 3.7 3.3.5 5.2-1 6.5-4 2-4.8 1.9-11.3 2.5-16.4.4-3.2 2.8-8.8-1.5-9.6.5-2.3 1.1-4.7 1.9-7 1-1.4 2.4-3.3.9-4.6zm-46.3 13.7l24.1-.4c.5 0 .5-.7 0-.7l-24.1.4c-.4 0-.4.7 0 .7zm1-9.5l22.1-.6c.5 0 .5-.7 0-.7-7.4.2-14.8.4-22.1.6-.4 0-.4.7 0 .7zm9.4 31.6c-1.2 10.5-2.2 21.1-4.1 31.5-.1.4.6.6.7.2 2-10.5 3-21.1 4.2-31.7-.1-.5-.8-.5-.8 0zm-30.2-8.5c-.1 0-.1.1-.2.2-1.5.1-2.9.1-4.4.1V57l-.1-.1c-.3-.7-.2-1.9-.2-2.5-.1-.8-.1-1.6-.2-2.3 1.6 0 3.1-.1 4.7-.2 2.4-.1 4.6 0 5.8-2.3 1.7-3.4 0-10.9-1.2-14.3-1.1-3-3.1-3.4-6.1-3.6-5.5-.4-11.3-.2-16.9 0-2.9.1-5.1.4-6.1 3.3v.1c-.1 0-.2.1-.2.2-.6 3.4-2.8 10-1.4 13.4 1.2 2.7 4.2 3 6.8 3.1 1.6.1 3.3.1 4.9.2-.1.4 0 .9 0 1.2 0 1.4-.1 2.8-.1 4.1-1.7.1-3.4.1-5.1.1 0-.1-.1-.2-.2-.2-2.8-1.6-14.1-4.3-12.4 2.5.9 3.7 4.9 5.1 9.4 5.5-2.6 2.8-2.8 9.9-3.3 12.7-1.4 7.7-2.7 15.5-4.1 23.2 0 .2.1.5.3.4.3 0 .6-.1.8-.1.4-.1.4-.8 0-.7 0 0 2.4-15.7 2.6-17.1.6-3.5 1.1-15.6 4.5-18.4 2.2.2 4.4.1 6.3 0v.3c-3.7.1-5.2 1-6.5 4.5-2.3 5.9-3.1 12.5-4.3 18.7-.1.4.6.6.7.2.7-3.9 1.4-7.7 2.3-11.6 1-4.7 1.7-10.9 7.8-11v.8c0 .1 0 .2.1.2h-1.7c-.5 0-.5.7 0 .7 2.9 0 5.8-.1 8.7-.1 2.7 0 7.1-.8 9.4.9.4.3.7-.3.4-.6-1.3-1-2.9-1.1-4.5-1.1 0-.4 0-.8-.1-1.2 6.4.3 6.4 6.8 7.4 11.6.8 4 1.8 8.1 2.3 12.2.1.4.8.4.7 0-.8-6.3-2.1-12.7-3.6-18.9-1-4-2.6-5.4-6.7-5.6v-.4c1.7 0 3.3-.1 5-.2 5.3 1.9 5.3 14.2 6.2 18.7 1.2 6.1 2.5 12.1 4 18.1.1.4.8.3.7-.2-2-8.2-3.7-16.5-5.2-24.8-.7-4-.5-9.6-4.3-11.9 1.5-.1 2.9-.2 4.3-.4 2.5-.3 4.2-1.3 5.3-3.7 3.4-7.7-9.1-4.8-12.3-3.5zM695 45.6c-.5-3 1-7.1 1.5-10.1v-.2c.1 0 .2-.1.2-.2.7-1.9 4.5-2.8 6.2-2.9h12c4.2 0 7.6-.3 9.8 4 1 2 2.3 8.4 1.4 10.7-.7 1.9-3.7 3.8-5.5 4.2-1.4.3-3.4.1-4.8.1h-8.7c-4.4 0-11.1 1.1-12.1-5.6zm11.7 6.5c.1 0 .1-.1.1-.1 2.8.1 5.6.1 8.4 0l.3 3c.1.7 0 1.6.3 2.2h-6.2c-1 0-1.9 0-2.9.1 0-.9.1-1.8.1-2.6 0-.2.1-2.6-.1-2.6zm8 15.3c-3.1 0-6.1.1-9.2.1 0-.1.1-.1.1-.2 0-.6.1-1.2.1-1.9 1.8-.1 3.3-.2 4.4-.2 2.1 0 4.3-.1 6.4-.1 0 .6 0 1.3.1 1.9 0 .1-.1.2 0 .3v.1h-1.9zm8.8-3.5c-4.1.2-8.3.5-12.4.6-4.1.1-8.3.2-12.4-.2-2.1-.2-7-.4-8.3-2.6.2-5 2.1-6.8 5.8-5.6 1.2.3 2.4.7 3.5 1.3-2.2-.1-4.3-.3-6.3-1-.4-.1-.6.5-.2.7 5.2 1.6 11.1.9 16.4.8 6-.1 12.1.2 18-.9.4-.1.3-.8-.2-.7-1.5.3-3.1.5-4.6.6.6-.2 1.2-.5 1.8-.7 3.3-1.4 5.7.3 7.4 5-2.1 2.3-5.8 2.6-8.5 2.7zm56.1 9.9c.8 7.9 1.4 15.9 1.9 23.9 0 .4.7.5.7 0-.5-8-1.2-15.9-1.9-23.9 0-.4-.7-.4-.7 0zm1.3-2.7c-.4-.1-.6.6-.2.7 2.2.6 2.3 13.6 2.5 15.7.5 4.7.9 9.5 1.4 14.2 0 .4.7.4.7 0-.7-7.3-1.4-14.5-2.2-21.8-.2-2.1.5-8-2.2-8.8zm39.7-33c-4 0-8 .2-12 .8-.4.1-.3.7.2.7 3.9-.5 7.8-.8 11.8-.8.4 0 .4-.7 0-.7zm.3-1.8c-4.6.2-9.3.5-13.9.9-.4 0-.4.7 0 .7 4.6-.4 9.2-.7 13.9-.9.5 0 .5-.7 0-.7zm-16.2 4.2c-.1 0-.1-.1-.2-.1-.2-.1-.4 0-.5.1-.1.1-.1.2-.1.3-.1.1-.1.2-.1.3-1.4 2.7-2.1 5.7-3.6 8.4-1.3 2.3-5.9 9.3-9.3 8.2-.4-.1-.6.5-.2.7 2.7.9 6.4-3.4 7.8-5.2 1.3-1.7 2.4-3.5 3.3-5.5.4-.8.7-1.5 1-2.3.1-.2 1-2.7 1.2-4h.1c.4-.1.4-.2.6-.5.2-.1.2-.4 0-.4zm12.9.1c-3.4-.4-6.7-.2-10 .5-.4.1-.3.8.2.7 3.3-.7 6.5-.9 9.8-.5.5.1.5-.6 0-.7z" fill="#ff1f09"/></g><path d="M933.5 189.4l-11.6-98.6c-.4-3.4-3.5-6.2-7-6.2H742.8c-3.5 0-5.9 2.8-5.5 6.2l12.8 108.8c.1.8.4 1.7.8 2.4.2.4.4.7.7 1 .9 1.1 2.2 2 3.6 2.4.4.1.8.2 1.3.2h172.7c3.5 0 5.9-2.8 5.5-6.2l-1.2-10z" clip-path="url(#b)" fill="#70041d"/><g clip-path="url(#b)"><defs><path id="c" d="M933.5 189.4l-11.6-98.6c-.4-3.4-3.5-6.2-7-6.2H742.8c-3.5 0-5.9 2.8-5.5 6.2l12.8 108.8c.1.8.4 1.7.8 2.4.2.4.4.7.7 1 .9 1.1 2.2 2 3.6 2.4.4.1.8.2 1.3.2h172.7c3.5 0 5.9-2.8 5.5-6.2l-1.2-10z"/></defs><clipPath id="d"><use xlink:href="#c" overflow="visible"/></clipPath><g clip-path="url(#d)"><path fill="#a50218" d="M663.7 16.2h165.7v93.9H663.7z"/><path d="M681.4 71.2c-3.3-.1-6.5.2-9.7 1-.4.1-.3.8.2.7 3.1-.8 6.3-1.1 9.5-1 .5 0 .5-.7 0-.7zm59.2-33c7.9-.7 15.8-.8 23.7-.2.5 0 .4-.7 0-.7s-.8-.1-1.2-.1c-.2 0-.3.1-.3.3-.5-.5-1.2-.7-2.1-.4-.6 0-1.2-.1-1.8-.1-2.1-.1-4.3-.1-6.4-.1-4 0-7.9.3-11.9.6-.5 0-.5.7 0 .7zm-55.9 19.3c-4.1 1.3-7.4 4.2-9.1 8.2-.2.4.4.8.6.4 1.7-3.8 4.8-6.6 8.7-7.9.4-.2.2-.9-.2-.7zm-2.9 10.3c-3.7-.3-7.3-.2-11 .5-.4.1-.3.7.2.7 3.6-.6 7.2-.7 10.8-.4.4-.1.4-.8 0-.8zm-.4 1.7c-3.6 0-7.3.1-10.9.4-.4 0-.5.7 0 .7 3.6-.3 7.3-.4 10.9-.4.5 0 .5-.7 0-.7zM762.7 40c.4 0 .5-.5.2-.7-1-.7-1.5-.7-2.6-.2-.1 0-.1.1-.1.1-.9 0-2.1.1-2.3.1-1.9 0-3.8 0-5.6.1-3.5 0-7 .1-10.4.1-.5 0-.5.7 0 .7 6.9 0 13.8-.1 20.8-.2zm-21.8-4c8.4-.1 16.7-.1 25.1-.1.5 0 .5-.7 0-.7h-1.2c-.2 0-.3.1-.3.3-.6-.6-1.3-.7-2.3-.3h-8.6c-4.2 0-8.4.1-12.5.1-.6 0-.6.7-.2.7zm46.3-6.4c-.1-.1-.3-.1-.4-.1-3.9 2.2-6 7.8-7.2 11.8-1.1 3.8-3.5 9.8.1 12.9.3.3.8-.2.5-.5-3.4-2.9-.2-11.7 1.1-15.2.7-1.8 1.5-3.5 2.7-5.1 1.7-2.3 2.6-2.5 2.2.6-.5 3.3-2 6.4-2.5 9.7-.2 1.3-.8 10.5-2.1 9.9-.4-.2-.8.4-.4.6 3.3 1.5 2.6-5.6 2.7-7 .2-1.8.5-3.6.8-5.3 3 .9.9 9.4.6 11.7-.5 4-.6 8.2-1.8 12.1-1.1 3.8-5.2 4.7-8.6 4-1.8-.3-3.7-1.5-5.4-2.2-3.1-1.3-6.3-2.5-9.4-3.8 5.8 1.4 11.6 2.1 17.5 2.3.2 0 .3-.1.3-.2.2 0 .4-.1.4-.3 1.2-9.2-9.6-6.6-15.6-6.5-7.2.1-18.5-2-23.7 4.4-.3.3.2.8.5.5 4-5 11.5-4 17.3-4.1 4.4-.1 21.7-2.7 20.8 5.6h-.1c-8.4-.3-16.1-2-24.1-4.2-2.4-.7-4.3-1-6.7-.2-2.6.9-3.7 2.7-6.7 2.7-.5 0-.5.7 0 .7 2.4.1 2.1 0 3.7-.8 3-1.4 4.3-2.4 7.2-2.2-1.3 1.5-1.6 3.1-1.9 5.1-.8 4.1-1.4 8.3-2.1 12.5-1.2 7.7-2.3 15.5-3.4 23.2-.1.4.6.4.7 0 .9-7 1.9-14.1 3-21.1.5-2.9.9-5.8 1.4-8.6.5-3.2.6-8.3 2.9-10.8 0-.1.1-.1.1-.2l1.5.3c1.1.3 2.2.6 3.2.9 0 .1.1.3.2.4 3.6 1.5 7.2 2.9 10.7 4.4 3.1 1.2 6.5 3.2 9.7 3.7 3.3.5 5.2-1 6.5-4 2-4.8 1.9-11.3 2.5-16.4.4-3.2 2.8-8.8-1.5-9.6.5-2.3 1.1-4.7 1.9-7 1-1.4 2.4-3.3.9-4.6zm-46.3 13.7l24.1-.4c.5 0 .5-.7 0-.7l-24.1.4c-.4 0-.4.7 0 .7zm1-9.5l22.1-.6c.5 0 .5-.7 0-.7-7.4.2-14.8.4-22.1.6-.4 0-.4.7 0 .7zm9.4 31.6c-1.2 10.5-2.2 21.1-4.1 31.5-.1.4.6.6.7.2 2-10.5 3-21.1 4.2-31.7-.1-.5-.8-.5-.8 0zm-30.2-8.5c-.1 0-.1.1-.2.2-1.5.1-2.9.1-4.4.1V57l-.1-.1c-.3-.7-.2-1.9-.2-2.5-.1-.8-.1-1.6-.2-2.3 1.6 0 3.1-.1 4.7-.2 2.4-.1 4.6 0 5.8-2.3 1.7-3.4 0-10.9-1.2-14.3-1.1-3-3.1-3.4-6.1-3.6-5.5-.4-11.3-.2-16.9 0-2.9.1-5.1.4-6.1 3.3v.1c-.1 0-.2.1-.2.2-.6 3.4-2.8 10-1.4 13.4 1.2 2.7 4.2 3 6.8 3.1 1.6.1 3.3.1 4.9.2-.1.4 0 .9 0 1.2 0 1.4-.1 2.8-.1 4.1-1.7.1-3.4.1-5.1.1 0-.1-.1-.2-.2-.2-2.8-1.6-14.1-4.3-12.4 2.5.9 3.7 4.9 5.1 9.4 5.5-2.6 2.8-2.8 9.9-3.3 12.7-1.4 7.7-2.7 15.5-4.1 23.2 0 .2.1.5.3.4.3 0 .6-.1.8-.1.4-.1.4-.8 0-.7 0 0 2.4-15.7 2.6-17.1.6-3.5 1.1-15.6 4.5-18.4 2.2.2 4.4.1 6.3 0v.3c-3.7.1-5.2 1-6.5 4.5-2.3 5.9-3.1 12.5-4.3 18.7-.1.4.6.6.7.2.7-3.9 1.4-7.7 2.3-11.6 1-4.7 1.7-10.9 7.8-11v.8c0 .1 0 .2.1.2h-1.7c-.5 0-.5.7 0 .7 2.9 0 5.8-.1 8.7-.1 2.7 0 7.1-.8 9.4.9.4.3.7-.3.4-.6-1.3-1-2.9-1.1-4.5-1.1 0-.4 0-.8-.1-1.2 6.4.3 6.4 6.8 7.4 11.6.8 4 1.8 8.1 2.3 12.2.1.4.8.4.7 0-.8-6.3-2.1-12.7-3.6-18.9-1-4-2.6-5.4-6.7-5.6v-.4c1.7 0 3.3-.1 5-.2 5.3 1.9 5.3 14.2 6.2 18.7 1.2 6.1 2.5 12.1 4 18.1.1.4.8.3.7-.2-2-8.2-3.7-16.5-5.2-24.8-.7-4-.5-9.6-4.3-11.9 1.5-.1 2.9-.2 4.3-.4 2.5-.3 4.2-1.3 5.3-3.7 3.4-7.7-9.1-4.8-12.3-3.5zM695 45.6c-.5-3 1-7.1 1.5-10.1v-.2c.1 0 .2-.1.2-.2.7-1.9 4.5-2.8 6.2-2.9h12c4.2 0 7.6-.3 9.8 4 1 2 2.3 8.4 1.4 10.7-.7 1.9-3.7 3.8-5.5 4.2-1.4.3-3.4.1-4.8.1h-8.7c-4.4 0-11.1 1.1-12.1-5.6zm11.7 6.5c.1 0 .1-.1.1-.1 2.8.1 5.6.1 8.4 0l.3 3c.1.7 0 1.6.3 2.2h-6.2c-1 0-1.9 0-2.9.1 0-.9.1-1.8.1-2.6 0-.2.1-2.6-.1-2.6zm8 15.3c-3.1 0-6.1.1-9.2.1 0-.1.1-.1.1-.2 0-.6.1-1.2.1-1.9 1.8-.1 3.3-.2 4.4-.2 2.1 0 4.3-.1 6.4-.1 0 .6 0 1.3.1 1.9 0 .1-.1.2 0 .3v.1h-1.9zm8.8-3.5c-4.1.2-8.3.5-12.4.6-4.1.1-8.3.2-12.4-.2-2.1-.2-7-.4-8.3-2.6.2-5 2.1-6.8 5.8-5.6 1.2.3 2.4.7 3.5 1.3-2.2-.1-4.3-.3-6.3-1-.4-.1-.6.5-.2.7 5.2 1.6 11.1.9 16.4.8 6-.1 12.1.2 18-.9.4-.1.3-.8-.2-.7-1.5.3-3.1.5-4.6.6.6-.2 1.2-.5 1.8-.7 3.3-1.4 5.7.3 7.4 5-2.1 2.3-5.8 2.6-8.5 2.7zm56.1 9.9c.8 7.9 1.4 15.9 1.9 23.9 0 .4.7.5.7 0-.5-8-1.2-15.9-1.9-23.9 0-.4-.7-.4-.7 0zm1.3-2.7c-.4-.1-.6.6-.2.7 2.2.6 2.3 13.6 2.5 15.7.5 4.7.9 9.5 1.4 14.2 0 .4.7.4.7 0-.7-7.3-1.4-14.5-2.2-21.8-.2-2.1.5-8-2.2-8.8zm39.7-33c-4 0-8 .2-12 .8-.4.1-.3.7.2.7 3.9-.5 7.8-.8 11.8-.8.4 0 .4-.7 0-.7zm.3-1.8c-4.6.2-9.3.5-13.9.9-.4 0-.4.7 0 .7 4.6-.4 9.2-.7 13.9-.9.5 0 .5-.7 0-.7zm-16.2 4.2c-.1 0-.1-.1-.2-.1-.2-.1-.4 0-.5.1-.1.1-.1.2-.1.3-.1.1-.1.2-.1.3-1.4 2.7-2.1 5.7-3.6 8.4-1.3 2.3-5.9 9.3-9.3 8.2-.4-.1-.6.5-.2.7 2.7.9 6.4-3.4 7.8-5.2 1.3-1.7 2.4-3.5 3.3-5.5.4-.8.7-1.5 1-2.3.1-.2 1-2.7 1.2-4h.1c.4-.1.4-.2.6-.5.2-.1.2-.4 0-.4zm12.9.1c-3.4-.4-6.7-.2-10 .5-.4.1-.3.8.2.7 3.3-.7 6.5-.9 9.8-.5.5.1.5-.6 0-.7z" fill="#cc1400"/></g></g><path d="M462.6 189.4L451 90.8c-.4-3.4-3.5-6.2-7-6.2H271.9c-3.5 0-5.9 2.8-5.5 6.2l12.8 108.8c.1.8.4 1.7.8 2.4.2.4.4.7.7 1 .9 1.1 2.2 2 3.6 2.4.4.1.8.2 1.3.2h172.7c3.5 0 5.9-2.8 5.5-6.2l-1.2-10zM227.1 189.4l-11.6-98.6c-.4-3.4-3.5-6.2-7-6.2H36.4c-3.5 0-5.9 2.8-5.5 6.2l12.8 108.8c.1.8.4 1.7.8 2.4.2.4.4.7.7 1 .9 1.1 2.2 2 3.6 2.4.4.1.8.2 1.3.2h172.7c3.5 0 5.9-2.8 5.5-6.2l-1.2-10z" clip-path="url(#b)" fill="#70041d"/><g clip-path="url(#b)"><defs><path id="e" d="M227.1 189.4l-11.6-98.6c-.4-3.4-3.5-6.2-7-6.2H36.4c-3.5 0-5.9 2.8-5.5 6.2l12.8 108.8c.1.8.4 1.7.8 2.4.2.4.4.7.7 1 .9 1.1 2.2 2 3.6 2.4.4.1.8.2 1.3.2h172.7c3.5 0 5.9-2.8 5.5-6.2l-1.2-10z"/></defs><clipPath id="f"><use xlink:href="#e" overflow="visible"/></clipPath><g clip-path="url(#f)"><path fill="#a50218" d="M-1.3 8.8h140.2V104H-1.3z"/><path fill="#ff1f09" d="M26.2836 118.726l13.589-1.744 1.744 13.5891-13.589 1.744zM109.6 91c-4.2-1.2-9-3.5-13.5-3.1-4.7.4-9.6 2.5-14 3.9-.6.2-.3 1.1.2.9 3.9-1.3 8.2-3 12.3-3.6 5-.8 10 1.5 14.7 2.8.6.2.9-.7.3-.9z"/><g fill="#d21b0c"><path d="M73.2 72.8c-1.5-4-4.4-6.2-8.7-6.6-2.1-.2-4.4.3-6.4-.4-2.2-.7-2.7-2.3-4.4-3.1-1.7-.7-3.1-.7-4.9-.3-1.2.3-3 .9-3.8 1.8-1 1-1.2 2.6-1.7 3.8-1.3 2.8-3.3 3.9-5.4 5.9-2.7 2.5-3.4 5.4-1.6 8.8.2.4.7.2.8-.1 3.4-1 6.8-2 10.2-2.9.1 1.5.1 3 .1 4.5-7.1.6-14.7 3.6-21.4 5.4-1.4-.3-1.4 2-1.4 2.9 0 .6.9.6.9 0 0-.2 0-2.1.4-2h.3c7.3-1.9 15.5-5.3 23.1-5.5.2.1.4.1.5 0 0 0 .1.1.2.1 3.7.7 7.4 1.6 11 2.5 2.6.7 9.8 1 9.9 4 0 .6.9.6.9 0-.2-3.3-1.8-2.7-5.1-3.5-5.5-1.3-11-2.8-16.5-3.8h-.3c-.2-1.7-.2-3.5-.2-5.2 7.5-2 15-3.9 22.5-5.8.1 0 .2-.1.2-.2.2.5 1 .2.8-.3zM48.3 84.2c0-1.6 0-3.1-.1-4.7.2 0 .3-.1.5-.1 0 1.6.1 3.2.2 4.8-.2-.1-.4-.1-.6 0zm23.6-11.8c-11.8 2.9-23.5 5.9-35.1 9.3-2.5-5.5 3.2-7.2 5.9-10.8 2.9-3.8 2.9-8.4 9.1-7 2.9.6 4.5 2.6 7.5 3 5.2.8 10.2-.3 12.7 5.4 0 .1 0 .1-.1.1z"/><path d="M47.2 88.2c-6.7.7-13.4 1.7-20.1 3-.6.1-.3 1 .2.9 6.6-1.3 13.2-2.3 19.8-2.9.7-.1.7-1.1.1-1z"/><path d="M49.2 92.2c.1.7.2 1.4.2 2-.1 0-.2-.1-.3-.1-.4.1-.8.1-1.2.1v-.7c0-.3 0-.8.3-1 .3.1.7 0 .6-.4-.2-2.1-.4-4.3-.7-6.4-.1-.6-1-.6-.9 0l.6 6c-.1 0-.1 0-.2.1-1 .6-.8 1.9-.9 3 0 .2.2.5.5.5.7 0 1.3 0 2-.2.2 0 .3-.1.3-.2.3.1.7 0 .7-.4 0-.8-.1-1.7-.3-2.5.1-.6-.8-.4-.7.2zM68.9 90.5c-6-1.2-12.4-1.8-18.5-2.3-.6 0-.6.9 0 .9 6.1.5 12.7 1.1 18.7 2.3v.2c.1.6 1 .6.9 0 0-.4-.1-.7-.2-1.1-.2-.4-.7-.3-.9 0z"/><path d="M49.6 90c0-1.4.1-2.7.1-4.1 0-.6-.9-.6-.9 0 0 1.4-.1 2.7-.1 4.1 0 .6.9.6.9 0z"/></g><path d="M73.3 21.7c14.2 0 28.4 0 42.6.1.6 0 .6-.9 0-.9-14.2 0-28.4 0-42.6-.1-.5 0-.5.9 0 .9zM73.5 24.5c-.6 0-.6.9 0 .9 6.8 0 13.5.2 20.3.5.6 0 .6-.9 0-.9-6.7-.3-13.5-.5-20.3-.5zM72.7 28.5c6.8-.1 13.7-.1 20.5-.2.6 0 .6-.9 0-.9-6.8.1-13.7.1-20.5.2-.5 0-.6.9 0 .9zM72.7 30.5c-.6 0-.6.9 0 .9 6.4-.4 12.8-.6 19.3-.7.6 0 .6-.9 0-.9-6.4.1-12.8.3-19.3.7zM72.7 34.4c6.2-.2 12.5-.4 18.7-.6.6 0 .6-.9 0-.9-6.2.2-12.5.4-18.7.6-.6 0-.6.9 0 .9zM72.5 37.1c4-.1 8-.2 11.9-.3 2.4-.1 5.9.6 8.1-.4.3-.1.3-.5.1-.7l-.1-.1c-.2-.2-.5-.1-.6 0l-.1.1c-.2.2-.2.4 0 .6-1.2-.1-3.7-.4-4.3-.4-1.7 0-3.5.1-5.2.1-3.2.1-6.5.2-9.7.2-.7 0-.7.9-.1.9zM115.1 25c.6 0 .6-.9 0-.9-6.1 0-12.2.2-18.3.7-.6 0-.6 1 0 .9 6.1-.5 12.2-.7 18.3-.7zM115.5 26.9c-6.4 0-12.8 0-19.2.1-.5 0-.6.6-.2.8l.1.1c.2.1.4.1.5 0 6.5-.1 13-.1 19.6-.1.6 0 .6-.9 0-.9h-.8zM113.2 29c-5.9.2-11.7.5-17.6.8-.6 0-.6.9 0 .9 5.5-.3 10.9-.5 16.4-.7.1 0 .2.1.3.1.3 0 .6-.1.9-.1.6-.2.6-1 0-1zM112.4 32.4c.2-.1.5-.1.7-.2.5-.1.4-.9-.1-.9-5.9.3-11.7.6-17.6.9-.6 0-.6.9 0 .9 5.5-.3 11.1-.6 16.6-.9.1.2.3.2.4.2zM103.2 35c-2.6.1-5.1.1-7.7.2-.6 0-.6.9 0 .9 2-.1 4-.1 6-.2.9 0 1.7 0 2.6-.1.1 0 1.5 0 2.3-.2 0 .1 0 .1.1.2 0 0 0 .1.1.1.2.2.5.1.6 0l.1-.1c.2-.2.2-.5 0-.6-.8-.8-3.1-.2-4.1-.2zM49.3 53.9c.1 0 .2.1.3.1.3.1.5 0 .6-.1.7-.1 1.3-.2 2-.4 1.2-.3 2.5-.8 3.1.5-.2.3-.1.8.3.7h.3c.3 0 .5-.3.4-.6-.3-.8-.8-1.8-1.7-2-1.6-.2-3.4.7-4.9.8h-.4c-.6.1-.6 1 0 1z" fill="#ff1f09"/><path d="M122.4 53c-.3-.2-.6-.5-.9-.7-.1-.1-.3-.1-.5 0-5 2.6-11.1 6.9-16.9 6.7-6-.2-12-1.7-17.9-2.6-10.2-1.4-19.7.1-29.8 1.3-.2-.2-.5-.2-1.2-.5-1-.5-4.5.5-5.6.6-2.1.3-4.2.6-6.4 1-2.5.4-8.4.6-10.3 2.5-.8.8-.7 1.1-.3 2.3-1.7-.3-1.8-.8-3.2-2.1-.9-.9-1.9-1.9-2.9-2.7-2-1.6-4.1-2.6-6.5-1.3-.5.3-.1 1.1.5.8.1 0 .1-.1.2-.1.6 1 1.3 2 1.9 3-3.5-.5-4.2-5-5-7.8-.8-2.5-2.5-6.4-1.8-9.2 1.3 3.5 2.6 7 3.9 10.4.1.3.4.4.6.3.1 0 .1 0 .2-.1 3.2-1.9 3.5-6.2 2.2-10.5.1-.1.1-.2.1-.3-.1-2.2.2-4.3.8-6.3.1-.1.2-.2.2-.4.1-3.2.5-6.3 1.2-9.4.6-2.4 1.1-4.5 3.8-5.6 2.2-.9 3.9-.4 4.8 2 .5 1.3.8 3.6.8 4.9-.2 3.6-.1.2-.8 2-.9 2.3-2.1 6.3-5.5 3.9-.5-.3-.9.4-.5.8l.9.6c0 3.2 2.7 4.6 4.9 6.7 3.2 3 5.8 6.5 7.8 10.4-.3 0-.5.1-.8.1-1.9.2-4.5.6-6.3 0-3-4.2-5.7-8.5-8-13.1-.3-.6-1.1-.1-.9.4 2.4 4.6 5.1 8.9 8.1 13.1 0 .1.1.1.1.1 0 .1.1.2.2.2 2.1.7 4.6.2 6.7 0 2.4-.2 4.7-.5 7.1-.8.6-.1.3-1-.2-.9-1.7.2-3.4.4-5.2.6V53c-1.4-2.6-3-5.1-4.9-7.4-2-2.4-7.2-5.5-7.6-8.8 2.1.6 3-1.3 4.3-3.7 1-1.8 1.7-1.9 1.5-4-.1-2.1-.3-5-1.4-6.9-1.5-2.6-6-1.3-7.7.5-1.4 1.4-1.8 3.6-2.2 5.5-.6 2.9-1 5.8-1.1 8.7l-.2.2c-.5 1.7-.8 3.3-.9 5.1-1.9-4.6-5.5-8.5-8.8-8.8-.2 0-.4.1-.4.3-.3 0-.6.2-.5.5 1.1 2.9 2.1 5.7 3.2 8.6-1.8 3.8.9 8.9 2 12.7 1.3 4 1.4 6.6 5.9 6.6 2.9 4.6 5.6 9.3 8.3 14 .1.2.4.3.6.2.1 0 .3 0 .4-.1 1.6-1.3 15.9-12 8-13.1-.3 0-.7-.1-1 0 5.7-.9 11.5-1.5 17.1-2.7.3-.1.4-.3.3-.6-.1-.5-.1-.9-.2-1.2 6.7-.8 13.4-2 20.2-2 7.4 0 14.7 1.6 21.9 2.6 2.7.4 5.8 1.2 8.5.7 2.7-.4 5.5-2.4 7.9-3.6 2.2-1.1 7.6-4.4 4 .1-2.2 2.7-4.5 5.5-6.8 8.1-.4-.2-.8-.4-1.3-.6-4.6-1.8-10.3-1.1-15.2-1-7.5.2-19.4-.7-19.2 9.8 0 .4.3.5.6.4h.1c5.7.7 11.7 0 17.5-.2 0 3.5.1 7 .1 10.6-.1.1-.1.2-.1.3-.1-.1-.3-.2-.5-.1-3.9 2.2-8 4.2-12.2 6-.6 0-1.4.1-1.6.7-.1.3-.1.8-.1 1.1 0 .5-.1.9-.1 1.4 0 .6.9.6.9 0 0-.5.1-1 .1-1.5v-.6c.1-.2.3-.2.5-.2.1.1.2.1.4 0 .1 0 .2 0 .3-.1 4.2-1.8 8.3-3.8 12.2-6 .1-.1.2-.2.2-.3.2.4.9.4.9-.1-.1-3.7-.1-7.5-.2-11.2h.3c0 3.7-.1 7.5-.1 11.2 0 .5.6.6.8.3 4.4 2.1 8.8 4.3 13.1 6.4.1 0 .2.1.3 0 .2 0 .5 0 .6.1.1.1.1.3.2.4.1.4.2.9.3 1.3.1.6 1 .6.9 0-.1-.7-.2-1.4-.4-2-.2-.6-.8-.7-1.4-.8h-.1c-4.4-2.1-8.8-4.3-13.1-6.4h-.2c0-3.5.1-7.1.1-10.6 6-.2 12-.2 18-.1h.2c.3.1.7 0 .7-.4 0-3.2-.5-5.7-2.7-7.4 3.2-3.7 6.3-7.5 9.4-11.4.1 0 0-.3-.2-.5zm-102.1.8c-2.4-6.5-4.8-13-7.2-19.4 5.9.5 12.8 15.3 7.2 19.4zm19.6 14.6c-1.5 2.5-5.4 5.1-7.8 7-3.3-6-6.8-11.8-10.5-17.6 5-1.4 7.3 7.5 12 7.4 2.3 0 9.8-2.9 6.3 3.2zm15.2-9.3c-1.5 2.2-7.7 1.7-10.5 2.1-3.7.5-7.4 1.2-11.1 2-.1-2.5 7.6-3.1 9-3.4l5.4-.9c1.8-.3 3.6-.5 5.4-.7 2.4-.5 3-.2 1.8.9zM114.8 72c-6.4-.2-12.8-.1-19.3.1-5.9.2-12.1.9-18 .3.2-9.1 11.6-8.3 18.3-8.5 7-.2 18.7-1.7 19 8.1z" fill="#ff1f09"/><path d="M77.7 65.9c.6-.1.6-1 0-.9-2.6.3-5.3.6-7.9.9-.6.1-.6 1 0 .9 2.7-.3 5.3-.6 7.9-.9z" fill="#ff1f09"/></g></g><path clip-path="url(#b)" fill="#70041d" d="M-.3 298.6H1000v138.1H-.3z"/><g clip-path="url(#b)" fill="#a50218"><path d="M-.3 413.8H1000v4.4H-.3zM-.3 368H1000v2.9H-.3zM-.3 388.6H1000v3.5H-.3zM-.3 350.9H1000v2.4H-.3zM-.3 313.3H1000v1.5H-.3zM-.3 303.9H1000v1.4H-.3zM-.3 324H1000v1.8H-.3zM-.3 336.4H1000v2.1H-.3z"/></g><path clip-path="url(#b)" fill="#3b0522" d="M122.9 334.1h323.7v8.8H122.9zM1000.1 364.9h-948v8.7H-.3v8.7H1000.1z"/><path clip-path="url(#b)" fill="#560520" d="M52.1 368H1000v2.9H52.1z"/><path clip-path="url(#b)" fill="none" d="M289.6 54.5l-39 144.6h151l41.1-63.5-153.1-81.1M525.6 54.5l-39 144.6h151l41.1-63.5-153.1-81.1"/><path transform="rotate(-7.313 253.875 50.7807)" clip-path="url(#b)" fill="#d21b0c" d="M247.1 43.9h13.7v13.7h-13.7z"/><path clip-path="url(#b)" fill="#fc7149" d="M278.6 78.6h13.7v13.7h-13.7z"/><path clip-path="url(#b)" fill="#ff1f09" d="M278.6 84.6h13.7v7.7h-13.7z"/><path transform="rotate(9.936 729.65 128.1718)" clip-path="url(#b)" fill="#d21b0c" d="M722.7 121.3h13.7V135h-13.7z"/><path clip-path="url(#b)" fill="#fc7149" d="M633.5 24.3h13.7V38h-13.7z"/><path clip-path="url(#b)" fill="#3b0522" d="M-1.1 199.5H1000v99.1H-1.1z"/><path clip-path="url(#b)" fill="#ff9879" d="M-1.1 199.5H1000v5.1H-1.1z"/><path clip-path="url(#b)" fill="#fc7149" d="M461.5 204.6H289.3l9.8-5.1h162.4zM678.1 204.6H546.6l9.8-5.1h121.7zM914.5 204.6H787.4l9.8-5.1h117.3zM204.6 204.6H61.1l9.8-5.1h133.7z"/><g clip-path="url(#b)"><path d="M940.5 174.1h-172c-3.5 0-6.3-2.8-6.3-6.3V56.9c0-3.5 2.8-6.3 6.3-6.3h172.1c3.5 0 6.3 2.8 6.3 6.3v110.9c-.1 3.5-2.9 6.3-6.4 6.3z" fill="#3b0522"/><path fill="#ffb8a2" d="M768 56.6h172.9v95H768z"/><path d="M762.2 157.4v10.4c0 3.5 2.8 6.3 6.3 6.3h172.1c3.5 0 6.3-2.8 6.3-6.3v-10.4H762.2z" fill="#d21b0c"/></g><g clip-path="url(#b)"><path d="M703.9 174.1h-172c-3.5 0-6.3-2.8-6.3-6.3V56.9c0-3.5 2.8-6.3 6.3-6.3H704c3.5 0 6.3 2.8 6.3 6.3v110.9c-.1 3.5-2.9 6.3-6.4 6.3z" fill="#3b0522"/><path fill="#ffb8a2" d="M531.4 56.6h172.9v95H531.4z"/><path d="M525.6 157.4v10.4c0 3.5 2.8 6.3 6.3 6.3H704c3.5 0 6.3-2.8 6.3-6.3v-10.4H525.6z" fill="#d21b0c"/></g><g clip-path="url(#b)"><path d="M467.3 174.1H295.2c-3.5 0-6.3-2.8-6.3-6.3V56.9c0-3.5 2.8-6.3 6.3-6.3h172.1c3.5 0 6.3 2.8 6.3 6.3v110.9c0 3.5-2.8 6.3-6.3 6.3z" fill="#3b0522"/><path fill="#ffb8a2" d="M294.8 56.6h172.9v95H294.8z"/><path d="M289 157.4v10.4c0 3.5 2.8 6.3 6.3 6.3h172.1c3.5 0 6.3-2.8 6.3-6.3v-10.4H289z" fill="#d21b0c"/></g><g clip-path="url(#b)"><path d="M230.7 174.1H58.6c-3.5 0-6.3-2.8-6.3-6.3V56.9c0-3.5 2.8-6.3 6.3-6.3h172.1c3.5 0 6.3 2.8 6.3 6.3v110.9c0 3.5-2.8 6.3-6.3 6.3z" fill="#3b0522"/><path fill="#ffb8a2" d="M58.1 56.6H231v95H58.1z"/><path d="M52.4 157.4v10.4c0 3.5 2.8 6.3 6.3 6.3h172.1c3.5 0 6.3-2.8 6.3-6.3v-10.4H52.4z" fill="#d21b0c"/></g><g clip-path="url(#b)"><defs><path id="g" d="M531.4 56.6h172.9v95H531.4z"/></defs><clipPath id="h"><use xlink:href="#g" overflow="visible"/></clipPath><g clip-path="url(#h)"><circle cx="580.3" cy="107.2" r="4.9" fill="#fff"/><circle cx="655.6" cy="107.3" r="4.9" fill="#f30"/><g fill="#f30"><path d="M591.3 121.1c-.5-.4-.8-1.1-.9-1.8l-.8-9.3-1 .1.8 9.3c.1.7-.1 1.4-.6 1.9-.4.4-.6 1-.5 1.6.1.7.7 1.3 1.4 1.4 1.2.2 2.2-.7 2.2-1.8.2-.5-.1-1.1-.6-1.4zM599.7 126.8c-.7-.6-1.1-1.5-1.1-2.4l-.5-14.5h-1l.5 14.6c0 .9-.4 1.8-1 2.4-.5.5-.8 1.3-.6 2.2.2.8.8 1.4 1.6 1.6 1.5.4 2.9-.7 2.9-2.2 0-.7-.3-1.3-.8-1.7zM608.9 130.9c-.9-.8-1.3-2-1.3-3.2l.1-17.5h-1l-.1 17.4c0 1.3-.6 2.5-1.6 3.5-.6.6-.9 1.4-.7 2.3.2 1.1 1.1 2.1 2.2 2.3 1.7.3 3.2-1 3.2-2.7.1-.9-.2-1.6-.8-2.1zM619.4 132.2c-.7-.5-1.3-1.2-1.3-2.1l-.1-19.9h-1l.1 19.8c0 .9-.4 1.7-1.1 2.2-1 .6-1.6 1.8-1.4 3.2.2 1.3 1.3 2.4 2.5 2.6 2 .4 3.7-1.2 3.7-3.1 0-1.2-.6-2.2-1.4-2.7zM629.2 131.2c-.9-.6-1.5-1.6-1.5-2.7l.3-18.2h-1l-.3 18.3c0 1.1-.6 2-1.5 2.6-1.2.8-1.9 2.2-1.5 3.8.3 1.3 1.3 2.4 2.7 2.7 2.4.5 4.5-1.2 4.5-3.5-.1-1.2-.7-2.3-1.7-3zM640.2 126.2c-1.2-.7-2-2-2.1-3.5l-.3-12.7h-1l.3 12.9c0 1.3-.5 2.7-1.5 3.5-1.2.9-1.8 2.4-1.4 4.1.3 1.5 1.5 2.7 3 3 2.6.6 5-1.4 5-3.9-.1-1.4-.8-2.7-2-3.4zM651.6 123c.8-1.8.4-3.8-.9-5.1-.6-.6-1.2-.9-2-1.1-.7-.2-1.3-.8-1.4-1.6-.2-2-.6-5.4-.6-5.4l-1 .1.5 5.6c.1.7-.3 1.4-.9 1.8-1.3.8-2.2 2.2-2.2 3.9 0 2.7 2.4 4.9 5.2 4.4 1.4-.3 2.7-1.3 3.3-2.6z"/></g><g fill="#fff"><path d="M646.6 91.5c-.1-.7-.7-1.3-1.4-1.4-1.2-.2-2.2.7-2.2 1.8 0 .6.3 1.1.7 1.5.5.4.8.8.9 1.4l.9 10.9 1-.1-.9-10.9c0-.6.2-1.1.6-1.5.3-.4.5-1 .4-1.7zM636.2 83.8c-.8.2-1.4.8-1.6 1.6-.2 1 .1 1.9.8 2.4.6.5 1 1.3 1 2.1l.3 16.1h1l-.3-16.1c0-.8.3-1.6.9-2.1.5-.4.8-1 .8-1.7 0-1.6-1.4-2.7-2.9-2.3zM627.4 78.9c-1.1.2-2 1.1-2.2 2.2-.2 1 .2 1.8.8 2.4.8.8 1.3 1.8 1.3 2.8L627 106h1l.3-19.7c0-1.1.6-2.1 1.4-2.8.6-.5.9-1.2.9-2 .1-1.5-1.4-2.9-3.2-2.6zM616.7 76.6c-1.2.2-2.2 1.2-2.5 2.4-.3 1.3.2 2.4 1.1 3.1.9.7 1.5 1.7 1.5 2.8l.1 21h1l-.1-20.9c0-1.1.5-2.2 1.4-2.8.8-.6 1.3-1.5 1.3-2.5 0-2-1.8-3.5-3.8-3.1zM606.9 76.8c-1.3.3-2.3 1.4-2.6 2.7-.3 1.4.2 2.7 1.1 3.5 1 1 1.5 2.4 1.5 3.8l-.1 19.2h1l.1-18.7c0-1.6.9-3.1 2.2-4.1.8-.7 1.4-1.7 1.4-2.8-.1-2.4-2.2-4.2-4.6-3.6zM595.9 80.9c-1.4.3-2.6 1.5-2.9 2.9-.4 1.6.2 3.1 1.2 4 1.5 1.3 2.3 3.2 2.3 5.2l.4 12.7h1l-.4-12.5c-.1-2.1.8-4.1 2.2-5.6.7-.7 1.2-1.7 1.2-2.8 0-2.5-2.3-4.6-5-3.9zM587.5 89c-2.4 0-4.5 2.1-4.5 4.5 0 1.7 1 3.3 2.4 4 1.3.7 2.2 2.1 2.3 3.6.2 2.3.5 4.9.5 4.9l1-.1-.5-5.1c-.1-1.4.4-2.9 1.5-3.8 1-.8 1.7-2.1 1.7-3.5 0-2.5-2-4.5-4.4-4.5z"/></g><circle cx="731" cy="107.3" r="4.9" fill="#fff"/><g fill="#fff"><path d="M666.7 121.1c-.5-.4-.8-1.1-.9-1.8l-.8-9.3-1 .1.8 9.3c.1.7-.1 1.4-.6 1.9-.4.4-.6 1-.5 1.6.1.7.7 1.3 1.4 1.4 1.2.2 2.2-.7 2.2-1.8.1-.5-.2-1.1-.6-1.4zM675 126.8c-.7-.6-1.1-1.5-1.1-2.4l-.5-14.5h-1l.5 14.6c0 .9-.4 1.8-1 2.4-.5.5-.8 1.3-.6 2.2.2.8.8 1.4 1.6 1.6 1.5.4 2.9-.7 2.9-2.2 0-.7-.3-1.3-.8-1.7zM684.3 130.9c-.9-.8-1.3-2-1.3-3.2l.1-17.5h-1l-.1 17.4c0 1.3-.6 2.5-1.6 3.5-.6.6-.9 1.4-.7 2.3.2 1.1 1.1 2.1 2.2 2.3 1.7.3 3.2-1 3.2-2.7 0-.9-.3-1.6-.8-2.1zM694.7 132.2c-.7-.5-1.3-1.2-1.3-2.1l-.1-19.9h-1l.1 19.8c0 .9-.4 1.7-1.1 2.2-1 .6-1.6 1.8-1.4 3.2.2 1.3 1.3 2.4 2.5 2.6 2 .4 3.7-1.2 3.7-3.1.1-1.2-.5-2.2-1.4-2.7zM704.5 131.2c-.9-.6-1.5-1.6-1.5-2.7l.3-18.2h-1l-.3 18.3c0 1.1-.6 2-1.5 2.6-1.2.8-1.9 2.2-1.5 3.8.3 1.3 1.3 2.4 2.7 2.7 2.4.5 4.5-1.2 4.5-3.5-.1-1.2-.7-2.3-1.7-3zM715.5 126.2c-1.2-.7-2-2-2.1-3.5l-.3-12.7h-1l.3 12.9c0 1.3-.5 2.7-1.5 3.5-1.2.9-1.8 2.4-1.4 4.1.3 1.5 1.5 2.7 3 3 2.6.6 5-1.4 5-3.9 0-1.4-.8-2.7-2-3.4zM726.9 123c.8-1.8.4-3.8-.9-5.1-.6-.6-1.2-.9-2-1.1-.7-.2-1.3-.8-1.4-1.6-.2-2-.6-5.4-.6-5.4l-1 .1.5 5.6c.1.7-.3 1.4-.9 1.8-1.3.8-2.2 2.2-2.2 3.9 0 2.7 2.4 4.9 5.2 4.4 1.4-.3 2.7-1.3 3.3-2.6z"/></g><g fill="#f30"><path d="M721.9 91.5c-.1-.7-.7-1.3-1.4-1.4-1.2-.2-2.2.7-2.2 1.8 0 .6.3 1.1.7 1.5.5.4.8.8.9 1.4l.9 10.9 1-.1-.9-10.9c0-.6.2-1.1.6-1.5.3-.4.6-1 .4-1.7zM711.6 83.8c-.8.2-1.4.8-1.6 1.6-.2 1 .1 1.9.8 2.4.6.5 1 1.3 1 2.1l.3 16.1h1l-.3-16.1c0-.8.3-1.6.9-2.1.5-.4.8-1 .8-1.7-.1-1.6-1.4-2.7-2.9-2.3zM702.8 78.9c-1.1.2-2 1.1-2.2 2.2-.2 1 .2 1.8.8 2.4.8.8 1.3 1.8 1.3 2.8l-.3 19.7h1l.3-19.7c0-1.1.6-2.1 1.4-2.8.6-.5.9-1.2.9-2 0-1.5-1.5-2.9-3.2-2.6zM692.1 76.6c-1.2.2-2.2 1.2-2.5 2.4-.3 1.3.2 2.4 1.1 3.1.9.7 1.5 1.7 1.5 2.8l.1 21h1l-.1-20.9c0-1.1.5-2.2 1.4-2.8.8-.6 1.3-1.5 1.3-2.5-.1-2-1.8-3.5-3.8-3.1zM682.3 76.8c-1.3.3-2.3 1.4-2.6 2.7-.3 1.4.2 2.7 1.1 3.5 1 1 1.5 2.4 1.5 3.8l-.1 19.2h1l.1-18.7c0-1.6.9-3.1 2.2-4.1.8-.7 1.4-1.7 1.4-2.8-.2-2.4-2.3-4.2-4.6-3.6zM671.2 80.9c-1.4.3-2.6 1.5-2.9 2.9-.4 1.6.2 3.1 1.2 4 1.5 1.3 2.3 3.2 2.3 5.2l.4 12.7h1l-.4-12.5c-.1-2.1.8-4.1 2.2-5.6.7-.7 1.2-1.7 1.2-2.8.1-2.5-2.3-4.6-5-3.9zM662.8 89c-2.4 0-4.5 2.1-4.5 4.5 0 1.7 1 3.3 2.4 4 1.3.7 2.2 2.1 2.3 3.6.2 2.3.5 4.9.5 4.9l1-.1-.5-5.1c-.1-1.4.4-2.9 1.5-3.8 1-.8 1.7-2.1 1.7-3.5.1-2.5-1.9-4.5-4.4-4.5z"/></g><circle cx="504.8" cy="107.3" r="4.9" fill="#f30"/><g fill="#fff"><path d="M515.9 121.1c-.5-.4-.8-1.1-.9-1.8l-.8-9.3-1 .1.8 9.3c.1.7-.1 1.4-.6 1.9-.4.4-.6 1-.5 1.6.1.7.7 1.3 1.4 1.4 1.2.2 2.2-.7 2.2-1.8.1-.5-.2-1.1-.6-1.4zM524.2 126.8c-.7-.6-1.1-1.5-1.1-2.4l-.5-14.5h-1l.5 14.6c0 .9-.4 1.8-1 2.4-.5.5-.8 1.3-.6 2.2.2.8.8 1.4 1.6 1.6 1.5.4 2.9-.7 2.9-2.2 0-.7-.3-1.3-.8-1.7zM533.5 130.9c-.9-.8-1.3-2-1.3-3.2l.1-17.5h-1l-.1 17.4c0 1.3-.6 2.5-1.6 3.5-.6.6-.9 1.4-.7 2.3.2 1.1 1.1 2.1 2.2 2.3 1.7.3 3.2-1 3.2-2.7 0-.9-.3-1.6-.8-2.1zM543.9 132.2c-.7-.5-1.3-1.2-1.3-2.1l-.1-19.9h-1l.1 19.8c0 .9-.4 1.7-1.1 2.2-1 .6-1.6 1.8-1.4 3.2.2 1.3 1.3 2.4 2.5 2.6 2 .4 3.7-1.2 3.7-3.1.1-1.2-.5-2.2-1.4-2.7zM553.7 131.2c-.9-.6-1.5-1.6-1.5-2.7l.3-18.2h-1l-.3 18.3c0 1.1-.6 2-1.5 2.6-1.2.8-1.9 2.2-1.5 3.8.3 1.3 1.3 2.4 2.7 2.7 2.4.5 4.5-1.2 4.5-3.5-.1-1.2-.7-2.3-1.7-3zM564.7 126.2c-1.2-.7-2-2-2.1-3.5l-.3-12.7h-1l.3 12.9c0 1.3-.5 2.7-1.5 3.5-1.2.9-1.8 2.4-1.4 4.1.3 1.5 1.5 2.7 3 3 2.6.6 5-1.4 5-3.9 0-1.4-.8-2.7-2-3.4zM576.1 123c.8-1.8.4-3.8-.9-5.1-.6-.6-1.2-.9-2-1.1-.7-.2-1.3-.8-1.4-1.6-.2-2-.6-5.4-.6-5.4l-1 .1.5 5.6c.1.7-.3 1.4-.9 1.8-1.3.8-2.2 2.2-2.2 3.9 0 2.7 2.4 4.9 5.2 4.4 1.4-.3 2.7-1.3 3.3-2.6z"/></g><g fill="#f30"><path d="M571.1 91.5c-.1-.7-.7-1.3-1.4-1.4-1.2-.2-2.2.7-2.2 1.8 0 .6.3 1.1.7 1.5.5.4.8.8.9 1.4l.9 10.9 1-.1-.9-10.9c0-.6.2-1.1.6-1.5.4-.4.6-1 .4-1.7zM560.8 83.8c-.8.2-1.4.8-1.6 1.6-.2 1 .1 1.9.8 2.4.6.5 1 1.3 1 2.1l.3 16.1h1l-.3-16.2c0-.8.3-1.6.9-2.1.5-.4.8-1 .8-1.7 0-1.5-1.4-2.6-2.9-2.2zM552 78.9c-1.1.2-2 1.1-2.2 2.2-.2 1 .2 1.8.8 2.4.8.8 1.3 1.8 1.3 2.8l-.3 19.7h1l.3-19.7c0-1.1.6-2.1 1.4-2.8.6-.5.9-1.2.9-2 0-1.5-1.5-2.9-3.2-2.6zM541.3 76.6c-1.2.2-2.2 1.2-2.5 2.4-.3 1.3.2 2.4 1.1 3.1.9.7 1.5 1.7 1.5 2.8l.1 21h1l-.1-20.9c0-1.1.5-2.2 1.4-2.8.8-.6 1.3-1.5 1.3-2.5-.1-2-1.8-3.5-3.8-3.1zM531.5 76.8c-1.3.3-2.3 1.4-2.6 2.7-.3 1.4.2 2.7 1.1 3.5 1 1 1.5 2.4 1.5 3.8l-.1 19.2h1l.1-18.7c0-1.6.9-3.1 2.2-4.1.8-.7 1.4-1.7 1.4-2.8-.2-2.4-2.3-4.2-4.6-3.6zM520.4 80.9c-1.4.3-2.6 1.5-2.9 2.9-.4 1.6.2 3.1 1.2 4 1.5 1.3 2.3 3.2 2.3 5.2l.4 12.7h1l-.4-12.5c-.1-2.1.8-4.1 2.2-5.6.7-.7 1.2-1.7 1.2-2.8.1-2.5-2.3-4.6-5-3.9zM512 89c-2.4 0-4.5 2.1-4.5 4.5 0 1.7 1 3.3 2.4 4 1.3.7 2.2 2.1 2.3 3.6.2 2.3.5 4.9.5 4.9l1-.1-.5-5.1c-.1-1.4.4-2.9 1.5-3.8 1-.8 1.7-2.1 1.7-3.5.1-2.5-1.9-4.5-4.4-4.5z"/></g></g></g><g clip-path="url(#b)"><defs><path id="i" d="M294.8 56.6h172.9v95H294.8z"/></defs><clipPath id="j"><use xlink:href="#i" overflow="visible"/></clipPath><g clip-path="url(#j)"><circle cx="343.6" cy="107.2" r="4.9" fill="#fff"/><circle cx="419" cy="107.3" r="4.9" fill="#f30"/><g fill="#f30"><path d="M354.7 121.1c-.5-.4-.8-1.1-.9-1.8l-.8-9.3-1 .1.8 9.3c.1.7-.1 1.4-.6 1.9-.4.4-.6 1-.5 1.6.1.7.7 1.3 1.4 1.4 1.2.2 2.2-.7 2.2-1.8.2-.5-.1-1.1-.6-1.4zM363.1 126.8c-.7-.6-1.1-1.5-1.1-2.4l-.5-14.5h-1l.5 14.6c0 .9-.4 1.8-1 2.4-.5.5-.8 1.3-.6 2.2.2.8.8 1.4 1.6 1.6 1.5.4 2.9-.7 2.9-2.2-.1-.7-.3-1.3-.8-1.7zM372.3 130.9c-.9-.8-1.3-2-1.3-3.2l.1-17.5h-1l-.1 17.4c0 1.3-.6 2.5-1.6 3.5-.6.6-.9 1.4-.7 2.3.2 1.1 1.1 2.1 2.2 2.3 1.7.3 3.2-1 3.2-2.7.1-.9-.2-1.6-.8-2.1zM382.8 132.2c-.7-.5-1.3-1.2-1.3-2.1l-.1-19.9h-1l.1 19.8c0 .9-.4 1.7-1.1 2.2-1 .6-1.6 1.8-1.4 3.2.2 1.3 1.3 2.4 2.5 2.6 2 .4 3.7-1.2 3.7-3.1 0-1.2-.6-2.2-1.4-2.7zM392.6 131.2c-.9-.6-1.5-1.6-1.5-2.7l.3-18.2h-1l-.3 18.3c0 1.1-.6 2-1.5 2.6-1.2.8-1.9 2.2-1.5 3.8.3 1.3 1.3 2.4 2.7 2.7 2.4.5 4.5-1.2 4.5-3.5-.1-1.2-.7-2.3-1.7-3zM403.6 126.2c-1.2-.7-2-2-2.1-3.5l-.3-12.7h-1l.3 12.9c0 1.3-.5 2.7-1.5 3.5-1.2.9-1.8 2.4-1.4 4.1.3 1.5 1.5 2.7 3 3 2.6.6 5-1.4 5-3.9-.1-1.4-.8-2.7-2-3.4zM415 123c.8-1.8.4-3.8-.9-5.1-.6-.6-1.2-.9-2-1.1-.7-.2-1.3-.8-1.4-1.6-.2-2-.6-5.4-.6-5.4l-1 .1.5 5.6c.1.7-.3 1.4-.9 1.8-1.3.8-2.2 2.2-2.2 3.9 0 2.7 2.4 4.9 5.2 4.4 1.4-.3 2.7-1.3 3.3-2.6z"/></g><g fill="#fff"><path d="M410 91.5c-.1-.7-.7-1.3-1.4-1.4-1.2-.2-2.2.7-2.2 1.8 0 .6.3 1.1.7 1.5.5.4.8.8.9 1.4l.9 10.9 1-.1-.9-10.9c0-.6.2-1.1.6-1.5.3-.4.5-1 .4-1.7zM399.6 83.8c-.8.2-1.4.8-1.6 1.6-.2 1 .1 1.9.8 2.4.6.5 1 1.3 1 2.1l.3 16.1h1l-.3-16.1c0-.8.3-1.6.9-2.1.5-.4.8-1 .8-1.7 0-1.6-1.4-2.7-2.9-2.3zM390.8 78.9c-1.1.2-2 1.1-2.2 2.2-.2 1 .2 1.8.8 2.4.8.8 1.3 1.8 1.3 2.8l-.3 19.7h1l.3-19.7c0-1.1.6-2.1 1.4-2.8.6-.5.9-1.2.9-2 0-1.5-1.5-2.9-3.2-2.6zM380.1 76.6c-1.2.2-2.2 1.2-2.5 2.4-.3 1.3.2 2.4 1.1 3.1.9.7 1.5 1.7 1.5 2.8l.1 21h1l-.1-20.9c0-1.1.5-2.2 1.4-2.8.8-.6 1.3-1.5 1.3-2.5 0-2-1.8-3.5-3.8-3.1zM370.3 76.8c-1.3.3-2.3 1.4-2.6 2.7-.3 1.4.2 2.7 1.1 3.5 1 1 1.5 2.4 1.5 3.8l-.1 19.2h1l.1-18.7c0-1.6.9-3.1 2.2-4.1.8-.7 1.4-1.7 1.4-2.8-.1-2.4-2.2-4.2-4.6-3.6zM359.3 80.9c-1.4.3-2.6 1.5-2.9 2.9-.4 1.6.2 3.1 1.2 4 1.5 1.3 2.3 3.2 2.3 5.2l.4 12.7h1l-.4-12.5c-.1-2.1.8-4.1 2.2-5.6.7-.7 1.2-1.7 1.2-2.8 0-2.5-2.3-4.6-5-3.9zM346.8 69.3c-2.4 0-4.5 2.1-4.5 4.5 0 1.7 1 3.3 2.4 4 1.3.7 2.2 2.1 2.3 3.6.2 2.3.5 4.9.5 4.9l1-.1-.5-5.1c-.1-1.4.4-2.9 1.5-3.8 1-.8 1.7-2.1 1.7-3.5.1-2.5-1.9-4.5-4.4-4.5z"/></g><circle cx="494.3" cy="107.3" r="4.9" fill="#fff"/><g fill="#fff"><path d="M430.1 121.1c-.5-.4-.8-1.1-.9-1.8l-.8-9.3-1 .1.8 9.3c.1.7-.1 1.4-.6 1.9-.4.4-.6 1-.5 1.6.1.7.7 1.3 1.4 1.4 1.2.2 2.2-.7 2.2-1.8.1-.5-.2-1.1-.6-1.4zM438.4 126.8c-.7-.6-1.1-1.5-1.1-2.4l-.5-14.5h-1l.5 14.6c0 .9-.4 1.8-1 2.4-.5.5-.8 1.3-.6 2.2.2.8.8 1.4 1.6 1.6 1.5.4 2.9-.7 2.9-2.2 0-.7-.3-1.3-.8-1.7zM447.7 130.9c-.9-.8-1.3-2-1.3-3.2l.1-17.5h-1l-.1 17.4c0 1.3-.6 2.5-1.6 3.5-.6.6-.9 1.4-.7 2.3.2 1.1 1.1 2.1 2.2 2.3 1.7.3 3.2-1 3.2-2.7 0-.9-.3-1.6-.8-2.1zM458.1 132.2c-.7-.5-1.3-1.2-1.3-2.1l-.1-19.9h-1l.1 19.8c0 .9-.4 1.7-1.1 2.2-1 .6-1.6 1.8-1.4 3.2.2 1.3 1.3 2.4 2.5 2.6 2 .4 3.7-1.2 3.7-3.1 0-1.2-.5-2.2-1.4-2.7zM467.9 131.2c-.9-.6-1.5-1.6-1.5-2.7l.3-18.2h-1l-.3 18.3c0 1.1-.6 2-1.5 2.6-1.2.8-1.9 2.2-1.5 3.8.3 1.3 1.3 2.4 2.7 2.7 2.4.5 4.5-1.2 4.5-3.5-.1-1.2-.7-2.3-1.7-3zM478.9 126.2c-1.2-.7-2-2-2.1-3.5l-.3-12.7h-1l.3 12.9c0 1.3-.5 2.7-1.5 3.5-1.2.9-1.8 2.4-1.4 4.1.3 1.5 1.5 2.7 3 3 2.6.6 5-1.4 5-3.9 0-1.4-.8-2.7-2-3.4zM490.3 123c.8-1.8.4-3.8-.9-5.1-.6-.6-1.2-.9-2-1.1-.7-.2-1.3-.8-1.4-1.6-.2-2-.6-5.4-.6-5.4l-1 .1.5 5.6c.1.7-.3 1.4-.9 1.8-1.3.8-2.2 2.2-2.2 3.9 0 2.7 2.4 4.9 5.2 4.4 1.4-.3 2.7-1.3 3.3-2.6z"/></g><g fill="#f30"><path d="M485.3 91.5c-.1-.7-.7-1.3-1.4-1.4-1.2-.2-2.2.7-2.2 1.8 0 .6.3 1.1.7 1.5.5.4.8.8.9 1.4l.9 10.9 1-.1-.9-10.9c0-.6.2-1.1.6-1.5.3-.4.5-1 .4-1.7zM474.9 83.8c-.8.2-1.4.8-1.6 1.6-.2 1 .1 1.9.8 2.4.6.5 1 1.3 1 2.1l.3 16.1h1l-.3-16.1c0-.8.3-1.6.9-2.1.5-.4.8-1 .8-1.7 0-1.6-1.3-2.7-2.9-2.3zM466.2 78.9c-1.1.2-2 1.1-2.2 2.2-.2 1 .2 1.8.8 2.4.8.8 1.3 1.8 1.3 2.8l-.3 19.7h1l.3-19.7c0-1.1.6-2.1 1.4-2.8.6-.5.9-1.2.9-2 0-1.5-1.5-2.9-3.2-2.6zM455.4 76.6c-1.2.2-2.2 1.2-2.5 2.4-.3 1.3.2 2.4 1.1 3.1.9.7 1.5 1.7 1.5 2.8l.1 21h1l-.1-20.9c0-1.1.5-2.2 1.4-2.8.8-.6 1.3-1.5 1.3-2.5 0-2-1.7-3.5-3.8-3.1zM445.7 76.8c-1.3.3-2.3 1.4-2.6 2.7-.3 1.4.2 2.7 1.1 3.5 1 1 1.5 2.4 1.5 3.8l-.1 19.2h1l.1-18.7c0-1.6.9-3.1 2.2-4.1.8-.7 1.4-1.7 1.4-2.8-.2-2.4-2.3-4.2-4.6-3.6zM434.6 80.9c-1.4.3-2.6 1.5-2.9 2.9-.4 1.6.2 3.1 1.2 4 1.5 1.3 2.3 3.2 2.3 5.2l.4 12.7h1l-.4-12.5c-.1-2.1.8-4.1 2.2-5.6.7-.7 1.2-1.7 1.2-2.8.1-2.5-2.3-4.6-5-3.9zM426.2 89c-2.4 0-4.5 2.1-4.5 4.5 0 1.7 1 3.3 2.4 4 1.3.7 2.2 2.1 2.3 3.6.2 2.3.5 4.9.5 4.9l1-.1-.5-5.1c-.1-1.4.4-2.9 1.5-3.8 1-.8 1.7-2.1 1.7-3.5.1-2.5-1.9-4.5-4.4-4.5z"/></g><circle cx="268.2" cy="107.3" r="4.9" fill="#f30"/><g fill="#fff"><path d="M279.3 121.1c-.5-.4-.8-1.1-.9-1.8l-.8-9.3-1 .1.8 9.3c.1.7-.1 1.4-.6 1.9-.4.4-.6 1-.5 1.6.1.7.7 1.3 1.4 1.4 1.2.2 2.2-.7 2.2-1.8.1-.5-.2-1.1-.6-1.4zM287.6 126.8c-.7-.6-1.1-1.5-1.1-2.4l-.5-14.5h-1l.5 14.6c0 .9-.4 1.8-1 2.4-.5.5-.8 1.3-.6 2.2.2.8.8 1.4 1.6 1.6 1.5.4 2.9-.7 2.9-2.2 0-.7-.3-1.3-.8-1.7zM296.9 130.9c-.9-.8-1.3-2-1.3-3.2l.1-17.5h-1l-.1 17.4c0 1.3-.6 2.5-1.6 3.5-.6.6-.9 1.4-.7 2.3.2 1.1 1.1 2.1 2.2 2.3 1.7.3 3.2-1 3.2-2.7 0-.9-.3-1.6-.8-2.1zM307.3 132.2c-.7-.5-1.3-1.2-1.3-2.1l-.1-19.9h-1l.1 19.8c0 .9-.4 1.7-1.1 2.2-1 .6-1.6 1.8-1.4 3.2.2 1.3 1.3 2.4 2.5 2.6 2 .4 3.7-1.2 3.7-3.1.1-1.2-.5-2.2-1.4-2.7zM317.1 131.2c-.9-.6-1.5-1.6-1.5-2.7l.3-18.2h-1l-.3 18.3c0 1.1-.6 2-1.5 2.6-1.2.8-1.9 2.2-1.5 3.8.3 1.3 1.3 2.4 2.7 2.7 2.4.5 4.5-1.2 4.5-3.5-.1-1.2-.7-2.3-1.7-3zM328.1 126.2c-1.2-.7-2-2-2.1-3.5l-.3-12.7h-1l.3 12.9c0 1.3-.5 2.7-1.5 3.5-1.2.9-1.8 2.4-1.4 4.1.3 1.5 1.5 2.7 3 3 2.6.6 5-1.4 5-3.9 0-1.4-.8-2.7-2-3.4zM343.6 131.1c.8-1.8.4-3.8-.9-5.1-.6-.6-1.2-.9-2-1.1-.7-.2-1.3-.8-1.4-1.6-.2-2-.6-5.4-.6-5.4l-1 .1.5 5.6c.1.7-.3 1.4-.9 1.8-1.3.8-2.2 2.2-2.2 3.9 0 2.7 2.4 4.9 5.2 4.4 1.4-.3 2.7-1.2 3.3-2.6z"/></g><g fill="#f30"><path d="M334.5 91.5c-.1-.7-.7-1.3-1.4-1.4-1.2-.2-2.2.7-2.2 1.8 0 .6.3 1.1.7 1.5.5.4.8.8.9 1.4l.9 10.9 1-.1-.9-10.9c0-.6.2-1.1.6-1.5.3-.4.5-1 .4-1.7zM324.1 83.8c-.8.2-1.4.8-1.6 1.6-.2 1 .1 1.9.8 2.4.6.5 1 1.3 1 2.1l.3 16.1h1l-.3-16.1c0-.8.3-1.6.9-2.1.5-.4.8-1 .8-1.7 0-1.6-1.3-2.7-2.9-2.3zM315.4 78.9c-1.1.2-2 1.1-2.2 2.2-.2 1 .2 1.8.8 2.4.8.8 1.3 1.8 1.3 2.8L315 106h1l.3-19.7c0-1.1.6-2.1 1.4-2.8.6-.5.9-1.2.9-2 0-1.5-1.5-2.9-3.2-2.6zM304.7 76.6c-1.2.2-2.2 1.2-2.5 2.4-.3 1.3.2 2.4 1.1 3.1.9.7 1.5 1.7 1.5 2.8l.1 21h1l-.2-20.9c0-1.1.5-2.2 1.4-2.8.8-.6 1.3-1.5 1.3-2.5 0-2-1.7-3.5-3.7-3.1zM294.9 76.8c-1.3.3-2.3 1.4-2.6 2.7-.3 1.4.2 2.7 1.1 3.5 1 1 1.5 2.4 1.5 3.8l-.1 19.2h1l.1-18.7c0-1.6.9-3.1 2.2-4.1.8-.7 1.4-1.7 1.4-2.8-.2-2.4-2.3-4.2-4.6-3.6zM283.8 80.9c-1.4.3-2.6 1.5-2.9 2.9-.4 1.6.2 3.1 1.2 4 1.5 1.3 2.3 3.2 2.3 5.2l.4 12.7h1l-.4-12.5c-.1-2.1.8-4.1 2.2-5.6.7-.7 1.2-1.7 1.2-2.8.1-2.5-2.3-4.6-5-3.9zM275.4 89c-2.4 0-4.5 2.1-4.5 4.5 0 1.7 1 3.3 2.4 4 1.3.7 2.2 2.1 2.3 3.6.2 2.3.5 4.9.5 4.9l1-.1-.5-5.1c-.1-1.4.4-2.9 1.5-3.8 1-.8 1.7-2.1 1.7-3.5.1-2.5-1.9-4.5-4.4-4.5z"/></g></g></g><g clip-path="url(#b)"><defs><path id="k" d="M58.1 56.6H231v95H58.1z"/></defs><clipPath id="l"><use xlink:href="#k" overflow="visible"/></clipPath><g clip-path="url(#l)"><circle cx="107" cy="107.2" r="4.9" fill="#fff"/><circle cx="182.4" cy="107.3" r="4.9" fill="#f30"/><g fill="#f30"><path d="M118.1 121.1c-.5-.4-.8-1.1-.9-1.8l-.8-9.3-1 .1.8 9.3c.1.7-.1 1.4-.6 1.9-.4.4-.6 1-.5 1.6.1.7.7 1.3 1.4 1.4 1.2.2 2.2-.7 2.2-1.8.1-.5-.1-1.1-.6-1.4zM126.5 126.8c-.7-.6-1.1-1.5-1.1-2.4l-.5-14.5h-1l.5 14.6c0 .9-.4 1.8-1 2.4-.5.5-.8 1.3-.6 2.2.2.8.8 1.4 1.6 1.6 1.5.4 2.9-.7 2.9-2.2-.1-.7-.4-1.3-.8-1.7zM135.7 130.9c-.9-.8-1.3-2-1.3-3.2l.1-17.5h-1l-.1 17.4c0 1.3-.6 2.5-1.6 3.5-.6.6-.9 1.4-.7 2.3.2 1.1 1.1 2.1 2.2 2.3 1.7.3 3.2-1 3.2-2.7.1-.9-.3-1.6-.8-2.1zM146.1 132.2c-.7-.5-1.3-1.2-1.3-2.1l-.1-19.9h-1l.1 19.8c0 .9-.4 1.7-1.1 2.2-1 .6-1.6 1.8-1.4 3.2.2 1.3 1.3 2.4 2.5 2.6 2 .4 3.7-1.2 3.7-3.1.1-1.2-.5-2.2-1.4-2.7zM156 131.2c-.9-.6-1.5-1.6-1.5-2.7l.3-18.2h-1l-.3 18.3c0 1.1-.6 2-1.5 2.6-1.2.8-1.9 2.2-1.5 3.8.3 1.3 1.3 2.4 2.7 2.7 2.4.5 4.5-1.2 4.5-3.5-.1-1.2-.8-2.3-1.7-3zM167 126.2c-1.2-.7-2-2-2.1-3.5l-.3-12.7h-1l.3 12.9c0 1.3-.5 2.7-1.5 3.5-1.2.9-1.8 2.4-1.4 4.1.3 1.5 1.5 2.7 3 3 2.6.6 5-1.4 5-3.9-.1-1.4-.9-2.7-2-3.4zM178.4 123c.8-1.8.4-3.8-.9-5.1-.6-.6-1.2-.9-2-1.1-.7-.2-1.3-.8-1.4-1.6-.2-2-.6-5.4-.6-5.4l-1 .1.5 5.6c.1.7-.3 1.4-.9 1.8-1.3.8-2.2 2.2-2.2 3.9 0 2.7 2.4 4.9 5.2 4.4 1.4-.3 2.6-1.3 3.3-2.6z"/></g><g fill="#fff"><path d="M173.4 91.5c-.1-.7-.7-1.3-1.4-1.4-1.2-.2-2.2.7-2.2 1.8 0 .6.3 1.1.7 1.5.5.4.8.8.9 1.4l.9 10.9 1-.1-.9-10.9c0-.6.2-1.1.6-1.5.3-.4.5-1 .4-1.7zM163 83.8c-.8.2-1.4.8-1.6 1.6-.2 1 .1 1.9.8 2.4.6.5 1 1.3 1 2.1l.3 16.1h1l-.3-16.1c0-.8.3-1.6.9-2.1.5-.4.8-1 .8-1.7 0-1.6-1.4-2.7-2.9-2.3zM154.2 78.9c-1.1.2-2 1.1-2.2 2.2-.2 1 .2 1.8.8 2.4.8.8 1.3 1.8 1.3 2.8l-.3 19.7h1l.3-19.7c0-1.1.6-2.1 1.4-2.8.6-.5.9-1.2.9-2 0-1.5-1.5-2.9-3.2-2.6zM143.5 76.6c-1.2.2-2.2 1.2-2.5 2.4-.3 1.3.2 2.4 1.1 3.1.9.7 1.5 1.7 1.5 2.8l.1 21h1l-.1-20.9c0-1.1.5-2.2 1.4-2.8.8-.6 1.3-1.5 1.3-2.5 0-2-1.8-3.5-3.8-3.1zM133.7 76.8c-1.3.3-2.3 1.4-2.6 2.7-.3 1.4.2 2.7 1.1 3.5 1 1 1.5 2.4 1.5 3.8l-.1 19.2h1l.1-18.7c0-1.6.9-3.1 2.2-4.1.8-.7 1.4-1.7 1.4-2.8-.1-2.4-2.2-4.2-4.6-3.6zM122.7 80.9c-1.4.3-2.6 1.5-2.9 2.9-.4 1.6.2 3.1 1.2 4 1.5 1.3 2.3 3.2 2.3 5.2l.4 12.7h1l-.4-12.5c-.1-2.1.8-4.1 2.2-5.6.7-.7 1.2-1.7 1.2-2.8 0-2.5-2.4-4.6-5-3.9zM114.2 89c-2.4 0-4.5 2.1-4.5 4.5 0 1.7 1 3.3 2.4 4 1.3.7 2.2 2.1 2.3 3.6.2 2.3.5 4.9.5 4.9l1-.1-.5-5.1c-.1-1.4.4-2.9 1.5-3.8 1-.8 1.7-2.1 1.7-3.5.1-2.5-1.9-4.5-4.4-4.5z"/></g><circle cx="257.7" cy="107.3" r="4.9" fill="#fff"/><g fill="#fff"><path d="M193.4 121.1c-.5-.4-.8-1.1-.9-1.8l-.8-9.3-1 .1.8 9.3c.1.7-.1 1.4-.6 1.9-.4.4-.6 1-.5 1.6.1.7.7 1.3 1.4 1.4 1.2.2 2.2-.7 2.2-1.8.2-.5-.1-1.1-.6-1.4zM201.8 126.8c-.7-.6-1.1-1.5-1.1-2.4l-.5-14.5h-1l.5 14.6c0 .9-.4 1.8-1 2.4-.5.5-.8 1.3-.6 2.2.2.8.8 1.4 1.6 1.6 1.5.4 2.9-.7 2.9-2.2 0-.7-.3-1.3-.8-1.7zM211 130.9c-.9-.8-1.3-2-1.3-3.2l.1-17.5h-1l-.1 17.4c0 1.3-.6 2.5-1.6 3.5-.6.6-.9 1.4-.7 2.3.2 1.1 1.1 2.1 2.2 2.3 1.7.3 3.2-1 3.2-2.7.1-.9-.2-1.6-.8-2.1zM221.5 132.2c-.7-.5-1.3-1.2-1.3-2.1l-.1-19.9h-1l.1 19.8c0 .9-.4 1.7-1.1 2.2-1 .6-1.6 1.8-1.4 3.2.2 1.3 1.3 2.4 2.5 2.6 2 .4 3.7-1.2 3.7-3.1 0-1.2-.5-2.2-1.4-2.7zM231.3 131.2c-.9-.6-1.5-1.6-1.5-2.7l.3-18.2h-1l-.3 18.3c0 1.1-.6 2-1.5 2.6-1.2.8-1.9 2.2-1.5 3.8.3 1.3 1.3 2.4 2.7 2.7 2.4.5 4.5-1.2 4.5-3.5-.1-1.2-.7-2.3-1.7-3zM242.3 126.2c-1.2-.7-2-2-2.1-3.5l-.3-12.7h-1l.3 12.9c0 1.3-.5 2.7-1.5 3.5-1.2.9-1.8 2.4-1.4 4.1.3 1.5 1.5 2.7 3 3 2.6.6 5-1.4 5-3.9 0-1.4-.8-2.7-2-3.4zM253.7 123c.8-1.8.4-3.8-.9-5.1-.6-.6-1.2-.9-2-1.1-.7-.2-1.3-.8-1.4-1.6-.2-2-.6-5.4-.6-5.4l-1 .1.5 5.6c.1.7-.3 1.4-.9 1.8-1.3.8-2.2 2.2-2.2 3.9 0 2.7 2.4 4.9 5.2 4.4 1.4-.3 2.7-1.3 3.3-2.6z"/></g><g fill="#f30"><path d="M248.7 91.5c-.1-.7-.7-1.3-1.4-1.4-1.2-.2-2.2.7-2.2 1.8 0 .6.3 1.1.7 1.5.5.4.8.8.9 1.4l.9 10.9 1-.1-.9-10.9c0-.6.2-1.1.6-1.5.3-.4.5-1 .4-1.7zM238.3 83.8c-.8.2-1.4.8-1.6 1.6-.2 1 .1 1.9.8 2.4.6.5 1 1.3 1 2.1l.3 16.1h1l-.3-16.1c0-.8.3-1.6.9-2.1.5-.4.8-1 .8-1.7 0-1.6-1.3-2.7-2.9-2.3zM229.5 78.9c-1.1.2-2 1.1-2.2 2.2-.2 1 .2 1.8.8 2.4.8.8 1.3 1.8 1.3 2.8l-.3 19.7h1l.3-19.7c0-1.1.6-2.1 1.4-2.8.6-.5.9-1.2.9-2 .1-1.5-1.4-2.9-3.2-2.6zM218.8 76.6c-1.2.2-2.2 1.2-2.5 2.4-.3 1.3.2 2.4 1.1 3.1.9.7 1.5 1.7 1.5 2.8l.1 21h1l-.1-20.9c0-1.1.5-2.2 1.4-2.8.8-.6 1.3-1.5 1.3-2.5 0-2-1.7-3.5-3.8-3.1zM209.1 76.8c-1.3.3-2.3 1.4-2.6 2.7-.3 1.4.2 2.7 1.1 3.5 1 1 1.5 2.4 1.5 3.8L209 106h1l.1-18.7c0-1.6.9-3.1 2.2-4.1.8-.7 1.4-1.7 1.4-2.8-.2-2.4-2.3-4.2-4.6-3.6zM198 80.9c-1.4.3-2.6 1.5-2.9 2.9-.4 1.6.2 3.1 1.2 4 1.5 1.3 2.3 3.2 2.3 5.2l.4 12.7h1l-.4-12.5c-.1-2.1.8-4.1 2.2-5.6.7-.7 1.2-1.7 1.2-2.8 0-2.5-2.3-4.6-5-3.9zM189.6 89c-2.4 0-4.5 2.1-4.5 4.5 0 1.7 1 3.3 2.4 4 1.3.7 2.2 2.1 2.3 3.6.2 2.3.5 4.9.5 4.9l1-.1-.5-5.1c-.1-1.4.4-2.9 1.5-3.8 1-.8 1.7-2.1 1.7-3.5.1-2.5-2-4.5-4.4-4.5z"/></g><circle cx="31.6" cy="107.3" r="4.9" fill="#f30"/><g fill="#fff"><path d="M42.6 121.1c-.5-.4-.8-1.1-.9-1.8l-.8-9.3-1 .1.8 9.3c.1.7-.1 1.4-.6 1.9-.4.4-.6 1-.5 1.6.1.7.7 1.3 1.4 1.4 1.2.2 2.2-.7 2.2-1.8.2-.5-.1-1.1-.6-1.4zM51 126.8c-.7-.6-1.1-1.5-1.1-2.4l-.5-14.5h-1l.5 14.6c0 .9-.4 1.8-1 2.4-.5.5-.8 1.3-.6 2.2.2.8.8 1.4 1.6 1.6 1.5.4 2.9-.7 2.9-2.2 0-.7-.3-1.3-.8-1.7zM60.3 130.9c-.9-.8-1.3-2-1.3-3.2l.1-17.5h-1l-.1 17.3c0 1.3-.6 2.5-1.6 3.5-.6.6-.9 1.4-.7 2.3.2 1.1 1.1 2.1 2.2 2.3 1.7.3 3.2-1 3.2-2.7 0-.8-.3-1.5-.8-2zM70.7 132.2c-.7-.5-1.3-1.2-1.3-2.1l-.1-19.9h-1l.1 19.8c0 .9-.4 1.7-1.1 2.2-1 .6-1.6 1.8-1.4 3.2.2 1.3 1.3 2.4 2.5 2.6 2 .4 3.7-1.2 3.7-3.1 0-1.2-.5-2.2-1.4-2.7zM80.5 131.2c-.9-.6-1.5-1.6-1.5-2.7l.3-18.2h-1l-.3 18.3c0 1.1-.6 2-1.5 2.6-1.2.8-1.9 2.2-1.5 3.8.3 1.3 1.3 2.4 2.7 2.7 2.4.5 4.5-1.2 4.5-3.5-.1-1.2-.7-2.3-1.7-3zM91.5 126.2c-1.2-.7-2-2-2.1-3.5l-.3-12.7h-1l.3 12.9c0 1.3-.5 2.7-1.5 3.5-1.2.9-1.8 2.4-1.4 4.1.3 1.5 1.5 2.7 3 3 2.6.6 5-1.4 5-3.9 0-1.4-.8-2.7-2-3.4zM102.9 123c.8-1.8.4-3.8-.9-5.1-.6-.6-1.2-.9-2-1.1-.7-.2-1.3-.8-1.4-1.6-.2-2-.6-5.4-.6-5.4l-1 .1.5 5.6c.1.7-.3 1.4-.9 1.8-1.3.8-2.2 2.2-2.2 3.9 0 2.7 2.4 4.9 5.2 4.4 1.4-.3 2.7-1.3 3.3-2.6z"/></g><g fill="#f30"><path d="M97.9 91.5c-.1-.7-.7-1.3-1.4-1.4-1.2-.2-2.2.7-2.2 1.8 0 .6.3 1.1.7 1.5.5.4.8.8.9 1.4l.9 10.9 1-.1-.9-10.9c0-.6.2-1.1.6-1.5.3-.4.5-1 .4-1.7zM87.5 83.8c-.8.2-1.4.8-1.6 1.6-.2 1 .1 1.9.8 2.4.6.5 1 1.3 1 2.1L88 106h1l-.3-16.1c0-.8.3-1.6.9-2.1.5-.4.8-1 .8-1.7 0-1.6-1.3-2.7-2.9-2.3zM78.7 78.9c-1.1.2-2 1.1-2.2 2.2-.2 1 .2 1.8.8 2.4.8.8 1.3 1.8 1.3 2.8l-.3 19.7h1l.3-19.7c0-1.1.6-2.1 1.4-2.8.6-.5.9-1.2.9-2 .1-1.5-1.4-2.9-3.2-2.6zM68 76.6c-1.2.2-2.2 1.2-2.5 2.4-.3 1.3.2 2.4 1.1 3.1.9.7 1.5 1.7 1.5 2.8l.1 21h1L69.1 85c0-1.1.5-2.2 1.4-2.8.8-.6 1.3-1.5 1.3-2.5 0-2-1.7-3.5-3.8-3.1zM58.3 76.8c-1.3.3-2.3 1.4-2.6 2.7-.3 1.4.2 2.7 1.1 3.5 1 1 1.5 2.4 1.5 3.8l-.1 19.2h1l.1-18.7c0-1.6.9-3.1 2.2-4.1.8-.7 1.4-1.7 1.4-2.8-.2-2.4-2.3-4.2-4.6-3.6zM47.2 80.9c-1.4.3-2.6 1.5-2.9 2.9-.4 1.6.2 3.1 1.2 4 1.5 1.3 2.3 3.2 2.3 5.2l.4 12.7h1l-.4-12.5c-.1-2.1.8-4.1 2.2-5.6.7-.7 1.2-1.7 1.2-2.8.1-2.5-2.3-4.6-5-3.9zM38.8 89c-2.4 0-4.5 2.1-4.5 4.5 0 1.7 1 3.3 2.4 4 1.3.7 2.2 2.1 2.3 3.6.2 2.3.5 4.9.5 4.9l1-.1-.5-5.1c-.1-1.4.4-2.9 1.5-3.8 1-.8 1.7-2.1 1.7-3.5.1-2.5-1.9-4.5-4.4-4.5z"/></g></g></g><g clip-path="url(#b)"><defs><path id="m" d="M768 56.6h172.9v95H768z"/></defs><clipPath id="n"><use xlink:href="#m" overflow="visible"/></clipPath><g clip-path="url(#n)"><circle cx="816.9" cy="107.2" r="4.9" fill="#fff"/><circle cx="892.2" cy="107.3" r="4.9" fill="#f30"/><g fill="#f30"><path d="M827.9 121.1c-.5-.4-.8-1.1-.9-1.8l-.8-9.3-1 .1.8 9.3c.1.7-.1 1.4-.6 1.9-.4.4-.6 1-.5 1.6.1.7.7 1.3 1.4 1.4 1.2.2 2.2-.7 2.2-1.8.2-.5-.1-1.1-.6-1.4zM836.3 126.8c-.7-.6-1.1-1.5-1.1-2.4l-.5-14.5h-1l.5 14.6c0 .9-.4 1.8-1 2.4-.5.5-.8 1.3-.6 2.2.2.8.8 1.4 1.6 1.6 1.5.4 2.9-.7 2.9-2.2 0-.7-.3-1.3-.8-1.7zM845.6 130.9c-.9-.8-1.3-2-1.3-3.2l.1-17.5h-1l-.1 17.4c0 1.3-.6 2.5-1.6 3.5-.6.6-.9 1.4-.7 2.3.2 1.1 1.1 2.1 2.2 2.3 1.7.3 3.2-1 3.2-2.7 0-.9-.3-1.6-.8-2.1zM856 132.2c-.7-.5-1.3-1.2-1.3-2.1l-.1-19.9h-1l.1 19.8c0 .9-.4 1.7-1.1 2.2-1 .6-1.6 1.8-1.4 3.2.2 1.3 1.3 2.4 2.5 2.6 2 .4 3.7-1.2 3.7-3.1 0-1.2-.5-2.2-1.4-2.7zM865.8 131.2c-.9-.6-1.5-1.6-1.5-2.7l.3-18.2h-1l-.3 18.3c0 1.1-.6 2-1.5 2.6-1.2.8-1.9 2.2-1.5 3.8.3 1.3 1.3 2.4 2.7 2.7 2.4.5 4.5-1.2 4.5-3.5-.1-1.2-.7-2.3-1.7-3zM876.8 126.2c-1.2-.7-2-2-2.1-3.5l-.3-12.7h-1l.3 12.9c0 1.3-.5 2.7-1.5 3.5-1.2.9-1.8 2.4-1.4 4.1.3 1.5 1.5 2.7 3 3 2.6.6 5-1.4 5-3.9 0-1.4-.8-2.7-2-3.4zM888.2 123c.8-1.8.4-3.8-.9-5.1-.6-.6-1.2-.9-2-1.1-.7-.2-1.3-.8-1.4-1.6-.2-2-.6-5.4-.6-5.4l-1 .1.5 5.6c.1.7-.3 1.4-.9 1.8-1.3.8-2.2 2.2-2.2 3.9 0 2.7 2.4 4.9 5.2 4.4 1.4-.3 2.7-1.3 3.3-2.6z"/></g><g fill="#fff"><path d="M883.2 91.5c-.1-.7-.7-1.3-1.4-1.4-1.2-.2-2.2.7-2.2 1.8 0 .6.3 1.1.7 1.5.5.4.8.8.9 1.4l.9 10.9 1-.1-.9-10.9c0-.6.2-1.1.6-1.5.3-.4.5-1 .4-1.7zM872.8 83.8c-.8.2-1.4.8-1.6 1.6-.2 1 .1 1.9.8 2.4.6.5 1 1.3 1 2.1l.3 16.1h1l-.3-16.2c0-.8.3-1.6.9-2.1.5-.4.8-1 .8-1.7 0-1.5-1.3-2.6-2.9-2.2zM864 78.9c-1.1.2-2 1.1-2.2 2.2-.2 1 .2 1.8.8 2.4.8.8 1.3 1.8 1.3 2.8l-.3 19.7h1l.3-19.7c0-1.1.6-2.1 1.4-2.8.6-.5.9-1.2.9-2 .1-1.5-1.4-2.9-3.2-2.6zM853.3 76.6c-1.2.2-2.2 1.2-2.5 2.4-.3 1.3.2 2.4 1.1 3.1.9.7 1.5 1.7 1.5 2.8l.1 21h1l-.1-20.9c0-1.1.5-2.2 1.4-2.8.8-.6 1.3-1.5 1.3-2.5 0-2-1.7-3.5-3.8-3.1zM843.6 76.8c-1.3.3-2.3 1.4-2.6 2.7-.3 1.4.2 2.7 1.1 3.5 1 1 1.5 2.4 1.5 3.8l-.1 19.2h1l.1-18.7c0-1.6.9-3.1 2.2-4.1.8-.7 1.4-1.7 1.4-2.8-.2-2.4-2.3-4.2-4.6-3.6zM832.5 80.9c-1.4.3-2.6 1.5-2.9 2.9-.4 1.6.2 3.1 1.2 4 1.5 1.3 2.3 3.2 2.3 5.2l.4 12.7h1l-.4-12.5c-.1-2.1.8-4.1 2.2-5.6.7-.7 1.2-1.7 1.2-2.8 0-2.5-2.3-4.6-5-3.9zM819 73.7c-2.4 0-4.5 2.1-4.5 4.5 0 1.7 1 3.3 2.4 4 1.3.7 2.2 2.1 2.3 3.6.2 2.3.5 4.9.5 4.9l1-.1-.5-5.1c-.1-1.4.4-2.9 1.5-3.8 1-.8 1.7-2.1 1.7-3.5.1-2.5-1.9-4.5-4.4-4.5z"/></g><circle cx="967.6" cy="107.3" r="4.9" fill="#fff"/><g fill="#fff"><path d="M903.3 121.1c-.5-.4-.8-1.1-.9-1.8l-.8-9.3-1 .1.8 9.3c.1.7-.1 1.4-.6 1.9-.4.4-.6 1-.5 1.6.1.7.7 1.3 1.4 1.4 1.2.2 2.2-.7 2.2-1.8.1-.5-.2-1.1-.6-1.4zM911.6 126.8c-.7-.6-1.1-1.5-1.1-2.4l-.5-14.5h-1l.5 14.6c0 .9-.4 1.8-1 2.4-.5.5-.8 1.3-.6 2.2.2.8.8 1.4 1.6 1.6 1.5.4 2.9-.7 2.9-2.2 0-.7-.3-1.3-.8-1.7zM920.9 130.9c-.9-.8-1.3-2-1.3-3.2l.1-17.5h-1l-.1 17.4c0 1.3-.6 2.5-1.6 3.5-.6.6-.9 1.4-.7 2.3.2 1.1 1.1 2.1 2.2 2.3 1.7.3 3.2-1 3.2-2.7 0-.9-.3-1.6-.8-2.1zM931.3 132.2c-.7-.5-1.3-1.2-1.3-2.1l-.1-19.9h-1l.1 19.8c0 .9-.4 1.7-1.1 2.2-1 .6-1.6 1.8-1.4 3.2.2 1.3 1.3 2.4 2.5 2.6 2 .4 3.7-1.2 3.7-3.1.1-1.2-.5-2.2-1.4-2.7zM941.2 131.2c-.9-.6-1.5-1.6-1.5-2.7l.3-18.2h-1l-.3 18.3c0 1.1-.6 2-1.5 2.6-1.2.8-1.9 2.2-1.5 3.8.3 1.3 1.3 2.4 2.7 2.7 2.4.5 4.5-1.2 4.5-3.5-.2-1.2-.8-2.3-1.7-3zM952.1 126.2c-1.2-.7-2-2-2.1-3.5l-.3-12.7h-1l.3 12.9c0 1.3-.5 2.7-1.5 3.5-1.2.9-1.8 2.4-1.4 4.1.3 1.5 1.5 2.7 3 3 2.6.6 5-1.4 5-3.9 0-1.4-.8-2.7-2-3.4zM963.5 123c.8-1.8.4-3.8-.9-5.1-.6-.6-1.2-.9-2-1.1-.7-.2-1.3-.8-1.4-1.6-.2-2-.6-5.4-.6-5.4l-1 .1.5 5.6c.1.7-.3 1.4-.9 1.8-1.3.8-2.2 2.2-2.2 3.9 0 2.7 2.4 4.9 5.2 4.4 1.4-.3 2.7-1.3 3.3-2.6z"/></g><g fill="#f30"><path d="M958.5 91.5c-.1-.7-.7-1.3-1.4-1.4-1.2-.2-2.2.7-2.2 1.8 0 .6.3 1.1.7 1.5.5.4.8.8.9 1.4l.9 10.9 1-.1-.9-10.9c0-.6.2-1.1.6-1.5.4-.4.6-1 .4-1.7zM948.2 83.8c-.8.2-1.4.8-1.6 1.6-.2 1 .1 1.9.8 2.4.6.5 1 1.3 1 2.1l.3 16.1h1l-.3-16.1c0-.8.3-1.6.9-2.1.5-.4.8-1 .8-1.7 0-1.6-1.4-2.7-2.9-2.3zM939.4 78.9c-1.1.2-2 1.1-2.2 2.2-.2 1 .2 1.8.8 2.4.8.8 1.3 1.8 1.3 2.8L939 106h1l.3-19.7c0-1.1.6-2.1 1.4-2.8.6-.5.9-1.2.9-2 0-1.5-1.5-2.9-3.2-2.6zM928.7 76.6c-1.2.2-2.2 1.2-2.5 2.4-.3 1.3.2 2.4 1.1 3.1.9.7 1.5 1.7 1.5 2.8l.1 21h1l-.1-20.9c0-1.1.5-2.2 1.4-2.8.8-.6 1.3-1.5 1.3-2.5-.1-2-1.8-3.5-3.8-3.1zM918.9 76.8c-1.3.3-2.3 1.4-2.6 2.7-.3 1.4.2 2.7 1.1 3.5 1 1 1.5 2.4 1.5 3.8l-.1 19.2h1l.1-18.7c0-1.6.9-3.1 2.2-4.1.8-.7 1.4-1.7 1.4-2.8-.1-2.4-2.2-4.2-4.6-3.6zM907.8 80.9c-1.4.3-2.6 1.5-2.9 2.9-.4 1.6.2 3.1 1.2 4 1.5 1.3 2.3 3.2 2.3 5.2l.4 12.7h1l-.4-12.5c-.1-2.1.8-4.1 2.2-5.6.7-.7 1.2-1.7 1.2-2.8.1-2.5-2.3-4.6-5-3.9zM899.4 89c-2.4 0-4.5 2.1-4.5 4.5 0 1.7 1 3.3 2.4 4 1.3.7 2.2 2.1 2.3 3.6.2 2.3.5 4.9.5 4.9l1-.1-.5-5.1c-.1-1.4.4-2.9 1.5-3.8 1-.8 1.7-2.1 1.7-3.5.1-2.5-1.9-4.5-4.4-4.5z"/></g><circle cx="741.4" cy="107.3" r="4.9" fill="#f30"/><g fill="#fff"><path d="M752.5 121.1c-.5-.4-.8-1.1-.9-1.8l-.8-9.3-1 .1.8 9.3c.1.7-.1 1.4-.6 1.9-.4.4-.6 1-.5 1.6.1.7.7 1.3 1.4 1.4 1.2.2 2.2-.7 2.2-1.8.1-.5-.2-1.1-.6-1.4zM760.9 126.8c-.7-.6-1.1-1.5-1.1-2.4l-.5-14.5h-1l.5 14.6c0 .9-.4 1.8-1 2.4-.5.5-.8 1.3-.6 2.2.2.8.8 1.4 1.6 1.6 1.5.4 2.9-.7 2.9-2.2-.1-.7-.4-1.3-.8-1.7zM770.1 130.9c-.9-.8-1.3-2-1.3-3.2l.1-17.5h-1l-.1 17.4c0 1.3-.6 2.5-1.6 3.5-.6.6-.9 1.4-.7 2.3.2 1.1 1.1 2.1 2.2 2.3 1.7.3 3.2-1 3.2-2.7.1-.9-.3-1.6-.8-2.1zM780.5 132.2c-.7-.5-1.3-1.2-1.3-2.1l-.1-19.9h-1l.1 19.8c0 .9-.4 1.7-1.1 2.2-1 .6-1.6 1.8-1.4 3.2.2 1.3 1.3 2.4 2.5 2.6 2 .4 3.7-1.2 3.7-3.1.1-1.2-.5-2.2-1.4-2.7zM790.4 131.2c-.9-.6-1.5-1.6-1.5-2.7l.3-18.2h-1l-.3 18.3c0 1.1-.6 2-1.5 2.6-1.2.8-1.9 2.2-1.5 3.8.3 1.3 1.3 2.4 2.7 2.7 2.4.5 4.5-1.2 4.5-3.5-.1-1.2-.8-2.3-1.7-3zM801.3 126.2c-1.2-.7-2-2-2.1-3.5l-.3-12.7h-1l.3 12.9c0 1.3-.5 2.7-1.5 3.5-1.2.9-1.8 2.4-1.4 4.1.3 1.5 1.5 2.7 3 3 2.6.6 5-1.4 5-3.9 0-1.4-.8-2.7-2-3.4zM812.7 123c.8-1.8.4-3.8-.9-5.1-.6-.6-1.2-.9-2-1.1-.7-.2-1.3-.8-1.4-1.6-.2-2-.6-5.4-.6-5.4l-1 .1.5 5.6c.1.7-.3 1.4-.9 1.8-1.3.8-2.2 2.2-2.2 3.9 0 2.7 2.4 4.9 5.2 4.4 1.4-.3 2.7-1.3 3.3-2.6z"/></g><g fill="#f30"><path d="M807.7 91.5c-.1-.7-.7-1.3-1.4-1.4-1.2-.2-2.2.7-2.2 1.8 0 .6.3 1.1.7 1.5.5.4.8.8.9 1.4l.9 10.9 1-.1-.9-10.9c0-.6.2-1.1.6-1.5.4-.4.6-1 .4-1.7zM797.4 83.8c-.8.2-1.4.8-1.6 1.6-.2 1 .1 1.9.8 2.4.6.5 1 1.3 1 2.1l.3 16.1h1l-.3-16.1c0-.8.3-1.6.9-2.1.5-.4.8-1 .8-1.7 0-1.6-1.4-2.7-2.9-2.3zM788.6 78.9c-1.1.2-2 1.1-2.2 2.2-.2 1 .2 1.8.8 2.4.8.8 1.3 1.8 1.3 2.8l-.3 19.7h1l.3-19.7c0-1.1.6-2.1 1.4-2.8.6-.5.9-1.2.9-2 0-1.5-1.5-2.9-3.2-2.6zM777.9 76.6c-1.2.2-2.2 1.2-2.5 2.4-.3 1.3.2 2.4 1.1 3.1.9.7 1.5 1.7 1.5 2.8l.1 21h1L779 85c0-1.1.5-2.2 1.4-2.8.8-.6 1.3-1.5 1.3-2.5 0-2-1.8-3.5-3.8-3.1zM768.1 76.8c-1.3.3-2.3 1.4-2.6 2.7-.3 1.4.2 2.7 1.1 3.5 1 1 1.5 2.4 1.5 3.8L768 106h1l.1-18.7c0-1.6.9-3.1 2.2-4.1.8-.7 1.4-1.7 1.4-2.8-.1-2.4-2.2-4.2-4.6-3.6zM757.1 80.9c-1.4.3-2.6 1.5-2.9 2.9-.4 1.6.2 3.1 1.2 4 1.5 1.3 2.3 3.2 2.3 5.2l.4 12.7h1l-.4-12.5c-.1-2.1.8-4.1 2.2-5.6.7-.7 1.2-1.7 1.2-2.8 0-2.5-2.4-4.6-5-3.9zM748.6 89c-2.4 0-4.5 2.1-4.5 4.5 0 1.7 1 3.3 2.4 4 1.3.7 2.2 2.1 2.3 3.6.2 2.3.5 4.9.5 4.9l1-.1-.5-5.1c-.1-1.4.4-2.9 1.5-3.8 1-.8 1.7-2.1 1.7-3.5.1-2.5-1.9-4.5-4.4-4.5z"/></g></g></g><path clip-path="url(#b)" fill="#70041d" d="M344.5 134l-3.6-4.4v5.8l1.2-.9.8 2.1.9-.3-.8-2.1zM823.4 82.4l-3.7-4.4v5.7l1.2-.8.8 2.1 1-.4-.8-2z"/><g><path d="M491.7 174.2l-2.2.3 3.3 20.1c.1.6.7 1 1.3.9.6-.1 1-.7.9-1.3l-3.3-20z" fill="#ffb8a2"/><path d="M491.7 174.2l-1.2-7.3c-.1-.6-.7-1-1.3-.9-.6.1-1 .7-.9 1.3l1.2 7.3 2.2-.4z" fill="#d21b0c"/><path d="M493.5 174.5v20.4c0 .6.5 1.1 1.1 1.1s1.1-.5 1.1-1.1v-20.4h-2.2z" fill="#ffb8a2"/><path d="M495.7 174.5v-7.4c0-.6-.5-1.1-1.1-1.1s-1.1.5-1.1 1.1v7.4h2.2z" fill="#3b0522"/><path d="M499.7 174.5l-2.2.1 1.2 20.4c0 .6.6 1.1 1.2 1 .6 0 1.1-.6 1-1.2l-1.2-20.3z" fill="#ffb8a2"/><path d="M499.7 174.5l-.5-7.4c0-.6-.6-1.1-1.2-1-.6 0-1.1.6-1 1.2l.5 7.4 2.2-.2z" fill="#fc7149"/><g><path fill="#ffb8a2" d="M507.474 160.0454l4.455.6363-4.44 31.086-4.455-.6363z"/><path fill="#ff9879" d="M507.4527 160.0764l1.188.1697-4.44 31.086-1.188-.1697zM510.748 160.5799l1.188.1697-4.44 31.086-1.188-.1697z"/></g><path fill="#f30" d="M509.7 178.4h-20.2l2.2 21.2h15.8z"/><path fill="#3b0522" d="M499.9 199.6v-21.2h-9.6l2.4 21.2z"/><g><path d="M929.5 199.5h28.8s-4.1-5.6-14.2-5.6c-10-.1-14.6 5.6-14.6 5.6z" fill="#3b0522"/><path d="M954.2 199.5c-.6 0-1.3-.1-1.8-.4-11-5.1-14.3-6.7-22.9.4 0 0 5.5-6.5 16.1-6.5 8.1-.1 14.1 3.8 16.6 5.6.4.3.2.9-.3.9h-7.7z" fill="#fc7149"/></g><g><path d="M64.6 199.5H35.8s4.1-5.6 14.2-5.6 14.6 5.6 14.6 5.6z" fill="#d21b0c"/><path d="M39.9 199.5c.6 0 1.3-.1 1.8-.4 11-5.1 14.3-6.7 22.9.4 0 0-5.5-6.5-16.1-6.5-8.1-.1-14.1 3.8-16.6 5.6-.4.3-.2.9.3.9h7.7z" fill="#fc7149"/></g><g><path fill="#d21b0c" d="M734.3 190.8h2.5v7.4h-2.5z"/><path fill="#a50218" d="M736.8 192.6l-2.5 2.1v-3.9h2.5z"/><path d="M752.4 178.6c0-6.3-4.6-11.5-10.6-12.6l-11.9-2.5-.2 7.1c-1.8 2.2-2.8 5-2.8 8 0 2.8.9 5.4 2.4 7.5l-.1 5.2h9.4c.4 0 .7.1 1.1.1s.7 0 1.1-.1h.1c6.4-.7 11.5-6.1 11.5-12.7z" fill="#f30"/><path d="M729.3 186.8l-.1 4.5h9.4c.4 0 .7.1 1.1.1s.7 0 1.1-.1h.1c3.4-.3 6.4-2 8.5-4.5h-20.1z" fill="#a50218"/><circle cx="728.9" cy="177.4" r="13.9" fill="#d21b0c"/><circle cx="728.9" cy="177.4" r="13.4" fill="#3b0522"/><g fill="#ffdec7"><circle cx="728.9" cy="166.1" r=".9"/><circle cx="728.9" cy="188.6" r=".9"/></g><g fill="#ffdec7"><circle cx="723.2" cy="167.6" r=".9"/><circle cx="734.5" cy="187.1" r=".9"/></g><g fill="#ffdec7"><circle cx="719.1" cy="171.7" r=".9"/><circle cx="738.6" cy="183" r=".9"/></g><g fill="#ffdec7"><circle cx="717.6" cy="177.4" r=".9"/><circle cx="740.1" cy="177.4" r=".9"/></g><g fill="#ffdec7"><circle cx="719.1" cy="183" r=".9"/><circle cx="738.6" cy="171.7" r=".9"/></g><g fill="#ffdec7"><circle cx="723.2" cy="187.1" r=".9"/><circle cx="734.5" cy="167.6" r=".9"/></g><path fill="none" stroke="#ff1f09" stroke-width=".2643" stroke-miterlimit="10" d="M728.9 182.6v-13.7"/><path fill="none" stroke="#ffdbc7" stroke-width=".7929" stroke-miterlimit="10" d="M732.7 181.5l-9.4-10"/><g fill="#ffdec7"><path d="M736.3 170l-6.4 4.6 1.8 1.8z"/><path d="M730.735 174.9362l.6365.6364-1.697 1.697-.6365-.6364z"/></g><circle cx="728.9" cy="177.4" r="1.2" fill="#f30"/><circle cx="728.9" cy="183.4" r=".9" fill="#f30"/><path fill="#d21b0c" d="M725.5 197.8h20.9v1.6h-20.9z"/><path fill="#a50218" d="M728.3 197.8h7.3v1.6h-7.3z"/><path fill="#ffb8a2" d="M743.4 197.8h1.8v1.6h-1.8z"/></g></g></svg>