<svg xmlns="http://www.w3.org/2000/svg" viewBox="0 0 250 250"><path d="M110.3 22.5c0-.4-.5-.7-.8-.6-.4.1-.7.4-.8.8s0 .8 0 1.2c.4 2.2 1.2 4.3 2.4 6.1.3.5.7 1 1.3 1.3.1 0 .2.1.3.1.1 0 .2-.1.3-.3.3-.6.4-1.3.1-1.9M137.6 23.1c.2-.3.5-.6.9-.5.4 0 .6.3.7.7s0 .7 0 1.1c-.5 3.2-1.7 6.4-3.9 8.8-.2.2-.5.5-.8.5-.3 0-.7-.4-.5-.7" fill="#d21b0c"/><path d="M110.3 17.5c-.3 5.8.5 17.9 4.1 22.4 1.6 1.9 4.3 3.4 6.1 3.8 2.7.5 5.6-1 7.3-3.1 4.8-5.9 7.9-24.4-4.2-27.6-4.6-1.3-9.7 1.3-13.3 4.5" fill="#d21b0c"/><path d="M170.5 110c-1.6-8.5-7.6-46.6-11.8-52.4-1.6-2.2-3.6-3.1-11.3-5.7H99.5c-4 1.3-7.6 3.3-9.4 6.9-1.2 2.3-1.7 4.8-2.2 7.3-2.9 14-5.4 28.1-7.8 42.2-.4 2.2-.8 4.4-1 6.6-.1 1.2-.3 2.4 0 3.5.6 2.3 3.1 3.9 5.4 3.5 1.7-.2 3.2-1.4 4.2-2.8s1.6-3 2.2-4.7c5.1-13.8 9.6-27.9 13.5-42.1h17.5v3c0 .4 24 0 24 0 6.8 20.8 16.5 44.1 17.4 45.1 2.3 2.5 7.4.9 7.9-4.7.1-1.9-.3-3.8-.7-5.7z" fill="#70041d"/><path d="M151.2 84.3c12.6 31.8 13.3 35 15.6 35 .7 0 1.3-.5 1.6-1.2.3-.6.2-1.4.2-2.1-.5-10.1-3.2-20-6-29.8-4.8-17.3-6.9-26.9-10.7-28.4-1.2-.4-1.8.1-2.3 1.2-3.5 7.7-1.7 16.3.1 24.3M97.5 59.5c-5 5.9-6.3 11.5-7.8 19-8.3 40.9-8 38.8-7.7 40.2.2 1 1 1.9 2 2 1.4.1 2.3-1.4 2.9-2.8 4.2-9.8 8.2-19.6 11.9-29.6 2.2-5.9 7.7-20.9 4.1-26.9-1-1.7-3.1-2.9-5-2.3" fill="#3b0522"/><path d="M138.3 48.7c-2.7-.9-3.8-1.7-4.2-5.7-.4-4-.4-8.1-.1-12.1l-12.3 4.4v.1l-6.5.1c.2 2.6.3 5.2.1 7.7-.1 1-.2 2.1-.7 2.9-.8 1.4-2.5 2.1-4 2.6-3.3 1.1-7.5 1.8-11.2 3h47.9c-2.3-.7-5.3-1.8-9-3z" fill="#d21b0c"/><path d="M134.7 51.8c-.6-4.7-3.7-11.8-2.1-19.6.1-.3.1-.5.2-.9l-11 4v-1.5l-4 1.1c.4.7.8 1.4 1.1 2.1 2 4.8 1.2 10.1-1.1 14.8h16.9z" fill="#a50218"/><path d="M119.1 36.7c-14.8-15.6-11.2-31.7.2-35.6 20.2-6.9 25.5 20.7 11.6 34.4-2 1.9-3.3 2.6-6.7 2.7-1.5 0-4-.4-5.1-1.5" fill="#70041d"/><path d="M132.6 4.2c-2-1.6-3.7-1.3-4.5-.5-2.8-2.1-9.1-1.3-12.2 4.2-2.5 4.4-4.8 14.8-.2 23.3.8 1.6 1.9 3.1 2.7 4.6.3.3.5.6.8.9 1.1 1.1 3.6 1.5 5.1 1.4 3.3-.1 4.7-.8 6.7-2.7.5-.5 1-1 1.4-1.5l.3-1.8c.8-4.6 8.9-20.6-.1-27.9z" fill="#3b0522"/><path d="M134.6 17.3c-.6-1.8-1.3-3.6-2.5-5.1-2.2-2.5-5.6-2.9-7.9 1-2.1 3.7-2.8 10.6-2.8 13.8 0 10.7 6.9 21.2 7.3 27 4.4-7.9 5.5-17.1 6.6-26 .4-3.5.4-7.3-.7-10.7" fill="#70041d"/><path d="M129.9 160.9c.2 19.5 8.7 38.3 7.5 57.8-.2 3.4-.6 7.2 1.7 9.7.8.9 1.9 1.5 3.1 1.2 1.5-.4 2-2.4 2.2-3.9.3-2.7.5-5.4.8-8.1 1.9-17.3 7-34.5 4.8-51.7-.3-2.1-.6-4.1-1.5-6-1.6-3.4-4.9-6.1-8.7-6.3-3.7-.3-7.6 2.2-8.6 5.9M116.4 233.5c-4.8-1.8-7-2.9-9.4-10.1-.8-19.1 6-38 7.3-57.2.2-2.4.2-4.8-.3-7.1-.6-2.3-1.8-4.5-3.8-5.8-2.4-1.6-5.6-1.5-8.4-.6-2.9.9-5.7 2.9-6.2 5.9l-.2.3c-3.3 22.9 4.1 46.1 3 69.2-.4.8-.5 1.8-1.4 7.3-.2.9-.3 2 .4 2.7.5.5 1.2.6 1.9.6 12.4 1.2 12.9 1.4 14.5 1 3.1-.7 7-4.6 2.6-6.2z" fill="#3b0522"/><path d="M147.6 234.2c-.4-2.3-2.2-10.7-3.1-11.9-.8-1-3-1.8-5-.4-1.1.8-1.4 2.3-1.6 3.7-1.4 7.6-4.8 9.4-3.3 11.7.7 1 2.1 1.1 3.4 1.1 1.3-.1 8.1-.5 9.2-1.3.6-.7.5-1.9.4-2.9z" fill="#3b0522"/><path d="M84 85.5c-1.4 7.6-2.7 15.1-4 22.7-.4 2.2-.8 4.4-1 6.6-.1 1.2-.3 2.4 0 3.5.6 2.3 3.1 3.9 5.4 3.5 1.7-.2 3.2-1.4 4.2-2.8s1.6-3 2.2-4.7c2.9-8 5.7-16 8.2-24.1l-15-4.7z" fill="#d21b0c"/><path d="M87.9 86.8c-6.6 32.3-6.3 30.6-6 31.9.2 1 1 1.9 2 2 1.4.1 2.3-1.4 2.9-2.8 4-9.2 7.7-18.5 11.3-27.9l-10.2-3.2z" fill="#a50218"/><path d="M151.3 91.1c5.6 15.3 11.2 28.6 11.9 29.3 2.3 2.5 7.4.9 7.9-4.7.2-1.9-.2-3.9-.6-5.8-.8-4-2.5-14.6-4.6-25.3l-14.6 6.5z" fill="#d21b0c"/><path d="M162.6 86.3v-.2l-9.1 4c10.4 26.4 11.2 29.2 13.3 29.2.7 0 1.3-.5 1.6-1.2.3-.6.2-1.4.2-2.1-.5-10-3.3-19.9-6-29.7z" fill="#a50218"/><path d="M131 49.3c.9-4.8 1.7-9.5 2-14.4.2-3.6.2-7.2.1-10.8-.1-3.9-.1-7.9-1-11.8-.4-.4-.8-.8-1.3-1.1-.8-.1-1.7.2-2.4.8-.8.8-1.3 1.8-1.6 2.9-1.8 5.4-1.7 11.3-1.1 17 .2 1.8.4 3.5.8 5.3.5 2.4 1.3 4.7 1.9 7 .7 2.6 1.1 5.4 1.3 8.1.5-1.1.9-2.1 1.3-3z" fill="#3b0522"/><path fill="#f30" d="M77.2 180.8h31v2.9h-31z"/><path fill="#70041d" d="M78.5 153l2 19.3h5.1v-19.6z"/><path d="M84.5 169.8c-3.1-.2-6.4-.4-9.1-2-2.3-1.4-2.8-3.1-3-6-.5-5.7-.3-8.3-.2-9.5 0-.4 0-.7.1-.9 0-.4-.3-.8-.8-.8l-5.7-.1c-.4 0-.8.3-.9.7-.6 3.4-.7 17.4 4.6 35 .4 1.3 1 2.6 2.5 2.8 2 .2 3.2.3 3.2.3 2.4.2 2.9-1.8 3.1-3.3 1.3-7.4 10.4-8.4 15.7-8.4h18.9v-5l-28.4-2.8z" fill="#ffb8a2"/><path d="M66.1 151.9c0-6.9 1.7-23.1 4.4-29.4.7-1.7 1.4-2.2 3.9-2l11.8.4c1.1-.2 2 1 1.5 2.1-.4.8-1.3 1-2.2 1.3-14.4 3.6-13.7 13.2-14.7 27.9l-4.7-.3zM113.7 191.5c-10.2 0-20.2-.4-30.1-2.4-.6-.1-1.8-.3-1.1-1.2.7-.9 6.2-2.4 7.7-1.6 1.7.9 1 2.8 6.1 2.5 7.1-.4 7-.1 7.3-1.2l1.1-11.7h9.2l-.2 15.6z" fill="#ffb8a2"/><path d="M104.9 149.5c-4.9-.3-9.8-.2-14.7 0-3.9.1-7.9.2-11.6 1.3-1.8.6-2.2 1.7-.7 2.9 2.9 2.3 4.5 1.8 5.1 6.3.4 3.1.6 6.2.6 9.4H105v-19.9z" fill="#d21b0c"/><path d="M70.6 122.5c-.3.6-.5 1.3-.8 2.1.1.3.4.6.7.7 1.2.5 7.6.6 13-2.7 1-.6 1.2-1.2.9-1.7l-10-.4c-2.4-.2-3.1.3-3.8 2zM172.7511 183.6659h-31v-2.9h31z" fill="#f30"/><path fill="#70041d" d="M171.5 153l-2 19.3h-5.1v-19.6z"/><path d="M165.5 169.8c3.1-.2 6.4-.4 9.1-2 2.3-1.4 2.8-3.1 3-6 .5-5.7.3-8.3.2-9.5 0-.4 0-.7-.1-.9 0-.4.3-.8.8-.8l5.7-.1c.4 0 .8.3.9.7.6 3.4.7 17.4-4.6 35-.4 1.3-1 2.6-2.5 2.8-2 .2-3.2.3-3.2.3-2.4.2-2.9-1.8-3.1-3.3-1.3-7.4-10.4-8.4-15.7-8.4h-18.9v-5l28.4-2.8z" fill="#ffb8a2"/><path d="M183.9 151.9c0-6.9-1.7-23.1-4.4-29.4-.7-1.7-1.4-2.2-3.9-2l-11.8.4c-1.1-.2-2 1-1.5 2.1.4.8 1.3 1 2.2 1.3 14.4 3.6 13.7 13.2 14.7 27.9l4.7-.3zM136.3 191.5c10.2 0 20.2-.4 30.1-2.4.6-.1 1.8-.3 1.1-1.2-.7-.9-6.2-2.4-7.7-1.6-1.7.9-1 2.8-6.1 2.5-7.1-.4-7-.1-7.3-1.2l-1.1-11.7h-9.2l.2 15.6z" fill="#ffb8a2"/><path d="M145.1 149.5c4.9-.3 9.8-.2 14.7 0 3.9.1 7.9.2 11.6 1.3 1.8.6 2.2 1.7.7 2.9-2.9 2.3-4.5 1.8-5.1 6.3-.4 3.1-.6 6.2-.6 9.4H145v-19.9z" fill="#d21b0c"/><path d="M179.4 122.5c.3.6.5 1.3.8 2.1-.1.3-.4.6-.7.7-1.2.5-7.6.6-13-2.7-1-.6-1.2-1.2-.9-1.7l10-.4c2.4-.2 3.1.3 3.8 2z" fill="#f30"/><g><path d="M157.6 53.8c-1.3 15.4-2.6 30.8-4 46.3-.3 3.3-.6 6.6-.4 9.9.3 7.9 2.9 15.4 5.3 22.9 4.1 13 7.6 26.2 10.4 39.6-27.6 4.4-60.4 4.4-88 0 2.8-13.3 6.3-26.6 10.4-39.6 2.4-7.5 5-15.1 5.3-22.9.1-3.3-.2-6.6-.4-9.9-1.3-15.4-2.6-30.8-4-46.3h65.4z" fill="#f30"/></g><path d="M157.1 60.2c.2-2.1.4-4.3.5-6.4H92.4c.2 2.1.4 4.3.5 6.4 6 13.9 18.1 24.3 32.1 24.3s26.1-10.4 32.1-24.3z" fill="#d21b0c"/><g><path d="M105.6 141.4h-.2l-12.7-2.1c-.5-.1-.9-.6-.8-1.2.1-.5.6-.9 1.2-.8l12.7 2.1c.5.1.9.6.8 1.2-.1.4-.5.8-1 .8zM104.4 155.7c-7.5 0-15.2-2.2-15.5-2.3-.5-.2-.8-.7-.7-1.2.2-.5.7-.8 1.2-.7.1 0 7.7 2.2 14.9 2.2.6 0 1 .4 1 1s-.3 1-.9 1z" fill="#ffb8a2"/><path d="M98.2 154.9H98c-.5-.1-.9-.6-.8-1.2l2.5-14.3c.1-.5.6-.9 1.2-.8.5.1.9.6.8 1.2l-2.5 14.3c-.1.5-.5.8-1 .8z" fill="#ffb8a2"/><path d="M117.2 148.9c-.1 0-7.2-.2-17.5-1.3-.6-.1-.9-.6-.9-1.1.1-.6.6-.9 1.1-.9 10.3 1.1 17.2 1.3 17.3 1.3.6 0 1 .5 1 1s-.4 1-1 1z" fill="#ffb8a2"/><path d="M108.7 167h-.2c-.5-.1-.9-.6-.8-1.2 2.5-11.8 3.5-17.8 3.5-17.8.1-.5.6-.9 1.2-.8.5.1.9.6.8 1.2 0 .1-1 6-3.5 17.9-.1.4-.5.7-1 .7zM117.5 137.4c-1.6 0-3.9-.2-5.2-1.8-1-1.1-1.3-2.7-1-4.8 0-.1 1.1-5.8 1.5-14.2.2-3.7.6-6.4 4.3-6.4h2.6c.6 0 1 .4 1 1s-.4 1-1 1H117c-1.4 0-2.1 0-2.3 4.4-.4 8.6-1.5 14.3-1.5 14.5-.2 1.4 0 2.5.6 3.1.8 1 2.5 1.1 3.7 1.1.6 0 1 .4 1 1s-.4 1.1-1 1.1z" fill="#ffb8a2"/><path d="M112.7 125.1l-9.1-.6c-.6 0-1-.5-.9-1.1 0-.6.5-1 1.1-.9l9 .6c.6 0 1 .5.9 1.1 0 .5-.4.9-1 .9z" fill="#ffb8a2"/><path d="M103.2 128.4h-.1c-.5-.1-.9-.6-.9-1.1l1.2-9.6c.1-.6.6-.9 1.1-.9.5.1.9.6.9 1.1l-1.2 9.6c-.1.6-.5.9-1 .9z" fill="#ffb8a2"/><path d="M108.3 118.1l-9.2-.6c-.6 0-1-.5-.9-1.1s.5-1 1.1-.9l9.2.6c.6 0 1 .5.9 1.1-.1.5-.5.9-1.1.9zM107.1 129.4c-.1 0-.1 0 0 0l-10.7-1c-.6 0-1-.5-.9-1.1 0-.6.5-1 1.1-.9l10.6 1c.6 0 1 .5.9 1.1-.1.6-.5.9-1 .9zM108.8 105.6l-9.6-.2c-.6 0-1-.5-1-1s.5-1 1-1l9.6.2c.6 0 1 .5 1 1 0 .6-.5 1-1 1zM125.1 106s-.1 0 0 0l-9.6-.2c-.6 0-1-.5-1-1s.5-1 1-1l9.6.2c.6 0 1 .5 1 1 0 .6-.5 1-1 1zM98.1 92.7c-.5 0-1-.4-1-1s.4-1 1-1l9.7-.3c.5 0 1 .4 1 1s-.4 1-1 1l-9.7.3z" fill="#ffb8a2"/><path d="M103.9 105.1c-.5 0-1-.4-1-1l-.5-11.9c0-.6.4-1 1-1s1 .4 1 1l.5 11.9c0 .5-.4.9-1 1z" fill="#ffb8a2"/><path d="M119.3 100l-15.6-.3c-.6 0-1-.5-1-1 0-.6.5-1 1-1l15.6.3c.6 0 1 .5 1 1 0 .6-.5 1-1 1z" fill="#ffb8a2"/><path d="M111.8 71.7c0-.3-.2-.6-.4-.8v-.2c0-.6-.5-1-1-1l-7.5.2-.2-6.1 3.6-.1c.6 0 1-.5 1-1 0-.6-.5-.9-1-1l-10.4.4c-.6 0-1 .5-1 1s.5 1 1 1l4.8-.2.4 12.6-4.1.2c-.6 0-1 .5-1 1s.5 1 1 1l9.9-.2c.6 0 1-.5 1-1 0-.6-.5-1-1-1l-3.9.1V72l6.8-.2.8 26.6c0 .5.5 1 1 1 .6 0 1-.5 1-1l-.8-26.7z" fill="#ffb8a2"/><g fill="#ff9879"><path d="M107 76.4l-2.4.1c.8.7 1.6 1.3 2.4 1.9.5 0 1-.5.9-1 .1-.5-.4-1-.9-1z"/><path d="M111.8 71.7c0-.3-.2-.6-.4-.8v-.2c0-.6-.5-1-1-1l-7.5.2-.2-6.1 3.6-.1c.6 0 1-.5 1-1 0-.6-.5-.9-1-1l-10.4.4c-.6 0-1 .5-1 1s.5 1 1 1l4.8-.2.3 9c.7.7 1.4 1.5 2.1 2.1l-.1-3 6.8-.2.3 8.6c.7.4 1.3.7 2 1.1l-.3-9.8z"/></g><path d="M122.5 88.6h-7.3c-1.4 0-2.6-1.2-2.6-2.6 0-1.4 1.2-2.6 2.6-2.6h7.3v5.2z" opacity=".49" fill="#ff9879"/><circle cx="115.1" cy="86" r="1" fill="#f30"/><g><path d="M144.4 141.4c-.5 0-.9-.3-1-.8-.1-.5.3-1.1.8-1.2l12.7-2.1c.6-.1 1.1.3 1.2.8.1.5-.3 1.1-.8 1.2l-12.7 2.1h-.2zM145.6 155.7c-.6 0-1-.4-1-1s.4-1 1-1c7.2 0 14.9-2.2 14.9-2.2.5-.2 1.1.1 1.2.7.2.5-.1 1.1-.7 1.2-.2.1-7.9 2.3-15.4 2.3z" fill="#ffb8a2"/><path d="M151.8 154.9c-.5 0-.9-.3-1-.8l-2.5-14.3c-.1-.5.3-1.1.8-1.2.6-.1 1.1.3 1.2.8l2.5 14.3c.1.5-.3 1.1-.8 1.2h-.2z" fill="#ffb8a2"/><path d="M132.8 148.9c-.5 0-1-.4-1-1s.4-1 1-1c.1 0 7.1-.2 17.3-1.3.5-.1 1 .3 1.1.9.1.6-.3 1-.9 1.1-10.4 1.1-17.4 1.3-17.5 1.3z" fill="#ffb8a2"/><path d="M141.3 167c-.5 0-.9-.3-1-.8-2.5-11.9-3.5-17.9-3.5-17.9-.1-.5.3-1.1.8-1.2.5-.1 1.1.3 1.2.8 0 .1 1 6 3.5 17.8.1.5-.2 1.1-.8 1.2-.1.1-.1.1-.2.1zM132.5 137.4c-.6 0-1-.4-1-1s.4-1 1-1c1.2 0 2.9-.1 3.7-1.1.6-.7.8-1.7.6-3.2 0-.2-1.1-5.8-1.5-14.4-.2-4.4-.8-4.4-2.3-4.4h-2.6c-.6 0-1-.4-1-1s.4-1 1-1h2.6c3.7 0 4.1 2.6 4.3 6.4.4 8.5 1.5 14.1 1.5 14.2.3 2.1-.1 3.7-1 4.8-1.4 1.6-3.7 1.7-5.3 1.7z" fill="#ffb8a2"/><path d="M137.3 125.1c-.5 0-1-.4-1-.9 0-.6.4-1 .9-1.1l9-.6c.6 0 1 .4 1.1.9 0 .6-.4 1-.9 1.1l-9.1.6z" fill="#ffb8a2"/><path d="M146.8 128.4c-.5 0-.9-.4-1-.9l-1.2-9.6c-.1-.5.3-1 .9-1.1.5-.1 1 .3 1.1.9l1.2 9.6c.1.5-.3 1-.9 1.1h-.1z" fill="#ffb8a2"/><path d="M141.7 118.1c-.5 0-1-.4-1-.9 0-.6.4-1 .9-1.1l9.2-.6c.6 0 1 .4 1.1.9 0 .6-.4 1-.9 1.1l-9.3.6zM142.9 129.4c-.5 0-1-.4-1-.9 0-.6.4-1 .9-1.1l10.6-1c.6-.1 1 .4 1.1.9 0 .6-.4 1-.9 1.1l-10.7 1c.1 0 .1 0 0 0zM141.2 105.6c-.5 0-1-.4-1-1s.4-1 1-1l9.6-.2c.5 0 1 .4 1 1s-.4 1-1 1l-9.6.2zM124.9 106c-.5 0-1-.4-1-1s.4-1 1-1l9.6-.2c.5 0 1 .4 1 1s-.4 1-1 1l-9.6.2c.1 0 0 0 0 0zM151.9 92.7l-9.7-.3c-.6 0-1-.5-1-1s.5-1 1-1l9.7.3c.6 0 1 .5 1 1s-.5 1-1 1z" fill="#ffb8a2"/><path d="M146.1 105.1c-.6 0-1-.5-1-1l.5-11.9c0-.6.5-1 1-1 .6 0 1 .5 1 1l-.5 11.9c0 .5-.5 1-1 1z" fill="#ffb8a2"/><path d="M130.7 100c-.5 0-1-.4-1-1s.4-1 1-1l15.6-.3c.5 0 1 .4 1 1s-.4 1-1 1l-15.6.3z" fill="#ffb8a2"/><path d="M154.2 62.1l-10.4-.4c-.6 0-1 .4-1 1s.4 1 1 1l3.6.1-.2 6.1-7.5-.2c-.5 0-1 .4-1 1v.2c-.2.2-.4.5-.4.8l-.8 26.6c0 .6.4 1 1 1 .5 0 1-.4 1-1l.8-26.6 6.7.3-.1 4.6-3.9-.1c-.5 0-1 .4-1 1s.4 1 1 1l9.9.2c.5 0 1-.4 1-1s-.4-1-1-1l-4.1-.1.4-12.6 4.8.2c.5 0 1-.4 1-1 .1-.6-.3-1.1-.8-1.1z" fill="#ffb8a2"/><g fill="#ff9879"><path d="M143 76.4c-.6 0-1 .4-1 1 0 .5.4 1 .9 1 .8-.6 1.7-1.3 2.4-1.9l-2.3-.1z"/><path d="M154.2 62.1l-10.4-.4c-.6 0-1 .4-1 1s.4 1 1 1l3.6.1-.2 6.1-7.5-.2c-.5 0-1 .4-1 1v.2c-.2.2-.4.5-.4.8l-.3 9.7c.7-.3 1.4-.7 2-1.1l.3-8.6 6.7.3-.1 3.1L149 73l.3-9 4.8.2c.5 0 1-.4 1-1s-.4-1.1-.9-1.1z"/></g><path d="M127.5 88.6h7.3c1.4 0 2.6-1.2 2.6-2.6 0-1.4-1.2-2.6-2.6-2.6h-7.3v5.2z" opacity=".49" fill="#ff9879"/><circle cx="134.9" cy="86" r="1" fill="#f30"/></g></g><path d="M126.3 142.8h-2.6c-1.2 0-2.2.9-2.3 2.1l-1.6 14.7c-.2 2.3 1.6 4.3 3.9 4.3h2.6c2.3 0 4.1-2 3.9-4.3l-1.6-14.7c-.1-1.2-1.1-2.1-2.3-2.1z" opacity=".49" fill="#a50218"/><g><path fill="#ff9879" d="M122.9 186.3h4.2v22.6h-4.2z"/><path fill="#f30" d="M127.1 199.6l-4.2-2.1v-11.2h4.2z"/><g><path d="M176.5 220.6c-8.9-2.9-47.3-15.1-47.5-15.2h-8.1c-.2.1-38.5 12.3-47.5 15.2-1.1.4-1.9 1.4-1.9 2.5v7.4h3.2v-2.4c0-1.4 1-2.6 2.3-2.9l43.5-9h8.7l43.5 9c1.4.3 2.3 1.5 2.3 2.9v2.4h3.2v-7.4c.1-1.1-.6-2.1-1.7-2.5z" fill="#d21b0c"/><path d="M123 208.4l-3.3.8 1.6 26.3s2.5.1 3.7.1c1.2 0 3.7-.1 3.7-.1l1.6-26.3-3.3-.8h-4z" fill="#d21b0c"/><path d="M176.5 220.6c-8.9-2.9-47.3-15.1-47.5-15.2h-8.1c-.2.1-38.5 12.3-47.5 15.2-1.1.4-1.9 1.4-1.9 2.5v7.4h1.7v-5.9c0-1.4.9-2.6 2.2-3l44.4-14.1c1.3-.4 2.7.5 2.8 1.8l1.6 16.7h1.5l1.6-16.7c.1-1.4 1.5-2.3 2.8-1.8l44.4 14.1c1.3.4 2.2 1.6 2.2 3v5.9h1.7v-7.4c-.1-1.1-.8-2.1-1.9-2.5z" opacity=".65" fill="#f30"/></g></g><g><path d="M108.5 189.9v-8c0-1.4.2-2.8.6-4.2 7.6-26.8 9.7-47.6 9.4-70.7-.2-12.9 1.2-26.9-7.3-34.4h27.6c-8.5 7.5-7.1 21.5-7.3 34.4-.3 23 1.9 43.8 9.4 70.7.4 1.4.6 2.8.6 4.2v8c0 1.4-1.1 2.6-2.6 2.6h-28c-1.3 0-2.4-1.1-2.4-2.6z" fill="#ffb8a2"/></g><path d="M93.5 52c-1 .3-1.5 1.4-1.2 2.4C97.2 66.8 110 76.6 125 76.6c15 0 27.8-9.8 32.6-22.2.4-1-.1-2.1-1.2-2.4-12.3-3.5-50.5-3.5-62.9 0z" fill="#f30"/><path d="M69.6 243.7H71V232h-1.5c-.5 0-.9.4-.9.9v9.8c0 .6.4 1 1 1zM71.9 232h2.4v8.2h-2.4zM75.2 243.7h1.5c.5 0 .9-.4.9-.9V233c0-.5-.4-.9-.9-.9h-1.5v11.6z" fill="#a50218"/><path d="M69.3 242.5H71v-5.7h-1.8c-.4 0-.6.3-.6.6v4.4c0 .4.3.7.7.7zM71.9 236.8h2.4v4h-2.4zM75.2 242.5H77c.4 0 .6-.3.6-.6v-4.4c0-.4-.3-.6-.6-.6h-1.8v5.6z" fill="#3b0522"/><path d="M173.2 243.7h1.5V232h-1.5c-.5 0-.9.4-.9.9v9.8c0 .6.4 1 .9 1zM175.6 232h2.4v8.2h-2.4zM178.9 243.7h1.5c.5 0 .9-.4.9-.9V233c0-.5-.4-.9-.9-.9h-1.5v11.6z" fill="#a50218"/><path d="M173 242.5h1.8v-5.7H173c-.4 0-.6.3-.6.6v4.4c-.1.4.2.7.6.7zM175.6 236.8h2.4v4h-2.4zM178.9 242.5h1.8c.4 0 .6-.3.6-.6v-4.4c0-.4-.3-.6-.6-.6h-1.8v5.6z" fill="#3b0522"/><path d="M121.4 250h1.5v-11.7h-1.5c-.5 0-.9.4-.9.9v9.8c0 .6.4 1 .9 1zM123.8 238.3h2.4v8.2h-2.4zM127.1 250h1.5c.5 0 .9-.4.9-.9v-9.8c0-.5-.4-.9-.9-.9h-1.5V250z" fill="#a50218"/><path d="M121.1 248.8h1.8v-5.7h-1.8c-.4 0-.6.3-.6.6v4.4c0 .4.3.7.6.7zM123.8 243.1h2.4v4h-2.4zM127.1 248.8h1.8c.4 0 .6-.3.6-.6v-4.4c0-.4-.3-.6-.6-.6h-1.8v5.6z" fill="#3b0522"/></svg>