<svg xmlns="http://www.w3.org/2000/svg" viewBox="0 0 250 250"><path d="M164.8 60.1c.8-1.7 2.2-7 4.2-6.6.8.2 8.7 4 11.4 8.2 2.9 4.6 2.1 9.3 1.3 28.1-.2 3.9-.3 7.8-1.4 11.5-1.1 3.7-3.3 7.3-6.6 9.2-1.2.7-2.9 1.2-4.1.4-.5-.4-.9-.9-1.2-1.5-2.7-5.1-1.8-11.2-1.1-16.9 2.8-22.9-3.5-25-2.5-32.3" fill="#ffdec7"/><path d="M178 66.2c-1.1-4.8-2.6-6-5.7-7.6-2.1-1.1-4.1-1.9-5.8-2.7-.7 1.5-1.3 3.2-1.7 4.1l-.1.2c-1 7.3 5.3 9.4 2.5 32.3-.7 5.7-1.5 11.8 1.1 16.9 0 .1.1.1.1.2 1.2.1 2.3-.3 3.3-.9 1.6-.9 2-1.7 2.4-3.4 3.6-12.7 6.9-26.2 3.9-39.1z" fill="#ffb8a2"/><path d="M154.7 28.4c1-4.2 1.8-8.4 1.7-12.7 0-3.2-.6-6.4-2.3-9.1-2.2-3.5-6.3-5.7-10.5-5.8s-8.3 1.9-11 5-4 7.4-3.8 11.6c.1 1.4.3 2.8.3 4.3-.1 1.4-.4 2.7-.4 4.1 0 2 .9 4 1.2 6 .4 2.6-.1 5.4 1.4 7.6.9 1.2 2.2 1.9 3.7 2.3 1.4.4 2.9.4 4.4.4l15.3-13.7z" fill="#710023"/><path d="M131.7 37.8c-.5 0-1-.2-1.2-.5.6 2.4 2.2 3.7 4.5 4.3.7.2 1.5.3 2.2.3.3-.7.5-1.5.5-2.2.3-3.1-2.4-7-3.3-10-2.8 5.9-1.1 8-2.7 8.1z" fill="#3b0522"/><path d="M153.1 39.9c-.2-3.7.7-7.4 1.5-11 .6-2.7-.3-6.1-2.3-8.1-.6-.6-1.3-1.1-2.1-1.4-2.9-1.5-6.3-1.7-9.3-.6-3 1.1-5.5 3.6-6.5 6.7-.6 1.7-.6 3.6-.7 5.4-.1 1.9-.2 3.9-.2 5.8-.1 2.2-.2 4.4-1 6.5-.6 1.4-1.5 2.8-2.8 3.6-.6.4-1.3.4-1.8.7-.7.4-.9 1.5-.9 2.3 0 1 .4 1.9.9 2.7 1.5 2.5 4.2 3.9 7 4.9 4.7 1.6 9.8 1.9 14.8 1.4 2.7-.3 5.6-.8 7.8-2.4 1-.8 1.9-1.8 2.2-3.1.6-2.8-2.5-3.9-3.9-5.8-1.8-2.2-2.6-4.9-2.7-7.6z" fill="#710023"/><path d="M143.2 2c-5.4-1.5-12.5 4.3-5.4 13.2 2.2 2.8 5.2 5.6 5 8.9-.2 2.6-2.4 4.9-2.7 7.5-.4 2.6 1.2 5.1 2 7.7 2 6.9-1.7 13.3-.1 14.9 1 1 6.8 2.5 12.2 2.1 1-.1 2-.2 2.6-.8.7-.7.7-1.7.3-2.5s-1.1-1.5-1.8-2.2c-3.3-3.7-3.9-8.6-3.4-13.2.6-4.6 2.2-9 3-13.5.7-3.6 1.4-11 .2-15.1-.8-2.6-2.5-5-5.2-6.5-1.7-.9-4.8-1.1-6.7-.5" fill="#3b0522"/><path d="M175.7 59.1c-.4-1-1.2-1.8-2.1-2.4-5-3.9-11.1-6.1-17.3-7.5-14.9-3.5-30.9-3.5-45.3 1.8-1.2.4-2.3.9-3.4 1.4-5 1.7-8.5 6.2-11.7 10.5C87.6 74.3 79.3 86 73.7 99.2c-.6 1.3-1.1 2.7-1.2 4.2-.1 1.5.3 3 1.4 4 1.1 1 2.6 1.2 4 1 1.4-.3 2.7-1 3.8-1.9 2.7-2 4.8-4.7 7-7.3C93 94 97.6 89 102.5 84.3l1.2-1.2c.9 4 1.6 8.1 2.1 12.2.9 8 .6 16.3-2.4 23.8l50.6 1.6c3.8-10.3 7.9-20.5 12.2-30.7 3.8-8.9 7.8-17.9 9.7-27.4.1-1.1.3-2.4-.2-3.5z" fill="#ffdec7"/><path d="M143.7.8c-2.7-.1-5.3.7-7.6 2.1l-3.3 11c.8 6.5.8 9.7 2.4 9.5.1-2.8-.1-3.7.5-4 1.3-.6 5.2 5.2 2.1 8.4-.2.2-.4.4-.5.7-.2.9 3 7.3 6.7 8.2 1.9.5 4.2-.3 9.2-.1.3-2.6.9-5.1 1.4-7.7 0-.2.1-.3.1-.5 1-4.2 1.8-8.4 1.7-12.7 0-3.2-.6-6.4-2.3-9.1-2.2-3.5-6.3-5.7-10.4-5.8z" fill="#900818"/><path d="M144 36.7c1.8.5 3.8-.2 8-.1.7-4.2 2.1-8.3 2.9-12.5.7-3.6 1.4-11 .2-15.1-.6-1.8-1.6-3.6-3.1-5-.7-.6-1.4-1.1-2.2-1.6-1.7-.9-4.7-1.1-6.5-.4-3.2-.9-7 .8-8.1 4.1-.7 2.3-.2 5.4 2.7 9 2.2 2.8 5.2 5.6 5 8.9-.2 2.6-2.4 4.9-2.7 7.5-.1.8 0 1.6.1 2.4 1 1.3 2.3 2.4 3.7 2.8z" fill="#710023"/><path d="M158.6 206.4c-1 2.7-1.3 5.5-1 8.4.1.8.2 1.5.7 2.1.8 1 2.2 1.2 3.4 1.3 1.9.2 3.8.3 5.7-.2 1.5-.4 2.9-1.1 4.4-1.5 1.8-.5 3.7-.6 5.6-.8 1.9-.2 3.8-.6 5.3-1.7.8-.6 1.6-1.5 1.2-2.5-.3-.8-1.2-1.2-2-1.4-3.3-1-6.7-1.8-9.4-3.8-1.1-.8-2.1-1.7-3.2-2.4s-2.3-1.1-3.6-1.3c-1.2-.2-2.5-.1-3.7.4-1.1.5-2.2 1.3-2.6 2.5" fill="#a50218"/><path d="M164.1 137.8c-4.1.2-7.9 2.6-9.9 6.1-1.1 1.8-1.7 3.8-2.1 5.9-2 9.4-1.3 19.1.2 28.5 1.5 9.5 3.6 18.8 4.2 28.4.1.8.1 1.7.4 2.5 1.6 3.7 8.1 3.7 10.9-2 1.4-2.9 1.5-6.2 1.6-9.4 1-51.5 1.3-50.7.1-54.3-.9-2.6-2.8-5-5.4-5.7" fill="#3b0522"/><path d="M89 208.2c-4.8-.1-4.5-.5-6.3-.7-1.1-.1-4.2 0-5.8 1-1.2.7-2 2.1-1.8 3.5.5 2.5 3.2 2.5 9 6.5.7.5 1.4 1 2.1 1.4 4.7 2.5 10 .2 11-4.3.2-1 .2-2.8.2-3.8-.1-4.4-2.6-3.1-7.7-3.4" fill="#a50218"/><path d="M92 136.8c-5.4 1.1-7.7 5.1-8.9 9.1-1.3 4.4-.9 4.3 1.7 55.9.2 3.6.6 7.7 3.5 9.9 2.9 2.1 7.5 1.1 9.2-2.1.9-1.8.9-3.8.9-5.8.2-28.4 6.2-57.3-.8-65.3-1.4-1.6-3.7-2.5-5.6-1.7" fill="#3b0522"/><path d="M121.6 114.7c-9.6 1.7-19.2 3.4-28.3 6.9-2.7 1-5.5 2.3-7.3 4.6-1.6 2-2.4 4.5-2.9 7-1.1 5-1.6 10.1-1.5 15.3 0 1 .1 2.1.6 3 .9 1.7 3.1 2.3 5.1 2.2 6-.2 10.8-4.9 16.4-6.7 3.4-1.1 7.1-1.2 10.7-1.3 4.2-.2 8.3-.6 12.4-1.2 1.2-.2 2.5-.4 3.6-.9 1.2-.6 2.1-1.6 2.9-2.6 3.5-4.8 3.8-11.4 1.9-17.1-.9-2.7-2.4-5.4-4.6-7.2s-5.3-2.9-8.1-2.2" fill="#3b0522"/><path d="M134.8 116.4c6.4 1.3 12.7 2.9 18.9 4.9 5 1.6 10.4 3.8 13 8.4.7 1.2 1.1 2.4 1.5 3.7 1.3 3.9 2.2 7.9 2.5 12 .1 2.2 0 4.5-1.4 6.2-1.3 1.5-3.4 2.2-5.4 2.3-1.6.1-3.2-.1-4.8-.5-2.8-.7-5.3-2.2-8-3.4-6.4-2.8-13.5-3.5-20.5-3.7-2.8-.1-5.8-.1-8-1.7-1.1-.8-1.9-1.9-2.6-3.1-1-1.7-1.7-3.5-2.1-5.4-1-5.7 2-11.5 6.2-15.4 2.5-2.4 5.8-4.3 9.2-4.2" fill="#3b0522"/><path d="M137.3 1.5c4.3-1.9 9.8-1.9 13.2-.4 4.2 1.8 7.6 6.5 7.7 13.6-.3-.6-.7-1.2-1.2-1.8 1.2 7.7-2.5 14.2-3 14.5-1.2.6-3.1-7.2-6.5-12.6-2.3-3.6-5.5-6.6-8.6-9.5" fill="#bd081c"/><path d="M139 5.3c3.1 2.9 6.3 5.9 8.6 9.5 3.4 5.5 5.3 13.3 6.5 12.6 0 0 .1 0 .1-.1.3-1.1.5-2.2.7-3.3.7-3.6 1.4-11 .2-15.1-.8-2.6-2.5-5-5.2-6.5-1.7-.9-4.7-1.1-6.7-.5-1.8-.5-3.8-.2-5.4.8l1.2 2.6z" fill="#900818"/><path d="M129.6 4c-.9 5.1 1.1 10.7 5.1 14.1-.1-1-.2-2.1-.3-3.1 7.4 9.1 14.7 7.9 18.1 13.1 4.3-7.2 2.8-17.3-4.6-24.1-4-3.7-7.1-4.1-10.9-3.9-2.9.2-5.8 1.4-7.4 3.9" fill="#bd081c"/><path d="M152.5 28c4.3-7.2 2.8-17.3-4.6-24.1-1-.9-2-1.7-2.9-2.2-.6.1-1.2.2-1.7.3-5.4-1.5-12.5 4.3-5.4 13.2 1.7 2.1 3.7 4.2 4.6 6.5 4.2 2.3 7.9 3 10 6.3z" fill="#900818"/><path d="M175.7 62.7c.1-.4.2-.9.2-1.4-.9-1.2-2.1-1.9-3.7-2.7-10.8-5.4-16.3-5.4-18.7-10.1-3.7-.8-7.5-1.3-11.2-1.6-2.3 4.4-7.4 4.2-12.1 4.7-9.6 1-16.9 1.9-21.5 4.7-8.4 5.1-23.5 28.2-29.4 38.6-1.5 2.7-5.1 9.5-2.6 11.2 5.4 3.8 27-34.2 45.4-37 5.2-.8 15.9 2 21.3 3.9L122 82.6c0 1.8 1.2 3.5 2.7 4.6 3.7 2.6 9.1 1.7 13.7 2.2 12.9 1.3 16.6 10.2 21.8 14.9 1.9-4.7 3.8-9.4 5.8-14.1 3.8-9 7.8-18 9.7-27.5z" fill="#ffb8a2"/><path d="M137.1 20.9c2.1 2.5 1.5 5.8-.8 8-.2.2.1.6.3.3 2.5-2.4 3-6 .8-8.7-.2-.2-.5.1-.3.4z" fill="#38080e"/><path fill="#ff9879" d="M122.7 176.7h4.7v23.7h-4.7z"/><path fill="#f30" d="M127.4 191.1l-4.7-5.8v-8.6h4.7z"/><path d="M76.7 111.8V166c0 1.1.7 2.1 1.7 2.4 4.7 1.6 19.5 5.8 46.9 5.8v4.8c-34 0-48.3-5.6-53.1-8.3-1.3-.7-2.1-2.1-2.1-3.5 0-5.8.2-12.2.7-17.8.9-9.4 2.9-18.7 2-28.1-.1-1.4-.4-2.7-1-3.9-.5-.9-1.2-1.6-1.7-2.5s-.7-2-.2-2.9" fill="#d21b0c"/><path d="M173.4 111.8V166c0 1.1-.7 2.1-1.7 2.4-4.7 1.6-19.5 5.8-46.9 5.8v4.8c34 0 48.3-5.6 53.1-8.3 1.3-.7 2.1-2.1 2.1-3.5 0-5.8-.2-12.2-.7-17.8-.9-9.4-2.9-18.7-2-28.1.1-1.4.4-2.7 1-3.9.5-.9 1.2-1.6 1.7-2.5s.7-2 .2-2.9" fill="#d21b0c"/><path d="M121.8 168.6c-15.6 0-37.1-2.4-43.6-5.8-7.4-3.9-5.6-7.2-5.3-11.8.3-5.5.7-11.1 2.3-16.4 2.4-8.3 13.3-25.2 19.5-65.7.8-5.6 1.9-8.1 7.2-8.1h46.5c5.3 0 6.4 2.5 7.2 8.1 6.2 40.5 17 57.4 19.5 65.7 1.6 5.3 1.9 10.9 2.3 16.4.3 4.7 2.1 8-5.3 11.8-6.5 3.4-28 5.8-43.6 5.8h-6.7z" fill="#f30"/><path d="M119.6 164.5s-2.1-37.7-3.2-53.4C115.3 95.4 105.8 82 105.8 82l16.4 20v62.2l-2.6.3zM130.7 164.5s2.1-37.7 3.2-53.4C135 95.4 144.5 82 144.5 82l-16.4 20v62.2l2.6.3z" fill="#d21b0c"/><path d="M150.4 65.7c-1.6-1-3.8-.5-4.8 1.1l-20.5 33.1-20.4-33c-1-1.6-3.1-2.3-4.8-1.3-1.7 1-2.3 3.2-1.2 4.9l16.5 26.6c2.8 4.6 4.4 9.9 4.4 15.3v62h11.2v-62c0-5.4 1.5-10.7 4.4-15.3l16.5-26.6c.8-1.6.3-3.8-1.3-4.8z" fill="#ff9879"/><path d="M81.2 112.4h-15c-.7 0-1.2-.6-1.2-1.2v-1.7c0-.7.6-1.2 1.2-1.2h15.1c.9 0 1.6.7 1.6 1.6v1c-.1.8-.8 1.5-1.7 1.5zM168.9 112.4H184c.7 0 1.2-.6 1.2-1.2v-1.7c0-.7-.6-1.2-1.2-1.2h-15.1c-.9 0-1.6.7-1.6 1.6v1c0 .8.7 1.5 1.6 1.5z" fill="#da1125"/><g><path d="M181.4 223.2c-2.8-2.3-2.3-1.6-42.6-15-2.2-.7-4.5-1.5-6.4-2.9-1.6-1.2-2.8-3-3-4.9-.1-.7-.6-1.2-1.3-1.2h-6.2c-.7 0-1.2.5-1.3 1.2-.2 1.9-1.5 3.7-3 4.9-1.9 1.4-4.1 2.2-6.4 2.9-40.3 13.4-39.8 12.7-42.6 15-1.9 1.6-2.8 4-2.8 6.5H69s.5-3.7 3.9-4.6l44.2-12.5c2.7-.6 4.7 0 4.7 0h6.3s2-.6 4.7 0l44.2 12.5c3.4.9 3.9 4.6 3.9 4.6h3.2c0-2.6-.8-5-2.7-6.5z" fill="#f30"/><path d="M122.3 207.2s-45.6 14.7-49.8 16.2c-4.2 1.4-3.8.5-1.7-1.4.1-.1.2-.2.2-.3-1.1.5-1.7.9-2.4 1.5-1.9 1.6-2.8 4-2.8 6.5H69s.5-3.7 3.9-4.6l44.2-12.5c2.7-.6 4.7 0 4.7 0h1.2l-.7-5.4zM127.7 207.2s45.6 14.7 49.8 16.2c4.2 1.4 3.8.5 1.7-1.4-.1-.1-.2-.2-.2-.3 1.1.5 1.7.9 2.4 1.5 1.9 1.6 2.8 4 2.8 6.5H181s-.5-3.7-3.9-4.6l-44.2-12.5c-2.7-.6-4.7 0-4.7 0H127l.7-5.4z" fill="#d21b0c"/><path d="M128.6 205.8c.2 6.9.3 13.8.4 20.6.1 5.6-2.7 4.3-2.4 9.5h-3c.3-5.2-2.5-3.9-2.4-9.5.1-6.9.2-13.8.4-20.6h7z" fill="#f30"/></g><path d="M63.6 243.6h1.6v-12.4h-1.6c-.5 0-1 .4-1 1v10.5c0 .5.5.9 1 .9zM66.2 231.2h2.6v8.8h-2.6zM69.7 243.6h1.6c.5 0 1-.4 1-1v-10.5c0-.5-.4-1-1-1h-1.6v12.5z" fill="#a50218"/><path d="M63.4 242.5h1.8v-6.4h-1.8c-.4 0-.7.3-.7.7v5c-.1.4.3.7.7.7zM69.7 242.5h1.8c.4 0 .7-.3.7-.7v-5c0-.4-.3-.7-.7-.7h-1.8v6.4z" fill="#3b0522"/><path d="M178.7 243.6h1.6v-12.4h-1.6c-.5 0-1 .4-1 1v10.5c.1.5.5.9 1 .9zM181.3 231.2h2.6v8.8h-2.6zM184.8 243.6h1.6c.5 0 1-.4 1-1v-10.5c0-.5-.4-1-1-1h-1.6v12.5z" fill="#a50218"/><path d="M178.5 242.5h1.8v-6.4h-1.8c-.4 0-.7.3-.7.7v5c0 .4.3.7.7.7zM184.8 242.5h1.8c.4 0 .7-.3.7-.7v-5c0-.4-.3-.7-.7-.7h-1.8v6.4z" fill="#3b0522"/><path d="M121.1 250h1.6v-12.4h-1.6c-.5 0-1 .4-1 1V249c0 .6.4 1 1 1zM123.6 237.6h2.6v8.8h-2.6zM127.1 250h1.6c.5 0 1-.4 1-1v-10.5c0-.5-.4-1-1-1h-1.6V250z" fill="#a50218"/><path d="M120.8 248.9h1.8v-6.4h-1.8c-.4 0-.7.3-.7.7v5c0 .4.3.7.7.7zM127.1 248.9h1.8c.4 0 .7-.3.7-.7v-5c0-.4-.3-.7-.7-.7h-1.8v6.4z" fill="#3b0522"/></svg>