<svg width="551" height="295" viewBox="0 0 551 295" fill="none" xmlns="http://www.w3.org/2000/svg">
<path d="M0.6 132V3.99999H49.8C88.8 3.99999 115.6 28.4 115.6 68C115.6 107.6 89 132 49.8 132H0.6ZM22.2 112.2H53.6C77.8 112.2 93.6 93.8 93.6 68C93.6 42 77.8 23.8 53.6 23.8H22.2V112.2ZM170.741 134.8C139.141 134.8 121.141 113.6 121.141 84.6C121.141 54 141.541 34.2 171.341 34.2C199.541 34.2 218.341 51.4 218.341 85.6V90.4H142.141C144.141 105 153.341 116.4 167.141 116.4H175.741C186.541 116.4 193.541 109.8 195.741 101.4H216.541C213.941 120.6 198.141 134.8 170.741 134.8ZM142.941 74.4H197.141C196.141 61 186.741 52.6 176.541 52.6H165.541C154.541 52.6 145.741 61.2 142.941 74.4ZM263.78 134.8C236.18 134.8 222.58 124.2 221.78 103.4H241.98C242.98 111.8 248.18 117.2 258.98 117.2H272.18C281.58 117.2 285.98 112.4 285.98 106C285.98 100 282.38 95.8 273.78 94.6L251.58 91.8C232.78 89.6 224.38 78.4 224.38 63.8C224.38 44.6 238.58 34.2 264.18 34.2C288.58 34.2 303.38 44 304.18 65.8H283.98C282.98 57.6 279.58 51.8 269.18 51.8H257.18C248.18 51.8 243.98 56.6 243.98 62.8C243.98 69 247.98 73.2 256.58 74.4L278.98 77.2C297.18 79.4 305.58 89.2 305.58 104.4C305.58 124 292.58 134.8 263.78 134.8ZM317.156 132V56H304.956V37H338.356V132H317.156ZM314.556 22.2V-5.24521e-06H338.756V22.2H314.556ZM355.905 166V147.6H418.305C422.505 147.6 424.505 145.8 424.505 141.6V118.4C418.505 127.6 408.305 133.6 393.305 133.6C365.705 133.6 347.305 113.4 347.305 84C347.305 54.8 365.905 34.2 393.305 34.2C407.705 34.2 418.705 39.8 424.905 49.2V37H445.305V145.6C445.305 159 438.505 166 425.105 166H355.905ZM368.305 84C368.305 101 378.905 115 391.905 115H403.905C415.305 115 424.305 105.2 424.305 92V76.4C424.305 63.8 415.905 53 403.905 53H391.905C378.905 53 368.305 67 368.305 84ZM460.584 132V37H480.984V51C487.184 40.2 497.384 34.2 512.984 34.2C536.584 34.2 550.384 47.6 550.384 72.2V132H529.384V75.8C529.384 62 522.384 53.8 512.384 53.8H500.784C490.384 53.8 481.584 62.8 481.584 75.8V132H460.584ZM0.6 292V164H58.2C82.6 164 95.8 176.8 95.8 195.2C95.8 207.4 89.6 217.4 78.4 222.4V223C92.8 228 101.6 239.6 101.6 255.2C101.6 275.8 87.4 292 61.4 292H0.6ZM22 274.4H61.2C72.2 274.4 80.2 266 80.2 253.8C80.2 241.6 72.2 233.4 61.2 233.4H22V274.4ZM22 216H58.6C67.8 216 74.4 209.2 74.4 198.8C74.4 188.6 67.8 181.6 58.6 181.6H22V216ZM157.069 294.8C125.469 294.8 107.469 273.6 107.469 244.6C107.469 214 127.869 194.2 157.669 194.2C185.869 194.2 204.669 211.4 204.669 245.6V250.4H128.469C130.469 265 139.669 276.4 153.469 276.4H162.069C172.869 276.4 179.869 269.8 182.069 261.4H202.869C200.269 280.6 184.469 294.8 157.069 294.8ZM129.269 234.4H183.469C182.469 221 173.069 212.6 162.869 212.6H151.869C140.869 212.6 132.069 221.2 129.269 234.4ZM247.908 292C232.508 292 223.908 284 223.908 269.8V215.4H205.508V197H223.908V170.4H245.108V197H269.908V215.4H245.108V263.8C245.108 270 247.108 273 253.908 273H270.708V292H247.908ZM311.205 292C295.805 292 287.205 284 287.205 269.8V215.4H268.805V197H287.205V170.4H308.405V197H333.205V215.4H308.405V263.8C308.405 270 310.405 273 317.205 273H334.005V292H311.205ZM385.139 294.8C353.539 294.8 335.539 273.6 335.539 244.6C335.539 214 355.939 194.2 385.739 194.2C413.939 194.2 432.739 211.4 432.739 245.6V250.4H356.539C358.539 265 367.739 276.4 381.539 276.4H390.139C400.939 276.4 407.939 269.8 410.139 261.4H430.939C428.339 280.6 412.539 294.8 385.139 294.8ZM357.339 234.4H411.539C410.539 221 401.139 212.6 390.939 212.6H379.939C368.939 212.6 360.139 221.2 357.339 234.4ZM442.178 292V197H462.578V212.2C466.578 202.8 475.378 197 485.378 197H498.378V217.2H478.978C468.378 217.2 463.178 224.4 463.178 237.2V292H442.178Z" fill="#FF4725"/>
</svg>
