<svg width="540" height="290" viewBox="0 0 540 290" fill="none" xmlns="http://www.w3.org/2000/svg">
<path d="M0 129.851V3.93487H48.3244C86.6303 3.93487 112.953 27.9376 112.953 66.8928C112.953 105.848 86.8268 129.851 48.3244 129.851H0ZM21.2156 110.373H52.0568C75.8261 110.373 91.3449 92.2727 91.3449 66.8928C91.3449 41.3161 75.8261 23.4125 52.0568 23.4125H21.2156V110.373Z" fill="black"/>
<path d="M167.113 132.605C136.075 132.605 118.395 111.75 118.395 83.2225C118.395 53.1208 138.432 33.6431 167.702 33.6431C195.4 33.6431 213.866 50.5631 213.866 84.2062V88.9281H139.022C140.986 103.29 150.022 114.505 163.577 114.505H172.024C182.631 114.505 189.507 108.012 191.668 99.749H212.098C209.544 118.636 194.025 132.605 167.113 132.605ZM139.807 73.1886H193.043C192.061 60.0068 182.828 51.7436 172.809 51.7436H162.005C151.201 51.7436 142.558 60.2035 139.807 73.1886Z" fill="black"/>
<path d="M258.496 132.605C231.387 132.605 218.029 122.178 217.243 101.716H237.084C238.066 109.98 243.174 115.292 253.781 115.292H266.746C275.979 115.292 280.301 110.57 280.301 104.274C280.301 98.3718 276.765 94.2402 268.318 93.0597L246.513 90.3053C228.048 88.1411 219.797 77.1235 219.797 62.7612C219.797 43.8738 233.744 33.6431 258.889 33.6431C282.855 33.6431 297.391 43.2836 298.177 64.7286H278.336C277.354 56.6621 274.015 50.9566 263.8 50.9566H252.013C243.174 50.9566 239.048 55.6784 239.048 61.7775C239.048 67.8765 242.977 72.0081 251.424 73.1886L273.425 75.943C291.302 78.1072 299.552 87.7476 299.552 102.7C299.552 121.981 286.783 132.605 258.496 132.605Z" fill="black"/>
<path d="M310.923 129.851V55.0882H298.94V36.3976H331.745V129.851H310.923ZM308.369 21.8385V0H332.138V21.8385H308.369Z" fill="black"/>
<path d="M348.981 163.297V145.197H410.271C414.396 145.197 416.361 143.426 416.361 139.294V116.472C410.467 125.522 400.449 131.425 385.716 131.425C358.607 131.425 340.534 111.554 340.534 82.6323C340.534 53.9077 358.803 33.6431 385.716 33.6431C399.86 33.6431 410.664 39.152 416.753 48.3989V36.3976H436.79V143.229C436.79 156.411 430.111 163.297 416.95 163.297H348.981ZM361.161 82.6323C361.161 99.3555 371.572 113.128 384.341 113.128H396.127C407.324 113.128 416.164 103.487 416.164 90.502V75.156C416.164 62.7612 407.914 52.137 396.127 52.137H384.341C371.572 52.137 361.161 65.9091 361.161 82.6323Z" fill="black"/>
<path d="M451.798 129.851V36.3976H471.835V50.1696C477.925 39.5455 487.943 33.6431 503.266 33.6431C526.446 33.6431 540 46.825 540 71.0244V129.851H519.374V74.5658C519.374 60.9905 512.498 52.924 502.676 52.924H491.283C481.068 52.924 472.424 61.7775 472.424 74.5658V129.851H451.798Z" fill="black"/>
<path d="M0 287.246V161.33H56.5749C80.5407 161.33 93.5057 173.921 93.5057 192.022C93.5057 204.023 87.4161 213.86 76.4154 218.779V219.369C90.5591 224.288 99.2025 235.699 99.2025 251.045C99.2025 271.309 85.2552 287.246 59.718 287.246H0ZM21.0191 269.932H59.5215C70.3258 269.932 78.1834 261.669 78.1834 249.668C78.1834 237.666 70.3258 229.6 59.5215 229.6H21.0191V269.932ZM21.0191 212.483H56.9678C66.0041 212.483 72.4866 205.794 72.4866 195.563C72.4866 185.529 66.0041 178.643 56.9678 178.643H21.0191V212.483Z" fill="black"/>
<path d="M153.684 290C122.646 290 104.967 269.145 104.967 240.617C104.967 210.516 125.004 191.038 154.273 191.038C181.972 191.038 200.437 207.958 200.437 241.601V246.323H125.593C127.558 260.685 136.594 271.9 150.148 271.9H158.595C169.203 271.9 176.078 265.407 178.239 257.144H198.669C196.115 276.031 180.596 290 153.684 290ZM126.379 230.583H179.614C178.632 217.402 169.399 209.138 159.381 209.138H148.577C137.772 209.138 129.129 217.598 126.379 230.583Z" fill="black"/>
<path d="M242.907 287.246C227.781 287.246 219.334 279.376 219.334 265.407V211.893H201.261V193.792H219.334V167.626H240.156V193.792H264.515V211.893H240.156V259.505C240.156 265.604 242.121 268.555 248.8 268.555H265.301V287.246H242.907Z" fill="black"/>
<path d="M305.077 287.246C289.951 287.246 281.504 279.376 281.504 265.407V211.893H263.432V193.792H281.504V167.626H302.327V193.792H326.685V211.893H302.327V259.505C302.327 265.604 304.291 268.555 310.97 268.555H327.471V287.246H305.077Z" fill="black"/>
<path d="M377.696 290C346.658 290 328.978 269.145 328.978 240.617C328.978 210.516 349.015 191.038 378.285 191.038C405.983 191.038 424.448 207.958 424.448 241.601V246.323H349.604C351.569 260.685 360.605 271.9 374.16 271.9H382.607C393.214 271.9 400.09 265.407 402.251 257.144H422.68C420.127 276.031 404.608 290 377.696 290ZM350.39 230.583H403.626C402.643 217.402 393.411 209.138 383.392 209.138H372.588C361.784 209.138 353.14 217.598 350.39 230.583Z" fill="black"/>
<path d="M433.719 287.246V193.792H453.756V208.745C457.685 199.498 466.329 193.792 476.151 193.792H488.919V213.663H469.865C459.453 213.663 454.346 220.746 454.346 233.338V287.246H433.719Z" fill="black"/>
</svg>
