<svg id="Layer_1" data-name="Layer 1" xmlns="http://www.w3.org/2000/svg" viewBox="0 0 250 176.9318"><defs><style>.cls-1{fill:#1d768a;}.cls-2{fill:#93278f;opacity:0.48;}.cls-3{fill:#cce7fa;}.cls-4{fill:#0c2d34;}.cls-5{fill:#aae4f7;}.cls-6{fill:#fff;}.cls-7{fill:#1098b2;}.cls-8{fill:#255068;}.cls-9{fill:#3eb991;}.cls-10{fill:#6ecadc;}.cls-11{fill:#3fb1c7;}.cls-12{isolation:isolate;}.cls-13{fill:#84d8f4;}</style></defs><title>slack-thumb-layer2</title><path class="cls-1" d="M73.9509,109.209c-8.335,4.9823-9.6426,18.4788-.98,23.7731,10.8411,6.6256,22.0308-5.8439,25.307-15.2253,4.6413-13.29-.0061-34.7385,13.2923-43.6683a11.845,11.845,0,0,1,15.0033,1.3561c6.73,7,.5492,17.6066-5.3106,22.7593-1.0327.9081.4806,2.4116,1.5081,1.5081,7.1977-6.3292,13.3749-19.527,4.0409-26.9029-6.48-5.1207-15.2436-3.0408-20.215,3.05-9.059,11.1-6.0067,26.9955-9.9084,39.8879-2.3109,7.636-9.8992,18.6592-19.2872,16.7339-10.4212-2.1372-10.57-16.5317-2.3742-21.4307a1.0672,1.0672,0,0,0-1.0765-1.8416Z" transform="translate(0 -24.5341)"/><polygon class="cls-2" points="20.123 167.221 40.09 149.186 78.276 158.897 58.308 176.932 20.123 167.221"/><polygon class="cls-3" points="78.276 156.994 39.678 147.493 58.609 174.56 78.276 156.994"/><path class="cls-4" d="M160.38,170.9389c8.3542-7.2932,16.578-15.0881,21.8437-24.848.0411-.0762-14.3086-1.1738-14.3086-1.1738-2.9513,3.04-3.7158,7.5227-5.5685,11.3332-1.9468,4.0039-5.1076,7.2657-8.2155,10.4535" transform="translate(0 -24.5341)"/><path class="cls-5" d="M104.3724,87.14c5.9508-3.8795,14.3235-1.5812,18.7009,5.1334l35.2416,54.0576c3.2737,5.0215,1.1035,12.2372-4.8473,16.1167s-13.4287,2.9537-16.7024-2.0679l-35.2416-54.0576C97.1462,99.608,98.4216,91.02,104.3724,87.14Z" transform="translate(0 -24.5341)"/><path class="cls-6" d="M104.3724,87.14c5.9508-3.8795,14.3235-1.5812,18.7009,5.1334l35.2416,54.0576c3.2737,5.0215,1.1035,12.2372-4.8473,16.1167s-13.4287,2.9537-16.7024-2.0679l-35.2416-54.0576C97.1462,99.608,98.4216,91.02,104.3724,87.14Z" transform="translate(0 -24.5341)"/><path class="cls-3" d="M158,157.8164a27.7166,27.7166,0,0,0-4.1158-11.09c-3.27-5.0657-8.0823-8.895-12.5715-12.92s-8.866-8.5439-10.7925-14.2572c-1.6917-5.0174-1.471-10.8562-4.7389-15.0223-2.5366-3.234-6.7835-4.7709-10.8922-4.8767-3.0617-.0789-6.2689.5211-9.0941-.6611-5.8445-2.4456-4.974-9.8837.1333-12.5835a11.8071,11.8071,0,0,1,1.6425-.7083,11.503,11.503,0,0,0-3.1983,1.4429c-5.9508,3.88-7.2262,12.4677-2.8488,19.1823L136.7652,160.38a9.2667,9.2667,0,0,0,1.5105,1.7759,75.8972,75.8972,0,0,0,10.2184,2.38,14.8387,14.8387,0,0,0,4.9735-2.0876A14.6752,14.6752,0,0,0,158,157.8164Z" transform="translate(0 -24.5341)"/><path class="cls-7" d="M139.8992,188.9944a5.4331,5.4331,0,0,0,4.0891,1.25,7.6094,7.6094,0,0,0,4.1575-2.3138,97.4025,97.4025,0,0,0,6.4732-10.5653,113.1125,113.1125,0,0,0-9.4088-12.6292c-.4046-.4888-.8222-.9645-1.2464-1.4337a42.7623,42.7623,0,0,1-9.4932,6.972,33.0512,33.0512,0,0,1-5.2346,2.11C132.2139,178.324,137.0642,186.7792,139.8992,188.9944Z" transform="translate(0 -24.5341)"/><path class="cls-8" d="M132.7394,195.7754c4.1118,3.1263,6.8287,2.9754,10.69-1.6753q2.481-2.9881,4.7162-6.1695a7.6094,7.6094,0,0,1-4.1575,2.3138,5.4331,5.4331,0,0,1-4.0891-1.25c-2.835-2.2152-7.6853-10.67-10.6632-16.61a49.3664,49.3664,0,0,1-13.7739,2.1588C120.1639,182.5356,125.3147,190.13,132.7394,195.7754Z" transform="translate(0 -24.5341)"/><path class="cls-7" d="M88.8138,112.7272c.9887.4645,1.9676.9522,2.9409,1.451A4.2857,4.2857,0,0,0,88.8138,112.7272Z" transform="translate(0 -24.5341)"/><path class="cls-9" d="M93.04,116.99c-7.5206,9.0753-10.8347,21.0121-13.1608,32.6339-.6388,3.1917-1.4,6.6946-3.9943,8.6611-2.3389,1.7731-5.5521,1.8006-8.2145,3.036-3.7643,1.7467-6.0833,5.7258-9.7745,7.6222a14.7738,14.7738,0,0,1-3.224,1.1468,9.9826,9.9826,0,0,1,.8538,1.543c.11-.065.2178-.1314.3369-.1873h0C62.9008,168.2516,78.3576,159.8943,80.3,158.02c4.4521-4.2621,6.68-10.8783,8.5228-16.5917,1.0293-3.1913,1.9139-6.4275,2.74-9.6766.8375-3.2937,1.9789-12.0209,1.4793-14.7505Z" transform="translate(0 -24.5341)"/><path class="cls-8" d="M94.3205,115.5131c-.8527-.4477-1.7073-.895-2.5658-1.3349A5.746,5.746,0,0,1,93.04,116.99C93.4549,116.49,93.88,115.9957,94.3205,115.5131Z" transform="translate(0 -24.5341)"/><path class="cls-8" d="M67.6705,161.3213c2.6624-1.2354,5.8756-1.2629,8.2145-3.036,2.5939-1.9665,3.3555-5.4694,3.9943-8.6611,2.3261-11.6218,5.64-23.5586,13.1608-32.6339a5.746,5.746,0,0,0-1.2854-2.8121c-.9733-.4988-1.9522-.9865-2.9409-1.451a5.9526,5.9526,0,0,0-4.5933,1.91c-4.566,4.6259-4.6431,16.01-10.4891,35.54-.8509,2.8428-4.098,4.2128-20.1195,16.2518h0a15.7178,15.7178,0,0,1-1.7723.9206A8.7259,8.7259,0,0,1,54.672,170.09a14.7738,14.7738,0,0,0,3.224-1.1468C61.5872,167.0471,63.9062,163.068,67.6705,161.3213Z" transform="translate(0 -24.5341)"/><path class="cls-10" d="M31.9939,179.2437a1.2892,1.2892,0,0,0,1.355.2357,5.1747,5.1747,0,0,0,1.2179-.852l-2.2227.1863Z" transform="translate(0 -24.5341)"/><path class="cls-1" d="M38.5909,178.29l-1.7317.1452c-.1954.3667-.4126.7739-.6574,1.2327-.2021.3787-.1984.5873.2874.9146,1.1762.7928,1.6151.5422,2.1151.0146,2.8493-3.0067,4.1163-4.6536,6.4479-6.1006-1.6378,1.39-2.823,3.3918-5.5778,7.9863a1.29,1.29,0,0,0,1.3749.04c1.0047-.5291,4.1962-5.059,5.033-5.9315a9.3318,9.3318,0,0,1,2.5534-1.8117.8558.8558,0,0,1,1.244.7688,2.9757,2.9757,0,0,1-.1133.76c-.5762,1.9608-3.01,2.347-3.9354,5.39a1.4235,1.4235,0,0,0-.0641.81.5756.5756,0,0,0,.6116.4347c.5471-.1125,1.8033-2.2346,3.2969-3.412.4635-.3654.976-.67,1.41-1.07,1.984-1.8337,2.2157-5.3908,4.6409-6.8266a9.9826,9.9826,0,0,0-.8538-1.543c-1.8785.4662-3.8318.7367-5.6725,1.3432C45.0259,172.7427,41.7519,175.5492,38.5909,178.29Z" transform="translate(0 -24.5341)"/><path class="cls-8" d="M39.4553,174.1333c-.0923.0652-.1879.1248-.2774.1947-.7163.5591-3.0445,2.9733-4.6111,4.2994l2.2924-.1922a38.7678,38.7678,0,0,1,1.956-3.5482A6.8208,6.8208,0,0,1,39.4553,174.1333Z" transform="translate(0 -24.5341)"/><path class="cls-8" d="M51.84,167.3494c-2.0052.9016-4.2965,1.5739-5.9093,2.1935l.0137-.0267c-7.8819,2.3431-7.5854,1.9128-13.6,9.2975l2.2227-.1863c1.5666-1.3261,3.8948-3.74,4.6111-4.2994.09-.07.1851-.13.2774-.1947a6.8208,6.8208,0,0,0-.64.7537,38.7678,38.7678,0,0,0-1.956,3.5482l1.7317-.1452c3.161-2.7408,6.435-5.5473,10.4086-6.8565,1.8407-.6065,3.794-.877,5.6725-1.3432A8.7259,8.7259,0,0,0,51.84,167.3494Z" transform="translate(0 -24.5341)"/><path class="cls-9" d="M97.75,113.9653c.9683,5.3968-3.6788,10.0707-3.9484,15.4035a9.8852,9.8852,0,0,0,3.5513,8.0145c4.2354,3.4676,11.04,3.1511,14.395,7.4766,3.3751,4.352,1.491,11.3024,5.0644,15.4931,3.0659,3.5955,8.6264,3.4328,13.255,2.4822s9.6364-2.3456,13.8956-.2994c.1763.0847.3461.1765.5144.27a62.9709,62.9709,0,0,0,9.687-12.1441c-.516-.5413-1.0513-1.0641-1.6191-1.5562-2.3548-2.0407-5.1373-3.5193-7.6484-5.3644C134.689,136.24,129.94,123.6152,123,113.0177c-2.4291-3.71-5.3273-7.3468-9.35-9.211a18.267,18.267,0,0,0-10.4429-1.16,14.0862,14.0862,0,0,1-4.88-1.2064,16.114,16.114,0,0,1-6.8187,7.9031c.2487-.0566.4926-.1046.7274-.1361C94.8933,108.8515,97.2766,111.3251,97.75,113.9653Z" transform="translate(0 -24.5341)"/><path class="cls-8" d="M115.0536,120.4471c2.3692,3.638,6.1368,6.7213,6.5812,11.04.5384,5.2315-4.4924,11.3923-6.0255,18.901-.8539,4.1817-.1472,8.4788,2.9892,11.4985.2825.272-.08,1.2281.0364,1.6026a.837.837,0,0,1-.3552,1.0139c-.82.3614-4.8663-1.6507-6.9792-6.4365a26.9638,26.9638,0,0,1-1.8836-8.8062,77.8171,77.8171,0,0,1,1.0767-20.41,17.8665,17.8665,0,0,0,.5113-5.3613" transform="translate(0 -24.5341)"/><path class="cls-8" d="M86.3919,111.5667a15.3355,15.3355,0,0,0-3.7137,13.7592c1.959,9.7169,10.622,16.5387,16.47,23.4509,6.5114,7.6962,11.1407,16.9722,16.3138,25.7661a49.0972,49.0972,0,0,0,8.3382-.8239l.0067.0015a34.5045,34.5045,0,0,0,15.3657-6.3966,50.777,50.777,0,0,0,5.3049-4.5182c-.1683-.0934-.3381-.1852-.5144-.27-4.2592-2.0462-9.267-.6512-13.8956.2994s-10.1891,1.1133-13.255-2.4822c-3.5734-4.1907-1.6893-11.1411-5.0644-15.4931-3.3545-4.3255-10.16-4.009-14.395-7.4766a9.8852,9.8852,0,0,1-3.5513-8.0145c.27-5.3328,4.9167-10.0067,3.9484-15.4035-.4737-2.64-2.857-5.1138-5.5155-4.7577-.2348.0315-.4787.0795-.7274.1361a10.3744,10.3744,0,0,1-4.9808,1.6933A.5605.5605,0,0,1,86.3919,111.5667Z" transform="translate(0 -24.5341)"/><path class="cls-1" d="M79.3428,93.35c2.1772,2.5795,5.338,4.1825,7.5027,6.7726s2.8718,7.0606.1,8.9878c.8063,1.4643,2.8063.633,4.5614.2338a16.114,16.114,0,0,0,6.8187-7.9031c-.2236-.1124-.4431-.2342-.6567-.369-7.3267-4.6234-7.5741-21.64-18.0882-21.4356a17.6254,17.6254,0,0,0-1.7616.1248A12.682,12.682,0,0,0,79.3428,93.35Z" transform="translate(0 -24.5341)"/><path class="cls-8" d="M66.392,90.9889c.0877,4.9051,6.78,18.7249,10.0071,21.2739a4.6108,4.6108,0,0,0,3.8985,1.0222c1.8807-.4854,3.7162-3.0376,5.8125-2.6464a.5272.5272,0,0,1,.4165.3984,10.3744,10.3744,0,0,0,4.9808-1.6933c-1.7551.3992-3.7551,1.2305-4.5614-.2338,2.7713-1.9272,2.0642-6.3978-.1-8.9878S81.52,95.929,79.3428,93.35A12.682,12.682,0,0,1,77.82,79.7608C70.7414,80.61,66.2967,85.661,66.392,90.9889Z" transform="translate(0 -24.5341)"/><path class="cls-4" d="M66.4551,89.74a76.4591,76.4591,0,0,1,10.1243-3.0946l1.3481,2.6257,3.637-.3117,2.3634,3.8182,2.157-.9718s3.9346,2.6593,6.7734,3.2317L87.42,82.4124c-2.1667-4.78-7.5018-4.5725-14.6544-1.9226S66.029,89.011,66.029,89.011Z" transform="translate(0 -24.5341)"/><path class="cls-4" d="M87.7434,135.9305a66.151,66.151,0,0,0,4.3887,5.2214l16.7512-4.482-4.5542-5.4251Z" transform="translate(0 -24.5341)"/><path class="cls-8" d="M143.9632,162.5358c.1763.0847.3461.1765.5144.27a62.9709,62.9709,0,0,0,9.687-12.1441c-.516-.5413-1.0513-1.0641-1.6191-1.5562a30.7718,30.7718,0,0,0-3.01-2.2526,60.4285,60.4285,0,0,1-13.1567,14.7928A13.4525,13.4525,0,0,1,143.9632,162.5358Z" transform="translate(0 -24.5341)"/><path class="cls-4" d="M119.7453,169.0113l-.0067-.0016a50.4071,50.4071,0,0,1-7.008.79c.9024,1.5885,1.8082,3.1737,2.7315,4.7432a49.0972,49.0972,0,0,0,8.3382-.8239l.0067.0015a34.5045,34.5045,0,0,0,15.3657-6.3966,50.777,50.777,0,0,0,5.3049-4.5182c-.1683-.0934-.3381-.1852-.5144-.27a13.4525,13.4525,0,0,0-7.5848-.89c-.4235.3341-.8463.66-1.2674.9691A34.504,34.504,0,0,1,119.7453,169.0113Z" transform="translate(0 -24.5341)"/><path class="cls-8" d="M190.1635,188.8731c-2.9661-1.141-5.5486-3.138-8.5322-4.2325-7.7657-2.8487-17.4795.6185-24.0834-4.3624-5.8813-4.4358-6.7279-13.9519-13.0667-17.4706a43.4642,43.4642,0,0,1-10.0106,7.4668,39.1367,39.1367,0,0,1-10.6636,3.4461c3.3834.7465,5.8306.03,11.795,4.1449a37.3217,37.3217,0,0,0,6.9416,3.3582,172.6768,172.6768,0,0,0,49.3038,12.4683c3.2838.3278,7.1816.3032,9.1443-2.35a9.75,9.75,0,0,0,1.4172-5.0429q.6-6.7977.8353-13.6218c-2.6668,12.89-2.794,13.5293-4.1876,15.053C196.9117,190.0756,193.13,190.0141,190.1635,188.8731Z" transform="translate(0 -24.5341)"/><path class="cls-8" d="M220.8971,141.6572c7.262-.9628,12.6247-7.0571,19.1351-10.4153a38.9949,38.9949,0,0,1,9.4092-3.2083l-.8739-13.236a1.3034,1.3034,0,0,1-.3737.4287c-5.1577,3.8741-11.8284,4.9616-17.7457,7.53-5.6623,2.4577-10.5949,6.2343-15.8549,9.4044-5.5287,3.3321-11.2835,5.0981-17.493,6.6755-1.3883.3526-2.8936.7825-3.7239,1.95-1.5564,2.1878.1027,5.2224.6571,7.0836.1247.4188.22.8362.302,1.2529,2.8369-.403,3.9264-4.9611,6.88-5.7369a15.71,15.71,0,0,1,2.475-.4227,13.0624,13.0624,0,0,1,6.7971-1.6506C213.9653,141.3292,217.45,142.1143,220.8971,141.6572Z" transform="translate(0 -24.5341)"/><path class="cls-4" d="M213.2205,143.8936c1.4317.5839,3.0828,1.975,2.9176,3.5026a2.2275,2.2275,0,0,1-.37.9568c.492-.0385,1.0019-.0748,1.5325-.1087q3.28-.2091,6.5471-.5769c9.7137-1.0934,18.2076-3.5609,26.1521-11.1726l-.5586-8.4612a38.9949,38.9949,0,0,0-9.4092,3.2083c-6.51,3.3582-11.8731,9.4525-19.1351,10.4153-3.4475.4571-6.9318-.328-10.4094-.3449a13.0624,13.0624,0,0,0-6.7971,1.6506A25.1075,25.1075,0,0,1,213.2205,143.8936Z" transform="translate(0 -24.5341)"/><path class="cls-11" d="M248.5372,114.3388l.03.4588A.3812.3812,0,0,0,248.5372,114.3388Z" transform="translate(0 -24.5341)"/><path class="cls-4" d="M137.6633,146.6679a30.25,30.25,0,0,0,6.7005-3.2427l.0076-.0852q-1.0969-.8406-2.1144-1.7559c-4.3971,2.2183-11.5385,4.4721-16.8844,3.7716-13.5875-1.7805-25.0553-21.6992-26.2936-30.3381-.8451-5.8956,1.3566-8.9273,5.3236-12.525-.7932.0817-1.582.2018-2.3593.3583-.3712.0748-.7419.1558-1.112.24a18.4454,18.4454,0,0,0-4.5042,5.4372,13.6047,13.6047,0,0,0-1.0156,7.8443c1.2571,8.77,13.2486,30.6242,28.2446,32.5893C128.3944,149.5825,133.179,148.32,137.6633,146.6679Z" transform="translate(0 -24.5341)"/><polygon class="cls-4" points="63.269 72.756 67.917 69.947 71.578 78.897 70.325 80.563 66.707 79.761 63.269 72.756"/><g class="cls-12"><path class="cls-8" d="M72.0135,107.6705l3.0951-2.48a2.192,2.192,0,0,1,1.2027-.4582l-3.0951,2.48A2.1935,2.1935,0,0,0,72.0135,107.6705Z" transform="translate(0 -24.5341)"/><path class="cls-8" d="M76.3113,104.7328l-3.095,2.48a4.3854,4.3854,0,0,1,2.569.7279l3.01-2.5308A4.3221,4.3221,0,0,0,76.3113,104.7328Z" transform="translate(0 -24.5341)"/><path class="cls-8" d="M78.6308,115.936l3.0951-2.48a3.0381,3.0381,0,0,0,.7382-3.1221l-3.0726,2.5833A2.99,2.99,0,0,1,78.6308,115.936Z" transform="translate(0 -24.5341)"/><path class="cls-6" d="M78.7953,105.4094l-3.01,2.5308a8.2726,8.2726,0,0,1,3.1325,3.5472,6.5183,6.5183,0,0,1,.4737,1.43l3.0726-2.5833a6.6025,6.6025,0,0,0-.4512-1.3265A8.2512,8.2512,0,0,0,78.7953,105.4094Z" transform="translate(0 -24.5341)"/><path class="cls-4" d="M73.2162,107.2123c1.9866-.1738,4.54,1.7416,5.7016,4.2752,1.1629,2.5363.4952,4.7335-1.4914,4.9073-1.9844.1736-4.5377-1.7418-5.7006-4.2781C70.5641,109.5831,71.2319,107.3859,73.2162,107.2123Z" transform="translate(0 -24.5341)"/></g><g class="cls-12"><path class="cls-4" d="M65.3275,104.2955l2.4544-2.0031a3.3351,3.3351,0,0,0,.4463.6344,3.2215,3.2215,0,0,0,.5558.4952,2.5329,2.5329,0,0,0,.61.3175,1.6754,1.6754,0,0,0,.6089.1l-2.4448,2.0175a1.68,1.68,0,0,1-.61-.1032,2.5621,2.5621,0,0,1-.6121-.321,3.2677,3.2677,0,0,1-.5586-.4992A3.3823,3.3823,0,0,1,65.3275,104.2955Z" transform="translate(0 -24.5341)"/><polygon class="cls-4" points="62.597 74.722 65.076 72.746 67.782 77.758 65.328 79.761 62.597 74.722"/><path class="cls-4" d="M62.6441,97.7858l.25-.1983.1249-.0991.25-.198.2493-.1976.1245-.0988.2488-.1973,1.239-.9825a.6843.6843,0,0,0-.2.262.9555.9555,0,0,0-.0772.3522,1.4368,1.4368,0,0,0,.0478.4117,1.9571,1.9571,0,0,0,.1754.44l-2.48,1.976a1.9886,1.9886,0,0,1-.1775-.4426,1.4417,1.4417,0,0,1-.05-.4132.9589.9589,0,0,1,.0757-.353A.6786.6786,0,0,1,62.6441,97.7858Z" transform="translate(0 -24.5341)"/><path class="cls-4" d="M61.6749,96.5543l2.4928-1.9636.042-.0318.0436-.03.045-.0287.0465-.0273-2.493,1.964-.0465.0271-.045.0287-.0434.03Z" transform="translate(0 -24.5341)"/><polygon class="cls-4" points="67.558 81.323 70.003 79.306 72.766 79.213 70.325 81.243 67.558 81.323"/><path class="cls-4" d="M73.27,103.5659l-2.4414,2.0309a.742.742,0,0,1-.1412.0923.7788.7788,0,0,1-.0792.0344.8155.8155,0,0,1-.0846.0261c-.0156.004-.0315.0075-.0476.0106s-.0325.0058-.0491.008-.0334.0041-.05.0055-.0343.0024-.0518.0029l2.4413-2.0293c.0175-.0006.0347-.0016.0518-.0031s.0338-.0034.05-.0057.0329-.0051.049-.0082.032-.0068.0476-.0108a.8164.8164,0,0,0,.0846-.0264.78.78,0,0,0,.0792-.0346.7411.7411,0,0,0,.0736-.0425A.76.76,0,0,0,73.27,103.5659Z" transform="translate(0 -24.5341)"/><path class="cls-4" d="M74.2761,104.7578l-2.4349,2.0391a1.433,1.433,0,0,0,.238-.2553,1.5715,1.5715,0,0,0,.1773-.3159,1.8537,1.8537,0,0,0,.1114-.3709,2.2848,2.2848,0,0,0,.04-.42l2.44-2.0373a2.2812,2.2812,0,0,1-.0419.4193,1.859,1.859,0,0,1-.1128.37,1.5863,1.5863,0,0,1-.1784.3157A1.4452,1.4452,0,0,1,74.2761,104.7578Z" transform="translate(0 -24.5341)"/><polygon class="cls-4" points="72.433 76.729 74.891 74.705 74.848 78.863 72.408 80.9 72.433 76.729"/><polygon class="cls-4" points="61.852 71.902 64.345 69.939 69.128 67.271 66.629 69.247 61.852 71.902"/><path class="cls-4" d="M66.6294,93.781l2.4982-1.9755.0186-.0095.0191-.0085.02-.0074.02-.0064L66.707,93.7493l-.02.0064-.02.0074-.0191.0084Z" transform="translate(0 -24.5341)"/><polygon class="cls-4" points="73.728 75.087 76.19 73.063 76.267 73.114 73.805 75.139 73.728 75.087"/><polygon class="cls-4" points="71.989 71.839 74.468 69.832 76.19 73.063 73.728 75.087 71.989 71.839"/><path class="cls-4" d="M71.7959,95.3959,74.28,93.3934a1.0763,1.0763,0,0,0-.02.2268,1.3556,1.3556,0,0,0,.0255.2421,1.6688,1.6688,0,0,0,.07.251,1.96,1.96,0,0,0,.1131.253l-2.4791,2.0065a1.9846,1.9846,0,0,1-.1144-.2543,1.68,1.68,0,0,1-.0711-.2521,1.3732,1.3732,0,0,1-.0266-.2432A1.0878,1.0878,0,0,1,71.7959,95.3959Z" transform="translate(0 -24.5341)"/><polygon class="cls-4" points="73.805 75.139 76.267 73.114 80.578 76.513 78.137 78.568 73.805 75.139"/><polygon class="cls-4" points="71.976 69.947 74.463 67.947 74.279 68.859 71.796 70.862 71.976 69.947"/><path class="cls-4" d="M78.1369,103.1017l2.4408-2.0547a2.2642,2.2642,0,0,0,.3384.222,1.8549,1.8549,0,0,0,.3437.1423,1.4148,1.4148,0,0,0,.3338.0587,1.0429,1.0429,0,0,0,.3083-.0289c.0166-.0043.033-.0089.0492-.0141s.0322-.0107.048-.0168.0313-.0126.0466-.02.03-.0144.0451-.0223l-2.4369,2.0623q-.0222.0117-.0451.0222c-.0153.0069-.0308.0133-.0466.0194s-.0318.0115-.048.0166-.0326.01-.0492.0139a1.04,1.04,0,0,1-.3088.0277,1.4271,1.4271,0,0,1-.3345-.06,1.8727,1.8727,0,0,1-.3449-.1443A2.2916,2.2916,0,0,1,78.1369,103.1017Z" transform="translate(0 -24.5341)"/><polygon class="cls-4" points="66.707 69.215 69.205 67.24 73.386 66.032 70.889 68.021 66.707 69.215"/><path class="cls-4" d="M70.8892,92.5556l2.4971-1.9891.0212-.0055.0218-.0045.0223-.0035.0229-.0024L70.9775,92.54l-.0229.0023-.0224.0034L70.91,92.55Z" transform="translate(0 -24.5341)"/><path class="cls-4" d="M72.2284,94.0382l2.4886-2a.6678.6678,0,0,0-.0886.0862.6878.6878,0,0,0-.0726.1031.76.76,0,0,0-.0555.1191.88.88,0,0,0-.0372.1342l-2.4871,2a.88.88,0,0,1,.0366-.1345.7608.7608,0,0,1,.0551-.1193.6862.6862,0,0,1,.0723-.1031A.6535.6535,0,0,1,72.2284,94.0382Z" transform="translate(0 -24.5341)"/><polygon class="cls-4" points="79.654 78.897 82.091 76.834 84.421 75.607 81.983 77.676 79.654 78.897"/><path class="cls-4" d="M84.6133,100.012l-2.4382,2.0688c-.0145.0122-.0293.0242-.0446.0357s-.0308.0227-.0468.0335-.0323.0211-.049.0311-.0338.0195-.0513.0287l2.4379-2.0683q.0263-.0138.0514-.0289t.0491-.0312c.0159-.0108.0316-.022.0468-.0335S84.5988,100.0244,84.6133,100.012Z" transform="translate(0 -24.5341)"/><path class="cls-4" d="M85.67,101.2281l-2.4312,2.0774a1.8483,1.8483,0,0,0,.4912-.6712,2.4714,2.4714,0,0,0,.1951-.8826,3.5848,3.5848,0,0,0-.1117-1.0262,4.9034,4.9034,0,0,0-.4287-1.1008l2.4461-2.0656a4.8321,4.8321,0,0,1,.4234,1.0952,3.557,3.557,0,0,1,.1073,1.0223,2.4774,2.4774,0,0,1-.1984.8805A1.8641,1.8641,0,0,1,85.67,101.2281Z" transform="translate(0 -24.5341)"/><polygon class="cls-4" points="70.977 68.006 73.475 66.017 79.755 65.542 77.266 67.556 70.977 68.006"/><polygon class="cls-4" points="80.581 69.796 83.054 67.761 85.831 73.025 83.384 75.091 80.581 69.796"/><path class="cls-4" d="M77.2661,92.09l2.4885-2.014a2.4546,2.4546,0,0,1,.9119.1157,3.5384,3.5384,0,0,1,.9089.4444,4.4407,4.4407,0,0,1,.8233.7192,4.6732,4.6732,0,0,1,.6551.9391L80.5806,94.33a4.745,4.745,0,0,0-.66-.9451,4.51,4.51,0,0,0-.8279-.7253,3.5725,3.5725,0,0,0-.9123-.45A2.4607,2.4607,0,0,0,77.2661,92.09Z" transform="translate(0 -24.5341)"/><polygon class="cls-3" points="61.613 73.432 67.048 69.939 72.408 68.726 78.949 68.535 83.613 76.906 79.654 79.761 73.918 75.841 71.776 76.513 71.578 81.797 66.39 81.797 61.613 73.432"/><path class="cls-6" d="M78.949,93.0691l-1.6717.0487a21.6608,21.6608,0,0,0-2.1639,5.5656c-.1637.7431-.2749,1.4957-.3784,2.25l3.3388,2.2822c.0269-.209.0528-.418.0761-.6265a30.8356,30.8356,0,0,1,.9411-5.9518,14.2457,14.2457,0,0,1,.7772-1.9181Z" transform="translate(0 -24.5341)"/><path class="cls-6" d="M69.1309,94.0013a41.3406,41.3406,0,0,1-.8032,4.1783,23.5363,23.5363,0,0,1-3.2692,5.8191l.9453,1.6552a15.1324,15.1324,0,0,1,1.5634-2.74c1.2386-1.7875,2.6527-3.5836,2.9792-5.7336.1761-1.16.02-2.357.0994-3.5215Z" transform="translate(0 -24.5341)"/><path class="cls-8" d="M77.2661,92.09a2.4607,2.4607,0,0,1,.9141.12,3.5725,3.5725,0,0,1,.9123.45,4.51,4.51,0,0,1,.8279.7253,4.745,4.745,0,0,1,.66.9451l2.8038,5.2944a4.8173,4.8173,0,0,1,.4588,1.23,3.3578,3.3578,0,0,1,.0622,1.1258,2.2247,2.2247,0,0,1-.32.9247,1.7813,1.7813,0,0,1-.6868.6288l-2.3372,1.2118q-.0421.0217-.0856.041t-.0882.0359q-.0448.0168-.0908.0309c-.0307.01-.0617.0181-.0932.0259a2.0209,2.0209,0,0,1-.5915.052,2.74,2.74,0,0,1-.64-.1148,3.574,3.574,0,0,1-.6583-.2746,4.3312,4.3312,0,0,1-.6472-.4275l-4.004-3.1728-1.23.3219-.0254,4.1708a2.1747,2.1747,0,0,1-.084.6015,1.6464,1.6464,0,0,1-.2327.4888,1.42,1.42,0,0,1-.3646.3585,1.4881,1.4881,0,0,1-.48.2111q-.0448.0111-.0914.02t-.0945.0151c-.032.0043-.0645.0078-.0973.0107s-.0662.005-.1.0064l-2.7629.0743a2.9044,2.9044,0,0,1-1.041-.1793,4.3654,4.3654,0,0,1-1.04-.5464,5.5427,5.5427,0,0,1-.9477-.8485,5.793,5.793,0,0,1-.7651-1.087l-2.7266-5.0247a4.0389,4.0389,0,0,1-.38-.9683,2.78,2.78,0,0,1-.0778-.8892,1.7685,1.7685,0,0,1,.2187-.7353,1.334,1.334,0,0,1,.51-.5053l4.7776-2.6556.0186-.01.0191-.0084.02-.0074.02-.0064,4.1822-1.1937L70.91,92.55l.0218-.0044.0224-.0034.0229-.0023Zm4.999,7.824-2.8-5.2786a2.3145,2.3145,0,0,0-.3246-.4628,2.2552,2.2552,0,0,0-.4088-.3573,1.7944,1.7944,0,0,0-.4505-.2235,1.2139,1.2139,0,0,0-.4494-.0616l-5.1949.3557-.0429.004-.0419.0061-.0408.008-.04.01a.6963.6963,0,0,0-.1793.0782.65.65,0,0,0-.1453.1229.7.7,0,0,0-.1071.1641.8418.8418,0,0,0-.0645.2017l-.18.9147a1.0878,1.0878,0,0,0-.0193.2273,1.3732,1.3732,0,0,0,.0266.2432,1.68,1.68,0,0,0,.0711.2521,1.9846,1.9846,0,0,0,.1144.2543l1.7392,3.2484.0769.052,4.3321,3.4285a2.2916,2.2916,0,0,0,.34.2242,1.8727,1.8727,0,0,0,.3449.1443,1.4271,1.4271,0,0,0,.3345.06,1.04,1.04,0,0,0,.3088-.0277q.0249-.0063.0492-.0139t.048-.0166c.0158-.0061.0313-.0125.0466-.0194s.03-.0144.0451-.0222l2.33-1.2209a1.0427,1.0427,0,0,0,.4013-.3714,1.3192,1.3192,0,0,0,.1859-.5448,1.9855,1.9855,0,0,0-.0373-.6608,2.8176,2.8176,0,0,0-.2682-.7185m-11.11.3889-1.7326-3.2255a2.1708,2.1708,0,0,0-.1516-.2422,2.2143,2.2143,0,0,0-.181-.22,2.1414,2.1414,0,0,0-.2052-.1919,1.9177,1.9177,0,0,0-.2239-.1582l-.9718-.5856a1.584,1.584,0,0,0-.2314-.1167,1.28,1.28,0,0,0-.2271-.0688,1.001,1.001,0,0,0-.2166-.02.7925.7925,0,0,0-.2.0285l-.0374.0117-.0365.0136-.0354.0156-.0343.0175-3.9372,2.1651a.6532.6532,0,0,0-.2517.249.8776.8776,0,0,0-.1087.3641,1.3771,1.3771,0,0,0,.0372.44,1.9643,1.9643,0,0,0,.1862.4773l2.7308,5.039a3.3823,3.3823,0,0,0,.45.6383,3.2677,3.2677,0,0,0,.5586.4992,2.5621,2.5621,0,0,0,.6121.321,1.68,1.68,0,0,0,.61.1032l2.7666-.0806c.0175-.0005.0347-.0015.0518-.0029s.0338-.0032.05-.0055.033-.0049.0491-.008.032-.0066.0476-.0106a.7737.7737,0,0,0,.25-.1114.7452.7452,0,0,0,.19-.1888.87.87,0,0,0,.1208-.2568,1.1513,1.1513,0,0,0,.0432-.3156l.0192-4.5.0086-.0742" transform="translate(0 -24.5341)"/></g><path class="cls-4" d="M86.1628,100.5571l1.6615-4.09a2.3768,2.3768,0,0,0-.0431-1.8894l-1.6935-3.6775a2.3776,2.3776,0,0,0-2.4547-1.3647L78.64,90.16Z" transform="translate(0 -24.5341)"/><polygon class="cls-1" points="91.961 67.508 85.613 70.979 83.613 67.515 89.961 64.044 91.961 67.508"/><polygon class="cls-8" points="20.123 167.221 0 134.194 38.186 143.905 58.308 176.932 20.123 167.221"/><polygon class="cls-13" points="38.186 143.905 39.474 142.686 58.609 174.56 78.276 156.994 78.276 158.897 58.308 176.932 38.186 143.905"/><polygon class="cls-11" points="39.495 142.7 1.31 132.989 0 134.194 38.186 143.905 39.495 142.7"/><path class="cls-9" d="M115.83,115.1686a8.5809,8.5809,0,0,0-6.7033-8.1452,12.96,12.96,0,0,0-3.8447,11.4032c.5519,3.161,2.2723,5.9715,3.5869,8.8986,5.0995,11.3541-3.2993,12.653-4.9237,18.6232-.8556,3.1446.5487,6.9354-1.4474,9.5115-1.8256,2.3561-5.3287,2.2191-8.2168,2.956-5.1028,1.3018-8.7222,5.6734-12.206,9.6226a42.6036,42.6036,0,0,1-3.6023,3.6587l.1583-.7583-3.5656,1.8219a6.2539,6.2539,0,0,1,2.35,2.2188,7.42,7.42,0,0,1,.6143,1.245c.3584-.2114.7094-.436,1.0514-.66,32.3817-21.2032,34.386-20.9115,35.7725-34.9C116.1249,127.8406,116.5146,120.7,115.83,115.1686Z" transform="translate(0 -24.5341)"/><path class="cls-1" d="M75.0652,172.7608l-3.4877,1.7821-10.9115-.41L57.94,176.1962c-4.3342,6.9428-5.058,7.99-5.0672,8.3839-.0129.5467.5615.9343,1.1019,1.0177,1.3963.2154,2.6434-.8206,3.6757-1.7853,1.8682-1.7458,2.9924-2.9458,3.8212-3.6935l-3.0709,6.0063c-.1681.3289-.1187.5437.2438.5728,1.8532.1491,2.6414-2.0348,4.6393-5.7823a1.9383,1.9383,0,0,1,1.7412-1.2563,5.5671,5.5671,0,0,0,1.693.38c.0507.0184.1.0358.1521.0551l-.1037-.0508a18.5746,18.5746,0,0,0,3.7517-.0655c2.3976-.3511,5.6254-1.3961,6.94-3.4317l.0019-.0026c.1923-.1.3816-.2087.5694-.3195a7.42,7.42,0,0,0-.6143-1.245A6.2539,6.2539,0,0,0,75.0652,172.7608Z" transform="translate(0 -24.5341)"/><path class="cls-1" d="M58.9491,179.4476a59.7677,59.7677,0,0,0-4.1167,6.13,6.2217,6.2217,0,0,0,2.8182-1.7654c1.8682-1.7458,2.9924-2.9458,3.8212-3.6935l-3.0708,6.0063c-.1682.3289-.1188.5437.2437.5729,1.8531.1491,2.6414-2.0349,4.6393-5.7824a1.9381,1.9381,0,0,1,1.7412-1.2563,5.5713,5.5713,0,0,0,1.693.38c.0507.0183.1.0357.1521.055l-.1036-.0508a18.5748,18.5748,0,0,0,3.7517-.0655c2.3975-.3511,5.6254-1.3961,6.94-3.4317a9.4317,9.4317,0,0,0-1.79-2.6682C67.5151,179.2551,64.3283,172.5006,58.9491,179.4476Z" transform="translate(0 -24.5341)"/><path class="cls-8" d="M73.3645,172.352a4.5115,4.5115,0,0,1-3.2247.2094c-9.3881-2.0416-7.8491-2.2725-11.9328.951-2.358,1.8612-1.9975,1.5859-7.4444,8.8035-.4141.5488.5537.7288,1.92-.2427,1.3354-.9494,2.6555-2.7324,4.0469-3.9406-3.2615,5.21-3.8483,6.0939-3.8566,6.4475-.0129.5467.5615.9343,1.1019,1.0177a2.5207,2.5207,0,0,0,.8575-.02,59.7677,59.7677,0,0,1,4.1167-6.13c5.3792-6.947,8.566-.1925,16.72-5.5691A6.1954,6.1954,0,0,0,73.3645,172.352Z" transform="translate(0 -24.5341)"/><path class="cls-5" d="M73.8955,171.9845a4.0708,4.0708,0,0,1-3.7557.5769c-9.3881-2.0416-7.8491-2.2725-11.9328.951-2.358,1.8612-1.9975,1.5858-7.4444,8.8035-.4141.5488.5537.7288,1.92-.2426,2.0538-1.46,4.07-4.9017,6.3682-5.1716a5.6241,5.6241,0,0,1,2.1216.37,19.6259,19.6259,0,0,0,8.6007-.0026,9.0678,9.0678,0,0,0,5.2668-2.2718" transform="translate(0 -24.5341)"/><path class="cls-8" d="M108.8687,127.3252c-1.3146-2.9271-3.035-5.7376-3.5869-8.8986a12.96,12.96,0,0,1,3.8447-11.4032,7.2931,7.2931,0,0,0-1.73-.1088c-4.3826.2507-7.7124,4.3526-7.4373,9.1618,1.6316,27.1362,1.7031,26.3711,1.3974,27.4543a6.425,6.425,0,0,1-1.16,2.0428c-8.4079,11.19-21.4758,21.8448-26.3,26.4111v0a3.0946,3.0946,0,0,1-.3366.2473,5.5153,5.5153,0,0,1,2.62,1.2976,34.7194,34.7194,0,0,0,5.8957-5.4908c3.4838-3.9492,7.1032-8.3208,12.206-9.6226,2.8881-.7369,6.3912-.6,8.2168-2.956,1.9961-2.5761.5918-6.3669,1.4474-9.5115C105.5694,139.9782,113.9682,138.6793,108.8687,127.3252Z" transform="translate(0 -24.5341)"/><path class="cls-8" d="M73.3645,172.352a6.1954,6.1954,0,0,1,2.3044,1.5265c.1677-.1106.3382-.2282.51-.3492a5.5153,5.5153,0,0,0-2.62-1.2976C73.4945,172.2735,73.43,172.3156,73.3645,172.352Z" transform="translate(0 -24.5341)"/><path class="cls-11" d="M201.3305,145.27a7.1073,7.1073,0,0,1,2.36-2.3067,15.71,15.71,0,0,0-2.475.4227c-2.9538.7758-4.0433,5.3339-6.88,5.7369,1.6806,8.56-5.3057,16.72-5.47,25.3278l-.1219-.1571c-9.6538-3.0778-19.7606-6.4354-26.6515-13.8642-2.8516-3.0743-5.0478-6.7467-7.9276-9.7674a63.0219,63.0219,0,0,1-9.6834,12.146c6.3388,3.5187,7.1854,13.0348,13.0667,17.4706,6.6039,4.9809,16.3177,1.5137,24.0834,4.3624,2.9836,1.0945,5.5661,3.0915,8.5322,4.2325s6.7482,1.2025,8.8931-1.1426a5.223,5.223,0,0,0,.9115-1.2709C205.4786,172.1162,196.8388,152.5381,201.3305,145.27Z" transform="translate(0 -24.5341)"/><path class="cls-8" d="M203.3474,158.4809c-.1193-5.817-2.0991-8.9917,12.4209-10.1279a2.2275,2.2275,0,0,0,.37-.9568c.1652-1.5276-1.4859-2.9187-2.9176-3.5026a25.1075,25.1075,0,0,0-9.53-.9307,7.1073,7.1073,0,0,0-2.36,2.3067c-4.4917,7.2685,4.1481,26.8466-1.3624,41.19.7275-1.4531,1.3158-4.3068,3.2761-13.7821Q203.4912,165.5823,203.3474,158.4809Z" transform="translate(0 -24.5341)"/><path class="cls-5" d="M56.8392,90.4032a2.396,2.396,0,0,1-2.1614,2.2615A1.915,1.915,0,0,1,52.5887,91.37a2.4545,2.4545,0,0,1,2.1148-3.0476,1.9446,1.9446,0,0,1,2.0805,1.4585A1.8206,1.8206,0,0,1,56.8392,90.4032Z" transform="translate(0 -24.5341)"/><path class="cls-5" d="M58.778,97.8133a1.4331,1.4331,0,0,1-1.2729,1.5409,1.2343,1.2343,0,0,1-1.3492-.8944,1.5423,1.5423,0,0,1,1.327-1.8889,1.247,1.247,0,0,1,1.2759,1.1251C58.7665,97.7351,58.7729,97.7743,58.778,97.8133Z" transform="translate(0 -24.5341)"/><path class="cls-5" d="M51.624,98.6242a2.38,2.38,0,0,1-1.8746,2.4625,2.5968,2.5968,0,0,1-.7631-5.1372,2.2679,2.2679,0,0,1,2.498,1.6518A3.7748,3.7748,0,0,1,51.624,98.6242Z" transform="translate(0 -24.5341)"/><path class="cls-5" d="M64.4872,109.6822a2.1986,2.1986,0,0,1-1.8951,2.64,1.7834,1.7834,0,0,1-1.8832-1.4755,2.2264,2.2264,0,0,1,2.1888-2.5048,1.4443,1.4443,0,0,1,1.4971.993A2.4817,2.4817,0,0,1,64.4872,109.6822Z" transform="translate(0 -24.5341)"/><path class="cls-5" d="M61.5937,89.1974a1.0789,1.0789,0,0,1-.93,1.2952.8751.8751,0,0,1-.9241-.7239,1.0925,1.0925,0,0,1,1.074-1.2291.7088.7088,0,0,1,.7346.4873A1.22,1.22,0,0,1,61.5937,89.1974Z" transform="translate(0 -24.5341)"/><path class="cls-6" d="M67.3272,76.3359A1.9761,1.9761,0,0,1,65.66,77.7425,1.6778,1.6778,0,0,1,63.639,76.65,2.1261,2.1261,0,0,1,65.74,74.1744a1.5789,1.5789,0,0,1,1.6086,1.1892A1.87,1.87,0,0,1,67.3272,76.3359Z" transform="translate(0 -24.5341)"/><path class="cls-6" d="M61.2991,67.6556A1.9759,1.9759,0,0,1,59.4677,66.47a1.6777,1.6777,0,0,1,.4562-2.2512,2.1262,2.1262,0,0,1,2.9806,1.2888,1.579,1.579,0,0,1-.6688,1.8853A1.87,1.87,0,0,1,61.2991,67.6556Z" transform="translate(0 -24.5341)"/><path class="cls-6" d="M123.2116,39.7149a1.6525,1.6525,0,0,1-1.3946,1.1762,1.403,1.403,0,0,1-1.69-.9135,1.7781,1.7781,0,0,1,1.7574-2.07,1.3206,1.3206,0,0,1,1.3453.9945A1.5641,1.5641,0,0,1,123.2116,39.7149Z" transform="translate(0 -24.5341)"/><path class="cls-6" d="M84.9449,45.0594A1.4331,1.4331,0,0,1,83.672,46.6a1.2345,1.2345,0,0,1-1.3492-.8945,1.5423,1.5423,0,0,1,1.327-1.8889,1.2471,1.2471,0,0,1,1.2759,1.1252Q84.9373,45.0007,84.9449,45.0594Z" transform="translate(0 -24.5341)"/><path class="cls-5" d="M59.6463,77.883a2.8254,2.8254,0,0,1-2.4729,2.6,2.32,2.32,0,0,1-2.419-1.7023,2.6887,2.6887,0,0,1,2.5254-3.293,2.1259,2.1259,0,0,1,2.2711,1.5151A2.4488,2.4488,0,0,1,59.6463,77.883Z" transform="translate(0 -24.5341)"/><path class="cls-6" d="M113.8479,31.6086c-.3588,2.1637-2.5955,3.6707-4.66,3.8853-1.9787.2056-3.8253-.7344-4.2429-2.2444-.6425-2.3235,1.7559-4.59,4.8059-4.8766,1.635-.1535,3.495.3923,3.99,1.9888A2.7077,2.7077,0,0,1,113.8479,31.6086Z" transform="translate(0 -24.5341)"/><path class="cls-6" d="M136.3511,28.343a4.4816,4.4816,0,0,1-3.9225,4.1235,3.6794,3.6794,0,0,1-3.8371-2.7,4.2648,4.2648,0,0,1,4.0057-5.2235A3.3723,3.3723,0,0,1,136.2,26.9462,3.8882,3.8882,0,0,1,136.3511,28.343Z" transform="translate(0 -24.5341)"/><path class="cls-6" d="M51.5588,36.0989C50.5353,38.4481,47.1329,39.68,44.2853,39.5c-2.73-.1728-4.9956-1.6012-5.1854-3.3767-.2921-2.732,3.518-4.7813,7.7179-4.4807,2.2514.1611,4.6335,1.151,4.9062,3.039A2.5806,2.5806,0,0,1,51.5588,36.0989Z" transform="translate(0 -24.5341)"/><path class="cls-6" d="M91.95,55.5418a2.2152,2.2152,0,0,1-1.753,1.5379,2.04,2.04,0,0,1-2.3312-1.4845,2.2993,2.2993,0,0,1,1.9079-2.7089,2.0813,2.0813,0,0,1,2.2479,1.6514A1.8665,1.8665,0,0,1,91.95,55.5418Z" transform="translate(0 -24.5341)"/><path class="cls-6" d="M104.2939,42.9553a3.1941,3.1941,0,0,1-2.5276,2.2174,2.9408,2.9408,0,0,1-3.3614-2.14,3.3155,3.3155,0,0,1,2.751-3.9061,3.0012,3.0012,0,0,1,3.2413,2.3812A2.6932,2.6932,0,0,1,104.2939,42.9553Z" transform="translate(0 -24.5341)"/><path class="cls-6" d="M81.2459,62.9177a3.6924,3.6924,0,0,1-3.1627,2.4366c-1.81.2987-3.4461-.3894-3.7428-1.7665-.3314-1.5315,1.2562-2.9669,3.198-3.2912,1.9541-.3264,3.463.64,3.727,1.6549A2.0609,2.0609,0,0,1,81.2459,62.9177Z" transform="translate(0 -24.5341)"/><path class="cls-6" d="M77.2387,45.51a3.7509,3.7509,0,0,1-.4438,4.533,3.513,3.513,0,0,1-4.9333.4348,3.7782,3.7782,0,0,1-.3355-5.4606,3.666,3.666,0,0,1,4.8138-.5434A3.89,3.89,0,0,1,77.2387,45.51Z" transform="translate(0 -24.5341)"/><path class="cls-6" d="M64.1964,70.5988a1.0788,1.0788,0,0,1-.93,1.2952.8751.8751,0,0,1-.9241-.724,1.0925,1.0925,0,0,1,1.074-1.229.7085.7085,0,0,1,.7346.4872A1.2177,1.2177,0,0,1,64.1964,70.5988Z" transform="translate(0 -24.5341)"/><path class="cls-6" d="M70.6038,68.044A1.7125,1.7125,0,0,1,69.1277,70.1a1.3892,1.3892,0,0,1-1.4668-1.1493A1.7342,1.7342,0,0,1,69.3657,67a1.1249,1.1249,0,0,1,1.1661.7735A1.9227,1.9227,0,0,1,70.6038,68.044Z" transform="translate(0 -24.5341)"/><ellipse class="cls-11" cx="25.0706" cy="179.5696" rx="1.9619" ry="3.8904" transform="translate(-107.111 30.9315) rotate(-38.8573)"/><path class="cls-4" d="M91.2458,139.2352c-5.2121-7.3881-9.6-19.1285-5.37-26.9418a11.3641,11.3641,0,0,0-3.8966,8.9629c.0409,5.7157,5.0064,13.1908,8.3054,17.8253Z" transform="translate(0 -24.5341)"/></svg>