<svg id="Layer_1" data-name="Layer 1" xmlns="http://www.w3.org/2000/svg" xmlns:xlink="http://www.w3.org/1999/xlink" viewBox="0 0 250 234.8312"><defs><style>.cls-1{fill:none;}.cls-2{fill:#255068;}.cls-3{fill:#1d768a;}.cls-4{fill:#fff;}.cls-5{fill:#cce7fa;}.cls-6{fill:#0c2d34;}.cls-7{fill:#1098b2;}.cls-8{fill:#6ecadc;}.cls-9{fill:#aae4f7;}.cls-10{fill:#3fb1c7;}.cls-11{fill:#3eb991;}.cls-12{fill:#84d8f4;}.cls-13{isolation:isolate;}.cls-14{clip-path:url(#clip-path);}.cls-15{fill:#2a7583;}.cls-16{fill:#2b7887;}.cls-17{fill:#28717f;}.cls-18{fill:#3596a8;}.cls-19{clip-path:url(#clip-path-2);}.cls-20{fill:#215c67;}.cls-21{fill:#22606b;}.cls-22{fill:#23636f;}.cls-23{fill:#256773;}.cls-24{fill:#266a77;}.cls-25{fill:#276e7b;}.cls-26{clip-path:url(#clip-path-3);}.cls-27{clip-path:url(#clip-path-4);}.cls-28{clip-path:url(#clip-path-5);}.cls-29{fill:#940507;}.cls-30{clip-path:url(#clip-path-6);}.cls-31{clip-path:url(#clip-path-7);}.cls-32{clip-path:url(#clip-path-8);}.cls-33{clip-path:url(#clip-path-9);}.cls-34{clip-path:url(#clip-path-10);}.cls-35{clip-path:url(#clip-path-11);}.cls-36{clip-path:url(#clip-path-12);}.cls-37{fill:#920507;}.cls-38{clip-path:url(#clip-path-13);}.cls-39{clip-path:url(#clip-path-14);}.cls-40{clip-path:url(#clip-path-15);}</style><clipPath id="clip-path" transform="translate(0 -2.5844)"><path class="cls-1" d="M196.0864,97.1691l2.1574,2.4256a10.2513,10.2513,0,0,0-8.433-3.3557l-2.1574-2.4256A10.2514,10.2514,0,0,1,196.0864,97.1691Z"/></clipPath><clipPath id="clip-path-2" transform="translate(0 -2.5844)"><path class="cls-1" d="M181.3264,114.6372l-2.1574-2.4256a10.0916,10.0916,0,0,1-2.5264-6.7853,11.8976,11.8976,0,0,1,11.0108-11.6129l2.1574,2.4256A11.8976,11.8976,0,0,0,178.8,107.8519,10.0921,10.0921,0,0,0,181.3264,114.6372Z"/></clipPath><clipPath id="clip-path-3" transform="translate(0 -2.5844)"><path class="cls-1" d="M201.333,82.555l-1.7192-.2516a3.3759,3.3759,0,0,0,2.6318-3.4661l1.7192.2516A3.3758,3.3758,0,0,1,201.333,82.555Z"/></clipPath><clipPath id="clip-path-4" transform="translate(0 -2.5844)"><path class="cls-1" d="M199.8177,67.7528l1.7192.2516a2.3161,2.3161,0,0,1,1.9744,2.1712l-1.7192-.2516A2.3162,2.3162,0,0,0,199.8177,67.7528Z"/></clipPath><clipPath id="clip-path-5" transform="translate(0 -2.5844)"><path class="cls-1" d="M200.1654,65.4047l1.7192.2515q-.0915-.0133-.1841-.0233l-1.7192-.2516Q200.074,65.3914,200.1654,65.4047Z"/></clipPath><clipPath id="clip-path-6" transform="translate(0 -2.5844)"><path class="cls-1" d="M194.826,83.84l-1.7192-.2515a2.5574,2.5574,0,0,0,.5045.0235,2.5315,2.5315,0,0,0,.4307-.06l1.7192.2516a2.5315,2.5315,0,0,1-.4307.06A2.5575,2.5575,0,0,1,194.826,83.84Z"/></clipPath><clipPath id="clip-path-7" transform="translate(0 -2.5844)"><path class="cls-1" d="M194.4834,86.1881l-1.7192-.2516a4.9523,4.9523,0,0,1-3.1974-1.8638l1.7192.2515A4.9524,4.9524,0,0,0,194.4834,86.1881Z"/></clipPath><clipPath id="clip-path-8" transform="translate(0 -2.5844)"><path class="cls-1" d="M189.12,64.3115l-1.7192-.2515a1.2082,1.2082,0,0,1,.1852.0045l1.7192.2516A1.2082,1.2082,0,0,0,189.12,64.3115Z"/></clipPath><clipPath id="clip-path-9" transform="translate(0 -2.5844)"><path class="cls-1" d="M181.9286,70.84l-1.7192-.2515a2.1822,2.1822,0,0,0-.7122-1.5054l1.7192.2516A2.1821,2.1821,0,0,1,181.9286,70.84Z"/></clipPath><clipPath id="clip-path-10" transform="translate(0 -2.5844)"><path class="cls-1" d="M179.6254,64.8234l-1.7192-.2516a1.2107,1.2107,0,0,1,.1838-.0239l1.7192.2516A1.2107,1.2107,0,0,0,179.6254,64.8234Z"/></clipPath><clipPath id="clip-path-11" transform="translate(0 -2.5844)"><path class="cls-1" d="M177.01,67.3288l1.7192.2515a2.1819,2.1819,0,0,1,1.14.5347l-1.7192-.2516A2.1818,2.1818,0,0,0,177.01,67.3288Z"/></clipPath><clipPath id="clip-path-12" transform="translate(0 -2.5844)"><path class="cls-1" d="M175.1815,84.8825l-1.7192-.2515a2.5423,2.5423,0,0,0,.4267.0134,2.62,2.62,0,0,0,2.0734-1.2205l1.7192.2515a2.62,2.62,0,0,1-2.0734,1.2206A2.5424,2.5424,0,0,1,175.1815,84.8825Z"/></clipPath><clipPath id="clip-path-13" transform="translate(0 -2.5844)"><path class="cls-1" d="M169.4122,84.21l-1.7192-.2516q.0476.0069.0956.0126l1.7192.2516Q169.46,84.2172,169.4122,84.21Z"/></clipPath><clipPath id="clip-path-14" transform="translate(0 -2.5844)"><path class="cls-1" d="M169.0654,86.5576l-1.7193-.2516a5.7126,5.7126,0,0,1-4.8831-5.3838l1.7192.2516A5.7126,5.7126,0,0,0,169.0654,86.5576Z"/></clipPath><clipPath id="clip-path-15" transform="translate(0 -2.5844)"><path class="cls-1" d="M163.7287,72.2605l-1.7193-.2516a4.6779,4.6779,0,0,1,3.7009-4.8315l1.7192.2516A4.6777,4.6777,0,0,0,163.7287,72.2605Z"/></clipPath></defs><title>slack-thumb-layer1</title><polygon class="cls-2" points="203.511 79.971 197.527 80.469 197.527 64.313 202.878 64.313 203.511 79.971"/><path class="cls-3" d="M196.9813,107.0847c8.3224-1.8985,13.9977-8.5215,18.8832-15.1067,5.3062-7.1521,9.48-15.8227,8.223-24.9535-1.7093-12.4163-13.3764-19.6967-24.9-14.4368-11.68,5.3313-20.4172,16.3179-30.273,24.2356-10.726,8.6169-30.0253,19.0354-41.8724,6.1908-5.3306-5.7794-7.6-16.8046-1.6369-22.956,10.1013-10.4206,24.6-1.2214,26.8713,10.96.3734,2.0031,3.43,1.1547,3.0571-.8428-2.817-15.1094-22.2893-25.0939-33.2506-11.0968-7.9245,10.1192-1.2911,26.4451,9.7693,31.0321,13.557,5.6225,27.8771-2.0209,38.378-10.308,5.9631-4.7059,11.4123-10.0033,17.13-14.9944,4.859-4.2418,10.4688-9.2584,16.9677-10.6853,11.6929-2.5674,18.0847,9.92,16.4968,19.8953-1.122,7.049-5.0955,13.1824-9.4759,18.6587-4.0689,5.0868-8.6351,9.85-15.21,11.35-1.9884.4536-1.1468,3.511.8428,3.0572Z" transform="translate(0 -2.5844)"/><path class="cls-4" d="M90.7432,150.88c1.9588-5.4838,3.1352-11.341,6.25-16.2611,4.5694-7.218,12.5739-11.3506,20-15.5733,23.7932-13.5292,17.255-22.322,21.4015-33.646,3.4835-9.5129,14.7511-15.0093,24.6836-13.019a17.1248,17.1248,0,0,0-2.0135-1.8877c-8.268-6.5689-20.9792-4.3313-28.3912,4.9979L73.0008,150.5979c-5.0984,6.4171-3.6343,16.2188,3.0658,22.862A58.928,58.928,0,0,0,90.7432,150.88Z" transform="translate(0 -2.5844)"/><path class="cls-5" d="M102.9418,174.386l59.6727-75.1074c6.7561-8.5036,6.7744-19.9618.4637-26.8983-9.9325-1.99-21.2,3.5061-24.6836,13.019-4.1465,11.324,2.3917,20.1168-21.4015,33.646-7.4261,4.2227-15.4306,8.3553-20,15.5733-3.1147,4.92-4.2911,10.7773-6.25,16.2611a58.928,58.928,0,0,1-14.6766,22.58,22.7963,22.7963,0,0,0,1.868,1.6648C86.2025,181.6937,97.3987,181.3629,102.9418,174.386Z" transform="translate(0 -2.5844)"/><path class="cls-3" d="M26.7192,223.8861c-2.27,3.8663-5.9112,5.9762-9.8078,9.653l7.2336,3.8765c5.9938-5.6135,12.2755-21.51,14.4682-30.15l1.407-4.8791C28.5873,203.9658,30.7189,217.0736,26.7192,223.8861Z" transform="translate(0 -2.5844)"/><path class="cls-6" d="M31.8533,195.63c-4.5132,2.5844-2.8293,7.0988-17.81,17.8781C9.216,216.9819,4.1959,220.2613,0,224.4763l16.9114,9.0628c3.8966-3.6768,7.5378-5.7867,9.8078-9.653,4-6.8125,1.8681-19.92,13.301-21.5l1.1025-3.823C37.6833,198.4577,36.6866,192.8624,31.8533,195.63Z" transform="translate(0 -2.5844)"/><path class="cls-3" d="M54.9282,209.3935a53.2173,53.2173,0,0,1-1.1324,21.0714l-19.9378,5.22C37.3268,219.18,45.9636,214.6715,44.7,205.908" transform="translate(0 -2.5844)"/><path class="cls-7" d="M133.07,187.7244c3.5108,1.0139,7.1177,2.0763,9.9933,4.3307,2.1047-1.5553,3.8994-2.9072,5.2464-3.9294l-18.711-12.1612-12.2671,7.8687q.56.0876,1.1136.19C123.3933,184.93,128.2363,186.3286,133.07,187.7244Z" transform="translate(0 -2.5844)"/><path class="cls-7" d="M113.09,203.561c-4.1947,5.6417-9.4923,10.7106-15.8528,13.5813a15.8038,15.8038,0,0,0,2.1671.0329c9.6305-.8124,31.7136-16.2927,43.6461-25.11q-10.7235,2.3006-21.3,5.2271C116.8619,198.6447,116.0959,199.5176,113.09,203.561Z" transform="translate(0 -2.5844)"/><path class="cls-2" d="M143.063,192.0551l-.013.01.02-.0045Z" transform="translate(0 -2.5844)"/><path class="cls-2" d="M133.07,187.7244c-4.8334-1.3958-9.6764-2.794-14.6248-3.7015q-.5525-.1012-1.1136-.19L73.3019,212.0759c6.8945,2.6821,18.55,4.7087,23.9349,5.0664,6.3605-2.8707,11.6581-7.94,15.8528-13.5813,3.0063-4.0434,3.7723-4.9163,8.6607-6.2691q10.57-2.9253,21.3-5.2271l.013-.01C140.1874,189.8007,136.5805,188.7383,133.07,187.7244Z" transform="translate(0 -2.5844)"/><path class="cls-8" d="M179.5881,102.5311c13.6956,3.3738,19.7887,11.76,27.4459,18.8632,23.8679,22.1424,24.4978,23.3014,28.1453,25.529,1.6-15.1406,1.3855-18.9233,3.0333-24.301,1.6653-5.4347,5.9921-6.9825,7.7129-5.8943,1.6462,1.041,1.2392,1.8062,3.2652,27.5825.4552,5.7908.9107,11.5931.79,17.4006-.0419,2.0037-.2109,4.1629-1.4988,5.6984-1.5824,1.8867-4.34,2.23-6.8,2.1151-7.8605-.3664-15.18-3.9419-22.1031-7.682a343.6827,343.6827,0,0,1-34.8674-21.62Z" transform="translate(0 -2.5844)"/><path class="cls-9" d="M232.5622,81.1764c2.3361,3.2746,3.7718,7.0906,5.182,10.8579.2241.5988.4464,1.1989.6567,1.8028l3.43.84c-5.72-13.1472-7.687-15.12-11.1373-19.049-5.06-5.7613-4.9445-5.7317-5.4035-5.9068-.7851-.2995-1.1395.4481-1.2745,1.3422l5.8811,6.8223C230.8188,78.9555,231.7421,80.0269,232.5622,81.1764Z" transform="translate(0 -2.5844)"/><path class="cls-10" d="M224.0454,73.22a8.5367,8.5367,0,0,0,1.4306,2.8262c3.2818,4.5994,4.9783,4.27,9.7985,17.0251l3.1264.7659c-.21-.6039-.4326-1.204-.6567-1.8028-1.41-3.7673-2.8459-7.5833-5.182-10.8579-.82-1.15-1.7434-2.2209-2.6653-3.29l-5.8811-6.8223A6.81,6.81,0,0,0,224.0454,73.22Z" transform="translate(0 -2.5844)"/><path class="cls-9" d="M243.2079,96.726l2.1238,1.3524c-.663-4.7005-3.871-14.849-4.2843-15.9677a45.3224,45.3224,0,0,0-5.51-9.6618,1.7239,1.7239,0,0,0-1.233.9435c3.8136,4.97,5.8248,11.221,7.4939,17.3246C242.4516,93.1046,242.9067,95.0543,243.2079,96.726Z" transform="translate(0 -2.5844)"/><path class="cls-10" d="M240.4907,94.9958l2.7172,1.73c-.3012-1.6717-.7563-3.6214-1.4093-6.009-1.6691-6.1036-3.68-12.3547-7.4939-17.3246a3.9188,3.9188,0,0,0-.3917,1.8665C233.9665,79.4294,236.9734,82.2671,240.4907,94.9958Z" transform="translate(0 -2.5844)"/><path class="cls-8" d="M106.939,177.1443c11.219,6.8429,31.35,8.0794,40.8387,6.2811a44.185,44.185,0,0,0,12.3053-4.44A211.16,211.16,0,0,0,199.42,128.1737l-.4913-1.6133c-1.9142-9.1645-7.3291-17.858-15.5545-22.3295-21.2631-11.5591-51.6256,8.2248-59.3825,16.6019-3.55,3.8337-5.8277,7.6253-17.88,25.9275l-.02.031a32.7751,32.7751,0,0,1-4.93,5.8685q-.7022.66-1.5124,1.4186c-2.286,2.1406-4.0055,3.8439-5.3948,5.3871C95.4139,166.7181,100.5562,173.2512,106.939,177.1443Z" transform="translate(0 -2.5844)"/><path class="cls-11" d="M247.6268,123.6027a23.5232,23.5232,0,0,1-6.247,1.01c.0841,14.1212,1.9381,28.9846-3.062,24.64l-3.1006-2.6937c-.0129.1234-.0247.2393-.0379.3643-3.6476-2.2276-4.2774-3.3866-28.1454-25.529-7.6571-7.1036-13.75-15.4894-27.4458-18.8632l5.1227,37.6916q1.8922,1.3362,3.8045,2.6438.123-.8606.2505-1.7154c.3953-2.6509,3.7612-13.8692,4.1564-16.52l.9012-5.5668c-.1858,3.4223.9107,6.7729,2.0677,9.9991,1.3321,3.7145,2.9237,7.6074,6.1333,9.903,4.5938,3.2857,11.2291,2.3911,15.8335,5.662,5.7,4.049,5.5408,11.7734,16.5455,18.17,8.1494,4.7371,14.8765,1.5751,15.5835-2.3051C249.9323,151.7913,247.996,128.0689,247.6268,123.6027Z" transform="translate(0 -2.5844)"/><path class="cls-2" d="M241.38,124.6124a23.0563,23.0563,0,0,1-4.7359-.3485,14.2483,14.2483,0,0,1,.2621,4.7765h0c-.4484,3.6641-.7515,8.5879-1.6891,17.5187l3.1006,2.6937C243.3179,153.597,241.4639,138.7336,241.38,124.6124Z" transform="translate(0 -2.5844)"/><path class="cls-2" d="M241.6813,169.5245c2.46.1147,5.2177-.2283,6.8-2.115,1.2879-1.5355,1.4569-3.6947,1.4988-5.6984.0075-.3628.01-.7711.0067-1.2177-.707,3.88-7.4341,7.0422-15.5835,2.3051-11.0047-6.3968-10.8458-14.1212-16.5455-18.17-4.6044-3.2709-11.24-2.3763-15.8335-5.662-3.21-2.2956-4.8012-6.1885-6.1333-9.903-1.157-3.2262-2.2535-6.5768-2.0677-9.9991l-.9012,5.5668c-.3952,2.6509-3.7611,13.8692-4.1564,16.52q-.1272.8538-.2505,1.7154a343.6671,343.6671,0,0,0,31.0629,18.9761C226.5015,165.5827,233.8209,169.1582,241.6813,169.5245Z" transform="translate(0 -2.5844)"/><path class="cls-11" d="M198.9284,126.56c-1.9142-9.1645-7.3291-17.858-15.5545-22.3295a28.1781,28.1781,0,0,0-6.6344-2.5687l1.717,2.8581c-7.5516,2.8474-18.5494,10.0671-20.2231,17.9291-1.5155,7.1191,3.905,14.3055,2.5851,21.4634-1.0786,5.85-6.4817,10.0444-12.1338,11.8976s-11.7106,1.9167-17.59,2.8182c-18.2394,2.7968-17.65,12.571-22.0694,19.672,11.4832,5.821,29.826,6.8165,38.7525,5.1248a44.185,44.185,0,0,0,12.3053-4.44A211.16,211.16,0,0,0,199.42,128.1737Z" transform="translate(0 -2.5844)"/><path class="cls-2" d="M131.0946,158.6286c5.8795-.9015,11.9379-.9651,17.59-2.8182s11.0552-6.048,12.1338-11.8976c1.32-7.1579-4.1006-14.3443-2.5851-21.4634,1.6737-7.862,12.6715-15.0817,20.2231-17.9291l-1.717-2.8581c-20.487-5.1357-45.7683,11.6329-52.7481,19.1706-3.55,3.8337-5.8277,7.6253-17.88,25.9275l-.02.031a32.7751,32.7751,0,0,1-4.93,5.8685q-.7022.66-1.5124,1.4186c-2.286,2.1406-4.0055,3.8439-5.3948,5.3871,1.16,7.2526,6.3028,13.7857,12.6856,17.6788.6647.4054,1.3629.79,2.0862,1.1563C113.4445,171.2,112.8552,161.4254,131.0946,158.6286Z" transform="translate(0 -2.5844)"/><path class="cls-6" d="M191.46,107.578a133.3446,133.3446,0,0,1-8.4884,45.8252q3.5753-4.7155,6.8852-9.6247c.3565.242.7166.4788,1.074.7195a102.443,102.443,0,0,0,6.8268-32.0661A48.7656,48.7656,0,0,0,191.46,107.578Z" transform="translate(0 -2.5844)"/><path class="cls-10" d="M147.7777,183.4254c-8.9265,1.6917-27.2693.6962-38.7525-5.1248a14.53,14.53,0,0,1-2.6924,3.2435c-4.724,4.1958-12.0957,4.0273-17.0828,7.9067-4.4558,3.4661-6.201,9.5315-10.5123,13.1757-11.0956,9.379-27.6775-1.7928-38.7516-.235v-.0007a10.1872,10.1872,0,0,0-6.9348,3.795l.0024.0025c-1.815,2.3246-2.6916,5.41-3.434,8.5269a1.6707,1.6707,0,0,0,2.54,1.1281c1.4652-.6873,3.1063-2.6554,4.4346-4.5493a4.311,4.311,0,0,1,4.6139-1.7124c4.2117,1.0939,11.3357,2.8608,23.8536,6.0434a27.7948,27.7948,0,0,0,4.359.8636c5.4666.4865,15.8877-2.2,24.2334-6.3924a89.9458,89.9458,0,0,0,21.7478-15.7571q.8.2845,1.6265.5067c6.0433,1.6186,12.4469.6029,18.5975-.5422,6.7434-1.2556,9.638-2.2278,16.9175-8.4928q3.8548-3.3177,7.54-6.8258A44.185,44.185,0,0,1,147.7777,183.4254Z" transform="translate(0 -2.5844)"/><path class="cls-2" d="M106.939,177.1443c-6.3828-3.8931-11.5251-10.4262-12.6856-17.6788-4.0042,4.4476-5.2462,7.5564-9.2474,15.9021A89.2549,89.2549,0,0,1,73.3417,194.101c-1.0023,1.2015-2.33,3.31-3.7073,4.0722-1.3552.75-4.0323.2741-5.605.29-7.2585.0732-14.2116.1223-21.4075.1533-2.5017.0108-5.1246-.6237-7.5609.21a5.0378,5.0378,0,0,0-2.88,2.2469l-.0043.0011c-2.4514,4.1748-3.6005,10.7958-2.5566,13.6409,2.2419-9.4148,5.856-14.1569,17.8221-11.9936,8.8149,1.5936,22.389,7.4339,31.296-.0951,4.3113-3.6442,6.0565-9.71,10.5123-13.1757,4.9871-3.8794,12.3588-3.7109,17.0828-7.9067a14.53,14.53,0,0,0,2.6924-3.2435C108.3019,177.934,107.6037,177.55,106.939,177.1443Z" transform="translate(0 -2.5844)"/><path class="cls-5" d="M59.0146,175.5017a1.55,1.55,0,0,0-1.0319.0572l-1.4761.6395a1.5515,1.5515,0,0,1,1.0319-.0572l48.073,12.8812,1.4762-.64Z" transform="translate(0 -2.5844)"/><path class="cls-2" d="M105.6115,189.0224a3.21,3.21,0,0,1,2.0767,3.0284l.2041,35.6884c.0078,1.3675-.9074,2.2288-2.0483,1.9231L57.7709,216.7812a3.21,3.21,0,0,1-2.0729-3.0274l-.2042-35.6885c-.0078-1.3674.9075-2.2288,2.0447-1.9241Z" transform="translate(0 -2.5844)"/><path class="cls-11" d="M97.3428,127.8758c-5.4022,4.27-9.52,10.2346-15.6446,13.3827-2.92,1.5008-6.2794,2.3547-8.6086,4.6681-3.3242,3.3016-3.57,8.6482-2.5012,13.21s3.2133,8.8453,3.9658,13.47c.9019,5.5423-.211,11.3181-1.3075,17.0195a7.2427,7.2427,0,0,0,.9676.0124,11.6955,11.6955,0,0,0,3.5234-.8492,11.1011,11.1011,0,0,1-.0807-3.39c.946-7.1982,1.1474-18.4978,1.6838-29.2092.2133-4.2615.88-5.4289,4.4008-7.6255,12.66-7.8993,25.85-14.9088,39.0278-21.9111,5.7231-3.0412,11.597-6.1325,18.0165-7.0227a54.6507,54.6507,0,0,1,5.4616-.3916C129.5517,118.381,110.64,117.3651,97.3428,127.8758Z" transform="translate(0 -2.5844)"/><path class="cls-2" d="M146.2475,119.239c-12.0353-.6185-25.2213-1.3175-36.6264,2.2767,3.8763-1.017,7.7442-1.05,9.918.5621a3.9369,3.9369,0,0,1,1.51,4.5143,5.25,5.25,0,0,1-1.4135,1.7278c1.0445-.5556,3.86-.06,4.905-.6154a44.49,44.49,0,0,1,16.4161-5.4232C142.76,122.0313,144.419,119.3073,146.2475,119.239Z" transform="translate(0 -2.5844)"/><path class="cls-2" d="M169.3485,100.6949c.982-5.1806.1294-11.4082-4.3158-14.2443l.0516-.4765a167.8646,167.8646,0,0,0-34.166,7.6678c-11.2667,3.8153-15.5147,6.7259-25.0628,14.0859L72.7852,133.22c-6.2144,4.79-7.1312,6.96-7.0708,13.5737a277.8945,277.8945,0,0,0,3.2364,39.8022,9.4339,9.4339,0,0,1,.0029,1.0694,6.2773,6.2773,0,0,0,4.293,1.9608c1.0965-5.7014,2.2094-11.4772,1.3075-17.0195-.7525-4.6244-2.8974-8.9079-3.9658-13.47s-.823-9.9084,2.5012-13.21c2.3292-2.3134,5.689-3.1673,8.6086-4.6681,6.1242-3.1481,10.2424-9.1127,15.6446-13.3827,13.2976-10.5107,32.2089-9.4948,48.9047-8.6368a34.4752,34.4752,0,0,0,9.189-1.1543C162.87,115.733,167.8964,108.355,169.3485,100.6949Z" transform="translate(0 -2.5844)"/><path class="cls-6" d="M159.5365,86.731q-4.39.663-8.7412,1.5543c-.0719,5.7766-.1369,11.6-1.3284,17.2534-2.7329,12.9667-9.0349,17.5474-19.083,22.315q-8.1732,3.8779-16.59,7.2119c-2.0186,3.0708-4.51,6.8763-7.6827,11.6947l-.02.031c-.0422.0641-.0893.1246-.132.1884,4.7682.3156,9.9983-2.7572,24.1939-9.773C151.42,126.6961,158.5608,119.6117,159.5365,86.731Z" transform="translate(0 -2.5844)"/><path class="cls-5" d="M109.1644,191.4112a3.2105,3.2105,0,0,0-2.0767-3.0284l-1.4762.64a3.21,3.21,0,0,1,2.0767,3.0284l.2041,35.6884a1.9109,1.9109,0,0,1-1.0124,1.866l1.4761-.64a1.9109,1.9109,0,0,0,1.0125-1.866Z" transform="translate(0 -2.5844)"/><path class="cls-2" d="M205.3958,43.1255c-2.05-4.999-6.6374-8.6509-11.69-10.5653s-10.56-2.2715-15.9616-2.1742c-4.9933.09-10.1281.5316-14.8615-1.0611-9.0872-3.0578-14.143-12.5473-21.5855-18.5917-7.3082-5.9352-17.013-8.4435-26.422-8.1214-9.2461.3164-18.2472,3.1948-26.6225,7.1347,8.2271-1.5762,22.8516-1.437,26.4277,5.73,2.6905,5.3926-1.4139,12.8338,2.3292,17.557,5.1532,6.5025,17.3415.8016,23.9163-.289,5.524-.9163,12.3122.5329,14.457,5.7054,1.3281,3.2031.46,6.8349.47,10.3024s1.6383,7.5851,5.0752,8.0458c3.6226.4856,6.1929-3.292,7.9906-6.4744s4.91-6.7492,8.3778-5.5953c3.0916,1.0287,4.0241,5.2026,6.9152,6.7052,3.5156,1.8271,7.7122-1.156,11.6494-.7126,3.69.4157,6.4465,3.8975,7.1979,7.5345a14.3227,14.3227,0,0,1,.2738,2.273c.4513-.8514.9077-1.6989,1.3067-2.5486A18.7348,18.7348,0,0,0,205.3958,43.1255Z" transform="translate(0 -2.5844)"/><path class="cls-6" d="M195.8615,50.7214c-3.9372-.4434-8.1338,2.54-11.6494.7126-2.8911-1.5026-3.8236-5.6765-6.9152-6.7052-3.4681-1.1539-6.58,2.4129-8.3778,5.5953s-4.368,6.96-7.9906,6.4744c-3.4369-.4607-5.0645-4.5782-5.0752-8.0458s.858-7.0993-.47-10.3024c-2.1448-5.1725-8.933-6.6217-14.457-5.7054-6.5748,1.0906-18.7631,6.7915-23.9163.289-3.7431-4.7232.3613-12.1644-2.3292-17.557C111.1046,8.31,96.48,8.17,88.253,9.7465c-.1476.07-.2966.1367-.4439.2068,5.0008-.61,10.8548-.9235,14.23,2.8166,1.9847,2.1991,2.5726,5.3107,2.7664,8.2667.3716,5.667-.3446,11.6625,2.155,16.7619,2.659,5.4248,8.4769,8.6462,14.3284,10.1486s11.9663,1.6191,17.9094,2.7041c4.2672.7791,8.8912,2.4151,10.8567,6.282,2.6934,5.2992-.9617,11.6523-.3508,17.5652a12.5248,12.5248,0,0,0,10.2142,10.7652L201.0916,68.39c-.3963-2.7631.9-5.33,2.2416-7.8614a14.3227,14.3227,0,0,0-.2738-2.273C202.308,54.6189,199.5519,51.1371,195.8615,50.7214Z" transform="translate(0 -2.5844)"/><path class="cls-12" d="M161.0685,73.5493c1.6157,21.5411.8523,21.1153,6.01,27.2718,5.2284,6.2409,8.9445,9.6237,16.2449,8.7592,6.3608-.7533,7.98-2.9063,9.5762-7.2993,4.32-11.887,5.8854-17.0332,5.6414-28.3746-.1318-6.1239-.6909-12.5587-4.0964-17.65a17.8355,17.8355,0,0,0-31.1686,2.7749c-1.7275,3.9538-2.3538,9.6676-2.2474,14.1007" transform="translate(0 -2.5844)"/><path class="cls-10" d="M189.4494,98.8861a28.3541,28.3541,0,0,1,1.841-5.0368,27.1457,27.1457,0,0,0,2.3905-8.9832,12.74,12.74,0,0,0-2.55-8.7663c-1.3631-1.6612-3.2973-2.9349-4.0779-4.937-1.1759-3.0161.7-6.2637,1.3441-9.4362a14.9192,14.9192,0,0,0-3.8682-12.64,17.4894,17.4894,0,0,0-6.4911-.6791,18.2129,18.2129,0,0,0-14.7619,10.6243c-1.7276,3.9538-2.3539,9.6676-2.2475,14.1007l.04.4173c1.6157,21.5411.8523,21.1153,6.01,27.2718,5.2284,6.2409,8.9445,9.6237,16.2449,8.7591a14.1775,14.1775,0,0,0,5.5772-1.5889c.0286-.19.0621-.3777.0838-.569C189.3072,104.5866,188.8548,101.6775,189.4494,98.8861Z" transform="translate(0 -2.5844)"/><path class="cls-9" d="M192.9,102.281c4.32-11.8871,5.8853-17.0332,5.6414-28.3746-.1318-6.1239-.6909-12.5587-4.0964-17.65a18.1436,18.1436,0,0,0-9.9155-7.17,14.9192,14.9192,0,0,1,3.8682,12.64c-.6441,3.1725-2.52,6.42-1.3441,9.4362.7806,2.0021,2.7148,3.2758,4.0779,4.937a12.74,12.74,0,0,1,2.55,8.7663,27.1457,27.1457,0,0,1-2.3905,8.9832,28.3541,28.3541,0,0,0-1.841,5.0368c-.5946,2.7914-.1422,5.7005-.4649,8.5362-.0217.1913-.0552.3794-.0838.569C190.945,106.7875,191.93,104.95,192.9,102.281Z" transform="translate(0 -2.5844)"/><polygon class="cls-5" points="167.429 66.38 180.209 63.416 197.758 63.416 203.969 65.531 205.122 78.589 200.519 81.488 192.717 82.989 187.586 74.307 182.972 74.822 176.625 83.973 166.517 81.843 165.07 68.479 167.429 66.38"/><path class="cls-4" d="M203.9921,68.3741l-.5349-.4334-.8083-.2752q-1.6772,1.02-3.3113,2.1081a13.6352,13.6352,0,0,0-4.585,4.33A30.13,30.13,0,0,0,193.41,77.337a16.35,16.35,0,0,1-2.891,4.5181l2.1975,3.7183.7183-.1382a9.6378,9.6378,0,0,0,2.9829-4.84c.4853-1.9246.3754-4.0177,1.2526-5.7981a8.0235,8.0235,0,0,1,1.8151-2.3037A13.5782,13.5782,0,0,1,204.11,69.71Z" transform="translate(0 -2.5844)"/><path class="cls-4" d="M175.6528,86.3527c.6215-.359,1.2448-.7144,1.8627-1.0794l5.4563-7.8672,4.614-.5148.8754,1.4814a4.6937,4.6937,0,0,0,1.9109-2.1165,17.912,17.912,0,0,0,.3616-2.158,7.0067,7.0067,0,0,1,2.4114-3.4278,39.6164,39.6164,0,0,1,3.8293-3.0575,3.4153,3.4153,0,0,1,1.7766-.7732A24.1845,24.1845,0,0,1,195.5558,66h-5.0349a41.5917,41.5917,0,0,1-8.3951,5.1489,28.1551,28.1551,0,0,0-4.9292,2.6951,21.1194,21.1194,0,0,0-4.5911,5.3235c-1.4256,2.1368-2.967,4.4782-5.3059,5.4241Z" transform="translate(0 -2.5844)"/><path class="cls-6" d="M181.2111,89.116l-5.2487-2.9279s7.98-8.0972,7.8364-7.866S181.2111,89.116,181.2111,89.116Z" transform="translate(0 -2.5844)"/><polygon class="cls-6" points="190.737 86.532 192.717 82.989 185.974 75.515 190.737 86.532"/><polygon class="cls-3" points="181.211 86.532 190.737 86.532 187.622 74.822 182.124 74.822 181.211 86.532"/><g class="cls-13"><g class="cls-13"><g class="cls-14"><g class="cls-13"><path class="cls-15" d="M189.8108,96.239l-2.1574-2.4256q.2217-.0148.4413-.0209l2.1574,2.4255q-.22.0061-.4413.021" transform="translate(0 -2.5844)"/><path class="cls-16" d="M190.2521,96.218l-2.1574-2.4255a10.3519,10.3519,0,0,1,6.32,1.879l2.1574,2.4255a10.3526,10.3526,0,0,0-6.32-1.879" transform="translate(0 -2.5844)"/><path class="cls-15" d="M196.5722,98.097l-2.1574-2.4255a9.9382,9.9382,0,0,1,1.3024,1.1046l2.1575,2.4256a9.9541,9.9541,0,0,0-1.3025-1.1047" transform="translate(0 -2.5844)"/><path class="cls-17" d="M197.8747,99.2017l-2.1575-2.4256q.19.1914.3692.393l2.1575,2.4256q-.1794-.2016-.3692-.393" transform="translate(0 -2.5844)"/></g></g></g><path class="cls-18" d="M189.8108,96.239A10.0751,10.0751,0,0,1,200.7724,106.38,11.8894,11.8894,0,0,1,189.77,117.992a10.0722,10.0722,0,0,1-10.97-10.14A11.8976,11.8976,0,0,1,189.8108,96.239Z" transform="translate(0 -2.5844)"/><g class="cls-13"><g class="cls-19"><g class="cls-13"><path class="cls-20" d="M181.3264,114.6372l-2.1574-2.4256a10.0916,10.0916,0,0,1-2.5264-6.7853,11.4724,11.4724,0,0,1,2.5513-7.1207l2.1574,2.4255a11.4726,11.4726,0,0,0-2.5513,7.1208,10.0921,10.0921,0,0,0,2.5264,6.7853" transform="translate(0 -2.5844)"/><path class="cls-21" d="M181.3513,100.7311l-2.1574-2.4255a12.1959,12.1959,0,0,1,1.1808-1.2808l2.1574,2.4255a12.2058,12.2058,0,0,0-1.1808,1.2808" transform="translate(0 -2.5844)"/><path class="cls-22" d="M182.5321,99.45l-2.1574-2.4255a12.2062,12.2062,0,0,1,1.1006-.9191l2.1574,2.4256a12.2218,12.2218,0,0,0-1.1006.919" transform="translate(0 -2.5844)"/><path class="cls-23" d="M183.6327,98.5313l-2.1574-2.4256a12.0964,12.0964,0,0,1,1.0976-.7231l2.1574,2.4255a12.0974,12.0974,0,0,0-1.0976.7232" transform="translate(0 -2.5844)"/><path class="cls-24" d="M184.73,97.8081l-2.1574-2.4255a11.9068,11.9068,0,0,1,1.13-.5809l2.1574,2.4255a11.93,11.93,0,0,0-1.13.5809" transform="translate(0 -2.5844)"/><path class="cls-25" d="M185.8605,97.2272l-2.1574-2.4255a11.71,11.71,0,0,1,1.2137-.4651l2.1574,2.4256a11.7318,11.7318,0,0,0-1.2137.465" transform="translate(0 -2.5844)"/><path class="cls-17" d="M187.0742,96.7622l-2.1574-2.4256a11.5307,11.5307,0,0,1,1.3925-.3526l2.1574,2.4256a11.5307,11.5307,0,0,0-1.3925.3526" transform="translate(0 -2.5844)"/><path class="cls-15" d="M188.4667,96.41l-2.1574-2.4256a11.4237,11.4237,0,0,1,1.3441-.1706l2.1574,2.4256a11.4027,11.4027,0,0,0-1.3441.1706" transform="translate(0 -2.5844)"/></g></g></g></g><g class="cls-13"><polygon class="cls-2" points="203.965 76.504 202.246 76.253 201.792 67.34 203.511 67.591 203.965 76.504"/><g class="cls-13"><g class="cls-26"><g class="cls-13"><path class="cls-2" d="M201.333,82.555l-1.7192-.2516a3.3914,3.3914,0,0,0,.5381-.1688l1.7193.2516a3.3958,3.3958,0,0,1-.5382.1688" transform="translate(0 -2.5844)"/><path class="cls-2" d="M201.8712,82.3862l-1.7193-.2516a3.3766,3.3766,0,0,0,2.0937-3.2973l1.7192.2516a3.3765,3.3765,0,0,1-2.0936,3.2973" transform="translate(0 -2.5844)"/></g></g></g><g class="cls-13"><g class="cls-27"><g class="cls-13"><path class="cls-2" d="M203.5113,70.1756l-1.7192-.2516a2.3162,2.3162,0,0,0-1.9744-2.1712l1.7192.2515a2.3163,2.3163,0,0,1,1.9744,2.1713" transform="translate(0 -2.5844)"/></g></g></g><g class="cls-13"><g class="cls-28"><g class="cls-13"><path class="cls-29" d="M201.7005,65.6329l-1.7192-.2516q.0927.01.1841.0234l1.7192.2515q-.0915-.0133-.1841-.0233" transform="translate(0 -2.5844)"/></g></g></g><polygon class="cls-2" points="195.761 81.22 194.042 80.968 199.614 79.719 201.333 79.971 195.761 81.22"/><g class="cls-13"><g class="cls-30"><g class="cls-13"><path class="cls-2" d="M194.826,83.84l-1.7192-.2515a2.577,2.577,0,0,0,.3528.027l1.7192.2515a2.5469,2.5469,0,0,1-.3528-.027" transform="translate(0 -2.5844)"/><path class="cls-2" d="M195.1788,83.8673l-1.7192-.2515q.0757,0,.1517-.0035a2.5251,2.5251,0,0,0,.3166-.0366l1.7192.2516a2.5251,2.5251,0,0,1-.3166.0366q-.0759.0041-.1517.0034" transform="translate(0 -2.5844)"/><path class="cls-2" d="M195.6471,83.8273l-1.7192-.2516q.0572-.01.1141-.0233l1.7192.2516q-.057.0129-.1141.0233" transform="translate(0 -2.5844)"/></g></g></g><g class="cls-13"><g class="cls-31"><g class="cls-13"><path class="cls-2" d="M194.4834,86.1881l-1.7192-.2516a4.9523,4.9523,0,0,1-3.1974-1.8638l1.7192.2515a4.9524,4.9524,0,0,0,3.1974,1.8639" transform="translate(0 -2.5844)"/></g></g></g><polygon class="cls-2" points="189.305 61.732 187.586 61.48 199.981 62.797 201.701 63.049 189.305 61.732"/><g class="cls-13"><g class="cls-32"><g class="cls-13"><path class="cls-2" d="M189.12,64.3115l-1.7192-.2515c.0237-.0013.0474-.0018.0712-.0017l1.7192.2516q-.0357,0-.0712.0016" transform="translate(0 -2.5844)"/><path class="cls-29" d="M189.191,64.31l-1.7192-.2516q.0569,0,.114.0062l1.7192.2516q-.0572-.0057-.114-.0062" transform="translate(0 -2.5844)"/></g></g></g><polygon class="cls-2" points="191.286 81.74 189.567 81.488 184.8 75.344 186.519 75.595 191.286 81.74"/><polygon class="cls-2" points="182.124 73.954 180.405 73.703 180.494 73.589 182.213 73.84 182.124 73.954"/><polygon class="cls-2" points="182.213 73.84 180.494 73.589 180.209 68.004 181.929 68.256 182.213 73.84"/><g class="cls-13"><g class="cls-33"><g class="cls-13"><path class="cls-2" d="M181.9286,70.84l-1.7192-.2515a2.1822,2.1822,0,0,0-.7122-1.5054l1.7192.2516a2.1821,2.1821,0,0,1,.7122,1.5053" transform="translate(0 -2.5844)"/></g></g></g><polygon class="cls-2" points="177.682 81.091 175.962 80.839 180.405 73.703 182.124 73.954 177.682 81.091"/><polygon class="cls-2" points="181.216 66.75 179.497 66.499 178.15 65.279 179.869 65.531 181.216 66.75"/><polygon class="cls-2" points="179.809 62.215 178.09 61.963 187.401 61.476 189.12 61.727 179.809 62.215"/><g class="cls-13"><g class="cls-34"><g class="cls-13"><path class="cls-2" d="M179.6254,64.8234l-1.7192-.2516.0327-.0063,1.7193.2515-.0328.0064" transform="translate(0 -2.5844)"/><path class="cls-2" d="M179.6582,64.817l-1.7193-.2515a1.19,1.19,0,0,1,.1511-.0176l1.7192.2516a1.204,1.204,0,0,0-.151.0175" transform="translate(0 -2.5844)"/></g></g></g><g class="cls-13"><g class="cls-35"><g class="cls-13"><path class="cls-2" d="M179.8688,68.115l-1.7192-.2516a2.1818,2.1818,0,0,0-1.14-.5346l1.7192.2515a2.1819,2.1819,0,0,1,1.14.5347" transform="translate(0 -2.5844)"/></g></g></g><g class="cls-13"><g class="cls-36"><g class="cls-13"><path class="cls-29" d="M175.1815,84.8825l-1.7192-.2516a2.5432,2.5432,0,0,0,.2749.017l1.7192.2515a2.5177,2.5177,0,0,1-.2749-.0169" transform="translate(0 -2.5844)"/><path class="cls-2" d="M175.4564,84.8994l-1.7192-.2515q.0762,0,.1518-.0035a2.5591,2.5591,0,0,0,.3217-.0373l1.7192.2516a2.5778,2.5778,0,0,1-.3217.0373q-.0756.0039-.1518.0034" transform="translate(0 -2.5844)"/><path class="cls-2" d="M175.93,84.8587l-1.7192-.2516a2.6078,2.6078,0,0,0,.52-.1512l1.7193.2516a2.6106,2.6106,0,0,1-.52.1512" transform="translate(0 -2.5844)"/><path class="cls-2" d="M176.45,84.7075l-1.7193-.2516a2.6192,2.6192,0,0,0,1.2314-1.032l1.7192.2515a2.6191,2.6191,0,0,1-1.2313,1.0321" transform="translate(0 -2.5844)"/></g></g></g><polygon class="cls-37" points="169.508 81.638 167.789 81.387 173.462 82.047 175.182 82.298 169.508 81.638"/><g class="cls-13"><g class="cls-38"><g class="cls-13"><path class="cls-29" d="M169.4122,84.21l-1.7192-.2516q.0476.0069.0956.0126l1.7192.2516q-.048-.0057-.0956-.0126" transform="translate(0 -2.5844)"/></g></g></g><polygon class="cls-2" points="167.429 64.845 165.71 64.593 177.906 61.987 179.625 62.239 167.429 64.845"/><g class="cls-13"><g class="cls-39"><g class="cls-13"><path class="cls-2" d="M169.0654,86.5576l-1.7193-.2516a5.7126,5.7126,0,0,1-4.8831-5.3838l1.7192.2516a5.7126,5.7126,0,0,0,4.8832,5.3838" transform="translate(0 -2.5844)"/></g></g></g><path class="cls-2" d="M166.0864,85.9686l-3.0794-.6495a2.6971,2.6971,0,0,1-2.1339-2.448l-.792-11.1486a3.8569,3.8569,0,0,1,3.0861-4.0544l4.2623-.858-2.7132,3.3655Z" transform="translate(0 -2.5844)"/><polygon class="cls-2" points="164.182 78.589 162.463 78.338 162.009 69.425 163.729 69.676 164.182 78.589"/><g class="cls-13"><g class="cls-40"><g class="cls-13"><path class="cls-2" d="M163.7287,72.2605l-1.7193-.2516a4.6775,4.6775,0,0,1,2.9006-4.5848l1.7192.2516a4.6772,4.6772,0,0,0-2.9,4.5848" transform="translate(0 -2.5844)"/><path class="cls-2" d="M166.6292,67.6757l-1.7192-.2516a4.7572,4.7572,0,0,1,.8-.2467l1.7192.2516a4.748,4.748,0,0,0-.8.2467" transform="translate(0 -2.5844)"/></g></g></g><path class="cls-11" d="M201.7005,65.6329a4.66,4.66,0,0,1,4.1715,4.419l.4536,8.9132a5.7389,5.7389,0,0,1-4.4763,5.9054L196.2727,86.12a4.8746,4.8746,0,0,1-.8209.1135,4.9539,4.9539,0,0,1-4.1658-1.9091L186.5191,78.18l-2.72.1426-4.1131,6.61a4.9891,4.9891,0,0,1-3.9606,2.3358,4.8046,4.8046,0,0,1-.8221-.0283l-5.669-.66a5.7128,5.7128,0,0,1-5.0518-5.406l-.4535-8.9133A4.6777,4.6777,0,0,1,167.43,67.429l12.1959-2.6056a1.2107,1.2107,0,0,1,.1838-.0239l9.3106-.488a1.2082,1.2082,0,0,1,.1852.0046Zm2.2643,13.456-.4535-8.9133a2.316,2.316,0,0,0-2.0607-2.1822L191.2348,66.91a2.164,2.164,0,0,0-1.8378.7058L188.18,68.97a2.1891,2.1891,0,0,0-.5557,1.5718l.2841,5.5845.1.1043,5.1428,6.6344a2.5952,2.5952,0,0,0,2.1787.9992,2.5315,2.5315,0,0,0,.4307-.06l5.5718-1.249a3.3758,3.3758,0,0,0,2.6318-3.4661m-21.752-2.6644-.2842-5.5845a2.1821,2.1821,0,0,0-.7122-1.5053l-1.3476-1.22a2.1761,2.1761,0,0,0-1.5635-.5545,2.1382,2.1382,0,0,0-.3361.0446l-10.0516,2.1457a2.32,2.32,0,0,0-1.8282,2.386l.4535,8.9133a3.3672,3.3672,0,0,0,2.9649,3.1728l5.6737.66a2.5424,2.5424,0,0,0,.4267.0135,2.62,2.62,0,0,0,2.0734-1.2206l4.4421-7.1367.0891-.1142" transform="translate(0 -2.5844)"/></g><polygon class="cls-8" points="160.753 78.589 161.866 78.589 161.503 70.024 160.144 70.024 160.753 78.589"/><path class="cls-9" d="M247.4365,84.5647c-.0806-1.1886-.1256-2.38-.2643-3.5636a4.2074,4.2074,0,0,0-2.6439,3.095c-.5865,2.2854.1779,4.9616.0613,12.1218l-1.73-1.2322c1.6534,7.5964.53,9.7409-.6814,16.6419a75.9627,75.9627,0,0,0-.7983,12.9848,23.5232,23.5232,0,0,0,6.247-1.01l-.0163-.1974h0c-.6784-12.1573-1.1351-12.1252.15-16.5679C249.8617,99.57,247.93,91.8434,247.4365,84.5647Z" transform="translate(0 -2.5844)"/><path class="cls-10" d="M242.1781,111.6276c1.2112-6.901,2.3348-9.0455.6814-16.6419l-1.6206-1.1543a6.1445,6.1445,0,0,0-2.6795-2.0183,26.2537,26.2537,0,0,0-6.1681-1.62c-6.7583-1.1993-7.8253-1.4057-11.3455,2.0432-3.6458,3.572-3.758,3.6921-3.7154,4.02.1022.7864,2.9573,2.1555,5.7545.225,2.3731-1.6377,2.9853-3.348,6.6747-2.2434,3.2516.9737,4.0638,2.605,3.6313,6.0333a6.6039,6.6039,0,0,1-1.5372,3.9871,7.0889,7.0889,0,0,1-6.1357,1.3348c-2.9873-.9768-4.5121-5.0872-7.8353-5.0082-.8754.0209-1.22.517-.6679,1.469a35.53,35.53,0,0,0,5.8348,8.1727c4.6754,4.4543,11.9345,7.05,13.5943,14.0376a23.0563,23.0563,0,0,0,4.7359.3485A75.9627,75.9627,0,0,1,242.1781,111.6276Z" transform="translate(0 -2.5844)"/><path class="cls-2" d="M168.9191,50.3241a17.548,17.548,0,0,1,2.4979-3.4418c-5.4512.1048-10.4823,3.7811-13.0712,8.6473a4.6,4.6,0,0,0,2.5827,1.2689C164.5511,57.2841,167.1214,53.5065,168.9191,50.3241Z" transform="translate(0 -2.5844)"/><path class="cls-6" d="M157.9933,75.0986c.1379.3732.4967.8255.8327.6125a15.364,15.364,0,0,1,3.2637-8.3694c3.2948-4.1524,8.6616-6.4687,11.0186-11.3208a7.6962,7.6962,0,0,0-.1644-7.5823l-.4465-.8953c.2.42,1.0676-.6046-.3126-.6641-.2572-.011-.5123-.0018-.7678.0031a17.548,17.548,0,0,0-2.4979,3.4418c-1.7977,3.1824-4.368,6.96-7.9906,6.4744a4.6,4.6,0,0,1-2.5827-1.2689c-.2289.43-.4455.8665-.6348,1.3136C155.2813,62.5837,155.8319,69.2518,157.9933,75.0986Z" transform="translate(0 -2.5844)"/><path class="cls-2" d="M177.2969,44.7288c3.0916,1.0287,4.0241,5.2026,6.9152,6.7052,3.329,1.73,7.2685-.8483,11.02-.7508-4.0574-9.8833-14.6605-11.5127-21.23-5.882l-.3526.3261A4.509,4.509,0,0,1,177.2969,44.7288Z" transform="translate(0 -2.5844)"/><path class="cls-6" d="M189.12,53.7323c3.2608,1.0746,5.9243,4.67,7.7388,7.5845a25.166,25.166,0,0,0-1.6262-10.6336c-3.7518-.0975-7.6913,2.481-11.02.7508-2.8911-1.5026-3.8236-5.6765-6.9152-6.7052a4.509,4.509,0,0,0-3.6471.3985l-1.7961,1.6612C178.0074,58.0576,182.389,51.5141,189.12,53.7323Z" transform="translate(0 -2.5844)"/><path class="cls-6" d="M190.3536,137.949a345.8023,345.8023,0,0,1-49.2443-7.6947l-6.652,3.433a439.348,439.348,0,0,0,52.26,8.8886Z" transform="translate(0 -2.5844)"/><path class="cls-2" d="M112.6785,170.6249a78.3273,78.3273,0,0,1-3.6533,7.6757c11.4832,5.821,29.826,6.8165,38.7525,5.1248a44.185,44.185,0,0,0,12.3053-4.44q3.1182-2.9594,6.1108-6.0474C147.3842,178.6233,126.5961,177.4444,112.6785,170.6249Z" transform="translate(0 -2.5844)"/><path class="cls-6" d="M108.6643,168.3785a25.1265,25.1265,0,0,1-10.52-12.8754c-1.5615,1.4978-2.8248,2.7783-3.8908,3.9624,1.16,7.2526,6.3028,13.7857,12.6856,17.6788.6647.4054,1.3629.79,2.0862,1.1563a78.3273,78.3273,0,0,0,3.6533-7.6757A40.6476,40.6476,0,0,1,108.6643,168.3785Z" transform="translate(0 -2.5844)"/><path class="cls-9" d="M73.9488,211.6529A18.8,18.8,0,0,0,76.1,214.7342a5.5877,5.5877,0,0,0,1.2171.4963,3.7125,3.7125,0,0,0,1.35.1092c2.1536-.2285,1.8232-1.7967,1.2923-3.3967-1.3312-4.0124-.2205-8.4278-.7526-12.6088a15.0518,15.0518,0,0,1,2.7478,2.6251c1.3656,1.8633,1.9684,4.515,4.0793,5.4538.3722.1656.9591.1565,1.0237-.2457a86.866,86.866,0,0,0-3.7993-9.4408,23.3591,23.3591,0,0,0-2.7342-3.299,11.2535,11.2535,0,0,1-2.7866-5.6386,11.6955,11.6955,0,0,1-3.5234.8492,7.2427,7.2427,0,0,1-.9676-.0124C71.7586,197.363,70.3006,204.9627,73.9488,211.6529Z" transform="translate(0 -2.5844)"/><path class="cls-8" d="M65.7346,204.583c.7064,1.5036,6.7428,7.16,7.9154,8.25a12.3236,12.3236,0,0,0,2.45,1.9008,18.8,18.8,0,0,1-2.1514-3.0813c-3.6482-6.69-2.19-14.29-.7021-22.0271a6.2773,6.2773,0,0,1-4.293-1.9608C68.6665,193.3289,63.8311,200.5314,65.7346,204.583Z" transform="translate(0 -2.5844)"/><path class="cls-5" d="M95.6818,207.8818a1.6121,1.6121,0,0,0-.2989-1.2034c-.4382-.6132-1.0623-.6871-2.0452-2.087-.4292-.6114-.9612-1.57-1.7993-.9176a2.81,2.81,0,0,0-.6931,2.5392,3.1365,3.1365,0,0,0,1.5113,2.4621c.5515.1674,1.0167-.2323,1.56-.1559.3651.0513.7484.316,1.11.3435s.7351-.38.6549-.9809" transform="translate(0 -2.5844)"/><path class="cls-5" d="M98.1524,208.3125a2.8461,2.8461,0,0,0-.9811-.7684.9138.9138,0,0,0-.9935.7109c.5715.7139,1.2776.932,1.6833.5665A1.1212,1.1212,0,0,0,98.1524,208.3125Z" transform="translate(0 -2.5844)"/></svg>