<svg xmlns="http://www.w3.org/2000/svg" xmlns:xlink="http://www.w3.org/1999/xlink" enable-background="new 0 0 1000 441.2" viewBox="0 0 1000 441.2"><path fill="#e9a820" d="M801.5 293.7c8 30.4 13.2 61.5 15.4 92.8.1 1.4.2 2.9-.6 4.1-.8 1.2-2.4 1.8-3.9 1.8s-2.9-.4-4.4-.8c-8.5-2.3-17.6-3.7-26-1.4-3.6 1-7.6 2.5-10.7.6-3.3-2-3.4-6.5-3.1-10.2 2.6-30.3 10-60.1 17.3-89.7"/><path fill="#1d768a" d="M782.7 309.7c1.9-11.7.9-12.6.3-17.8-1.4-14.1 9.2-18.3 14.5-15 2.4 1.5 3.7 4.3 4.8 7 3.3 8.3-.7 5.9.9 20.8 2.8 26.4 3.2 27.5 2.3 30.3-2.8 8.7-17.8 8.5-22.5 4.2-3.6-3.3-3.5-8.6-3-13.3.7-5.6 1.4-10.6 2.7-16.2"/><path fill="none" stroke="#1d768a" stroke-linecap="round" stroke-miterlimit="10" stroke-width="2.298" d="M793.4 343.4v43"/><path fill="none" stroke="#1d768a" stroke-linecap="round" stroke-miterlimit="10" stroke-width="2.298" d="M800.8 342.7l5.4 46.7"/><path fill="none" stroke="#1d768a" stroke-linecap="round" stroke-miterlimit="10" stroke-width="2.298" d="M786 342.7l-5.3 46.7"/><path fill="none" stroke="#c20002" stroke-linecap="round" stroke-miterlimit="10" stroke-width="2.298" d="M793.4 340v-25.6"/><path fill="none" stroke="#255068" stroke-linecap="round" stroke-miterlimit="10" stroke-width="2.298" d="M797.8 338.9l1.7-25.5"/><path fill="none" stroke="#c20002" stroke-linecap="round" stroke-miterlimit="10" stroke-width="2.298" d="M788.8 338.9l-1.8-25.5"/><defs><path id="a" d="M784.5 255.9c-12.2 13.9-19 31.9-21.9 50.1-2.9 18.2-2.2 36.9-.7 55.3 1 12.3 2.3 24.5 3.9 36.7.6 4.6 1.3 9.3 2.5 13.8.5 1.9 1.2 3.9 2.5 5.4 2 2.5 5.3 3.7 8.5 3.8 3.2.2 6.3-.6 9.5-1.3 1.1-.2 2.2-.5 2.8-1.4.7-1 .6-2.3.4-3.5-1-5.4-2.8-10.6-2.8-16 0-7.1 2.9-14.3.6-21-1.4-4.1-4.7-7.5-5.3-11.7-1.2-7.6 6.2-13.8 7.7-21.4 1.4-7.5-3.1-14.9-2.7-22.5.4-6.6 4.6-12.7 4.2-19.4-.3-4.8-3-9.1-3.9-13.7-1-5.3.4-11 3.7-15.3l-9-17.9z"/></defs><clipPath id="b"><use overflow="visible" xlink:href="#a"/></clipPath><g clip-path="url(#b)"><path fill="#c88b0c" d="M801.5 293.7c8 30.4 13.2 61.5 15.4 92.8.1 1.4.2 2.9-.6 4.1-.8 1.2-2.4 1.8-3.9 1.8s-2.9-.4-4.4-.8c-8.5-2.3-17.6-3.7-26-1.4-3.6 1-7.6 2.5-10.7.6-3.3-2-3.4-6.5-3.1-10.2 2.6-30.3 10-60.1 17.3-89.7"/><path fill="#255068" d="M782.7 309.7c1.9-11.7.9-12.6.3-17.8-1.4-14.1 9.2-18.3 14.5-15 2.4 1.5 3.7 4.3 4.8 7 3.3 8.3-.7 5.9.9 20.8 2.8 26.4 3.2 27.5 2.3 30.3-2.8 8.7-17.8 8.5-22.5 4.2-3.6-3.3-3.5-8.6-3-13.3.7-5.6 1.4-10.6 2.7-16.2"/><path fill="none" stroke="#1d768a" stroke-linecap="round" stroke-miterlimit="10" stroke-width="2.298" d="M793.4 343.4v43"/><path fill="none" stroke="#1d768a" stroke-linecap="round" stroke-miterlimit="10" stroke-width="2.298" d="M800.8 342.7l5.4 46.7"/><path fill="none" stroke="#c20002" stroke-linecap="round" stroke-miterlimit="10" stroke-width="2.298" d="M786 342.7l-5.3 46.7"/><path fill="none" stroke="#c20002" stroke-linecap="round" stroke-miterlimit="10" stroke-width="2.298" d="M793.4 340v-25.6"/><path fill="none" stroke="#c20002" stroke-linecap="round" stroke-miterlimit="10" stroke-width="2.298" d="M797.8 338.9l1.7-25.5"/><path fill="none" stroke="#255068" stroke-linecap="round" stroke-miterlimit="10" stroke-width="2.298" d="M788.8 338.9l-1.8-25.5"/></g><path fill="#0c2d34" d="M802.2 288.4c.7 3.7-1 6.7-.7 12.7.1 2.4.6 5.4-.9 7.7-2.7 4.1-11.1 3.6-13.5 1.1-2.7-2.8-1.9-8.8-2.1-12.3-.2-3.4-1.5-7.6.3-11 3.2-6.3 15.5-5.5 16.9 1.8z"/><path fill="#e9a820" d="M791.7 292.8c8.4 30.3 19.6 59.8 33.4 88 .6 1.3 1.3 2.6 2.6 3.2 1.3.6 2.9.4 4.3-.4 1.3-.7 2.4-1.8 3.4-2.9 6.2-6.3 13.3-12 21.8-14.3 3.6-1 7.8-1.6 9.5-4.9 1.8-3.4-.3-7.3-2.5-10.4-17.5-24.9-38.9-46.9-60.1-68.8"/><path fill="#1d768a" d="M816 297.2c-7.5-9.2-7.1-10.5-9.2-15.2-5.8-12.9-17.1-11.2-20.1-5.6-1.3 2.5-1.1 5.6-.6 8.4 1.3 8.8 3.6 4.8 9.7 18.4 10.9 24.2 11 25.4 13.3 27.3 6.8 6 19.6-1.6 21.5-7.7 1.5-4.7-1.3-9.2-4.1-12.9-3.4-4.6-6.5-8.6-10.5-12.7"/><path fill="none" stroke="#1d768a" stroke-linecap="round" stroke-miterlimit="10" stroke-width="2.298" d="M823.8 331.7l21.6 37.1"/><path fill="none" stroke="#1d768a" stroke-linecap="round" stroke-miterlimit="10" stroke-width="2.298" d="M817 334.8l18.9 43.1"/><path fill="none" stroke="#1d768a" stroke-linecap="round" stroke-miterlimit="10" stroke-width="2.298" d="M829.8 327.3l28.1 37.7"/><path fill="none" stroke="#255068" stroke-linecap="round" stroke-miterlimit="10" stroke-width="2.298" d="M822.1 328.7l-12.9-22.1"/><path fill="none" stroke="#c20002" stroke-linecap="round" stroke-miterlimit="10" stroke-width="2.298" d="M817.7 329.9l-14.4-21.1"/><path fill="none" stroke="#255068" stroke-linecap="round" stroke-miterlimit="10" stroke-width="2.298" d="M825.5 325.4l-11.3-22.9"/><defs><path id="c" d="M774 266.4c-5.5 7.5-6.9 17.3-7 26.6-.6 37 15.5 74.4 44.3 97.7 5.4 4.4 11.4 8.4 18.2 9.9 6.8 1.6 14.6.3 19.5-4.6.4-.4.8-.9 1.1-1.4.4-.9.3-1.9.1-2.8-1.4-9.6-5.4-18.9-11.5-26.5-3.1-3.8-6.6-7.2-9.2-11.3-2.7-4.2-4.2-9.1-4.5-14-.2-3.3.2-6.7-1.1-9.8-2-5.1-7.6-7.7-11.5-11.6-2.5-2.5-4.3-5.5-5.2-8.9-1.2-4-1.1-8.3-2.9-12-1.5-3.3-4.3-5.8-7-8.2s-5.5-4.8-7.1-8.1c-1.6-3.2-1.9-7.4.3-10.2l-16.5-4.8z"/></defs><clipPath id="d"><use overflow="visible" xlink:href="#c"/></clipPath><g clip-path="url(#d)"><path fill="#c88b0c" d="M791.7 292.8c8.4 30.3 19.6 59.8 33.4 88 .6 1.3 1.3 2.6 2.6 3.2 1.3.6 2.9.4 4.3-.4 1.3-.7 2.4-1.8 3.4-2.9 6.2-6.3 13.3-12 21.8-14.3 3.6-1 7.8-1.6 9.5-4.9 1.8-3.4-.3-7.3-2.5-10.4-17.5-24.9-38.9-46.9-60.1-68.8"/><path fill="#255068" d="M816 297.2c-7.5-9.2-7.1-10.5-9.2-15.2-5.8-12.9-17.1-11.2-20.1-5.6-1.3 2.5-1.1 5.6-.6 8.4 1.3 8.8 3.6 4.8 9.7 18.4 10.9 24.2 11 25.4 13.3 27.3 6.8 6 19.6-1.6 21.5-7.7 1.5-4.7-1.3-9.2-4.1-12.9-3.4-4.6-6.5-8.6-10.5-12.7"/><path fill="none" stroke="#1d768a" stroke-linecap="round" stroke-miterlimit="10" stroke-width="2.298" d="M823.8 331.7l21.6 37.1"/><path fill="none" stroke="#1d768a" stroke-linecap="round" stroke-miterlimit="10" stroke-width="2.298" d="M817 334.8l18.9 43.1"/><path fill="none" stroke="#1d768a" stroke-linecap="round" stroke-miterlimit="10" stroke-width="2.298" d="M829.8 327.3l28.1 37.7"/><path fill="none" stroke="#0c2d34" stroke-linecap="round" stroke-miterlimit="10" stroke-width="2.298" d="M822.1 328.7l-12.9-22.1"/><path fill="none" stroke="#0c2d34" stroke-linecap="round" stroke-miterlimit="10" stroke-width="2.298" d="M817.7 329.9l-14.4-21.1"/><path fill="none" stroke="#c20002" stroke-linecap="round" stroke-miterlimit="10" stroke-width="2.298" d="M825.5 325.4l-11.3-22.9"/></g><path fill="#0c2d34" d="M788.4 288.6c1.2 3.6 4.2 5.3 7 10.6 1.1 2.1 2.2 5 4.6 6.2 4.4 2.2 11.4-2.5 12.2-5.8 1-3.8-2.8-8.6-4.3-11.7-1.5-3.1-2.5-7.3-5.8-9.4-5.9-3.8-16.1 3-13.7 10.1z"/><path fill="#cce7fa" d="M601.5 242.3c-1.6-.9-2.4-2.7-2.9-4.4-2.5-8.2-2.4-17.2.5-25.4.5-1.4 1-2.7 1.8-3.9 2.2-3.3 6-5.3 9.9-6.1 3.4-.7 7.1-.7 10.4.5 3.3 1.2 6.3 3.5 7.9 6.6 1.2 2.3 1.6 4.8 1.7 7.4.2 5.1-.9 10.3-3.2 14.8-1 1.9-2.2 3.8-2.5 5.9-.5 3.2.9 6.4.7 9.6 0 .2-.2.4-.3.3"/><path fill="#3fb1c7" d="M629.1 224.7c-.4-1.6-1.9-2.7-3.4-3.3-1.5-.6-3.2-.8-4.8-1.3-3.5-1.1-6.6-4.2-6.8-7.9-.1-2.4.9-4.7 2.1-6.8.6-1 1.2-2.2 1-3.3-2.1-.2-4.3-.1-6.5.4-3.9.8-7.7 2.8-9.9 6.1-.8 1.2-1.3 2.5-1.8 3.9-2.9 8.1-3 17.1-.5 25.4.5 1.7 1.3 3.6 2.9 4.4l18.5 4.1c.5-.6.7-1.4.8-2.2.3-3.2-.8-6.6.7-9.4 1-1.9 3.1-3.1 4.9-4.4 1.7-1.4 3.3-3.5 2.8-5.7z"/><path fill="#84d8f4" d="M607.7 215.9c.6-.7 1.8-.4 2.4.2.6.7.8 1.6.9 2.5.1.7.1 1.3 0 2-.1.9-.2 1.9-.1 2.8.1.9.7 1.9 1.6 2.1.1 0 .2.1.4 0s.4-.3.4-.5c.6-1.7.6-3.6.5-5.5-.1-1.2-.2-2.4-.6-3.5-.4-1.1-1-2.2-2-2.9-1-.8-2.6-1.1-3.6-.3"/><path fill="#3fb1c7" d="M750.4 83.6c-20.4 7.1-16.3 17-17 24-.3 3.1-1.5 6.2-1 9.3.3 1.8 1.1 3.4 1.6 5.2 1 3.3 1 7.1 3 9.9 2.5 3.4 7.4 4.2 11.4 2.9 7.6-2.6 12.7-12.4 16.5-19.7 1.1-2.2 2.2-4.5 2.9-6.8 2.1-7.6-.5-17.2-4-21.3-3.2-3.9-8.7-4.7-13.4-3.5"/><path fill="#3fb1c7" d="M765.8 90.3c-.7-.6-1.6-1.1-2.4-1.4-3.3-1.2-7-1-10.4-.4-5.4.9-10.9 2.9-14.4 7.1"/><path fill="#3fb1c7" d="M765 144.7c.8-2 .6-4.3-.2-6.3s-2-3.8-3-5.7c-2.3-4.2-3.9-9.2-2.3-13.7 1.1-3 3.5-5.7 3.1-8.9-.4-3-3.2-5.2-6-6.3-1.3-.5-2.7-1-3.8-1.7-11.6 3.7-9.9 10.8-9.2 31.6.1 2.9.2 5.9 1.1 8.6.9 2.8 2.7 5.4 5.3 6.6 1.7.8 5.1 1.3 8.7 1.2.3-.1.5-.2.8-.4 2.2-1.1 4.5-2.6 5.5-5z"/><path fill="#84d8f4" d="M745 104.6c.8-2.2 5.8-1.2 4.8 7.2-.1 1.1-.3 2.3.1 3.3s1.2.8 1.7-.1c.6-1.1 1-3.4 1.1-4.8.2-3.8-2.1-8.8-5.7-8.4-1 .1-1.9.7-2.3 1.6"/><path fill="#cce7fa" d="M772.5 138.5c-.7-6.2-6.2-6.5-4.1-35.1l-.4-.2c-6.1-2.3-7.2-3.3-13.4-1.7-.7.2-1.3.4-1.9.6 1.1.8 2.5 1.2 3.8 1.7 2.8 1.1 5.7 3.3 6 6.3.4 3.2-2.1 5.9-3.1 8.9-1.6 4.5 0 9.5 2.3 13.7 1 1.9 2.3 3.7 3 5.7.8 2 1 4.3.2 6.3-1 2.4-3.3 3.8-5.6 5-.3.1-.5.3-.8.4 2.7-.1 5.5-.6 7.7-1.6 3.9-1.8 6.8-5.8 6.3-10z"/><path fill="#ffaaa2" d="M787.9 174.1c-.2 3.4.2 6.6 1.4 9.7 1.4 3.4 3.9 6.1 5.4 9.4 3.7 8.1-1.2 17.2 0 25.6.6 4 2.3 7.7 2.9 11.7.7 4.7.2 9.6-.5 14.3-1.3 9.3-3.9 18.3-6.6 27.3h4c-5.7-15.2-11.1-30.8-13.4-47-2.5-17.8.2-34.9 3.8-52.3.5-2.6-3.4-3.7-4-1.1-3.5 17.3-6.4 34.4-4.1 52.1 2.2 17 7.7 33.4 13.7 49.4.7 1.8 3.4 2.1 4 0 4.9-16.7 10.1-33.8 5.1-51-2.5-8.7 1.5-16.8.3-25.4-.4-3.1-1.6-5.6-3.2-8.3-2.9-4.7-5.1-8.7-4.8-14.5.3-2.6-3.8-2.6-4 .1z"/><path fill="#cce7fa" d="M808.8 225.5c-3.2.6-6.5 1.2-9.7 1.8l.3 1.2c.8 3.6.8 7.4.5 11.1-.9 10.8-3.8 21.4-6.8 31.8.1 5.7.9 10.3 3.9 12.4 4.4-8.8 12-43.3 12.3-50.8 0-1.9 0-2.7-.5-7.5z"/><path fill="#fff" d="M790 174.1c-.4 3.5.3 7.1 1.9 10.3 1.6 3.2 4.1 5.9 5.3 9.2 2.8 7.4-1.1 15.6-.5 23.5 1.7-.2 3.4-.5 5-.7l6-.9c-1.1-9.1-2.9-23.8-5.8-48.3-1.3-10.8-2.7-15.6-12.2-23.1-9.5-7.5-21.1-13.1-33.1-12.8l-.8.2c-1.1 11 .2 22.2 3.6 32.8 4 12.1 9.7 9.3 18 11.4 1.1.3 2.3.7 3 1.6.4.5.7 1.6 1 3.1.5-2.7 1.1-5.3 1.6-8l7 1.7z"/><path fill="#e01563" d="M796.6 217.1c0 .5.1 1 .2 1.5.4 3 1.6 5.8 2.4 8.6 3.2-.6 6.5-1.2 9.7-1.8-.2-2.3-.6-5.5-1.2-10.1-2 .4-4 .6-6 .9-1.7.4-3.4.6-5.1.9z"/><path fill="#aae4f7" d="M793 243.9c-.6-5.1-1.8-10.1-3.2-15.1-.9-3.5-1.9-6.9-2.8-10.4-.3-1-.5-2.1-.7-3.1-2.6-12-3.5-28.2-4.9-35.1-1.7 8.9-3.2 17.8-3.4 26.8-.5 22.6 6.7 44.5 14.6 65.6.1-.4.3-.9.4-1.3-.1-7.8 1.1-17.9 0-27.4z"/><path fill="#3fb1c7" d="M799.4 228.5l-.3-1.2c-2.7.5-5.5 1-8.2 1.5-.3.1-.7.1-1 .1 1.3 5 2.6 10 3.2 15.1 1.1 9.5-.2 19.6 0 27.4 3-10.4 6-21 6.8-31.8.3-3.8.3-7.5-.5-11.1z"/><path fill="#cce7fa" d="M787.1 218.4c3.2-.4 6.3-.9 9.5-1.3-.5-7.9 3.3-16.1.5-23.5-1.3-3.3-3.7-6-5.3-9.2-1.6-3.2-2.2-6.8-1.9-10.3l-6.9-1.8c-.5 2.7-1.1 5.3-1.6 8 1.4 6.9 2.3 23 4.9 35.1.3 1 .5 2 .8 3z"/><path fill="#9f0f46" d="M796.6 217.1c-3.2.4-6.3.9-9.5 1.3.9 3.5 1.9 7 2.8 10.4.3 0 .7 0 1-.1 2.7-.5 5.5-1 8.2-1.5-.8-2.9-1.9-5.7-2.4-8.6 0-.5-.1-1-.1-1.5z"/><path fill="#3fb1c7" d="M686 266.8c-3.8 5.1-4.5 6.9-4.3 13.1.1 4.2.3 8.4 1.6 12.4.6 1.9 1.4 3.1 4.6 3.6 3.2.5 6.4.3 9.5-.7 1.9-.6 1.8-1.8.6-2.5-2.4-1.3-6.5.3-8-2.4-2.3-4.2 7.1-8.1 7.2-15.6.1-2.2-.8-4.4-.7-6.6.2-4.4 4.3-8.8 3.2-10.8-1.2-2.1-7.9-.7-11 3.9"/><path fill="#3fb1c7" d="M691.7 295.3c11.2.6 11.2.7 12.3.3 2.1-.7 2.4-3.1-.4-4.4-1-.5-2.2-.8-3-1.6-2-2.2-3.5-13.1-9.5-14.9-1.7-.5-3.7-.1-4.9 1.2-1.1 1.2-1.3 2.8-1.4 4.4-.2 5 1.7 14.9 6.6 15.3"/><path fill="#255068" d="M767.4 278.9c-6.7 1.1-13.6 1.3-20.3.7-.3.7-.6 1.4-.8 2.2-3.3 11.5 5.9 23.4 4.4 35.2-1.2 9.7-9.4 18-9.1 27.8.3 8.8 7.6 16.3 8 25.1.3 6.1-2.7 11.8-3.8 17.8-2.2 12.7 4.3 26.9-2.1 38.1-2.3 4-3.8 7.5-4.8 10.9 5.9-.1 11.9-.6 13.3-1.3 1.1-.5 1.3-2 1.4-3.2.7-13.1-.9-17.2.4-29.5 7.7-71.5 4.8-33.9 7.7-101.2.1-1.8-.6-7.1.5-8.5 1-1.3 5-2.2 6.6-3.1 6.7-3.7 6.8-7.6 7.4-13.1-2.9.9-5.8 1.6-8.8 2.1z"/><path fill="#fff" d="M797.2 261.7c-2.6-24.5-11-49.8-5.6-93.5h-30.7v10.3h-9.7c-5.1 9.4-10.1 21.1-8.9 28.5 1.4 8.5 8.9 14.3 15.7 19.7s13.8 12.3 13.4 20.9c-.7 13.7-18.8 19.7-24.1 32.1 4.6.4 9.2.4 13.8.1.2 0 .4 0 .6-.1.3 0 .5 0 .8-.1.7-.1 1.5-.2 2.2-.2.2 0 .4 0 .6-.1.8-.1 1.6-.2 2.4-.4.7-.1 1.4-.2 2.1-.4.2 0 .4-.1.6-.1.5-.1 1-.2 1.6-.3.2 0 .4-.1.6-.1.5-.1 1-.2 1.5-.4.2-.1.4-.1.6-.2.5-.1 1-.3 1.5-.4.1 0 .2 0 .3-.1 7.6-2.1 14.8-5.4 21.5-9.5-.5-1.9-.7-3.8-.8-5.7z"/><path fill="#cce7fa" d="M747.1 279.6c4.6.4 9.2.4 13.8.1.2 0 .4 0 .6-.1.3 0 .5 0 .8-.1.3 0 .6-.1.8-.1-.1-.1-4.7-11.3 3.1-20.6-6 7-15.5 12.4-19.1 20.8z"/><path fill="#cce7fa" d="M771.2 247.5c.4-8.6-6.6-15.5-13.4-20.9s-14.3-11.2-15.7-19.7c-1.2-7.3 3.8-19.1 8.9-28.5h-28.7c2.8 21.3 5.6 42.8 4 64.3-.8 10.3-2.5 20.8-3.1 31.1 7.6 3.1 15.6 5 23.8 5.7 5.4-12.3 23.6-18.3 24.2-32z"/><path fill="#fff" d="M769.9 173.8c2.1-14.3 1.5-42.5-12.6-42.5-3.7 0-7.3.6-10.6 1.6l3-.3c6.2-.1 12.9 2.7 15.7 8.3 4.5 9.1-2.5 19.3-8.2 27.7-3.1 4.6-7.5 12-10.7 19.5 10.3-.2 14.9-.2 18.5-3.1 3.2-2.6 4.3-7.1 4.9-11.2z"/><path fill="#fff" d="M611.6 323.3c6.8-1.3 13.4-3.4 20.1-5.4-.5-2-1-4-1.4-6-2.6-12.5-1.9-25.6 2-37.8 1.4-4.4 3.2-8.6 4.1-13.1.9-4.5.9-9.4-1.2-13.4-2.4-4.7-7.2-7.7-12.1-9.2-5.2-1.5-10.4-1.5-15.7-.6-2.1.4-4.2.4-6.3 1-2.1.7-4.1 1.6-5.9 2.9-2.5 1.7-4.6 3.8-6.2 6.3-5.3 8.2-4.7 18.7-4.8 28.5-.1 6.2-.5 12.4-1.2 18.6-.8 6.4-1.9 12.8-2.1 19.3-.1 2.3 0 4.6.1 6.9 9.4 4.2 20.4 4 30.6 2z"/><path fill="#fff" d="M605.7 240.5c-.7-1.3-1.4-1.8-3.5-1.6-11 1.3-20.9 11.5-30.4 20.2.4 1.3.9 2.6 1.4 3.9 7-5.6 15.1-12.3 19.7-15.4 7.5-4.9 1.1 9.8 9.4 6.5-.3.9-.7 1.9-1.1 2.8.9-.8 1.7-1.5 2.6-2.3 4.5-4.2 5.7-7.7 1.9-14.1z"/><path fill="#cce7fa" d="M593 247.6c-4.7 3.1-12.7 9.8-19.7 15.4 1.3 3.1 2.9 6.1 4.8 9 5.1-3 10.2-6.1 15.2-9.2l.5-.3c2.6-1.7 5.1-3.5 7.5-5.5.4-.9.8-1.8 1.1-2.8-8.4 3.2-1.9-11.5-9.4-6.6z"/><path fill="#fff" d="M640.4 269.4c.6 1 1.1 2.1 1.6 3.2 1.9-2.9 3.5-5.9 4.8-9.2-2.5-3.4-5.3-7.4-8.7-12-3.3-4.5-7-9.3-12.4-10.7-2.2-.5-4.9-.3-6.4 1.5-1.7 2.1-1 5.3-.2 7.9 1.6 4.9 6.2 20.3 10.6 22.8.6.3 1.3.9 2.1 1.5.4-1.9 1-3.8 1.8-5.6 2-3.8 4.7-3.1 6.8.6z"/><path fill="#cce7fa" d="M642 272.5c-.5-1.1-1.1-2.1-1.6-3.2-2-3.7-4.8-4.4-6.6-.4-.8 1.8-1.4 3.6-1.8 5.6 1.4 1.1 3.1 2.6 4.9 4.3 1.9-1.9 3.6-4 5.1-6.3z"/><path fill="#cce7fa" d="M648 283.7c3 4.5 7.2 8.5 12.4 9.9 8.5 2.2 30.8-2.8 44-.9.6-.5.9-1.5.7-2.3-.2-1.4-1.2-2.5-3.7-5.9-1.2-1.6-2.3-2.6-5.6-2.3-5.8.5-5.9 3.8-9.4 5.7-1.3.7-3 .9-4.4.5-10.1-2.4-16.2-1.8-18.7-3.2-1.7-1-1.4-.7-16.6-21.8-1.2 3.2-2.8 6.3-4.8 9.2 2 3.7 3.8 7.6 6.1 11.1z"/><path fill="#3fb1c7" d="M660.4 293.6c-5.2-1.4-9.4-5.4-12.4-9.9-2.3-3.5-4.1-7.4-6-11.2-1.5 2.2-3.2 4.3-5.1 6.3 7 6.4 16.3 15.5 19.8 16.9 5.1 2 29.5.5 29.6.5 1.6.8 3.3 1.8 6.7-.5 2.2-1.5 4.6-3.9 8.4-2.9.8.2 1.6.5 2.3.3.2-.1.4-.2.6-.4-13.1-1.9-35.4 3.1-43.9.9z"/><path fill="#cce7fa" d="M617.9 300.5c-2.3-2.9-5.8-4.6-8-7.6-4-5.4-2.4-13.1.8-19s7.8-11 10-17.4c1.2-3.5 1.5-7.5 0-11-2.1-4.8-7.2-7.2-12.6-7.8-.2 0-.4.1-.6.1-2.1.4-4.2.4-6.3 1-2.1.7-4.1 1.6-5.9 2.9-2.5 1.7-4.6 3.8-6.2 6.3-5.3 8.2-4.7 18.7-4.8 28.5-.1 6.2-.5 12.4-1.2 18.6-.8 6.4-1.9 12.8-2.1 19.3-.1 2.3 0 4.6.1 6.9 9.4 4.1 20.5 3.9 30.7 1.9 1.6-.3 3.1-.7 4.7-1 4.2-6.5 6.3-15.6 1.4-21.7z"/><path fill="none" d="M606.1 361.8c-.1 2.4-.3 4.7-.4 7h8.1c-1.1-6.7-2.4-14.2-3.8-22.5-1.8 2.9-3.4 6-3.9 15.5z"/><path fill="#e9a820" d="M618.9 344.9c3.6 4.7 12 6.6 5.7 23.4-.1.2-.1.3-.2.5h9.3c-1.2-17.8-1.1-21.4-.8-26.3.3-4.3.9-8.7.7-13-.2-3.9-1.1-7.8-2-11.6-4.9 1.5-9.7 3-14.6 4.2-2.1 7.9-1.9 17.7 1.9 22.8z"/><path fill="#e9a820" d="M614.3 322.7c.6-.1 1.3-.3 1.9-.4-.6.1-1.3.3-1.9.4z"/><path fill="#e9a820" d="M611.6 323.3c.8-.1 1.5-.3 2.3-.5-.8.2-1.5.4-2.3.5z"/><path fill="#e9a820" d="M584.3 353.4c-.1-1.1-.2-2.1-.3-3.2.1 1.1.2 2.1.3 3.2z"/><path fill="#e9a820" d="M583.8 348.1c-.1-1.2-.2-2.3-.4-3.5.2 1.2.3 2.4.4 3.5z"/><path fill="#e9a820" d="M583.3 342.9c-.2-1.7-.4-3.5-.6-5.2.2 1.7.4 3.5.6 5.2z"/><path fill="#e9a820" d="M610 346.2l1.3-17.9c-6.5 7-14.1 13-17.9 22.1-1.3 3.1-2.2 6.6-1 9.8 1 2.7 3.5 4.8 4.3 7.6.1.3.2.6.2 1h8.9c.1-2.2.2-4.5.4-7 .4-9.5 2-12.6 3.8-15.6z"/><path fill="#e9a820" d="M585.2 363.9c-.1-1-.2-2-.2-3 0 1 .1 2 .2 3z"/><path fill="#e9a820" d="M584.8 358.6l-.3-3 .3 3z"/><path fill="#c88b0c" d="M583.4 344.7c-.1-.6-.1-1.2-.2-1.7.1.5.2 1.1.2 1.7z"/><path fill="#c88b0c" d="M585.4 366.3c-.1-.8-.1-1.6-.2-2.4 0 .8.1 1.6.2 2.4z"/><path fill="#c88b0c" d="M584 350.2c-.1-.7-.1-1.4-.2-2.1.1.7.1 1.4.2 2.1z"/><path fill="#c88b0c" d="M585 361c-.1-.8-.1-1.6-.2-2.3 0 .7.1 1.5.2 2.3z"/><path fill="#c88b0c" d="M584.5 355.6c-.1-.7-.1-1.5-.2-2.2.1.7.2 1.5.2 2.2z"/><path fill="#c88b0c" d="M596.8 368.8c0-.3-.1-.6-.2-1-.8-2.8-3.3-4.8-4.3-7.6-1.2-3.1-.3-6.7 1-9.8 3.8-9.1 11.4-15.1 17.9-22.1l.4-5.1c-10.2 2-21.2 2.2-30.7-1.9.3 5.5 1 10.9 1.7 16.3.2 1.7.4 3.5.6 5.2.1.6.1 1.2.2 1.7.1 1.2.3 2.3.4 3.5.1.7.1 1.4.2 2.1.1 1.1.2 2.1.3 3.2.1.7.1 1.5.2 2.2l.3 3c.1.8.1 1.6.2 2.3.1 1 .2 2 .2 3 .1.8.1 1.6.2 2.4.1.8.1 1.7.2 2.5h11.2z"/><path fill="#c88b0c" d="M613.9 322.8c.1 0 .3-.1.4-.1-.1.1-.3.1-.4.1z"/><path fill="#c88b0c" d="M616.2 322.3c.3-.1.6-.1.9-.2-.3 0-.6.1-.9.2z"/><path fill="#c88b0c" d="M613.9 325.4l1.7 1.6c-1.2 12.5-3.5 15.8-5.5 19.2 1.4 8.4 2.7 15.9 3.8 22.5h10.6c.1-.2.1-.3.2-.5 6.2-16.8-2.2-18.7-5.7-23.4-3.8-5.1-4.1-14.9-1.9-22.8-.3.1-.6.1-.9.2-.6.2-1.3.3-1.9.4-.1 0-.3.1-.4.1-.8.2-1.5.3-2.3.5l2.3 2.2z"/><path fill="#c88b0c" d="M610 346.2c2.1-3.4 4.4-6.7 5.5-19.2l-1.7-1.6c-.8 1-1.7 2-2.6 3l-1.2 17.8z"/><path fill="#c88b0c" d="M613.9 325.4l-2.3-2.1 2.3 2.1z"/><path fill="#c88b0c" d="M613.9 325.4l-2.3-2.1-.4 5.1c1-1 1.8-2 2.7-3z"/><path fill="#c88b0c" d="M610.8 346.6c-.6-1.2-2-1.7-3.3-1.8-6.1-.4-14.7 3.6-15 9.4-.2 3.4 3 11.3 3 11.3-.5.5-3.8 1.9-4.4 1.4-1.6-1.2-5-10.7-3.3-19.9 2.5-13.5 13.8-22.5 25.9-21.6.2 0 .3 0 .4.2 0 .1-.2.3-.2.1"/><path fill="#cce7fa" d="M554.8 264.1c.3 1.6.6 3.3 1.3 4.8.7 1.5 2.1 2.8 3.8 3 1.6.2 7.1-4 13.4-9-.5-1.3-1-2.6-1.4-3.9-3.4 3.1-6.7 6-10 8.2-3.6-5.6-6.9-11.3-9.8-17.3-.7-1.5-.9-3.1-.6-4.7 1.3-5.7 6.9-10.1 5.1-11.2-.2-.1-.5-.1-.7-.1-2.8.2-4.7 3.3-6.4 3.9-.1-.1 0 .9-.2-.1-.7-3.6-1.8-8.8-2.9-13.4-.1-.4-.5-.8-.9-.8-.8 0-1 1-.9 1.7.3 3.2.7 6.3 1.3 9.5-.9-3.2-1.9-6.4-3.1-9.5-.6-1.5-1.2-1.7-2.3-1.5-.8.1-1.4.3-1.8.6 1.1 9 4.1 17.8 8.9 25.6 3.5 6 5.5 6 7.2 14.2z"/><path fill="#3fb1c7" d="M537.4 226.7c-.4 3.1.1 6.3 1 9.3-.1-.1-.1-.2-.2-.3-.7-1.1-1.4-2.2-2-3.3-.6-1.2-1.2-2.5-2.1-3.4-.5-.4-1.2-.1-1.1.6.3 2.9 1.7 5.6 3 8.2 5.6 10.8 6.7 10.7 7.9 13.4 11.5 30.3 11.2 29 12.8 29.9 2.5 1.4 9-2.2 12.1-3.9 3.1-1.7 6.2-3.4 9.2-5.2-1.9-2.8-3.5-5.8-4.8-9-6.3 5-11.8 9.1-13.4 9-1.7-.2-3-1.5-3.8-3-.7-1.5-1-3.2-1.3-4.8-1.7-8.3-3.7-8.2-7.3-14.1-4.7-7.8-7.8-16.5-8.9-25.6-.7.4-.9 1.2-1.1 2.2z"/><path fill="#255068" d="M637.8 211.8c-1.9-.1-3.8.2-5.6.8 1-4.3-1.9-10.4-10.9-12.9-4.2-1.2-8.2-1.1-11.7 0 1.9-.4 4-.2 5.8.6.6.3 1.2.6 1.5 1.2.7 1.2-.1 2.7-.8 3.9-1.2 2.1-2.3 4.4-2.1 6.8.2 3.7 3.3 6.8 6.8 7.9 1.6.5 3.2.7 4.8 1.3 1.5.6 3 1.7 3.4 3.3.5 2.2-1.1 4.2-2.8 5.6-1.4 1.1-3 2.1-4.1 3.4.8.3 1.6.5 2.4.7.5.1 1.1.2 1.6.1.7-.2 1.3-.7 1.8-1.3 2.4-2.6 4.1-5.8 4.8-9.3.5-2.5.3-5.2-.5-7.7 1.5-1.7 3.4-3.2 5.6-4.4z"/><path fill="#0c2d34" d="M626.3 230.3c1.7-1.4 3.3-3.4 2.8-5.6-.4-1.6-1.9-2.7-3.4-3.3-1.5-.6-3.2-.8-4.8-1.3-3.5-1.1-6.6-4.2-6.8-7.9-.1-2.4.9-4.7 2.1-6.8.7-1.2 1.5-2.7.8-3.9-.3-.6-.9-.9-1.5-1.2-1.8-.8-3.9-1-5.8-.6-6.1 1.9-10.8 6.8-13.3 13.1 2.7-.8 5.4-1.5 8.1-1.9 0 .7.2 1.4.4 2 .1.2.2.3.3.5-.2 1.5-.2 3 0 4.5s.6 3.1 1.9 3.8c.3-1.8.5-3.6.6-5.4.1-.2.2-.3.3-.4 1.7-2.2 5-.5 3.9 4.4-.3 1.4-.8 2.8-.8 4.3.1 2.2 1.3 4.1 3 5.5 1.7 1.4 5 2.9 7.7 3.7.1 0 .2.1.4.1 1.1-1.5 2.7-2.5 4.1-3.6z"/><path fill="#255068" d="M767.4 278.9c-1.5.2-2.9.4-4.4.6l2.1 12c1.4-.5 2.9-1 3.7-1.4 6.7-3.7 6.8-7.6 7.4-13.1-2.9.7-5.8 1.4-8.8 1.9z"/><path fill="#0c2d34" d="M763 279.5c-5.3.6-10.6.6-15.9.1-.3.7-.6 1.4-.8 2.2-2.2 7.7 1.1 15.5 3.2 23.5-1-5.4 1.4-10.6 6.3-12.8 1.1-.5 2.3-.8 3.4-.4 1.4.5 2.1 2 2.4 3.5.1-1.1.2-2 .6-2.5.5-.6 1.6-1.1 2.9-1.6l-2.1-12z"/><path fill="#1d768a" d="M763.2 421.3c-1.7-.9-3.7-1.1-5.6-.6-.6 3.5-1.1 7.4-.9 12.1 0 .9.1 2 .9 2.6.5.4 2.1.7 4.5 1-.8-5.1-.4-10.3 1.1-15.1z"/><path fill="#0c2d34" d="M763.2 421.3l.6-1.8c1.4-3.7 3.5-7.2 4.4-11.1 2.3-9.4-2-20.1 2.6-28.6 2.5-4.7 7.4-8 8.6-13.2 1.3-5.9-2.8-11.5-4.3-17.3-1.3-4.6-.9-9.6 1-14 2.7-6.2 8.3-11.2 9.3-17.9 1.1-7.1-3.5-13.8-8.4-19.1-4.9-5.2-10.7-10.1-13.3-16.8-.2-.6-.5-1.3-.6-2-.7.1-1.4.1-2.2.2v13c2.8 17.5 5 35.1 6.7 52.8.8 8.2 1.2 2.2-7.8 64.4-.5 3.2-1.4 6.7-2.1 10.8 1.8-.5 3.8-.3 5.5.6z"/><path fill="#255068" d="M796.9 317.9c1-16.8 2-33.8.7-50.6-9.2 5.8-19.5 9.7-30.2 11.5-1.5.2-2.9.4-4.4.6.2.7.4 1.3.6 2 2.6 6.7 8.4 11.6 13.3 16.8 4.9 5.2 9.5 11.9 8.4 19.1-1 6.7-6.6 11.7-9.3 17.9-1.9 4.4-2.2 9.4-1 14 1.6 5.8 5.7 11.4 4.3 17.3-1.2 5.2-6.1 8.5-8.6 13.2-4.6 8.5-.2 19.2-2.6 28.6-1 3.9-3 7.4-4.4 11.1l-.6 1.8c1.1.5 2 1.3 2.7 2.2.9 1.2 1.4 2.7 2.4 3.8.8.9 2 1.5 3 .9.7-.4 1-1.2 1.3-2 .3-1.1.6-2.1 1.2-3.1.1-.2.2-.3.3-.5 0-.1-.1-.2-.1-.2-.4-1.4-.5-2.9-.5-4.4 0-2.6.4-5.2 1.2-7.8 20.5-67.3 20.7-64.3 22.3-92.2z"/><path fill="#3eb991" d="M772.6 426.3c-.2.8-.6 1.6-1.3 2-1 .5-2.3-.1-3-.9-1-1.1-1.5-2.6-2.4-3.8-.7-1-1.6-1.7-2.7-2.2-1.5 4.8-1.9 10-1.2 15 4.5.5 11.4.7 17.4.1 1.4-.1 3.1-.5 3.7-1.7.3-.5.3-1.1.3-1.7 0-.7 0-1.4-.3-1.9-.7-1.2-2.3-1.4-3.6-1.9-2.8-1-4.6-3.7-5.4-6.4-.1.2-.2.3-.3.5-.6.7-.9 1.8-1.2 2.9z"/><path fill="none" d="M750.7 311.6c0 .3.1.5.1.8-.1-.2-.1-.5-.1-.8z"/><path fill="none" d="M750.5 310.5c0 .3.1.5.1.8 0-.3 0-.5-.1-.8z"/><path fill="none" d="M750.2 308.5c0 .2.1.4.1.5 0-.2-.1-.3-.1-.5z"/><path fill="none" d="M750.4 309.5c0 .2.1.4.1.6-.1-.2-.1-.4-.1-.6z"/><path fill="none" d="M750 307.3c0 .1.1.2.1.4-.1-.1-.1-.2-.1-.4z"/><path fill="none" d="M750.8 316c0 .3-.1.7-.1 1 0-.3 0-.6.1-1z"/><path fill="#0c2d34" d="M742.6 427c.3-.2.6-.4.8-.7.1-.2.2-.3.3-.5 6.4-11.2-.1-25.4 2.1-38.1 1-6 4.1-11.7 3.8-17.8-.4-8.8-7.7-16.3-8-25.1-.4-9.8 7.9-18 9.1-27.8 0-.3.1-.7.1-1v-3.6c0-.3 0-.5-.1-.8v-.3c0-.3-.1-.5-.1-.8 0-.1 0-.3-.1-.4 0-.2-.1-.4-.1-.6 0-.2-.1-.3-.1-.5s-.1-.4-.1-.5c-.1-.3-.1-.5-.2-.8 0-.1 0-.2-.1-.4 0-.2-.1-.4-.1-.6v-.1c-.1-.5-.2-.9-.3-1.4-2-7.9-5.4-15.8-3.2-23.5.2-.8.5-1.5.8-2.2-8.1-.7-16.2-2.6-23.8-5.7-.4 8.1-.1 16.2 2.1 24 2.8 10.3 4.6 9.9 5.8 27.4 1.9 29.3 4.3 58.6 7 87.9.2 3.3-.9 5.6-2.4 7.6 1.2 2 2 3.6 2.5 4.3 2.1 3.6 4 2.2 4.3 2z"/><path fill="#255068" d="M754 402.7c7.7-71.5 4.8-33.9 7.7-101.2.1-1.2-.2-3.9-.1-6-.3-1.6-1-3-2.4-3.5-1.1-.4-2.4-.1-3.4.4-5 2.3-7.4 7.4-6.3 12.8.1.5.2.9.3 1.4v.1c0 .2.1.4.1.6 0 .1.1.2.1.4.1.3.1.5.2.8 0 .2.1.4.1.5 0 .2.1.3.1.5s.1.4.1.6c0 .1 0 .3.1.4 0 .3.1.5.1.8v.3c0 .3.1.5.1.8v3.6c0 .3-.1.7-.1 1-1.2 9.7-9.4 18-9.1 27.8.3 8.8 7.6 16.3 8 25.1.3 6.1-2.7 11.8-3.8 17.8-2.2 12.7 4.3 26.9-2.1 38.1-.1.2-.2.3-.3.5 2.2-2.1 3-5.7 5.8-6.8 1.1-.5 2.9-.4 4.4-.2-.1-5-.4-9.4.4-16.6z"/><path fill="#255068" d="M750.3 309c0 .2.1.3.1.5 0-.2-.1-.3-.1-.5z"/><path fill="#255068" d="M749.8 306.7c0 .2.1.4.1.6 0-.2 0-.4-.1-.6z"/><path fill="#255068" d="M749.5 305.3c.1.5.2.9.3 1.4-.1-.5-.2-1-.3-1.4z"/><path fill="#255068" d="M750 307.7c.1.3.1.5.2.8-.1-.3-.1-.5-.2-.8z"/><path fill="#255068" d="M750.7 312.4v.2c.1 0 0-.1 0-.2z"/><path fill="#255068" d="M750.6 311.3v.3c.1-.1 0-.2 0-.3z"/><path fill="#255068" d="M750.5 310.1c0 .1 0 .3.1.4-.1-.1-.1-.3-.1-.4z"/><path fill="#1d768a" d="M726.5 428.8c-2.4 2-2.3 5.6-.9 6.7 1.1.9 7.3 1.2 13.4 1.1 1-3.3 2.4-6.6 4.5-10.4-.3.3-.5.5-.8.7-.3.2-2.2 1.6-4.4-1.8-.4-.7-1.3-2.3-2.5-4.3-.8 1.1-1.8 2.2-2.9 3.2-3.9 4.3-4.4 3.2-6.4 4.8z"/><path fill="#3eb991" d="M749.3 419.5c-2.8 1.1-3.7 4.7-5.8 6.8-2.1 3.8-3.5 7.1-4.5 10.4 5.9-.1 11.9-.6 13.3-1.3 1.1-.5 1.3-2 1.4-3.2.3-5.5.2-9.3 0-12.9-1.5-.2-3.3-.3-4.4.2z"/><path fill="#9f0f46" d="M710.5 226.9c.2-1 .3-2.1.4-3.1-3.7-1.2-7.4-2.7-10.9-4.5-.8 3.1-1.6 6.3-2.5 9.4 3.6 2 7.3 3.6 11.2 5 .8-2.2 1.4-4.5 1.8-6.8z"/><path fill="#e01563" d="M710.5 226.9c-.4 2.3-1 4.6-1.7 6.8 1.6.6 3.3 1.1 4.9 1.5 1.4-3.2 2.7-6.4 4-9.6-2.3-.5-4.5-1.1-6.8-1.8-.1 1-.2 2.1-.4 3.1z"/><path fill="#fff" d="M711.7 218.2c-.4 1.8-.6 3.7-.8 5.6 2.2.7 4.5 1.3 6.8 1.8 2.8-7.3 5.1-14.7 7-22.3.6-2.3 1.1-4.2 1.7-5.9-7.4 4.5-13 12.3-14.7 20.8z"/><path fill="#cce7fa" d="M741.8 188.2c1.6 0 3.1-.1 4.6-.1 3.2-7.5 7.6-15 10.7-19.5 5.7-8.4 12.7-18.6 8.2-27.7-2.8-5.6-9.4-8.4-15.7-8.3-1 0-2 .1-3 .3-8.9 2.7-16.6 8.4-24.1 14-7.5 5.5-9.8 8.1-12 22-2.7 17-6.2 33.8-10.4 50.5 3.5 1.8 7.1 3.3 10.9 4.5.2-1.9.4-3.7.8-5.6 1.7-8.6 7.2-16.3 14.7-20.8 2.7-7.4 6.5-9 15.3-9.3z"/><path fill="#cce7fa" d="M695 262.1c-1 2.3-2 4.8-1.8 7.3.3 4.3 3.9 7.7 5.5 11.7 1 2.8 1.1 5.7.9 8.7.1.3.3.5.4.8.8 1.3 2.1 2.7 3.6 2.3-1-3.4-1.5-6.8-1.6-10.3 0-1.2 0-2.3-.2-3.4-.9-4.1-5-7.1-5.1-11.3 0-.9.1-1.7.3-2.6 6.5-9.5 12.1-19.5 16.8-30-1.7-.4-3.3-1-4.9-1.5-3.4 9.8-9.6 18.7-13.9 28.3z"/><path fill="#3fb1c7" d="M698.6 281.1c-1.5-4.1-5.1-7.4-5.5-11.7-.2-2.5.8-5 1.8-7.3 4.3-9.6 10.5-18.5 13.8-28.4-3.9-1.3-7.6-3-11.2-5-2.6 9.4-5.4 18.8-8.4 28.1-1.3 3.8-2.6 7.6-3.1 11.6-.2 1.4-.3 2.8.3 4.1 0 .1.1.2.2.3-.1.9-.1 1.8 0 2.7l.4.6c1.2 1.8 3.1 3.1 5.1 3.5.9.2 1.9.3 2.7.7 1.5.8 2 2.7 2.6 4.3.6 1.8 1.4 3.5 2.4 5.2 0-3 0-5.9-1.1-8.7z"/><path fill="#0c2d34" d="M759.5 119c1.1-3 3.5-5.7 3.1-8.9-.4-3-3.2-5.2-6-6.3-2.1-.9-4.7-1.6-5.5-3.8-.4-1-.3-2.1 0-3.2-4.4.7-6.9.9-9.6.7-.8-.1-1.6-.3-2.5-.6 0 2.4.7 5.1.9 7.5.1.7.1 1.3.4 1.9.6 1.2 1.8 1.9 2.2 3.1.2.6.1 1.2.2 1.8 0 .6.1 1.3.5 1.7s1.2.6 1.6.2c0-1.9-.1-3.7-.1-5.6 0-1.3 0-2.9 1-3.7 1-.8 2.6-.6 3.6.2s1.5 2.1 1.7 3.4c.3 1.8 0 3.7-.7 5.3-.2.5-.5 1-.6 1.6-.1.5.1 1.1.2 1.6 1 4 2.9 7.7 5.5 10.9.5.6 1.1 1.3 1.8 1.6.7.3 1.5.3 2.2.2h.5c-1.1-3.2-1.5-6.5-.4-9.6z"/><path fill="#255068" d="M769 112.1c.4-4.8 1.7-9.5 1.1-14.3-.2-1.6-.7-3.2-1.3-4.7-.4-.8-.8-1.7-1.5-2.3-.4-.4-.9-.7-1.4-.9.1 1.8-.8 3.6-3.1 4.7-1.4.7-3 .9-4.5 1.2-3 .5-5.4.9-7.4 1.2-.3 1.1-.4 2.2 0 3.2.8 2.1 3.4 2.9 5.5 3.8 2.8 1.1 5.7 3.3 6 6.3.4 3.2-2.1 5.9-3.1 8.9-1.1 3.1-.7 6.4.4 9.5 2.7-.1 5.5-.2 8.2-.3.3 0 .6 0 .8-.2.3-.2.3-.7.3-1.1 0-5.1-.5-10.1 0-15z"/><path fill="#255068" d="M751.7 83.1c1.9.5 4.1 1.8 4 3.8-.1.9-.6 1.8-1.2 2.5-.3.4-.5.8-.7 1.2 2.2-.5 4.4-.9 6.7-1.1 1.8-.2 3.8-.3 5.5.4-.3-4.3-6.3-9.2-13.4-8.9-2.7.1-5.4.9-7.8 2.2 2.2-.6 4.6-.6 6.9-.1z"/><path fill="#0c2d34" d="M744.5 93.1c3-1 6.1-1.9 9.3-2.5.2-.4.5-.8.7-1.2.5-.8 1.1-1.6 1.2-2.5.1-2-2-3.3-4-3.8-2.3-.5-4.7-.5-7 0-1.7.9-3.4 2-4.9 3.2-2.7 2.2-5.2 5-8.6 5.6 1.5 2 4.8 4 7.7 5v-.8c.2-1.8 4.1-2.4 5.6-3z"/><path fill="#0c2d34" d="M751 96.9c.1-.5.3-.9.4-1.3.6-1.7 1.4-3.4 2.4-5-3.1.7-6.2 1.5-9.3 2.5-1.6.5-5.4 1.1-5.6 3.1v.8c.9.3 1.7.5 2.5.6 2.7.3 5.2 0 9.6-.7z"/><path fill="#255068" d="M760.5 89.5c-2.2.3-4.5.7-6.7 1.1-.9 1.6-1.8 3.2-2.4 5-.2.4-.3.9-.4 1.3 2-.3 4.4-.7 7.4-1.2 1.5-.2 3.1-.5 4.5-1.2 2.3-1.1 3.2-2.9 3.1-4.7-1.7-.7-3.7-.5-5.5-.3z"/><path fill="#e01563" d="M574.9 432.9c-.1 3.4 2 4 4.8 3.8 17.3-1.1 21.1 1.5 21.9-3.1.3-1.9.3-7.7.3-9.9v-.6c-.1 0-.2.1-.3.1-1 .5-1.9 1.4-2.5 2.5-.6.9-1 2-1.8 2.7-.8.7-2 .8-3 .5-1-.3-1.9-1-2.6-1.9-.5-.6-1-1.3-1.5-1.9-1-1.1-2.4-1.8-3.8-1.9-4.5 4-5.6 3.4-8.2 4.5-2.3 1-3.2 2.6-3.3 5.2z"/><path fill="#9f0f46" d="M578.1 427.8c-2.3 1-3.2 2.5-3.2 5.1-.1 3.4 2 4 4.8 3.8.9-.1 1.7-.1 2.5-.1 2.7-1.7 5.5-3.1 7.6-5.6.9-1.1 1.5-2.4 2.1-3.7l-.2-.2c-.5-.6-1-1.3-1.5-1.9-1.1-1.1-2.4-1.8-3.9-1.9l-.2.2c-4.3 3.7-5.4 3.2-8 4.3z"/><path fill="#cce7fa" d="M592.5 382.8c-1.4 5.1.1 10.5 1 15.8 1.3 7.5 1.2 15.3-.1 22.8-.4 2-.8 4-1.5 5.8l-.2-.2c.7.9 1.6 1.6 2.6 1.9 1 .3 2.1.2 3-.5.8-.7 1.2-1.7 1.8-2.7.6-1.1 1.5-2 2.5-2.5.1 0 .2-.1.3-.1 0-1.3.3-7.7 2.5-54.4H597c.6 4.9-3.2 9.3-4.5 14.1z"/><path fill="#3fb1c7" d="M593.4 421.4c1.3-7.5 1.4-15.3.1-22.8-.9-5.2-2.4-10.7-1-15.8 1.3-4.8 5.1-9.2 4.5-14h-9.4c1 17.7 1.2 35.9.5 52.9-.6.6-1.1 1.1-1.6 1.5 3.1.2 4.4 2.7 5.4 3.8l.2.2c.5-1.9 1-3.9 1.3-5.8z"/><path fill="#e01563" d="M632.8 436.1c.4.1.8-.1 1.1-.3 1.4-.7 2.8-1.4 4-2.6 2.2-2.2 2.6-5.4.4-8-.9-1-3-2.7-4.1-2.9-1.2-.3-2.5.4-3.3 1.4-1.7 2.3-1.3 5.4-.8 8.3.3 1.7 1 3.5 2.5 3.6"/><path fill="#9f0f46" d="M634.2 435.6c.7-.4 1.3-1 1.6-1.8.4-1.1.1-2.4 0-3.5-.3-2.1-.3-5.1-.4-7-.2.8-.4 1.6-.5 2.5-.1 1-.3 2.3-1.1 2.7-.7.3-1.4-.1-2-.6-.7-.5-1.3-1.2-1.8-1.9-.3-.4-.6-.9-1-1.2-.4-.3-.8-.5-1.3-.6-1.4-.3-3 .1-4 1.2.5 3.9 1.1 9 1.4 9.6 1 1.9 7.2 1.6 9.1.6z"/><path fill="#cce7fa" d="M622.2 385c.7 2.5 2.2 4.7 3 7.1 2.1 6.1.4 13 0 19.6-.2 4.2.1 8.4.9 12.5.5-.1 1.1-.1 1.6.1.5.1.9.3 1.3.6s.7.8 1 1.2c.5.7 1.2 1.3 1.8 1.9.6.5 1.3.9 2 .6.8-.4 1-1.7 1.1-2.7.1-.8.3-1.7.5-2.5 0-.3 0-.6-.1-.8-1.7-26.1-2.8-42.7-3.4-53.7h-7.6c-1.8 5.2-3.6 10.8-2.1 16.1z"/><path fill="#3fb1c7" d="M625.2 411.7c.3-6.6 2.1-13.5 0-19.6-.9-2.5-2.3-4.6-3-7.1-1.5-5.3.4-11 2-16.3h-8.7c8.2 57 7.6 53 7.8 53.2.1.9.2 2.1.4 3.5l.4-.4.1-.1c.1-.1.3-.2.4-.3h.1c.1-.1.3-.1.4-.2h.1c.1-.1.3-.1.4-.2h.1c.1 0 .2-.1.4-.1h.1c-.8-4-1.2-8.2-1-12.4z"/><path fill="#9f0f46" d="M629.3 436.4c-1.3-4-2.4-8.1-3.2-12.2-.9.1-1.8.6-2.5 1.3.5 3.9 1.1 9 1.4 9.6.6.9 2.4 1.3 4.3 1.3z"/></svg>