<svg xmlns="http://www.w3.org/2000/svg" viewBox="0 0 250 250"><path d="M-142.4 125s10 18.9 21.7 9.4c11-8.9 19.8-18 33.9-12.7 1.7.7 2.8 2.3 2.8 4.1v1.2c0 3-3 5.2-5.8 4.1-5.7-2-14.4-3.4-20.7 3.4-10.2 10.9-24.4 10.7-32.5-2.5l.6-7z" fill="#d43129"/><path d="M-144.8 100.9s8.2-5.8 9.6-12.5 1-11 8.6-13.4c7.7-2.4 17.3-.7 22.5 10.1 5.5 11.5-4.3 18-4.3 18l-3.7.8v.1c-2.8 4.1-3.2 4.2-5.2 5.6l-6.5 4.3-1.9 1c.1-.2-8.1-16-19.1-14z" fill="#f8f8f5"/><path d="M-121.3 111.5c3.5-3.1 6.3-6.8 8.1-11.1l.1-.2 7-6.4s-14.5-5.9-15.7-2.2c-4.8 13.5-17.3 10.3-17.3 10.3s13 10 17.8 9.6z" opacity=".4" fill="#549cea"/><path d="M-169.5 77.4s2.3-7.1 5.6-9.4c3.4-2.3 7.5-8.6 29.4-13.5l2.5-1s6.1-3.5 12.2-3.1c4 .3 3.6 1.3 3.6 1.3s6.5 5.9.3 5.8c-6.2 0-6.7 3.3-6.7 3.3s1.4 2.3 5 1.6c3.6-.7 4.9-.7 4.9-.7s-1.6 4.1-6.4 4.1c-4.9 0-6.8-3.3-11.6-2.9-5 .4-18.9 5.7-23.1 16m43.9 62.3l4.6 5.5s18.2 4.8 34.1 14.4c0 0 .4.1 1.9.7 5 2.3 11.1-3 15.9 5.5 0 0 1.4 1.9-1 2.8-2.5.9-5.4 4-14.7-1.9 0 0-22.2-.7-37.1-8.7-14.8-7.9-13.2-10.9-13.2-10.9s7.3-7.5 9.5-7.4z" fill="#f8f8f5"/><path d="M-55.9 164.2s9.4 5.8 9.6 6.5c.2 1-7.4-2.4-7.4-2.4s5.5 6.2 4.4 6.6c-1 .4-6.9-5.4-6.9-5.4s4.7 5.9 3.7 6.1c-2 .5-5.6-4.8-5.6-4.8s3 5 1.2 4.4c-1-.4-4.6-4.6-4.6-4.6" fill="#f8f8f5"/><path d="M-106.6 151.7s20.9 10.6 31.8 11.5c13.7 1 17.1 7.6 18.5 10.9.9 2.2 1.5 3.2-.2 2.5-1.7-.7-4.2-5.2-6.1-6.1-6.4-2.9-7.7-1.9-7.7-1.9s-31.8-2.8-39.3-11.6c-7.6-8.9-.1-1.3-.1-1.3l3.1-4z" fill="#88c4f2"/><path d="M-150.7 94.3l11.8 9.3s20.3 2.5 24.3 18.3c0 0-.3 21.2 8.3 20.5 0 0 3.5 1 6.1 5.8 0 0-7.8 3.6-7.8 12.1 0 0-7-1-9.3-5.9l-18.9-22.9s-20.2 7.1-20.2 18.7 2.5 18.2 2.5 18.2 12.2 15.4-.6 23.4c-1.4.9-2.1 2.6-1.6 4.3 1.6 5.8 5 18.9 5.8 26.9 0 0 21.3 10.6 32.4 28.8 0 0 8.5 8.5 13.6 10.9 0 0 .6-.7 8.7 5.9l7.3 5.7s2.8-.3 8.4 1.2c5.5 1.5 15.2 9.1 8.1 13.2-7.1 4-25.2.5-35.4-14.2 0 0-40-20.3-56.2-42l-13.6-18.7s-4.1 5.5-12.7 13.2l4.6 36.9s-2 2 .5 6.1c0 0 4 4 3.5 11.2 0 0 2 13.2 0 16.2-2 3.1-18.2 4.6-17.2-1.5 0 0 2.5-.5 3.5-4s1-12.7-.5-17.7c-1.5-5.1-2-10.1-2-10.1l-3.5 4s-7.6-46.5-5.5-51.1c2-4.6 16.3-25.5 16.3-25.5s-4.4-12.9-6-18.9-6.8-43.7 16.5-65.5c0 0 5.4-3.8 6.9-10.4l.1-6.9c0-3.4.5-6.7 1.4-10 1.3-4.6 3.3-10.6 4.9-11.2 0 0 9.5.6 14.1 7.7 0 0-1.5 5.6-2.8 7.5-1.3 1.8 1.4 10.2 4.2 10.5z" fill="#003868"/><path d="M-185.3 263.6s0 4.1.8 6.4c0 0-4.8-4.9-10.6 4l-2-10.1c0 .1 8.4-4.2 11.8-.3z" fill="#99d7ff"/><path d="M-129.6 106.8c-7-3.5-11.6-10.9-17.6-12.5-10.9-2.8-19.5 0-19.5 0l21.5 18.9 15.6-6.4zm-41.2-32.4s14.8 1.3 17.9 8l1-6.4s-4.5-8.6-14.1-7.7c0 0-4.5 3.9-4.8 6.1z" fill="#003868"/><path d="M-181 276s-.1-7.2-4.8-7.7c0 0-8.3.4-9.3 5.8 0 0 2.6 16-3.5 16.6-6.1.6-.5 6.8-.5 6.8s1.6 2 5.2 1c2.5-.7 3.1-19 6.7-20.5 3.4-1.6 6.2-2 6.2-2z" fill="#2b7fe2"/><path d="M-198.3 298.1s5.2 1.6 6.5-4.6c1.3-6.8-.8-20 7.9-20 4.6 0 5.2 6.5 5.2 9.8 0 1-.7 1.9-1.8 2.2 0 0 2.5 10.3-1.3 13-.1 0-7.8 4.3-16.5-.4z" fill="#003868"/><path d="M-197 263.6s-4.3 1.8-3.7 4.4 4.6 2.2 4.6 2.2l-.9-6.6z" fill="#001c36"/><path d="M-114.4 269.8l5.9 3.2s-1.1-9.6 5-10.3l-5.7-3.4c.1 0-6.5 2-5.2 10.5z" fill="#99d7ff"/><path d="M-139.2 253.9l24.9 20.3s-1.6-5.7.4-10.3" fill="#003868"/><path d="M-114.4 274.2l2.2-2.8s-4.3-3.4-1.3-8.9c0 0-2.7 4.6-.9 11.7z" fill="#001c36"/><path d="M-95.2 267.8s-2.8-5.2-8.2-5-7.8 6.4-5.9 10.3c1.9 3.9 11.4 10.3 11.4 10.3s-9.7-5.3-5.5-13.5c3.4-6.7 8.2-2.1 8.2-2.1z" fill="#2b7fe2"/><path d="M-97.5 265s16.6 8.7 18.9 10.5c2.4 1.9-12 .5-18.9-10.5z" fill="#2b7fe2"/><path d="M-103.1 278c-1.8-2.5-2.5-5.5-1.9-8.5.5-2.5 1.9-4.8 5.5-4 7.2 1.6 2.8 7.6 16.2 8.6 4.6.4 16.9 5.8 13.5 12.3-4 7.2-22.7 6.1-33.3-8.4z" opacity=".6" fill="#001c36"/><path d="M-151.8 94.8s-43.1 12.7-39 70.8l1.3 1.7s-5-55.7 42.4-73" opacity=".5" fill="#0071bf"/><path d="M-178.8 169s3.3-54.1 37.3-71.4l1.2 1.2s-32.4 16.1-36.5 70.8l-2-.6zm49.5-50.4s.3 21.9 17.4 31.9l-1.7 2s-13.6-9.2-19.1-31.1l3.4-2.8zm7.7-1.9s1.1 20.9 13.6 29.4l-3.1 1s-11.7-11.7-13.4-30.2l2.9-.2zM-157.9 76s-7.2 9.7-3.4 16.9l2.3-.3s-3.7-7.4 3.1-15.4l-2-1.2z" opacity=".5" fill="#0071bf"/><path d="M-115.6 119.5s-5.3-6.6-18 3.4c-12.2 9.7-18.2 12-22.6 20.9-4.8 9.8-2.5 24.6-2.5 24.6l-1.7.6s-2.3-19.2 4-29.2 12.9-11.2 19.5-17.2 16.3-10.3 20.9-5.7c-.2 0 1 .3.4 2.6z" opacity=".5" fill="#0071bf"/><path d="M-167.1 170.1s-1.7-19.2 3.7-31.2 19.5-25.8 24.3-28.3c6-3.1 12.3-4.3 15.2-1.1 0 0-4.3-3.8-8.6-4-7.4-.3-16 10-20.6 14.6-4.6 4.6-19.8 20.9-15.7 49.5l1.7.5z" opacity=".5" fill="#0071bf"/><path d="M-196.9 165s-1.4 3.4 1.4 5.2c0 0 24.6 6.9 35.2 2.5s5.7-8.8 5.7-8.8-1.6 13.9-42.3 1.1z" fill="#001c36"/><path d="M-160.1 169.3l.3 4.6 2.1.1-1.3-5.6-1.1.9zm-5.6.5l.6 5.8 1.6-.4-1-4.8-1.2-.6zm-24.4-3l.6 6-1.9-.5-.6-5.5h1.9z" fill="#003868"/><path d="M-116.9 62.5s2.2-1.7 4.2-.7-3.8 3.7-3.8 3.7.8-1.2-.4-3z" fill="#f8f8f5"/><path d="M-117 90.4l7 13.3c.7 1.3.4 2.8-.7 3.7-1.2 1-1.9 1.8-3.8-.2l-1.3 1.3s3.7 4.9 7.6-1.5c.4-.8.7-1.8.3-2.6l-7.9-16s-2.9-2.6-6.8 0c0 .1 4.1-2.2 5.6 2z" fill="#003868"/><path d="M-103.9 81.4c3.6 2.8 11 9.9 10.9 19.5 0 0-6.2-8.9-10.1-4.9 0 0-7.2-3.3-21.8-1.3-9.3 1.2-11.7-3-11.7-3l-.1-1.6s-.8-9.7 5.8-13.8c6.3-3.9 17.6-5.3 24 2.2.9 1.1 2 2.1 3 2.9z" fill="#001c36"/><path d="M-105 81.2s14.8 9.1 14.6 18.7c0 0-5.3-10.3-11.9-9.4m-68.5-16.1s14.7-5.9 17.9 8l-1.1.1s-4.2-11.9-15.8-7c-.1 0-1-1.1-1-1.1zm56.7 82.9s3.9-10.9 9.7-14.4c-.1 0-8.6-.3-9.7 14.4z" fill="#001c36"/><path d="M-130.2 105.9s13.8 6.1 14.7 14.2c.9 8.1 2.7 19.1 7.3 23.4l1.3-1s-7.6-6.8-7.3-21.3c-.1 0-1.2-10.1-16-15.3z" fill="#71ccf4"/><path d="M-108 146.1l4.1 3.7 3.9-1.7s-2.5-5.5-4.4-5.2l-3.6 3.2zm-46.1-63.6s-3.1 5.8 1.9 10.3c0 0-9.1-.3-3.1-13 .1-.1 1.2 2.7 1.2 2.7zm-.3-4.4l1.4 4.3 1.5-5.9-1.3-1.9-1.6 3.5z" fill="#0071bf"/><path d="M-153.9 164.8s-4.5-16.5 1.5-22.8c0 0-7.1 4-3.8 24.2" fill="#71ccf4"/><path d="M-143.7 96s-41 26.2-35.7 65.9c3.6 27.1 13.3 35.6 15.4 55.3.5 5.3 4.8 16.8 15.1 18.6 12.1 2.1 16.4 12.1 21.7 18.9 7.3 9.2 13.4 9.2 13.4 9.2l-.7 9.9s-22.5-14-48.8-41.3c-9-9.4-15.4-22.5-23.1-36.1-30.2-52.2 7-102.4 32.7-104-.1 0 6.8.4 10 3.6z" opacity=".8" fill="#001c36"/><path d="M-185.3 199.1s-19.2 19.1-16 23.7c2.4 3.4 4.5 6.6 3.7 17-.9 10.8 6.8 21 6.8 21s-9.1 2.9-9.4 6.2c-.3 3.2-7.8-43.9-6-50.2 1.8-6.3 16.6-26.3 16.6-26.3l4.3 8.6zM-158 71.6s-10.5 10.9-4.4 24.6l-12.4 8.4 2.4-8s0-22.9 8.4-28.2c-.1-.1 4.9 0 6 3.2z" opacity=".8" fill="#001c36"/><path d="M-119.8 50.5s2.9-.5 8.7.3c0 0 .6.3 0 .6s-5.7.8-5.7.8 9 0 10 .9-4 1.6-4 1.6 5.2.1 4.9 2.1c-.1 1-4-.6-4-.6s5.1 1 3.7 3.1c-.7 1.3-8-2.8-15.1-2" fill="#f8f8f5"/><path d="M-152.1 75.8s10.1-12.9 24-12.7c0 0 5.7 3.4 9.8 2.8 2-.4 2.5-1 2.4-1.7-.1-.7-.8-1.1-1.5-1-1.4.3-4.3.6-5.8-2.1 0 0 1.7-5.5 13.1-2.5 0 0 1.9 1.1 2.5-.4 0 0-4-3.4-10.3-3.4-6.4 0-11.4 3.4-17.3 4.3s-17.4 6.4-19.6 13.3l2.7 3.4z" fill="#88c4f2"/><path d="M-127.8 96s5.5-9.7 8.2-6.8c3.1 3.2-1.3 7-1.3 7" fill="#f8f8f5"/><path d="M-136 83.5s.2 7.8-2.8 11.4l5.4 2.3c1.6.7 3.4.4 4.8-.6l5.1-6.7" fill="#001c36"/><path d="M-156.2 194.5s4.9 14.1 6.1 28.4c0 0 5.1.4 12.4 7.6l-12.6-7.3s-3.5-17-5.9-28.7z" fill="#99d7ff"/><path d="M-113.9 263.9l9.4 4s-.7 15.4 12 18.8c0 0-14.7-6.3-16.8-14.8l-4.4-.6c-.1 0-2.7-6.6-.2-7.4z" opacity=".4" fill="#001c36"/><path d="M-190.8 260.9s1 10.4 3.4 15.2l-2 7.9s-4.4-13.7-5.8-21.2l4.4-1.9z" opacity=".2" fill="#001c36"/><path d="M-118.6 80.5c-4 .1-10.9-2.2-10.1-5 .9-3 5.1-3.8 9.1-4 4-.1 8.1 1 9.7 4.2 1.2 2.5-4.7 4.6-8.7 4.8z" fill="#6cc3ff"/><path d="M-111.7 73.6s1 .3.9 1.3c-.3 2.8-3.2 4-7.4 4.4-2.5.3-6.3-.9-8-2.2-1.6-1.3-1.9-3.1-.4-4.3 0 0-1.9 3.5 6.3 4.9 5.6 1 8.9-2.6 8.6-4.1z" fill="#0071bf"/><g><path d="M33.9 62.7c3.5-.9 7.5-1.5 10.5.4 13.8 8.8 17.4 4.6 31.3 2.1 27.4-5 42.6-27.8 64.1-28.3 21.5-.4 56.1-17.8 91.6 15.2l10.4 18.3s5.4 3.7 4.9 10.9c-.4 7.2-1.4 7.6-7.7 6.3-6.3-1.3-7.2-7.4-7.2-7.4s-2.1 4.9-3.4 4.2c-2.9-1.5 3.8-7.2 1.7-10.6-3.5-5.4-24-27.7-49.7-27.7 0 0 37.9 64.4 11.7 91.5s-23.6 29.1-23.6 29.1 14.5 49.1 12.8 58.8c0 0 10.4 29.3-10.4 23.9-10.4-2.7 4-12.1-1.2-24.1-5.5-12.6 0-1.7 0-1.7s-11.8-28.7-21.1-39.3c-9.3-10.6 8.8-51.3 8.8-51.3s-35.1 5.8-67 4.4l-58.3 25.8s-2 1.9-10 2.7c-13 1.3-22.1-5.8-18-10.9 4.2-5 22.2-2 22.2-2s45.6-26.1 52.3-29.1c6.7-3 73-18.2 73-18.2s1-34.8-27.2-45.8c0 0-12.9 24.3-78.6 17.6 0 0-25.4-7.6-11.9-14.8z" fill="#003868"/><path d="M226.8 52.2s12.1 5.8 17.8 22l-.4.5c-1.9 2.4-2.9 2.4-5.4.7h.3s-6-20.4-15-21.6l2.7-1.6z" opacity=".5" fill="#549cea"/><path d="M151.6 105.9s10.6 10.6 27.8 6.3c17.3-4.2 21.1-13.9 21.1-13.9s7.6 16.5-3 32.5-29.1 35.8-29.1 35.8 10.6 16.3 14.1 56.5c0 0 1.9 6.3-12.9 2.1 0 0-6.3-16.5-13.9-28.3-7.6-11.8-14.8-18.9-11-32.5 3.7-13.5 7.6-30.6 7.6-30.6s-33.4 4.5-62 3.6l-57 25.8s-10.6-4.6-4.1-12.2c0 0 47.3-28.3 51.5-28.7 4.3-.6 65.4-17.3 70.9-16.4z" fill="#0071bf"/><path d="M81.3 61.8s-3 14.6 8.8 16.7c0 0 25.9-5.1 35.2-17 0 0 22.9 13.3 26.2 46.3 0 0 16.2 14 44-2.9 0 0 6.3-3 5.8-4.5 0 0-5.4-38.1-18.1-52.5 0 0 26.2 3.1 38.4 14.8 0 0 1.4-9.6 13.6-10.4 0 0-21.8-29-85.4-20.6 0 0-11.7 4.3-17.2 4.8-3.7.3-22.7 11.4-36.8 21.4-5.1 3.7-14.5 3.9-14.5 3.9z" fill="#29cec2"/><path d="M152 33.3s69.5-13.4 83 19c-.1.2-21.7-26.2-83-19z" fill="#f8f8f5"/><path d="M104.4 27.3s14.8 20.1 22.2 21.8c9.5 2.2 14.1-8.9 17.1-12.5 3.8-4.9 14.7-8.7 14.7-8.7s-15.1 2.7-25.7-4-26.3-5.5-28.3 3.4z" fill="#003868"/><path d="M111.6 26.6s-.1 0 0 0c-.3.1-1.3.6 0 0zm-1.3-.1l-.4-.2s.3.1.4.2z" fill="#0c76c3" opacity=".5"/><path d="M136.5 42.5s4.6 5.4 10.1 4.1c5.5-1.3 2.4-16.1 2.4-16.1s-10.8-9.9-11 8.6M30 66.6s-.6 4.5 1.5 10.3c1.3 3.7 4.8 4.8 7.4 4.5 1.8-.2 5.8.2 3.2-1.9-2.7-2.1-5.5-4.2-2.4-9.3" fill="#003868"/><path d="M159.2 50.5s2.7 16.9 25.7 20.3c-3.3 2.7-5 6.8-4.7 11.1v.5s-20.3-6.8-29.1-31.8" fill="#054c90"/><path d="M108.1 32.1s-13.7-7.7-1.8-22.8c8.1-10.4 26.5 1.3 40.6 1.7 13.9.4 22.8-6.3 35.4-3.4s20.2 16 20.2 16-22 4.9-33 6.6c-11 1.7-14.1 1.8-28-2s-26-9-30.1-5.3c-2.2 2.1-9.6-1.4-3.3 9.2z" fill="#d43129"/><circle cx="94.4" cy="69.5" r="3.1" opacity=".5" fill="#f8f8f5"/><circle cx="150.1" cy="70.1" r="3.1" opacity=".4" fill="#003868"/><circle cx="165.6" cy="51.9" r="3.1" opacity=".4" fill="#003868"/><circle cx="153.2" cy="38.4" r="3.1" opacity=".5" fill="#f8f8f5"/><circle cx="153.2" cy="38.7" r="3.1" opacity=".5" fill="#f8f8f5"/><circle cx="152.8" cy="92.2" r="3.1" opacity=".5" fill="#f8f8f5"/><circle cx="194" cy="79.1" r="3.1" opacity=".4" fill="#003868"/><circle cx="183.9" cy="99.6" r="5.8" opacity=".4" fill="#003868"/><circle cx="164.4" cy="82.7" r="3.4" opacity=".4" fill="#003868"/><circle cx="214.6" cy="50.3" r="4.1" opacity=".3" fill="#003868"/><path d="M142.3 63.6c0 4.1-1.9 8-5.6 6.3-1.6-.7-5.5-3.8-7.4-7.4-1.9-3.7 1.5-6.3 5.6-6.3 4-.1 7.4 3.3 7.4 7.4z" opacity=".5" fill="#f8f8f5"/><circle cx="164.7" cy="98.8" r="4" opacity=".5" fill="#f8f8f5"/><circle cx="111" cy="56.3" r="4" opacity=".5" fill="#f8f8f5"/><path d="M183.7 48.2s20.5 16.2 17.9 52.7l-2.7 2.1s3.1-24.3-15.2-54.8zm18.5 54.8s6.5 9.4-5.3 29.6c0 0 8-16.1 5.3-29.6z" fill="#f8f8f5"/><path d="M156.5 174.9c-6-9.7 3.2-34.7 23-62.2 1-1.4-7.2 2.3-17.6-.5v-.5s-6.3-1.9-6.3-1.8c-4.5 1.5-33.7 9.4-47.2 14.9-10.3 4.1-18.2 12.6-18.2 12.6 60.4.8 62.2-3.7 62.2-3.7h.5c-2.7 8.3-5.6 22-8 30.6-4.1 15.2 7.4 27.5 7.4 27.5 19.5 32.7 17.8 34.8 17.8 34.8l5.8.1c.5-15.8-11.7-39.4-19.4-51.8z" opacity=".7" fill="#003868"/><path d="M122.5 5.6s23.7 5.4 30.4.2c6.7-5.2 16-7.4 26.1-4.5 0 0-12.6-.9-22.3 6.3-9.1 6.8-16 6.7-27.9 1.1" fill="#d43129"/><path d="M109.6 24.4s.5-9 13.2-5.2c5.2 1.6 23.8 6 32.8 5.7s33.4-5.1 38.2-1.2l-16.6 6.6s-14.9 4.5-29.1-.3c-7.2-2.5-31.3-8.3-38.5-5.6z" opacity=".5" fill="#003868"/><path d="M221.1 65.4s-2.7-9.3 1.8-13.8c4-4.1 9.2-4.3 10.9-.8 0-.1-12.7 7.1-12.7 14.6z" fill="#003868"/><path d="M203.8 52.3l12.4 9.9c1 .7 1.9 1.5 2.8 2.4 1.6 1.5 2.8 1.9 5.4 2.7 0-.6-.4-1.2-.9-1.5-1.2-.7-3.3-2.8-3.8-9.7" fill="#29cec2"/><path d="M232.8 49.1s5.4 4.8 1.5 8.1l-7.3-2.5" fill="#003868"/><path d="M168.4 113.1c-11.7 0-27.5-7.8-22.1-11.2 7.5-4.8-2.7-20.4-2.7-20.4s14.4 31.7 24.8 31.6" fill="#29cec2"/><path d="M106.3 9.3s2.8-6.4 12.6-4.3c9.9 2.1 17.2 2.4 28.5 2.4 0 0-9.3 2.1-27.9-.9.1 0-9.4-2-13.2 2.8z" fill="#f9cfcf"/><path d="M221.9 53s-5 10.2 2.6 14.2l5.1-7.2M31 69.8s-1.8.2-3.7 3.7c-1.9 3.5 0-6.5 4.2-9.3" fill="#003868"/><circle cx="180.8" cy="58.1" r="4" opacity=".5" fill="#f8f8f5"/><path d="M107 74.7c-1.1-2-.3-4.4 1.7-5.5 2-1.1 4.4-.3 5.5 1.7" opacity=".5" fill="#f8f8f5"/><circle cx="192" cy="47" r="2.7" opacity=".5" fill="#f8f8f5"/><path d="M207.2 37.4c-.7 2.2-3 3.4-5 2.7-2.2-.7-3.4-3-2.7-5" opacity=".5" fill="#f8f8f5"/><path d="M239.3 27.1c2.2-3.3 4.6-2.7 3.1-6.5-1.3-3.3-3.7-4.5-5.2-5.1-10.6-1.5-35.9-3.8-49.4 4.3-17.4 10.5-26.6 28.6-50.8 22.8 0 0-1.2 12.2 18.6 9.7s23.1-17 47.4-21.7c23.7-4.5 41 2.6 41.8 2.9-.4-.3-7.4-3.2-5.5-6.4z" fill="#003868"/><path d="M187.9 30.1s27.5-13.4 53.8-5.4c0 0 2.3-1.8 0-4.1 0 0-17.5-7.2-53.8 9.5z" opacity=".5" fill="#0c76c3"/><path d="M140.6 42.3s11.1 6.9 22.8-5c0 0-7.4 7.4-22.8 5z" fill="#549cea"/><path d="M166.1 84.6c-2.8-8.1.2-11.9-3.4-19.8-10.6-23.5-25.4-21.2-25.9-23.8 0 0-5.5 16.6-19.4 1.7l1.6.3-.9.2c.7 7.6-1.7 18.9-7.7 23.6-5.5 4.3-17.4 9.4-24.1 9.8-1.1.1 2.3.8 2.7 1.8l1.7-.1s18.6-.8 32.5-14.6l-.2-.5c1.1.9 1.4-1.7 2.8-1.1 11.1 5.1 30.1 29 25.9 46.1 0 0 14 10 32.5 2.7-.2 0-12.6-10.3-18.1-26.3z" opacity=".6" fill="#003868"/><path d="M135.3 43.8s3.9-4.2 13.4-1.5l1.2-10.9-13.8-3.9c-.1 0 7.8 6.3-.8 16.3zm97.1 35.8s-4.5 16.9-3 16.5c.9-.2 4.9-9.7 4.9-9.7s-3.5 12.8-1.6 13c1.6.2 5-11.7 4.9-11.9 0 0-1.2 8.7-.2 10 .9 1.2 5.4-10.4 5.4-10.4s-2.3 8.1-1.8 8.6c.6.6 5.4-8.1 5.6-15.6M30 66.6s0-.1.1-.2c.5-1.3 4.9-9.8 23.9 1.2 0 0 4.2 2 11.2.8l3.9 9.6H53.3s-11.1-10.7-17-8.3" fill="#003868"/><path d="M50.1 66s5.1 2 11 1.8c4.1-.1 19.8-4 19.8-4s-.3 4.5.3 6.3c0 0-16.1 2.6-22.4 2s-13.5-9.3-18.6-10c0 0 6.6.2 9.9 3.9z" opacity=".5" fill="#549cea"/><path d="M38.7 76.7s-2-6.1.2-4.7c1.2.8 2.8 5.1 2.8 5.1s-2.6-7.2-1.3-7.7c1.5-.7 4.3 6.9 4.3 6.9s-2.8-8.6-1.3-8c1.5.7 4 6.4 4 6.4s-2.7-5.3-.4-5.1c3.4.2 4.9 7.7 4.9 7.7s-3-10.3-5.8-10.8c-2.8-.4-11.1-.2-10.8 2.4.6 2.6 3.4 7.8 3.4 7.8z" fill="#003868"/><path d="M244.9 73.9s4.5 2.8 0 14.5c0 0 2.2-12.2 0-14.5z" fill="#549cea"/><path d="M174.2 229s5.8-4 10.6 3.2c0 0-4.7-5.5-10.6-3.2z" fill="#f8f8f5"/><path d="M231.8 73.3l-2.1 8.4 3.4-3.8s-2.5 10.2-1.1 10c.1 0 .2 0 .3-.1 4.1-.8 8.4 0 12 2.1 0 0 2.3-10.9.2-15.6-2.1-4.7-3.8-4.9-3.8-4.9s-8.7-1.5-8.9 3.9z" fill="#003868"/><path d="M230.1 73.8s-.4-5.9 6.2-6.1c6.5-.2 7.7 4.9 7.7 4.9s1.4-8.4-8.4-7.9c-9.9.5-8.8 10-5.4 9.5l-.1-.4z" fill="#29cec2"/><path d="M236.8 69s7.5 1.4 8.7 17.3c0-.1 4.2-18.6-8.7-17.3z" opacity=".5" fill="#549cea"/><path d="M149.3 36.8l23.2-4.2 2.4-3.4s-12.6 3.4-24.7.9c-12-2.3-.9 6.7-.9 6.7z" opacity=".5" fill="#003868"/><path d="M135.7 26.9s-12-4.6-20.9-4.6c0 0-3.2-.6-4.8 1.7l2 6.7c.4 1.2 1.2 2.3 2.3 2.9l.2.1 1 2.2c.3 1.3 2.6 7.7 3.6 7.9.6.1.9-.2 1.3-.4.7-.4.8-1.1 1.1-.6.6.9 1.7 2.6 1.7 2.6s1 0 1.9 1.1c1 1.2 1.1 3.2 4 2.9 4.1-.4 6.8-5.9 8.5-11 1.7-5.8-1.9-11.5-1.9-11.5z" opacity=".5" fill="#549cea"/><path d="M135.7 26.9s-5.3-2.1-11.4-3.5c.5.2.9.5 1.4.7 1.3.7 2.7 1.4 3.7 2.4 1.2 1 2.2 2.2 2.6 3.7.3 1.2.3 2.5 1 3.5.5.7 1.2 1.1 1.8 1.6 1.1 1 1.8 2.5 2 3.9 0 .2.1.5.1.7l.6-1.8c1.8-5.5-1.8-11.2-1.8-11.2z" fill="#003868"/><path d="M112.4 22.1s9.3-.6 20.4 8.4c5.8 4.6 15.3 7.2 15.3 7.2l.6-7.2c.1.1-28.8-11.1-36.3-8.4z" fill="none"/><path d="M116.6 34.4c-.3-.6-.1-1.4.6-1.8l4.4-2.2c1.8-.8 3-1 4.5.9 1.4 1.8.7 4.3-.9 5-4.3 1.9-6.5.3-7.7-.9-.4-.1-.7-.5-.9-1zm-4.4.7l-3.2 1.5c-3.2 2.2.6 6 4.3 5.5 3.7-.5 2.1-4.9 1.7-5.8-.4-1.2-1.7-1.8-2.8-1.2z" fill="none" stroke="#001c36" stroke-width=".902" stroke-miterlimit="10"/><path d="M122.3 44.6l.6.2s.5-.8 1.6-1.1c4-1.1 3.2-2.3 4-3.4 0 3.6-3.8 6.8-5.5 6" fill="#003868"/><path d="M126.1 47c-.6.4-1.4.3-2.5.1l-.4-.6s.5.6 2.3-2l2.7-2.5-.7 2.8c-.2.9-.7 1.7-1.4 2.2z" fill="#003868"/><path d="M124.9 30.4l7.8-5.8" fill="none" stroke="#001c36" stroke-width=".902" stroke-linecap="round" stroke-miterlimit="10"/><path d="M116.6 34.4s-1.8-.1-2.1 1" fill="none" stroke="#001c36" stroke-width=".902" stroke-miterlimit="10"/></g></svg>