<svg xmlns="http://www.w3.org/2000/svg" viewBox="0 0 1000 500"><path d="M1000 0H0v268.7c16.6 35 56 53.6 93.7 55.7 75.6 4.2 147.6-45.6 223.1-32.9C395 304.6 453.5 378.6 553 411.6c52.9 17.5 119.7 14.5 177.4.2 69.7-17.3 127.2-48.6 269.5-111.8l.1-300z" fill="#549cea"/><path d="M924 188.9s13.7-22.6 22.6-16.4c8.9 6.2 25.4 17.8 31.5 4.1 6.2-13.7 21.8-10.3 21.8-10.3v46.6l-79.4-15.1 3.5-8.9zM0 209.6l119.5-37.2c-7.7-13.1-26.2-5.9-33.8-2.4s-6.7-10.8-15.5-16.1-17.8 11.7-17.8 11.7-8.7 17.7-22.7-13.8C22.5 136 0 150.2 0 150.2v59.4z" opacity=".5" fill="#0c76c3"/><path d="M.1 273.1c14 25.4 39.6 39 47.5 43.3l8.9 4c87.8 22.5 121.3-19.2 217.1-27.2 124-10.3 167.3 113 330.7 130 151 15.7 381.2-113.5 395.7-121.4V200.7L0 205.4l.1 67.7z" fill="#1bbfb3"/><path d="M714.6 220.3s8.7-13.4 13.4-7.6l4.6 5.8s1.7-5.8 7-2.3l5.2 3.5-30.2.6z" opacity=".5" fill="#0c76c3"/><path d="M0 204s140.6-49 223-36.4 134.5 24.8 195.2 24.8S685 137.6 794.5 160s205.4 42.5 205.4 42.5L0 210.3V204z" fill="#1bbfb3"/><g fill="#003868"><path d="M416.6 254.6c-.1.1 0 .1 0 0z" opacity=".4"/><path d="M867.1 365.9c-3-2.1-7.1-7.8-13.7-11.3-19.6-10.4-32-30.7-32-52.9 0-18.1-2.8-35.7-25-41.6-45.9-12.3-194.6-15.8-194.6-15.8l.2.2c-21.8-1-50.6-2.4-61.3-3.2-12.7-1.1-40.1-7.6-51.1-4.7-5.1 1.4-14.3 8-19.4 6.6-12.8-3.4-32.1-7.4-44.3-6.9 0 0-.3 0-.8.1-12.2-.2-26 2-29.6 4.7-4.5-1-10.8-1-15.8-.7-12.1.7-15.8 2.5-15.8 2.5l-3.4 1.4c-29.2 6.5-46.2 6.7-50.6 9.8-4.4 3-8.9 38.4-8.9 38.4l22.4 3.9c-1.4-19.9 33.8-34.5 40.5-35.1 6.5-.5 8.1-5.6 14.6-5.6 5.4 0 4.5-.2 5.5-.7 4.2.8 13 .2 13 .2l19.5-.7-.4-.8c1.4-.1 19.5-1.3 45.2 8.5-3 1.9-2.6 9.5-2.6 11.8 0 8.1 21.2 16.2 38.4 14.4 25.4-2.7 32.9-7.7 32.9-15.8 0-1.9 8.7-8 15.5-8.2 15-2.2 42.6-2.9 51.6 2.5 56.8 12.6 68 5.9 63.2-3.3 28.5 3.6 79.8 2.2 108.8 12.2 16.9 5.8 25.8 30.3 29.3 46.4 1.2 5.5-3.6 10.4-9.2 9.4-33-6.4-46.6-1.3-41.3 15.6 2.9 9.4 23.7 12.4 27.4 27.4 6.2 24.7-52.8 10.9-52.8 10.9l-.2-.4c-47.1-16.9-82.5-32.9-149.2-31.1-84.6 2.2-163.3-18.7-198-37.4l72 47.1s7.9 3.1 24 6.7c16.7 3.8 33.9 5.4 51 5 9.8-.3 22.3.2 33.2 3.4 33.6 9.6 22.2 28.5 52.3 30.7 11.7.8 23-3.7 31.4-11.9 6.4-6.3 19.7-10.8 45.8 6 7.7 4.9 14.6 12.4 40.7 9.6 46.6-6.6 141.6-47.3 141.6-47.3z" opacity=".4"/></g><path d="M347.7 267.7s37.9-27.4 113.3-6.4l-7 13.6" fill="#1bbfb3"/><path d="M84.3 184v20.8h-4.4v-19.1s4.4-2.5 4.4-1.7z" opacity=".6" fill="#002c55"/><path d="M68.8 188.6s-9.1-19.9-.8-32.4 2.8-39.7 15.8-39.1c15.8.8 17.4 54.8 15 64-3.1 11.2-17.5 22.4-30 7.5z" fill="#0c76c3"/><ellipse cx="80.9" cy="205.3" rx="16.2" ry="2.8" opacity=".5" fill="#0c76c3"/><path d="M242.5 173.4v7.9h-1.7V174c.1 0 1.7-.9 1.7-.6z" opacity=".6" fill="#002c55"/><path d="M236.6 174.5s-3.5-7.6-.3-12.4c3.2-4.8 1.1-14.6 6-14.9 5.6-.3 10.4 19.7 5.7 24.4-3 3.3-6.6 8.6-11.4 2.9z" fill="#188bd1"/><ellipse cx="241" cy="181.5" rx="6.2" ry="1.2" opacity=".5" fill="#0c76c3"/><path d="M81.5 118.3s-8.1 10.6-1.2 24.9c6.9 14.3 6.9 55.5-3.7 50.5-10.6-5-14.3-24.9-8.7-34.3 5.6-9.3 6.2-28.7 6.2-28.7s-1.9-13.6 7.4-12.4z" opacity=".3" fill="#003868"/><path d="M96.8 203.8s9.3-14.3 14.3-8.1l5 6.2s1.9-6.2 7.5-2.5l5.6 3.7-32.4.7zM193.5 200.3s4.5-7 7-3.9l2.4 3s.9-3 3.6-1.2l2.7 1.8-15.7.3zM267.1 175s6.1-24.1 9.2-17.9c3.1 6.2 5.2 20.2 5.2 20.2l-14.4-2.3zM281.6 177.4s4.4-18 6.7-13.4 3.8 15 3.8 15l-10.5-1.6zM370.3 207s9.3-14.2 14.2-8.1l5 6.2s2.1-6.6 7.4-2.5c6.7 5.1 7.3 5.8 5.6 3.7l-32.2.7zM787.6 183.6s5.8-8.9 8.9-5l3.1 3.9s1.2-3.9 4.6-1.5l3.5 2.3-20.1.3zM815 163.3s5.3-21.2 8.2-15.4 4.8 18.8 4.8 18.8l-13-3.4z" opacity=".5" fill="#0c76c3"/><g><ellipse cx="314.9" cy="363.5" rx="24.7" ry="7" opacity=".4" fill="#003868"/><path d="M631.4 82.3c3.5-.9 7.6-1.5 10.6.4 14 8.9 17.6 4.7 31.7 2.1 27.8-5.1 43.2-28.2 65-28.7 21.8-.4 56.9-18 92.8 15.4L842 90s5.5 3.7 5 11c-.4 7.3-1.4 7.7-7.8 6.4-6.4-1.3-7.3-7.5-7.3-7.5s-2.1 5-3.4 4.3c-2.9-1.5 3.9-7.3 1.7-10.7-3.5-5.5-24.3-28.1-50.4-28.1 0 0 38.4 65.3 11.9 92.7-26.5 27.4-23.9 29.5-23.9 29.5s14.7 49.8 13 59.6c0 0 10.5 29.7-10.5 24.2-10.5-2.7 4.1-12.3-1.2-24.4-5.6-12.8 0-1.7 0-1.7s-12-29.1-21.4-39.8c-9.4-10.7 8.9-52 8.9-52s-35.6 5.9-67.9 4.5l-59.1 26.1s-2 1.9-10.1 2.7c-13.2 1.4-22.5-5.8-18.3-11 4.3-5.1 22.5-2 22.5-2s46.2-26.5 53-29.5c6.8-3 74-18.4 74-18.4s1-35.3-27.6-46.4c0 0-13.1 24.6-79.7 17.8 0 0-25.7-7.7-12-15z" fill="#003868"/><path d="M826.9 71.6s12.3 5.9 18 22.3l-.4.5c-1.9 2.4-2.9 2.4-5.5.7h.3s-6.1-20.7-15.2-21.9l2.8-1.6z" opacity=".5" fill="#549cea"/><path d="M750.7 126s10.7 10.7 28.2 6.4 21.4-14.1 21.4-14.1 7.7 16.7-3 32.9-29.5 36.3-29.5 36.3 10.7 16.5 14.3 57.3c0 0 1.9 6.4-13.1 2.1 0 0-6.4-16.7-14.1-28.7s-15-19.2-11.1-32.9c3.8-13.7 7.7-31 7.7-31s-33.8 4.6-62.8 3.6L630.9 184s-10.7-4.7-4.2-12.4c0 0 47.9-28.7 52.2-29.1s66.2-17.4 71.8-16.5z" fill="#0071bf"/><path d="M679.4 81.3s-3 14.8 8.9 16.9c0 0 26.2-5.2 35.7-17.2 0 0 23.2 13.5 26.6 46.9 0 0 16.4 14.2 44.6-2.9 0 0 6.4-3 5.9-4.6 0 0-5.5-38.6-18.3-53.2 0 0 26.6 3.1 38.9 15 0 0 1.4-9.7 13.8-10.5 0 0-22.1-29.4-86.6-20.9 0 0-11.9 4.4-17.4 4.9-3.8.3-23 11.6-37.3 21.7-5.2 3.7-14.8 3.9-14.8 3.9z" fill="#29cec2"/><path d="M751.1 52.5s70.4-13.6 84.1 19.3c-.1.1-22-26.6-84.1-19.3z" fill="#f8f8f5"/><path d="M702.8 46.4s15 20.4 22.5 22.1c9.6 2.2 14.3-9 17.3-12.7 3.9-5 14.9-8.8 14.9-8.8s-15.3 2.7-26-4.1-26.6-5.5-28.7 3.5z" fill="#003868"/><g opacity=".5" fill="#0c76c3"><path d="M710.1 45.7s-.1 0 0 0c-.3.1-1.3.6 0 0zM708.8 45.6l-.4-.2s.3.1.4.2z"/></g><path d="M735.4 61.8s4.7 5.5 10.2 4.2c5.6-1.3 2.4-16.3 2.4-16.3s-10.9-10-11.1 8.7M627.4 86.2s-.6 4.6 1.5 10.4c1.3 3.7 4.9 4.9 7.5 4.6 1.8-.2 5.9.2 3.2-1.9s-5.6-4.3-2.4-9.4" fill="#003868"/><path d="M758.4 69.9s2.7 17.1 26 20.6c-3.3 2.7-5.1 6.9-4.8 11.2v.5S759 95.3 750.1 70" fill="#054c90"/><path d="M706.6 51.2s-13.9-7.8-1.8-23.1c8.2-10.5 26.9 1.3 41.1 1.7 14.1.4 23.1-6.4 35.9-3.4s20.5 16.2 20.5 16.2-22.3 5-33.4 6.7c-11.1 1.7-14.3 1.8-28.4-2s-26.4-9.1-30.5-5.4c-2.3 2.1-9.8-1.4-3.4 9.3z" fill="#d43129"/><circle cx="692.7" cy="89.1" r="3.1" opacity=".5" fill="#f8f8f5"/><circle cx="749.1" cy="89.8" r="3.1" opacity=".4" fill="#003868"/><circle cx="764.9" cy="71.3" r="3.1" opacity=".4" fill="#003868"/><circle cx="752.3" cy="57.6" r="3.1" opacity=".5" fill="#f8f8f5"/><circle cx="752.3" cy="57.9" r="3.1" opacity=".5" fill="#f8f8f5"/><circle cx="751.9" cy="112.2" r="3.1" opacity=".5" fill="#f8f8f5"/><circle cx="793.6" cy="98.9" r="3.1" opacity=".4" fill="#003868"/><circle cx="783.4" cy="119.7" r="5.9" opacity=".4" fill="#003868"/><circle cx="763.6" cy="102.5" r="3.4" opacity=".4" fill="#003868"/><circle cx="814.5" cy="69.7" r="4.2" opacity=".3" fill="#003868"/><path d="M741.2 83.2c0 4.2-1.9 8.1-5.7 6.4-1.6-.7-5.6-3.9-7.5-7.5-1.9-3.7 1.5-6.4 5.7-6.4 4.1-.1 7.5 3.3 7.5 7.5z" opacity=".5" fill="#f8f8f5"/><circle cx="763.9" cy="118.8" r="4.1" opacity=".5" fill="#f8f8f5"/><circle cx="709.5" cy="75.8" r="4.1" opacity=".5" fill="#f8f8f5"/><path d="M783.2 67.6S804 84 801.3 121l-2.7 2.1s3.1-24.6-15.4-55.5zM802 123.1s6.6 9.5-5.4 30c0 0 8.1-16.3 5.4-30z" fill="#f8f8f5"/><path d="M858.2 234.1s6.9 8.9 2.7 23.3c-4.1 14.4 11 21 11 21s-17.4-5.3-13.3-21c4.1-15.8-.4-23.3-.4-23.3z" fill="#f9cfcf"/><path d="M755.6 196c-6.1-9.8 3.2-35.2 23.3-63 1-1.4-7.3 2.3-17.8-.5v-.5s-6.4-1.9-6.4-1.8c-4.6 1.5-34.2 9.5-47.8 15.1-10.4 4.2-18.4 12.8-18.4 12.8 61.2.8 63-3.7 63-3.7h.5c-2.7 8.4-5.7 22.3-8.1 31-4.2 15.4 7.5 27.9 7.5 27.9 19.8 33.1 18 35.3 18 35.3l5.9.1c.5-16.2-11.9-40.2-19.7-52.7z" opacity=".7" fill="#003868"/><path d="M721.2 24.4s24 5.5 30.8.2 16.2-7.5 26.5-4.6c0 0-12.8-.9-22.6 6.4-9.2 6.9-16.2 6.8-28.3 1.1" fill="#d43129"/><path d="M708.1 43.4s.5-9.1 13.4-5.3c5.3 1.6 24.1 6.1 33.2 5.8s33.8-5.2 38.7-1.2l-16.8 6.7s-15.1 4.6-29.5-.3c-7.3-2.5-31.7-8.4-39-5.7z" opacity=".5" fill="#003868"/><path d="M794.3 33.5s-13.1-6.1-24.1-2.7c0 0 15.8-4.9 24.7-.9" fill="#549cea"/><path d="M821.1 85s-2.7-9.4 1.8-14c4.1-4.2 9.3-4.4 11-.8.1-.1-12.8 7.2-12.8 14.8z" fill="#003868"/><path d="M803.6 71.7l12.6 10c1 .7 1.9 1.5 2.8 2.4 1.6 1.5 2.8 1.9 5.5 2.7 0-.6-.4-1.2-.9-1.5-1.2-.7-3.3-2.8-3.9-9.8" fill="#29cec2"/><path d="M833 68.5s5.5 4.9 1.5 8.2l-7.4-2.5" fill="#003868"/><path d="M767.7 133.3c-11.9 0-27.9-7.9-22.4-11.4 7.6-4.9-2.7-20.7-2.7-20.7s14.6 32.2 25.1 32.1" fill="#29cec2"/><path d="M704.8 28.1s2.8-6.5 12.8-4.4 17.4 2.4 28.9 2.4c0 0-9.4 2.1-28.3-.9 0 .1-9.6-1.9-13.4 2.9z" fill="#f9cfcf"/><path d="M821.9 72.4s-5.1 10.3 2.6 14.4l5.2-7.3M628.4 89.5s-1.8.2-3.7 3.7 0-6.6 4.3-9.4" fill="#003868"/><circle cx="780.3" cy="77.6" r="4.1" opacity=".5" fill="#f8f8f5"/><path d="M705.5 94.4c-1.1-2-.3-4.5 1.7-5.6 2-1.1 4.5-.3 5.6 1.7" opacity=".5" fill="#f8f8f5"/><circle cx="791.6" cy="66.3" r="2.7" opacity=".5" fill="#f8f8f5"/><path d="M807 56.6c-.7 2.2-3 3.4-5.1 2.7-2.2-.7-3.4-3-2.7-5.1" opacity=".5" fill="#f8f8f5"/><path d="M839.6 46.2c2.2-3.3 4.7-2.7 3.1-6.6-1.3-3.3-3.8-4.6-5.3-5.2-10.7-1.5-36.4-3.9-50.1 4.4-17.6 10.6-27 29-51.5 23.1 0 0-1.2 12.4 18.9 9.8s23.4-17.2 48-22c24-4.6 41.6 2.6 42.4 2.9-.4-.2-7.5-3.2-5.5-6.4z" fill="#003868"/><path d="M787.5 49.2s27.9-13.6 54.5-5.5c0 0 2.3-1.8 0-4.2 0 .1-17.8-7.2-54.5 9.7z" opacity=".5" fill="#0c76c3"/><path d="M739.5 61.6s11.3 7 23.1-5.1c0 0-7.5 7.5-23.1 5.1z" fill="#549cea"/><path d="M765.4 104.5c-2.8-8.2.2-12.1-3.4-20.1-10.7-23.8-25.7-21.5-26.2-24.1 0 0-5.6 16.8-19.7 1.7l1.6.3-.9.2c.7 7.7-1.7 19.2-7.8 23.9-5.6 4.4-17.6 9.5-24.4 9.9-1.1.1 2.3.8 2.7 1.8l1.7-.1s18.9-.8 32.9-14.8l-.2-.5c1.1.9 1.4-1.7 2.8-1.1 11.3 5.2 30.5 29.4 26.2 46.7 0 0 14.2 10.1 32.9 2.7-.1.1-12.7-10.3-18.2-26.5z" opacity=".6" fill="#003868"/><path d="M734.2 63.1s4-4.3 13.6-1.5l1.2-11-14-4c-.1 0 7.9 6.4-.8 16.5zM832.6 99.4s-4.6 17.1-3 16.7c.9-.2 5-9.8 5-9.8s-3.5 13-1.6 13.2c1.6.2 5.1-11.9 5-12.1 0 0-1.2 8.8-.2 10.1.9 1.2 5.5-10.5 5.5-10.5s-2.3 8.2-1.8 8.7c.6.6 5.5-8.2 5.7-15.8" fill="#003868"/><g><path d="M416.7 43.1l9.1 4.4S450.7 28 475.7 35s38.2 9 38.2 9 47-3.9 66.9 3.5 49.7 24.8 52.8 27.1 12.8 8.9 14.3 14.3c1.6 5.5 4.7 8.4-2.3 5.3s-2.2 1.5-2.2 1.5-11.3-14.9-14.5-15.7c-3.1-.8 2.7 3.1 2.7 3.1s-8.4 2.5-8.4-5.7c0 0-51-15.2-58-12.1-7 3.1-1.6.4-1.6.4s35.4 28.8 39.7 52.6c0 0-13.2 19.5-27.3 18.7 0 0-14 47.1-26.1 57.7-12.1 10.5-46.4 46-47.1 51-.8 5.1-.7 16.5-1.6 23-1.1 8.3 3.7 12.1-8.4 10.6-15.6-1.9-4.7-27.8-2.1-38.3.3-1.1.3-2.3.1-3.5-.9-4.4.5-9 3.6-12.3 7.6-7.8 21.4-22.6 25.9-31.3 6.2-12.1 13.2-14.8 14-16.7.8-1.9 6.2-51.4 6.2-51.4L487 151.1s7 4.3 10.1 15.9c2 7.5 5.2 14.6 10.5 18.8 2.2 1.7 2.1 2.8.1 4.9-2.8 2.9-10.4 9.2-14.3 10.4-6.6 1.9-17.1 2.1-12.5-6.8 0 0 3.7 2.9 9.1-1.8 5.5-4.7 2.3-5.1 2.3-5.1s-37.1-28.1-38.3-35.5c-1.2-7.4 37.5-40.1 37.5-40.1l-2.7-2.3-27.8 8.1s3.2-6.6 9.5-14c6.2-7.4 9.3-17.9 9.3-17.9S477.2 74 485 67c7.8-7 18.7-9.6 18.7-9.6s-33.9-12.8-42.1-11.6c-8.2 1.2-27.2 10-33.1 10s-14.4-2.3-22.2-10.1 10.4-2.6 10.4-2.6z" fill="#003868"/><path d="M535.3 177.1s-2.7 9.3-4.3 13.4c-1.6 4-31.1 45-31.1 45l-2.3-12.5s16.1-18.2 20.2-25.5c3.9-7.3 15-20.9 17.5-20.4z" opacity=".6" fill="#001c36"/><path d="M533.2 115.1s12.3-5.5 5.5 29.2c-1.1 5.7 3.2 8.2 9.1 11.4 4.9 2.6 13.4-1.3 18.9-2.3l4.4-.8 8.6-22.2-18.2-31.3-31.3-19.2 2 21.2 1 14z" opacity=".8" fill="#001c36"/><path d="M549.2 120.6s-56.5 26.2-67.6 34.3c-13.1 9.6-3.4 21.1-3.4 21.1s-27.3-17.2-23.7-26.8c3.5-9.6 64.7-68.2 64.7-68.2s24.9 31.5 30 39.6z" opacity=".8" fill="#001c36"/><path d="M443.6 51.2l-10.4 3.4c-4.5 1.5-9.3 1.6-13.8.4-6.4-1.7-14.8-5-16.3-10.6-2.5-9.2 22.4 1.7 22.4 1.7s19.1-10.9 30.1-11.5c0 0-12 1.9-12 16.6z" fill="#f8f8f5"/><path d="M403.1 45.1s-5-8.2-2.9-8.2 4 4 4 4-3.7-7.3-1.2-6.4c2.4.9 5.2 5.8 5.2 5.8s-2.7-7.6 0-5.8c2.7 1.8 8.6 8.7 8.6 8.7s3.6-2.5 8.8 3.1M497.2 108.9s18.6-9.1 19-9.5c4.1-4.1 12.4-17.7 6.2-15.2-3.2 1.3-12.4 2-16.2 4-3.8 2.1-9 12.2-9.7 16.5l.7 4.2z" fill="#f8f8f5"/><g fill="#88c4f2"><path d="M496.5 105.1l.7 3.8s2.7-1.3 6-3c-2.8.4-6.2-.6-6.7-.8zM510.9 102.1c-1.8-.5-3.4-.7-3.7.7-.1.6-.4 1.1-.7 1.5 1.5-.7 3-1.5 4.4-2.2z"/></g><path d="M649.1 97.5c-2.9.9-6-.3-7.6-2.8-2.2-3.3-1.5-3.7-5.6-6-6.3-3.5-.8-.9-.8-.9-8.7-4-12.9-7.3-12.9-7.3l-8.1-4.3c-3.1-11.1 6.8-12 6.8-12s7.4 4.9 12.9 8.6c3.4 2.3 7 5.8 10.5 8.5 1.5 1.2 3.2 3.2 4.8 5.1 0 0 7.5 9.4 6.6 10.9-.9 1.5-7.2-4.3-7.2-4.3l.6 4.5z" fill="#f8f8f5"/><path d="M615.6 68.5s20.3 9.7 23.8 18l-5.9 1.1s-12.5-8.3-19.8-11.7" fill="#88c4f2"/><path d="M627.4 86.2s0-.1.1-.2c.5-1.3 5-9.9 24.2 1.2 0 0 4.3 2 11.4.8l4 9.7H651s-11.3-10.8-17.2-8.4" fill="#003868"/><path d="M647.8 85.6s5.2 2 11.1 1.8c4.2-.1 20.1-4.1 20.1-4.1s-.3 4.6.3 6.4c0 0-16.3 2.6-22.7 2-6.4-.6-13.7-9.4-18.9-10.1.1 0 6.8.3 10.1 4z" opacity=".5" fill="#549cea"/><path d="M479.4 80.1s-.6 16.2 2 21.4c3 6 5.8 8.1 5.8 8.1s-25.9 6.6-27.1 9.5c0 0 7.5-16.4 11.7-21 4.1-4.5 7.2-7.7 7.6-18zM528.9 75.2c-1.7 2.3-1.5 5.4.5 7.4 4.9 4.8 12.6 12.7 18.7 20.5 8.1 10.3 23.5 37 23.5 37s31.9-5.3 31.7-21.7c-.1-16.4-38.2-53-38.2-53s36.7 3.8 48.8 11c0 0-.4-10.2 6.8-12.3 0 0-30.5-18.5-48.4-22.5-18.4-4-33.9-.2-48-.4-5.3-.1-13-3.8-19.7-5.7-14.5-4.2-39.7-2.1-51.9-1.6 0 0-10.6 2.9-9.1 18.9 0 0 28.5-3.9 58.1 4.7 0 0 13.3-9.6 23.3-2.9 3.7 2.5 5.8 6.7 6 11.2.1 3.1-.2 6.9-2.1 9.4z" fill="#d43129"/><path d="M529.9 87.5s12.9 8.7 0 22.4c-10.1 10.7-34.7 14.4-40.3 23.3-1.2 1.8-3.6 2.4-5.5 1.5l-.4-.2c-2.2-1.1-3-3.8-1.9-5.9 2.2-4.1 6.9-10.2 15.3-11.9 13.3-2.7 32.9-14.1 33.8-18.6.7-3.7-.2-5.7-1.4-6.9-.9-1-.8-2.8.4-3.7z" fill="#21bfb7"/><path d="M506.6 90.6c9.3-2.6 18-6 15.3.1v.1l-1.6 6.5c-.1.5.4 1 .9.8 2.7-.8 9-2.6 9.4-7.7.2-2.8-2.2-6.8-6.3-11.2-2.5-2.7-11.9-.3-15.6.8-.6.2-1.1-.4-.8-1 .8-1.5 2.3-4.1 5.3-6.6 10.8-9.4 0 0 0 0s-2-15.1-9.5-15.2c-7.2 0-27.8 10.9-26.7 25.4 0 .4.1.8.1 1.3 1.3 9.3 2.1 11.2 2.4 11.3.3.1.5.2.5.5.8 4.1 4.3 18.2 12.4 17.1h.2c.4-.2 2.6-1.1 4.2-3.6.1-.2.1-.4.1-.6-.4-1.1-2.5-5.7 4.2-8.1.1 0 .2-8.4 5.5-9.9z" fill="#003868"/><path d="M503.2 57.3s6.4 2.4 8.9 6.7c3.5 5.9-3.8 11.5-5.7 14.3l1.3 4.5s9.1-4.1 14.9-6.7c2.2-1 5.8-8 4.9-12.3-.8-3.5-2.1-6.5-10.6-8.3.1 0-6.6 1.2-13.7 1.8z" fill="#f8f8f5"/><path d="M527.6 64l-17.7 10.2c-1.3 1.7-2.8 3.1-3.4 4.2l1.3 4.5s9.1-4.1 14.9-6.7c2.2-1 5.7-7.9 4.9-12.2z" fill="#88c4f2"/><path d="M498.4 108l3.9-.7c2-.4 3.8-1.7 4.6-3.6l.2-.4s8.5 2 9.1.8c.6-1.2-2-8.2-.4-9.4" fill="#f8f8f5"/><path d="M497.5 222.9s-4.4 20.7 8.7 16.2c0 0-5.3 3.8-5.3 11.2 0 0-2.3 1.1-5.1-1.7-3.3-3.3-1.1-21.1-1.1-21.1l2.8-4.6z" fill="#1bbfb3"/><path d="M444.4 44.1s51.4-1.8 67.4 9.6l-10 3.9s-31.1-8.9-58.1-4.7c-.1 0-.8-5 .7-8.8zM616 67.9s-31.6-15.1-46.2-14.8c-22 .4-39.3 9.1-39.3 9.1l-.1.4c-.8.4.4-.3-.4.2 0 0 28.5 5.7 34.8 21.7 6 15.3 9.6 39.8 32 42.8 1.2.2 2.4-.3 3.2-1.1 2.1-2.3 8.7-7.5-4.4-26.2-11.3-16.1-25.7-30.1-28.9-33.9 18.8-.1 47.4 10.5 47.4 10.5l1.9-8.7zM482.5 84s-16.6 26.7-6.4 27.3 13.6-3.3 13.6-3.3" opacity=".5" fill="#003868"/><path d="M515.8 100.3s-.5-8.2 7.6-9.9l-.9 1.3c-.2 4.1-2.9 7.6-6.7 8.6z" fill="#003868"/><path d="M407.3 43.9c-.9.2-4.2 1.1-4.2 1.1 3.7 8.6 20.2 11.6 26.2 10.7.2 0 .4-.1.6-.1l13.7-4.4c-.5-1.8.8-8.3.8-8.3s-6.7 1.8-17.1 7c-7 3.5-17.4-5.8-17.4-5.8s3.4-1.1-2.6-.2" fill="#88c4f2"/><path d="M636.3 95s-3.8-3.8.2-6.5 8.4-.5 11.1 4.7c2.7 5.2 3.7 5.8 1.5 6.1-2.2.3-11.9 1.5-12.8-4.3z" fill="#f8f8f5"/><path d="M635.8 94.4s2.1 5.8 4.3 6.1c2.1.3 14.1 2.2 9.7-3.5" fill="#f8f8f5"/><path d="M636.3 96.4s-2-6.2.2-4.8c1.2.8 2.8 5.2 2.8 5.2s-2.6-7.3-1.3-7.8c1.5-.7 4.4 7 4.4 7s-2.8-8.7-1.3-8.1c1.5.7 4.1 6.5 4.1 6.5s-2.7-5.4-.4-5.2c3.4.2 5 7.8 5 7.8s-3-10.4-5.9-10.9c-2.8-.4-11.3-.2-10.9 2.4.4 2.7 3.3 7.9 3.3 7.9z" fill="#003868"/><path d="M498.5 234s-3.5 7.4-3.5 12.7-4.5 26 0 32.1c0 0-10.1 1.1-9.8-10.1.2-6.9 2.5-16.4 4.2-22.5 1-3.5 1.4-7.1 1.3-10.8-.1-2.8.2-6.2 2.2-8.4 3.7-4.2 5.8-5.8 5.8-5.8l-.2 12.8z" opacity=".6" fill="#001c36"/><path d="M507.4 85s-4.7.7-5.4-2.9c-.6-3.3 12.1-9.3 10.8-.5" fill="#88c4f2"/><path d="M501 87.7s14.6-10.4 21.3-9.7l5.2 5.2-23.9 5.9" fill="#003868"/><path d="M512 110.9s17.9-4.9 15.8 3c0 0 18.9-18.8 1.7-30.5l-.3 7.7s-9.3 15.5-17.2 19.8z" opacity=".5" fill="#001c36"/><path d="M496.8 110s-5.2 5.8-9.8 0c0 0 3.4 3.5 9.8 0z" opacity=".4" fill="#f8f8f5"/><path d="M496.3 110s-7.9 9.3-15.7-10.8c0-.1 7.7 22.5 15.7 10.8z" fill="#549cea"/><path d="M545.5 40.2s19.4-4.1 37.7 4.8c0 0-14.4-6.6-37.7-4.8z" fill="#f9cfcf"/><path d="M646 88l5.6 8.2-1.2 2.7s-2.4-7.9-5.5-9.4M493.7 187.9s-5.2 4.3-12.8 6.7c-7.6 2.4 2.7 17.5 18.6 3.7 9.5-8.2-4.5-6.4-5.8-10.4z" fill="#003868"/><path d="M493.7 187.9l-8.5 5.5s1.1 4 4 4c7.3 0 9.7-4.9 9.7-4.9s-5.5-2.1-5.2-4.6z" fill="#1bbfb3"/></g><path d="M420 40.8c7.3 6.6 4.3 4.9 4.6 6.1.1.3-1.5.6-1.7.9-.7 1.2-2.2 1.7-3.6 1.2-7.1-2.5-9.3-.3-9.9 1.3-.2.5-.9.6-1.3.1-2-2.7-7.9-9.5-6.9-11.2 1.2-2 15.8-1.1 18.8 1.6z" fill="#88c4f2"/><path d="M463.9 194s-9.5-9.7-6.3-11.5c1.8-1 7.5 10.3 13.9 8.9 1.9-.4-1.1-7.1.9-6.2 2.1.9 9.3 7.7 10.6 12 1.4 4.4-17.3 1.1-19.1-3.2z" fill="#014272"/><g><path d="M889.1 129c-13-13.5-28.8-24.5-34.5-28.1-2.7-2.1-4.3-7.6-5-11.2-.9-5.2-4.1 4.7-2.7 7.5 0 0-2 2.8-4.2.5s-7.4-9.6-6.6-6.4c.8 2.9 4.2 8.2 4.7 8.8-.4-.5-4.5-6.6-7.3-7.4-3.1-.9 4.7 7.9 4.7 7.9s-6.6-5.7-7.1-3.2c-.3 1.8 7.2 6.3 7.2 6.3s-7-2.4-5.9-.7c2.2 3.8 13 6.2 18.6 6.5 7.3 6.2 16.9 18.6 24.6 24.1 6.7 4.8-1.1 29.6-1.1 29.6l4.3 1.2c13.3 31.4 18-27.5 10.3-35.4zM783.4 280.8s-3.7 11.6-15.2 16.8c-11.5 5.1-32.8 14.4-32.8 14.4s-6.4 3-10.3 4.2c-3.8 1.3-15.4.9-19.7-1.3s-7.3-9.7 4.3-10.9c7-.8 13.1-1.6 17-2.2 2.6-.4 5-1.5 7-3.2 6.6-5.8 22.4-19.7 27.8-24.7" fill="#002c55"/><path d="M873.2 196.9s-11.7-4.7-16.9 10.7c-5.1 15.4 4.3 27.4 4.7 39.3.4 12-11.1 20 10.9 31.4 16.9 8.7 25.1 14.9 14.8 31.4 0 0-4.7 10.3-32.9 9.4-28.2-.9-38.5 6.6-56.4-6.4-23.7-17.1-42.8-33.2-42.8-33.2s25.7-29.7 30-38.7c4.3-9 32.2-10.1 45.2-29 9.4-13.7 4-24.8 7.4-29.1 6.8-8.6 21.9-12 34.3-8.6 0 0-22.3-1.2-19.3 7.3s29.7-.3 29.7-.3l-7.3 15.7" fill="#d43129"/><path d="M864.1 299.9s-13.6-10.5-21.9-17.1-3.9-20.1-3.9-20.1 5.3 17.9 20.1 21.4c14.9 3.5 16.9 16.2 16.9 16.2s-5.1-7.9-11.2-.4z" opacity=".3" fill="#002c55"/><path d="M875.9 184s.7 9.7-8.9 19.3-22.2 44.3-32.9 48c-17.8 6.2-8.2 32.2 6.9 40.4 33.4 18.2-15.8 30.8-32.2 24-16.4-6.9-30.4-14.7-39.3-24.9 0 0 17.8-46 28.2-52.2 12.1-7.3 29.7-8.9 35.6-27 6.5-19.8-2.5-31.1 11.9-33.8 14.4-2.8 30.7 6.2 30.7 6.2z" opacity=".4" fill="#002c55"/><path d="M765.2 268.2s33.8 33.3 51.2 35.6c17.4 2.3 29.4-14.2 47.3-19.7 15.2-4.7 21 1.9 21 1.9l-10.2-6.4s-4.6-2.3-17.4 3.2-26.5 20.6-40.2 18.3c-13.7-2.3-51.2-34.7-51.2-34.7l-.5 1.8z" opacity=".5" fill="#d43129"/><path d="M771.6 262.2s31.4 28.7 45.4 30.6c14 2 21.3-12.9 35.7-17.6 14.4-4.7 15.3 1.6 15.3 1.6l-7-5.5s-4.4-2-14.7 2.7-17.3 17.8-28.3 15.8-45.4-29.8-45.4-29.8l-1 2.2z" opacity=".5" fill="#d43129"/><path d="M778.9 250.4s20.1 23.3 35.3 29.7c11.2 4.7 19.6-12.2 31.9-16.9 12.4-4.7 9.5 2.7 9.5 2.7l-.5-7.8s-6.2-2-15 2.7-14.8 17.7-24.3 15.7-35.3-28.9-35.3-28.9l-1.6 2.8z" opacity=".5" fill="#d43129"/><path d="M872.3 195.4s.6 8.7-9.8 25.7-25.5 53-108.6 41.4c0 0-4.4-.5-7.5-1.5-4.7-1.7-13.3-8.9-10.2-10.8 5-3.2 15 .6 15 .6s3.1-5 20.5 2.2c12.8 5.3 58.3-11.3 58.3-11.3s11.8-18.4 15.1-25c3.3-6.5 6.7-19.5 23.7-21.2l3.5-.1zM825.5 319.9s28.4 22.5 36.1 39.1c0 0 6.7-12 12.7-9.5 0 0-10.3-9.4-15-18.8-4.7-9.4-11.5-16.2-11.5-16.2l-1.7-1.4-20.6 6.8z" fill="#002c55"/><path d="M871.7 348.8s-10.3 4.3-11.1 11.5c-.9 7.3-2.6 18-5.1 18.8-2.6.9-13.3 1.3-11.5 3.8 1.7 2.6 10.3 6 19.2 4.7 9-1.3 9-7.7 12.4-14.1 3.4-6.4 7.7-13.7 6-17.5s-9.9-7.2-9.9-7.2z" fill="#002c55"/><path d="M874.7 183.4l9.4 1.4c-3.3 27.5-18.8 32.3-18.8 32.3l3.7-8.3c.5-3 1.3-3.7.9-5.5-1.9-8.5-9.2-5.8-9.2-5.8s16.8-3.2 14-14.1z" fill="#d43129"/><path d="M842.8 314.5s7.8-2.4 12.5-8.4c7.6-9.5 22.6-18 30.5-9.4 7.5 8.2-6.6 23.4-33 23.4-.1-.1-7.5-5.6-10-5.6z" fill="#002c55"/><ellipse cx="863.5" cy="384.1" rx="24.7" ry="7" opacity=".4" fill="#003868"/><path d="M718.1 303.1s-10.8 1.6-8.1 7.1c2.3 4.6 16.4 4.6 23.8 1.8 0 0-12.3 11-26.5 6.9s-10.2-16.7 10.8-15.8zM874.4 349.5s-6.4 3.7-8.7 12.3c-2.3 8.7-4.1 16.9-9.1 16.4s-15.3 1.6-12.7 4.7c2.6 3.1 21.8 13.1 28.2-1l7.8-16.9s6.9-9.1.5-11.9l-6.1-3.5.1-.1z" fill="#054c90"/><path d="M897.3 133.9s.9-5.3 6.6-2.3c0 0-2.3-1.2-6.6 2.3zM916.2 129.9s2.6-3.4 5.2-.2c0 0-.6-.8-5.2.2z" fill="#f8f8f5"/><path d="M772.3 252.7c-.1.5.5.9.9.5.8-1 2.3-1.8 5.1-.7 6.2 2.6 4.8 13.5-5.7 11.9 0 0 .7 1.4 4.1 1.6s10.7-.1 8.5-9.6c-1.9-7.7-11.6-8.3-12.9-3.7z" fill="#0c76c3"/><path d="M856.8 388.8s8 .9 10.5-4.1 8.5-25.8 11.4-27.4c3-1.6 5.3-2.7 3.9 1.8-1.4 4.6-10.5 22.8-10.5 22.8s-1.8 9.6-15.3 6.9z" fill="#001c36"/><path d="M847.3 384.2s.4-3.3 4.8-2.8c4.3.4 9.1 1.7 11.9-7.4 2.8-9.1 5.2-18.7 10.2-17.4 5 1.3 3.9 5 3.9 5s-8.7 26.7-12.6 26.7-7.8 4-18.2-4.1z" opacity=".5" fill="#001c36"/><path d="M869.9 203.1s0 6.1-7.3 18-16.6 28.9-34.7 35.6c0 0 25.1-13.7 39.7-53.9 0 0 1.3-4.8 2.3.3z" opacity=".5" fill="#549cea"/><path d="M718.4 303.1s-11.8-1.7-19.3 6.5c0 0 4.5-10.1 19.3-6.5z" fill="#f8f8f5"/><path d="M845.2 93.6s4.6 2.8 0 14.7c0 0 2.3-12.4 0-14.7z" fill="#549cea"/><path d="M866.2 108.4s18.4 13.1 23.8 21.3l-5.2 2.5s-.9-4.9-18.6-23.8z" opacity=".5" fill="#549cea"/><path d="M773.6 250.8s5.9-4.1 10.7 3.2c0 0-4.7-5.5-10.7-3.2z" fill="#f8f8f5"/><path d="M752.1 263.1s-11.6-3.5-9.5-6.3c1.7-2.3 6.8 2.7 10.8.7 4-2 5.6-2.4 10.5-.1s5.3 5.1 5.3 5.1-6.2 4.6-17.1.6zM885.7 131.7s-5 .8-8.3 4.2-3 4.6-5.1 5.4c-2 .9-6.2.6-6.3 1.9-.1 1.3.7 2.3.4 2.9-.3.6-1.1 1.2-2.3.7-1.3-.5-1.3 1.9-.9 2.9l.3 1s-2-.6-2.3 1c-.3 1.6.9 1.7.5 2.6-.5.9-3.4 2-1.3 4.8 2.2 2.8 8.4 2.3 9.1 4.9.8 2.6.8 3.9.6 6-.3 3.1-8.8 6-8.8 6l5.6 3.4s12.4-.8 14.6 1.6c2.2 2.3 2.1 3.2 2.1 3.2s1.1-6.2 4.2-9.3c3.1-3.1 3.6-5.5 5.8-5.1s1.7 2.8 2.8 2.2c0 0 .9 3.2 2.9 2.2 2-.9.8-.6.8-.6s2.4 3.1 3.8 1c.6-.9 1.6-.9 2.6-.7 1.5.4 3.2 0 4.3-1.1l.1-.1c.5-.4.8-.7 1.2-.9 1.3-.7 3.8.7 5.3.8 2.2.1 4-1.8 5.1-3.3 1.9-2.6.9-3.9.9-3.9s3.2-1.4 2.3-2.8c-.9-1.3-.9-.8-.9-.8s3.1.4 4.3-1.2c2.2-3.1-.6-3.8-1.4-3.4 0 0 2.4-.7 1.2-3.5-1.2-2.9-2.9-2.1-2.9-2.1s6.1-4.3 1.6-8.2c-1.1-.9-2.6-1.1-3.9-.6 0 0 1.4-.5-1.5-1.4 0 0 2.5-1.7 2.4-4.3-.1-2.9-2.3-1.9-2.3-1.9s1.5-.9-.8-2c0 0 3.6-2.9-.1-6-3.7-3.2-4.3-.4-4.3-.4v-1.1s-8.7 1.3-11.5.5c-2.7-.8-3.9.8-3.9.8s.4-.9-1.3-.9c-1.7-.1-1.9.9-1.9.9s-.5-1.8-2.6-.7-2.6 2-2.6 2-.3-1.9-1.2-.4c-.8 1.4-.9 1.9-.9 1.9l-5.5 1.9z" fill="#002c55"/><path d="M869.9 173.9s-25.6.9-18 8.8 14.6-.3 25 2.4c4.1 1.1 7 4.6 7.6-5.2" fill="#002c55"/><path d="M890 129.7s-10.7 16.8 3 38.1l.6 1.9-3.4 2.3s-17.4-20.1-7.3-39.9c.1.1 2.5-2 7.1-2.4z" fill="#29cec2"/><path d="M913.1 149.8s4-1.5 4.9 1.5c.9 3-.9 3.7-.9 3.7s4-1.2 4.3 1.5c.3 2.7-1.8 5.5-1.8 5.5s2.1 5.2-4.3 4.3c0 0 4.3-1.2.9-3.7 0 0 5.8-4.9 2.1-5.5-3.7-.6-5.2-.9-5.2-.9s4.6-5.1 0-6.4zM901.8 150.8s5.5 1.2 2.7 4.9c0 0 5.2-.9 4.9 3 0 0-1.8-1.5-4.9-.9.1 0 .4-6.4-2.7-7z" opacity=".5" fill="#0c76c3"/><path d="M890.3 172.1s-6.4 6.1-6.4 13.7c0 0 1.5 2.1-5.2-.3 0 0 5.2-15.2 10.1-15.5l1.5 2.1z" opacity=".5" fill="#549cea"/><path d="M895.4 128.2s9.6-6.9 13.7-5.2c1.4.6.9 3 .9 3s3-3.7 4.3-2.1.6 4 .6 4" fill="#002c55"/><path d="M888.1 154.4l-10.1 2.4s-1.8-21 4.9-24.7c0 0 4.9-3.7 9.7-2.1.1.1-6.9 18.6-4.5 24.4z" opacity=".5" fill="#002c55"/><path d="M911.3 130.4s4.9.9 2.7 5.5c0 0 4.3 0 4.3 2.7 0 0-.3-4.3-1.5-4.3 0 0-3.4-6.4-5.5-3.9zM880.8 136.6s-4.1 1.4-6.2 4.1c-2.1 2.7-6.9 1.6-6.9 1.6s-2.1.2-.2 0c1.8-.2 4.8 0 6.6-2.3s5.5-6.2 8-6.6" opacity=".5" fill="#549cea"/><path d="M923.4 165.5s2.2 5.1-6.1 7.2c.1 0 6.7-2.7 6.1-7.2zM923.4 165.5s2.8-.1 2.3-2.8c0 .1-.8 2.8-2.3 2.8zM883.1 191.4s.5 17.4-17.8 25.6c0 0 13.2-5.5 17.8-25.6z" fill="#f8f8f5"/></g><g><path d="M466 190.5s-6.9-8.5-4.3-10.7c2.5-2.3 6.1-1.8 7.7 1.1s3.7 4.1 8.1 4.3c4.3.2 7.3 2.7 7.3 2.7l-6.6 2.5c-.1.1-6 3.5-12.2.1z" fill="#001c36"/><path d="M484.3 187.8s11.9 12.3 36.6 18.6c24.7 6.3 34.6 3.8 34.6 3.8s67.4-3.9 78.7-2.6c17.7 2.1 31 7.5 43.6 8.6 11.6.9 68 33.8 68 33.8s9.2.7 10 2.8c.9 2.1 12.3 14.4-17.7 2.9 0 0-72.7-24.7-80.4-28.8l-33.4 3s12.7 19.5 29 28.9c16.2 9.4 16 8.4 19.8 12.5 7.8 8.7 15.3 47.9 17.1 58.2.3 1.5 1.1 2.8 2.3 3.6 3.5 2.4 11.3 9.2 17.9 25.4 5.9 14.6 17.9 24.8 21.9 27.9 4.1 3.1-4.9 14-6.2 19.1-1.3 5.1-7.6 5-14 5s-16.6-3.5-14-6.5c2.6-3 13.9-5.3 13.9-5.3l3.4-6.4s-6-11.5-13.7-17.5-23.1-23.5-26.9-26.9c-3.8-3.4-30.6-44.1-30.6-44.1l-54.5 25.7 5 2.7c7.7 4.1 13.8 10.1 18.9 17.4.9 1.2 1.8 2.4 2.8 3.5l1.8 2 14.5 13.3s-13.4 4.3-17.1 2.7c-10.3-4.5-58.2-28.8-54.1-44.6 1.5-5.9 46.2-47.9 46.2-47.9S592 253.3 578.4 243c-12.4-9.4-34.3-15.9-50.1-18.4s-29.2-2.8-53.1-28.8l9.1-8z" fill="#014272"/><path d="M623.7 173.9s-24.4-8.5-24.4-.4 25 13.9 31.4 17.1c0-.1-10.2-13.5-7-16.7z" fill="#21bfb7"/><path d="M562.1 172.4s-13.4 4.4-10.3 18.4c2.4 11 10.3 19.7 30.8 20.5 20.5.9 44.5-10.3 67.1-20.5 22.7-10.3 44.7-11.8 48.5-7.2 3.9 4.7-7.3 11-7.3 11s19.4-5.9 10-19.2c-7.3-10.3-47.8-.9-47.8-.9s4.8-4.9 15-8.1c15-4.7 16.2-1.3 16.2-1.3s0-6-10.3-4.7c-10.3 1.3-19.2 10.3-32.5 11.5-13.1 1.4-69.6-6.8-79.4.5z" fill="#001c36"/><path d="M533.5 227.9c15.5 2.2 29.8 3.3 43.5 17 4.1 4.1 8.3 6.3 12.1 10.2.5.5.9 1 1.4 1.6l16.7 22.5s38.4 1.8 51.8-17.4L624.4 230l37.9-.5c11.3 2.9 24.3 10.1 35.4 13.2 0 0-1.4-16.9 4.1-16.4 0 0-14.7-9.3-31.2-11.9-10.6-1.7-37.8-10.9-52-7.7 0 0-60.9 3.2-71.8 1.9l-24-1.1s-.4 13.6 6.4 18c2.8 1.9 3.5 2.2 4.3 2.4z" fill="#f8f8f5"/><path d="M622.8 278.6s-44.2 40.5-48.3 48c-4.1 7.5 2.5 21 2.5 21s-16.9-13.5-15.5-21.1c2-11 46-47 46-47s-.8.2 15.3-.9z" fill="#002c55"/><path d="M599.7 362.8l17.7 9.5c4.6 2.6 9.5 6.2 11.2 11.2 0 0-3 13.3-13.3 15.9s6.4 9.7 14.4 3.4c8.4-6.7 12.7-15.7 17.5-18.9 8.2-5.4-4.7-9-17.9-18.3" fill="#014272"/><path d="M658.1 292.3s6.8 40.6 21.9 45.9c26.7 9.4 33.6 50 33.6 50s-24-28.1-33.6-35.6c-9.6-7.5-36-49-36-49l14.1-11.3z" fill="#002c55"/><path d="M618.4 222.5s35.6-6.2 48.7-1.4c13 4.8 30.4 14.4 30.4 14.4l.3 8.1s-30.2-13.9-36.9-14c-8.6-.1-36.5.2-36.5.2l-6-7.3z" fill="#99d7ff"/><path d="M628 385.4s6.4.8 9.1-2.3c2.7-3 4.6-9.7 4.6-9.7s8.2 3.4 8.2 8.2c0 4.9-11.6 9.4-14.3 14.9-2.7 5.5-16.4 13.4-23.8 7.6 0 0-3.2-4.8 2.7-5.8 9.6-1.5 13.2-11.7 13.5-12.9zM715.4 392.4l-1.8 2.7c-1.8 2.7-4.8 4.6-8 5.1-3.9.6-8.4 1.8-7.5 4 1.5 3.7 7.9 4.6 12.8 1.6 4.9-3 13.2-14.4 16.8-16.4 4.9-2.7 5.8-1.8 5.8-1.8l-4.2-4.2c-.8-.8-2-1-3-.4-3.2 1.5-9.7 5.6-10.9 9.4z" fill="#fff"/><path d="M611.9 404.2s10.1 1.2 15.8-2.1c11.9-6.9 21-24.1 21-24.1s3 2.1 0 6.7-10.3 9.9-13.1 13.4c-4.8 6.1-22.9 13.1-23.7 6.1z" fill="#003868"/><path d="M605.8 278.2c8.3 9.7 35.2-3.2 35.2-3.2s4.1-5-11-11c-15.1-5.9-20.1-1.8-28.1-19.7s-24.9-18.2-39-19.2-40.2-6.9-40.2-6.9 5 10.1 16 11c0 0 23.3 0 35.6 13.7s28.8 32.1 31.5 35.3zM701.3 401.1s7 5.8 10.7-2.3c5.9-12.8 12.5-20.3 15.6-9.6 1.9 6.6-16.3 25.1-29.1 16.4 0 .1 0-4.9 2.8-4.5zM640.1 376.9s-7.8 20.6-19.6 22.8c-11.9 2.3-5.8-1.4-5.8-1.4s14-5.9 14-16.4l11.4-5z" fill="#99d7ff"/><path d="M701.7 225.9L732 242l-32.6-13.9c-.5-.2.6-1.3 1.1-1.5l1.2-.7zM495.7 196.2s7 5.1 27 11.2v2.3s-20.6-2.1-27-13.5z" fill="#549cea"/><path d="M741.2 248.8s15.5 1.2 16 5.6c0 .1-8.3-4.8-16-5.6z" fill="#0096ff"/><path d="M574.6 176.3s7.3-8.2 25.7-3.8c18.4 4.4 40.9 7.3 47.5 1.9 0 0-13.9 9.9-32.9 4.9 0 0 12.8 7.3 29.2 2.4 0 0-12.3 11-33 3.7-20.8-7.2-22.3-11.1-36.5-9.1z" opacity=".3" fill="#549cea"/><path d="M649.8 190.8S668 180 684 188.2c0 0-18.7-1.8-35.2 7.8-12 7-33.8 7.8-33.8 7.8l34.8-13z" fill="#001c36"/><path fill="#014272" d="M573.8 207.9l-8.2-9.2 15.1 5.5 10.9 3.2zM697.7 236.1s-1.3 7.5.3 7.4 2.9-1 2.9-1-3.5-5.1-3.2-6.4z"/><path d="M747.6 249.6s-.6-2.5.5-3.2c2.7-2 4.4 5.6 3.5 6.7-1.5 1.7-3.6-2.4-4-3.5zM742.8 248.2c-.3-1.5 1.2-2.8 2.5-2.2.4.2.8.5 1 1 1.1 2.1.8 5.8-.8 5-1.1-.6-2.3-1.5-2.7-3.8zM739.4 245.9s.8-1.8 2.1-.6c1.4 1.2 1.1 4.9-.5 4.3-1.5-.6-2.9-3.1-1.6-3.7z" fill="#002c55"/><path d="M474.9 187.1l3.4 4c1.6 1.8 4.4 2.1 6.1.5 1-.9 1.4-2.2-.2-3.8 0 0-3-3.2-6.9-2.5" fill="#001c36"/><path d="M739.5 256l4.7 4.6s-.2 1.2 1.4 2.4c2.6 2.1 24.9 6.5 11.9-9" fill="#014272"/><path d="M744.2 260.6s1.8 5.1 3.7 4.6c1.8-.5 1.8-1.1 1.8-1.1s.9 3 3 2.1l2.1-.9s5 3 6.6-1.6" fill="#014272"/><path d="M483.1 196.8s5.5 10.4 7.6 10.7c2.8.4-.3-4-.3-4s5.2 6.7 5.8 3.4c.6-3.4-.6-4.6-.6-4.6s9.1 4 7.6 1.8c-1.5-2.1-10.4-9.4-10.4-9.4" opacity=".6" fill="#001c36"/></g><path d="M752.1 263.1s-11.6-3.5-9.5-6.3c1.7-2.3 6.8 2.7 10.8.7 4-2 5.6-2.4 10.5-.1s5.3 5.1 5.3 5.1-6.2 4.6-17.1.6z" fill="#002c55"/><g><path d="M373.4 134s13.3 25.3 29 12.6c14.7-11.9 26.4-24.1 45.2-17 2.3.9 3.8 3.1 3.8 5.5v1.6c0 4-4 6.9-7.8 5.5-7.6-2.7-19.2-4.5-27.6 4.5-13.6 14.5-32.6 14.3-43.4-3.4l.8-9.3z" fill="#d43129"/><path d="M370.3 101.8s10.9-7.7 12.8-16.7c1.9-9 1.3-14.7 11.5-17.9 10.3-3.2 23.1-1 30.1 13.5 7.4 15.3-5.7 24-5.7 24l-4.9 1.1v.2c-3.7 5.5-4.3 5.6-7 7.5l-8.7 5.8-2.6 1.3c.1-.3-10.8-21.4-25.5-18.8z" fill="#f8f8f5"/><path d="M401.6 116c4.7-4.1 8.4-9.1 10.8-14.8l.1-.3 9.4-8.5s-19.3-7.9-21-3c-6.4 18-23.1 13.7-23.1 13.7s17.4 13.4 23.8 12.9z" opacity=".4" fill="#549cea"/><path d="M337.3 70.5s3.1-9.5 7.5-12.5c4.5-3.1 10-11.5 39.2-18l3.4-1.4s8.2-4.7 16.3-4.1c5.4.4 4.8 1.8 4.8 1.8s8.7 7.9.4 7.8c-8.3 0-9 4.4-9 4.4s1.9 3.1 6.7 2.1c4.8-1 6.5-1 6.5-1s-2.1 5.5-8.6 5.5-9.1-4.4-15.5-3.9c-6.7.6-25.3 7.6-30.8 21.4M416.9 155.7l6.1 7.4s24.3 6.4 45.5 19.2c0 0 .5.1 2.6 1 6.7 3.1 14.8-4 21.2 7.3 0 0 1.9 2.5-1.4 3.7s-7.2 5.3-19.6-2.5c0 0-29.6-1-49.5-11.6-19.8-10.6-17.6-14.6-17.6-14.6s9.7-10 12.7-9.9z" fill="#f8f8f5"/><path d="M489 186.4s12.6 7.7 12.8 8.7c.3 1.4-9.9-3.2-9.9-3.2s7.4 8.3 5.9 8.8c-1.3.5-9.2-7.2-9.2-7.2s6.3 7.9 5 8.2c-2.7.7-7.5-6.4-7.5-6.4s4 6.7 1.6 5.9c-1.4-.5-6.1-6.2-6.1-6.2" fill="#f8f8f5"/><path d="M421.2 169.7s27.9 14.2 42.5 15.3c18.3 1.4 22.8 10.1 24.7 14.6 1.2 3 2 4.3-.3 3.4-2.3-.9-5.6-7-8.1-8.1-8.5-3.9-10.3-2.5-10.3-2.5s-42.5-3.7-52.5-15.5c-10.1-11.9-.2-1.7-.2-1.7l4.2-5.5z" fill="#88c4f2"/><path d="M362.4 93l15.8 12.4s27.1 3.4 32.5 24.4c0 0-.4 28.3 11.1 27.4 0 0 4.7 1.3 8.2 7.7 0 0-10.4 4.8-10.4 16.2 0 0-9.3-1.3-12.4-7.9L382 142.6s-27 9.5-27 25 3.4 24.3 3.4 24.3 16.3 20.6-.8 31.3c-1.9 1.2-2.8 3.5-2.2 5.7 2.1 7.7 6.7 25.2 7.7 35.9 0 0 28.4 14.2 43.2 38.5 0 0 11.4 11.4 18.2 14.6 0 0 .8-.9 11.6 7.9l9.7 7.6s3.7-.4 11.2 1.6c7.4 2 20.3 12.2 10.8 17.6-9.5 5.4-33.7.7-47.3-18.9 0 0-53.4-27.1-75-56.1l-18.2-25s-5.5 7.4-16.9 17.6l6.1 49.3s-2.7 2.7.7 8.1c0 0 5.4 5.4 4.7 14.9 0 0 2.7 17.6 0 21.6-2.7 4.1-24.3 6.1-23-2 0 0 3.4-.7 4.7-5.4 1.4-4.7 1.4-16.9-.7-23.6-2-6.8-2.7-13.5-2.7-13.5l-4.7 5.4s-10.1-62.1-7.4-68.2c2.7-6.1 21.8-34.1 21.8-34.1s-5.9-17.2-8-25.3-9.1-58.4 22-87.4c0 0 7.2-5.1 9.2-13.9l.1-9.2c0-4.5.7-9 1.9-13.4 1.8-6.1 4.4-14.1 6.5-15 0 0 12.7.8 18.8 10.3 0 0-2 7.5-3.8 10-1.6 2.6 2 13.8 5.8 14.2z" fill="#003868"/><path d="M316.2 319.1s0 5.5 1.1 8.6c0 0-6.4-6.6-14.2 5.4l-2.7-13.5s11.2-5.7 15.8-.5z" fill="#99d7ff"/><path d="M390.6 109.7c-9.4-4.7-15.5-14.6-23.5-16.7-14.5-3.8-26.1 0-26.1 0l28.7 25.2 20.9-8.5zM335.5 66.5s19.7 1.7 23.9 10.7l1.3-8.6s-6-11.5-18.8-10.3c0 .1-6 5.3-6.4 8.2z" fill="#003868"/><path d="M321.9 335.6s-.2-9.6-6.4-10.3c0 0-11.1.6-12.4 7.8 0 0 3.5 21.3-4.7 22.1-8.2.8-.7 9.1-.7 9.1s2.1 2.7 6.9 1.4c3.4-1 4.1-25.4 8.9-27.4 4.7-2.1 8.4-2.7 8.4-2.7z" fill="#2b7fe2"/><path d="M298.8 365.2s7 2.1 8.7-6.2c1.8-9.1-1.1-26.7 10.5-26.7 6.2 0 6.9 8.7 6.9 13.1 0 1.4-1 2.6-2.4 2.9 0 0 3.4 13.7-1.8 17.4 0 0-10.2 5.7-21.9-.5z" fill="#003868"/><path d="M300.6 319.1s-5.8 2.4-5 5.9 6.1 3 6.1 3l-1.1-8.9z" fill="#001c36"/><path d="M410.9 327.4l7.9 4.3s-1.5-12.8 6.7-13.7l-7.6-4.6s-8.8 2.7-7 14z" fill="#99d7ff"/><path d="M377.7 306.1l33.2 27.1s-2.1-7.6.6-13.7" fill="#003868"/><path d="M410.9 333.2l3-3.7s-5.8-4.6-1.8-11.9c0 .1-3.6 6.2-1.2 15.6z" fill="#001c36"/><path d="M436.5 324.7s-3.7-7-11-6.7c-7.3.3-10.4 8.5-7.9 13.7s15.2 13.7 15.2 13.7-12.9-7.1-7.3-18c4.6-8.8 11-2.7 11-2.7z" fill="#2b7fe2"/><path d="M433.4 321s22.2 11.6 25.3 14c3.1 2.5-16.1.6-25.3-14z" fill="#2b7fe2"/><path d="M426 338.3c-2.4-3.3-3.4-7.4-2.6-11.4.7-3.3 2.6-6.4 7.4-5.4 9.6 2.1 3.7 10.1 21.6 11.5 6.1.5 22.6 7.8 18 16.4-5.3 9.7-30.3 8.3-44.4-11.1z" opacity=".6" fill="#001c36"/><path d="M360.9 93.7s-57.6 16.9-52.1 94.6l1.7 2.3s-6.7-74.4 56.6-97.5" opacity=".5" fill="#0071bf"/><path d="M324.9 192.8s4.4-72.2 49.8-95.4l1.6 1.6s-43.3 21.5-48.8 94.6l-2.6-.8zM390.9 125.5s.4 29.3 23.2 42.6l-2.3 2.7s-18.2-12.3-25.5-41.5l4.6-3.8zM401.2 122.9s1.5 27.9 18.2 39.3l-4.1 1.4s-15.6-15.6-17.9-40.3l3.8-.4zM352.7 68.6s-9.6 13-4.6 22.5l3.1-.4s-5-9.9 4.2-20.6l-2.7-1.5z" opacity=".5" fill="#0071bf"/><path d="M409.3 126.7s-7.1-8.8-24.1 4.6c-16.3 12.9-24.3 16-30.2 27.9-6.4 13.1-3.4 32.9-3.4 32.9l-2.3.8s-3.1-25.6 5.3-39c8.4-13.4 17.2-14.9 26-22.9s21.8-13.8 27.9-7.6c0-.2 1.5.2.8 3.3z" opacity=".5" fill="#0071bf"/><path d="M340.5 194.3s-2.3-25.6 4.9-41.6 26.1-34.5 32.5-37.8c8-4.2 16.4-5.7 20.3-1.5 0 0-5.7-5.1-11.5-5.3-9.9-.4-21.4 13.4-27.5 19.5-6.1 6.1-26.4 27.9-21 66.1l2.3.6z" opacity=".5" fill="#0071bf"/><path d="M300.7 187.4s-1.9 4.6 1.9 6.9c0 0 32.9 9.2 47 3.4s7.6-11.8 7.6-11.8-2.2 18.7-56.5 1.5z" fill="#001c36"/><path fill="#003868" d="M349.8 193.2l.4 6.1 2.8.2-1.8-7.5zM342.4 193.9l.8 7.7 2.2-.6-1.4-6.4zM309.8 189.8l.8 8-2.6-.7-.8-7.3z"/><path d="M407.5 50.6s2.9-2.3 5.6-1c2.7 1.3-5.1 4.9-5.1 4.9s1.1-1.5-.5-3.9z" fill="#f8f8f5"/><path d="M407.4 87.9l9.4 17.8c.9 1.7.5 3.8-.9 5-1.6 1.4-2.5 2.4-5.1-.3l-1.8 1.7s5 6.6 10.2-2c.5-1.1 1-2.4.4-3.5L409 85.3s-3.9-3.5-9.1 0c0 0 5.5-3.1 7.5 2.6z" fill="#003868"/><path d="M424.9 75.8c4.8 3.8 14.7 13.2 14.6 26 0 0-8.3-11.9-13.5-6.5 0 0-9.6-4.4-29.1-1.8-12.4 1.6-15.6-4-15.6-4l-.2-2.1s-1.1-13 7.8-18.4c8.4-5.2 23.5-7.1 32.1 3 1.1 1.4 2.5 2.7 3.9 3.8z" fill="#001c36"/><path d="M423.4 75.5s19.8 12.2 19.5 25c0 0-7.1-13.7-15.9-12.5M335.5 66.5s19.6-7.9 23.9 10.7l-1.5.1s-5.6-15.9-21.1-9.3l-1.3-1.5zM411.2 177.2s5.2-14.5 13-19.2c-.1 0-11.5-.4-13 19.2z" fill="#001c36"/><path d="M389.7 108.6s18.4 8.2 19.6 19 3.6 25.5 9.8 31.2l1.7-1.4s-10.2-9.1-9.8-28.4c0 0-1.5-13.5-21.3-20.4z" fill="#71ccf4"/><path d="M419.4 162.2l5.5 5 5.2-2.3s-3.3-7.3-5.9-6.9l-4.8 4.2zM357.9 77.3s-4.1 7.8 2.6 13.7c0 0-12.2-.4-4.1-17.4l1.5 3.7zM357.5 71.4l1.9 5.8 2-7.9-1.8-2.5z" fill="#0071bf"/><path d="M358.1 187.2s-6-22 2-30.4c0 0-9.5 5.3-5.1 32.3" fill="#71ccf4"/><path d="M371.7 95.3s-54.8 35-47.7 88c4.8 36.2 17.8 47.5 20.5 73.9.7 7.1 6.4 22.4 20.1 24.8 16.1 2.8 21.9 16.2 29 25.2 9.7 12.3 17.9 12.3 17.9 12.3l-1 13.2s-30.1-18.7-65.1-55.2c-12-12.5-20.5-30.1-30.9-48.2-40.3-69.7 9.3-136.7 43.7-138.8 0 0 9.3.6 13.5 4.8z" opacity=".8" fill="#001c36"/><path d="M316.2 233s-25.7 25.5-21.3 31.7c3.2 4.5 6 8.8 4.9 22.7-1.2 14.4 9.1 28.1 9.1 28.1s-12.2 3.9-12.6 8.3c-.4 4.3-10.4-58.6-8-67 2.4-8.4 22.1-35.1 22.1-35.1l5.8 11.3zM352.6 62.7s-14 14.6-5.9 32.8l-16.6 11.2 3.2-10.7s0-30.6 11.2-37.7c0 0 6.7.2 8.1 4.4z" opacity=".8" fill="#001c36"/><path d="M403.7 34.5s3.9-.7 11.6.4c0 0 .8.4 0 .8s-7.6 1.1-7.6 1.1 12 0 13.4 1.2c1.4 1.2-5.4 2.2-5.4 2.2s7 .2 6.6 2.8c-.2 1.3-5.4-.8-5.4-.8s6.8 1.3 5 4.2c-1 1.7-10.7-3.7-20.2-2.7" fill="#f8f8f5"/><path d="M360.5 68.4s13.5-17.2 32.1-16.9c0 0 7.6 4.6 13.1 3.7 2.7-.5 3.3-1.4 3.2-2.3-.1-.9-1.1-1.5-2-1.3-1.9.4-5.7.8-7.7-2.8 0 0 2.3-7.4 17.5-3.3 0 0 2.5 1.5 3.4-.6 0 0-5.3-4.5-13.8-4.5s-15.2 4.6-23.1 5.8S360 54.7 357 63.9l3.5 4.5z" fill="#88c4f2"/><path d="M392.9 95.3s7.3-12.9 11-9.1c4.1 4.3-1.8 9.4-1.8 9.4" fill="#f8f8f5"/><path d="M382 78.6s.3 10.4-3.7 15.2l7.2 3.1c2.1.9 4.5.6 6.4-.8l6.8-9" fill="#001c36"/><path d="M355.1 226.9s6.5 18.8 8.1 37.9c0 0 6.8.5 16.5 10.2l-16.8-9.8s-4.6-22.7-7.8-38.3z" fill="#99d7ff"/><path d="M411.5 319.5l12.5 5.3s-.9 20.6 16 25.1c0 0-19.6-8.4-22.4-19.8l-5.9-.8c0 .1-3.5-8.7-.2-9.8z" opacity=".4" fill="#001c36"/><path d="M308.8 315.5s1.4 13.9 4.6 20.3l-2.7 10.5s-5.9-18.3-7.8-28.3l5.9-2.5z" opacity=".2" fill="#001c36"/><path d="M405.2 74.6c-5.4.2-14.6-3-13.5-6.7 1.2-4 6.8-5.1 12.2-5.3s10.8 1.4 12.9 5.6c1.7 3.3-6.2 6.2-11.6 6.4z" fill="#6cc3ff"/><path d="M414.5 65.4s1.3.4 1.2 1.7c-.4 3.8-4.3 5.3-9.9 5.9-3.3.4-8.4-1.2-10.7-3-2.1-1.7-2.5-4.1-.6-5.8 0 0-2.6 4.7 8.4 6.6 7.5 1.4 12-3.4 11.6-5.4z" fill="#0071bf"/></g><ellipse cx="400.5" cy="69.9" rx="9.9" ry="5.3" opacity=".6" fill="#003868"/><path d="M463.9 194s-9.5-9.7-6.3-11.5c1.8-1 7.5 10.3 13.9 8.9 1.9-.4-1.1-7.1.9-6.2 2.1.9 9.3 7.7 10.6 12 1.4 4.4-17.3 1.1-19.1-3.2z" fill="#014272"/><path d="M831.9 93l-2.1 8.5 3.4-3.9s-2.5 10.3-1.1 10.1c.1 0 .2 0 .3-.1 4.2-.8 8.5 0 12.2 2.1 0 0 2.3-11 .2-15.8-2.1-4.8-3.9-5-3.9-5s-8.7-1.4-9 4.1z" fill="#003868"/><path d="M830.2 93.5s-.4-6 6.3-6.2c6.6-.2 7.8 5 7.8 5s1.4-8.5-8.5-8c-10 .5-8.9 10.1-5.5 9.6l-.1-.4z" fill="#29cec2"/><path d="M837 88.6s7.6 1.4 8.8 17.5c0 0 4.3-18.8-8.8-17.5z" opacity=".5" fill="#549cea"/><path d="M752.5 249.6s5.9-3.4 19.3 3.4c0 0-7.6-4.8-19.3-3.4z" fill="#f8f8f5"/><path d="M721.8 308.4s-24.2 2.7-20.1 6.9c4.1 4.1 21.5 7.3 37.9-6.9" opacity=".3" fill="#001c36"/><path d="M818.2 320.6s25.5.3 34-9.7c8.8-10.5 11.5-12.3 11-12l-5 .8s-6.1 15.2-32.3 18.4" fill="#d43129"/><path d="M501 57.6s9.1 1 11.2 6.4l11-6.2c-.1 0-9.4-6.9-22.2-.2z" fill="#f8f8f5"/><path d="M507.1 102.8c-.6 2.8-3.4 3.3-6.1 3.2l-2.7 2.1 3.9-.7c2-.4 3.8-1.7 4.6-3.6l.2-.4s8.5 2 9.1.8c.1-.2.1-.5.1-.9-1.1 1.1-8.4-3.5-9.1-.5z" fill="#88c4f2"/><path d="M397.9 95.9s2.7-7.8 5.3-6.6 1.8 3.2-1.6 6.4" opacity=".4" fill="#549cea"/><path d="M433.3 83.4s9.4 9.6 10.1 16.9c0 0 1.8-6.2-10.1-16.9z" fill="#f8f8f5"/><path d="M748.3 56l23.5-4.3 2.4-3.4s-12.8 3.4-25 .9c-12.1-2.3-.9 6.8-.9 6.8z" opacity=".5" fill="#003868"/><path d="M873.5 349.9s11.9 1.8 9.1 9.1c0 .1.4-4.8-9.1-9.1z" fill="#f8f8f5"/><path d="M583 316.1s-10.3 10.7 3.9 26.2c11.5 12.6 43.9 17.1 45.5 41.8l-4.3 1.2s-5.3-12.2-24.1-20.4c-18.7-8.2-39.3-23.8-38.8-35.6" fill="#002c55"/><path d="M551.4 189.1s1.4-16.4 18.7-20.1c.1 0-18.7.3-18.7 20.1zM620 171.3s25.6 3.7 34.7-3.2c0 0-13.7 4.6-34.7 3.2z" fill="#549cea"/><path d="M646 191.4s27.9-10.1 35.6-10.1c0 .1-21.9 1-35.6 10.1z" fill="#1bbfb3"/><path d="M659 261.7s18.7 2 24.2 35.8c0 .1-4.6-26.3-24.2-35.8z" fill="#f8f8f5"/><path d="M734.6 46s-12.2-4.7-21.2-4.7c0 0-3.2-.6-4.9 1.7l2 6.8c.4 1.2 1.2 2.3 2.3 2.9l.2.1 1 2.2c.3 1.3 2.6 7.8 3.6 8 .6.1.9-.2 1.3-.4.7-.4.8-1.1 1.1-.6.6.9 1.7 2.6 1.7 2.6s1 0 1.9 1.1c1 1.2 1.1 3.2 4.1 2.9 4.2-.4 6.9-6 8.6-11.1 1.9-5.7-1.7-11.5-1.7-11.5z" opacity=".5" fill="#549cea"/><g><path d="M734.6 46s-5.4-2.1-11.6-3.5c.5.2.9.5 1.4.7 1.3.7 2.7 1.4 3.8 2.4 1.2 1 2.2 2.2 2.6 3.7.3 1.2.3 2.5 1 3.5.5.7 1.2 1.1 1.8 1.6 1.1 1 1.8 2.5 2 4 0 .2.1.5.1.7l.6-1.8c1.9-5.5-1.7-11.3-1.7-11.3z" fill="#003868"/></g><path d="M710.9 41.1s9.4-.6 20.7 8.5c5.9 4.7 15.5 7.3 15.5 7.3l.6-7.3c.1.1-29.2-11.2-36.8-8.5z" fill="none"/><g fill="none" stroke="#001c36" stroke-width=".914" stroke-miterlimit="10"><path d="M715.2 53.6c-.3-.6-.1-1.4.6-1.8l4.5-2.2c1.8-.8 3-1 4.6.9 1.4 1.8.7 4.4-.9 5.1-4.4 1.9-6.6.3-7.8-.9-.5-.2-.8-.6-1-1.1zM710.7 54.3l-3.2 1.5c-3.2 2.2.6 6.1 4.4 5.6 3.8-.5 2.1-5 1.7-5.9-.4-1.2-1.7-1.8-2.9-1.2z"/></g><path d="M721 63.9l.6.2s.5-.8 1.6-1.1c4.1-1.1 3.2-2.3 4.1-3.4 0 3.6-3.9 6.9-5.6 6.1" fill="#003868"/><path d="M724.8 66.3c-.6.4-1.4.3-2.5.1l-.4-.6s.5.6 2.3-2l2.7-2.5-.7 2.8c-.2.9-.7 1.7-1.4 2.2z" fill="#003868"/><path fill="none" stroke="#001c36" stroke-width=".914" stroke-linecap="round" stroke-miterlimit="10" d="M723.6 49.5l7.9-5.9"/><path d="M715.2 53.6s-1.8-.1-2.1 1" fill="none" stroke="#001c36" stroke-width=".914" stroke-miterlimit="10"/><path d="M405 91.3l-3 4.3 1.5 1.8s2.1-5 4.9-4.8c2.7.2 2-3.5 2-3.5l-5.4 2.2z" fill="#001c36"/></g></svg>