<svg xmlns="http://www.w3.org/2000/svg" viewBox="0 0 250 250"><path d="M109 74.7s10 19 21.7 9.5c11-8.9 19.8-18 33.9-12.8 1.7.6 2.8 2.3 2.8 4.1v1.2c0 3-3 5.2-5.8 4.2-5.7-2-14.3-3.4-20.7 3.4-10.2 10.9-24.4 10.7-32.5-2.6l.6-7z" fill="#d43129"/><path d="M106.6 50.5s8.2-5.8 9.6-12.5 1-11 8.6-13.4 17.3-.7 22.6 10.1c5.6 11.5-4.2 18-4.2 18l-3.6.8v.1c-2.7 4.1-3.2 4.2-5.3 5.6l-6.5 4.3-1.9 1c-.1-.1-8.2-15.9-19.3-14z" fill="#f8f8f5"/><path d="M130.1 61.2c3.5-3 6.3-6.8 8.1-11.1l.1-.2 7-6.3s-14.4-5.9-15.7-2.2c-4.8 13.5-17.3 10.3-17.3 10.3s13 9.9 17.8 9.5z" opacity=".4" fill="#549cea"/><path d="M81.9 27.1s2.4-7.1 5.6-9.4c3.3-2.3 7.5-8.6 29.3-13.5l2.6-1s6.1-3.5 12.2-3.1c4.1.3 3.6 1.4 3.6 1.4s6.5 5.9.3 5.9-6.8 3.3-6.8 3.3 1.5 2.3 5.1 1.6c3.6-.8 4.9-.8 4.9-.8s-1.5 4.1-6.4 4.1-6.8-3.3-11.6-2.9c-5 .4-19 5.7-23.1 16M141.5 90.9l4.6 5.5s18.2 4.8 34.1 14.4c0 0 .4.1 2 .8 5.1 2.3 11.1-3 15.9 5.5 0 0 1.4 1.9-1.1 2.8-2.5.9-5.4 4-14.7-1.9 0 0-22.1-.7-37.1-8.7-14.8-7.9-13.2-10.9-13.2-10.9s7.3-7.5 9.5-7.5z" fill="#f8f8f5"/><path d="M195.5 113.9s9.5 5.8 9.6 6.5c.2 1.1-7.4-2.4-7.4-2.4s5.5 6.2 4.4 6.6c-1 .3-6.9-5.4-6.9-5.4s4.7 5.9 3.8 6.2c-2 .5-5.6-4.8-5.6-4.8s3 5 1.2 4.4c-1-.3-4.6-4.6-4.6-4.6" fill="#f8f8f5"/><path d="M144.8 101.4s20.9 10.6 31.8 11.5c13.7 1 17.1 7.5 18.5 10.9.9 2.3 1.5 3.2-.2 2.5-1.7-.7-4.2-5.2-6.1-6.1-6.4-2.9-7.7-1.9-7.7-1.9s-31.8-2.7-39.3-11.6c-7.5-8.9-.1-1.3-.1-1.3l3.1-4z" fill="#88c4f2"/><path d="M100.7 44l11.8 9.3s20.3 2.6 24.3 18.3c0 0-.3 21.2 8.3 20.5 0 0 3.5 1 6.2 5.8 0 0-7.8 3.6-7.8 12.2 0 0-7-1-9.3-5.9l-18.8-22.9S95.2 88.4 95.2 100s2.5 18.2 2.5 18.2 12.2 15.4-.6 23.5c-1.4.9-2.1 2.6-1.6 4.2 1.6 5.8 5 18.8 5.8 26.9 0 0 21.2 10.6 32.4 28.8 0 0 8.6 8.5 13.6 10.9 0 0 .6-.6 8.7 5.9l7.3 5.7s2.8-.3 8.4 1.2c5.6 1.5 15.2 9.1 8.1 13.1s-25.3.5-35.4-14.1c0 0-40-20.3-56.2-42l-13.7-18.7s-4.1 5.5-12.6 13.1l4.6 36.9s-2 2 .5 6.1c0 0 4 4 3.5 11.1 0 0 2 13.1 0 16.2-2 3-18.2 4.6-17.2-1.5 0 0 2.5-.5 3.5-4s1-12.6-.5-17.7-2-10.1-2-10.1l-3.5 4s-7.6-46.5-5.6-51.1 16.4-25.5 16.4-25.5-4.4-12.8-6-18.9c-1.5-6.1-6.8-43.7 16.5-65.5 0 0 5.4-3.9 6.9-10.4l.1-6.9c0-3.4.5-6.7 1.5-10 1.3-4.6 3.3-10.6 4.9-11.3 0 0 9.5.6 14.1 7.7 0 0-1.5 5.6-2.8 7.5-1.7 2 1 10.4 3.9 10.7z" fill="#003868"/><path d="M66.1 213.3s0 4.1.8 6.4c0 0-4.8-5-10.6 4l-2-10.1s8.3-4.2 11.8-.3z" fill="#99d7ff"/><path d="M121.9 56.5c-7-3.5-11.6-10.9-17.6-12.5-10.9-2.9-19.5 0-19.5 0l21.5 18.9 15.6-6.4zM80.6 24.1s14.7 1.3 17.9 8l1-6.4S95 17.1 85.4 18c0 .1-4.5 3.9-4.8 6.1z" fill="#003868"/><path d="M70.4 225.6s-.2-7.2-4.8-7.7c0 0-8.3.4-9.3 5.9 0 0 2.6 16-3.6 16.6s-.5 6.8-.5 6.8 1.5 2.1 5.1 1c2.5-.7 3.1-19 6.7-20.5 3.6-1.6 6.4-2.1 6.4-2.1z" fill="#2b7fe2"/><path d="M53.1 247.9s5.3 1.6 6.5-4.6c1.4-6.8-.9-20 7.9-20 4.6 0 5.2 6.6 5.2 9.8 0 1-.7 1.9-1.8 2.2 0 0 2.6 10.3-1.4 13 0-.1-7.7 4.2-16.4-.4z" fill="#003868"/><path d="M54.5 213.3s-4.4 1.8-3.7 4.4c.6 2.6 4.6 2.3 4.6 2.3l-.9-6.7z" fill="#001c36"/><path d="M137 219.5l5.9 3.2s-1.1-9.6 5-10.3l-5.7-3.4c.1 0-6.5 2.1-5.2 10.5z" fill="#99d7ff"/><path d="M112.2 203.6l24.9 20.3s-1.6-5.7.5-10.3" fill="#003868"/><path d="M137 223.8l2.3-2.7s-4.3-3.4-1.4-8.9c0 0-2.7 4.6-.9 11.6z" fill="#001c36"/><path d="M156.2 217.5s-2.7-5.2-8.2-5c-5.5.2-7.8 6.4-5.9 10.3 1.8 3.9 11.4 10.3 11.4 10.3s-9.7-5.3-5.5-13.5c3.4-6.7 8.2-2.1 8.2-2.1z" fill="#2b7fe2"/><path d="M153.9 214.7s16.6 8.7 18.9 10.5-12 .5-18.9-10.5z" fill="#2b7fe2"/><path d="M148.3 227.6c-1.8-2.5-2.6-5.6-1.9-8.6.5-2.5 1.9-4.8 5.5-4 7.2 1.5 2.8 7.6 16.1 8.6 4.6.4 16.9 5.8 13.5 12.3-3.9 7.3-22.6 6.3-33.2-8.3z" opacity=".6" fill="#001c36"/><path d="M99.6 44.5s-43.1 12.7-39 70.8l1.2 1.7s-5-55.7 42.4-73" opacity=".5" fill="#0071bf"/><path d="M72.6 118.7s3.3-54.1 37.3-71.5l1.2 1.2s-32.5 16.1-36.6 70.9l-1.9-.6zM122.1 68.3s.3 22 17.4 31.9l-1.7 2.1s-13.7-9.2-19.1-31.1l3.4-2.9zM129.8 66.3s1.1 20.9 13.6 29.4l-3.1 1S128.6 85 126.9 66.5l2.9-.2zM93.5 25.7s-7.2 9.7-3.4 16.9l2.3-.3s-3.7-7.4 3.1-15.5l-2-1.1z" opacity=".5" fill="#0071bf"/><path d="M135.8 69.2s-5.3-6.6-18 3.4c-12.2 9.6-18.2 11.9-22.6 20.9-4.8 9.8-2.6 24.6-2.6 24.6l-1.7.6s-2.3-19.2 4-29.2 12.9-11.2 19.5-17.2 16.3-10.3 20.9-5.7c-.1 0 1.1.3.5 2.6z" opacity=".5" fill="#0071bf"/><path d="M84.3 119.8s-1.8-19.2 3.7-31.2c5.4-12 19.6-25.8 24.3-28.3 6-3.1 12.3-4.3 15.2-1.1 0 0-4.3-3.8-8.6-4-7.4-.3-16 10-20.6 14.6-4.6 4.6-19.7 20.9-15.7 49.5l1.7.5z" opacity=".5" fill="#0071bf"/><path d="M54.5 114.7s-1.4 3.4 1.4 5.2c0 0 24.6 6.9 35.2 2.6 10.6-4.3 5.7-8.9 5.7-8.9s-1.6 14-42.3 1.1z" fill="#001c36"/><path fill="#003868" d="M91.3 119l.3 4.6 2.1.1-1.4-5.6zM85.7 119.6l.6 5.7 1.7-.4-1-4.8zM61.4 116.5l.5 6-1.9-.6-.6-5.4z"/><path d="M134.5 12.2s2.2-1.7 4.2-.7-3.8 3.7-3.8 3.7.8-1.2-.4-3z" fill="#f8f8f5"/><path d="M134.5 40.2l7.1 13.4c.7 1.3.4 2.8-.7 3.8-1.2 1.1-1.9 1.8-3.8-.2l-1.4 1.3s3.8 5 7.7-1.5c.4-.8.7-1.8.3-2.6l-8-16s-2.9-2.6-6.8 0c-.1-.2 4-2.5 5.6 1.8z" fill="#003868"/><path d="M147.5 31.1c3.6 2.8 11 9.9 10.9 19.5 0 0-6.2-8.9-10.1-4.9 0 0-7.2-3.3-21.8-1.4-9.3 1.2-11.7-3-11.7-3l-.2-1.6s-.9-9.7 5.8-13.8c6.3-3.9 17.6-5.3 24 2.2 1 1.2 2.1 2.1 3.1 3z" fill="#001c36"/><path d="M146.4 30.9S161.2 40 161 49.6c0 0-5.3-10.3-11.9-9.4M80.6 24.1s14.6-5.9 17.9 8l-1.1.1s-4.2-11.9-15.8-6.9l-1-1.2zM137.3 107s3.9-10.9 9.7-14.4c0 0-8.6-.2-9.7 14.4z" fill="#001c36"/><path d="M121.2 55.6s13.8 6.2 14.6 14.2c.8 8 2.7 19.1 7.3 23.4l1.3-1.1s-7.6-6.9-7.3-21.3c0 .1-1.1-10-15.9-15.2z" fill="#71ccf4"/><path d="M143.4 95.8l4.1 3.8 3.9-1.7s-2.5-5.5-4.4-5.2l-3.6 3.1zM97.3 32.2s-3 5.8 1.9 10.3c0 0-9.1-.3-3-13l1.1 2.7zM97.1 27.8l1.4 4.4 1.5-6-1.4-1.8z" fill="#0071bf"/><path d="M97.5 114.5S93 98.1 99 91.7c0 0-7.1 4-3.8 24.2" fill="#71ccf4"/><path d="M107.7 45.7s-41 26.2-35.7 65.9c3.6 27.1 13.3 35.6 15.4 55.3.6 5.3 4.8 16.8 15.1 18.6 12 2.1 16.4 12.1 21.7 18.9 7.3 9.2 13.4 9.2 13.4 9.2l-.7 9.9s-22.5-14-48.7-41.4c-9-9.3-15.4-22.6-23.2-36.1C34.8 93.8 71.9 43.7 97.7 42c-.1.1 6.9.6 10 3.7z" opacity=".8" fill="#001c36"/><path d="M66.1 148.8s-19.2 19.1-16 23.7c2.4 3.4 4.5 6.6 3.6 17-.9 10.8 6.8 21 6.8 21s-9.2 3-9.5 6.2-7.8-43.9-6-50.2 16.5-26.3 16.5-26.3l4.6 8.6zM93.3 21.3s-10.5 10.9-4.4 24.5l-12.4 8.4 2.4-8s0-22.9 8.4-28.2c0 0 5 .1 6 3.3z" opacity=".8" fill="#001c36"/><path d="M131.6.1s2.9-.5 8.7.3c0 0 .6.3 0 .6s-5.7.9-5.7.9 9 0 10.1.9c1.1.9-4.1 1.7-4.1 1.7s5.3.2 5 2.1c-.1 1-4.1-.6-4.1-.6s5.1.9 3.8 3.2c-.8 1.3-8-2.7-15.1-2" fill="#f8f8f5"/><path d="M99.3 25.5s10.1-12.9 24-12.6c0 0 5.7 3.4 9.8 2.7 2.1-.3 2.5-1.1 2.4-1.7-.1-.7-.8-1.1-1.5-1-1.4.3-4.3.6-5.8-2.1 0 0 1.7-5.5 13.1-2.5 0 0 1.9 1.1 2.6-.5 0 0-3.9-3.4-10.3-3.4s-11.4 3.4-17.3 4.3c-5.9.9-17.4 6.4-19.6 13.2l2.6 3.6z" fill="#88c4f2"/><path d="M123.6 45.7s5.5-9.7 8.2-6.8c3.1 3.2-1.4 7.1-1.4 7.1" fill="#f8f8f5"/><path d="M115.4 33.2s.2 7.8-2.7 11.4l5.4 2.3c1.6.7 3.4.4 4.8-.6l5.1-6.7" fill="#001c36"/><path d="M95.3 144.3s4.8 14.1 6.1 28.4c0 0 5.1.4 12.3 7.6l-12.6-7.3s-3.4-17-5.8-28.7z" fill="#99d7ff"/><path d="M137.5 213.6l9.4 4s-.7 15.4 12 18.8c0 0-14.7-6.3-16.8-14.8l-4.4-.6c-.1 0-2.7-6.6-.2-7.4z" opacity=".4" fill="#001c36"/><path d="M60.6 210.6s1 10.4 3.4 15.2l-2.1 7.9s-4.4-13.7-5.8-21.2l4.5-1.9z" opacity=".2" fill="#001c36"/><path d="M132.8 30.2c-4 .2-11-2.3-10.1-5 .9-3 5.1-3.8 9.1-4 4-.2 8.1 1 9.7 4.2 1.2 2.5-4.7 4.7-8.7 4.8z" fill="#6cc3ff"/><path d="M139.7 23.3s1 .3.9 1.3c-.3 2.9-3.2 4-7.4 4.4-2.5.3-6.3-.9-8-2.3-1.6-1.2-1.8-3.1-.5-4.3 0 0-1.9 3.5 6.3 5 5.7 1 9.1-2.6 8.7-4.1z" fill="#0071bf"/></svg>