<svg xmlns="http://www.w3.org/2000/svg" xmlns:xlink="http://www.w3.org/1999/xlink" viewBox="0 0 1000 436.1"><path d="M1000 0H0l.2 267.9c17.2 34.9 56.5 53.5 94.1 55.6 75.4 4.2 147.2-45.5 222.5-32.8 77.9 13.1 135.1 90.6 235.6 119.8 57 16.6 118.2 12.6 175.7-1.7 69.6-17.3 130.1-46.5 272-109.6V0z" fill="#92bbff"/><defs><path id="a" d="M93.6 323.7c75.4 4.2 147.2-45.5 222.5-32.8 76 12.9 135.1 90.6 235.6 119.8 57 16.6 118.2 12.6 175.7-1.7 69.6-17.3 130.4-45.3 272.3-108.4l-.3-69.9h.4V.1H-.1v268.5c17 34.6 56.2 53.1 93.7 55.1z"/></defs><clipPath id="b"><use xlink:href="#a" overflow="visible"/></clipPath><path clip-path="url(#b)" fill="#78aaff" d="M317.6 118.5h63.6v43.7h-63.6zM179.2 25.9h110.4v129.7H179.2z"/><g opacity=".6" clip-path="url(#b)"><defs><path id="c" opacity=".6" d="M178.4 24.6h110.7v130.8H178.4z"/></defs><clipPath id="d"><use xlink:href="#c" overflow="visible"/></clipPath><path d="M253.9 75.4s-2.3-2.9-2.4-5.5c-.1-2.6.6-6.8-2.3-8.4s-7.8-3.2-7.8-3.2-1.1-6-1-9.9 1-14.7-7.6-14.5c0 0-2.4-.5-3.5.4h-.6c-1.1.2-3.4 1-4.1 5.3-.9 5.7-.4 17.7-2 18.6-1.6.9-4.4 2.8-4.4 2.8s-4.2 1.8-6.1 6.4-6.8 17.4-6.4 18.8c.5 1.5 3.4 2.9 4.9 5.4 1.5 2.4 10.5 9.5 10.5 9.5s.7 3.9-.1 5.4c-.9 1.5-2.9 1.7-2.6 5.9.4 4.2.4 5.5 0 8.6-.4 3.1-4.3 18-4.4 20.8s-.7 2.2-1.1 4.9-2.8 9.3-4.3 13.7c-1.5 4.4-3.4 10.6-3.4 10.6s-.1 1.3 1.2 1.7c0 0-1 9-1.8 10.1-.9 1.1-.1 1.3-1 2.2s-1.8.6-1.8.6 2 1.3-1.6 3.5c-3.5 2.2-5.5 5.1-4.2 6.1 1.3 1 6 3.3 9.4-2.8l1.7-.9 1.5-.9-.1-2.4s-1-2.1-.2-3.2-.2-2.6.7-4.2c1-1.6 3.2-7.3 3.2-7.3l3.3-.2s.4-1.2.9-2.6c.5-1.3-.7-.4-.7-.4s6.8-20.9 8.1-23.1c1.2-2.2 11.5-24.1 11.5-24.1s1.7 2 1.6 4.5 1.1 17.1 1.1 20-.4 5.9 0 8.1c.4 2.2-1.2 17.2-1.2 17.2s-.4-.6-.5.9c-.1 1.5 1.2 2.6 1.2 2.6s.2 3.7-1.2 5.6c-1.5 2-1.6 3.1-1.5 4.3.1 1.2-2.7 8.1-2.2 9.4.5 1.3 6.5 4 8.8-.7 0 0-.1-3.1-.6-5.1-.5-2.1-.7-2.6-.4-3.2.4-.6-.6-1.8.1-4.2.7-2.3 2.6-6 2.6-6l4.6-1.5s-.1-6.5 0-11.5-.6-8.4 1.3-20.5 4.2-27 2.9-32.1c-1.2-5.1-.5-2.7-.5-2.7l.1-3.5s-1-.7-2.2-3.7c-1.2-2.9-1.6-4.6-1.6-4.6s4.6-7.9 4.8-11.2c.1-3.3.2-4.8.2-4.8s2 0 2.1-1.8-.9-3.2-.9-3.2zm-39.8 10.4c.9-.6.6-2.6.6-2.6l2.9-6.5c-.6 3.3 3.1 17.8 3.1 17.8s-7.4-8.1-6.6-8.7z" opacity=".4" clip-path="url(#d)" fill="#0c4dbd"/></g><path opacity=".4" clip-path="url(#b)" fill="#0c4dbd" d="M178.9 155.4h108v2.1h-108z"/><path clip-path="url(#b)" fill="#d2e1f5" d="M560.1-1h193.1v248.6H560.1zM775.3.7h184.6v242.4H775.3z"/><path d="M845.4 102.5l-47.4 20 .4 123.2 47.8-.2c.1.1-1.7-142-.8-143z" clip-path="url(#b)" fill="#b2ccea"/><path clip-path="url(#b)" fill="#b2ccea" d="M959.3 245.4l-114.8.9.9-144.7L959.3 99z"/><path opacity=".6" clip-path="url(#b)" fill="#fff" d="M784.3 245.1h174.5v1.4H784.3z"/><path opacity=".7" clip-path="url(#b)" fill="#fff" d="M900.5 155h59.2v10.8h-59.2zM900.5 134.3h59.2v10.8h-59.2zM900.5 114.4h59.2v10.8h-59.2zM900.5 197.1h59.2v10.8h-59.2zM900.5 217.8h59.2v10.8h-59.2zM900.5 175.6h59.2v10.8h-59.2z"/><path clip-path="url(#b)" fill="#92bbff" d="M959.3.5h41.9v255.6h-41.9z"/><path clip-path="url(#b)" fill="#b5cdea" d="M798.3 245l-185 .9V140h185.2z"/><path d="M743.6 127.8s-6.2 7.3 1.6 18l2.1-.7s-5.2-13.4-1.8-17.8" opacity=".9" clip-path="url(#b)" fill="#3c78df"/><path opacity=".5" clip-path="url(#b)" fill="#79a6f6" d="M670.2 158.2h36.2v10.9h-36.2zM621.7 158.2h36.2v15.7h-36.2zM715.3 158.2h36.2v10.9h-36.2zM670.2 182.8h36.2v10h-36.2zM622.4 203.1h36.2v8.6h-36.2zM684.6 202.9h91.6v8.4h-91.6z"/><path clip-path="url(#b)" fill="#accbff" d="M715.3 182.8h36.2v10h-36.2z"/><path d="M806.5 70.9l70.4.7s.7-10.5-4.1-6.2c-6.2 5.5-8.9 4.1-15-.7-5.5-4.3-6.8 6.8-13 1.4-6.2-5.5-4.8-13-11.6-8.9s-13 10.9-16.4 8.9c-3.5-2-10.3 4.8-10.3 4.8zM574.1 70.9l70.4.7s.7-10.5-4.1-6.2c-6.2 5.5-8.9 4.1-15-.7-5.5-4.3-6.8 6.8-13 1.4-6.2-5.5-4.8-13-11.6-8.9s-13 10.9-16.4 8.9c-3.5-2-10.3 4.8-10.3 4.8z" clip-path="url(#b)" fill="#e7eef7"/><path clip-path="url(#b)" fill="#92bbff" d="M872.7.8h6.8v182.3h-6.8zM659.5-2.8h6.8v182.3h-6.8z"/><path clip-path="url(#b)" fill="#accbff" d="M23.4 1.2h110.4V131H23.4z"/><path opacity=".2" clip-path="url(#b)" fill="#0c4dbd" d="M24.4 131.8h108v2.1h-108z"/><path opacity=".3" clip-path="url(#b)" fill="#0c4dbd" d="M38.1 51.9h36v5h-36zM81.2 52.2h14.3v4.7H81.2zM111.2 52.3h10.9v4h-10.9z"/><path d="M425.6 146.6s25.1-9 43.3 0c18.1 9 17.1 18 21.1 32.4 4 14.4 29.2 76.1 29.2 76.1l-12.3-1.4-34.2-61.5-4.8 28.8c-.9 5.4-1.2 10.9-1 16.3l1 21.9-53.4.9s-3.8-22.5.2-40.6c4-18 7.4-47.1 7.4-47.1l-22.6 25.3-10.9-11.6c.1.1 26-37.7 37-39.5z" clip-path="url(#b)" fill="#3c78df"/><path d="M432.6 145.4s-7.1 29.3-3 34.1l25.3 3.4 13.9-36.2 3.2 1.3s-26.7 63.2-4.8 88.1c0 0 1.4 14.8.7 21.5l-53.4.9s-4.7-20.4.8-43.2 14.6-68.4 14.6-68.4l2.7-1.5z" clip-path="url(#b)" fill="#155ad0"/><path d="M495.6 257.6h-68c-1.9 0-3.5-1.6-3.5-3.5s1.6-3.5 3.5-3.5h68c1.9 0 3.5 1.6 3.5 3.5s-1.5 3.5-3.5 3.5z" clip-path="url(#b)" fill="#0a3e72"/><path clip-path="url(#b)" fill="#5492ed" d="M473.9 226.9l4.3 23.7h9.5l3.7-23.8z"/><path clip-path="url(#b)" fill="#5492ed" d="M473.2 225.8h18.9v3h-18.9zM1019.1 383.6L-1 383.8l.9-127 1019.2.6z"/><path opacity=".89" clip-path="url(#b)" fill="#fff" d="M909.5 258.2l-510.3.4V257l510.3.4z"/><g clip-path="url(#b)"><path d="M744.9 133.5s.7 21.9 8.9 21.2c6.2-.5 10.7 8.7 5.9 14.6 0 0 3.7 5.9 16.4-2.5 0 0-5.5-4.8-4.3-16.1.6-5.9-11.6-28.7-25.2-25.2-5.6 1.4-1.7 8-1.7 8z" fill="#5492ed"/><path d="M771.2 164.8s2.8 5.8 9.3 7.9 7.2 12.6 1 19.1c-6.3 6.4-24.6 22.1-37.7 16.1 0 0-10-4.8-16-13.3-1.9-2.7-4.9-5.9-7.9-7.2-.9-.4 4.8 1.2 3.6 1.4-2.5.4-7.5-4.6-7.5-4.6s1.4-4.3-1.6-7.4 7.8-3.2 11.2-1.5c0 0 .7 6.4 6 11.9s12.7 11.5 20.4 10.5c7.7-.9 21-13.2 21-13.2" fill="#5492ed"/><path d="M783.4 196.4s-7.5 13.7-5.5 22.6c1.9 8.4 7.1 15 6.8 27.3-.3 12.3-10.3 58.8-10.3 58.8s-30.3-16.8-30.9-25.1c-.6-8.3-7.2-29.1-5.7-44.1s1.1-34 8.6-49.7c7.5-15.7 14.8-19.6 21.9-21.2 8.9-1.9 23.3 8.7 15.1 31.4z" fill="#5492ed"/><path d="M784.3 190.3s-.3.8-1 2.1c-2.9 5.7-12.5 21-31.5 19.8 0 0 24 29.5 22.2 51.9l8.2 2.4s8.8-20.4-4.2-47.6c0 0-2.7-10.1 4.5-21.1" opacity=".6" fill="#3c78df"/><path d="M715.1 176.4l-2.6-9.7c-.2-.7.3-1.4 1-1.4l8.1-.5c.5 0 1 .3 1.2.8l5.5 19.6-13.2-8.8zM743.6 129s16.6 5.3 18.7 20.3l2.1 7.5 14.4-4.1c5.9-3.8 5.2-15.6 1.2-21.4-7.8-11-20.7-23.5-36.4-2.3z" fill="#5492ed"/></g><path d="M743.3 129.2s9.4-.2 12.8 6.2c3.3 6.4 7 21.6 14.9 19.4 4.8-1.3 13.4-4.9 13.1-12.8-.3-7.9-8.5-25.4-26.1-24.5-.1.1-10.6 3.9-14.7 11.7z" opacity=".6" clip-path="url(#b)" fill="#3c78df"/><path d="M715.1 177.3s-3 1.6-1.4 2.5c0 0 .9.9.7 1.8-.2.9.2 3.2 3.2 4.1 2.4.7 0-7.7 0-7.7M724 171.6s3.2 2.5 3.2 5.2.9 6.2.9 6.2l-5.2-7.1M628.5 116.7c-.4-5.1.7-7.5 5-10.3 6.2-4 14.1-6.7 22.3-.9 13.7 9.6-3.5 28.1 4.1 35.8 4.6 4.6 4.1 2.1 9.6 6.2s7.5 4.1 10.9 10.3c3.4 6.2 9.3 48.5 7.3 56s2.1 17.8 2.1 17.8l-7.5 100-42 2.1s-2.5-76.8-2.5-85.7c0-8.9.8-60.7-2.1-55.2-15 29.2-49.9-3.1-49.9-3.1l10.9 3s16.2 2.2 20.3.2c4.1-2.1 9.8-6.3 9.8-18.6s7.5-20.7 13.7-24.1c4.1-2.3 4.9-6.5.9-8.7-2-1.1-5.3-.8-6.2-1.6-2.3-2.5-6-14.5-6.7-23.2z" clip-path="url(#b)" fill="#5492ed"/><path d="M636.6 191.5l4.7.3 6.8-23.7s17.3-.6 14.1 78.7c0 0-13.2-.3-17.3 1-4.1 1.4-6.8 2.3-6.8 2.3s.8-54.9-1.5-58.6z" opacity=".5" clip-path="url(#b)" fill="#3c78df"/><path clip-path="url(#b)" fill="#5492ed" d="M608 193.7l-30.7-1.4-4.8-9.5h39.6z"/><path d="M434.7 105.9c-6.3 2.4-10 8.8-9.4 15.4.9 9.8 3.8 25 12.5 25.9 13 1.4 15.7-5.5 16.4-14.4.7-8.9 5.2-17.1-4.8-24.6-4.2-3.1-9.2-4.4-14.7-2.3z" clip-path="url(#b)" fill="#3858a0"/><path d="M454 124.4s1.1 15 5.9 19.1l-.9 5.2c-1.6 4.1-5 7.4-8.7 9.8-2.6 1.7-6.2.9-7.7-1.9-.8-1.5-1.4-3.3-1.2-5.4.5-6.4-.9-16.1-.9-16.1M366.8 182.8s3.4-8.2 10.9-6.8 6.2 8.9 6.2 8.9l-19.8-.7 2.7-1.4z" clip-path="url(#b)" fill="#3858a0"/><path clip-path="url(#b)" fill="#78aaff" d="M318.2 1.3h110.4v98.9H318.2z"/><path d="M428.5-3.1l.2 95.7c.1 0-3.6-82.7-.2-95.7z" clip-path="url(#b)" fill="#accbff"/><path clip-path="url(#b)" fill-rule="evenodd" clip-rule="evenodd" fill="#002a5f" d="M287.1 61.1V28.4h-32.8v32.7h32.8z"/><path d="M277.9 36.8h.7c.7 0 .9.6.9 1.1v7c0 .5-.3 1-.9 1h-.8v-9.1h.1zm.7-.2h-2.7v.3h.7v15.8h-.7v.3h3v-.3h-1v-6.4h.9c1.3 0 2-.7 2-1.6v-6.3c0-1-.6-1.8-2.2-1.8zM264.3 36.8c0 .3-.2.2-.3.2-.5-.3-1-.5-1.5-.5-.8 0-1.9.4-1.9 2v12.1c0 2.1 1 2.5 2 2.5.8 0 1.2-.4 1.5-.5.2-.1.4.1.4.4h.3v-7.7h.7V45h-2.7v.3h.8v6.6c0 .5-.4 1-.8 1-.5 0-.8-.4-.8-1V38c0-.4.1-1.3.7-1.3 1.1 0 1.7 3.3 1.7 5h.3v-5.2h-.3v.3h-.1zM269.3 45.9l.8-7.1.8 7.1h-1.6zm1.6.3l.7 6.5h-.7v.3h2.7v-.3h-.7l-1.8-16.1H270l-1.7 15.2c-.1.5-.1.9-.9.9v.3h2v-.3c-.6 0-.8-.4-.8-.8l.6-5.7h1.7z" clip-path="url(#b)" fill-rule="evenodd" clip-rule="evenodd" fill="#fff"/><g clip-path="url(#b)" fill-rule="evenodd" clip-rule="evenodd" fill="#fff"><path d="M452.6 186.8h.3c.3 0 .3.3.3.5l-.4 2.9c0 .2-.2.4-.4.3h-.3l.5-3.7zm.3-.1l-1.1-.2v.1h.3l-1 6.5h-.3v.1l1.2.2v-.1l-.4-.1.4-2.6.4.1c.5.1.9-.2.9-.5l.4-2.6c.1-.4-.1-.8-.8-.9zM447.1 185.9c0 .1-.1.1-.1 0-.2-.2-.4-.3-.6-.3-.3 0-.8 0-.9.7l-.7 5c-.1.9.3 1.1.7 1.2.3.1.5-.1.6-.1.1 0 .1.1.1.2h.1l.5-3.2h.3v-.1l-1.1-.2v.1h.3l-.4 2.7c0 .2-.2.4-.4.3-.2 0-.3-.2-.3-.4l.9-5.7c0-.2.1-.5.3-.5.5.1.5 1.5.4 2.2h.1l.3-2.1-.1.2zM448.5 190l.8-2.8-.1 2.9-.7-.1zm.7.2l-.1 2.7h-.3v.1l1.1.2v-.1h-.3l.3-6.7-.5-.1-1.6 6.1c-.1.2-.1.4-.4.3v.1l.8.1v-.1c-.2 0-.3-.2-.3-.4l.6-2.3.7.1z"/></g><path d="M473 148.4s11.2 6.4 12.8 13.4c1.5 7 14 45 14 45l4.9 12s-10.3-25.4-12.1-29.3c-1.8-3.9-7.9-30.4-10.6-33.1-1.6-1.5-9-8-9-8z" clip-path="url(#b)" fill="#efe8da"/><path d="M580.2 91.6s11.8-10.9 20-9.1c8.2 1.8 13.7 10 13.7 10l-33.7-.9z" clip-path="url(#b)" fill="#d9e5f6"/><path d="M789.8 32.1s9.3-8.6 15.7-7.1c6.4 1.4 10.7 7.9 10.7 7.9l-26.4-.8z" clip-path="url(#b)" fill="#e7eef7"/><path clip-path="url(#b)" fill="#b2ccea" d="M910.8 100.3V36.8l48.5 32.1v32z"/><path d="M644 101.9s14.4.3 16.9 9.4c2.4 9.1-2 15.5-2 15.5 1.5-.2 7.6-22.5-14.9-24.9zM670.6 148.3s12.3 1.1 15.3 30.8c0 0-5-26.6-15.3-30.8z" clip-path="url(#b)" fill="#efe8da"/><path clip-path="url(#b)" fill="#5492ed" d="M629.9 162.7l-6.4 21.9 13.2 5 9.6-26.9M683.7 169.5l5 19.6-8.2 3.2"/><path d="M783.4 172.7c-3.7-.6-7.5 1.2-9.4 4.4-3.8 6.5-11.8 19.1-18.5 21.4-9.1 3-12.1-1.8-12.1-1.8s1.8-13.1 11.2-23.4c0 0 7.3 5.8 21.6-6.5 0 0 5.2 2.6 6.4 5.6 1.2 3-.6.3-.6.3h1.4z" opacity=".5" clip-path="url(#b)" fill="#3c78df"/><path d="M629.4 110.1s-3.3 6.1-.9 6.5c2.4.5 6.1 7.1 6.4 8 .3.9-.6-6.1 3-3.9 3.6 2.1 3.6 8.2 5.8 10.9 2.1 2.7 4.9 3.3 4.9 3.3l8.8-.6s9.7-24.6-6.4-30.7c-13.3-4.9-21.6 6.5-21.6 6.5z" opacity=".7" clip-path="url(#b)" fill="#3c78df"/><path d="M454.5 130.6s-3 16.9-13.2 16.9c0 0 .2 2.8.8 5.7.8 3.7 6.9.2 8.7-3.2 2.8-5.1 5-9.1 3.4-17l.3-2.4z" opacity=".8" clip-path="url(#b)" fill="#25437a"/><path d="M452.7 123.5s4.7-3 4.6 1.1c-.2 4.1-3 7.1-5 7.1" clip-path="url(#b)" fill="#3858a0"/><path d="M425.5 119.1s.6-2.1 2.3-1.1c1.7 1.1 4.6 5.9 8.7 4.9s8.4-4.7 10.9-2.9 3.2 3.3 2.9 6.2c-.1 1.3.1 2.5.3 3.4.3.9 1.4 1.3 2.1.6 0 0-.5-7.7 2.6-7.1 0 0 3.9-11.1-8.8-17 0 0-13.2-5.6-19.7 8-.1 0-1.5 2-1.3 5z" opacity=".8" clip-path="url(#b)" fill="#25437a"/><path d="M385.2 21.3c-.6-5.7-5.4-10.1-11.2-10.1-5.8 0-10.6 4.4-11.2 10.1H347V64c0 4.9 3.9 8.8 8.8 8.8h35c4.9 0 8.8-3.9 8.8-8.8V21.3h-14.4zM374 13.5c4.6 0 8.3 3.4 8.9 7.8h-17.8c.6-4.4 4.3-7.8 8.9-7.8z" opacity=".3" clip-path="url(#b)" fill="#0c4dbd"/><path opacity=".4" clip-path="url(#b)" fill="#0c4dbd" d="M319.7 99.4h108v2.1h-108z"/><path d="M396.6 14.3l.2 1.1c.1.5.8.7 1.1.2l.6-.9c.4-.5 1.2-.2 1.1.5l-.2 1.1c-.1.5.4.9.9.7l1-.6c.6-.3 1.2.4.8.9l-.7.9c-.3.4 0 1 .6 1l1.1-.1c.7-.1 1 .8.4 1.1l-1 .5c-.5.3-.4 1 .1 1.1l1.1.3c.6.2.5 1.1-.1 1.2l-1.1.1c-.5.1-.8.7-.3 1.1l.8.7c.5.4 0 1.3-.6 1l-1-.4c-.5-.2-1 .3-.8.8l.5 1c.3.6-.5 1.2-1 .7l-.8-.7c-.4-.4-1-.1-1 .5v1.1c0 .7-.9.9-1.2.3l-.4-1c-.2-.5-.9-.5-1.1 0l-.4 1c-.3.6-1.2.4-1.2-.3v-1.1c0-.5-.6-.8-1-.5l-.8.7c-.5.5-1.3-.1-1-.7l.5-1c.2-.5-.2-1-.8-.8l-1 .4c-.6.2-1.1-.6-.6-1l.8-.7c.4-.4.2-1-.3-1.1l-1.1-.1c-.7-.1-.8-1-.1-1.2l1.1-.3c.5-.2.6-.9.1-1.1l-1-.5c-.6-.3-.3-1.2.4-1.1l1.1.1c.5.1.9-.5.6-1l-.7-.9c-.4-.5.2-1.2.8-.9l1 .6c.5.3 1-.1.9-.7l-.2-1.1c-.1-.7.7-1 1.1-.5l.6.9c.3.4 1 .3 1.1-.2l.2-1.1c-.2-.7.7-.7.9 0z" clip-path="url(#b)" fill="#92bbff"/><path opacity=".3" clip-path="url(#b)" fill="#0c4dbd" d="M38.1 18.3h36v5h-36zM81.2 18.5h14.3v4.7H81.2zM111.2 18.7h10.9v4h-10.9zM38.1 35.4h54.1v4.4H38.1zM111.2 35.2h10.9v4h-10.9z"/><path d="M351.6 152.8L340 141c-3.6-3.6-1.6-9.7 2.1-9.9 3.2-1.3 6.3.8 8.5 2.8l.7.6.1-.1c2.3-2.5 4.5-4.6 8.9-3.7h-.3c3.8.2 5.8 6.6 2.5 9.9l-10.9 12.2z" clip-path="url(#b)" fill="#accbff"/><path d="M393.1 183.9s27.9-34.3 34.6-36.4c6.7-2.1 14.6-.6 14.6-.6s4.1 9.4 4.4 13.1c.3 3.6-13.2 39.5-12.3 51.9s10.6 15.6 12.8 24.1c2.1 8.5 2.1 20.8 2.1 20.8l-34.9.3s-4.2-23.3.9-42 6.8-42.6 6.8-42.6l-22.6 25.3-.8-13.7-7.2-.5" opacity=".3" clip-path="url(#b)" fill="#094193"/><path clip-path="url(#b)" fill="#0a3e72" d="M437.2 241.5v3.5l8.6 7h22.4l6.3-8.2v-2.6z"/><path d="M441.1 241.4s12.1-5.5 16.7-5.2 15 5 15 5l-31.7.2z" clip-path="url(#b)" fill="#5492ed"/><path d="M454.6 236.9s3.2-2.6 15.9 3.2l1.2.8c.1 0-12.2-4.7-17.1-4z" clip-path="url(#b)" fill="#b6d4ff"/><path d="M289.8 27.4l.2 72.4s-3.6-62.6-.2-72.4z" clip-path="url(#b)" fill="#accbff"/><path d="M243.7 75.5s-2.4 7.3 1.5 14.3l1.5-7s-2.7-5.2-3-7.6 0-1.5 0 .3z" clip-path="url(#b)" fill="#78aaff"/><path d="M743.6 129s-1.1 8.7.7 9.8c1.1.7 1.1 1.8.7 3.4-.5 1.8-2.1 6.4.2 5.9 1.8-.4 2.1.9 2.7 1.4.7.5 1.8 3.9 3.4 4.6 1.6.7 5 .7 6.6 1.1" clip-path="url(#b)" fill="#5492ed"/><path d="M43.9.2s-11.2 96.3 98.9 116.1c109 19.6 123.1 83.5 162.7 102.2s114.3 29.7 114.3 29.7l12.1 8.8L0 256.8.2.1l43.7.1z" opacity=".3" fill="#0e4d99"/><path fill="#5492ed" d="M314.4 184.1h84.4V266h-84.4z"/><path fill="#accbff" d="M358.8 183.6l40 .5.1 50.6-2.3-48.8z"/><g><defs><path id="e" d="M1 230.6h.1l1 37.4c16.1 34.9 54.1 54.1 91.8 56.2 75.4 4.2 146.4-45.9 221.7-33.3 77.9 13.1 130.8 88.6 236.8 119.7 57 16.7 118.2 12.6 175.7-1.7 69.5-17.3 130.1-44.9 271.8-108V-.1H4.6L0 434.9h1V230.6z"/></defs><clipPath id="f"><use xlink:href="#e" overflow="visible"/></clipPath><g clip-path="url(#f)"><path d="M67 158.4s26.4-1.5 35.3-1.1 48-14.6 52.4-15.9c4.4-1.3 10 6.4 10 6.4s7.8 1.7 8.7-2.3c.9-4-5.6-9.6-10.5-11.8-4.9-2.2-34.2 2.7-51 6.8-12.4 3-46-8.7-46-8.7" fill="#efe8da"/><path d="M241 140.2l.7 26.7c.1 3.9 2.2 7.4 5.5 9.4 2.3 1.4 4.6 3.5 4.6 6.1.2 5.6-10.8 64.6-3.5 72.5 7.3 7.9 18-2.3 18.5-36.4 0 0-4.4-33.8-4.4-40.1 0-6.3.6-14.4.6-14.4" fill="#003868"/><path d="M243.4 157.9s-.6 6.1 1.5 9.4c2.1 3.3 8.5 8.5 12.5 7.9s4.9-3.3 4.9-3.3 1.5-7.9.3-14" fill="#012349"/><path d="M208.2 213.6l5.5 44.4 15 .7 4.8-44.4s-25.3.7-25.3-.7z" fill="#3c78df"/><path fill="#99805f" d="M189.8 173.3V163h6.3v-21.2h-51.9v87.5h5.3v10.3h-5.3v19.9h51.9v-86.2z"/><path d="M221.2 216.4l3.2-8.3c1.2-3.1 4-4 7.2-3.4l1.2.2.7-3-3.3-.4c-3.1-.4-6.1 1.4-7.2 4.4l-5.2 13.8" fill="#155ad0"/><path d="M232.2 219.1H209c-1.5 0-2.7-1.2-2.7-2.7 0-1.5 1.2-2.7 2.7-2.7h23.2c1.5 0 2.7 1.2 2.7 2.7 0 1.5-1.2 2.7-2.7 2.7z" fill="#5492ed"/><path fill="#92bbff" d="M684.6 224.1h91.6v8.4h-91.6z"/><path opacity=".3" fill="#0c4dbd" d="M38 87.3h36v5H38z"/><path d="M429 356.9s8.2-24.6-10.9-41.9c0 0 10 24.6 0 38.3" fill="#10459f"/><path d="M433.5 351.4s5.5-39.2-9.1-60.1c0 0 21 10.9 20 65.6 0 0 11.8-21 8.2-41.9-3.6-21 1.8-5.5 1.8-5.5s16.4 10 3.6 64.7" fill="#10459f"/><path d="M902.1 328.4s4.6-42.8 21-42.8 34.2 9.4 35.1 19.4c.9 10-17.8 54.4-17.8 54.4l-6.4-1.8s19.1-42.8 16.4-50.1c-2.7-7.3-25.5-17.3-31.9-10.9-6.4 6.4-16.4 57.4-16.4 57.4" fill="#003868"/><path d="M977.1 311.3l-14.4-52.6s-9.6 43.7 3.4 60.1M424.2 353l-14.4-52.6s-9.6 43.7 3.4 60.1" fill="#10459f"/><path d="M520.1 384.2l110.3-43.7 214.1-.9-9.1 20L788 427s-160.9 19.1-245.6-17.4-22.3-25.4-22.3-25.4z" fill="#9fc6ff"/><path fill="#e9eef4" d="M705.8 339.4h40.3"/><g opacity=".5" fill="#3858a0"><path d="M742.8 296.3l6 48.5 16.4.7 5.2-48.5s-27.6.8-27.6-.7z"/><path d="M757 299.3l3.5-9c1.3-3.4 4.3-4.4 7.9-3.7l1.3.3.7-3.2-3.6-.5c-3.4-.5-6.7 1.5-7.9 4.8l-5.6 15.1"/><path d="M769.2 302.2h-25.9c-1.5 0-2.7-1.2-2.7-2.7v-.5c0-1.5 1.2-2.7 2.7-2.7h25.9c1.5 0 2.7 1.2 2.7 2.7v.5c0 1.5-1.2 2.7-2.7 2.7z"/><path d="M742.8 296.3l27.1.5s-.1-2.1 0-.3-26.5.3-26.5.3l-.6-.5z"/></g><path fill="#e9eef4" d="M744.7 339.4l95 .8-1.8 4.6z"/><path opacity=".5" fill="#1d3458" d="M654.7 370.8h69.5v6.8h-69.5z"/><path d="M680.6 374.6s100.7 13.9 145.3 3l3.6-23.5s-92 15.4-104.7 13.6l-44.2 6.9z" opacity=".5" fill="#003868"/><path fill="#003868" d="M548.3 379.6l69.3 11.7 43.7-26.2-21.8-2.8"/><path d="M564.6 190.1s0 7.5-9.7 11.2" fill="#69aec9"/><path d="M795.5 174.5c-.9 7.3 3.6 3.8 5.3 3.9 3.6.2-.6 4.2 5.8 6.2 4.6 1.5 5.5-5.9 10-8 6.3-2.8 21 15.3 21 15.3 6.3-10.6 33.3-20.7 33.3-20.7-5.7.5-11.2-6.7-19.4-17.6-6.9-9.3 4-28.1-12.1-46.1-10.9-12.2-28.5-18.3-49.6.5-5.8 5.2-9.2 10.9-11.2 15.9-3 7.4-3 15.8.3 23.1 1 2.2 2.3 4.2 3.8 5.2 1.3.8 2.9 1.9 3.4 4.5s-2.6 11.6.1 12.7c2.2 1 5.6.5 6.5.9 1 .4-.3 2.4.8 3.5 1.1 1.3 2 .7 2 .7z" fill="#063d59"/><path d="M780.2 132.6s-.7 4.5-.3 8.7c.3 4.3 0 8.8 2.3 10.8s3.1 1.1 2.7 4.8-3.8 12.9.4 12.9c3.4.1 3.2-.3 3.6 1.7.3 2-.2 2.4 2.2 4.1l1.6 1.1s-1.1 2.8.1 3.6c1.2.8 1.8-.5 3.5 2.6 1.9 3.4 6.2 8.5 10.2 6.3 5.3-2.9 8.1-8.5 12.9-10.9 3.2-1.6.2 1.2 6 4.6s10.6 7.5 10.6 7.5l5-14.7-41.3-36.9-19.5-6.2z" fill="#063d59"/><path d="M735.6 218.9s7.7-6.5 14.4-5.3c8.5 1.6 17.6 23.1 20.3 25.6 2.7 2.5 30.5 26.5 30.5 26.5L789 287.3l-25.3-33.8c-1.9-2.6-4.7-4.3-7.9-4.9-3.1-.6-5.1-2.8-9.8-4.2-2.1-.6-11.1-6.6-11.9-9.6-.4-1.3 1-2.5 2.3-1.8 3.6 1.9 9.3 3.9 11-.9 2.5-7.1-.4-12.2-6.6-9.7s-10.7 4.2-10.7 4.2-4-.8 1.3-4.7c5.4-3.9 4.2-3 4.2-3z" fill="#022947"/><path d="M798 292.2s25.9 24.8 36.9 21.9c11-2.9 7.9-5.3 7.9-5.3l-8.3-40.5" fill="#001c36"/><path d="M576.9 127s14.4 9.2 11.8 22.1h6.5s-5.2 25.2-10.4 40.5-10.9 30.8 1.4 39.8l16.2 1.8s-16.7-15.2-6.9-36.7 21-77.1-31.6-70.1" fill="#013256"/><path fill="#fff" d="M539.2 365.3l-13.2 11 92.3 10.9 42.8-27.1-82.4-9.7z"/><path d="M588.2 358.5s-48 25.9-62.2 26.7c-14.2.7-18.6 6.7-25.3 0-6.7-6.7-4.7-92.4-.8-120.5 1.8-12.6 6.6-33.6 24-45.6 0 0 15.3-3.5 20.5-10.9 5.2-7.5 7-23.1 7-23.1s16.7 16.1 33.9 9.4l-3.3-6.8s-3.4 32.7 2.7 34.2c2.6.6 4.8-3.7 10.3.7 7.3 5.9 17.8 28 22.6 45.8 4.2 15.6 10.9 27.3 15 35.5 11.2 22.4 54 39.2 54 39.2l-17.1 8.6s-45.7-17.3-51.5-27.6c-5.9-10.7-24.4-50.3-24.4-50.3s5.6 16.3-3 32.1c-11.1 20.2-6.5 43.1-5.9 48.3" fill="#0c478e"/><path d="M547.9 377.6s29.5-5.5 35.5-4.1c6 1.4 36.9 6.2 41.6-3.4 4.4-9 1.3-9.6-6.7-12.3s-59.6-3.4-59.6-3.4l-10.8 23.2z" opacity=".6" fill="#003868"/><path d="M549.9 203.4s9.2 16.6 29.7 7.7l3.1-11.1s-24.6 6.2-31.4-19.8l-1.4 23.2z" fill="#efe8da"/><path d="M597.1 157.8s-3.9 54.6-20.8 55.3c-14.3.6-25-9.5-25.7-23.7 0 0-4.4-36.6 4.7-40.3 9.1-3.7 10.4-24 24.8-11.7s13.1 17.9 13.1 17.9" fill="#efe8da"/><path d="M565.1 190.1s0 7.5-9.7 11.2" fill="#69aec9"/><path d="M577.4 127s14.4 9.2 11.8 22.1h6.5s-5.2 25.2-10.4 40.5-10.9 30.8 1.4 39.8l16.2 1.8s-16.7-15.2-6.9-36.7 21-77.1-31.6-70.1" fill="#013256"/><path d="M550.4 203.4s9.2 16.6 29.7 7.7l3.1-11.1s-24.6 6.2-31.4-19.8l-1.4 23.2z" fill="#efe8da"/><path d="M598.2 149.8s-3.9 54.6-20.8 55.3c-14.3.6-25-9.5-25.7-23.7 0 0-4.4-36.6 4.7-40.3 9.1-3.7 10.4-24 24.8-11.7s13.1 17.9 13.1 17.9" fill="#efe8da"/><path d="M577.1 204.7s-.2 3 .1 6.6c.6 5.6 5 10.1 10.6 10.7 2.8.3 5.7.5 7.7.5 0 0-9.8-16.6-7.4-26.6 0 0-5.3 9.1-11 8.8zM574.3 132.3s8.6 10.2 7.3 27.3c0 0 16.9.2 15.7 6.6 0 0 9-35.3-20-39.7M553.6 171.8s.4 32.6-8.4 44.7c-13 17.8-7.1 32-7.1 32s-12.3 2.1-.7-40.3" fill="#013256"/><path d="M574.3 183c.1-.4.3-.4.3 0 .1.6.2 1.4 1.4 1.6 2 .3 1.9 1.3 3.2 1.4 1.4.1 2.4-1.3 3.4-1.7.3-.1.3-.6.2-1.2 0-.4 0-.6.1-.3.4 1.3.6 3.8-1 4.4-3.1 1.2-2.3 1.2-3.6 1.1-1.5-.2-5.3-3.4-3.9-5.5.1-.2-.3.7-.1.2z" opacity=".2" fill="#003868"/><path d="M583.9 192.5c0 .4-.2.8-.6 1-1.9.9-1.1 3.5-5.9 3.6-5.2 0-5.1-2.6-6.5-4.3-.1-.1-1.2-.6-1.3-.7-.4-.2-.2-1 .2-.8 1.9 1 3.1.8 4.5.5.5-.1.9 0 1.3.2.4.3.9.5 1.4.4.3-.1.6-.2.9-.4.4-.3 1-.3 1.5-.1.8.5 2.2 1.1 3 1 .8 0 1.2-.7 1.5-.4z" opacity=".7" fill="#003868"/><path d="M582.5 217.7s-1.4-1.6-3.2-13c0-1.6-7.5 6.4-23.6-12.9-3-2-2.6-10.4-2.6-10.4l-1.1 6.8s0 1.8.7 4.6c1.9 7.5 8 21.4 29.8 24.9z" opacity=".4" fill="#003868"/><path d="M553.3 174.7s1.7-12.8 4.4-16.8c.3-.5 3.2-6.9 3.3-6.3l-.3 9.7c0 1.3 4.2-.1 5.5.1l10.8.3c2.6.1 5.1.4 7.6.9 4.4.9 10.8 2.5 11.9 3.7l.9-11.5s-20.7-18.1-31.3-14.9c-10.5 3.3-12.8 28-12.8 34.8z" opacity=".2" fill="#003868"/><path d="M554.9 166.9s-2 6.8 7.9 13.1c4.6 2.9-4.2 12.5 1.1 19.7 0 0-11.7-7.2-10.8-15.8 1.2-11.6.4-16.1 1.8-17z" opacity=".15" fill="#003868"/><path d="M535.2 307.9l-.4 33s47.2 11.2 53.2 9.9 10.6-5.5 17.2-3.1 30.9 16.8 21.9 20.4-26.9 1.7-35-.8c0 0-56.5-3.2-72.8-7.4 0 0-9.8 3.4-9.1-27.9l.7-33.5 24.3 9.4z" fill="#efe8da"/><path d="M574.6 124.1s-26-6.5-34.2 29.2c-4.7 20.7 4.5 29.2-17.5 50.9-11.1 11-10.5 32.7-10.5 32.7s33-17.7 36.2-30.1c3.3-12.4 3.5-50.9 12.6-58.1 1.3 4 2 4.6 1.8 8.9l-.1 1.8 14.4-.5s8.7-22.3-.4-32.4c0 0 4.3.6-2.3-2.4z" fill="#013256"/><path d="M556.8 228.7s15 19.1 25.3 2.1l1.4-17.1s6.2 25.3-4.8 45.1-14.4 10.2-14.4 10.2l-7.5-40.3z" fill="#0c478e"/><path d="M499.4 277.9s3.4-57.4 19.8-53.3c16.4 4.1 12.3 17.8 12.3 17.8" fill="#0c4dbd"/><path d="M520.3 270.8s-4.1 43.1-2.7 49.2c1.4 6.2 13 9.6 22.6 12.3s14.4 10.9 14.4 10.9l9.6 4.1-12.3 22.6-17.1-4.8s-2.7-3.4-15-4.8-36-12.9-35.5-28c.9-31.9 9.5-54.8 9.5-54.8l26.5-6.7zM593.7 273.8s15 35.5 19.1 45.8c4.1 10.3 16.4 13.7 16.4 13.7l19.1 8.2 10.9-13 3.9-8.9c-4.1-14.4-25.5-8.5-27.8-21.8-2.3-13.5-11.1-23.8-17.1-36.2-5.6-11.5-4.1-26-10.3-34.2-6.2-8.2-13-4.8-13-4.8s-10.3-2.7-15-15l-15 41.7 33.5 5.5" fill="#0c478e"/><path d="M594.2 251.2s5.8 22.5 17 32.2c11.2 9.7 11.5 16.7 10.3 25.2-1.2 8.5 7 8.8 14.9 7.9 7.9-.9 35.5 21 35.5 21l-12.5 10.9s-24.6-12.8-28.2-14c-3.6-1.2-14.6-5.2-19.4-17.6-4.9-12.5-18.8-45.6-18.8-45.6s-4.9-21.9 1.2-20z" opacity=".75" fill="#003868"/><path fill="#cdbfa4" d="M654.5 219.9v7.9H667V238h-12.5v59.3H667v10.3h-12.5V372h54.8V219.9z"/><path fill="#725d46" d="M709.5 334.2V324h12.4V220.2h-18.5v153.3h18.5v-39.3z"/><path d="M528.1 247.1l15.7-13.7 4.1-26-30.6 12.7s-28.7-6.4-26.2 14.6c2.6 21.2 4.1 30.8 1.4 45.1-2.7 14.4-10.5 49.8-4.4 58.7 6.2 8.9 20.8 21.2 29.6 21.2 8.9 0 34.6 2.9 34.6 2.9" fill="#0c478e"/><path d="M506 334.5s21 11.4 29.6 13.2c8.7 1.8 21.4 8.2 21.4 8.2L544.2 380s-54.7-26-56-39.6" opacity=".75" fill="#003868"/><path d="M576.8 205s-.4 2.7-.1 6.3c.6 5.6 5 10.1 10.6 10.7 2.8.3 5.7.5 7.7.5 0 0-8.8-17-6.4-27 0 0-6.1 9.8-11.8 9.5z" fill="#013256"/><path d="M789.1 337.3c21.6-15.2 34.2-40.3 34.2-40.3s4.1 50.4 2.7 68.3c-2.1 26.4-23.2 39.6-23.2 39.6l51.4 18.1 74.4-52.9s-16.3-69.5-18.5-108.7c-3-54.3-18.8-83.1-30.1-84.1-4.2-.4-6.6-3.9-7.9-6.7-1-2.2-.7-4.7-3-5.2-1.7-.6-3.6-.4-5.1.5-2.7 1.5-7.5 4-13.1 5.9-17.3 5.9-26.7 13-33 30.1l.7-2.1c-.8 2.3-4.3 10.5-2.1 9.6 5.8-2.4 10.2-8 13.6-6.5 0 0-8.2 5.3-14.3 21.6-6.1 16.2-34.9 69-34.9 69L760.4 323l-34.3 34.5-17.6-1.5s-34.9 14.4-25.3 17.3c9.6 2.9 26.7 5 51.3-3.2 9.1-3 54.6-32.8 54.6-32.8z" fill="#012f51"/><path d="M869.2 260.5s1.7 24.9 4.1 43.1c2.5 18.3 3.3 53.9 3.3 53.9l-.8 19.9-50.6 12.4s2.5-39.8 2.5-53.1 41.5-76.2 41.5-76.2z" fill="#003868"/><circle cx="845.7" cy="302.3" r="2.5" fill="#3d66bf"/><path d="M767.9 316.8l-41.8 40.6s-15.8-.4-19.3.8c-3.5 1.2-26 10-24.1 13.9 3.5 7.3 42.7 2.1 48.9-1.4 6.2-3.5 48-25.9 51.9-35.5l-15.6-18.4z" fill="#022947"/><path d="M759.1 322.3s7.6 24.6 15.7 24.6l13.7-8.2s-19.3-26.9-17.1-32.1l-12.3 15.7z" fill="#0c4dbd"/><path d="M690 295.1h-23.1c-3 0-5.5-2.5-5.5-5.5v-41.1c0-3 2.5-5.5 5.5-5.5H690c3 0 5.5 2.5 5.5 5.5v41.1c0 3-2.5 5.5-5.5 5.5zM690.4 318.9h-24.6c-2.4 0-4.4-2-4.4-4.4 0-2.4 2-4.4 4.4-4.4h24.6c2.4 0 4.4 2 4.4 4.4 0 2.4-2 4.4-4.4 4.4z" fill="#8c7457"/><path d="M690.4 353h-24.6c-2.4 0-4.4-2-4.4-4.4 0-2.4 2-4.4 4.4-4.4h24.6c2.4 0 4.4 2 4.4 4.4 0 2.4-2 4.4-4.4 4.4z" fill="#003868"/><path d="M690.4 334.1h-24.6c-2.4 0-4.4-2-4.4-4.4 0-2.4 2-4.4 4.4-4.4h24.6c2.4 0 4.4 2 4.4 4.4 0 2.4-2 4.4-4.4 4.4z" fill="#8c7457"/><path d="M711.2 245.3v36l10.5-.7v-35.5c.1 0-11.5-.8-10.5.2zM703.5 294.4v28.8l10.5-.5v-28.4c0-.1-11.5-.7-10.5.1z" fill="#82684b"/><path d="M537.4 229.7s-2.3 29.9-1.8 42.6c.5 12.8 3.6 55.8 3.6 55.8l-3.6-2.3s-3.6-44.7-3.6-57 3.6-40.4 3.6-40.4M561.7 213.2s-4.9 10.9-2.9 19.7 5.5 25.8 6.2 41.5c.7 15.7-2.7 42.4-2.7 57.4s.7 13 .7 13l4.8 1.4s-2.7-23.2-.7-36.2c2.1-13 .7-39-.7-49.2-1.4-10.3-1.9-23.6-4.1-30.1-2.4-6.9 2.1-17.1 2.1-17.1l-2.7-.4zM573.9 213.6s-4.8 10.9-2.7 19.8 6.8 25.3 7.5 41c.7 15.7-2.7 42.4-2.7 57.4s-.7 17.8-.7 17.8l5.4.4s-2-27.1 0-40.1c2.1-13 .7-39-.7-49.2-1.4-10.3-5.7-22.8-5.7-29.7 0-6.8 1.8-17.3 1.8-17.3l-2.2-.1zM548.6 202.6s-3.2 14.3-2.8 23.4c.7 13.7 2.7 29.4 3.4 45.1s-.7 42.4-.7 57.4.7 8.9.7 8.9l6.2 4.1s-6.1-21.1-4-34.1c2.1-13 2-39.7.6-50-1.4-10.3-2.4-23.3-3.4-30.1-1.5-10.1 3.4-20.8 3.4-20.8l-3.4-3.9z" opacity=".2" fill="#5492ed"/><g fill="#003868"><path d="M515.3 324.3zM558.8 318.2c-13.4 4.2-16.5-2.8-17-4.5-.2-2.2-.2-4.4-.1-6.8 0 0-7.1-36.7-22.4-42.8 0 0 5.6 20 2.6 38.3-3.2 19.1-6.4 21.8-6.6 21.8.4 0 17.4 2.1 28.5 11.2 11.2 9.2 20.2 11.9 20.2 11.9s-5.4-3.1-10.9-9.2l13.9 8c0 .1 1.3-30.9-8.2-27.9z" opacity=".75"/></g><path fill="#aa916b" d="M716.9 224.8h23.2v8.1h-23.2z"/><path d="M826.1 296.2l36.2-58.7s-3.4 14-3.4 42.4c0 19.8-4.8 26.1-8.5 38a72.46 72.46 0 0 1-17.2 28.8l-4.4 6.3-2.7-56.8z" fill="#022947"/><path d="M852.7 262.8s14.4-3.4 22.6-17.1c0 0-4.8 25.3-21.9 26" fill="#022947"/><path d="M815.8 224.6s-23.9 41-25.3 47.8c-1.4 6.8.7 10.3-3.4 12.3s-8.2 6.2-13 19.8l6.8 12.3L839 200.6s-16.4-3.4-23.2 24z" fill="#003868"/><path d="M830.1 203s29.8-27 38.7-25.6c0 0-24.8-1.4-33 8.2s-15.9 19.9-15.9 19.9 6-3.6 10.2-2.5z" opacity=".5" fill="#03141c"/><path d="M830.1 203s15.8-1.5 24 6.7 11.4 21.4 5.9 33.7c0 0 11.3-39.8-29.9-40.4z" fill="#022947"/><path d="M862.2 237.5s26.4-8.7 33.3-11.4c6.8-2.7 7.1-13.2 7.1-13.2s-1.1 4.9-7.1 9.1c-5.9 4.1-34.2 13.2-34.2 13.2" fill="#022947"/><path d="M821.2 193.3s5-10.2 8.2-12.5c2.7-1.9 19.1-12.1 29.6-15 2-.5 4-.7 5 1 .1.1-31.8 11-42.8 26.5z" fill="#5492ed"/><path fill="#ffdeae" d="M654.5 218H722v2.1h-67.5z"/><path d="M997.6 310.4c9.6-50.9-2.3-65.7-2.3-65.7s-6.8-14.5-3.2 6.5c3.6 21-8.2 41.9-8.2 41.9.9-54.7-20-65.6-20-65.6 14.6 21 4.6 82.9 4.6 82.9" fill="#10459f"/><path d="M425.6 375.6s-4.1-33.5.7-34.2l6.8 18.5 4.1-49.2s9.6 21.2 7.5 49.2v3.4s13.7-20.5 16.4-36.9c0 0 .7 23.9-3.4 44.4l-28 14.4M973.8 326.2s-8.9-26-4.1-26.7l6.8 6.2.5-51.1s9.6 21.2 7.5 49.2v3.4s15.9-23.4 14.5-50.7c0 0 2.5 37.8-1.6 58.3l-28 14.4" opacity=".7" fill="#022947"/><path d="M90.4 74.8S80.8 82.9 75 94.4C69.3 106 54.9 124 54.9 124l-23.2-9.3c-5.1-2.5-6.8-9-3.4-13.7 3.6-5 10.6-12 13.7-20.3 6.5-17.2 36.9-28.2 48.4-5.9z" fill="#003868"/><path d="M92.7 85.3s-2.7 28.1-12.1 31c-9.4 2.9-16.1 10-13.2 28 0 0-5 5.3-23.8-9.9 0 0 7.2-16.6 7.2-25.9s27.8-39.2 36.4-36.4c8.7 2.9 5.5 13.2 5.5 13.2z" fill="#efe8da"/><path d="M85.9 76.2s-9.6 3-8.4 26.4c.6 11.7-1.1 15.5-28.5 14.6 0 0 27.3-43.3 36.9-41z" opacity=".3" fill="#003868"/><path d="M26.5 181.5s5.9 25.4 5.9 39c0 13.7-10.1 18-11.5 37.5s13.5 67.9 13.5 67.9 36.2 11.3 38.3-1.7 5.6-53.8 4.5-77.6C74 176 96.8 188.8 87.5 162.9S69.1 129 57.6 129s-49.2-4.5-31.1 52.5z" fill="#022947"/><path d="M91.8 74.8s7.1 4.8 3.7 10.3-3.9 5.2-3.9 5.2 3.9-11.3-4.3-14.8" fill="#003868"/><path d="M182.6 187.4h-28.7c-1.4 0-2.5-1.1-2.5-2.5V157c0-1.4 1.1-2.5 2.5-2.5h28.7c1.4 0 2.5 1.1 2.5 2.5v27.9c-.1 1.4-1.2 2.5-2.5 2.5z" fill="#cdbfa4"/><path d="M154.7 168.7h-2.3c-2.8 0-5-2.3-5-5 0-2.8 2.3-5 5-5h2.3c2.8 0 5 2.3 5 5s-2.3 5-5 5zM168.3 162.8s2.3 2.3 0 7.3-3.2 12.8-8.2 14.6-15.9 17.8-15.9 17.8v-23.2l24.1-16.5z" fill="#725d46"/><path d="M179.5 248.8h-27.4c-1.3 0-2.4-1.1-2.4-2.4v-28c0-1.3 1.1-2.4 2.4-2.4h27.4c1.3 0 2.4 1.1 2.4 2.4v28c.1 1.3-1 2.4-2.4 2.4z" opacity=".6" fill="#cdbfa4"/><path d="M196.4 216h-3.2c-1.3 0-2.4 1.1-2.4 2.4v28c0 1.3 1.1 2.4 2.4 2.4l3 .6c-.5-11 .8-21.5.2-33.4z" fill="#cdbfa4"/><path d="M77.7 211.5c2.3 17.8 4.6 19.8 8.7 39.6s-8.2 58.8-8.2 58.8l-52.9 8.2c-9.1-52.4-9.1-75.4-2.7-85.2 10.9-16.9 9.1-22.8 9.1-22.8l12.8.9c-.1.1 32.8-2.7 33.2.5z" fill="#0c4dbd"/><path d="M42.3 206.5s-2 14.1-5.9 39.2 7.1 74.7 7.1 74.7l-19.6-6.2s-9.6-63.1-3.6-76.3c5.9-13.2 15.2-18.1 9.6-43.3" opacity=".5" fill="#003868"/><path fill="#114289" d="M78.1 263.5l-17.3 80.2 10 1.8 21-58.3 161.3-1 18.2 51.1h7.3l-10.9-72.9"/><path d="M272.7 268H68.6c-3.3 0-5.9-2.7-5.9-5.9 0-3.3 2.7-5.9 5.9-5.9l204.4 1.5c3.3 0 5.6 1.2 5.6 4.4 0 3.3-2.6 5.9-5.9 5.9z" fill="#2d74da"/><path d="M58.1 162.8s32.6 26.9 36 25.5c7.1-3 37.3-10.8 43.1-13.9 5.8-3.1 4-6.7 6.2-12s12.4-7.6 12.4-4.4-10.1 6.4-6.3 9.1c7.5 5.3 17.2-4 16.7-2.8-1.6 3.7-3.7 11-9.9 13.2s-13.3 5.8-13.3 5.8-31.8 22.9-50.9 22.1c-17.1-.7-50.4-33.1-50.4-33.1l16.4-9.5z" fill="#efe8da"/><g opacity=".7" fill="#5492ed"><circle cx="61.3" cy="221.5" r="1.7"/><circle cx="61.7" cy="234.3" r="1.7"/><circle cx="61.7" cy="244.9" r="1.7"/><circle cx="61.3" cy="255.9" r="1.7"/><circle cx="61.7" cy="268.6" r="1.7"/><circle cx="61.7" cy="279.3" r="1.7"/></g><path d="M49.3 115.7l-1.2 5.5s-24.6-2.7-22.2-14.9C28 95.8 35.9 96 41.4 80.2c6.1-17.6 15.4-24.4 31.9-20 24.1 6.4 27.6 23.7 19.1 29.8 0 0 0-1.2.6-8.5s-3.7-5.1-3.7-5.1-11.2-3.1-12.1 10.3-1.5 25.5-9.4 28.2c-2.6.9-25.8 1.8-25.8 1.8s-.3-23.1 10-31.9 22.2-20 32.5-15.8" fill="#001c36"/><path d="M234 126.8s15.1 39 21.3 39c6.1 0 13-4.4 17-3.1s11.6 13.6 11.6 13.6l19.8-20.4s-17.7-5-17.7-18.4c0-12.9-8.9-34.1-25.9-30.7-11.8 2.4-27.5 13.8-26.1 20z" fill="#003d75"/><path d="M261.6 107.2s-5.2-.9-15.8 5.5c-10.6 6.4-20.7 19.1-16.1 19.7 4.6.6 14.9-5.8 17.3-5.2 2.4.6.9 8.5 6.4 9.1 2.8.3 5.2-3 8.2 4.3l3.3-1.5s-3-9.4 2.1-9.1 4.1 9.9 7 12.1c6.7 5.2 13.7 4.9 15.2 4.6s-2.4.6-3.6-13.4c-1.2-14-11.6-29.1-24-26.1z" opacity=".6" fill="#031c2b"/><path d="M263.4 164s-9.9 4.7-11.5 2.9-6.2-9-6.2-9-1.6 1-3.6.1c-2.1-.9-.7-10.3-1.4-13.4s-1.6-2.5-3.4-2.7c-1.8-.2-1.3-10.7-1.3-10.7" fill="#003d75"/><path d="M393.4 301.1h-81.2c-5.3 0-9.6-4.3-9.6-9.6s4.3-9.6 9.6-9.6h81.2c5.3 0 9.6 4.3 9.6 9.6s-4.3 9.6-9.6 9.6z" fill="#10459f"/><path fill="#10459f" d="M392.1 294.3l13.6 62.1h-7.5L384.6 297"/><path d="M325.8 250.5s-73.1 9.6-82 29.4c-4.1 9.2 39 66.3 39 66.3l19.1-12.3-15.7-50.6" fill="#022947"/><path d="M294.1 218.6l23.2 38.2-55.9 12.9.9 19.1h60.8s43.8 8.2 53-11.2c12.3-25.9-16.8-47-29.6-81.6-18.7-50.6-45.6-42.4-45.6-42.4s-9.6 2.9-13.7 10.4-26.9 74-26.9 74l-37.8 12.1L210 249c-2.9-.8-6-.3-8.5 1.4l-9.7 6.3 82.5.7 19.8-38.8z" fill="#022947"/><path d="M247.3 242.7s-1.5 12.6 1.2 14.4l-54.7-.9s8.2-8.2 13.7-8.2 15 2.3 15 2.3l24.8-7.6z" fill="#003d75"/><path fill="#2269d1" d="M49.4 212l-.4 11.4h-2.8l.5-11.4zM71.8 211.5l-.5 11.4h-2.7l.4-11.4z"/><path d="M46.7 223.4s1.6 14.1-26.2 15.3c0 0 5.2-13.2 9.3-15.9l16.9.6z" opacity=".7" fill="#003868"/><path d="M46.3 128.2c-.6 0-1.1.7-.8 1.2 2.4 4.8 11.3 21.6 20.3 22.4 11.8 1 0-23.7 0-23.7" fill="#efe8da"/><path d="M172.5 207.4h-18.4c-.9 0-1.7-.8-1.7-1.7v-8.4c0-.9.8-1.7 1.7-1.7h18.4c.9 0 1.7.8 1.7 1.7v8.4c.1.9-.7 1.7-1.7 1.7z" opacity=".6" fill="#cdbfa4"/><path d="M196.1 207.9h-16.2c-.8 0-1.5-.8-1.5-1.7v-8.4c0-.9.7-1.7 1.5-1.7h16.2" fill="#cdbfa4"/><path fill="#e2d5c3" d="M669.8 297.3h16.5v10.3h-16.5z"/><path opacity=".2" fill="#e2d5c3" d="M178.6 142.3h16.5v10.3h-16.5z"/><path opacity=".4" fill="#e2d5c3" d="M172.2 237.6h16.5v10.3h-16.5zM157.7 223.9h16.5v10.3h-16.5z"/><path opacity=".4" fill="#ede3d6" d="M167.2 174.8h16.5v10.3h-16.5z"/><path fill="#e2d5c3" d="M686.5 227.4H703v10.3h-16.5zM654.6 356.2h16.5v10.3h-16.5z"/><path fill="#99805f" d="M154.7 156.4h13.7v8.7h-13.7z"/><path d="M249.9 202s-.5 9.1 15.5 6.4l4.1 34.2-22.2 4.7c0-.1-.1-41.7 2.6-45.3z" fill="#022947"/><path d="M686.8 286.7h-16.3v-8.3c0-3 2.5-5.5 5.5-5.5h5.3c3 0 5.5 2.5 5.5 5.5v8.3z" fill="#cdbfa4"/><circle cx="678.7" cy="266.1" r="4" fill="#cdbfa4"/><path d="M604.6 344.8s8.9.7 9.6 3.4c.7 2.7 1.4 6.2 1.4 6.2l-.2-.2-10.8-9.4z" fill="#efe8da"/><path fill="#003868" d="M598.9 331.8l27.3 28.3-14.8-8.4-16.1-16.2z"/><path d="M116.8 256.4H101c-3 0-5.5-2.5-5.5-5.5v-17.5c0-.9.7-1.6 1.6-1.6h23.4c.9 0 1.6.7 1.6 1.6v17.5c.1 3-2.3 5.5-5.3 5.5z" fill="#022947"/><path d="M116.1 238.6s6.8-6.2 10.9-1.4c3.4 4 .7 12.3-6.8 13.7 0 0 15.7-16.4-4.1-12.3zM892.5 226.5c8.3 5 19.1 114.5 19.1 114.5s-4.1-43.1-6.6-65.5-9.4-49.3-9.4-49.3" fill="#022947"/><path d="M843.5 204.9s-29.9 49-28.2 63.1-2.5 15.8-10 16.6c-7.5.8-5 4.1-2.5 11.6s-2.5 0-9.1 10-11.6 21.6-11.6 21.6l-8-23.2 58.6-98c0-.1 5.8-2.5 10.8-1.7zM847.7 202.4l23.2-23.2s-25.2 10.3-40.8 23.8l17.6-.6z" fill="#003868"/><path d="M825.8 296.3v16.9c0 15 .3 39.5.3 39.5l-2.5-53.1 2.2-3.3zM803.5 247.1s-13.2 21.9-13.2 28.2c0 6.4 2.8 6-3.2 9.4s-9.1 11.1-9.1 11.1 4.6-11.8 9.6-15c-.1 0 4-18.7 15.9-33.7z" fill="#efe8da"/><path d="M779.3 323.1s-10.9 16.9-14.6 14.6c0 0 4.1 9.6 10 9.1l14.6-9.2-10-14.5z" fill="#003868"/><path fill="#022947" d="M713.6 224.4h4.3v8.7h-4.3z"/><path fill="#ffdeae" d="M718.1 224.7H740v1.8h-21.9z"/><path fill="#5b4733" d="M714.5 281.5v7.6l7.7-.3v-7.3zM703.2 341.7v7.6l11.4-.3v-7.3zM703.7 261.5v7.6l11.4-.3v-7.3zM714.2 233.2v7.6l7.7-.3v-7.3z"/><path d="M597.8 221.6s7.4-2.3 12.4 8.2c6.5 13.6 5 25.5 6.8 28.7 1.8 3.2 9.6 11.7 18.2 37.7 0 0-11.4-25.2-17.6-33-7.5-9.6.7-37.1-19.8-41.6z" fill="#efe8da"/><path d="M516 325.9s16.4 2.7 46.5 23.2l1.6-1.8-5.3-3.7c0 .1-28.7-19.5-42.8-17.7z" fill="#0c4dbd"/><path d="M493.2 227.9s11.4 3.6 13.2 12.8c1.8 9.1-5.2 47.6-7.6 62.1-4.6 27.3 7.3 31.3 7.3 31.3s-14.6 16.8-19.7 4.6c-6.8-16.4 8.2-68.8 8.7-77.5.4-8.7-9.6-29.6-1.9-33.3z" opacity=".75" fill="#003868"/><path fill="#ffdeae" d="M654.6 237.8h11.8v1.5h-11.8zM654.6 307.4h11.8v1.5h-11.8z"/><path d="M572.3 226.6c-6.5.8-18.3-2.6-25.3-5-6.6-2.7-10.5-7.8-9.8-10.6l-11.2 5.2s2.8 7.5 9.5 12.3l.1.1c22.1 12.5 46.4-3.3 36.7-2z" opacity=".69" fill="#003868"/><path d="M553.6 167.5s0 36.9-8.8 49c-13 17.8-7.1 32-7.1 32s-12.3 2.1-.7-40.3" fill="#013256"/><path fill="#5b4733" d="M197.02 257.094h-7.7v-83.4h7.7zM197.495 162.789h-8.3v-21h8.3z"/><path fill="#ffdeae" d="M144.2 141.8h52.9v1.8h-52.9z"/><path d="M167.9 160c1.8.8 2.5 2.9 1.6 4.6-2.4 4.4-7.2 11.8-13 12.7M771.4 306.6l-12.3 15.7 1.1 2.2 11.4-13.7z" fill="#efe8da"/><path fill="#efe8da" d="M759.1 322.3L742 341.4l18-15.9.2-1M728.4 224.9s11.3-13.7 21.5-11.3c0 0-11.5-1-19.7 11.7M521 325s21.4 6.4 33.3 15l10.2 6.3-1.6 1.9-10.5-6.8S536 330.4 521 325zM504.6 218.8s-14.1-1.4-14.1 16.4c0 0 2.2-15.5 14.1-16.4z"/><path d="M267.1 217.4s-7 21-8.8 21.9c-1.8.9-15 3.9-28.1 8.3 0 0 28.1-5.6 30.2-6.8 2.1-1.2 13.4-40.7 13.4-40.7l-6.7 17.3zM208.2 213.6l24.8.2s-.1-1.6 0 0-24.3.3-24.3.3l-.5-.5zM120.5 232.3H97.7c-.4 0-.7-.3-.7-.7h24.1c.1.3-.2.7-.6.7z" fill="#fff"/><path d="M78.6 211.5s.5 11.8 1.8 13.6c3.5 5.2 5.5 21.4 5.9 26 0 0-4-20.1-7.7-24.1-2-2.1-.6-15.5-.6-15.5h.6zM71.7 256.1l157.7 1.2c0 .1-134 2.9-157.7-1.2z" fill="#efe8da"/><path d="M241.5 161.3s-2.1 9.1 4.6 14.9c0 0 6.2 3 5.8 6.2 0 0 1.2-4.1-5.8-8.3-7-4.3-4.6-12.8-4.6-12.8z" fill="#fff"/><path d="M247.9 211.4s-4.3 22.2-2.1 31.6l1.5-.3s-1.2-16.1.6-31.3z" fill="#efe8da"/><path d="M283.2 174.9s3.9-23.7 19.6-21.3c-.1.1-11.7-.5-19.6 21.3z" fill="#3c78df"/><path d="M296.8 255.3l17.3-2.7c-.5-19.1-20.1-33.9-20.1-33.9" fill="#5492ed"/><path fill="#022947" d="M114.6 245.7H177l-6.4 10.9-47.7-.5z"/><path d="M133.3 245.7s11.8-5.9 15.5-5.9c3.6 0 15.9 5.9 15.9 5.9h-31.4z" fill="#fff"/><path d="M297.7 155.8s-4.1 5.2-10.5 20.2-12 26.7-14.8 39c-2.7 12.3-10.3 30.1-10.3 30.1l-15.2 3.8-.6-4.7 14.9-4.4c.1 0 24.7-89 36.5-84z" fill="#064e7a"/><path d="M244.4 279.4s13.2-19.6 69.7-26.9l.5.5s-19.6 5-70.2 26.4z" fill="#003868"/><path d="M281.3 258.9s-29.2 6-36.4 19.1c0 0 11.7-12.3 36.4-19.1z" fill="#fff"/><path d="M49.9 166.9s34.6 32.8 44.2 33.7c9.6.9 50.6-18.7 50.6-18.7l.8.2s-36.8 26.9-56.3 23.1c-17.8-3.4-47.4-32.8-47.4-32.8l8.1-5.5zM79 149.1s17.8.9 28.7 1.8c10.9.9 22.8-.9 22.8-.9s-17.8 5.9-21.4 6.8c-3.6.9-26.9.5-26.9.5M69.7 112.9s-15.3 5.2-16.2 15.3c-.9 10 6.8 24.6 6.8 24.6L45 131.3l5.3-18.7" opacity=".3" fill="#003868"/><path d="M830.8 183.7s-13.6 12.3-15.2 25.7c0 0-2.6-11.1 15.2-25.7z" fill="#efe8da"/><circle cx="834" cy="359.1" r="2.7" opacity=".6" fill="#99805f"/><circle cx="833.1" cy="330" r="2.7" opacity=".6" fill="#99805f"/><circle cx="832.6" cy="304.5" r="2.7" opacity=".5" fill="#99805f"/><path d="M451.3 304.5s15 12.5 11.8 34.4c0 0 .5-23-11.8-34.4z" fill="#92bbff"/><path d="M615.4 354.2s-10.1 15.9-3.9 16.6c6.2.7 23.2-4.1 18.5-8.2-4.9-4.1-14.6-8.4-14.6-8.4zM557 356l33.3 9.3 1.7 2-40-2" opacity=".2" fill="#003868"/><path d="M777.7 132.1s6.4-9.4 12.5-13.4c3-1.9.9 9.3 2.7 13.7 1.1 2.6 4.6 1.5 9.7 2.1 7.9.9 8.8 8.5 8.8 8.5l5.2-1.5s-3.6-16.7 6.4-14.9c10 1.8 6.1 26.4 20.7 25.7 4.3-.2 7.7 1.4 7.7 1.4s2.7-48.8-22.8-57c-25.6-8.2-50.6 15-50.9 35.4z" fill="#031c2b"/><path d="M787.5 110.8c-10.9 9.1-12.6 24.6-12.6 24.6 4.6 0 10.6-13.1 10.6-13.1" fill="#031c2b"/><g fill="#031c2b"><path d="M777.8 133s.2 3-2.9 3c-4.6 0-3.3-2.1-3.3-3.6s2.6-2.7 2-4.9c-.6-2.1 1.7-3.9 3.2-8.8 1.5-4.9-1.4-7.9 1.4-9.1 2.7-1.2 3-1.8 3.3-3.3.3-1.5-.6-6.4 2.7-4.9 3.3 1.5 3.9-.6 3.9-.6s.6-6.4 3.6-5.8c3 .6 2.1 2.1 5.2.3 3-1.8 2.4-6.1 6.7-4.9 4.3 1.2 4.6 3 6.1 1.2s5-4.5 7-2.4c3.5 3.6 5.5.6 9.3.6 4.1 0 3 4.6 6.5 5.5 1.9.5 4.6-1.2 7.9.9 3.3 2.1-.8 5.8 3.8 8.5 1.9 1.1 4.6.3 4.4 5.2-.1 4 .6 5.8 2.1 7 1.5 1.2 4.4.9 3.3 7.9-.6 3.8-2.7 7-1.5 7.6 1.2.6.6 2.4.9 3.9.3 1.5 2.6.9 2.1 4.6-.3 2.4-2.7 6.1-2.7 6.1l.3 2.1-27.8-25.5s-5.3 6.1-12.3 4.9c-7-1.2-13.1 4.3-16.7-1.5-3.6-5.8-9.7-10.9-9.7-10.9l-8.8 16.9z"/><path d="M774.3 131.8s.3-3-2.4-5.5c-2.7-2.4 3.2-3 2-6.7s.2-9.7 3.2-9.7 3.9-1.5 4.6-3M853.1 127.2s2.3 2.1 2.6 3.3c.3 1.2-.9 3.6-1.4 3.9-2.8 1.9 2 3 .2 6.4-1.8 3.3-.8 1.8-.2 5.2.5 2.4-1.1 4.3-3.5 5.2-2.4.9-2-4.6-3.5-.9-1.5 3.6-4.3 3.6-4.3 1.8s.9-3.6-2.7-2.4c-3.6 1.2-8.5-1.5-7.6-7.9.9-6.4-2.4-10-2.4-10"/></g><path d="M90.4 138.6s-.4 16 1.1 18.7l-11.3.3s-8.2-23.7-11.8-25.2l22 6.2z" fill="#022947"/><path d="M75.2 224.7s1.3 8.9 7.2 10.9l-4.9-11.4-2.3.5z" fill="#003868"/><path opacity=".6" fill="#022947" d="M64.7 270.3l.7 42.4 1.3-.5-2-44z"/><path d="M314.1 252.5l-1.3-.6s10.1-1.5 18.5 6.8c16.4 16.4 36.2 20.5 47.2 6.8 0 0 6.8 21.2-24.6 23.2s-86.8.7-86.8.7l-19.1 3.4-.3-2.1c-.7-5.3 1.6-10.5 6.1-13.5 9.7-6.5 28.7-16.9 53.7-19.3 15.6-1.3 6.6-5.4 6.6-5.4z" fill="#001c36"/><path d="M331.3 258.7s1.1 1.1 2.8 3.3c6.8 8.8 17.3 13.8 28.3 13.4 7.8-.3 15.8-1.8 20.2-6.5 0 0-5.5-21.2-17.1-34.9M324.4 253.9l-20.6.3s12.4-2.3 9.7-11.2" fill="#022947"/><path d="M302.6 191.8l-8.2 26s10.3 9.6 16.4 17.1c6.2 7.5 9.6 27.3 8.2 30.8l17.8-1.4s-22.6-36.9-23.9-51.9c-1.5-15.2-10.3-20.6-10.3-20.6z" opacity=".6" fill="#001c36"/><path d="M243.5 167.3s10 5.5 10.9 11.4c.9 5.9 0 29.2 0 29.2l-5.6-1.1s5.2-27.2 3.8-29c-1.3-1.8-9.1-2.7-9.1-10.5z" fill="#065793"/><path d="M859.5 262.8s19.1-18.5 13-19.8c-6.1-1.4-11.6 6.8-13 19.8z" fill="#003868"/><path d="M253.4 109.3s-17.9 6.4-24.3 20c0 .1 11.5-14.8 24.3-20z" fill="#f4e8d3"/><path d="M388.2 281.8s15-1.9 14.8 10.8c0 0-3.9-11.3-14.8-10.8z" fill="#92bbff"/><path fill="#fff0d7" d="M784.3 346.9h29.4v7.5h-29.4z"/><path fill="#99805f" d="M784.7 348.9h29.1v6.7h-29.1z"/><path fill="#003868" d="M630.3 362.8l3.7 4.5-5.6-1.1z"/><path opacity=".4" fill="#114289" d="M784.5 354.7h28.8v5.3h-28.8z"/><path d="M726.2 357.4s-14.3-1.8-17.7-1.4c-3.5.5-15.7 7-15.7 7s11.4-7.3 33.4-5.6z" fill="#f4e8d3"/><path d="M693.7 362.9s-17.4 10.3-13 11.7c4.4 1.4 12.9-4.7 12.9-4.7s-7.6 4.3-4.6 5.2 11.8-3.3 11.8-3.3-7 3.9-3.6 4.3 23.4-.6 27.3-3.9" fill="#022947"/><path d="M846.6 202.9s17.3 6.7 15.8 32.5c0 0 2.1-25.7-14.7-33M881.5 228.1s9.7-2.1 13.1-4.6 8.8-8.2 8.8-8.2-18.5 13.4-21.9 12.8zM896.4 226.1s4.6 20.2 6.4 28.4c1.8 8.2 4.9 40.1 4.9 40.1s-8.8-59.8-11.8-67.1M848.1 260.7l-31 47.4s22.4-38.7 31-47.4z" fill="#003868"/><path d="M772 310.8s8.7 22.3 15.9 26c.1 0-12.7-11.8-15.9-26z" fill="#3c78df"/><path d="M742.8 296.3l27.1.5c.1 0-22.1.6-27.1-.5z" fill="#9fc6ff"/><path d="M784.9 121.5s-5.2 18.5.3 24 8.8 5.8 8.2 11.8c-.6 6.1.9 7.6 3.3 11.5 3.3 5.3 9.1 13.1 15.2 13.1s18.1-13.8 24.8-5.9c0 0 22.3-10.8 25.7-10.2 0 0-12.1-7.6-14.6-23.7-2.4-16.1-31-48-62.9-20.6z" opacity=".5" fill="#03141c"/><path d="M91.8 80.1s2.1 8.9 1.8 10c-.2 1.1-.5 1.6-1.6 3.2s-.5 5.9 1.6 9.3c.8 1.4-1.2 2.1-2.8 2.5-1.4.3-2.3 1.6-2.2 2.9v.1c.2 1.8-1.4 1.6-1.4 1.6l.9.7c.7 3.2-1.1.9-2.1 3.2-.3.8.7 4.3-1.6 4.6-8.7 1.1-12.5 2.1-12.5 2.1s10.3-10.7 10-16.2c-.1-5.6 8.5-24 9.9-24z" fill="#efe8da"/><path d="M88.4 76.4s6.4.2 5.2 13.7l-8.9 7.1" fill="#efe8da"/><path d="M88.2 75.1s16.2 6.8 7 16.7l.2-.2c2.7-1.4 4.6-1.4 5.8-7.2.6-3.1-3.9-12.5-11.5-15.8" fill="#001c36"/><path d="M264.3 130.6l-30.1 15s6.7 9.9 9.7 9.6 1.5-1.5 1.5-1.5-3.9-2.6-6.7-7.4l24.6-14.4 1-1.3z" fill="#92bbff"/><path d="M788.9 170.7s2.7-.5 5.7.5c3 .9 17.1 9.1 16.9 11.6-.2 2.5-4.6 8-8.2 7.1-3.6-.9-8.4-9.6-8.4-9.6s6.2 5.7 7.7 3.4c1.6-2.3-6.2-11.2-8.9-11.2s-5 .9-5 .9-.9-2.9.2-2.7z" fill="#02151e"/><path d="M586 222s-5.8 8.2 2 33.3c4 12.9 6.3 41.9 2.7 50.6l-3.6 8.7s5.1-18.9 3.2-35.4c-3.2-26.9-14.1-44.3-5.4-57.3M521 219.3s-3.6 33.3 0 52.9h.5s-1.4-40.2 2.3-54.1M593.4 222.9s-6.2 20.7-1.4 33.7l-.3-.3s-1.8-11.2 3.3-33.8" opacity=".2" fill="#5492ed"/><path d="M750.2 214.3s7 4.4 14.1 22.8c2.9 7.4 29.6 22.8 29.6 22.8v.9l.9-.5c-2.3-2-21.3-18.8-23.7-21.7-5.3-6.4-16.5-27.7-20.9-24.3zM738 233.8s6.8 4.9 9.4 2.4c2.6-2.4.8-5.6.8-5.6s-2 7.5-10.2 3.2z" fill="#063d59"/></g><path d="M690.5 415.6s58.8.5 65.2-15.9c-.1 0-4.2 13.2-65.2 15.9z" clip-path="url(#f)" fill="#5492ed"/></g></svg>