<svg xmlns="http://www.w3.org/2000/svg" viewBox="0 0 250 250"><path opacity=".5" fill="#1d3458" d="M43.2 193.8h41.6v4.1H43.2z"/><path d="M127.4 76.4c-.5 4.3 2.2 2.3 3.2 2.3 2.2.1-.4 2.5 3.5 3.7 2.8.9 3.3-3.6 6-4.8 3.7-1.7 12.5 9.1 12.5 9.1 3.7-6.3 19.9-12.3 19.9-12.3-3.4.3-6.7-4-11.6-10.5-4.1-5.6 2.4-16.8-7.2-27.6-6.5-7.3-17-11-29.6.3-3.5 3.1-5.5 6.5-6.7 9.5-1.8 4.4-1.8 9.4.2 13.8.6 1.3 1.3 2.5 2.3 3.1.8.5 1.7 1.2 2 2.7.3 1.6-1.5 6.9 0 7.6 1.3.6 3.3.3 3.9.5.6.2-.2 1.4.5 2.1.5.8 1.1.5 1.1.5z" fill="#063d59"/><path d="M118.2 51.3s-.4 2.7-.2 5.2c.2 2.6 0 5.3 1.4 6.4 1.4 1.2 1.8.7 1.6 2.9-.2 2.2-2.3 7.7.3 7.7 2 0 1.9-.2 2.1 1 .2 1.2-.1 1.4 1.3 2.4l1 .6s-.6 1.7.1 2.2 1.1-.3 2.1 1.5c1.1 2 3.7 5.1 6.1 3.8 3.2-1.8 4.8-5.1 7.7-6.5 1.9-.9.1.7 3.6 2.7s6.3 4.5 6.3 4.5l3-8.8-24.7-22-11.7-3.6z" fill="#063d59"/><path d="M91.5 103s4.6-3.9 8.6-3.2c5.1.9 10.5 13.8 12.1 15.3 1.6 1.5 18.2 15.9 18.2 15.9l-7 12.9-15.1-20.2c-1.2-1.5-2.8-2.6-4.7-2.9-1.8-.3-3-1.7-5.8-2.5-1.3-.4-6.6-3.9-7.1-5.8-.2-.8.6-1.5 1.4-1.1 2.2 1.1 5.6 2.3 6.6-.5 1.5-4.3-.2-7.3-4-5.8s-6.4 2.5-6.4 2.5-2.4-.5.8-2.8l2.4-1.8z" fill="#022947"/><path d="M128.9 146.8s15.5 14.8 22.1 13.1c6.6-1.8 4.7-3.1 4.7-3.1l-5-24.2" fill="#001c36"/><path fill="#cdbfa4" d="M43.1 103.5v4.8h7.4v6.1h-7.4v35.4h7.4v6.2h-7.4v38.5h32.7v-91z"/><path fill="#725d46" d="M75.9 171.9v-6.1h7.5v-62.1H72.3v91.7h11.1v-23.5z"/><path d="M123.6 173.7c12.9-9.1 20.4-24.1 20.4-24.1s2.5 30.1 1.6 40.9c-1.2 15.8-13.9 23.7-13.9 23.7l30.7 10.8 44.5-31.6s-9.7-41.6-11-65c-1.8-32.5-11.2-49.7-18-50.3-2.5-.2-4-2.3-4.7-4-.6-1.3-.4-2.8-1.8-3.1-1-.3-2.1-.2-3.1.3-1.6.9-4.5 2.4-7.8 3.5-10.3 3.6-16 7.8-19.7 18l.4-1.2c-.5 1.4-2.6 6.3-1.2 5.7 3.4-1.4 6.1-4.8 8.1-3.9 0 0-4.9 3.2-8.5 12.9-3.6 9.7-20.8 41.3-20.8 41.3l-12.3 17.6L86 185.8l-10.6-.9s-20.9 8.6-15.2 10.3 15.9 3 30.7-1.9c5.4-1.8 32.7-19.6 32.7-19.6z" fill="#012f51"/><path d="M171.5 127.8s1 14.9 2.5 25.8 2 32.2 2 32.2l-.5 11.9-30.3 7.4s1.5-23.8 1.5-31.8 24.8-45.5 24.8-45.5z" fill="#003868"/><circle cx="157.4" cy="152.8" r="1.5" fill="#3d66bf"/><path d="M110.9 161.5l-25 24.3s-9.5-.2-11.5.5c-2.1.7-15.5 6-14.4 8.3 2.1 4.3 25.5 1.3 29.3-.8 3.7-2.1 28.7-15.5 31.1-21.2l-9.5-11.1z" fill="#022947"/><path d="M105.6 164.8s4.6 14.7 9.4 14.7l8.2-4.9s-11.5-16.1-10.2-19.2l-7.4 9.4z" fill="#0c4dbd"/><path d="M64.3 148.5H50.5c-1.8 0-3.3-1.5-3.3-3.3v-24.6c0-1.8 1.5-3.3 3.3-3.3h13.8c1.8 0 3.3 1.5 3.3 3.3v24.6c0 1.8-1.5 3.3-3.3 3.3zM64.5 162.7H49.8c-1.5 0-2.7-1.2-2.7-2.7 0-1.5 1.2-2.7 2.7-2.7h14.7c1.5 0 2.7 1.2 2.7 2.7 0 1.5-1.2 2.7-2.7 2.7z" fill="#8c7457"/><path d="M64.5 183.1H49.8c-1.5 0-2.7-1.2-2.7-2.7 0-1.5 1.2-2.7 2.7-2.7h14.7c1.5 0 2.7 1.2 2.7 2.7 0 1.5-1.2 2.7-2.7 2.7z" fill="#003868"/><path d="M64.5 171.8H49.8c-1.5 0-2.7-1.2-2.7-2.7 0-1.5 1.2-2.7 2.7-2.7h14.7c1.5 0 2.7 1.2 2.7 2.7 0 1.5-1.2 2.7-2.7 2.7z" fill="#8c7457"/><path d="M77 118.7v21.5l6.3-.4v-21.2s-6.9-.5-6.3.1zM72.4 148.1v17.2l6.3-.3v-17s-6.9-.4-6.3.1z" fill="#82684b"/><path fill="#aa916b" d="M80.4 106.5h13.9v4.9H80.4z"/><path d="M145.7 149.1l21.6-35.1s-2 8.4-2 25.4c0 11.8-2.9 15.6-5.1 22.7-2 6.5-5.6 12.4-10.3 17.2l-2.6 3.8-1.6-34z" fill="#022947"/><path d="M161.6 129.2s8.6-2 13.5-10.2c0 0-2.9 15.1-13.1 15.5" fill="#022947"/><path d="M139.5 106.3s-14.3 24.5-15.1 28.6.4 6.1-2 7.4c-2.5 1.2-4.9 3.7-7.8 11.8l4.1 7.4L153.4 92s-9.8-2-13.9 14.3z" fill="#003868"/><path d="M148.1 93.4s17.8-16.2 23.1-15.3c0 0-14.8-.8-19.7 4.9-4.9 5.7-9.5 11.9-9.5 11.9s3.6-2.1 6.1-1.5z" opacity=".5" fill="#03141c"/><path d="M148.1 93.4s9.4-.9 14.3 4 6.8 12.8 3.5 20.2c0 0 6.8-23.8-17.8-24.2z" fill="#022947"/><path d="M167.3 114.1s15.8-5.2 19.9-6.8c4.1-1.6 4.2-7.9 4.2-7.9s-.6 2.9-4.2 5.4c-3.5 2.5-20.4 7.9-20.4 7.9" fill="#022947"/><path d="M142.8 87.6s3-6.1 4.9-7.5c1.6-1.1 11.4-7.2 17.7-9 1.2-.3 2.4-.4 3 .6 0 .1-19.1 6.7-25.6 15.9z" fill="#5492ed"/><path fill="#ffdeae" d="M43.1 102.4h40.3v1.3H43.1z"/><path fill="#e2d5c3" d="M52.2 149.8H62v6.1h-9.8zM62.2 108H72v6.1h-9.8zM43.1 185h9.8v6.1h-9.8z"/><path d="M62.4 143.5h-9.7v-5c0-1.8 1.5-3.3 3.3-3.3h3.2c1.8 0 3.3 1.5 3.3 3.3v5z" fill="#cdbfa4"/><circle cx="57.5" cy="131.1" r="2.4" fill="#cdbfa4"/><path d="M185.4 107.5c5 3 11.4 68.5 11.4 68.5s-2.5-25.8-4-39.2c-1.5-13.4-5.6-29.5-5.6-29.5" fill="#022947"/><path d="M156.1 94.6s-17.9 29.3-16.9 37.7-1.5 9.4-6 9.9-3 2.5-1.5 6.9c1.5 4.5-1.5 0-5.5 6s-6.9 12.9-6.9 12.9l-4.8-13.9 35.1-58.6c0 .1 3.5-1.4 6.5-.9zM158.6 93.1l13.9-13.9s-15.1 6.2-24.4 14.3l10.5-.4z" fill="#003868"/><path d="M145.5 149.2v10.1c0 9 .2 23.6.2 23.6l-1.5-31.8 1.3-1.9zM132.1 119.8s-7.9 13.1-7.9 16.9 1.7 3.6-1.9 5.6c-3.6 2-5.5 6.6-5.5 6.6s2.7-7.1 5.7-9c.1 0 2.6-11.1 9.6-20.1z" fill="#efe8da"/><path d="M117.7 165.3s-6.5 10.1-8.7 8.7c0 0 2.5 5.7 6 5.4l8.7-5.5-6-8.6z" fill="#003868"/><path fill="#022947" d="M78.4 106.3H81v5.2h-2.6z"/><path fill="#ffdeae" d="M81.1 106.4h13.1v1.1H81.1z"/><path fill="#5b4733" d="M78.9 140.4v4.5l4.7-.1v-4.4zM72.2 176.4v4.5l6.8-.2v-4.3zM72.5 128.4v4.5l6.8-.1v-4.4zM78.7 111.5v4.6l4.7-.2v-4.4z"/><path fill="#ffdeae" d="M43.2 114.2h7.1v.9h-7.1zM43.2 155.8h7.1v.9h-7.1z"/><path fill="#efe8da" d="M112.9 155.4l-7.3 9.4.7 1.3 6.8-8.2zM105.6 164.8l-10.2 11.4 10.7-9.5.2-.6M87.3 106.5s6.8-8.2 12.9-6.7c0 0-6.9-.6-11.8 7M148.5 81.9s-8.1 7.3-9.1 15.3c0 .1-1.5-6.6 9.1-15.3z"/><circle cx="150.4" cy="186.8" r="1.6" opacity=".6" fill="#99805f"/><circle cx="149.8" cy="169.3" r="1.6" opacity=".6" fill="#99805f"/><circle cx="149.6" cy="154.1" r="1.6" opacity=".5" fill="#99805f"/><path d="M116.7 51s3.8-5.6 7.4-8c1.8-1.1.6 5.5 1.6 8.2.6 1.6 2.7.9 5.8 1.3 4.7.6 5.3 5.1 5.3 5.1l3.1-.9s-2.2-10 3.8-8.9c6 1.1 3.6 15.8 12.3 15.3 2.6-.1 4.6.8 4.6.8s1.6-29.1-13.6-34.1-30.1 9.1-30.3 21.2z" fill="#031c2b"/><path d="M122.6 38.3c-6.5 5.4-7.5 14.7-7.5 14.7 2.7 0 6.4-7.8 6.4-7.8" fill="#031c2b"/><g fill="#031c2b"><path d="M116.8 51.6s.1 1.8-1.7 1.8c-2.7 0-2-1.3-2-2.2 0-.9 1.5-1.6 1.2-2.9-.4-1.3 1-2.4 1.9-5.3.9-2.9-.8-4.7.8-5.4 1.6-.7 1.8-1.1 2-2 .2-.9-.4-3.8 1.6-2.9 2 .9 2.4-.4 2.4-.4s.4-3.8 2.2-3.5 1.3 1.3 3.1.2 1.5-3.6 4-2.9c2.5.7 2.7 1.8 3.6.7.9-1.1 3-2.7 4.2-1.5 2.1 2.2 3.3.4 5.5.4 2.4 0 1.8 2.7 3.9 3.3 1.1.3 2.7-.7 4.7.5 2 1.3-.5 3.5 2.3 5.1 1.1.7 2.7.2 2.6 3.1-.1 2.4.4 3.5 1.3 4.2.9.7 2.6.5 2 4.7-.3 2.2-1.6 4.2-.9 4.5.7.4.4 1.5.5 2.4.2.9 1.5.5 1.3 2.7-.2 1.4-1.6 3.6-1.6 3.6l.2 1.3L145.2 46s-3.2 3.6-7.4 2.9c-4.2-.7-7.8 2.5-10-.9s-5.8-6.5-5.8-6.5l-5.2 10.1z"/><path d="M114.7 50.9s.2-1.8-1.5-3.3c-1.6-1.5 1.9-1.8 1.2-4s.1-5.8 1.9-5.8 2.4-.9 2.7-1.8M161.8 48.1s1.4 1.3 1.5 2c.2.7-.5 2.2-.8 2.4-1.7 1.1 1.2 1.8.1 3.8-1.1 2-.5 1.1-.1 3.1.3 1.5-.6 2.5-2.1 3.1-1.5.5-1.2-2.7-2.1-.5-.9 2.2-2.5 2.2-2.5 1.1s.5-2.2-1.6-1.5c-2.2.7-5.1-.9-4.5-4.7s-1.5-6-1.5-6"/></g><path d="M165.7 129.2s11.4-11 7.8-11.8c-3.8-.9-7 4-7.8 11.8z" fill="#003868"/><path d="M85.9 185.8s-8.5-1.1-10.6-.8c-2.1.3-9.4 4.2-9.4 4.2s6.9-4.5 20-3.4z" fill="#f4e8d3"/><path d="M66.5 189s-10.4 6.1-7.8 7c2.6.8 7.7-2.8 7.7-2.8s-4.5 2.5-2.7 3.1c1.8.5 7.1-2 7.1-2s-4.2 2.4-2.2 2.5c2 .2 14-.4 16.3-2.4" fill="#022947"/><path d="M157.9 93.4s10.4 4 9.4 19.4c0 0 1.3-15.3-8.8-19.7M178.8 108.4s5.8-1.3 7.8-2.7c2-1.5 5.3-4.9 5.3-4.9s-11.1 8-13.1 7.6zM187.7 107.2s2.7 12.1 3.8 17 2.9 24 2.9 24-5.3-35.8-7.1-40.1M158.8 128l-18.5 28.3s13.4-23.2 18.5-28.3z" fill="#003868"/><path d="M113.3 157.9s5.2 13.3 9.5 15.5c.1 0-7.5-7-9.5-15.5z" fill="#3c78df"/><path d="M121.1 44.7s-3.1 11.1.2 14.3c3.3 3.3 5.3 3.5 4.9 7.1-.4 3.6.5 4.5 2 6.9 2 3.2 5.4 7.8 9.1 7.8 3.6 0 10.8-8.3 14.8-3.5 0 0 13.3-6.4 15.3-6.1 0 0-7.3-4.5-8.7-14.2-1.5-9.6-18.6-28.7-37.6-12.3z" opacity=".5" fill="#03141c"/><path d="M123.4 74.2s1.6-.3 3.4.3 10.2 5.4 10.1 6.9c-.1 1.5-2.7 4.8-4.9 4.2-2.2-.5-5-5.7-5-5.7s3.7 3.4 4.6 2-3.7-6.7-5.3-6.7-3 .5-3 .5-.6-1.7.1-1.5z" fill="#02151e"/><path d="M100.3 100.2s4.2 2.6 8.4 13.6c1.7 4.4 17.7 13.6 17.7 13.6v.5l.5-.3c-1.4-1.2-12.7-11.3-14.2-13-3.1-3.7-9.8-16.4-12.4-14.4zM93 111.9s4.1 2.9 5.6 1.5.5-3.4.5-3.4-1.2 4.4-6.1 1.9z" fill="#063d59"/></svg>