<svg xmlns="http://www.w3.org/2000/svg" viewBox="0 0 1000 436.1"><path d="M642.7 78.8c0-32 25.9-57.9 57.9-57.9s57.9 25.9 57.9 57.9" fill="#022947"/><path fill="none" stroke="#003868" stroke-width="1.367" stroke-miterlimit="10" d="M700.1 26.5V-.7"/><circle cx="701" cy="21" r="9.1" fill="#022947"/><path d="M707.8 22.4s39.6 4.8 40.3 54.7l-16.4-1.4s2.1-36.2-23.9-53.3z" fill="#0c478e"/><ellipse cx="700.2" cy="80.7" rx="57.1" ry="5.7" fill="#fff0d7"/><ellipse cx="522.8" cy="398.2" rx="25.9" ry="8.9" opacity=".7" fill="#114289"/><path d="M501.1 352.2c-4.6 1.5-7.7 5.9-7.7 10.7.2 13 3.3 37.4 24 39.4 25.9 2.5 30-13.2 30.5-40.4.1-5-3.1-9.4-7.9-10.8-8.1-2.4-21.8-4.4-38.9 1.1z" fill="#1d3458"/><path d="M496.4 360.4s-15-9.7-14.6 6.4c.5 15.5 13.5 19.6 21 16.4 0 0-16.3-5.5-16.4-14.1-.2-13.6 14.6-.5 14.6-.5" fill="#1d3458"/><ellipse cx="520.3" cy="359.8" rx="20.9" ry="6.5" fill="#99805f"/><path d="M512.3 353.1s30.1 3.6 19.1 12.3c0 0 21-3.6 5.5-10.9-15.4-7.3-24.6-1.4-24.6-1.4z" opacity=".5" fill="#5b4733"/><path d="M525.3 349s25.2.4 22.3 9.8c.1 0 1.9-8.2-22.3-9.8z" fill="#efe8da"/><path d="M544.2 362.2s1.8 31.4-10.9 38.3c0 0 5-17.8 4.6-34.2" fill-rule="evenodd" clip-rule="evenodd" fill="#0c478e"/><path d="M547.4 358.3s4.1 17.2-5.9 36.8c0-.1 7.7-16.6 5.9-36.8z" fill="#fff"/><path d="M493.9 359.5s-5.7-5.2-10.9.5c0 0 3.6-4.1 10.9-.5z" fill="#92bbff"/><g><path fill="#725d46" d="M570.5 393.3H604v9.6h-33.5z"/><linearGradient id="g" gradientUnits="userSpaceOnUse" x1="587.059" y1="391.907" x2="587.069" y2="393.418"><stop offset="0" stop-color="#efe8da"/><stop offset="1" stop-color="#78aaff" stop-opacity=".1"/></linearGradient><path opacity=".6" fill="url(#g)" d="M570.5 392h33.1v1.8h-33.1z"/><path opacity=".4" fill="#114289" d="M570 400.4h34.2v7.3H570z"/></g><path fill="#cdbfa4" d="M570.4 391.3H604v2.9h-33.6z"/><g><ellipse cx="698.8" cy="413" rx="79.7" ry="19.5" opacity=".7" fill="#114289"/><ellipse cx="699.1" cy="399.2" rx="77.3" ry="25.9" fill="#2849a1"/><ellipse cx="696.4" cy="396.7" rx="51.6" ry="14.7" fill="#022947"/><ellipse cx="664.8" cy="397.9" rx="18.5" ry="6.8" fill="#022947"/><ellipse cx="682.5" cy="408.1" rx="18.5" ry="6.8" fill="#022947"/><ellipse cx="688.7" cy="398.6" rx="18.5" ry="6.8" fill="#022947"/><ellipse cx="703.7" cy="393.8" rx="18.5" ry="6.8" fill="#022947"/><path d="M726.9 382.8c-6.9 0-13.3 1.2-18.2 3.2 6.4 2.5 10.5 6.4 10.5 10.7s-10 10.4-16.4 13c5 2 14.9 2.3 21.9 2.3 15.9 0 31-7.6 31-15.3s-12.9-13.9-28.8-13.9z" fill="#022947"/><path d="M696.9 382.4s31.9-8.2 43.7 2.7c13.3 12.3-5 26.4-35.1 24.1 0 0-5.9-.5 3.6-4.6 9.6-4.1 20-12.8 2.3-17.8 0 .1-20.5-1.7-14.5-4.4z" fill="#5492ed"/><ellipse cx="685" cy="395.9" rx="13.7" ry="5" fill="#3c78df"/><ellipse cx="678.6" cy="409.2" rx="13.7" ry="5" fill="#3c78df"/><ellipse cx="660" cy="396.2" rx="13.7" ry="5" fill="#3c78df"/><path d="M732.9 381s10 9.1 3.6 15-27.3 8.7-27.3 8.7-8.2.5-5 4.1c3.2 3.6 37.4 3.2 41-14.6 0 0 2.7-9.1-12.3-13.2z" opacity=".75" fill="#003868"/><path d="M696.9 382.4s27.8-11.4 40.5-.5c0 0-21.9-7.3-41 1.8l.5-1.3z" fill="#efe8da"/><path d="M652.2 392s17-2 20.8 3c.3.4-.2 1.3-.1 1.8 0 0-2.5-5.7-20.7-4.8z" fill="#92bbff"/><path d="M738.8 376.4s37.7 6.4 37.6 22.8c-.1 0-5.3-14.6-37.6-22.8z" fill="#fff"/><path d="M720.3 395.7s11.5-9.4 24.9-1.5l-.9 3.3s-3.7-6.3-24-1.8zM717.5 399.4s14-1.2 15.5 7l-1.5 1.8s-7-8.5-14-8.8z" fill="#1d3458"/><path d="M713 401.8s8.8 1.2 5.8 9.1l-2.8-.9s2.1-7.9-4.3-7l2.4-1.5" fill="#022947"/><path d="M717.2 389.3s4.3-10 16.1-10.3c0 0-16.7-1.2-16.1 10.3zM714.8 377.8s-5.8 2.4-4.3 10c0 0 2.1-10 8.5-10.6l-4.2.6z" fill="#10459f"/><path d="M669.8 405.6s17.7-5.4 22.6 3.6c-.1 0-4.1-6.3-22.6-3.6z" fill="#92bbff"/><path d="M731.2 379s-9.7 1.5-12.1 7.9c0 0 5.5-6.4 13.8-5.9M717.8 377.2s-5.2 2.4-6.1 8.5c0 0 4.9-7.6 8.5-7.6" fill="#efe8da"/><path d="M722.1 395.1s10-3.6 17.6 0l-4.3 1.5s2.8-1.8-13.3-1.5z" fill="#9fc6ff"/><ellipse cx="675.6" cy="408" rx="2.2" ry=".6" fill="#0c478e"/><ellipse cx="678.1" cy="411.2" rx="1.4" ry=".7" fill="#0c478e"/><ellipse cx="683.8" cy="408.1" rx="2.2" ry=".6" fill="#0c478e"/><ellipse cx="690" cy="397.1" rx="2.2" ry=".6" fill="#0c478e"/><ellipse cx="679.4" cy="392.5" rx="1.7" ry=".5" fill="#0c478e"/><ellipse cx="659.5" cy="395.5" rx="2.2" ry=".6" fill="#0c478e"/><ellipse cx="651.7" cy="395.5" rx="1.4" ry=".6" fill="#0c478e"/></g><path fill="#cdbfa4" d="M760.7 373.4H795v9.6h-34.3z"/><path fill="#725d46" d="M795 382.9l-34.3-.2v-4.1l34.3.2z"/><g><path d="M129.1 51.4c0-23.9 19.4-43.3 43.3-43.3s43.3 19.4 43.3 43.3" fill="#0c478e"/><path d="M196.6 15.3s20.5 11.6 18.5 32.1c0 .1-1.4-17.7-18.5-32.1z" fill="#efe8da"/><path fill="none" stroke="#003868" stroke-width="1.367" stroke-miterlimit="10" d="M171.5 14.5V-.7"/><circle cx="172.2" cy="10.4" r="6.8" fill="#0c478e"/><path d="M172 9.5s32.2 3.8 32.8 44l-13.3-1.1s1.7-29.2-19.5-42.9z" opacity=".8" fill="#1d71b7"/><ellipse cx="173" cy="51.7" rx="44" ry="4.4" fill="#f4e8d3"/></g></svg>