<svg xmlns="http://www.w3.org/2000/svg" viewBox="0 0 250 250"><path d="M94.9 98.3s19.5-1.1 26-.8 35.3-10.8 38.6-11.7 7.4 4.7 7.4 4.7 5.7 1.3 6.4-1.7-4.1-7.1-7.7-8.7c-3.6-1.6-25.2 2-37.6 5-9.1 2.2-33.9-6.4-33.9-6.4" fill="#efe8da"/><path fill="#99805f" d="M185.4 109.3v-7.6h4.6V86.1h-38.2v64.5h3.9v7.5h-3.9v14.7H190v-63.5z"/><path d="M112.2 36.8s-7.1 6-11.3 14.5S86 73 86 73l-17-6.8c-3.8-1.8-5-6.7-2.5-10.1 2.7-3.7 7.8-8.8 10.1-14.9 4.7-12.8 27.1-20.9 35.6-4.4z" fill="#003868"/><path d="M113.9 44.5s-2 20.7-8.9 22.8c-6.9 2.1-11.9 7.4-9.7 20.6 0 0-3.7 3.9-17.5-7.3 0 0 5.3-12.2 5.3-19.1s20.5-28.9 26.8-26.8 4 9.8 4 9.8z" fill="#efe8da"/><path d="M108.9 37.8s-7 2.2-6.2 19.5c.4 8.6-.8 11.4-21 10.7 0 0 20.1-31.9 27.2-30.2z" opacity=".3" fill="#003868"/><path d="M65.2 115.3s4.3 18.7 4.3 28.7c0 10.1-7.4 13.3-8.5 27.6-1.1 14.3 10 50 10 50s26.6 8.3 28.2-1.2 4.1-39.6 3.3-57.1c-2.3-52 14.4-42.6 7.5-61.7S96.5 76.7 88 76.7s-36.2-3.3-22.8 38.6z" fill="#022947"/><path d="M113.2 36.8s5.2 3.6 2.7 7.6c-2.5 4-2.9 3.8-2.9 3.8s2.9-8.3-3.2-10.9" fill="#003868"/><path d="M180.1 119.7H159c-1 0-1.8-.8-1.8-1.8V97.3c0-1 .8-1.8 1.8-1.8h21.1c1 0 1.8.8 1.8 1.8v20.5c0 1-.8 1.9-1.8 1.9z" fill="#cdbfa4"/><path d="M159.5 105.9h-1.7c-2 0-3.7-1.7-3.7-3.7s1.7-3.7 3.7-3.7h1.7c2 0 3.7 1.7 3.7 3.7s-1.6 3.7-3.7 3.7zM169.6 101.5s1.7 1.7 0 5.4-2.3 9.4-6 10.7c-3.7 1.3-11.7 13.1-11.7 13.1v-17.1l17.7-12.1z" fill="#725d46"/><path d="M177.8 164.9h-20.2c-1 0-1.8-.8-1.8-1.8v-20.6c0-1 .8-1.8 1.8-1.8h20.2c1 0 1.8.8 1.8 1.8v20.6c0 1-.8 1.8-1.8 1.8z" opacity=".6" fill="#cdbfa4"/><path d="M190.2 140.7h-2.4c-1 0-1.8.8-1.8 1.8v20.6c0 1 .8 1.8 1.8 1.8l2.2.4c-.3-8.1.7-15.8.2-24.6z" fill="#cdbfa4"/><path d="M102.8 137.4c1.7 13.1 3.4 14.6 6.4 29.2 3 14.6-6 43.3-6 43.3l-38.9 6c-6.7-38.6-6.7-55.5-2-62.7 8.1-12.4 6.7-16.8 6.7-16.8l9.4.7c-.1 0 24.1-2 24.4.3z" fill="#0c4dbd"/><path d="M76.8 133.7s-1.5 10.4-4.4 28.9c-2.9 18.5 5.2 55 5.2 55l-14.4-4.5s-7-46.5-2.7-56.2c4.4-9.7 11.2-13.3 7-31.9" opacity=".5" fill="#003868"/><path d="M88.4 101.5s24 19.8 26.5 18.8c5.2-2.2 27.5-7.9 31.7-10.2 4.3-2.3 2.9-4.9 4.6-8.8s9.2-5.6 9.2-3.3-7.5 4.7-4.7 6.7c5.5 3.9 12.7-2.9 12.3-2-1.1 2.7-2.7 8.1-7.3 9.8-4.6 1.6-9.8 4.3-9.8 4.3s-23.4 16.9-37.5 16.3c-12.6-.5-37.1-24.4-37.1-24.4l12.1-7.2z" fill="#efe8da"/><g opacity=".7" fill="#5492ed"><circle cx="90.8" cy="144.8" r="1.2"/><circle cx="91.1" cy="154.2" r="1.2"/><circle cx="91.1" cy="162" r="1.2"/><circle cx="90.8" cy="170.1" r="1.2"/><circle cx="91.1" cy="179.5" r="1.2"/><circle cx="91.1" cy="187.3" r="1.2"/></g><path d="M81.9 66.9l-.9 4s-18.1-2-16.3-11c1.5-7.7 7.4-7.6 11.4-19.2 4.5-13 11.3-18 23.5-14.8 17.8 4.7 20.4 17.4 14.1 21.9 0 0 0-.9.4-6.3s-2.7-3.8-2.7-3.8-8.3-2.3-8.9 7.6-1.1 18.8-6.9 20.8c-1.9.7-19 1.3-19 1.3s-.2-17 7.4-23.5c7.6-6.5 16.3-14.8 23.9-11.6" fill="#001c36"/><path fill="#2269d1" d="M82 137.8l-.3 8.4h-2l.3-8.4zM98.5 137.4l-.4 8.4h-2l.4-8.4z"/><path d="M80 146.2s1.2 10.4-19.3 11.2c0 0 3.9-9.7 6.9-11.7l12.4.5z" opacity=".7" fill="#003868"/><path d="M79.7 76.1c-.5 0-.8.5-.6.9 1.7 3.5 8.3 15.9 15 16.5 8.7.8 0-17.4 0-17.4" fill="#efe8da"/><path d="M172.7 134.4h-13.6c-.7 0-1.3-.6-1.3-1.3V127c0-.7.6-1.3 1.3-1.3h13.6c.7 0 1.3.6 1.3 1.3v6.2c0 .6-.6 1.2-1.3 1.2z" opacity=".6" fill="#cdbfa4"/><path d="M190.1 134.8h-12c-.6 0-1.1-.6-1.1-1.3v-6.2c0-.7.5-1.3 1.1-1.3h12" fill="#cdbfa4"/><path opacity=".2" fill="#e2d5c3" d="M177.2 86.5h12.1V94h-12.1z"/><path opacity=".4" fill="#e2d5c3" d="M172.5 156.6h12.1v7.5h-12.1zM161.7 146.6h12.1v7.5h-12.1z"/><path opacity=".4" fill="#ede3d6" d="M168.8 110.4h12.1v7.5h-12.1z"/><path fill="#99805f" d="M159.5 96.8h10.1v6.4h-10.1z"/><path fill="#5b4733" d="M190.738 170.98h-5.7v-61.4h5.7zM191.014 101.55h-6.1v-15.4h6.1z"/><path fill="#ffdeae" d="M151.8 86.1h38.9v1.3h-38.9z"/><path d="M169.3 99.5c1.3.6 1.8 2.1 1.2 3.4-1.8 3.2-5.3 8.7-9.5 9.4M103.5 137.4s.4 8.7 1.3 10c2.6 3.8 4 15.8 4.4 19.1 0 0-2.9-14.8-5.7-17.8-1.5-1.6-.5-11.4-.5-11.4l.5.1z" fill="#efe8da"/><path d="M82.4 104.6s25.5 24.2 32.5 24.8c7 .7 37.2-13.8 37.2-13.8l.6.1s-27.1 19.8-41.5 17c-13.1-2.5-34.9-24.2-34.9-24.2l6.1-3.9zM103.8 91.5s13.1.7 21.1 1.3c8.1.7 16.8-.7 16.8-.7s-13.1 4.4-15.8 5c-2.7.7-19.8.3-19.8.3M97 64.8S85.8 68.7 85.1 76c-.7 7.4 5 18.1 5 18.1L78.8 78.4l3.9-13.7" opacity=".3" fill="#003868"/><path d="M112.2 83.7s-.3 11.8.8 13.8l-8.3.2s-6-17.4-8.7-18.6l16.2 4.6z" fill="#022947"/><path d="M101 147.2s1 6.5 5.3 8.1l-3.6-8.4-1.7.3z" fill="#003868"/><path opacity=".6" fill="#022947" d="M93.3 180.7l.5 31.2 1-.3-1.5-32.4z"/><path d="M113.2 40.7s1.5 6.5 1.3 7.4c-.2.8-.3 1.2-1.2 2.3-.8 1.2-.3 4.4 1.2 6.9.6 1-.9 1.6-2.1 1.8-1 .2-1.7 1.1-1.6 2.2.2 1.3-1 1.2-1 1.2l.7.5c.5 2.3-.8.7-1.5 2.3-.2.6.5 3.1-1.2 3.4-6.4.8-9.2 1.5-9.2 1.5s7.5-7.9 7.4-11.9 6.2-17.6 7.2-17.6z" fill="#efe8da"/><path d="M110.7 38s4.7.2 3.9 10.1l-6.5 5.2" fill="#efe8da"/><path d="M110.6 37s11.9 5 5.2 12.3l.1-.1c2-1 3.4-1.1 4.3-5.3.5-2.2-2.9-9.2-8.5-11.6" fill="#001c36"/></svg>