<svg xmlns="http://www.w3.org/2000/svg" viewBox="0 0 250 250"><path d="M110.4 36.6c.9-.3 1.7-.3 2.4.2 1.7 1.1 4.5 7.1 5.2 9l14.7.3-9-20.7-13.3 11.2z" fill="#047cc0"/><path d="M117.2 44c.9-.4 1.9-.8 2.8-1.3-.9-2-3.6-5.3-4.6-6-1.2-.8-2.7-.9-4-.3.5 0 1 .1 1.4.3 1.3.9 3.3 4.8 4.4 7.3z" fill="#12a3b4"/><path d="M110.9 9.1c-2.1.8-3.8 2.3-4.9 4.1-1.1 1.9-1.5 4.2-1.1 6.3.1.7.3 1.4.4 2.2.2 3-2.4 4.6-2.4 5.8 0 .6 1 1.2 1.7 1.1-.3 1-.9 2.7.4 3.1-.3.4-.7 1.1-.4 1.6.1.2.3.3.4.4.2.2.5.2.7.5.1.1.2.3.2.4.3 1-.2 2 1.3 2.4 1.8.4 3.6-.2 5.4-.9 1.4-.5 2.8-1.1 4.1-1.8 1.7-.9 3.2-2.1 4.6-3.3 1.1-.9 2.2-1.9 3.1-3.1 1-1.3 1.6-2.8 2.1-4.3.8-2.1 1.4-4.2 1.5-6.4s-.3-4.5-1.4-6.3c-1.5-2.4-4.2-3.9-7-4.2-2.8-.3-5.7.5-8 2" fill="#047cc0"/><ellipse cx="105" cy="22.8" rx="1.1" ry="2.5" fill="none" stroke="#d1f0f7" stroke-width=".3639" stroke-miterlimit="10"/><path d="M114.6 7.1c-1.1.4-2.1.8-3.1 1.4l-.7.6c-2.1.8-3.8 2.3-4.9 4.1-1.1 1.9-1.5 4.2-1.1 6.3.1.7.3 1.4.4 2.2.2 3-2.4 4.6-2.4 5.8 0 .6 1 1.2 1.7 1.1-.3 1-.9 2.7.4 3.1-.3.4-.7 1.1-.4 1.6.1.2.3.3.4.4.2.2.5.2.7.5.1.1.2.3.2.4.3.9-.2 2 1.3 2.4 1.2.3 2.3.1 3.5-.3-.1 0-.3.1-.4.1-.5.1-1-.4-1.1-1-.1-.5 0-1.1.2-1.6.4-1.3 1.1-2.9.8-4.2-.1-.8-.7-1.5-.9-2.4-.3-1.5.7-2.9.5-4.4-.1-.9-.6-1.7-1-2.5-1.6-3.7-.2-8.2 2.5-11 1.2-1.1 2.2-1.9 3.4-2.6z" fill="#12a3b4"/><path d="M126.7 32.1c3-.5 3-12.4 2.8-15.2-.5-4.7-2.8-10.2-7.2-11.3-10.4-2.5-19.5 7.7-16.1 7.9 3.6.2 6.2.8 7.6 1.2 2.8 1 2.9 2.9 3.3 3.8.7 1.5 2.7 2.4 2.6 4 0 .2 0 .4.1.5.8.5 1.1-3.3 2.9-3.4.5 0 .9.3 1.1.8.7 1.6-1.1 5-1.1 5.9 0 .7.4 1.4.9 2 .7 1.2 2.1 2.8 3.1 3.8z" fill="#17183a"/><path d="M106.2 13.5c1 .1 1.8.1 2.6.2.6-1.6 1.5-3 2.6-4.2 2.1-2.1 4.8-3.5 7.7-4.3-8.9-.1-15.9 8.1-12.9 8.3z" fill="#188291"/><path d="M122.3 10c1.8 1.5 4.3 2.1 6.5 1.4 4.7-1.6 5.5-7.9.4-10.6-6.6-3.6-12 5.6-6.9 9.2" fill="#17183a"/><path d="M155.2 229.3c.9-3.4.4-7.6 3-10 .5-.4 1-.7 1.6-1-.6-.5-1.1-1-1.7-1.5-1.2-4.7-2.3-9.4-3.5-14.1-1-4.2-2.1-8.4-3.9-12.3-2.6-5.7-6.8-10.6-8.8-16.6-6.2-17.8 8.3-37.3 3.7-55.6-.8-3.3-2.3-6.4-3.1-9.7-1.4-5.8-.6-11.9.2-17.8 1.1-8.4 3.4-17.2 3.2-25.7-.1-7.7-2.9-15.4-7.9-21.3-1.1-1.3-2.3-2.5-3.7-3.4-4.3-2.8-10-2.4-15-1.1-16.4 4-12.8 10.6-9.8 18.5 8.3 22 5.3 49.4 10.2 71.9 1 4.5.9 9.2 1.3 13.8.5 5.7 1.1 11.3 1.9 17 .7 5.1 1.6 10.2 3.4 15 1.4 3.7 3.3 7.2 5.3 10.6 6.4 11.4 12.7 22.8 19.1 34.2.3.6.6 1.2 1 1.7.9 3.6.8 7.4.3 11.1-.1.5-.1 1-.2 1.5 1.6-1.2 2.8-3.2 3.4-5.2z" fill="#12a3b4"/><path d="M149.9 248.3c.5.5 1.3.5 2 .4 1.1-.1 2.1-.2 3.1-.6 2.9-1 4.7-4 5.8-6.9.5-1.3.8-2.6 1.1-3.9.4-2.2.7-4.5 1.7-6.4.7-1.3 1.7-2.5 1.9-3.9.1-.6 0-1.2-.2-1.8-.6-2-2-3.7-3.6-5.2-.6-.6-1.3-1.1-1.9-1.7-.6.2-1.1.5-1.6 1-2.6 2.4-2.1 6.6-3 10-.5 2.1-1.7 4-3.4 5.3-.6 3.8-1.6 7.6-2.3 11.4-.1.8-.2 1.7.4 2.3z" fill="#1d3458"/><path d="M145.4 59.6c-1-5.8-3.6-11.3-7.4-15.8-1.1-1.3-2.3-2.5-3.7-3.4-1-.6-2-1.1-3.1-1.4-1.4.1-2.7.4-4.1.7-4.3.9-8.7 2.2-11.4 5.7l1.7 8c2.4 13.2 21.5 10 28 6.2z" fill="#17183a"/><path d="M144 82.8c-5.6.6-10.8 3.1-15.5 6.3l14.6-.5c.2-1.9.6-3.9.9-5.8zM160.1 218.2c-1.5-1.8-2.5-3.8-3.1-6.1-.8-3.1-1.6-6.3-2.3-9.4-1-4.2-2.1-8.4-3.9-12.3-2.6-5.7-6.8-10.6-8.8-16.6-3.9-11.2.4-23 3-34.8-4.9-.7-10.4-1.4-16.1-2.2 3.2 13.2-.9 23 2.1 32.2 1.2 3.8 3.6 7.2 5.5 10.8 4.5 8.6 6.1 18.5 10.8 26.9 3.1 5.6 7.7 10.7 8.9 16.9.3-1.7.9-3.3 2.1-4.4.5-.4 1.1-.8 1.8-1z" fill="#1d3458"/><path d="M152.8 241.9c-.5 1.7-.9 3.5-.4 5.2.2.6.4 1 .8 1.5.6-.1 1.3-.2 1.9-.4 2.9-1 4.7-4 5.8-6.9.5-1.3.8-2.6 1.1-3.9.4-2.2.7-4.5 1.7-6.4.7-1.3 1.7-2.5 1.9-3.9.1-.6 0-1.2-.2-1.8-.6-2-2-3.7-3.6-5.2-.6-.5-1.1-1.1-1.7-1.8-.7.2-1.3.6-1.9 1.1-1.3 1.1-1.8 2.7-2.1 4.4.1.6.2 1.1.3 1.7.5 5.5-2 10.9-3.6 16.4z" fill="#17183a"/><path d="M161.9 141.5c.1 0 0 0-.1-.1 0 .1 0 .1.1.1z" fill="#1d3458"/><path d="M145.6 118.3c-.8-3.3-2.3-6.4-3.1-9.7-1.4-5.8-.6-11.9.2-17.8.1-.7.2-1.4.3-2.2l-14.6.5c-.7.4-1.3.9-2 1.4-3.2 2.3-6.3 4.9-8.3 8.2-.8 1.3-1.4 2.8-1.8 4.3.2 2.5.3 4.9.5 7.4l6 12.9c2.9 4.9 4.7 9.5 5.7 13.6 5.7.8 11.2 1.5 16.1 2.2 1.8-7.1 2.7-14.1 1-20.8z" fill="#17183a"/><path d="M163.3 241.6c-.4 4.5-4.2 8.6-12.4 8.4-.7 0-1-1-.9-1.7 0-.7.4-1.3.8-1.9 1.2-1.9 2.6-3.7 3.9-5.5 1.3-1.9 2.4-3.9 2.8-6.1.2-.9.2-1.8.4-2.7.3-1.6 1-3.3 2.2-4.4.9-.9 2.1-1.4 3.3-1.5 3.1-.3 3.3 1.9 2.2 5.5l-.6 2.2s-1 .9-1.7 7.7zM91.5 76.2c-1.9-2.3-2-2.5-2.3-2.8-.8-.8-1.4-.1-1.5.4-.1.6 1.4 2.7 1.7 3.2l2.1-.8z" fill="#047cc0"/><path d="M128.4 139.1c4.2-8.2 3.8-16.4 2.1-25.1-1.8-9.1-1.1-18.4-.5-27.6.7-10.7 1.1-21.8-2.8-31.9-.9-2.3-2-4.6-4.1-5.9-1-.6-2.1-1-3.2-1.3-2.9-.7-6.3-.4-8.9 1.2-2.7 1.7-2.7 4.5-3.9 7.2-2.4 5.1-6.9 10.3-5.9 16.4.5 3 2.3 5.7 3.2 8.6 2.1 6.7-.9 13.7-3 20.4-3.3 10.4-4.5 21.5-3.5 32.4.6 6.5 2 12.9 3.3 19.2 2.1 9.7 5.3 19.7 5.3 29.6 0 10.6 2.6 20.9 5.2 31.1 1.5 5.9 3 11.8 4.4 17.7.5 2.2 1.5 4.7 3.8 5 1.6.2 3-1.1 3.6-2.5.6-1.5.6-3.1.5-4.7-.3-8-.6-16.1-.8-24.1-.1-4.1-.3-8.1-.9-12.1-.5-3-1.2-5.9-1.5-8.8-.6-4.7-.3-9.4 0-14.2.2-3.7.5-7.3.7-11 .2-2.9.4-5.8 1.3-8.5 1.2-4 3.8-7.4 5.6-11.1z" fill="#12a3b4"/><path d="M131.7 113.8c-3.9-19.5 4.1-41.5-3.2-60.4-1.9-4.9-5.9-6.6-11.9-6.5-1.6 3.2-2 7.1-.5 11.2l.3 1.5c4.3 29.2-3.8 44.4-9.1 58.2l25.3 4.6c.1-2.6-.2-5.4-.9-8.6z" fill="#17183a"/><path d="M117.9 237.1c2.4-.3 3.8-3.2 6.1-3.6l-.3-.9c.3-1.2.3-2.5.2-3.7-.3-8-.6-16.1-.8-24.1-.1-4.1-.3-8.1-.9-12.1-.5-3-1.2-5.9-1.5-8.8-.6-4.7-.3-9.4 0-14.2.2-3.7.5-7.3.7-11v-.2c-7.2-2.1-13-3.9-13-3.9l-1.1-.3c.4 1.4.7 2.7 1 4.1 1.2 5.9 1.2 11.9 1.7 17.8 1.6 17.7 6.1 22.9 8.4 51.5-.6.1-1.2.3-1.9.6l-.6.4c-.6 1.6-2 2.8-3.7 3.4-.6.7-1.7 2-1.5 2.7.4 1.2 5.8 2.5 7.2 2.3z" fill="#1d3458"/><path d="M105.8 233.1c-1.7 1.1-2.4 4.2-.5 5.8.9.8 2.1 1.5 3.3 1.9 2 .7 4.2.6 6.2 1.3 1.8.6 3.8 2.1 6.3 2 1.4-.1 2.8-.7 3.5-2 .5-.9.5-2 .5-3-.1-1.9-.5-3.8-1.1-5.6-2.3.5-3.7 3.3-6.1 3.6-1.4.2-6.9-1.1-7.1-2.4-.1-.7.9-2 1.5-2.7-.3.1-.5.2-.8.2-1.9.4-4-.2-5.7.9zM122.7 150.1c-.9 2.7-1.1 5.5-1.2 8.3 11.9 3.5 27.6 8.1 27.5 7.8-.1-.5-2.5-41.4-2.5-41.4l-13.7-2.5c.6 15.4-7.5 19.8-10.1 27.8z" fill="#17183a"/><path d="M121.5 158.5c.2-2.8.4-5.7 1.2-8.3 2.6-8 10.7-12.4 10.1-27.8l-25.3-4.6c-2.8 7.2-4.7 14-3.8 22.2.6 4.9 2.3 9.5 3.7 14.3l1.1.3c-.1 0 5.7 1.7 13 3.9z" fill="#17183a"/><path d="M85.2 67.5l13.6 22.6c.4.7 1.4.9 2 .3l9.7-8c.4-.3.5-.9.2-1.3L95.8 56.5c-.3-.6-1.1-.7-1.6-.2l-8.7 9.3c-.6.5-.7 1.3-.3 1.9z" fill="#c2dbf4"/><ellipse transform="rotate(-30 96.4107 73.9483)" cx="96.4" cy="73.9" rx=".9" ry="1.2" fill="#fff"/><g><path d="M90.7 83.7c-1-1.6-2-3.3-2.8-5-.8-1.6 1.3-3.4 2.2-3.6.7-.1 2.3.3 3 1.1.6.7 1.4 3.4 1.5 4.2.1 1.4-.8 3.7-1.5 4.1-.4.3-1.5.9-2.4-.8" fill="#047cc0"/></g><path d="M124.1 102.7c1.7.5 2.4-2.1.7-2.6-8.1-2.4-14.8-7.5-19.4-14.6-.1-.2-.2-.3-.3-.4 0 1.4-.1 2.8-.3 4.2 4.8 6.4 11.5 11.1 19.3 13.4z" fill="#1d364d"/><g><path d="M121.7 62.5c0 1.4.4 37.3 1 38.6.2.5.7.8 1.1 1.1 5 3.5 6.5 3.8 11.7 3.5 17-1.2 17.1-1.4 17.5-5 1.2-12.6 1.1-25.4-.3-38-.4-4-1.2-8.6-5.2-10.4-3.8-1.7-21.6-.9-24.3 2.9-.8 1.2-.8 2.8-1.5 7.3z" fill="#1d364d"/></g><g opacity=".34"><path d="M147.6 52.3c-3.8-1.7-21.6-.9-24.3 2.9-.8 1.2-.9 2.9-1.6 7.4 0 1.4.4 37.3 1 38.6.2.5.7.8 1.1 1.1 3 2.1 4.7 3.1 6.8 3.4-.6-.3-1.2-.9-1.5-1.6-1.6-3.6-.8-35.1-.7-39 .2-4.9 1.4-6.2 5.5-6.9 2.5-.4 15-2.1 17-.6.3.3.9 1.1 1.5 2.7-.5-3.4-1.7-6.6-4.8-8z" fill="#12a3b4"/></g><path d="M131.9 58.1c.9 1.5 3.3.1 2.4-1.4-4.3-6.7-11.2-14.5-19.4-16.1-2.1.8-3.7 1.6-4.8 2.5.2 0 .3.1.5 0 8.9-1.2 17 8.4 21.3 15z" fill="#1d364d"/><g><path d="M98.7 86c-5-1.8-6-1.4-7.1 3.3-.7 3-.4 4.6 3.9 6.5.5.2.8.3 1.3.3 1.1-.1 2.8-1.2 2.4-2.1-.1-.2-.3-.4-.4-.6-.5-1.3 2.5-2.7 1.2-5.5-.2-.4-.5-.9-.9-1.1" fill="#047cc0"/></g><g opacity=".35"><path d="M95.9 90.8c-.5.9-.5 3.1-.4 4.9.5.2.8.3 1.3.3 1.1-.1 2.8-1.2 2.4-2.1-.1-.2-.3-.4-.4-.6-.4-1 1.2-2.1 1.5-3.7-3.3.1-3.9.3-4.4 1.2z" fill="#17183a"/></g><g><path d="M111.1 42.8c-3.6.9-4.9 4.8-4.7 8.9.1 2.7.3 3.2 5.6 31-4.3 1.7-9 2.8-13.7 3.1-.8 0-1.7.1-2.3.7-1.1 1.2-.3 4.1 3.2 5.2 3.2 1 12.9.3 16.3-.1 6.4-.7 7.9-2.8 8.3-8.1.7-10.6.2-21.5-3.5-31.4-1.4-3.8-4.5-10-8.4-9.3" fill="#047cc0"/></g><g opacity=".35"><path d="M116.2 44.5c-.4.4-.7.8-.9 1.2-.6 1.1-.8 2.3-1 3.5-.8 5.9.5 11.8 2.1 17.6.8 2.8 1.7 5.7 2.4 8.5.6 2.4 2 5.7 1.7 8.2-.5 4-3.3 5.7-7.1 5.8-12 .3-15.4.1-16.7.8.6.6 1.5 1.2 2.6 1.6 3.2 1 12.9.3 16.3-.1 6.4-.7 7.9-2.8 8.3-8.1.7-10.6.2-21.5-3.5-31.4-.9-2.4-2.3-5.5-4.2-7.6z" fill="#17183a"/></g><g><path d="M143.5 72.6l-5.9 2.2c-.6.2-1.3-.1-1.5-.7l-2.2-5.9c-.2-.6.1-1.3.7-1.5l5.9-2.2c.6-.2 1.3.1 1.5.7l2.2 5.9c.3.6 0 1.3-.7 1.5z" fill="#188291"/><g fill="#17183a"><path d="M136.5 70.2c.3-.9 1-1.7 2-2.1 1-.4 2-.3 2.8.2l.2-.4c-.9-.8-2.2-1.1-3.3-.7-1.1.4-1.9 1.5-2.1 2.7l.4.3z"/><path d="M138.8 68.9c-1.2.4-1.9 1.5-2.1 2.6.9.7 2.2 1 3.3.6 1.2-.4 1.9-1.5 2.1-2.6-.9-.8-2.2-1.1-3.3-.6zm1 2.8c-.7.3-1.4-.1-1.7-.8-.3-.7.1-1.4.8-1.7s1.4.1 1.7.8c.2.7-.1 1.5-.8 1.7z"/><circle cx="139.3" cy="70.5" r=".7"/></g></g><g><path d="M149.3 86.1l-6.3-.5c-.7-.1-1.2-.6-1.1-1.3l.5-6.3c.1-.7.6-1.2 1.3-1.1l6.3.5c.7.1 1.2.6 1.1 1.3l-.5 6.3c-.1.7-.7 1.2-1.3 1.1z" fill="#188291"/><g fill="#17183a"><circle cx="146" cy="79.6" r=".5"/><circle cx="147.3" cy="79.7" r=".5"/><circle cx="143.8" cy="82.1" r=".9"/><path d="M143.5 81.3l1.9-.8-.9 2.1z"/><circle cx="149" cy="82.5" r=".9"/><path d="M149.4 81.8l-1.7-1.1.5 2.2zM145.3976 81.7494l.0465-.5982 2.1934.1704-.0465.5982zM145.3133 82.862l.0465-.5982 2.1934.1704-.0465.5982zM145.4 83.4c.2.3.5.6.9.6s.8-.2 1-.5l-1.9-.1zM147.5 80.8c-.1-.3-.5-.6-.9-.6s-.8.2-1 .5l1.9.1z"/></g></g><g><path d="M144.4 98.8l-6.7.5c-.7 0-1.3-.5-1.4-1.2l-.5-6.7c0-.7.5-1.3 1.2-1.4l6.7-.5c.7 0 1.3.5 1.4 1.2l.5 6.7c.1.8-.5 1.4-1.2 1.4z" fill="#188291"/><g fill="#17183a"><path d="M141.4 96.2h-.8l.1.4h.6zM138.3962 95.65l1.297-.0888.0274.399-1.297.0889zM142.1967 96.1726l2.0952-.1435.0273.3991-2.0951.1435zM142.0932 95.3507l1.297-.0888.0274.3991-1.297.0888zM137.5961 96.4788l2.195-.1503.0273.3991-2.195.1503zM139.9 94.7l.2.4 1.6-.1.1-.4zM143.9 91.7v-.5l-1.9.1-.5.1-.1.4zM141.5 95.8l.1-.4-1.4.1.2.4zM138.3952 94.8462l1.297-.0888.0273.3991-1.297.0888zM142.0922 94.547l1.297-.0888.0273.399-1.297.0889zM138.3 94v.4l1.3-.1v-.2l.1.2 2.3-.1v-.3.3l1.4-.1-.1-.4zM137.6945 97.2758l2.195-.1502.0341.4988-2.195.1503zM142.1885 96.8768l2.0951-.1435.0342.4989-2.0952.1434zM139.9 91.9l-.3-.4-2.3.2v.4zM140.9 97l.2.4.1-.4zM141.3 92.2l-.2.4 2.9-.1v-.4zM140.7 93.5l-.2-.4-2.3.1.1.4zM140.1 92.3l-2.8.2v.4l3-.2zM141 93.1l-.1.4 2.4-.2v-.4z"/></g></g><ellipse cx="107" cy="22.8" rx="1.1" ry="2.5" fill="none" stroke="#d1f0f7" stroke-width=".3639" stroke-miterlimit="10"/><path fill="none" stroke="#d1f0f7" stroke-width=".3639" stroke-linecap="round" stroke-miterlimit="10" d="M107.8 21.3l13-.3"/><g><path d="M116.4 234.3c.8-.2 1.5-.6 1.9-1.3.4-.8.3-4.9.2-5.8h-.1v.5c-.6.1-1.4-.3-2.1 0l-.6 1c-.6 1.6-1.8 2.9-3.5 3.4-.5.5-1.3 1.6-1.5 2.3 2 .1 4 .3 5.7-.1z" fill="#12a3b4"/><path d="M105.8 233.1c-1.4.9-2.1 3.2-1.2 4.9.3-.8.3-1.8.8-2.6.9-1.3 3.1-1.2 5.5-1 .2-.7 1-1.8 1.5-2.3-.3.1-.5.2-.8.2-2 .3-4.1-.3-5.8.8z" fill="#1d3458"/></g></svg>