<svg xmlns="http://www.w3.org/2000/svg" viewBox="0 0 250 250"><path d="M144.9 231.3c9.5 3.4 9.9 3.4 10.9 4.3 1.8 1.5 1.6 3.8-.9 4.8-2.7 1.1-2-.2-7.3 3.2-1.4.9-2.9 1.8-4.6 2-1.7.2-3.6-.3-4.5-1.7-.8-1.2-.8-2.8-.7-4.2.2-6.1.1-7.2.9-8.3 1.5-1.9 4.1-.9 6.2.2" fill="#19273c"/><path d="M171.8 119.8c.1 1.2.7 2.3 1.3 3.4 1 1.8 3.8 7.3 4 8.8.2 1.1-.6 3.8-.9 4.8-2.2 5.8-8.5 7.9-8.7 4.7-.1-1.1 1.1-2 1-3 0-1.5-2.9-5.1-2.9-8.3 0-1.4.5-2.7.8-4 .8-3.6 0-5.5.1-7.2 0-.8.3-1.6.8-2.2 1.4-1.4 3.8-.4 3.8 1.6" fill="#1d3458"/><path d="M173.1 123.2c-.6-1.1-1.2-2.2-1.3-3.4l-.7-1.3c0-1.3-1.1-2.2-2.3-2.2.7 5 .8 7.1 2 10.6.9 2.6 2.1 5.1 2.6 7.8.3 2 .2 4.2 0 6.3 1.1-1 2.1-2.4 2.7-4.1.4-1 1.1-3.7.9-4.8-.2-1.6-3-7.2-3.9-8.9z" fill="#00b6cb" opacity=".56"/><path d="M117.3 36.6c.5 0 .9 0 1.4-.1.7-.1 1.3-.3 1.9-.5 3.2-1.2 6.3-2.9 8.9-5.1.5-.4 1-.9 1.3-1.4.5-.9.7-1 1.6-1 .6 0 1.3-.2 1.9-.4.8-.3 1.6-.7 1.9-1.5.9-1.9.2-4.8.1-6.8-.3-6.1-.7-7.7-2.9-12.6-.7-1.6-1.5-3.3-2.9-4.5C127.9.4 121-.6 117.8.4c-2.9.9-5 3.5-6.1 6.3-1.6 4.3-.4 7.8 1.6 12 2.7 5.7 5.7 11.7 4 17.9" fill="#1d3458"/><path d="M133.6 7.2c-.7-1.6-1.5-3.3-2.9-4.5-1.1-1-3-1.7-5-2.2 1.6.9 3.4 2.5 4 3.5 2 3 1.1 7.1 2.8 10.3 1.7 3.3.9 1 1.6 5.7.3 1.9 2 5.2.1 7-1.4 1.3-2.4 1.5-2.5 1.7.2-.1.4-.1.9-.2.6 0 1.3-.2 1.9-.4.8-.3 1.6-.7 1.9-1.5.9-1.9.2-4.8.1-6.8-.4-6.2-.8-7.8-2.9-12.6z" fill="#00b6cb"/><path d="M132.6 34.8c-.9-3.9-1.4-7.9-1.6-12-.1-2.3-.1-4.8-1.4-6.8-.4-.7-1-1.2-1.6-1.7-2-1.7-4.7-3-7.2-2.4v24.5l11.8-1.6z" fill="#1d3458"/><path d="M130.7 2.7C128.1.4 121.2-.6 118 .4c-2.9.9-5 3.5-6.1 6.3-1.6 4.3-.4 7.8 1.6 12 1.1 2.4 2.3 4.9 3.2 7.5 5-.8 9.8-1.6 10.2-8.1 0-.3 0-.5-.1-.8-.2-.5-3-2.4-2.1-5.2.6-1.6 2.6-1.9 2.9 1.3.3-.2.7-.3 1.1-.4-.1-3.8-1.9-2.7 1.5-5.4-.8-2.6-1-1.8 1.1-4.3l-.6-.6zM109.2 63.9c-2.9 7.8-5.7 15.5-8.6 23.3-6.2 16.7-5.8 18.6-7.1 29.6-.5 4.7-.7 12.5-1.7 17.1-.7 3.2-6 3.9-6.8 2.5-.8-1.3 1.1-5.4.6-25.2-.4-17.5 2.6-27.2 8.3-46.8 1.5-5.2 3.1-10.5 6.2-15 .6-.9 1.4-1.9 2.4-2.3 1.4-.6 3-.2 4.2.7 1.2.9 2 2.3 2.5 3.7 1.5 3.8 1.6 8.2.3 12.1" fill="#19273c"/><path d="M109.5 63.5c.6-1.8 1-3.7 1-5.6-10.5 12.3-17.3 27.8-19 43.9-.6 5-.6 8.2-1.3 29.9-.1 1.9 0 3 .5 4 .6-.5 1.1-1.1 1.3-1.9 1-4.6 1.2-12.4 1.7-17.1 1.2-11 .9-12.9 7.1-29.6 2.9-7.8 5.7-15.5 8.6-23.3l.1-.3z" fill="#188291"/><path d="M85.1 134.6c-.9 2-.7 4.3.1 6.4 1 2.7 3.9 6.7 5 7.6 2 1.6 5.2 1.8 8-.2 4.2-2.9-.9-4.2-5.2-11.1-.4-.7-.8-1.3-1.3-1.9-1.8-2.2-5.2-3.6-6.3-1.4" fill="#19273c"/><path d="M95.4 141.4s6.3 1.7 7.6 10.1" fill="none" stroke="#19273c" stroke-width="2.123" stroke-miterlimit="10"/><path d="M106.9 113.2c4.7 20.8 10.4 39.3 17.2 59.6 1.4 4.3 2.9 8.5 4.1 12.8 4.2 15 5.2 30.6 8.8 45.7.7 2.8 2.1 6.2 5 6.4 1.9.1 3.6-1.4 4.4-3.2.7-1.8.7-3.8.7-5.7l-.3-11.1c-.7-22-3.3-70.2-10.2-90.9-1.5-4.6-3.6-9.2-6.9-12.7-3.3-3.5-11.2-8.5-15.9-8.3-2.3.1-4.7 1.6-5.2 3.8" fill="#19273c"/><path d="M147 228.9l-.3-11.1c-.4-12.8-1.4-34.5-3.6-54.5l-5.9 3.9c5.6 57.6 5.8 67.8 7.3 69.7.8-.6 1.4-1.4 1.8-2.3.8-1.8.8-3.8.7-5.7z" fill="#188291"/><path d="M144.9 231.3l-.1.2c-.5-.3-1-.5-1.5-.7.9 7.5 1.4 6.3 3.3 6.7 5.2 1.1 8 1.7 9.7 2 1.1-1.1.9-2.7-.4-3.9-1.1-.9-1.5-.9-11-4.3z" fill="#188291"/><path d="M107.6 115.7c1.6 4.6 4.9 8.6 9.1 11.1 3.3 2 7.4 3.3 9 6.8.5 1.2.7 2.5.9 3.8 1.2 9.7 2.3 19.4 3.5 29.1.9 7.5.9 16 8.8 19.7 1 .5 2.1.8 3.2.9 2 0 3.9-1 5.3-2.4 4.7-4.6 5.2-11.6 6-17.8.9-6.7 1.3-13.5 1.5-20.3.2-10.1-.3-20.1-.9-30.2-14.4 15.5-35.9 5.7-46.4-.7z" fill="#1d3458"/><path d="M147.7 121.5c-.2 7.5-1 14.9-.5 22.4.5 7.5 2.3 15 1.6 22.5-.7 7.6-3.6 14.3-7.6 20.6.3.1.6.1.9.1 2 0 3.9-1 5.3-2.4 4.7-4.6 5.2-11.6 6-17.8.9-6.7 1.3-13.5 1.5-20.3.2-10.1-.3-20.1-.9-30.2-2 2.2-4.1 3.9-6.3 5.1z" fill="#12a3b4"/><path d="M153.7 66.4c.6-6.6 4.3-13.5 1.5-19.5-3.4-7.3-17-13.9-24.8-15.3-9-1.6-21.4 7-27.2 13-1.1 1.1-2.2 2.3-2.7 3.8-.7 1.7-.7 3.6-.6 5.4.7 15.7 7.7 30.7 7.1 46.4-.1 3.6-.7 7.3-.3 10.9.2 1.6.5 3.2 1.1 4.7 10.5 6.4 32 16.2 46.4.8-1.1-16.8-2.1-33.5-.5-50.2z" fill="#19273c"/><path d="M147.5 111.4c.3 3.4.2 6.7.1 10.1 2.2-1.2 4.4-2.9 6.3-5-.9-16.7-1.9-33.4-.3-50.1.6-6 3.6-12.3 2.1-18l-3.2-2c-15.9 36.9-6.9 39.4-5 65z" fill="#188291"/><path d="M130.3 31.6c-1.4-.3-3-.2-4.6 0 26 8.8 22.2 21.1 26.1 29.4.7 1.5 1.4 2.6 2 3.6 1-6 3.8-12.3 1.2-17.7-3.3-7.3-16.8-13.9-24.7-15.3z" fill="#188291"/><path d="M146.2 187.5c-8.3 10.7-17.2 20.8-26.2 31-10.4 11.8-11.4 11-14 9.5-.9-.5-1.8-1.1-1.9-2.1 0-.5.1-.9.3-1.4 5.7-15.4 13.6-30.1 24.6-42.3 4.1-4.6 9-8.9 15.2-8.7 2.1.1 6.5 1.5 7.1 3.5.7 2.4-4 8.4-5.1 10.5" fill="#1d3458"/><path d="M151.3 177.1c-.4-1.2-2.2-2.2-4-2.8-5.3 17.7-21.7 31.1-32.9 44.8-2.8 3.4-4.8 6.7-6.1 9.8 1.8 0 4.5-2.1 11.8-10.4 9-10.1 17.9-20.3 26.2-31 1-2.1 5.7-8.1 5-10.4z" fill="#12a3b4"/><path d="M156.2 49c6.9 21.5 16.7 40.8 15.7 77.2 0 .7-.1 1.6-.7 2-4.9 4-6.9-23.5-16.3-41.4-3.3-6.2-7.6-11.9-10.3-18.4-6.9-16.5 2.5-27.4 8.4-24.1 1.7.9 2.6 2.9 3.2 4.7z" fill="#19273c"/><path d="M170.8 126.8c.2.5.3.9.5 1.4.6-.5.6-1.3.6-2 1-36.4-8.8-55.7-15.7-77.2-.7-1.8-1.5-3.7-3.2-4.7-2-1.1-4.4-.5-6.4 1.3 3.3 5.5 3.2 11 5.2 15.4 3.9 8.5 7.5 6.1 11.2 23.5 7.3 34.1 5.4 35 7.8 42.3z" fill="#188291"/><path d="M111.1 227c-4 17-.7 23.1-4 23-3.1 0-5.3-9.2-5.7-12.5-.9-8-4.7-11.6 1.1-15.6 4.2-2.9 7.5-1.6 8.5.5.6 1.2.4 2.6.2 3.9" fill="#1d3458"/><g><path d="M107.1 250c3.3 0 0-6.1 4-23l.1-.7c.1-1 .3-2.1.1-3.1-7.9 12.1-6.3 22.2-4.2 26.8z" fill="#12a3b4"/></g><g><path d="M93 134.4l3.3 3c.6.5 1.1 1 1.5 1.7.4.7.5 1.6.6 2.4.2 1.7.1 3.5-.1 5.2 0 .2-.1.4-.3.4-.1 0-.2-.1-.3-.1-.9-.8-1.3-2-1.8-3.2-.5-1.1-1.1-2.3-2.2-2.8-1.5-.8-3.5-.2-4.9-1-.4-.2-.8-.6-1.1-1-.7-.9-1.1-1.9-1-3s.7-2.1 1.7-2.6c1.3-.6 2.8 0 4.2.6" fill="#1d3458"/></g><g><path d="M97.8 139.1c-.4-.7-.9-1.2-1.5-1.7l-3.3-3-.4-.5c-.8-.4-1.7-.7-2.6-.8 0 2.9 1.8 2.2 3.6 4.4 1.9 2.2 3.3 4.6 4.8 6.9 0-1 0-2-.1-2.9 0-.8-.1-1.7-.5-2.4z" fill="#188291"/></g><g><path d="M130.7 2.7c-1.1-1-3-1.7-5-2.2 1.6.9 3.4 2.5 4 3.5.2.2.3.5.4.7.3-.3.7-.8 1.2-1.4l-.6-.6z" fill="#1d3458"/></g><path d="M77.2 149.7l40.1 1.3c1.4 0 2.5 1.3 2.3 2.7l-3 21.9c-.2 1.1-1.1 2-2.3 2.1l-38.9 1.9c-1.4.1-2.6-1.1-2.5-2.6l1.8-25.1c.2-1.2 1.3-2.2 2.5-2.2z" fill="#19273c"/><path d="M90.8 143s-2.2 3.7-1.5 11.1" fill="none" stroke="#19273c" stroke-width="2.123" stroke-miterlimit="10"/></svg>