<svg xmlns="http://www.w3.org/2000/svg" viewBox="0 0 1000 500"><path d="M-1561.6 3659.1c.9 8.2 6.5 15 10.6 22.2 9.7 17.1 11.6 37.3 12.8 56.9 1.2 19.6 2 39.7 9.8 57.7.6 1.4 1.4 3 2.9 3.4 2.5.8 4.6-2.2 5.3-4.7.8-3 .9-6.1 1.1-9.1 3.5-72.5 5.2-76.5-6.1-146.2-.2-1.2-.4-2.5-1.2-3.5-.8-1.1-2.1-1.7-3.4-2.1-14.5-4.6-30.3 6.9-31.2 24.7" fill="#5392ff" opacity=".64"/><path d="M-1520 3787.7c2.9 5.9 3 6.7 7.3 9.6 13.2 8.8 17.8 8.3 17.2 11.2-.6 3.1-8.5 2.8-11.6 2.5-2.2-.2-4.4-.5-6.7-.6-4.2-.2-8.5.5-12.6-.3-2.8-.6-3.4-1.8-3.5-3.5-.2-3.3-.2-6.6 0-9.9.5-6 2.3-7.8 7.7-9.5M-1565.3 3788.5c-.6 6-.7 12-.2 18 .1 1.8.5 2.7 2.8 3.3 2.6.7 7.2 1.1 9.3-.5 1-.7 1.6-1.9 2.5-2.7 2.3-2.3 6.5-2.8 6.3-6.9-.1-2.4-1.5-3.4-3.8-4-4.9-1.2-6.5.5-7.8-2.7-.5-1.2-.9-5-4-6.2-1.6-.6-3.6-.1-4.5 1.3M-1405.2 3832.4c8.9 40.2 0 81.3 2.8 121.9 2.7 38.4 15.3 75.3 17.4 113.8.5 9.7.4 19.4-.8 29.1-.4 3.3-.9 7-4.3 8.7-2.4 1.3-6.7-.1-8.9-1.3-4.4-2.3-7.4-6.5-9.5-10.9-4.2-9.2-6.1-19.7-8.7-29.4-2.6-9.8-5.1-19.6-7.6-29.5-9.8-39.7-18.3-79.8-26.6-119.9-4.5-21.6-11.7-46-2.4-67.3 4-9.2 10.9-17.7 19.8-22.5 9.5-5.1 22.6-4.5 27.9 6.2.8 1.7 3.4.2 2.6-1.5-7.7-15.8-27.7-12-38.8-2.6-15.1 12.7-20.1 32-18.6 51.1.9 10.7 3.2 21.2 5.4 31.6 2.4 11.5 4.8 23.1 7.2 34.6 4.9 23.1 9.9 46.1 15.3 69.1 5.3 22.6 11 45.2 17.3 67.6 2.4 8.4 4.6 17.9 11.7 23.7 4.6 3.8 13.6 7 18.3 1.6 2-2.3 2.2-5.5 2.6-8.4.7-5.4 1.1-10.9 1.2-16.4.2-10.9-.7-21.9-2.1-32.7-2.9-21.5-7.9-42.7-11.6-64-4.4-25.6-4.9-50.8-3.8-76.7 1.2-25.6 2.4-51.4-3.1-76.6-.2-2-3.1-1.2-2.7.7zM-984.1 3732.2c6.5 68.1 18.9 135.7 37.1 201.6 1.9 6.9 5.2 15 12.3 16 5.6.8 10.8-3.8 12.7-9.1 1.9-5.3 1.3-11.2.7-16.8-7.4-63.8-18.4-127.8-13.4-191.8.7-8.9 1.7-17.8 1.6-26.7-.3-17.2-4.9-33.9-9.5-50.5-.8-2.8-1.6-5.6-3.4-7.9-3.3-4.2-9.5-5.3-14.6-3.7-5.1 1.6-9.2 5.4-12.4 9.7-7.5 10.2-10.4 23-11.9 35.5-1.7 14.2-1.7 28.5-.1 42.7M-1085.8 3921.5c-3.2 4.1-9.1 5.1-14.1 4.1-5.1-1-9.7-3.6-14.5-5.5-1.5-.6-3.5-1.1-4.7.1-.6.6-.8 1.5-.9 2.3-1 8.3 5.1 16 12.1 20.6s15.2 7.2 22.2 11.7c2.5 1.6 4.8 3.4 7.5 4.5 2.7 1 6.1 1.1 8.4-.7 3.2-2.5 3.2-7.1 3.6-11.1.3-3.2 1-6.4 2-9.5 1.1-3.1 2.6-6.3 2-9.6-.4-2.4-2-4.5-3.7-6.2-2.3-2.2-5.1-4-8.3-4.6-3.2-.6-6.6.3-8.8 2.6" fill="#5392ff" opacity=".64"/><path d="M-940.7 3945c-5.3 6.3-13.1 10.3-21.3 11.1-4 .4-8.1.1-11.7 1.8-.9.5-1.9 1.1-2.3 2-1 2 .5 4.5 2.3 5.9 4.6 3.7 10.8 4.5 16.7 4.3 5.9-.1 11.8-1.1 17.6-.2 4.3.7 8.4 2.3 12.7 2.5 4.3.2 9.2-1.4 11-5.3 1.3-2.8.8-6 .2-9.1-1.1-5.7-2.1-11.4-3.2-17.2-.3-1.5-.6-3.1-1.6-4.3-1.5-1.7-4-2.2-6.2-1.6-2.2.5-4.1 1.8-6 3.1-3.1 2.1-6.1 4.2-9.2 6.4M-1020 3663.9c-5.6 2.3-9.4 7-10.1 9.8-1.1 4.4 2 21 4.7 21.3.5.1 1.1-.3 1.4-.7 1.3-1.4 1.6-3.5 2.6-5.2 1.6-2.5 7.7-5.4 8.6-13.3.8-7-4.2-12.3-6.4-11.7" fill="#5392ff" opacity=".64"/><path d="M507 284.5c-.5 1.8.6 3.8-.2 5.4-.3.7-1 1.3-1.7 1.7-.6.4-1.3.7-1.8.3-.2-.1-.3-.3-.4-.5-.5-.9-.8-2-.7-3 .1-1.3.6-2.6.8-3.9.2-1.1.1-2.2.8-3 .6-.6 1.6-.8 2.3-.3.5.4.8 1 .8 1.6s0 1.2-.1 1.8" fill="#19273c"/><path d="M507 284.5h-.1c.1-.6.2-1.2.1-1.8-.1-.6-.3-1.2-.8-1.6 0 0-.1 0-.1-.1-.3 2.2-.6 4.3-.5 6.5.1 1.2.2 2.4.2 3.5.4-.4.8-.8 1.1-1.3.7-1.4-.4-3.4.1-5.2z" fill="#188291" opacity=".45"/><path d="M514 274.7c-1.3-4.2-3-8.2-5.1-12.1-.4-.8-.9-1.6-1.2-2.5-.2-.9-.3-1.8-.2-2.7.2-5.4 2.6-10.8 1.5-16.1-.2-1.1-.6-2.2-1.3-3.2-1.7-2.5-5-4.2-7.9-3.6-.1 6-.3 13-.2 18.9.1 7.5 0 8.4 12.2 23.9.6 1.5.6 3.2-.1 4.6-.3.6-.8 1.2-1.1 1.9-.3.7-.3 1.5.1 2.1.5.6 1.3.7 2 .6.6-.1 1.2-.2 1.6-.7.2-.2.3-.5.4-.8 2.4-7.3 2.3-6.1-.7-10.3z" fill="#19273c"/><path d="M515.7 282.1c1.3-4.1.8-3.8-1.7-7.4-1.3-4.2-3-8.2-5.1-12.1-.4-.8-.9-1.6-1.2-2.5-.2-.9-.3-1.8-.2-2.7.2-5.4 2.6-10.8 1.5-16.1-.1-.5-.3-1.1-.4-1.6l-1.8-.7c-3.8 13.8-4 14.1-4 15.8.1 5.4 5 7.9 9 17.6.6 1.5 1.2 3 1.9 4.5 1.4 2.7 1.8 3.1 2 5.2z" fill="#17616b"/><path d="M500.6 203.1c0 .4-.2.8-.6 1-.2.1-.5.1-.7.2-.6.3-.7 1.1-.5 1.7.4 1.8.8 2-1.6 4-.4.4-.8.4-1.1-.1-.5-.9.4-1.9.7-2.7.2-.8 0-1.6.3-2.3.4-.7 1.1-1.1 3.2-2.3.1-.1.3-.1.4 0" fill="#19273c"/><path d="M498.9 208.1c.4-.4 2.1-2.7 1.6-2.9-.9.5-2.5 2-2.4 2.1 0 0 .1 0 0 0" fill="#19273c"/><path d="M497 209.6c-1.5 4.4-2.4 9.1-4.3 13.4-.4 1-.8 1.5-2.1 1.5-1.9 0-1.5-2.8-.7-4.4.5-1 1.1-1.8 1.6-2.8 1.6-2.6 2.8-5.5 4.3-8.1.1-.2.4-.5.6-.5.3 0 .5.4.6.7" fill="#1d3458"/><path d="M501.6 210.8c-1.6 1.2-8.5 6.7-9.7 8.7-1.1 1.8-1.9 5.5-.1 4.7 1-.4 8.2-4.7 10-7.7 1-1.6.8-4-.2-5.7" fill="#1d3458"/><path d="M490 222.9c-.3 0-.6-.2-.7-.5-.1 1.1.2 2.1 1.3 2.1.6 0 1-.1 1.3-.3 1.5-.7 8.1-4.8 9.8-7.6.5-.8.7-1.7.7-2.6-5 3.5-10.8 9-12.4 8.9z" fill="#17616b"/><path d="M501.3 238.5c1.6 1.5 4.4 1.6 5.4 3.5.6 1.3.2 2.8-.2 4.2-1.4 4.4-2.6 8.8-3.6 13.3-.3 1.4-.5 3.1.6 3.9.4.3 1 .4 1.5.4 1.8-.1 3.2-1.5 4.2-2.9 4-5.1 6.3-11.3 7.9-17.6.2-.7.3-1.3.5-2-11.6-.5-16.4-4.3-17.7-5.5.2 1.1.6 2 1.4 2.7z" fill="#19273c"/><path d="M517.1 232.3c-.8-3.2-1.5-6.4-1.9-9.7-.2-1.7-.3-3.3-.3-5 0-2.1 3.2-4 2.7-5.4-.9-2.2-7.4-2.4-11-2.4-1.5 0-4.5.1-5.4 1.4-.7 1-1.2 2.4-1.6 3.5-1 2.5-1.7 5.3-.9 8 .4 1.4 1.2 2.6 1.5 4 .4 2-.1 4.1-.4 6.1-.1 1-.2 2.1 0 3.1 1.3 1.2 6.1 5 17.7 5.5.3-1.5.5-2.9.4-4.4 0-1.6-.4-3.2-.8-4.7z" fill="#1d3458"/><path d="M515.4 213.3c.4.4.8.9 1 1.4.8-1 1.5-1.9 1.2-2.6-.8-1.8-5.4-2.3-9-2.4 0 .2.1.3.2.5.6.7 1.9.9 2.8 1.2 1.3.6 2.7 1 3.8 1.9zM517.1 243.4c.5-2.1 1-4.2.9-6.4-.1-1.6-.5-3.2-.9-4.7-.8-3.2-1.5-6.4-1.9-9.7-.1-.9-.2-1.8-.2-2.6-1.1 4.3-1.8 8.6-.8 12.9.7 3 1.6 4.1 1.1 8.3-1.4 11.3-7.3 14.7-8.5 21.6 0 .2 0 .4-.1.6 1-.6 1.8-1.5 2.6-2.4 3.9-5.2 6.2-11.4 7.8-17.6z" fill="#17616b"/><path d="M508.6 261.1c1.9 8.2 0 16.7-1.9 24.9-.2.8-.5 1.8-1.3 2-.7.2-1.4-.3-1.7-.9-.3-.6-.4-1.3-.4-2-.1-5 .6-10 .1-14.9-.2-2-.6-3.9-.7-5.9-.1-1.2-.1-2.5.4-3.6s1.7-2 2.9-1.8c1.2.2 2 1.3 2.6 2.3" fill="#19273c"/><path d="M508.6 261.1l-.1.1c-.3-.5-.6-.9-.9-1.3-.4.9-.6 1.9-.8 2.9-.5 3.2.2 6.5.3 9.7 0 5.1-1.8 10.1-1.5 15.2v.2c.7-.3 1-1.2 1.2-1.9 1.8-8.2 3.7-16.7 1.8-24.9z" fill="#17616b"/><path d="M523.8 242.6v.1c0-.1-.8-1.9-.8-1.9-.5-4.9-3.1-9.4-3.7-14.3-.1-1-.2-2.1-.2-3.1-.4-8.2-.2-10.5-2-11.9-.6-.4-1.6-.3-2.1.3-1.4 1.8-.5 10-.2 12.3.1 1.1.3 2.2.5 3.3.7 3.2 2.1 6.3 3.4 9.3.6 1.3 1.2 2.5 2 3.7.3.4.4.9.4 1.3-.1 1-1.1 3.3-.5 3.8.6.5 1.9-1.4 1.3 1-.4 1.5.6 2 1.3 1.2 1.2-1.4 1.5-3.5.6-5.1z" fill="#1d3458"/><path d="M509 204.8c-.5 1.3-1.9 3.9-3.4 3.8-2.5 0-4.1-5.4-4.2-8.1-.1-2.4.6-3.5 1.7-4.3 3.2-2.3 6.9.3 7 4.2 0 1.5-.4 3.2-1.1 4.4" fill="#19273c"/><path d="M506.8 195.6c1.2 1 2.3 3.2 2.2 5.4-.1 2.2-.4 1.5 0 4 0-.1.1-.1.1-.2.7-1.2 1.1-2.9 1.1-4.3-.2-2.5-1.6-4.4-3.4-4.9z" fill="#188291" opacity=".45"/><path d="M509.8 201.4c-.4 3.2.7 6.3 1.4 9.4.1.5.1.9-.3 1.3-.7.8-2 .9-3.1.9-1.9 0-2.2-.7-2.2-1.8-.1-3.6-2.7-8.2 1.3-10.2 1.2-.6 2.3-.4 2.8.1" fill="#19273c"/><g><path d="M509.8 201.4l-.1-.4c-.2-.2-.4-.3-.8-.4v.3c-.1 3-.6.6.6 8.3.2 1.1.4 1.5 1.6 2 0-.2 0-.3-.1-.5-.5-3-1.6-6.1-1.2-9.3z" fill="#17616b"/></g><g><path d="M506.1 195.7c-1.5-3.2 4-5 5-1.5.4 1.6-1.2 3.2-3 2.6l-2-1.1z" fill="#2d74da"/></g><g><path d="M509.2 203.7c.1.3.4.7.8.6-.2-2.9.9-5.1-1.2-7.9-.5-.7-1.3-1.3-2.1-1.5-.3 0-.5-.1-.8 0-4.3.2-5.6 3.9-1.5 4.4.9.1 1.7.2 2.5.6.6.3.6.6.9 1.6.3-.3.2-1.6.9-1.5.5.1.6.9.6 1.4-.1.7-.5 1.3-.1 2.3z" fill="#1f57a4"/></g><g><path d="M508.8 196.4c-.5-.7-1.3-1.3-2.1-1.5-.3 0-.5-.1-.8 0h-.3c.2 0 .3 0 .5.1 1.3.5 2.8 2.7 2.9 5.2.3.3.3.9.3 1.2-.1.5-.4 1.2 0 2.1.1.3.4.7.8.6-.3-2.7.9-4.9-1.3-7.7z" fill="#17616b"/></g><g><path d="M506.4 200.5c0-1.1-.4-2.3-1.1-3.1-.3-.4-.8-.8-1.3-.9-.5-.1-1.1 0-1.6.3-.8.4-1.4 1.1-1.7 1.9-.2.6-.3 1.3-.2 1.9 0 .1 0 .4.1.5.1.2.1.1.3.1.3 0 .7-.1 1-.1 1.4-.2 2.8-.3 4.2-.4" fill="#2d74da"/></g><g><path d="M523.8 242.6v.1c0-.1-.8-1.9-.8-1.9-.5-4.9-3.1-9.4-3.7-14.3-.1-1-.2-2.1-.2-3.1-.4-8.2-.2-10.5-2-11.9-.6-.4-1.6-.3-2.1.3-.2.2-.3.5-.4.9.3.2.5.4.8.6 2.3 2.2 1.5 6 1.6 8.5.1 6.1 3.5 12.2 5.2 18 .6 1.8 1.2 3.7 1.4 5.6.1.4 0 1 .1 1.6.8-1.2.9-3 .1-4.4z" fill="#17616b"/></g><g><path d="M511.1 194.3c-.5-2-2.6-2.3-4-1.6.3-.1.6-.1 1-.1 1.1.2 1.1 1 1.2 1.3.2.4 1 .6 1.1 1.6 0 .4-.1.9-.4 1.2h.1c.8-.6 1.3-1.5 1-2.4z" fill="#17616b"/></g><g><path d="M359.8 209c.3 0 .7 0 .9-.2.3-.4.1-1.4.2-2.1 0-.4.1-.7.1-1.1 0-.5-.3-1-.3-1.5-.1-.7.2-1.5-.9-2.4-.6-.5-1.7-.9-2.3-1-1-.1-2.6.2-3.2 1.1-.4.5-.5 1.2-.5 1.8-.1 2 1.6 2.9 3.1 4.1.6.5 1.7 1.4 2.9 1.3z" fill="#1d3458"/><path d="M361 205.5c0-.5-.3-1-.3-1.5-.1-.7.2-1.5-.9-2.4-.2-.2-.5-.3-.8-.5l-.1.2c1.4 1.3.8 2.9.9 3.7 0 .1.5 3.3.1 3.7l-.2.2h.1c.3 0 .7 0 .9-.2.3-.4.1-1.4.2-2.1 0-.3.1-.7.1-1.1z" fill="#188291"/><path d="M354.5 205.6c.4.6.5 1.3.5 1.9 0 2.1-1.1 2.7.3 3.6 1 .6 2.5 1.1 3.1.1.2-.3.2-.4.6-3.3.1-.7.1-1.3-1.1-2.3-1.2-1-2.2-1.2-3.3-.1" fill="#1d3458"/><path d="M359.2 202.1c0-.3.3-.4.5-.6-.6-.4-1.6-.9-2.2-1-1-.1-2.6.2-3.2 1.1-.4.5-.5 1.2-.5 1.8 0 .9.3 1.5.8 2.1.3.5.5 1.1.5 1.7.6.1 1.2-.2 1.7-.5s.9-.6 1.2-1.1c.1-.1.1-.3.1-.4 0-.1-.1-.3-.1-.4-.1-.2-.2-.5-.2-.7s.3-.5.5-.4c.2.1.2.2.3.4.1.2.3.1.3-.1v-.4c.1-.4.5-.7.5-1.1-.1 0-.2-.2-.2-.4z" fill="#17616b"/><path d="M356.5 204.7c-.5 1.3-2 2.2-1.8 1.3.1-.2.6-.9.1-1.8-.3-.6-1.8-1.7 0-3.2 1.8-1.5 3.8-.4 4.9-.2.2 0 .3 0 .4.1.6.3-.3.9-.6 1.1-.3.1-.7.2-1 .4-1.7.5-1.7 1.6-2 2.3z" fill="#188291"/><path d="M355.4 201.7c-2-.2-2.3 2.9-.6 4.5.1.1.1 0 .1 0l.6-.9c.5-1.1.8-3.5-.1-3.6z" fill="#188291"/><path d="M353.1 263.5c.7.8 1.7 1.4 2.8 1.5.5.1 1.1 0 1.6.2.1.1.2.1.3.3.1.3-.1.6-.3.8-1.3 1-3.1.3-4.6.6-.7.1-2.6.9-3.1-.4-.2-.4-.1-.8 0-1.2.7-3.6.2-4.6 3.3-2.5" fill="#19273c"/><path d="M357.5 265.2c-.5-.2-1-.2-1.6-.2-1.1-.1-2.1-.6-2.8-1.5v-.7l-.9-.6c-.3 1.7-.1 2.9 1.7 3.2 1.3.2 2.6.1 3.7.8.2-.2.3-.4.2-.6-.1-.3-.2-.4-.3-.4z" fill="#188291" opacity=".34"/><path d="M371 260.8c1.4 1.8 4.4-1.3 4.5.1.3 2.5-3.3 3.4-4.6 4.3-.5.3-1.4 1.1-2.1.5-.4-.3-.4-.9-.5-1.5-.1-1.4-.7-1.8-.5-2.5.2-1 1.9-2 2.8-1.1" fill="#19273c"/><path d="M375.6 261c-.2-1.4-3.1 1.7-4.5-.1l-.4-.2c-.3-.3-.7-.4-1.1-.3v.1c2 4.3 3.8.2 5.3 1.6.1.1.2.3.4.5.2-.6.3-1.1.3-1.6z" fill="#188291" opacity=".34"/><path d="M353 229.2c-.9-2-1.7-4-2.6-6-.3-.6-.5-1.2-.6-1.9 0-.4 0-.9.1-1.3.2-1.3.5-2.6.8-3.9.1-.6.3-1.1.5-1.7.2-.6.5-1.2.9-1.8.1-.2.3-.4.5-.5.3-.1.7 0 1 .3.2.3.4.6.4 1 .1.7 0 1.4-.1 2-.3 1.6-.6 3.1-1.1 4.7-.1.5-.3 1.1-.4 1.7 0 .6 0 1.1.1 1.7.2 1.2.5 2.5.9 3.7.2.6.4 1.3.2 1.8-.1.1-.2.3-.3.4 0-.1-.2-.1-.3-.2" fill="#19273c"/><path d="M358.2 237.1c-.9 9.1-2.1 16.2-4.5 24.9-.3.9-.7 2-1.6 2.1-.7.1-1.4-.5-1.7-1.2-.3-.7-.2-1.5-.1-2.2 1-8.5 2-15.1 1.4-23.6-.1-1.2-.2-2.4-.2-3.5 0-2.3.7-4.5 1.3-6.7.1-.4.2-.7.4-1 .4-.6 1.3-.7 1.9-.5.7.2 1.2.7 1.6 1.3 1 1.4 1.4 3.1 1.6 4.7.2 1.9.2 3.8 0 5.7" fill="#19273c"/><path d="M355.5 233.4c1.7 5.5-.7 11.4-1.1 16.9-.1 1.4-.1 2.9-.3 4.3-.6 4-2.7 7.6-2 9.4.9-.2 1.3-1.2 1.6-2.1 2.4-8.8 3.7-15.9 4.5-24.9l.1-.1c.1-.7.1-1.5.1-2.2l-2.9-1.3z" fill="#188291" opacity=".34"/><path d="M352.3 227c0-2.2-.2-4.4-.7-6.6-.4-2.1-1.1-3.9-.5-6 .4-1.3 1.2-2.6 2.1-3.6.5-.6 1.1-1.2 1.9-1.5 0 0 .1 0 .1-.1 2.2-1 4.4.6 5.7 2.3 1.3 1.7 2 3.8 2.3 6 .4 3.5-.2 7.1.2 10.7.2 1.9.7 3.9 1.1 5.8 1 4.8 1.1 9.7 2.3 14.5 1.7 7 4.6 11.7 4.4 13.7-.1.8-.7 1.5-1.4 1.6-.8 0-1.4-.7-1.9-1.4-4.7-7.1-4.2-7-5.4-11.7-1-4-.5-2.7-3.7-9.4-4.2-9.1-6.4-4.1-6.5-14.3z" fill="#19273c"/><path d="M365.1 237.2c-.2-1.1-.3-2.3-.6-3.4-.9-4.2-1.3-5.1-1.3-9.8 0-2.2.2-4.4-.1-6.6-.2-2.1-.9-4.1-2.2-5.8-.1.3-.2.7-.1 1 .1 1.3.7 2.6 1.1 3.8.9 2.9.3 4.6-.1 9.5-.2 2.3-.3 4.6 0 6.8.5 3.5 1.3 7 2.1 10.5 1.6 7.4 2.4 10.4 5.6 17.2.5 1.1 1 1.6 1.5 1.9 0-.1 0-.2.1-.3v-.4c0-.4-.2-1-.4-1.6-.2-.6-.5-1.3-.8-2.1-.3-.8-.7-1.7-1-2.7-.1-.3-.3-.7-.4-1-.6-1.7-1.3-3.7-1.8-5.9-.3-1.2-.5-2.4-.7-3.6l-.3-1.8-.6-5.7z" fill="#188291" opacity=".34"/><path d="M363.3 220.9v-1.7c-2.1 2.5-5.6 4-8.7 4.7-.8.2-.4 1.3.3 1.2 2.9-.7 6.1-2.1 8.4-4.2z" fill="#1d3458"/><path d="M362.9 228.8c.8.3 1.3 1 1.4 1.4.2.6-.3 2.9-.6 2.9-.1 0-.1 0-.2-.1-.2-.2-.2-.5-.4-.7-.2-.3-1.1-.7-1.2-1.8-.1-1 .6-1.7.9-1.6" fill="#19273c"/><path d="M364.3 230.2c-.1-.4-.6-1-1.4-1.4H362.6c.5.7.8.7 1.2 1.2.2.2.3.5.5.8.1-.2.1-.5 0-.6z" fill="#188291" opacity=".34"/><path d="M358.2 212c-.1 1.7-.7 11.6-.1 13.2.1.4.4.8.6 1.1 3.4 5 3.2 4.9 3.5 5 .4.2 1.2-.1 1.1-1.4-.1-1.7-1.2-3.2-1.7-4.9-1.1-3.8.8-9.7.3-12.2-.2-.9-.8-1.8-1.7-2.2-.8-.2-1.8.5-2 1.4" fill="#19273c"/><path d="M360.3 210.8c-.5-.5-.9-.9-1.5-1.3-1.4.3-3 1.3-3.8 2.5-.4.6.6 1.3 1 .6.9-1.2 2.8-2.7 4.3-1.8z" fill="#1d3458"/><path d="M355.2 211.1c-1.1-.2-3.8-.6-4.4-.3-2.8 1.2-1.8 13.3-1.1 14.2.6.8 4.6.9 5.1.5 0 0 .8-.9.9-1.1.3-.5 0-.7.7-10.2.2-2-.4-2.5-1.2-3.1" fill="#1d3458"/><path d="M353.5 211.1c-.6-.1-1.6-.3-2.5-.3h-.1c-2.8 1.2-1.8 13.3-1.1 14.2.3.4 1.4.6 2.5.7.4 0 .8-.1.9-.2 0 0 .8-.9.9-1.1.3-.5 0-.7.7-10.2.1-2-.5-2.5-1.3-3.1z" fill="#19273c"/><path d="M361.9 212.9c-.2-.8-.7-1.6-1.4-2 1.4 1.4-.6 5.1-.5 11.4 0 1.9.2 1.9 2.1 5.7.5.9.8 1.2 1.1 1.5-.2-1.6-1.2-2.9-1.6-4.5-1.1-3.7.8-9.6.3-12.1z" fill="#188291" opacity=".34"/></g><g opacity=".64"><path d="M-1287.7 3651.5c-9 13.6-18.1 27.4-24.7 42.3-2 4.6-3.8 9.3-4.5 14.3-.5 4-.3 8.1 0 12.1 1.3 20.9 2.6 41.9 3.9 62.8 0 .8.1 1.6.6 2.1.8 1 2.3 1 3.4.3 1-.7 1.7-1.8 2.2-3 8.4-17.5 8-37.8 7.7-57.2 0-3.5-.1-7 .7-10.3.9-3.9 2.8-7.5 4.9-10.9 3.9-6.4 8.4-12.4 13.5-17.9 3.6-3.9 7.4-7.5 10.5-11.8 3.1-4.2 5.5-9.2 5.7-14.5s-2.2-10.8-6.8-13.4c-4.6-2.6-11.3-1.3-13.8 3.3" fill="#5392ff"/></g><g opacity=".64"><path d="M-1270.4 3783.9c-4.8 6.8-12.8 10.3-20.4 13.6-.6.3-1.4.8-1.2 1.5.1.3.4.5.6.6 2.7 1.7 5.8 2.5 9 2.4 3-.1 6-1.1 9-1.4 4.3-.5 9 .2 12.6-2.1.4-.3.8-.6 1-1 .2-.3.2-.7.2-1.1.3-2.8.3-5.7 0-8.5-.1-1-.2-2-.7-2.8-1.3-2.6-4.8-3.2-7.7-2.7" fill="#5392ff"/></g><g opacity=".64"><path d="M-1313.5 3775.7c-2.1 3.7-6.3 5.7-10.3 7-4 1.3-8.3 2.1-11.9 4.3-.3.2-.7.5-.7.8 0 .4.3.7.7 1 3.2 2.2 7.3 2.6 11.1 2.4 3.9-.2 7.7-1 11.6-1 1.8 0 3.7.2 5.5-.1 1.8-.4 3.6-1.4 4.3-3.1.4-.9.3-2 .3-3l-.3-10.8" fill="#5392ff"/></g><g><path d="M336 213c2.1-6.2 3.6-4.8 1.6.8-.2.6-.8.8-1.2.5-.8-.4-.4-1.3-.4-1.3z" fill="#009bef"/><path d="M335.1 219.5c1.3 2 2.6 4 3.6 6.2.3.7.6 1.4.7 2.1.1.6 0 1.2 0 1.8-.2 3.1-.4 6.1-.6 9.2 0 .1 0 .2-.1.3-.1.1-.3.1-.5 0s-.2-.3-.3-.4c-1.2-2.6-1.2-5.5-1.1-8.4 0-.5 0-1-.1-1.5-.1-.6-.4-1.1-.7-1.6-.6-.9-1.2-1.8-2-2.6-.5-.6-1.1-1.1-1.5-1.7-.5-.6-.8-1.3-.8-2.1s.3-1.6 1-2 1.6-.2 2 .5" fill="#175d8d"/><path d="M338.9 237.7c.3.5.9.8 1.5 1s1.2.3 1.7.6l.1.1c0 .1 0 .1-.1.1-.5.3-1.1.4-1.6.3-.6 0-1.1-.1-1.7-.1h-.8c-.3 0-.5-.2-.6-.5-.1-.1 0-.3 0-.4v-1.6" fill="#175d8d"/><path d="M338.2 203c.1 0 .1-.1.1-.1v-.2c-.2-.2-.3-.4-.5-.6-.1-.5-.1-1-.3-1.5-.3-.5-.8-.8-1.4-1-.6-.1-1.2 0-1.7.2-.5.3-.9.7-1 1.2-.1.3 0 .6 0 .8.3 1.4 1.4 2.6 2.7 3.1.4.2.8.3 1.2.1.4-.2.5-.7.5-1.2v-.8c.1.1.2.1.4 0z" fill="#009bef"/><path d="M336.2 205.1c-.7.8-.8 2-1.2 3 0 .1-.1.2-.2.3-.1.1-.2.1-.3.1-.8.1-1.6-.1-2.4-.4.9-1.8 1.5-3.8 1.5-5.9 0-.1 0-.2.1-.3.2-.2.5-.1.8 0 1.1.6 1.8 1.8 1.9 3.1" fill="#009bef"/><path d="M333.2 206c-.9.3-1.4 1.2-1.6 2.1-.3 1-.5 2.1-.4 3.1 0 .7.1 1.5.1 2.2 0 2.3-1.2 4.4-.8 6.7.2 1.3 1 2.5 1.2 3.9.2.8.2 1.7.1 2.6-.1 2.3-.3 4.6-.5 7-.2 1.4-.4 2.8-.4 4.3 0 .7 0 3.8 1.3 2.2.3-.3.4-.7.4-1.1l2.4-10.2c.3-1.1.5-2.1.6-3.2.2-1.6 0-3.2.3-4.8.3-1.4.9-2.7.9-4.1 0-1.2-.3-2.4-.1-3.5.1-.6.5-1.2.5-1.9 0-.3-.1-.7-.2-1-.3-1.7-1.7-5-3.8-4.3z" fill="#047cc0"/><path d="M332.2 207.4c.7-3.3.8-3.7.8-4.3 0-.6 0-1.2.1-1.7.7-3 5.9-2 3.7.3-.3.3-.7.5-1 .8-.9.7.5.6-.8 2.2-.8 1.1-.7 2.2-2.8 2.7" fill="#1c496d"/><path d="M332.6 238.9c.7 1 1.9 1.5 3 2 .1 0 .2.1.2.2l-.1.1c-.4.2-.8.4-1.3.4-.4 0-.9-.2-1.3-.2-.6-.1-1.3 0-1.8-.3-.1 0-.1-.1-.1-.1v-.2-1.2c0-.1 0-.3.1-.4.2-.4.7-.5 1.1-.4" fill="#047cc0"/><path d="M334.8 206.6c.7.1.9.9.9 1.6.2 2.8-.6 5.7-.3 8.5.1 1.5.6 3 .9 4.5.3 1.2.4 2.5-.4 3.4-.3.3-.9.5-1.2.2-.2-.4.1-.8.3-1.2.3-.6.3-1.4.1-2.1-.2-.7-.5-1.4-.8-2-1.5-3.6-1.2-7.6-.9-11.4 0-.4.1-.8.3-1.1.3-.4.8-.6 1.1-.4" fill="#009bef"/><path d="M332.2 206.5c.4.2.4.7.4 1.1 0 2.1-.2 4.2-.5 6.3-.1.9-.3 1.9-.6 2.8-.1.2-.1.3-.2.4-.1.1-.2.1-.3.2-.3.2-.6.3-.9.5-.1.1-.2.1-.4.1-.1 0-.2 0-.3-.1-.6-.2-1.3-.5-1.9-.7-.1 0-.2-.1-.3-.2-.1-.1-.1-.2-.1-.3-.2-.7-.1-1.5-.1-2.2.2-1.9.5-3.7.9-5.5.2-.8.4-1.6 1-2.1.4-.3.8-.4 1.2-.5.6-.2 1.4-.3 1.9.1" fill="#175d8d"/><path d="M337.6 210c0-.2-.1-.4-.1-.7v-.3c0-.1.1-.2.2-.2h.2c.2 0 .3-.2.4-.3.1-.2.3-.3.5-.4.1 0 .1-.1.2-.1.2 0 .3.1.4.3.1.2.2.4.2.6s0 .4-.2.6c-.1.2-.4.3-.6.4-.2.1-.4.2-.5.2" fill="#009bef"/></g><g><path d="M419.3 304.2c4.5 1.6 4.7 1.6 5.1 2 .8.7.7 1.8-.4 2.3-1.3.5-.9-.1-3.5 1.5-.7.4-1.4.8-2.2.9-.8.1-1.7-.1-2.1-.8-.4-.6-.4-1.3-.3-2 .1-2.9.1-3.4.4-3.9.7-.9 1.9-.4 2.9.1" fill="#19273c"/><path d="M432 251.7c0 .6.3 1.1.6 1.6.4.8 1.8 3.5 1.9 4.2.1.5-.3 1.8-.4 2.3-1 2.7-4 3.7-4.1 2.2 0-.5.5-.9.5-1.4 0-.7-1.4-2.4-1.4-3.9 0-.6.2-1.3.4-1.9.4-1.7 0-2.6 0-3.4 0-.4.1-.8.4-1 .7-.7 1.8-.2 1.8.8" fill="#1d3458"/><path d="M432.6 253.3c-.3-.5-.6-1-.6-1.6l-.3-.6c0-.6-.5-1-1.1-1.1.3 2.4.4 3.3.9 5 .4 1.2 1 2.4 1.2 3.7.2.9.1 2 0 3 .5-.5 1-1.1 1.3-1.9.2-.5.5-1.7.4-2.3 0-.8-1.4-3.4-1.8-4.2z" fill="#00b6cb" opacity=".56"/><path d="M406.3 212.5h.7c.3 0 .6-.1.9-.2 1.5-.5 3-1.4 4.2-2.4.2-.2.5-.4.6-.7.2-.4.3-.5.8-.5.3 0 .6-.1.9-.2.4-.1.7-.3.9-.7.4-.9.1-2.3.1-3.2-.2-2.9-.3-3.6-1.4-5.9-.3-.8-.7-1.6-1.4-2.1-1.2-1.1-4.5-1.6-6-1.1-1.4.4-2.4 1.6-2.9 3-.8 2-.2 3.7.7 5.7 1.3 2.5 2.7 5.4 1.9 8.3" fill="#1d3458"/><path d="M414 198.6c-.3-.8-.7-1.6-1.4-2.1-.5-.5-1.4-.8-2.4-1 .8.4 1.6 1.2 1.9 1.7.9 1.4.5 3.3 1.3 4.8s.4.4.8 2.7c.1.9.9 2.5 0 3.3-.7.6-1.1.7-1.2.8.1 0 .2-.1.4-.1.3 0 .6-.1.9-.2.4-.1.7-.3.9-.7.4-.9.1-2.3.1-3.2-.1-2.9-.3-3.7-1.3-6z" fill="#00b6cb"/><path d="M413.5 211.6c-.4-1.9-.7-3.7-.7-5.6 0-1.1-.1-2.3-.7-3.2-.2-.3-.5-.6-.7-.8-.9-.8-2.2-1.4-3.4-1.1v11.6l5.5-.9z" fill="#1d3458"/><path d="M412.6 196.5c-1.2-1.1-4.5-1.6-6-1.1-1.4.4-2.4 1.6-2.9 3-.8 2-.2 3.7.7 5.7.5 1.1 1.1 2.3 1.5 3.5 2.3-.4 4.6-.8 4.8-3.8v-.4c-.1-.2-1.4-1.2-1-2.5.3-.7 1.2-.9 1.4.6.2-.1.3-.1.5-.2-.1-1.8-.9-1.3.7-2.5-.4-1.2-.5-.8.5-2 0-.1-.1-.2-.2-.3zM402.5 225.3c-1.4 3.7-2.7 7.3-4.1 11-2.9 7.9-2.7 8.8-3.3 13.9-.2 2.2-.3 5.9-.8 8-.3 1.5-2.8 1.8-3.2 1.2-.4-.6.5-2.5.3-11.9-.2-8.3 1.2-12.8 3.9-22 .7-2.4 1.5-4.9 2.9-7 .3-.4.7-.9 1.1-1.1.6-.3 1.4-.1 2 .3.6.4.9 1.1 1.2 1.7.7 1.8.8 3.9.1 5.7" fill="#19273c"/><path d="M402.6 225.2c.3-.9.4-1.8.5-2.7-4.9 5.8-8.1 13.1-9 20.7-.3 2.3-.3 3.8-.6 14.1 0 .9 0 1.4.2 1.9.3-.2.5-.5.6-.9.5-2.2.6-5.8.8-8 .6-5.2.4-6.1 3.3-13.9 1.4-3.7 2.7-7.3 4.1-11l.1-.2z" fill="#188291"/><path d="M391.2 258.6c-.4.9-.3 2 0 3 .5 1.3 1.8 3.2 2.3 3.6.9.8 2.4.9 3.8-.1 2-1.4-.4-2-2.4-5.2l-.6-.9c-.8-1-2.5-1.7-3-.6" fill="#19273c"/><path d="M396 261.8s3 .8 3.6 4.7" fill="none" stroke="#19273c" stroke-miterlimit="10"/><path d="M401.4 248.6c2.2 9.8 4.9 18.5 8.1 28.1.7 2 1.3 4 1.9 6 2 7 2.4 14.4 4.1 21.5.3 1.3 1 2.9 2.4 3 .9.1 1.7-.7 2.1-1.5.3-.8.3-1.8.3-2.7 0-1.7-.1-3.5-.1-5.2-.3-10.4-1.5-33.1-4.8-42.8-.7-2.2-1.7-4.3-3.2-6-1.5-1.6-5.3-4-7.5-3.9-1.1.1-2.2.7-2.5 1.8" fill="#19273c"/><path d="M420.3 303c0-1.7-.1-3.5-.1-5.2-.2-6-.7-16.2-1.7-25.7l-2.8 1.8c2.6 27.1 2.7 31.9 3.5 32.8.4-.3.7-.7.8-1.1.4-.7.3-1.7.3-2.6z" fill="#188291"/><path d="M419.3 304.2v.1c-.2-.1-.5-.2-.7-.3.4 3.5.7 3 1.5 3.1 2.5.5 3.8.8 4.6.9.5-.5.4-1.3-.2-1.8-.5-.4-.7-.4-5.2-2z" fill="#188291"/><path d="M401.8 249.7c.8 2.2 2.3 4.1 4.3 5.3 1.6.9 3.5 1.6 4.2 3.2.3.6.3 1.2.4 1.8.6 4.6 1.1 9.1 1.7 13.7.4 3.5.4 7.5 4.2 9.3.5.2 1 .4 1.5.4.9 0 1.8-.5 2.5-1.1 2.2-2.2 2.4-5.5 2.8-8.4.4-3.2.6-6.4.7-9.6.1-4.7-.1-9.5-.4-14.2-6.8 7.3-17 2.6-21.9-.4z" fill="#1d3458"/><path d="M420.6 252.5c-.1 3.5-.5 7-.2 10.6.2 3.5 1.1 7.1.8 10.6-.3 3.6-1.7 6.7-3.6 9.7h.4c.9 0 1.8-.5 2.5-1.1 2.2-2.2 2.4-5.5 2.8-8.4.4-3.2.6-6.4.7-9.6.1-4.7-.1-9.5-.4-14.2-.9 1-1.9 1.8-3 2.4z" fill="#12a3b4"/><path d="M423.5 226.5c.3-3.1 2-6.4.7-9.2-1.6-3.5-8-6.5-11.7-7.2-4.2-.8-10.1 3.3-12.8 6.1-.5.5-1 1.1-1.3 1.8-.3.8-.3 1.7-.3 2.5.3 7.4 3.6 14.5 3.3 21.9-.1 1.7-.3 3.4-.1 5.1.1.8.3 1.5.5 2.2 4.9 3 15.1 7.6 21.8.4-.4-7.8-.9-15.7-.1-23.6z" fill="#19273c"/><path d="M420.6 247.7c.1 1.6.1 3.2.1 4.8 1-.6 2.1-1.4 3-2.4-.4-7.9-.9-15.7-.2-23.6.3-2.8 1.7-5.8 1-8.5l-1.5-.9c-7.6 17.4-3.3 18.6-2.4 30.6z" fill="#188291"/><path d="M412.5 210.1c-.7-.1-1.4-.1-2.1 0 12.2 4.1 10.5 9.9 12.3 13.9.3.7.6 1.2 1 1.7.5-2.8 1.8-5.8.6-8.4-1.8-3.4-8.1-6.5-11.8-7.2z" fill="#188291"/><path d="M419.9 283.6c-3.9 5-8.1 9.8-12.3 14.6-4.9 5.5-5.4 5.2-6.6 4.5-.4-.2-.8-.5-.9-1 0-.2.1-.4.1-.6 2.7-7.2 6.4-14.2 11.6-19.9 1.9-2.2 4.2-4.2 7.1-4.1 1 0 3.1.7 3.4 1.6.4 1-1.8 3.9-2.4 4.9" fill="#1d3458"/><path d="M422.3 278.6c-.2-.6-1-1.1-1.9-1.3-2.5 8.3-10.2 14.6-15.5 21.1-1.3 1.6-2.2 3.2-2.9 4.6.9 0 2.1-1 5.6-4.9 4.2-4.8 8.4-9.5 12.3-14.6.6-.9 2.8-3.8 2.4-4.9z" fill="#12a3b4"/><path d="M424.7 218.3c3.2 10.1 7.9 19.2 7.4 36.4 0 .3 0 .7-.3 1-2.3 1.9-3.3-11.1-7.7-19.5-1.5-2.9-3.6-5.6-4.9-8.7-3.3-7.8 1.2-12.9 3.9-11.4.9.4 1.3 1.4 1.6 2.2z" fill="#19273c"/><path d="M431.5 255c.1.2.2.4.2.6.3-.2.3-.6.3-.9.5-17.2-4.2-26.3-7.4-36.4-.3-.9-.7-1.8-1.5-2.2-.9-.5-2.1-.3-3 .6 1.5 2.6 1.5 5.2 2.5 7.3 1.8 4 3.5 2.9 5.3 11.1 3.4 16 2.5 16.4 3.6 19.9z" fill="#188291"/><path d="M403.4 302.2c-1.9 8-.3 10.9-1.9 10.8-1.5 0-2.5-4.3-2.7-5.9-.4-3.8-2.2-5.5.5-7.3 2-1.3 3.5-.8 4 .3.3.6.2 1.2.1 1.8" fill="#1d3458"/><g><path d="M401.5 313c1.5 0 0-2.9 1.9-10.8l.1-.3c.1-.5.1-1 0-1.4-3.7 5.6-3 10.3-2 12.5z" fill="#12a3b4"/></g><g><path d="M394.9 258.5c.5.5 1 .9 1.5 1.4.3.2.5.5.7.8.2.4.3.8.3 1.2.1.8.1 1.6 0 2.4 0 .1 0 .2-.1.2s-.1 0-.1-.1c-.4-.4-.6-1-.8-1.5-.2-.5-.5-1.1-1-1.3-.7-.4-1.6-.1-2.3-.5-.2-.1-.4-.3-.5-.5-.3-.4-.5-.9-.5-1.4 0-.5.3-1 .8-1.2.6-.3 1.3 0 2 .3" fill="#1d3458"/></g><g><path d="M397.1 260.8c-.2-.3-.4-.6-.7-.8-.5-.5-1-.9-1.5-1.4l-.2-.2c-.4-.2-.8-.3-1.2-.4 0 1.4.8 1 1.7 2.1.9 1 1.6 2.2 2.3 3.3V262c-.1-.5-.2-.9-.4-1.2z" fill="#188291"/></g><g><path d="M412.6 196.5c-.5-.5-1.4-.8-2.4-1 .8.4 1.6 1.2 1.9 1.7.1.1.1.2.2.4.1-.2.3-.4.6-.7-.1-.2-.2-.3-.3-.4z" fill="#1d3458"/></g><path d="M387.5 265.8l18.9.6c.7 0 1.2.6 1.1 1.3L406 278c-.1.5-.5.9-1.1 1l-18.3.9c-.7 0-1.2-.5-1.2-1.2l.9-11.8c0-.7.5-1.2 1.2-1.1z" fill="#19273c"/><path d="M393.9 262.6s-1 1.8-.7 5.2" fill="none" stroke="#19273c" stroke-miterlimit="10"/></g><g><path d="M744.9 190.2c1-.3 1.8-.3 2.6.2 1.9 1.2 4.9 7.8 5.8 9.9l16.1.3-9.9-22.8-14.6 12.4z" fill="#047cc0"/><path d="M752.4 198.4c1-.5 2-.9 3.1-1.4-1-2.2-4-5.8-5.1-6.6-1.3-.8-3-1-4.4-.3.5 0 1.1.1 1.5.4 1.5.9 3.6 5.1 4.9 7.9z" fill="#12a3b4"/><path d="M745.4 160c-2.3.8-4.2 2.5-5.4 4.6-1.2 2.1-1.6 4.6-1.2 7 .1.8.4 1.6.4 2.4.3 3.3-2.6 5-2.6 6.3 0 .7 1.1 1.3 1.8 1.2-.3 1.1-1 2.9.4 3.4-.3.5-.8 1.2-.4 1.7.1.2.3.3.5.4.3.2.6.3.8.5.1.1.2.3.2.5.3 1.1-.2 2.3 1.5 2.7 2 .5 4-.3 5.9-1 1.5-.6 3.1-1.2 4.5-2 1.8-1 3.5-2.3 5.1-3.6 1.2-1 2.4-2.1 3.4-3.4 1-1.4 1.7-3.1 2.3-4.8.8-2.3 1.5-4.6 1.7-7 .2-2.4-.3-4.9-1.6-7-1.7-2.6-4.6-4.3-7.7-4.6s-6.2.6-8.8 2.2" fill="#047cc0"/><ellipse cx="739" cy="175.1" rx="1.2" ry="2.7" fill="none" stroke="#d1f0f7" stroke-width=".4" stroke-miterlimit="10"/><path d="M749.5 157.8c-1.2.4-2.3.9-3.4 1.6l-.7.6c-2.3.8-4.2 2.5-5.4 4.6-1.2 2.1-1.6 4.6-1.2 7 .1.8.4 1.6.4 2.4.3 3.3-2.6 5-2.6 6.3 0 .7 1.1 1.3 1.8 1.2-.3 1.1-1 2.9.4 3.4-.3.5-.8 1.2-.4 1.7.1.2.3.3.5.4.3.2.6.3.8.5.1.1.2.3.2.4.3 1-.2 2.2 1.5 2.6 1.3.3 2.6.1 3.8-.3-.1 0-.3.1-.4.1-.6.1-1.1-.5-1.3-1.1-.1-.6 0-1.2.2-1.8.4-1.4 1.2-3.2.9-4.7-.2-.9-.8-1.7-1-2.6-.3-1.6.8-3.2.6-4.9-.1-1-.7-1.9-1.1-2.8-1.8-4-.3-9 2.8-12.1 1.1-.9 2.3-1.8 3.6-2.5z" fill="#12a3b4"/><path d="M762.8 185.2c3.3-.5 3.4-13.6 3-16.7-.5-5.1-3-11.2-7.9-12.4-11.4-2.8-21.4 8.4-17.7 8.7 3.9.2 6.8.8 8.4 1.4 3.1 1.1 3.1 3.2 3.6 4.2.8 1.6 2.9 2.6 2.9 4.4 0 .2 0 .5.2.6.9.6 1.2-3.6 3.2-3.7.5 0 1 .4 1.2.8.7 1.8-1.3 5.4-1.2 6.5 0 .8.5 1.5 1 2.2.7 1.3 2.2 3 3.3 4z" fill="#17183a"/><path d="M740.2 164.9c1 .1 2 .2 2.9.3.6-1.7 1.6-3.3 2.9-4.6 2.3-2.4 5.3-3.8 8.5-4.8-9.9-.2-17.6 8.8-14.3 9.1z" fill="#188291"/><path d="M758 161c1.9 1.7 4.7 2.3 7.2 1.5 5.1-1.7 6-8.6.5-11.6-7.4-3.9-13.3 6.2-7.7 10.1" fill="#17183a"/><path d="M794.1 402c1-3.8.4-8.4 3.3-11 .5-.5 1.1-.8 1.8-1.1-.6-.5-1.2-1.1-1.8-1.6-1.3-5.2-2.6-10.3-3.8-15.5-1.1-4.6-2.3-9.2-4.3-13.6-2.9-6.3-7.4-11.7-9.7-18.2-6.8-19.5 9.1-41 4-61.1-.9-3.6-2.5-7-3.4-10.7-1.5-6.4-.7-13.1.2-19.6 1.3-9.2 3.7-18.9 3.6-28.3-.1-8.5-3.2-16.9-8.7-23.4-1.2-1.4-2.5-2.7-4.1-3.7-4.8-3-11-2.6-16.5-1.2-18 4.4-14.1 11.7-10.8 20.4 9.1 24.2 5.8 54.3 11.2 79.1 1.1 4.9 1 10.1 1.4 15.1.5 6.2 1.2 12.5 2.1 18.7.8 5.6 1.8 11.2 3.8 16.5 1.5 4.1 3.7 7.9 5.8 11.7 7 12.5 14 25 21 37.6.4.6.7 1.3 1.1 1.9 1 3.9.9 8.1.4 12.1-.1.6-.2 1.1-.2 1.7 1.7-1.4 3-3.5 3.6-5.8z" fill="#12a3b4"/><path d="M788.3 422.9c.6.5 1.4.5 2.2.4 1.2-.1 2.3-.2 3.4-.6 3.2-1.1 5.2-4.4 6.4-7.6.5-1.4.9-2.9 1.2-4.3.5-2.4.7-4.9 1.9-7.1.7-1.4 1.9-2.7 2.1-4.3.1-.7 0-1.3-.2-2-.6-2.2-2.2-4.1-3.9-5.7-.7-.6-1.4-1.2-2.1-1.9-.6.3-1.2.6-1.8 1.1-2.9 2.6-2.4 7.2-3.3 11-.6 2.3-1.9 4.4-3.7 5.9-.7 4.2-1.8 8.4-2.5 12.6-.2.9-.3 1.9.3 2.5z" fill="#1d3458"/><path d="M783.4 215.5c-1.1-6.4-3.9-12.4-8.1-17.3-1.2-1.4-2.5-2.7-4.1-3.7-1.1-.7-2.2-1.2-3.4-1.6-1.5.1-3 .4-4.5.7-4.7 1-9.5 2.4-12.5 6.2l1.8 8.8c2.6 14.6 23.6 11.1 30.8 6.9z" fill="#17183a"/><path d="M781.8 241c-6.1.7-11.9 3.4-17.1 6.9l16-.5c.4-2.1.8-4.2 1.1-6.4zM799.5 389.9c-1.6-2-2.8-4.2-3.4-6.7-.9-3.4-1.7-6.9-2.6-10.3-1.1-4.6-2.3-9.2-4.3-13.6-2.9-6.3-7.4-11.7-9.7-18.2-4.2-12.3.4-25.3 3.3-38.3-5.4-.7-11.5-1.6-17.7-2.4 3.5 14.5-1 25.3 2.3 35.4 1.4 4.2 4 7.9 6.1 11.9 4.9 9.4 6.7 20.3 11.9 29.6 3.4 6.1 8.4 11.8 9.8 18.6.4-1.9.9-3.6 2.3-4.8.6-.6 1.3-1 2-1.2z" fill="#1d3458"/><path d="M791.5 415.9c-.5 1.9-1 3.8-.4 5.7.2.6.5 1.2.8 1.6.7-.1 1.4-.2 2.1-.5 3.2-1.1 5.2-4.4 6.4-7.6.5-1.4.9-2.9 1.2-4.3.5-2.4.7-4.9 1.9-7.1.7-1.4 1.9-2.7 2.1-4.3.1-.7 0-1.3-.2-2-.6-2.2-2.2-4.1-3.9-5.7-.7-.6-1.3-1.2-1.8-1.9-.7.3-1.4.6-2 1.2-1.4 1.3-2 3-2.3 4.8.1.6.2 1.2.3 1.9.3 6.3-2.4 12.2-4.2 18.2z" fill="#17183a"/><path d="M801.5 305.5c.1 0 0 0-.1-.1 0 .1.1.1.1.1z" fill="#1d3458"/><path d="M783.6 280c-.9-3.6-2.5-7-3.4-10.7-1.5-6.4-.7-13.1.2-19.6.1-.8.2-1.6.4-2.4l-16 .5c-.7.5-1.5 1-2.2 1.5-3.5 2.5-6.9 5.4-9.1 9.1-.9 1.5-1.5 3.1-1.9 4.7l.6 8.1 6.6 14.1c3.2 5.4 5.1 10.4 6.3 15 6.2.8 12.3 1.7 17.7 2.4 1.7-7.6 2.7-15.2.8-22.7z" fill="#17183a"/><path d="M803.1 415.6c-.5 4.9-4.6 9.4-13.6 9.2-.8 0-1.1-1.1-1-1.9.1-.8.4-1.5.8-2.1 1.3-2.1 2.9-4 4.3-6.1 1.4-2 2.6-4.2 3.1-6.7.2-1 .3-1.9.4-2.9.3-1.8 1.1-3.6 2.4-4.9 1-.9 2.3-1.5 3.6-1.6 3.4-.4 3.6 2.1 2.5 6.1l-.7 2.4s-1.1 1-1.8 8.5zM724.1 233.8c-2-2.5-2.2-2.8-2.5-3.1-.8-.9-1.5-.1-1.6.4-.1.7 1.5 2.9 1.9 3.5l2.2-.8z" fill="#047cc0"/><path d="M764.7 303c4.6-9 4.2-18.1 2.3-27.6-2-10-1.2-20.3-.6-30.3.7-11.8 1.2-24-3.1-35.1-1-2.5-2.3-5-4.5-6.5-1.1-.7-2.3-1.1-3.5-1.4-3.2-.7-6.9-.4-9.7 1.3-2.9 1.8-2.9 5-4.3 7.9-2.7 5.6-7.6 11.3-6.5 18 .5 3.3 2.6 6.2 3.6 9.4 2.3 7.4-1 15.1-3.3 22.4-3.6 11.5-4.9 23.6-3.8 35.6.7 7.1 2.2 14.2 3.7 21.2 2.3 10.7 5.8 21.6 5.8 32.5 0 11.6 2.9 23 5.7 34.2 1.6 6.5 3.2 13 4.9 19.4.6 2.4 1.7 5.2 4.1 5.5 1.7.2 3.3-1.2 4-2.8.7-1.6.6-3.4.6-5.1-.3-8.8-.6-17.7-.9-26.5-.2-4.5-.3-8.9-1-13.3-.5-3.2-1.3-6.4-1.7-9.7-.6-5.2-.3-10.4 0-15.6.3-4 .5-8 .8-12 .2-3.2.4-6.4 1.4-9.4 1.1-4.4 4-8.1 6-12.1z" fill="#12a3b4"/><path d="M768.4 275.1c-4.3-21.5 4.5-45.6-3.5-66.4-2.1-5.4-6.4-7.3-13-7.2-1.8 3.6-2.2 7.9-.5 12.3l.4 1.6c4.7 32.1-4.2 48.8-10 63.9l27.9 5c-.3-2.6-.7-5.7-1.3-9.2z" fill="#17183a"/><path d="M753.2 410.6c2.6-.4 4.2-3.5 6.7-4-.1-.3-.2-.7-.3-1 .3-1.3.3-2.7.2-4.1-.3-8.8-.6-17.7-.9-26.5-.2-4.5-.3-8.9-1-13.3-.5-3.2-1.3-6.4-1.7-9.7-.6-5.2-.3-10.4 0-15.6.3-4 .5-8 .8-12v-.2c-7.9-2.3-14.3-4.3-14.3-4.3l-1.3-.4c.4 1.5.8 3 1.1 4.5 1.3 6.4 1.3 13.1 1.9 19.6 1.7 19.4 6.8 25.2 9.3 56.6-.6.1-1.3.3-2 .7l-.6.4c-.7 1.7-2.2 3.1-4 3.7-.7.7-1.8 2.2-1.7 3 .2 1.5 6.2 2.9 7.8 2.6z" fill="#1d3458"/><path d="M739.9 406.2c-1.9 1.2-2.6 4.6-.6 6.4 1 .9 2.3 1.6 3.6 2 2.2.7 4.7.7 6.9 1.4 2 .7 4.2 2.3 6.9 2.2 1.5-.1 3.1-.8 3.8-2.2.5-1 .6-2.2.5-3.3-.1-2.1-.5-4.1-1.2-6.1-2.5.5-4.1 3.6-6.7 4-1.5.2-7.5-1.2-7.8-2.6-.1-.8 1-2.2 1.7-3-.3.1-.6.2-.9.2-2 .5-4.4-.2-6.2 1zM758.4 315c-.9 3-1.2 6.1-1.4 9.2 13.1 3.9 30.4 8.9 30.3 8.5-.2-.6-2.8-45.5-2.8-45.5l-15.1-2.7c.8 16.9-8.1 21.7-11 30.5z" fill="#17183a"/><path d="M757.1 324.2c.2-3.1.4-6.2 1.4-9.2 2.8-8.8 11.7-13.7 11.1-30.5l-27.9-5c-3 7.9-5.2 15.4-4.2 24.4.6 5.4 2.5 10.5 4 15.7l1.3.4c-.1-.1 6.3 1.8 14.3 4.2z" fill="#17183a"/><path d="M717.2 224.2l15 24.8c.5.8 1.5 1 2.2.4l10.6-8.8c.4-.4.5-1 .2-1.4l-16.4-27.1c-.4-.6-1.3-.7-1.8-.2l-9.6 10.2c-.5.6-.6 1.4-.2 2.1z" fill="#c2dbf4"/><ellipse transform="rotate(-30 729.5042 231.3193)" cx="729.5" cy="231.3" rx="1" ry="1.4" fill="#fff"/><g><path d="M723.3 242c-1.1-1.8-2.2-3.6-3.1-5.5-.8-1.8 1.5-3.8 2.4-3.9.8-.2 2.5.4 3.3 1.2.6.7 1.6 3.8 1.6 4.6.2 1.5-.9 4-1.6 4.5-.5.4-1.7 1-2.6-.9" fill="#047cc0"/></g><path d="M760 262.9c1.9.6 2.6-2.3.8-2.9-8.9-2.7-16.3-8.2-21.3-16.1-.1-.2-.2-.3-.4-.4 0 1.5-.1 3.1-.4 4.6 5.4 7.1 12.7 12.2 21.3 14.8z" fill="#1d364d"/><g><path d="M757.3 218.7c0 1.5.4 41 1.1 42.4.3.5.8.9 1.2 1.2 5.5 3.8 7.2 4.2 12.9 3.8 18.7-1.3 18.8-1.6 19.2-5.5 1.3-13.9 1.2-27.9-.3-41.8-.5-4.4-1.4-9.4-5.7-11.4-4.2-1.9-23.7-1-26.7 3.2-.9 1.4-.9 3.2-1.7 8.1z" fill="#1d364d"/></g><g opacity=".34"><path d="M785.8 207.5c-4.2-1.9-23.7-1-26.7 3.2-.9 1.3-1 3.2-1.8 8.1 0 1.5.4 41 1.1 42.4.3.5.8.9 1.2 1.2 3.3 2.3 5.2 3.4 7.5 3.7-.7-.4-1.3-1-1.6-1.8-1.7-3.9-.9-38.6-.7-42.9.2-5.4 1.6-6.8 6.1-7.6 2.7-.5 16.5-2.3 18.7-.6.4.3 1 1.2 1.6 3-.7-3.6-2-7.2-5.4-8.7z" fill="#12a3b4"/></g><path d="M768.6 213.9c1 1.6 3.6.1 2.6-1.5-4.7-7.3-12.3-16-21.4-17.7-2.3.8-4 1.7-5.3 2.7.2 0 .4.1.6 0 9.8-1.4 18.7 9.2 23.5 16.5z" fill="#1d364d"/><g><path d="M732.1 244.5c-5.4-1.9-6.6-1.5-7.8 3.7-.8 3.3-.4 5 4.3 7.1.6.3.9.4 1.5.3 1.2-.1 3.1-1.3 2.7-2.4-.1-.3-.3-.5-.4-.7-.6-1.5 2.7-3 1.3-6.1-.2-.5-.5-1-1-1.2" fill="#047cc0"/></g><g opacity=".35"><path d="M728.9 249.8c-.6.9-.6 3.4-.4 5.4.6.3.9.4 1.5.3 1.2-.1 3.1-1.3 2.7-2.4-.1-.3-.3-.5-.4-.7-.4-1.1 1.4-2.3 1.6-4.1-3.7.3-4.4.6-5 1.5z" fill="#17183a"/></g><g><path d="M745.7 197c-4 .9-5.4 5.3-5.2 9.8.2 3 .4 3.5 6.1 34.1-4.8 1.9-9.9 3.1-15 3.4-.9.1-1.9.1-2.5.8-1.2 1.3-.3 4.5 3.5 5.7 3.5 1.1 14.2.3 17.9-.1 7.1-.8 8.7-3.1 9.1-8.9.8-11.6.2-23.6-3.8-34.6-1.5-4.1-4.9-11-9.3-10.2" fill="#047cc0"/></g><g opacity=".35"><path d="M751.2 199c-.4.4-.8.8-1 1.3-.6 1.2-.9 2.5-1.1 3.8-.8 6.5.5 13 2.3 19.3l2.7 9.3c.7 2.6 2.2 6.2 1.8 9-.6 4.4-3.6 6.3-7.8 6.4-13.2.3-16.9.2-18.4.9.7.7 1.6 1.3 2.9 1.7 3.5 1.1 14.2.3 17.9-.1 7.1-.8 8.7-3.1 9.1-8.9.8-11.6.2-23.6-3.8-34.6-.9-2.4-2.5-5.9-4.6-8.1z" fill="#17183a"/></g><g><path d="M781.3 229.8l-6.5 2.4c-.7.3-1.4-.1-1.7-.8l-2.4-6.5c-.3-.7.1-1.4.8-1.7l6.5-2.4c.7-.3 1.4.1 1.7.8l2.4 6.5c.3.7-.1 1.5-.8 1.7z" fill="#188291"/><g fill="#17183a"><path d="M773.6 227.1c.3-1 1.1-1.9 2.2-2.3 1.1-.4 2.2-.3 3.1.2l.2-.4c-1-.9-2.4-1.2-3.6-.7-1.3.5-2.1 1.6-2.3 3l.4.2z"/><path d="M776.1 225.7c-1.3.5-2.1 1.6-2.4 2.9 1 .8 2.4 1.1 3.6.6 1.3-.5 2.1-1.6 2.4-2.9-1-.8-2.3-1.1-3.6-.6zm1.1 3.2c-.7.3-1.6-.1-1.9-.8-.3-.7.1-1.6.8-1.9.7-.3 1.6.1 1.9.8.3.8 0 1.6-.8 1.9z"/><circle cx="776.7" cy="227.5" r=".8"/></g></g><g><path d="M787.6 244.7l-6.9-.5c-.7-.1-1.3-.7-1.2-1.4l.5-6.9c.1-.7.7-1.3 1.4-1.2l6.9.5c.7.1 1.3.7 1.2 1.4l-.5 6.9c0 .7-.6 1.2-1.4 1.2z" fill="#188291"/><g fill="#17183a"><circle cx="784" cy="237.5" r=".6"/><circle cx="785.4" cy="237.6" r=".6"/><circle cx="781.6" cy="240.3" r=".9"/><path d="M781.3 239.4l2.1-.9-1 2.3z"/><circle cx="787.3" cy="240.7" r=".9"/><path d="M787.8 239.9l-1.9-1.2.6 2.4zM783.372 239.9156l.0465-.5982 2.3928.1859-.0465.5982zM783.2708 241.1281l.0465-.5982 2.3928.186-.0465.5982zM783.3 241.7c.2.4.5.6 1 .7.5 0 .9-.2 1.1-.5l-2.1-.2zM785.7 238.8c-.2-.4-.6-.6-1-.7s-.9.2-1.1.5l2.1.2z"/></g></g><g><path d="M782.3 258.6l-7.3.5c-.8.1-1.4-.5-1.5-1.3l-.5-7.3c-.1-.8.5-1.4 1.3-1.5l7.3-.5c.8-.1 1.4.5 1.5 1.3l.5 7.3c.1.8-.5 1.5-1.3 1.5z" fill="#188291"/><g fill="#17183a"><path d="M779 255.7l-1 .1.2.4h.7zM775.7117 255.0589l1.4966-.1025.0273.3991-1.4965.1025zM779.8159 255.689l2.2947-.1572.0273.3991-2.2947.1571zM779.8172 254.8572l1.4966-.1025.0273.3991-1.4965.1025zM774.813 255.9919l2.3946-.164.0273.3991-2.3945.164zM777.3 254.1l.2.4 1.8-.1.2-.4zM781.7 250.8v-.5l-2 .1h-.6l-.2.6zM779.1 255.3l.1-.5-1.5.2.2.4zM775.6162 254.2616l1.4966-.1025.0273.399-1.4966.1025zM779.7149 253.96l1.4965-.1025.0274.3991-1.4966.1025zM775.6 253.4v.4l1.4-.1v-.3l.1.3 2.5-.2.1-.2v.2l1.4-.1v-.4zM774.9127 256.8894l2.3945-.164.0342.4989-2.3945.164zM779.9154 256.5863l2.2947-.157.0342.4988-2.2947.157zM777.3 251.1l-.3-.5-2.6.2.1.5zM778.4 256.6l.2.5.1-.5zM778.8 251.4l-.1.4 3.1-.2v-.4zM778.2 252.8l-.3-.5-2.4.2v.4zM777.5 251.5l-3 .2v.4l3.2-.2zM778.5 252.3l-.1.4 2.7-.1-.1-.5z"/></g></g><ellipse cx="741.1" cy="175.1" rx="1.2" ry="2.7" fill="none" stroke="#d1f0f7" stroke-width=".4" stroke-miterlimit="10"/><path fill="none" stroke="#d1f0f7" stroke-width=".4" stroke-linecap="round" stroke-miterlimit="10" d="M742.1 173.5l14.2-.4"/><g><path d="M751.5 407.5c.8-.2 1.7-.6 2-1.4.4-.9.3-5.4.3-6.3h-.1v.5c-.6.1-1.5-.3-2.3 0l-.6 1c-.7 1.7-2 3.2-3.8 3.7-.6.6-1.5 1.7-1.7 2.5 2.1.3 4.3.5 6.2 0z" fill="#12a3b4"/><path d="M739.9 406.2c-1.6 1-2.3 3.5-1.4 5.4.3-.9.3-2 .9-2.8 1-1.5 3.4-1.3 6-1.1.2-.8 1.1-1.9 1.7-2.5-.3.1-.6.2-.9.2-2.1.3-4.5-.4-6.3.8z" fill="#1d3458"/></g></g></svg>